<?xml version="1.0" encoding="UTF-8"?><svg id="Icons" xmlns="http://www.w3.org/2000/svg" viewBox="0 0 64 64"><defs><style>.cls-1{fill:#0d9dda;}</style></defs><path class="cls-1" d="M45.512,4.049c-7.355,1.021-19.77,1.035-27.034.04-2.992-.41-5.714,1.876-5.714,4.895v46.032c0,3.02,2.722,5.305,5.714,4.896,5.549-.76,14.103-.932,21.112-.515,2.167.129,4.185.314,5.922.555,2.995.416,5.723-1.871,5.723-4.894V8.943c0-3.023-2.728-5.31-5.723-4.894ZM32,56.723c-1.577,0-2.855-1.278-2.855-2.855s1.278-2.855,2.855-2.855,2.855,1.278,2.855,2.855-1.278,2.855-2.855,2.855ZM45.305,45.371c0,2.058-1.857,3.615-3.896,3.332-.998-.139-2.133-.25-3.349-.334-4.887-.338-11.095-.235-15.054.307-2.037.279-3.889-1.277-3.889-3.333V14.007c0-2.056,1.853-3.612,3.889-3.333,4.945.678,13.396.668,18.403-.027,2.039-.283,3.896,1.274,3.896,3.332v31.391Z"/></svg>