<?xml version="1.0" encoding="UTF-8"?><svg id="Icons" xmlns="http://www.w3.org/2000/svg" viewBox="0 0 64 64"><defs><style>.cls-1{fill:#fe7298;}</style></defs><path class="cls-1" d="M60,21.781c0-8.578-6.949-15.531-15.521-15.531h0c-.641,0-1.272.039-1.892.114-.93.113-1.835.309-2.708.579-.4.124-.793.264-1.178.418-1.156.464-2.242,1.063-3.241,1.778-.333.238-.656.489-.969.752-.938.789-1.781,1.688-2.509,2.676-.318-.427-.663-.832-1.022-1.224-.035-.039-.065-.082-.101-.121-.797-.853-1.689-1.616-2.66-2.272-.303-.205-.614-.4-.932-.583-.813-.47-1.678-.859-2.576-1.176-.311-.11-.626-.21-.945-.3-.321-.091-.646-.172-.974-.243-.985-.213-2.005-.336-3.051-.349h-.201c-.373-.001-.743.012-1.109.038-.119.008-.235.026-.353.037-.246.023-.493.044-.735.079-.139.02-.275.049-.414.073-.218.037-.437.071-.651.117-.147.031-.29.072-.435.108-.202.049-.404.096-.603.153-.149.043-.294.095-.441.142-.19.061-.382.119-.568.187-.146.053-.289.115-.433.173-.182.073-.366.143-.545.222-.143.064-.282.135-.423.203-.174.084-.349.165-.52.255-.14.074-.276.155-.413.233-.14.079-.282.153-.419.237-2.443,1.491-4.45,3.643-5.76,6.203-1.085,2.121-1.698,4.524-1.698,7.071,0,4.762,2.141,9.023,5.513,11.872,7.389,6.81,14.069,14.379,19.916,22.584l.56.58c1.139,1.18,3.029,1.18,4.168,0l.013-.014c1.27-1.801,2.589-3.565,3.938-5.303,1.107-1.427,2.235-2.835,3.393-4.219.179-.214.363-.423.543-.636,1.073-1.267,2.168-2.515,3.283-3.744.209-.231.415-.465.626-.695,1.214-1.321,2.456-2.617,3.718-3.893.277-.28.557-.556.835-.834,1.3-1.293,2.617-2.57,3.965-3.813.006-.006.013-.012.019-.018,3.369-2.849,5.509-7.109,5.509-11.868,0-.008,0-.016,0-.024,0-.008,0-.016,0-.024Z"/></svg>