<?xml version="1.0" encoding="UTF-8"?><svg id="Icons" xmlns="http://www.w3.org/2000/svg" viewBox="0 0 64 64"><defs><style>.cls-1{fill:none;}.cls-2{fill:#fe7298;}.cls-3{fill:#fff;}.cls-4{fill:#e3066a;}</style></defs><path class="cls-1" d="M36.572,51.77c-.385-.148-.745-.379-1.049-.694.306.316.665.547,1.049.694Z"/><path class="cls-2" d="M60,21.788c0-8.572-6.949-15.521-15.521-15.521h0c-.641,0-1.272.039-1.892.114-.93.113-1.835.309-2.708.579-.4.124-.793.263-1.178.418-1.156.464-2.242,1.062-3.241,1.777-.333.238-.656.489-.969.752-.938.789-1.781,1.687-2.509,2.674-.318-.427-.663-.832-1.022-1.223-.035-.039-.065-.082-.101-.121-.797-.852-1.689-1.615-2.66-2.27-.303-.205-.614-.399-.932-.583-.813-.469-1.678-.858-2.576-1.176-.311-.11-.626-.21-.945-.3-.321-.091-.646-.172-.974-.243-.985-.213-2.005-.335-3.051-.349h-.201c-.373-.001-.743.012-1.109.038-.119.008-.235.026-.353.037-.246.023-.493.044-.735.079-.139.02-.275.049-.414.073-.218.037-.437.071-.651.117-.147.031-.29.072-.435.108-.202.049-.404.096-.603.153-.149.043-.294.095-.441.142-.19.061-.382.119-.568.187-.146.053-.289.115-.433.173-.182.073-.366.143-.545.222-.143.064-.282.135-.423.203-.174.084-.349.165-.52.255-.14.074-.276.155-.413.233-.14.079-.282.153-.419.237l-.004.008c-1.371.836-2.596,1.883-3.644,3.088-.769,2.204-2.464,8.516.751,14.502,4.299,8.005,22.351,21.812,35.356,18.381.472-.535.932-1.08,1.411-1.608.209-.231.415-.465.626-.694,1.214-1.32,2.456-2.616,3.718-3.89.277-.279.557-.556.835-.833,1.3-1.292,2.617-2.568,3.965-3.811.006-.006.013-.012.019-.018,3.369-2.847,5.509-7.104,5.509-11.861,0-.008,0-.016,0-.024,0-.008,0-.016,0-.024Z"/><path class="cls-4" d="M8.56,26.169c-3.215-5.987-1.52-12.298-.751-14.502-.821.943-1.536,1.98-2.111,3.103-1.085,2.119-1.698,4.521-1.698,7.066,0,4.759,2.141,9.017,5.513,11.864,7.389,6.806,14.069,14.37,19.916,22.569l.56.58c1.139,1.179,3.029,1.179,4.168,0l.013-.014c1.27-1.8,2.589-3.562,3.938-5.3,1.107-1.426,2.235-2.833,3.393-4.216.179-.214.363-.423.543-.635.612-.722,1.246-1.424,1.872-2.133-13.006,3.431-31.058-10.377-35.356-18.381ZM35.522,51.076c.304.315.664.546,1.049.694-.385-.147-.744-.378-1.049-.694Z"/><path class="cls-3" d="M43.057,10.82c5.515-1.348,11.083,2.048,12.436,7.585.19.777.287,1.555.298,2.321.018,1.294-1.606,1.437-2.315.354-2.503-3.822-6.309-6.578-10.631-7.787-1.244-.348-1.603-1.935-.368-2.314.19-.058.384-.112.58-.16Z"/></svg>