<?xml version="1.0" encoding="UTF-8"?><svg id="Icons" xmlns="http://www.w3.org/2000/svg" viewBox="0 0 64 64"><defs><style>.cls-1{fill:#001e5b;}.cls-2{fill:#fff;}.cls-3{fill:#05628a;}.cls-4{fill:#0d9dda;}</style></defs><path class="cls-1" d="M32,9c5.465,0,9.912,4.446,9.912,9.912v21.342h-19.823v-21.342c0-5.465,4.446-9.912,9.912-9.912M32,4c-8.235,0-14.912,6.676-14.912,14.912v26.342h29.823v-26.342c0-8.235-6.676-14.912-14.912-14.912h0Z"/><path class="cls-4" d="M54.505,54.249c0,3.464-3.099,6.097-6.541,5.709-5.234-.591-10.555-.894-15.947-.894s-10.735.305-15.98.898c-3.442.389-6.542-2.244-6.542-5.708v-27.753c0-3.463,3.099-6.097,6.541-5.709,5.234.591,10.554.894,15.946.894s10.736-.305,15.981-.898c3.442-.389,6.542,2.244,6.542,5.708v27.753Z"/><path class="cls-3" d="M9.62,27.14c.829,15.642,1.185,30.73,26.795,31.991-1.461-.045-2.927-.068-4.398-.068-5.403,0-10.735.305-15.98.898-3.442.389-6.542-2.244-6.542-5.708v-25.924c0-.409.043-.807.125-1.19Z"/><path class="cls-2" d="M49.749,24.898c.499-.079.91.132,1.083.439.151.237.218.553.149.884-.321,1.531-.571,3.199-.728,4.951-.063.701-.816,1.11-1.301.599-.318-.334-.582-.717-.783-1.134-.416-.779-.655-1.309-1.534-1.816-.697-.403-1.866-.479-2.734-.529-1.492-.056-2.837-.414-3.867-.995-.826-.466-.369-1.458.579-1.494,1.803-.07,3.716-.214,5.691-.438,1.18-.134,2.332-.29,3.446-.466Z"/><path class="cls-2" d="M30.152,49.324c-.015,0-.028,0-.043,0-.751-.013-1.456-.362-1.921-.952l-4.708-5.976c-.854-1.085-.668-2.657.417-3.511s2.657-.667,3.511.417l2.812,3.569,8.918-10.557c.893-1.057,2.468-1.187,3.523-.296,1.055.891,1.188,2.468.297,3.523l-10.896,12.898c-.476.563-1.175.887-1.91.887Z"/></svg>