<?xml version="1.0" encoding="UTF-8"?><svg id="Icons" xmlns="http://www.w3.org/2000/svg" viewBox="0 0 64 64"><defs><style>.cls-1{fill:#0d9dda;}</style></defs><path class="cls-1" d="M47.963,20.788c-.349.039-.701.067-1.051.104v-1.98c0-8.235-6.676-14.912-14.912-14.912s-14.912,6.676-14.912,14.912v1.984c-.35-.037-.703-.064-1.053-.104-3.441-.388-6.541,2.245-6.541,5.709v27.753c0,3.464,3.1,6.098,6.542,5.708,5.245-.593,10.577-.898,15.98-.898s10.713.304,15.947.894c3.441.388,6.541-2.245,6.541-5.708v-27.753c0-3.464-3.101-6.098-6.542-5.708ZM22.089,18.912c0-5.465,4.446-9.912,9.912-9.912s9.912,4.446,9.912,9.912v2.415c-3.281.229-6.59.359-9.93.359s-6.624-.129-9.893-.357v-2.418ZM42.957,35.539l-10.896,12.898c-.476.563-1.175.887-1.91.887-.015,0-.028,0-.043,0-.751-.013-1.456-.362-1.921-.952l-4.708-5.976c-.854-1.085-.668-2.657.417-3.511s2.657-.667,3.511.417l2.812,3.569,8.918-10.557c.893-1.057,2.469-1.187,3.523-.296,1.055.891,1.188,2.468.297,3.523Z"/></svg>