<?xml version="1.0" encoding="UTF-8"?><svg id="Icons" xmlns="http://www.w3.org/2000/svg" viewBox="0 0 64 64"><defs><style>.cls-1{fill:#001e5b;}.cls-2{fill:#fff;}.cls-3{fill:#eaf5fe;}.cls-4{fill:#05628a;}.cls-5{fill:#0d9dda;}.cls-6{fill:#0d9dda;}</style></defs><path class="cls-3" d="M28.809,43.994c1.455.959,3.345.959,4.801,0,7.133-4.697,14.604-8.665,22.303-11.922-.771-.801-1.89-1.317-3.151-1.317-.512,0-.997.096-1.451.249-1.286-2.415-3.995-4.085-7.139-4.085-.665,0-1.307.083-1.924.223-.57-1.503-2.119-2.589-3.962-2.589-.529,0-1.03.099-1.497.261-.823-1.632-2.622-2.771-4.722-2.771-.97,0-1.866.254-2.639.68-.205.092-.406.198-.598.323-.055.036-.111.069-.166.105-.231-.037-.467-.065-.709-.065-1.854,0-3.41,1.1-3.971,2.617-.235-.019-.473-.033-.713-.033-2.98,0-5.574,1.499-6.932,3.712-.531-.102-1.081-.158-1.646-.158-2.862,0-5.35,1.391-6.744,3.461,7.191,3.138,14.173,6.906,20.86,11.31Z"/><path class="cls-4" d="M47.553,35.939c-.188.095-.376.192-.564.287.188-.096.376-.192.564-.287Z"/><path class="cls-4" d="M41.983,38.901c-.377.212-.752.431-1.128.646.376-.216.75-.434,1.128-.646Z"/><path class="cls-4" d="M57.826,27.066c-8.38-3.346-16.503-7.534-24.238-12.564-1.445-.94-3.312-.94-4.757,0-7.735,5.03-15.857,9.217-24.237,12.563-1.839.734-1.846,3.455-.011,4.199,1.282.52,2.555,1.066,3.824,1.625-.153-.067-.304-.138-.457-.205,1.395-2.07,3.882-3.461,6.744-3.461.564,0,1.114.056,1.646.158,1.357-2.214,3.951-3.712,6.932-3.712.241,0,.478.014.713.033.561-1.517,2.117-2.617,3.971-2.617.243,0,.478.028.709.065.055-.036.111-.069.166-.105.192-.125.393-.231.598-.323.773-.425,1.669-.68,2.639-.68,2.1,0,3.899,1.139,4.722,2.771.467-.162.968-.261,1.497-.261,1.843,0,3.392,1.086,3.962,2.589.617-.14,1.259-.223,1.924-.223,3.144,0,5.853,1.67,7.139,4.085.454-.153.939-.249,1.451-.249,1.261,0,2.38.516,3.151,1.317h0c.641-.271,1.28-.547,1.924-.807,1.835-.744,1.828-3.464-.011-4.199Z"/><path class="cls-4" d="M39.194,40.508c-.524.31-1.043.631-1.564.948.521-.318,1.041-.638,1.564-.948Z"/><path class="cls-4" d="M26.077,42.243c.916.573,1.827,1.155,2.732,1.751.182.12.371.225.564.315-.194-.09-.383-.195-.564-.315-.905-.596-1.817-1.178-2.732-1.751Z"/><path class="cls-4" d="M29.969,44.534c.809.24,1.673.24,2.482,0-.809.24-1.673.24-2.482,0Z"/><path class="cls-4" d="M33.61,43.994c-.364.24-.755.419-1.159.539.405-.12.796-.3,1.159-.539.925-.609,1.857-1.205,2.793-1.79-.937.585-1.868,1.181-2.793,1.79Z"/><path class="cls-4" d="M44.769,37.379c-.273.145-.545.295-.818.442.273-.147.545-.297.818-.442Z"/><path class="cls-4" d="M17.757,37.437c.503.268,1.005.539,1.506.814-.5-.275-1.003-.546-1.506-.814Z"/><path class="cls-4" d="M16.386,36.712c-.477-.247-.956-.489-1.435-.731.479.242.958.483,1.435.731Z"/><path class="cls-4" d="M12.138,34.603c.456.217.913.432,1.367.654-.454-.222-.911-.437-1.367-.654Z"/><path class="cls-4" d="M53.125,33.288c-.055.025-.111.05-.166.074.055-.025.11-.05.166-.074Z"/><path class="cls-4" d="M50.338,34.577c-.116.055-.233.111-.349.167.116-.056.233-.112.349-.167Z"/><path class="cls-4" d="M20.549,38.965c.539.303,1.075.612,1.611.923-.535-.311-1.072-.62-1.611-.923Z"/><path class="cls-4" d="M25.136,41.667c-.603-.37-1.206-.739-1.813-1.1.607.361,1.21.729,1.813,1.1Z"/><path class="cls-1" d="M52.413,11.852l-6.687-4.069c-1.179-.718-2.718-.343-3.436.836-.718,1.18-.343,2.718.836,3.436l1.106.673-11.074,16.427,4.146,2.795,11.205-16.62,1.305.794c.406.247.854.365,1.297.365.844,0,1.667-.427,2.138-1.201.718-1.18.343-2.718-.836-3.436Z"/><path class="cls-5" d="M23.965,34.325c.448.251.802.593,1.073.978.92-.501,2.271-.493,3.541.137,1.096.544,1.864,1.418,2.156,2.313.273-.07.555-.121.851-.131.921-.032,1.763.261,2.422.753.347-1.14,1.359-2.082,2.703-2.342,1.288-.249,2.523.199,3.283,1.052,1.718-2.681,2.06-5.947-2.611-8.832-6.086-3.76-10.132-2.232-14.036,5.807.21.067.417.152.618.265Z"/><path class="cls-4" d="M23.965,34.325c.448.251.802.593,1.073.978.92-.501,2.271-.493,3.541.137.046.023.083.054.127.078-1.439-2.979-1.344-7.469,4.149-9.131-3.739-.597-6.665,1.799-9.515,7.672.212.068.422.153.625.267Z"/><path class="cls-6" d="M57.837,31.264c-.644.261-1.283.536-1.924.808-5.155,2.181-10.204,4.688-15.121,7.511h.025c-2.43,1.393-4.834,2.849-7.194,4.403-.004.003-.009.006-.013.009-1.091.719-2.427.899-3.641.539-.202-.06-.401-.135-.595-.225-.194-.09-.383-.195-.564-.315-.005-.003-.009-.006-.014-.009-2.358-1.553-4.761-3.009-7.19-4.402h.023c-.112-.065-.225-.129-.337-.193-.887-.507-1.779-1.003-2.675-1.489-.211-.114-.421-.229-.632-.342-.894-.479-1.793-.947-2.695-1.405-.217-.11-.433-.222-.65-.331-.921-.462-1.846-.91-2.775-1.351-.193-.092-.385-.187-.579-.277-1.099-.515-2.203-1.016-3.313-1.501-1.125-.491-2.255-.97-3.39-1.431-.884-.358-1.33-1.176-1.36-2.009h-.012v10.328h.013c.03.832.476,1.65,1.36,2.009,8.382,3.399,16.501,7.642,24.227,12.731,1.455.959,3.345.959,4.801,0,7.726-5.088,15.845-9.331,24.227-12.73.884-.358,1.33-1.177,1.36-2.009h.012v-10.328h-.012c-.03.833-.476,1.651-1.36,2.009Z"/><path class="cls-2" d="M51.956,35.634l5.135-2.214c.396-.171.836.128.822.56l-.15,4.657c-.035.874-.497,1.808-.744.676l-.486-3.058c-.139-.373-.512-.605-.907-.565l-3.306.902c-1.597.24-1.49-.51-.363-.958Z"/></svg>