<?xml version="1.0" encoding="UTF-8"?><svg id="Icons" xmlns="http://www.w3.org/2000/svg" viewBox="0 0 64 64"><defs><style>.cls-1{fill:#fff;}</style></defs><path class="cls-1" d="M42.788,31.807c.864-6.299.459-13.058-2.518-19.122-1.438-2.928-3.643-6.122-6.548-8.146-.515-.359-1.125-.539-1.734-.539s-1.218.179-1.733.539c-2.057,1.433-3.755,3.455-5.087,5.551,0,0,0-.002,0-.003-.005.008-.009.016-.015.024-.258.408-.504.818-.734,1.228-.013.024-.028.047-.041.07-.238.428-.466.855-.672,1.276-2.596,5.288-3.235,11.104-2.784,16.683.067.824.157,1.644.269,2.456-4.817,3.884-3.987,10.722-3.987,12.695,0,.438.218.578.453.578.207,0,.428-.108.525-.216,1.655-1.658,2.872-2.953,5.424-4.173.189-.063.387-.125.601-.183.056-.015.118-.029.175-.044.198-.051.404-.1.62-.148.072-.016.146-.031.22-.047l-.457,2.613c0,.453.368.821.821.821.048,0,.095-.004.142-.012.025-.004.051-.007.077-.012-1.062,4.335-2.982,8.413-5.656,11.989l-1.749,2.339c-.609.815-.028,1.975.99,1.975h25.167c1.027,0,1.605-1.18.977-1.992l-1.294-1.672c-2.89-3.732-4.951-8.037-6.047-12.628.045.007.091.012.137.012.487,0,.882-.395.882-.882l-.463-2.635c.641.148,1.22.325,1.71.536,2.507,1.223,3.718,2.497,5.359,4.142.095.123.339.273.559.273.222,0,.419-.152.419-.635,0-1.977.832-8.833-4.008-12.712ZM42.658,57.561l.34.439h-22.082l.835-1.117c2.896-3.873,4.932-8.221,6.053-12.924l.132-.556c1.094-.121,2.205-.186,3.326-.209.188,1.691.491,2.862.913,2.862s.723-1.166.911-2.849c1.003.033,1.999.094,2.98.205l.179.75c1.169,4.904,3.327,9.412,6.414,13.399ZM41.335,38.942c-.028-.014-.057-.027-.086-.04-.579-.249-1.269-.467-2.051-.647-.149-.034-.3-.051-.45-.051-.506,0-1,.193-1.376.549-.486.462-.709,1.136-.593,1.797l.167.948c-1.224-.16-2.462-.241-3.701-.282.235-4.459-.121-10.389-1.069-10.389s-1.304,5.917-1.07,10.375c-1.359.03-2.718.114-4.062.287l.15-.856c.114-.653-.103-1.319-.578-1.781-.377-.365-.878-.564-1.392-.564-.135,0-.271.014-.406.042l-.243.052c-.24.053-.47.108-.695.166l-.052.013-.144.037c-.252.069-.484.141-.707.215-.079.026-.157.057-.232.094-1.516.725-2.618,1.477-3.573,2.278.109-2.529.719-5.739,3.276-7.801.546-.44.822-1.135.726-1.83-.107-.775-.193-1.564-.256-2.344-.479-5.909.392-11.171,2.586-15.641.174-.354.378-.741.616-1.169.009-.015.038-.065.046-.08.201-.358.428-.737.674-1.127.006-.009.012-.018.018-.028,1.374-2.164,2.902-3.84,4.542-4.983.166-.116.375-.179.59-.179s.424.064.59.179c3.001,2.092,4.983,5.526,5.896,7.387,2.488,5.068,3.272,11.114,2.332,17.969-.096.697.182,1.393.73,1.833,2.573,2.062,3.184,5.283,3.293,7.819-.939-.786-2.021-1.526-3.495-2.245Z"/><path class="cls-1" d="M29.326,55.301c-.127,0-.255-.041-.363-.125l-2.367-1.846c-.144-.112-.228-.284-.228-.466s.084-.354.228-.466l2.367-1.846c.258-.2.629-.155.83.103.201.257.155.629-.103.83l-1.769,1.38,1.769,1.38c.257.201.303.572.103.83-.116.15-.291.228-.467.228Z"/><path class="cls-1" d="M34.621,55.301c-.176,0-.35-.078-.467-.228-.201-.257-.155-.629.103-.83l1.769-1.38-1.769-1.38c-.257-.201-.303-.572-.103-.83.201-.258.572-.303.83-.103l2.367,1.846c.144.112.228.284.228.466s-.084.354-.228.466l-2.367,1.846c-.108.084-.236.125-.363.125Z"/><path class="cls-1" d="M31.144,55.995c-.059,0-.12-.009-.179-.028-.311-.099-.483-.431-.384-.742l1.616-5.08c.099-.311.431-.484.742-.384.311.099.483.431.384.742l-1.616,5.08c-.08.251-.313.412-.563.412Z"/><path class="cls-1" d="M31.988,13.142c-2.551,0-4.62,2.068-4.62,4.62s2.068,4.62,4.62,4.62,4.62-2.068,4.62-4.62-2.068-4.62-4.62-4.62ZM31.988,20.513c-1.519,0-2.751-1.232-2.751-2.751s1.232-2.751,2.751-2.751,2.751,1.232,2.751,2.751-1.232,2.751-2.751,2.751Z"/></svg>