<?xml version="1.0" encoding="UTF-8"?><svg id="Icons" xmlns="http://www.w3.org/2000/svg" viewBox="0 0 64 64"><defs><style>.cls-1{fill:#fff;}</style></defs><circle class="cls-1" cx="31.988" cy="17.762" r="2.751"/><path class="cls-1" d="M42.963,31.807c.864-6.299.459-13.058-2.518-19.122-1.438-2.928-3.643-6.122-6.548-8.146-1.03-.718-2.437-.718-3.467,0-2.905,2.025-5.11,5.218-6.548,8.146-2.979,6.069-3.383,12.835-2.516,19.139-4.816,3.884-4.056,11.412-3.986,13.385.05,1.424.849.628.978.362,1.656-1.658,2.872-3.642,5.424-4.862.442-.147.962-.28,1.531-.401l-.372,2.128c0,.454.368.821.821.821.048,0,.095-.004.142-.012,1.754-.305,3.554-.475,5.385-.517-.024,0-.049-.003-.074-.002-.42-4.481-.101-11.899.96-11.899s1.38,7.424.959,11.905c1.773.048,3.517.217,5.217.512.05.009.102.013.152.013.487,0,.882-.395.882-.882l-.378-2.152c.606.144,1.157.315,1.625.517,2.507,1.223,3.718,3.187,5.359,4.831.129.266.928,1.062.978-.362.07-1.975.832-9.523-4.008-13.401ZM32.163,22.382c-2.552,0-4.62-2.068-4.62-4.62s2.068-4.62,4.62-4.62,4.62,2.068,4.62,4.62-2.068,4.62-4.62,4.62Z"/><path class="cls-1" d="M45.534,58.008l-1.294-1.672c-2.774-3.583-4.775-7.696-5.901-12.081-.003,0-.006,0-.009,0-.107,0-.216-.009-.323-.028-1.984-.344-4.02-.519-6.05-.519s-4.069.175-6.055.52c-.08.014-.161.018-.242.021-1.087,4.127-2.95,8.013-5.509,11.435l-1.749,2.339c-.609.815-.027,1.975.99,1.975h25.167c1.027,0,1.605-1.18.977-1.992ZM29.067,55.528c.331.258.39.735.132,1.066-.15.192-.374.292-.6.292-.163,0-.328-.052-.466-.16l-3.041-2.372c-.185-.144-.292-.365-.292-.599s.108-.455.292-.599l3.041-2.372c.331-.258.808-.199,1.066.132.258.33.199.808-.132,1.066l-2.273,1.773,2.273,1.773ZM33.735,50.722l-2.077,6.526c-.103.323-.402.53-.724.53-.076,0-.154-.012-.23-.036-.4-.127-.621-.554-.494-.954l2.077-6.526c.127-.4.554-.622.954-.493.4.127.621.554.494.954ZM38.908,54.354l-3.041,2.372c-.139.108-.303.16-.466.16-.226,0-.45-.1-.599-.292-.258-.33-.199-.808.131-1.066l2.273-1.773-2.273-1.773c-.331-.258-.39-.735-.131-1.066.258-.331.735-.389,1.065-.132l3.041,2.372c.185.144.292.365.292.599s-.108.455-.292.599Z"/></svg>