<?xml version="1.0" encoding="UTF-8"?><svg id="Icons" xmlns="http://www.w3.org/2000/svg" viewBox="0 0 64 64"><defs><style>.cls-1{fill:#fff;}</style></defs><path class="cls-1" d="M26.348,39.882c.724-.071,1.444-.156,2.172-.213.742-.058,1.491-.088,2.236-.132.733-.043,1.462-.1,2.198-.129.744-.029,1.495-.03,2.242-.045.761-.015,1.518-.045,2.282-.045,5.596,0,11.097.408,16.474,1.195,1.249.183,2.422-.669,2.603-1.916l3.42-23.539c.224-1.542-1.155-2.839-2.692-2.567-6.42,1.136-13.029,1.728-19.776,1.728-7.264,0-14.365-.695-21.245-2.007l-1.39-6.04c-.293-1.271-1.426-2.172-2.733-2.172h-6.45c-.932,0-1.688.754-1.688,1.684v3.548c0,.932.984,1.553,1.867,1.253,2.222-.755,4.035-.889,4.037-.889l8.06,35.011c.115.497.273.973.467,1.426-1.016.142-1.961.5-2.791,1.025,0,0,0,0,0-.001-.003.002-.006.005-.01.007-.48.305-.919.666-1.31,1.075-.019.02-.037.041-.056.062-.167.178-.323.365-.471.56-.029.038-.058.077-.087.116-.149.205-.288.417-.414.638-.01.017-.021.032-.03.049-.137.244-.259.497-.366.757-.013.031-.022.064-.035.095-.086.218-.161.442-.225.67-.021.073-.038.146-.057.22-.049.2-.089.403-.121.61-.012.076-.025.15-.035.226-.033.276-.055.555-.055.839,0,0,0,.002,0,.002,0,0,0,.001,0,.002,0,3.874,3.147,7.014,7.029,7.014,0,0,.001,0,.002,0,0,0,.002,0,.003,0,.336,0,.663-.031.986-.077.069-.01.138-.02.207-.031.321-.055.637-.126.941-.223.011-.003.021-.008.031-.011.302-.097.592-.219.875-.354.045-.022.09-.042.135-.065.291-.147.57-.311.836-.495.01-.007.019-.015.029-.022.264-.186.513-.39.749-.61.018-.017.038-.033.056-.051.243-.231.469-.477.676-.74.005-.006.01-.013.015-.02.424-.54.768-1.143,1.02-1.793,0-.002.002-.004.003-.006,0,0,0,0,0,0,.303-.784.476-1.632.476-2.522,0-.62-.089-1.218-.24-1.79.242.004.486,0,.73-.016,3.068-.204,6.165-.308,9.286-.308,2.476,0,4.935.067,7.378.196-.002.008-.006.015-.008.023-.021.073-.038.146-.057.22-.049.2-.089.404-.121.611-.012.075-.025.149-.034.225-.033.276-.055.555-.055.84,0,0,0,.002,0,.002,0,0,0,.001,0,.002,0,3.874,3.147,7.014,7.029,7.014,0,0,.001,0,.002,0,0,0,.002,0,.003,0,.335,0,.662-.031.985-.077.07-.01.139-.02.208-.032.321-.055.636-.126.94-.222.011-.004.022-.008.033-.012.301-.097.591-.218.873-.354.045-.022.091-.042.135-.065.29-.147.57-.311.836-.495.01-.007.019-.015.029-.022.264-.185.513-.39.748-.609.019-.017.038-.034.057-.051.243-.23.468-.477.676-.74.005-.007.01-.014.015-.02.424-.54.768-1.143,1.02-1.793,0-.002.002-.004.003-.006,0,0,0,0,0,0,.303-.784.476-1.632.476-2.522,0-3.876-3.099-6.76-7.033-7.019-.008,0-.015.002-.022.002-4.645-.454-9.352-.694-14.115-.694-3.246,0-6.467.108-9.659.32-1.509.1-2.812-.882-3.124-2.236l-.705-3.062c.469-.066.937-.138,1.409-.194.734-.086,1.475-.145,2.213-.217Z"/></svg>