<?xml version="1.0" encoding="UTF-8"?><svg id="Icons" xmlns="http://www.w3.org/2000/svg" viewBox="0 0 64 64"><defs><style>.cls-1{fill:#fff;}</style></defs><path class="cls-1" d="M53.953,40.512c.113.017.227.025.338.025,1.116,0,2.101-.807,2.265-1.941l3.42-23.539c.204-1.403-.92-2.603-2.282-2.603-.135,0-.272.012-.411.036-6.421,1.136-13.029,1.728-19.776,1.728-7.264,0-14.364-.695-21.245-2.007l-1.39-6.04c-.293-1.271-1.426-2.172-2.733-2.172h-6.45c-.932,0-1.688.754-1.688,1.684v3.548c0,.771.673,1.329,1.406,1.329.153,0,.309-.024.461-.076,2.222-.755,4.036-.889,4.037-.889l8.06,35.011c.115.501.286.973.484,1.427-3.431.466-6.077,3.394-6.077,6.946,0,3.876,3.149,7.019,7.033,7.019s7.033-3.142,7.033-7.019c0-.621-.089-1.22-.24-1.793.05,0,.1.006.151.006.193,0,.386-.006.58-.019,3.068-.204,6.165-.308,9.286-.308,2.475,0,4.931.081,7.373.211-.171.606-.269,1.243-.269,1.903,0,3.876,3.149,7.019,7.033,7.019s7.033-3.142,7.033-7.019-3.149-7.019-7.033-7.019c-.009,0-.017.001-.026.001-4.644-.454-9.35-.694-14.112-.694-3.246,0-6.467.108-9.659.32-.071.005-.142.007-.212.007-1.418,0-2.615-.953-2.912-2.243l-.701-3.047c4.829-.634,9.746-.99,14.749-.99,5.596,0,11.097.408,16.474,1.195ZM19.404,58c-2.775,0-5.033-2.251-5.033-5.019s2.258-5.019,5.033-5.019,5.033,2.251,5.033,5.019-2.258,5.019-5.033,5.019ZM50.351,47.963c2.775,0,5.033,2.251,5.033,5.019s-2.258,5.019-5.033,5.019-5.033-2.251-5.033-5.019,2.258-5.019,5.033-5.019ZM26.343,47.597c.114,0,.229-.004.345-.011,3.15-.21,6.355-.316,9.526-.316,3.202,0,6.419.123,9.616.338-.521.437-.977.948-1.352,1.517-2.752-.161-5.513-.258-8.264-.258-3.136,0-6.305.105-9.419.312-.15.01-.299.015-.448.015-.373,0-.735-.042-1.091-.103-1.028-1.537-2.648-2.644-4.535-3.001-.363-.585-.647-1.229-.808-1.931L11.854,9.148c-.21-.913-1.024-1.551-1.948-1.551-.05,0-.1.002-.151.006-.189.014-1.739.144-3.756.743v-2.345h6.138c.378,0,.7.255.784.621l8.56,37.183c.514,2.234,2.513,3.794,4.861,3.794ZM22.279,38.351l-5.529-24.017c6.812,1.244,13.782,1.886,20.757,1.886,6.756,0,13.527-.592,20.125-1.759.022-.004.042-.006.062-.006.13,0,.212.08.242.114.077.089.065.171.061.202l-3.42,23.539c-.021.145-.157.225-.323.225-.004,0-.007,0-.011,0-5.511-.807-11.152-1.216-16.764-1.216-5.086,0-10.181.367-15.2,1.033Z"/></svg>