<?xml version="1.0" encoding="UTF-8"?><svg id="Icons" xmlns="http://www.w3.org/2000/svg" viewBox="0 0 64 64"><defs><style>.cls-1{fill:#04e1cb;}</style></defs><path class="cls-1" d="M36.473,8.473c-6.176,0-11.788,2.388-15.985,6.281-.084-.002-.167-.013-.251-.013-5.609,0-10.156,4.547-10.156,10.156,0,3.629,1.909,6.804,4.772,8.6-4.491,1.247-8.051,4.908-9.034,9.654l-1.754,8.468c-.434,2.097,1.375,3.98,3.501,3.719,4.095-.502,8.265-.761,12.496-.761,4.347,0,8.631.273,12.834.803.306.039.602.022.889-.023.884.101,1.777.169,2.688.169,12.994,0,23.527-10.533,23.527-23.527s-10.533-23.527-23.527-23.527ZM36.473,53.527c-.095,0-.188-.009-.283-.01.248-.555.354-1.181.221-1.84l-1.715-8.47c-.247-1.217-.664-2.362-1.221-3.416l13.168-13.175c-.295,2.645-.449,5.243-.449,8.462,0,1.079.874,1.953,1.952,1.953s1.952-.874,1.952-1.953c0-5.02.385-8.417,1.145-13.199l.068-.428c.02-.107.03-.217.031-.329,0-.007,0-.014,0-.021,0-.007,0-.014,0-.021-.002-.214-.039-.421-.107-.616-.092-.266-.238-.503-.423-.7l-.002-.003s-.002-.002-.003-.003c-.009-.009-.017-.018-.026-.026l-.002-.002s-.004-.004-.006-.006l-.002-.002c-.006-.006-.012-.012-.018-.018-.007-.007-.015-.014-.022-.021l-.006-.006c-.176-.165-.383-.299-.614-.391-.006-.002-.012-.005-.018-.007-.007-.003-.013-.005-.02-.008-.221-.083-.459-.126-.704-.124-.014,0-.028,0-.042,0h-.003c-.094.003-.187.013-.278.029l-.433.069c-4.78.76-8.176,1.146-13.195,1.146-1.078,0-1.952.874-1.952,1.953s.874,1.953,1.952,1.953c3.221,0,5.819-.154,8.466-.45l-12.781,12.787c-1.518-1.477-3.394-2.573-5.474-3.147,2.857-1.797,4.761-4.969,4.761-8.594,0-4.608-3.071-8.493-7.276-9.735,3.722-2.948,8.394-4.689,13.357-4.689,11.87,0,21.527,9.657,21.527,21.527s-9.657,21.527-21.527,21.527Z"/></svg>