<?xml version="1.0" encoding="UTF-8"?><svg id="Icons" xmlns="http://www.w3.org/2000/svg" viewBox="0 0 64 64"><defs><style>.cls-1{fill:#001e5b;}</style></defs><path class="cls-1" d="M27.62,14.872c-1.141-2.551-1.953-5.916-2.11-9.844-.056-1.381-1.251-2.474-2.598-2.398-1.38.056-2.453,1.219-2.398,2.598.131,3.273.661,6.279,1.491,8.923,2.31.317,4.083.555,5.615.721Z"/><path class="cls-1" d="M45.431,60.968s.006,0,.009,0c-.009,0-.018-.002-.026-.003.006.003.012.004.017.004Z"/><path class="cls-1" d="M46.015,15.625c-.229,0-.461.016-.695.048-1.566.217-2.858.411-3.98.582,1.285-3.13,2.098-6.927,2.268-11.155.055-1.379-1.018-2.542-2.398-2.598-1.371-.057-2.542,1.018-2.598,2.398-.211,5.262-1.577,9.515-3.333,12.178-.793.062-1.604.094-2.539.094-.119,0-.24,0-.364-.002-3.66-.03-6.543-.477-13.704-1.458-.231-.032-.46-.047-.686-.047-2.666,0-4.946,2.129-4.946,4.872v35.558c0,2.743,2.28,4.872,4.946,4.872.226,0,.455-.015.686-.047,7.13-.977,8.396-1.488,13.012-1.488h.058c5.176.005,6.328.52,13.579,1.527.021.003.042.004.062.004s.041,0,.062,0c.006,0,.013,0,.019,0,.005-.001.01-.002.015-.002.005,0,.011.001.017.004-.011-.001-.021-.002-.032-.002-.008.002-.016.004-.023.005.19.022.379.032.566.032,2.669,0,4.954-2.158,4.954-4.905V20.497c0-2.744-2.28-4.872-4.946-4.872ZM48.961,56.095c0,1.602-1.325,2.905-2.954,2.905-.05,0-.101-.001-.152-.004-.125-.023-.251-.035-.377-.035-.003,0-.006,0-.01,0-2.034-.284-3.605-.531-4.873-.732-3.243-.512-5.029-.793-8.852-.797h-.06c-3.373,0-5.086.268-8.196.753-1.312.205-2.944.46-5.087.753-.138.019-.277.028-.415.028-1.625,0-2.946-1.289-2.946-2.912V20.537c0-.768.307-1.488.865-2.029.562-.544,1.3-.844,2.081-.844.137,0,.277.01.415.028l1.917.264c5.904.813,8.598,1.185,12.042,1.213l.38.002c.246,0,.475-.005.706-.009-.776.62-1.575.962-2.349.962-1.381,0-2.5,1.119-2.5,2.5s1.119,2.5,2.5,2.5c3.702,0,6.944-2.521,9.208-6.687.07-.011.132-.02.203-.031,1.329-.205,2.983-.461,5.088-.753.14-.019.281-.029.42-.029,1.625,0,2.946,1.289,2.946,2.872v35.598Z"/><path class="cls-1" d="M38.497,52.892h-13.433c-1.381,0-2.5-1.119-2.5-2.5s1.119-2.5,2.5-2.5h13.433c1.381,0,2.5,1.119,2.5,2.5s-1.119,2.5-2.5,2.5Z"/><path class="cls-1" d="M42.255,32.524c.065,0,.119.053.119.119v9.996c0,.065-.053.119-.119.119h-20.948c-.065,0-.119-.053-.119-.119v-9.996c0-.065.053-.119.119-.119h20.948M42.255,30.524h-20.948c-1.17,0-2.119.949-2.119,2.119v9.996c0,1.17.949,2.119,2.119,2.119h20.948c1.17,0,2.119-.949,2.119-2.119v-9.996c0-1.17-.949-2.119-2.119-2.119h0Z"/></svg>