<?xml version="1.0" encoding="UTF-8"?><svg id="Icons" xmlns="http://www.w3.org/2000/svg" viewBox="0 0 64 64"><defs><style>.cls-1{fill:#0d9dda;}</style></defs><path class="cls-1" d="M27.62,14.872c-1.141-2.551-1.953-5.916-2.11-9.844-.056-1.381-1.248-2.474-2.598-2.398-1.38.056-2.453,1.219-2.398,2.598.131,3.273.661,6.279,1.491,8.923,2.31.317,4.083.555,5.615.721Z"/><path class="cls-1" d="M45.319,15.673c-1.566.217-2.858.411-3.98.583,1.285-3.13,2.098-6.927,2.268-11.155.055-1.379-1.018-2.542-2.398-2.598-1.357-.057-2.543,1.018-2.598,2.398-.211,5.261-1.576,9.514-3.333,12.177-.895.07-1.811.102-2.903.093-3.66-.03-6.543-.477-13.704-1.458-2.949-.404-5.632,1.849-5.632,4.826v35.558c0,2.976,2.683,5.229,5.632,4.826,7.16-.981,8.406-1.492,13.069-1.488,5.176.005,6.328.52,13.579,1.527.06.008.116,0,.175.005-.027-.013-.054.013-.081,0,2.914.349,5.546-1.921,5.546-4.87V20.497c0-2.98-2.689-5.234-5.641-4.824ZM31.095,18.125c.969,0,1.861.315,2.596.837-.853.754-1.74,1.163-2.596,1.163-1.381,0-2.5,1.119-2.5,2.5s1.119,2.5,2.5,2.5h0c1.523,0,2.963-.445,4.296-1.235-.55,1.863-2.257,3.235-4.297,3.235-2.481,0-4.5-2.019-4.5-4.5s2.019-4.5,4.5-4.5ZM38.497,52.892h-13.433c-1.381,0-2.5-1.119-2.5-2.5s1.119-2.5,2.5-2.5h13.433c1.381,0,2.5,1.119,2.5,2.5s-1.119,2.5-2.5,2.5ZM44.373,42.638c0,1.17-.948,2.119-2.118,2.119h-20.948c-1.17,0-2.119-.949-2.119-2.119v-9.996c0-1.17.949-2.119,2.119-2.119h20.948c1.17,0,2.118.949,2.118,2.119v9.996Z"/></svg>