<?xml version="1.0" encoding="UTF-8"?><svg id="Icons" xmlns="http://www.w3.org/2000/svg" viewBox="0 0 64 64"><defs><style>.cls-1{fill:#001e5b;}.cls-2{fill:#fff;}.cls-3{fill:#05628a;}.cls-4{fill:#0d9dda;}</style></defs><path class="cls-1" d="M33.025,25.125c-6.787,0-12.049-8.368-12.512-19.897-.055-1.379,1.018-2.542,2.398-2.598,1.335-.076,2.542,1.017,2.598,2.398.362,9.031,4.179,15.097,7.516,15.097,1.381,0,2.5,1.119,2.5,2.5s-1.119,2.5-2.5,2.5Z"/><path class="cls-4" d="M45.32,15.673c-7.251,1.007-8.867,1.531-12.944,1.497-3.66-.03-6.543-.477-13.703-1.458-2.949-.404-5.632,1.849-5.632,4.825v35.558c0,2.976,2.683,5.23,5.632,4.825,7.16-.981,8.405-1.492,13.069-1.488,5.176.005,6.328.52,13.578,1.527.06.008.116,0,.176.005-.028-.013-.054.013-.081,0,2.914.349,5.547-1.921,5.547-4.87V20.497c0-2.98-2.689-5.234-5.641-4.824Z"/><path class="cls-3" d="M13.042,20.533l-.002,32.365v-2.271,5.469c0,2.976,2.683,5.229,5.632,4.826,7.16-.981,8.406-1.492,13.069-1.488,5.176.005,6.328.52,13.578,1.527.059.008.116,0,.175.005-9.504-4.6-14.596-4.89-22.387-5.114-1.088-.031-2.997-.713-3.92-2.026-3.456-4.917-6.146-33.292-6.146-33.292Z"/><path class="cls-2" d="M46.609,29.962c.38.664,1.417.423,1.459-.665.08-2.071.084-7.657.065-9.191.092-.585-.162-1.065-.527-1.256-.269-.163-.623-.235-.992-.157-1.758.369-2.198.376-4.127.837-.805.072-1.274.937-.688,1.494.382.363,2.542.208,3.126,1.219.464.803.67,2.274.821,3.275,0,0,.485,3.779.865,4.444Z"/><path class="cls-1" d="M38.498,52.893h-13.434c-1.381,0-2.5-1.119-2.5-2.5s1.119-2.5,2.5-2.5h13.434c1.381,0,2.5,1.119,2.5,2.5s-1.119,2.5-2.5,2.5Z"/><rect class="cls-2" x="19.188" y="30.524" width="25.185" height="14.233" rx="2.119" ry="2.119"/><path class="cls-1" d="M31.095,25.125c-1.381,0-2.5-1.119-2.5-2.5s1.119-2.5,2.5-2.5c3.334,0,7.15-6.118,7.516-15.225.056-1.38,1.236-2.455,2.598-2.398,1.38.056,2.453,1.219,2.398,2.598-.466,11.604-5.728,20.025-12.512,20.025Z"/></svg>