<?xml version="1.0" encoding="UTF-8"?><svg id="Icons" xmlns="http://www.w3.org/2000/svg" viewBox="0 0 64 64"><defs><style>.cls-1{fill:#fff;}</style></defs><path class="cls-1" d="M45.467,43.765c.146-.175.418-.175.554,0,.836,1.021,1.75,1.973,2.741,2.838.146.126.156.35.019.496-.088.088-.214.117-.34.088-.855-.253-1.759-.389-2.692-.389s-1.857.136-2.712.399c-.117.039-.253,0-.34-.087-.136-.136-.126-.369.019-.496.991-.865,1.915-1.818,2.751-2.848Z"/><path class="cls-1" d="M16.667,41.977c.146-.175.418-.175.554,0,.836,1.021,1.75,1.973,2.741,2.838.146.126.156.35.019.496-.087.087-.214.117-.34.087-.855-.253-1.759-.389-2.692-.389s-1.856.136-2.712.399c-.117.039-.253,0-.34-.088-.136-.136-.126-.369.019-.496.991-.865,1.915-1.818,2.751-2.848Z"/><path class="cls-1" d="M22.573,46.886c.146-.175.418-.175.554,0,.836,1.021,1.75,1.973,2.741,2.838.146.126.156.35.019.496-.087.087-.214.117-.34.087-.855-.253-1.759-.389-2.692-.389s-1.856.136-2.712.399c-.117.039-.253,0-.34-.088-.136-.136-.126-.369.019-.496.991-.865,1.915-1.818,2.751-2.848Z"/><path class="cls-1" d="M59.219,37.613c0-.029,0-.058-.01-.087-3.49-20.985-18.137-29.791-24.271-32.601-.972-.447-2.012-.671-3.071-.671h-.01c-1.059,0-2.09.224-3.062.671-3.042,1.39-8.962,4.695-14.424,11.236-5.327,6.386-8.515,13.404-9.749,21.442l-.02.136c-.505,3.11-.603,6.298-.603,8.437,0,2.751,1.409,5.288,3.742,6.765,7.047,4.471,14.473,6.697,22.715,6.804h.855c1.633,0,4.763-.068,7.465-.544,5.842-.855,10.42-2.517,13.248-3.771,2.381-1.059,6.813-3.023,7.688-6.328.505-1.915.34-5.783-.496-11.489ZM17.998,19.106c4.867-5.829,10.162-8.709,12.857-9.941.356-.164.72-.244,1.111-.244h.01c.393,0,.77.082,1.128.247,5.347,2.449,17.872,10.144,21.314,28.121h-6.201l-7.478-11.305c-.622-.94-2.001-.942-2.625-.003l-2.464,3.706-5.936-8.813c-.86-1.278-2.744-1.269-3.592.017l-10.818,16.399h-5.886c1.215-6.756,4.047-12.748,8.581-18.184ZM8.665,46.123c0-2.494.152-4.822.426-6.834h18.275c-1.225,1.008-2.712,2.633-2.025,4.189,1.254,2.839,7.58,2.923,7.58,5.088,0,1.45-3.31,4.73-5.037,6.337-6.312-.487-12.109-2.445-17.647-5.959-.984-.623-1.572-1.678-1.572-2.822ZM30.486,55.025s-.002,0-.004,0c.001,0,.002,0,.004,0h0ZM31.311,55.025c.207,0,.441-.001.696-.005-.253.003-.49.005-.696.005ZM34.783,54.912c-1.016.068-1.975.098-2.745.108.77-.011,1.731-.04,2.745-.108ZM55.201,47.854s-.173.511-1.419,1.36c-1.153.786-2.587,1.423-3.649,1.896-2.548,1.13-6.704,2.64-12.033,3.42-.045.006-.089.014-.134.022-1.017.179-2.125.29-3.179.36,1.263-1.362,3.288-3.9,3.288-6.001,0-5.583-8.111-4.58-8.882-6.6-.324-.849.857-2.133,1.848-3.021h23.706c.896,6.562.504,8.376.455,8.565Z"/></svg>