<?xml version="1.0" encoding="UTF-8"?><svg id="Icons" xmlns="http://www.w3.org/2000/svg" viewBox="0 0 64 64"><defs><style>.cls-1{fill:#9050e9;}.cls-2{fill:#7526e3;}.cls-3{fill:#2e844a;}.cls-4{fill:#35a751;}.cls-5{fill:#002775;}.cls-6{fill:#fff;}.cls-7{fill:#8dceff;}</style></defs><path class="cls-5" d="M31.858,8.904c.361,0,.722.078,1.06.232,4.143,1.898,18.409,9.477,21.692,29.253,0,0,1.127,7.685.613,9.623-.273,1.03-7.365,5.182-17.163,6.602-2.414.428-5.376.483-6.755.483-.486,0-.775-.007-.775-.007-6.591-.083-13.406-1.676-20.379-6.103-.928-.589-1.497-1.603-1.5-2.702-.005-1.838.078-4.869.55-7.731l.025-.165c1.289-8.416,4.855-14.558,8.757-19.234,5.036-6.034,10.545-8.981,12.823-10.021.335-.153.693-.229,1.051-.229M31.858,4c-1.072,0-2.111.226-3.088.672-3.069,1.401-9.042,4.738-14.551,11.34-5.378,6.445-8.597,13.522-9.839,21.634l-.021.141c-.515,3.135-.616,6.357-.611,8.511.007,2.78,1.419,5.333,3.775,6.829,7.106,4.511,14.604,6.757,22.921,6.866.094.002.401.008.861.008,1.649,0,4.807-.071,7.532-.545,5.893-.863,10.518-2.545,13.364-3.807,2.404-1.066,6.878-3.05,7.762-6.381.512-1.931.343-5.831-.501-11.591-.004-.031-.009-.061-.014-.092-3.517-21.186-18.296-30.071-24.487-32.907-.981-.45-2.025-.678-3.102-.678h0Z"/><path class="cls-4" d="M54.61,38.388c-3.283-19.776-17.549-27.354-21.692-29.253-.673-.308-1.438-.31-2.111-.003-2.279,1.04-7.788,3.987-12.823,10.021-3.903,4.677-7.468,10.818-8.757,19.234l-.025.165c-.472,2.863-.555,5.894-.55,7.731.003,1.099.572,2.113,1.5,2.702,6.973,4.426,13.788,6.02,20.379,6.103,0,0,4.266.102,7.53-.476,9.798-1.42,16.889-5.572,17.163-6.602.514-1.938-.613-9.623-.613-9.623Z"/><path class="cls-3" d="M46.005,43.253c.144-.178.418-.178.562,0,.839,1.033,1.765,1.993,2.768,2.867.148.129.158.357.019.496-.089.089-.22.12-.341.084-.862-.256-1.775-.394-2.719-.394-.951,0-1.87.139-2.737.399-.121.036-.253.005-.343-.084-.139-.139-.13-.368.019-.498,1.004-.875,1.932-1.836,2.772-2.87Z"/><path class="cls-3" d="M17.123,41.071c.144-.178.418-.178.562,0,.839,1.033,1.765,1.993,2.768,2.867.148.129.158.357.019.496-.089.089-.22.12-.341.084-.862-.256-1.775-.394-2.719-.394-.951,0-1.87.139-2.737.399-.121.036-.253.005-.343-.084-.139-.139-.13-.368.019-.498,1.004-.875,1.932-1.836,2.772-2.87Z"/><path class="cls-3" d="M23.201,45.435c.144-.178.418-.178.562,0,.839,1.033,1.765,1.993,2.768,2.867.148.129.158.357.019.496-.089.089-.22.12-.341.084-.862-.256-1.775-.394-2.719-.394-.951,0-1.87.139-2.737.399-.121.036-.253.005-.343-.084-.139-.139-.13-.368.019-.498,1.004-.875,1.932-1.836,2.772-2.87Z"/><path class="cls-7" d="M54.61,38.388c-3.283-19.776-17.549-27.354-21.692-29.253-.673-.308-1.438-.31-2.111-.003-2.279,1.04-7.788,3.987-12.823,10.021-3.903,4.677-7.468,10.818-8.757,19.234h45.384Z"/><path class="cls-7" d="M20.504,29.491c1.837-2.845,3.688-5.623,5.877-8.909.846-1.042,2.445-1.042,3.291,0,2.309,3.371,4.228,6.209,6.152,9.129.806-1.221,1.645-2.482,2.567-3.866.642-.79,1.855-.79,2.497,0,3.139,4.583,5.331,7.871,8.292,12.543h5.431c-3.283-19.776-17.549-27.355-21.692-29.253-.673-.308-1.438-.31-2.111-.003-2.279,1.04-7.788,3.987-12.823,10.021-3.903,4.677-7.468,10.818-8.757,19.234h5.872c.107-.338.27-.678.468-1.004,1.774-2.928,3.35-5.436,4.937-7.893Z"/><path class="cls-2" d="M22.685,36.155c-2.181-2.181-2.181-6.665-2.181-6.665-1.587,2.458-3.163,4.966-4.937,7.893-.198.326-.36.666-.468,1.004h10.963c-1.233-.573-2.452-1.308-3.377-2.233Z"/><path class="cls-1" d="M40.887,25.845c-.642-.79-1.855-.79-2.497,0-.922,1.384-1.761,2.645-2.567,3.866-1.924-2.92-3.843-5.757-6.152-9.129-.846-1.042-2.445-1.042-3.291,0-2.189,3.286-4.04,6.064-5.877,8.909,0,0,0,4.484,2.181,6.665.925.925,2.144,1.659,3.377,2.233h4.249c1.294-2.132,2.456-3.979,3.621-5.785,0,0,0,3.402,1.655,5.056.263.263.559.505.874.729h12.718c-2.961-4.673-5.153-7.96-8.292-12.543Z"/><path class="cls-2" d="M33.932,32.603c-1.166,1.806-2.327,3.653-3.621,5.785h6.15c-.315-.224-.611-.466-.874-.729-1.654-1.654-1.655-5.056-1.655-5.056Z"/><path class="cls-3" d="M38.061,54.613c-3.264.578-7.53.476-7.53.476-6.591-.083-13.406-1.676-20.379-6.103-.928-.589-1.497-1.603-1.5-2.702-.005-1.838.078-4.869.55-7.731,0,0,1.905,4.7,7.792,9.035,6.674,4.914,21.067,7.025,21.067,7.025Z"/><path class="cls-6" d="M38.277,51.747c-.517-2.682-2.443-4.862-5.423-6.139-.995-.426-1.563-.926-1.687-1.487-.256-1.155.773-3.063,1.539-4.121.268-.37,1.111-1.611,1.111-1.611h-5.698c-1.042,1.599-2.259,4.149-1.691,6.759.327,1.5,1.375,3.572,4.516,4.918,1.497.642,2.362,1.516,2.571,2.6.157.815-.049,1.672-.409,2.402,1.47-.048,3.335-.167,4.955-.454.079-.012.155-.027.235-.039.153-.952.158-1.912-.018-2.828Z"/><path class="cls-6" d="M27.839,13.228c.834-.678,2.257-1.244,2.968-1.569.673-.307,1.438-.305,2.111.003,1.699.779,3.666,1.373,7.316,4.514.586.505,3.455,3.883,1.787,3.883-.434,0-3.389-2.442-3.939-2.809-2.503-1.668-3.933-2.838-6.072-3.031-1.067-.096-7.749,1.917-4.171-.99Z"/></svg>