<?xml version="1.0" encoding="UTF-8"?><svg id="Icons" xmlns="http://www.w3.org/2000/svg" viewBox="0 0 64 64"><defs><style>.cls-1{fill:#001e5b;}.cls-2{fill:#159ad6;}.cls-3{fill:#fff;}.cls-4{fill:#05628a;}.cls-5{fill:#0d9dda;}</style></defs><path class="cls-1" d="M51.235,8.943c0-3.023-2.728-5.31-5.723-4.894-7.356,1.021-19.77,1.035-27.034.039-2.992-.41-5.714,1.876-5.714,4.895v46.032c0,3.02,2.722,5.305,5.714,4.895,5.549-.76,14.103-.932,21.112-.515,2.167.129,4.185.314,5.922.555,2.995.416,5.723-1.871,5.723-4.894V8.943Z"/><path class="cls-5" d="M45.305,13.979c0-2.058-1.857-3.615-3.896-3.332-5.007.695-13.458.704-18.403.027-2.037-.279-3.889,1.277-3.889,3.332v31.336c0,2.056,1.853,3.612,3.889,3.333,3.959-.543,10.167-.645,15.054-.307,1.216.084,2.351.195,3.349.334,2.039.283,3.896-1.274,3.896-3.332V13.979Z"/><path class="cls-4" d="M38.061,48.369s-11.095-.235-15.054.307c-2.037.279-3.889-1.277-3.889-3.333v-19.561s0,18.092,18.944,22.586Z"/><path class="cls-3" d="M42.183,15.909c.093-.591-.164-1.077-.533-1.27-.272-.165-.63-.237-1.003-.159-1.778.373-3.714.663-5.748.845-.814.073-1.288.947-.696,1.51.386.367,4.145.211,4.735,1.234.469.812.556,3.631.615,4.64.01.257.027.509.052.758.004.038.007.074.012.108.151,1.382.533,2.625,1.092,3.616.541.959,1.432.428,1.475-.672.081-2.094-.204-9.317,0-10.61Z"/><circle class="cls-2" cx="32" cy="53.868" r="2.855"/></svg>