<?xml version="1.0" encoding="UTF-8"?><svg id="Icons" xmlns="http://www.w3.org/2000/svg" viewBox="0 0 64 64"><defs><style>.cls-1{fill:#0d9dda;}</style></defs><path class="cls-1" d="M57.2,26.4h-3.579c-.526-2.035-1.335-3.956-2.377-5.725l2.534-2.534c1.094-1.093,1.094-2.866,0-3.96l-3.96-3.96c-1.094-1.094-2.866-1.094-3.96,0l-2.516,2.516c-1.773-1.054-3.701-1.873-5.743-2.408v-3.529c0-1.546-1.254-2.8-2.8-2.8h-5.6c-1.546,0-2.8,1.254-2.8,2.8v3.493c-2.061.525-4.005,1.34-5.794,2.393l-2.465-2.464c-1.094-1.094-2.866-1.094-3.96,0l-3.96,3.96c-1.094,1.093-1.094,2.866,0,3.96l2.445,2.445c-1.067,1.793-1.893,3.745-2.428,5.814h-3.439c-1.546,0-2.8,1.254-2.8,2.8v5.6c0,1.546,1.254,2.8,2.8,2.8h3.439c.535,2.069,1.361,4.021,2.428,5.814l-2.446,2.446c-1.094,1.093-1.094,2.866,0,3.96l3.96,3.96c.557.557,1.29.827,2.02.816.727.008,1.455-.263,2.01-.817l.94-.94-.034-.034,1.489-1.489c1.789,1.053,3.734,1.868,5.795,2.393v3.493c0,1.546,1.254,2.8,2.8,2.8h5.6s.007,0,.01,0h.06c1.541,0,2.791-1.245,2.8-2.784-.023-.003-.047-.003-.071-.005,0-.003,0-.006,0-.01v-3.529c2.042-.535,3.971-1.353,5.743-2.408l2.516,2.516c1.094,1.093,2.866,1.093,3.96,0l3.96-3.96c1.094-1.093,1.094-2.866,0-3.96l-2.534-2.535c1.041-1.769,1.851-3.69,2.376-5.725h3.579c1.547,0,2.8-1.254,2.8-2.8v-5.6c0-1.546-1.253-2.8-2.8-2.8ZM31.93,45.01c-7.174,0-13.01-5.836-13.01-13.01s5.836-13.01,13.01-13.01,13.01,5.836,13.01,13.01-5.836,13.01-13.01,13.01Z"/><path class="cls-1" d="M29.654,39.245c-.014,0-.028,0-.042,0-.751-.013-1.457-.362-1.921-.952l-3.464-4.396c-.854-1.085-.668-2.657.417-3.511,1.085-.853,2.656-.668,3.511.417l1.567,1.99,6.039-7.148c.89-1.055,2.468-1.188,3.523-.296,1.055.891,1.188,2.468.296,3.523l-8.016,9.489c-.475.563-1.174.887-1.91.887Z"/></svg>