<?xml version="1.0" encoding="UTF-8"?><svg id="Icons" xmlns="http://www.w3.org/2000/svg" viewBox="0 0 64 64"><defs><style>.cls-1{fill:#8e9bef;}</style></defs><path class="cls-1" d="M56.771,34.541c-2.535,1.216-5.207,2.188-7.976,2.92v-6.959c0-1.471-1.18-2.618-2.585-2.69-.201-.01-.406.001-.613.037-1.907.329-3.836.593-5.774.825,5.189-1.558,8.972-6.366,8.972-12.063,0-6.958-5.641-12.598-12.598-12.598s-12.598,5.64-12.598,12.598c0,6.54,4.984,11.913,11.36,12.536-2.826.214-5.676.341-8.556.341-3.708,0-7.368-.2-10.983-.552,4.712-.745,8.319-4.813,8.319-9.735,0-5.45-4.418-9.869-9.869-9.869s-9.869,4.418-9.869,9.869c0,4.065,2.459,7.553,5.969,9.065-.922-.136-1.849-.259-2.764-.417-.101-.017-.201-.029-.301-.035,0,.006,0,.011,0,.017-1.537-.095-2.898,1.093-2.898,2.671v26.792c0,1.681,1.541,2.939,3.198,2.653,6.237-1.078,12.651-1.639,19.196-1.639,3.145,0,6.258.137,9.338.391.258.021.516.044.773.067,1.395.125,2.783.272,4.162.447.202.026.403.055.605.082,1.447.192,2.888.405,4.318.651.207.036.413.047.613.037,1.405-.072,2.585-1.219,2.585-2.69v-6.681c2.77.731,5.442,1.701,7.978,2.916,1.461.7,3.228-.323,3.228-1.944v-15.101c0-1.621-1.768-2.644-3.229-1.943Z"/></svg>