<?xml version="1.0" encoding="UTF-8"?><svg id="Icons" xmlns="http://www.w3.org/2000/svg" viewBox="0 0 64 64"><defs><style>.cls-1{fill:#fff;}</style></defs><path class="cls-1" d="M57.753,34.316c-.328,0-.662.071-.982.224-2.534,1.216-5.207,2.183-7.976,2.914v-6.953c0-1.471-1.18-2.618-2.585-2.69-.046-.002-.093-.004-.14-.004-.156,0-.314.013-.473.041-1.907.329-3.836.593-5.774.825,5.189-1.558,8.972-6.366,8.972-12.063,0-6.958-5.641-12.598-12.598-12.598s-12.598,5.64-12.598,12.598c0,6.54,4.984,11.913,11.36,12.536-2.826.214-5.676.341-8.556.341-3.708,0-7.368-.2-10.983-.552,4.712-.745,8.319-4.813,8.319-9.735,0-5.45-4.418-9.869-9.869-9.869s-9.869,4.418-9.869,9.869c0,4.065,2.459,7.553,5.969,9.065-.922-.136-1.849-.259-2.764-.417-.101-.017-.201-.029-.3-.035,0,.006,0,.011,0,.017-.058-.004-.116-.005-.173-.005-1.465,0-2.725,1.157-2.725,2.677v26.792c0,1.52,1.259,2.694,2.725,2.694.156,0,.314-.013.473-.041,6.237-1.078,12.651-1.639,19.196-1.639,3.145,0,6.258.137,9.338.391.258.021.516.044.773.067,1.395.125,2.783.272,4.162.447.202.026.403.055.605.082,1.447.192,2.889.405,4.318.651.159.027.317.041.473.041.047,0,.094-.001.14-.004,1.405-.072,2.585-1.219,2.585-2.69v-6.68c2.77.73,5.442,1.699,7.978,2.914.32.153.654.224.981.224,1.168,0,2.247-.902,2.247-2.167v-15.101c0-1.266-1.078-2.167-2.247-2.167ZM25.597,16.611c0-5.844,4.754-10.598,10.598-10.598s10.598,4.754,10.598,10.598-4.754,10.598-10.598,10.598-10.598-4.754-10.598-10.598ZM6,19.201c0-4.339,3.53-7.869,7.869-7.869s7.869,3.53,7.869,7.869-3.53,7.869-7.869,7.869-7.869-3.53-7.869-7.869ZM46.794,57.293c0,.412-.349.676-.725.694-.043,0-.088-.004-.133-.012-1.341-.232-2.779-.449-4.395-.663l-.24-.033-.376-.051c-1.338-.17-2.764-.324-4.236-.455-.262-.023-.524-.046-.787-.068-3.199-.264-6.396-.398-9.502-.398-6.556,0-13.129.561-19.536,1.668-.044.008-.089.012-.132.012-.349,0-.725-.265-.725-.694v-26.792c0-.182.067-.339.2-.467.137-.132.326-.208.567-.208.002,0,.005,0,.007,0l.195.012c6.372,1.094,12.907,1.649,19.424,1.649,6.556,0,13.129-.561,19.536-1.668.045-.008.089-.012.133-.012h.038c.338.018.687.282.687.694v26.792ZM58,51.584c0,.108-.163.167-.247.167-.041,0-.078-.009-.117-.028-2.857-1.369-5.814-2.415-8.842-3.177v-9.017c3.028-.764,5.984-1.815,8.841-3.186.039-.019.077-.028.117-.028.084,0,.247.059.247.167v15.101Z"/></svg>