<?xml version="1.0" encoding="UTF-8"?><svg id="Icons" xmlns="http://www.w3.org/2000/svg" viewBox="0 0 64 64"><defs><style>.cls-1{fill:#7f8ced;}.cls-2{fill:#fff;}.cls-3{fill:#03234d;}.cls-4{fill:#8e9bef;}</style></defs><path class="cls-1" d="M34.803,41.128c0-1.202,1.008-2.154,2.21-2.15.058,0,.116,0,.174,0,7.014,0,13.656-1.593,19.583-4.438,1.461-.701,3.229.322,3.229,1.943v15.101c0,1.62-1.767,2.644-3.228,1.944-5.922-2.838-12.556-4.427-19.561-4.427-.065,0-.131,0-.196,0-1.203.005-2.211-.947-2.211-2.15v-5.823Z"/><path class="cls-4" d="M46.21,27.812c-.201-.01-.406.001-.613.037-6.237,1.078-12.651,1.639-19.196,1.639s-12.959-.562-19.196-1.639c-.101-.017-.201-.029-.3-.035,0,.006,0,.011,0,.017-1.537-.095-2.898,1.093-2.898,2.671v26.792c0,1.681,1.541,2.939,3.198,2.653,6.237-1.078,12.651-1.639,19.196-1.639,3.145,0,6.258.137,9.338.391.258.021.516.044.773.067,1.395.125,2.783.272,4.162.447.202.026.403.055.605.082,1.447.192,2.889.405,4.318.651.207.036.413.047.613.037,1.405-.072,2.585-1.219,2.585-2.69v-26.792c0-1.471-1.18-2.618-2.585-2.69Z"/><circle class="cls-3" cx="13.869" cy="19.201" r="9.869"/><circle class="cls-3" cx="36.196" cy="16.611" r="12.598"/><path class="cls-1" d="M6.967,30.172c-.052-.785-.072-1.566-.062-2.342-1.537-.095-2.898,1.093-2.898,2.671v26.792c0,1.681,1.541,2.939,3.198,2.653,6.237-1.078,12.651-1.639,19.196-1.639,3.145,0,6.258.137,9.338.391-.307-.025-.612-.057-.92-.08-15.574-4.135-26.959-14.999-27.852-28.447Z"/><path class="cls-2" d="M36.788,8.88c3.972-.274,7.414,2.723,7.688,6.695.083,1.207-1.396,1.34-2.083.344-1.472-2.134-3.434-3.902-5.722-5.139-.938-.507-.947-1.826.117-1.899Z"/><path class="cls-2" d="M12.95,12.964c3.142-.217,5.866,2.154,6.083,5.297.081,1.173-1.351,1.298-2.053.355-1.137-1.526-2.555-2.828-4.179-3.827-.852-.525-.849-1.755.15-1.824Z"/><path class="cls-2" d="M43.19,32.06c.401-.063.753.035.998.22.334.23.566.673.534,1.183,0,1.815-.009,3.767-.009,5.792.045.813-.75,1.407-1.39.903-.189-.149-.367-.311-.534-.485-.002,0-.004-.001-.006-.004-.006-.007-.011-.013-.017-.02-.171-.18-.328-.373-.472-.577-.661-.842-1.231-1.649-2.311-2.272-1.259-.727-3.552-.758-4.453-.877-1.371-.152-2.604-.531-3.588-1.087-.956-.539-.427-1.687.67-1.729,2.088-.081,4.302-.248,6.589-.507,1.366-.155,2.699-.336,3.989-.54Z"/></svg>