<?xml version="1.0" encoding="UTF-8"?><svg id="Icons" xmlns="http://www.w3.org/2000/svg" viewBox="0 0 64 64"><defs><style>.cls-1{fill:#084968;}.cls-2{fill:#1ab9ff;}.cls-3{fill:#fff;}.cls-4{fill:#05628a;}</style></defs><path class="cls-4" d="M49.04,41.804c0,6.188-7.629,11.204-17.04,11.204s-17.04-5.016-17.04-11.204v-16.807h34.08v16.807Z"/><path class="cls-1" d="M37.279,22.196c3.813,2.967,7.721,5.65,11.761,8.05v5.275c-6.69,3.359-13.062,8.462-19.3,13.306-.841.653-1.943.653-2.783,0-3.93-3.053-7.914-6.811-11.997-9.274v-14.049c1.502-1.06,2.987-2.163,4.459-3.308h17.86Z"/><path class="cls-4" d="M5.372,28.47c-1.835-.744-1.828-3.464.011-4.199,8.38-3.346,16.502-7.534,24.237-12.563,1.445-.94,3.312-.94,4.757,0,7.735,5.03,15.858,9.218,24.238,12.564,1.839.734,1.847,3.454.011,4.199-8.382,3.399-16.501,7.642-24.227,12.73-1.455.959-3.345.959-4.801,0-7.726-5.088-15.846-9.332-24.227-12.731Z"/><path class="cls-3" d="M53.644,25.21c.41.207.645.536.702.85.133.73-.804,1.433-1.495,1.701-1.101.426-2.247.937-3.407,1.526-.539.274-1.179-.088-1.028-.673.111-.433.298-.845.554-1.215.384-.557.627-1.241.225-1.785-.102-.138-.24-.263-.381-.361-.97-.672-1.741-1.47-2.255-2.292-.582-.93.452-1.568,1.379-.981,1.146.726,2.374,1.45,3.664,2.155.688.376,1.37.735,2.044,1.075Z"/><path class="cls-2" d="M35.159,24.58c-.198-1.366-1.473-2.312-2.833-2.114l-21.412,3.114c-2.588.376-4.539,2.632-4.539,5.246v1.821c-1.027.766-1.701,1.98-1.701,3.36s.674,2.593,1.701,3.359v6.596c0,1.381,1.119,2.5,2.5,2.5s2.5-1.119,2.5-2.5v-6.596c1.027-.766,1.702-1.98,1.702-3.36s-.674-2.594-1.702-3.36v-1.82c0-.148.111-.276.258-.298l21.412-3.114c1.367-.199,2.313-1.468,2.114-2.834Z"/></svg>