<?xml version="1.0" encoding="UTF-8"?><svg id="Icons" xmlns="http://www.w3.org/2000/svg" viewBox="0 0 64 64"><defs><style>.cls-1{fill:#fff;}</style></defs><path class="cls-1" d="M36.051,43.706c-1.205.794-2.606,1.214-4.05,1.214s-2.845-.42-4.05-1.213c-4.178-2.752-8.524-5.268-12.99-7.548v5.645c0,6.188,7.629,11.204,17.04,11.204s17.04-5.016,17.04-11.204v-5.645c-4.465,2.279-8.811,4.796-12.989,7.547Z"/><path class="cls-1" d="M35.159,24.58c-.199-1.366-1.463-2.31-2.834-2.114l-21.413,3.115c-2.587.377-4.538,2.632-4.538,5.246v1.821c-1.027.766-1.702,1.98-1.702,3.36s.674,2.594,1.702,3.36v6.596c0,1.381,1.119,2.5,2.5,2.5s2.5-1.119,2.5-2.5v-6.596c1.027-.766,1.702-1.98,1.702-3.36s-.674-2.594-1.702-3.36v-1.821c0-.148.111-.277.258-.298l21.412-3.114c1.366-.199,2.313-1.468,2.114-2.834Z"/><path class="cls-1" d="M35.159,24.58c-.181-1.245-1.248-2.14-2.474-2.14-.119,0-.239.008-.359.026l-21.413,3.115c-1.966.286-3.558,1.659-4.212,3.447,1.567.654,3.127,1.332,4.675,2.046v-.248c0-.148.111-.277.258-.298l21.412-3.114c1.366-.199,2.313-1.468,2.114-2.834Z"/><path class="cls-1" d="M58.616,24.272c-8.381-3.346-16.503-7.534-24.238-12.564-1.445-.94-3.312-.94-4.757,0-7.735,5.029-15.857,9.217-24.237,12.563-1.653.66-1.813,2.911-.5,3.903.939-2.378,3.098-4.189,5.741-4.574l21.418-3.116c.212-.03.428-.046.642-.046,2.219,0,4.134,1.656,4.454,3.852.173,1.189-.128,2.375-.846,3.339-.719.964-1.77,1.589-2.959,1.762l-19.522,2.839c5.408,2.624,10.686,5.608,15.789,8.969,1.455.959,3.345.959,4.801,0,7.726-5.088,15.845-9.331,24.227-12.73,1.835-.744,1.828-3.464-.011-4.199Z"/></svg>