<?xml version="1.0" encoding="UTF-8"?>
<svg id="Layer_1" xmlns="http://www.w3.org/2000/svg" version="1.1" viewBox="0 0 122.1 121.36">
  <!-- Generator: Adobe Illustrator 30.2.1, SVG Export Plug-In . SVG Version: 2.1.1 Build 1)  -->
  <defs>
    <style>
      .st0 {
        fill: #189dd8;
      }
    </style>
  </defs>
  <path id="path8" class="st0" d="M61.05,116.61c-30.71,0-55.56-24.86-55.56-55.56S30.34,5.48,61.05,5.48s55.56,24.86,55.56,55.56-24.86,55.56-55.56,55.56h0ZM61.05,0C27.42,0,0,27.05,0,60.68s27.42,60.68,61.05,60.68,61.05-27.05,61.05-60.68S94.68,0,61.05,0Z"/>
  <path id="path12" class="st0" d="M45.33,88.1c-9.14-4.39-15.72-14.26-15.72-25.22,0-5.85,1.83-11.33,4.75-16.08l20.11,29.98h12.06l20.11-29.98c2.92,4.39,4.75,10.24,4.75,16.08,0,10.6-5.48,19.74-13.89,24.49l4.02,14.62c14.62-7.68,24.86-23.03,24.86-40.58s-9.14-31.44-22.3-39.11l-23.4,35.82-23.03-36.19c-13.53,8.04-22.66,22.66-22.66,39.48,0,18.28,10.6,34,26.32,41.31l4.02-14.62Z"/>
</svg>