<?xml version="1.0" encoding="UTF-8"?><svg id="Icons" xmlns="http://www.w3.org/2000/svg" viewBox="0 0 64 64"><defs><style>.cls-1{fill:#001e5b;}.cls-2{fill:#fff;}.cls-3{fill:#05628a;}.cls-4{fill:#0d9dda;}</style></defs><path class="cls-1" d="M40.519,4.061c-5.86,1.267-10.011,1.927-16.144,1.927s-10.491-.659-16.351-1.927c-2.056-.445-3.966,1.6-3.966,4.333v37.352c0,2.734,1.91,4.778,3.966,4.333,5.86-1.267,10.217-1.927,16.351-1.927,3.668,0,6.626.236,9.665.696,2.043.31,4.123.721,6.479,1.23,2.056.445,3.966-1.599,3.966-4.333V8.394c0-2.733-1.91-4.778-3.966-4.333Z"/><path class="cls-4" d="M47.383,12.128c-5.86,1.267-10.011,1.927-16.144,1.927s-10.491-.659-16.351-1.927c-2.056-.445-3.966,1.6-3.966,4.333v37.352c0,2.734,1.91,4.778,3.966,4.333,5.86-1.267,10.217-1.927,16.351-1.927,3.668,0,6.626.236,9.665.696,2.043.31,4.123.721,6.479,1.23,2.056.445,3.966-1.599,3.966-4.333V16.462c0-2.733-1.91-4.778-3.966-4.333Z"/><path class="cls-2" d="M48.004,15.014c.425-.067.775.117.915.382.121.197.174.457.117.728-.269,1.284-.479,2.682-.61,4.15-.053.588-.684.93-1.091.502-.264-.278-.485-.597-.653-.943-.351-.658-.55-1.103-1.29-1.53-.585-.338-1.565-.401-2.293-.444-1.251-.047-2.379-.347-3.242-.834-.692-.391-.309-1.222.485-1.253,1.512-.059,3.116-.18,4.772-.367.989-.112,1.955-.243,2.889-.391Z"/><path class="cls-3" d="M40.904,56.916c-3.039-.461-5.998-.696-9.665-.696-6.134,0-10.491.659-16.351,1.927-2.056.445-3.966-1.599-3.966-4.333v-28.238s.448,14.256,8.305,22.113c5.537,5.537,21.677,9.227,21.677,9.227Z"/><path class="cls-3" d="M40.908,26.803h-.032l-19.543-.241c-1.38-.017-2.485-1.15-2.469-2.531.018-1.381,1.145-2.492,2.531-2.469l19.543.241c1.38.017,2.485,1.15,2.469,2.531-.018,1.37-1.133,2.469-2.499,2.469Z"/><path class="cls-3" d="M40.908,36.031h-.032l-19.543-.241c-1.38-.018-2.485-1.15-2.469-2.531.018-1.38,1.145-2.457,2.531-2.469l19.543.241c1.38.017,2.485,1.15,2.469,2.531-.018,1.37-1.133,2.469-2.499,2.469Z"/><path class="cls-3" d="M40.908,45.5h-.032l-19.543-.241c-1.38-.018-2.485-1.15-2.469-2.531.018-1.381,1.145-2.475,2.531-2.469l19.543.241c1.38.018,2.485,1.15,2.469,2.531-.018,1.37-1.133,2.469-2.499,2.469Z"/><path class="cls-1" d="M59.942,41.464c0,10.028-3.701,12.477-11.077,17.355l-.939.621c-1.127.746-2.571.746-3.698,0l-.939-.621c-7.375-4.878-11.077-7.327-11.077-17.355v-5.53c0-1.488.897-2.818,2.246-3.332l10.433-3.976c.766-.292,1.607-.292,2.373,0l10.433,3.976c1.35.514,2.246,1.845,2.246,3.332v5.53Z"/><path class="cls-2" d="M43.678,51.703h-.043c-.751-.014-1.456-.363-1.921-.953l-3.649-4.633c-.854-1.085-.668-2.656.417-3.511,1.085-.855,2.657-.666,3.511.417l1.753,2.226,6.47-7.659c.893-1.056,2.469-1.188,3.523-.297,1.055.892,1.188,2.469.297,3.523l-8.447,10c-.476.562-1.175.887-1.91.887Z"/></svg>