<?xml version="1.0" encoding="UTF-8"?><svg id="Icons" xmlns="http://www.w3.org/2000/svg" viewBox="0 0 64 64"><defs><style>.cls-1{fill:#0d9dda;}</style></defs><path class="cls-1" d="M32.853,30.636c-1.944-2.776-5.138-4.605-8.768-4.672v-1.833l2.19-1.453c1.88-1.247,2.784-3.364,2.355-5.526-.435-2.185-2.178-3.885-4.444-4.328l-3.611-.707c-.648-.127-.805-.543-.842-.716-.065-.305.057-.571.361-.787l2.937-2.08c1.126-.796,1.393-2.355.597-3.481-.797-1.126-2.356-1.391-3.482-.595l-2.937,2.079c-1.942,1.375-2.847,3.64-2.359,5.91.502,2.342,2.328,4.092,4.766,4.569l3.611.707c.384.076.48.284.505.401.021.109.011.238-.217.39l-2.649,1.757c-.116.077-.225.164-.327.26-.92.861-1.447,2.067-1.447,3.307v2.124c-2.943.055-5.604,1.261-7.541,3.198-1.983,1.982-3.21,4.721-3.21,7.746v12.137c0,2.647.939,5.075,2.503,6.969,2.009,2.435,5.05,3.987,8.454,3.987h4.582c4.916,0,9.076-3.238,10.463-7.698.32-1.029.492-2.123.492-3.258v-12.137c0-2.335-.736-4.494-1.981-6.272ZM23.373,38.09c0,.966-.784,1.75-1.75,1.75s-1.75-.784-1.75-1.75v-4.759c0-.966.784-1.75,1.75-1.75s1.75.784,1.75,1.75v4.759Z"/><path class="cls-1" d="M55.64,52.528V15.016c.201-2.698-5.243-10.952-6.935-10.952s-7.135,8.254-6.933,10.952v37.512c-.302,4.034,2.888,7.472,6.933,7.472s7.236-3.438,6.935-7.472ZM53.64,52.258c-1.784.274-3.555.42-5.312.42-1.531,0-3.049-.116-4.556-.325v-3.51c3.232.503,6.514.472,9.868-.1v3.515ZM53.64,19.196c-1.784.275-3.555.42-5.312.42-1.531,0-3.049-.116-4.556-.326v-3.51c3.232.503,6.513.473,9.868-.099v3.515Z"/></svg>