<?xml version="1.0" encoding="UTF-8"?><svg id="Icons" xmlns="http://www.w3.org/2000/svg" viewBox="0 0 64 64"><defs><style>.cls-1{fill:#001e5b;}.cls-2{fill:#fedfd0;}.cls-3{fill:#dd7a01;}</style></defs><path class="cls-2" d="M5.032,39.554c-.019-.067-.039-.134-.057-.201.018.067.038.134.057.201Z"/><path class="cls-2" d="M4.746,38.437c-.029-.123-.058-.245-.085-.368.027.123.056.246.085.368Z"/><path class="cls-3" d="M4.975,39.352c-.082-.303-.157-.609-.229-.915.072.307.147.612.229.915Z"/><path class="cls-3" d="M4.661,38.069c-.061-.278-.118-.558-.171-.839.053.281.109.561.171.839Z"/><path class="cls-1" d="M59.965,30.648c-.007-.152-.021-.301-.031-.452-.019-.298-.039-.596-.068-.891-.017-.181-.04-.36-.061-.539-.03-.264-.062-.527-.1-.789-.027-.19-.058-.379-.09-.568-.041-.247-.084-.492-.132-.736-.038-.196-.077-.391-.119-.585-.051-.234-.105-.466-.161-.698-.048-.198-.096-.395-.148-.591-.059-.222-.124-.442-.188-.662-.059-.201-.116-.402-.179-.601-.067-.21-.14-.416-.211-.624-.07-.203-.136-.407-.21-.607-.057-.154-.12-.304-.18-.456-.184-.473-.381-.938-.59-1.398-.064-.141-.125-.284-.191-.424-.113-.239-.234-.473-.354-.708-.071-.14-.141-.281-.215-.419-.125-.234-.254-.465-.385-.695-.076-.134-.152-.268-.23-.4-.136-.231-.277-.46-.419-.686-.078-.124-.156-.246-.236-.369-.15-.231-.303-.46-.46-.686-.076-.109-.154-.217-.232-.326-.167-.233-.335-.466-.51-.694-.065-.085-.133-.169-.199-.253-.192-.246-.386-.492-.586-.732,0,0,0-.001-.001-.002h0c-5.136-6.139-12.852-10.046-21.482-10.046-12.842,0-23.657,8.648-26.958,20.436-.023.082-.047.163-.07.246-.079.292-.151.586-.221.882-.032.135-.064.27-.094.406-.059.268-.113.537-.164.808-.032.17-.062.341-.092.512-.042.249-.083.498-.118.749-.029.202-.053.406-.077.61-.027.229-.055.457-.077.688-.023.246-.039.493-.056.741-.013.194-.03.388-.039.583-.02.408-.03.819-.031,1.231,0,.037-.003.073-.003.109,0,.002,0,.004,0,.007,0,.003,0,.005,0,.008,0,.46.013.917.035,1.371.005.107.015.213.021.32.021.35.046.7.08,1.047.012.128.029.255.043.383.036.326.076.65.124.972.019.13.04.259.061.388.052.322.109.642.171.96.024.121.048.241.073.361.07.333.147.663.229.992.025.099.049.199.074.298.096.366.199.729.31,1.09.018.058.034.116.052.174.406,1.299.904,2.557,1.486,3.767.002.004.004.009.007.013.188.39.385.773.59,1.153.024.044.049.087.073.131.188.343.382.682.584,1.016.031.051.062.102.094.153.204.333.414.66.631.984.027.04.053.08.081.12.236.348.479.69.73,1.026.007.01.015.02.022.03.306.409.618.812.945,1.202l.007-.007c5.136,6.137,12.85,10.042,21.479,10.042,8.969,0,16.947-4.222,22.072-10.782.066-.085.134-.168.199-.254.173-.227.34-.458.506-.69.079-.11.158-.22.236-.332.155-.224.306-.45.455-.678.082-.126.163-.252.242-.379.141-.224.28-.45.414-.678.08-.135.157-.271.235-.408.129-.227.258-.455.38-.687.076-.143.147-.287.221-.431.118-.231.236-.462.347-.697.07-.147.134-.296.201-.444.196-.433.382-.872.556-1.317.068-.173.14-.345.205-.52.073-.197.138-.397.206-.596.073-.211.147-.422.215-.636.062-.196.118-.394.176-.592.065-.223.131-.446.191-.671.052-.194.099-.39.147-.586.056-.233.111-.466.162-.701.042-.193.081-.387.119-.582.047-.245.091-.492.132-.739.031-.189.062-.377.089-.567.038-.261.07-.523.1-.787.021-.18.043-.36.061-.541.028-.295.049-.592.068-.89.01-.151.023-.302.031-.454.022-.452.034-.906.034-1.363s-.013-.911-.034-1.363ZM32,6.011c8.064,0,15.283,3.691,20.056,9.471l-7.54,7.54s0,0,0,.001c-2.8-3.891-7.356-6.434-12.516-6.434s-9.723,2.547-12.523,6.443c0,0,0-.001.001-.002l-7.541-7.541c4.773-5.785,11.994-9.479,20.062-9.479ZM29.412,33.573c-1.146-.826-1.829-2.157-1.829-3.562,0-2.423,1.981-4.393,4.416-4.393s4.415,1.971,4.415,4.393c0,1.405-.684,2.736-1.829,3.561-.662.477-.968,1.308-.773,2.1.195.792.852,1.387,1.659,1.502,2.76.394,4.967,2.094,5.853,4.476-2.417,2.34-5.703,3.788-9.324,3.788s-6.908-1.448-9.325-3.788c.883-2.349,3.135-4.086,5.852-4.475.807-.116,1.464-.71,1.659-1.502.195-.792-.111-1.623-.773-2.1ZM35.754,35.196c1.612-1.161,2.66-3.051,2.66-5.184,0-3.531-2.872-6.393-6.415-6.393s-6.416,2.862-6.416,6.393c0,2.133,1.049,4.023,2.66,5.184-2.983.427-5.635,2.178-7.006,4.808-1.664-2.236-2.662-4.995-2.662-7.989,0-7.402,6.022-13.425,13.425-13.425s13.425,6.022,13.425,13.425c0,2.995-.998,5.755-2.662,7.99-1.371-2.632-4.024-4.383-7.009-4.809ZM10.455,46.55c-.053-.078-.102-.159-.154-.238-.333-.503-.647-1.02-.945-1.547-.149-.266-.296-.533-.436-.804-.106-.205-.215-.408-.316-.616-.229-.474-.444-.954-.644-1.441-.06-.144-.115-.29-.172-.436-.193-.496-.376-.996-.539-1.503-.015-.046-.032-.09-.046-.136-.18-.573-.337-1.154-.478-1.739-.025-.102-.048-.204-.071-.306-.266-1.168-.45-2.356-.553-3.555-.012-.14-.022-.281-.032-.422-.04-.583-.067-1.167-.068-1.754,0-.011,0-.022,0-.033,0-.614.028-1.225.071-1.834.007-.103.015-.206.023-.309.327-3.918,1.536-7.711,3.528-11.082.008-.012.014-.025.022-.038.317-.534.656-1.055,1.011-1.566.021-.03.043-.06.064-.09l7.667,7.667c-1.153,2.161-1.811,4.627-1.811,7.247s.66,5.079,1.815,7.236c.004.007,0,0,.011.02t-.01,0l-7.663,7.663c-.09-.128-.185-.253-.273-.383ZM32,58.011c-8.063,0-15.28-3.689-20.053-9.468l7.537-7.537c-.233-.324-.452-.657-.662-.997.468.767.657,1.087,1.247,1.759l.336.424c.118.135.252.255.375.386.163.173.325.345.496.51.216.21.441.41.669.608.145.125.29.249.44.368.269.216.545.422.829.62.113.078.226.155.341.23.331.218.668.424,1.016.617.064.036.13.069.195.104,2.159,1.157,4.614,1.833,7.236,1.833s5.094-.68,7.259-1.845c.051-.027.102-.053.152-.081.362-.2.714-.415,1.057-.643.099-.065.197-.131.294-.198.299-.208.591-.425.874-.654.132-.106.26-.215.389-.325.245-.211.485-.426.717-.652.151-.147.296-.301.441-.454.135-.143.281-.275.411-.423l-.007-.022c.589-.672,1.121-1.395,1.589-2.161-.208.336-.425.666-.655.987l7.537,7.537c-4.773,5.783-11.993,9.476-20.059,9.476ZM57.93,33.821c-.008.122-.018.244-.028.366-.105,1.239-.295,2.467-.573,3.671-.011.047-.022.095-.033.142-.292,1.229-.673,2.434-1.139,3.606-.023.058-.045.117-.069.175-.228.561-.475,1.114-.741,1.658-.043.087-.089.171-.132.258-.22.438-.456.868-.701,1.294-.078.134-.152.27-.232.403-.264.44-.545.87-.835,1.294-.055.08-.113.158-.168.237l-7.664-7.664s0,0-.003-.013c0-.004.004-.007.006-.011,1.151-2.154,1.808-4.61,1.808-7.223s-.66-5.093-1.816-7.257h0s7.666-7.665,7.666-7.665c.057.081.116.16.171.241.29.423.57.852.833,1.29.081.133.155.27.233.405.245.425.48.855.7,1.292.044.087.09.172.133.259.266.544.514,1.097.742,1.659.023.057.045.115.068.173.466,1.173.848,2.379,1.14,3.609.011.047.022.094.033.141.279,1.206.469,2.434.574,3.674.01.122.019.243.028.365.042.602.07,1.205.07,1.811s-.028,1.209-.07,1.81Z"/></svg>