<?xml version="1.0" encoding="UTF-8"?><svg id="Icons" xmlns="http://www.w3.org/2000/svg" viewBox="0 0 64 64"><defs><style>.cls-1{fill:#fff;}</style></defs><path class="cls-1" d="M53.578,14.167l-8.974,8.974c1.771,2.511,2.821,5.567,2.821,8.873,0,2.993-.867,5.778-2.343,8.144l9.025,9.026c3.689-4.743,5.893-10.699,5.893-17.173,0-6.781-2.411-12.999-6.422-17.844Z"/><path class="cls-1" d="M32,16.59c4.489,0,8.518,1.93,11.337,4.991l8.905-8.905c-5.098-5.336-12.279-8.665-20.241-8.665s-15.143,3.329-20.241,8.665l8.905,8.905c2.819-3.061,6.847-4.99,11.336-4.99Z"/><path class="cls-1" d="M43.911,41.815c-2.829,3.434-7.114,5.624-11.911,5.624s-9.082-2.19-11.911-5.624l-8.912,8.912c5.125,5.699,12.554,9.284,20.822,9.284s15.697-3.586,20.822-9.284l-8.911-8.912Z"/><path class="cls-1" d="M42.762,40.005c-1.371-2.632-4.024-4.383-7.009-4.809,1.611-1.161,2.66-3.051,2.66-5.184,0-3.531-2.872-6.393-6.415-6.393s-6.416,2.862-6.416,6.393c0,2.133,1.048,4.023,2.66,5.184-2.983.427-5.635,2.178-7.006,4.808,2.449,3.29,6.355,5.435,10.763,5.435s8.313-2.144,10.762-5.434Z"/><path class="cls-1" d="M16.575,32.014c0-3.306,1.05-6.362,2.821-8.873l-8.974-8.974c-4.011,4.845-6.422,11.062-6.422,17.844,0,6.474,2.203,12.43,5.893,17.173l9.025-9.025c-1.476-2.365-2.343-5.15-2.343-8.144Z"/></svg>