<?xml version="1.0" encoding="UTF-8"?><svg id="Icons" xmlns="http://www.w3.org/2000/svg" viewBox="0 0 64 64"><defs><style>.cls-1{fill:#fff;}.cls-2{fill:#0d9dda;}</style></defs><path class="cls-2" d="M37.991,21.35c0-.086.012-.164.022-.244-.058-.3-.218-.552-.52-.8l-.935-.792c-3.469-2.509-7.444-4.718-11.754-6.525,0,.061-.018.118-.011.18.017.154.029.306.045.459.026.251.05.502.073.752.039.423.074.846.105,1.267.018.245.037.49.052.735.029.454.05.906.069,1.357.009.202.02.405.027.607.021.648.034,1.295.034,1.938,0,.007,0,.015,0,.022,0,.062-.003.124-.003.186h0c-.001.574-.01,1.146-.028,1.715-.002.057,0,.114-.003.171-.005.156-.017.311-.024.467-.018.428-.039.854-.066,1.279-.015.238-.033.474-.051.711-.03.397-.065.792-.104,1.187.091.067.191.125.271.201.163.118.679.468,1.09.747.332.227.604.413.635.438l.493.378c.302.23.608.457.922.68.182.13.361.257.544.382.328.226.661.445.999.664l.293.189.334.213c.385.238.778.473,1.177.704l.099.059.23.137c.549.314,1.111.621,1.687.922l.473.239c.429.22.861.437,1.302.648l.815.383c.347.162.697.321,1.053.479l.654.286v-12.421Z"/><path class="cls-1" d="M25.063,12.51c-.096,0-.192-.027-.277-.084-.229-.153-.292-.464-.139-.693.152-.229.466-.297.696-.144.229.153.295.46.142.689l-.006.009c-.097.145-.255.223-.416.223Z"/><path class="cls-2" d="M37.793,17.942l.982.829c.093.076.167.162.25.243.087-.085.164-.174.262-.254l.795-.676c.009-.008.021-.01.031-.017.008-.007.012-.017.021-.023,3.358-2.491,7.415-4.758,12.053-6.747-.007-.003-.011-.008-.018-.011-.156-.066-.305-.135-.46-.201-.001,0-.003-.001-.004-.002-.096-.041-.19-.083-.285-.125-.143-.062-.287-.125-.429-.188-.416-.184-.825-.371-1.23-.561-.002,0-.003-.002-.005-.002,0,0-.001,0-.002-.001-.221-.103-.443-.206-.661-.311-.449-.216-.888-.437-1.323-.659-.003-.001-.006-.003-.008-.004-.06-.031-.12-.061-.181-.091-.098-.049-.197-.098-.293-.149-.585-.307-1.159-.619-1.718-.939-.084-.048-.165-.097-.247-.146-.027-.016-.055-.033-.083-.049-.003-.002-.006-.003-.008-.005-.441-.256-.875-.516-1.298-.78,0,0,0,0-.002-.001-.118-.074-.232-.149-.347-.224-.065-.042-.13-.084-.195-.126-.346-.223-.687-.449-1.021-.678-.188-.13-.375-.26-.559-.392-.323-.23-.638-.464-.948-.699,0,0-.002-.001-.002-.002-.093-.07-.184-.141-.276-.212-.076-.058-.154-.116-.229-.175-.074-.059-.154-.115-.227-.174-.63-.505-1.526-.524-2.169-.035-.093.071-.19.138-.284.209-.05.037-.101.074-.151.111-.135.1-.271.2-.407.299,0,0-.002.002-.003.002-.326.238-.656.473-.989.705,0,0-.002.001-.003.002-.132.092-.266.183-.399.274-.061.042-.122.085-.184.126-.349.236-.703.467-1.06.696-.001.001-.003.002-.005.003-.163.105-.326.211-.49.314-.017.011-.033.022-.051.033-.458.286-.923.566-1.393.841-.002.001-.004.003-.007.004-.07.041-.138.083-.208.124-.012.007-.025.015-.037.022-.557.322-1.123.634-1.698.94,0,0,0,0,0,0-.167.089-.337.173-.505.261-.001,0-.003.001-.004.002-.412.214-.827.426-1.248.633-.215.106-.433.208-.651.312-.388.184-.78.366-1.176.544-.228.102-.457.204-.687.304-.136.059-.27.121-.406.18,4.32,1.838,8.319,4.067,11.879,6.645Z"/><path class="cls-2" d="M23.735,41.572l.969.817h0s0,0,0,0l.012.01s.005.005.007.007c.085.071.167.143.243.216.082-.08.17-.158.262-.233l.798-.676c2.84-2.109,8.305-4.9,10.968-6.187l-.028-.021-.438-.193c-.396-.174-.787-.353-1.176-.534l-.255-.119-.497-.234c-.431-.208-.854-.42-1.275-.635l-.166-.085c-.186-.093-.293-.146-.396-.2-.592-.311-1.176-.629-1.745-.954l-.193-.114-.119-.07c-.392-.229-.759-.446-1.113-.665h-.004l-.795-.508c-.356-.23-.705-.462-1.047-.696-.192-.132-.384-.267-.573-.402-.331-.234-.655-.475-.974-.718l-.516-.395c-.037-.026-.26-.177-.525-.357-.594-.404-.901-.614-1.073-.736-.06.035-.127.053-.183.096l-.844.621c-.326.238-.656.473-.989.705,0,0-.002.001-.003.002-.133.092-.266.183-.399.274-.061.042-.122.085-.184.126-.349.236-.703.467-1.06.696-.002,0-.003.002-.005.003-.163.105-.326.211-.49.314-.017.011-.034.022-.051.033-.458.286-.923.566-1.393.841-.002.001-.004.003-.007.004-.07.041-.138.083-.208.124-.013.007-.025.015-.038.022-.557.322-1.123.634-1.697.94,0,0,0,0,0,0-.167.089-.337.173-.505.261-.001,0-.003.001-.004.002-.413.214-.827.426-1.248.633-.215.105-.434.208-.651.312-.388.184-.78.366-1.176.544-.228.102-.457.204-.687.304-.136.059-.27.121-.406.18,4.323,1.841,8.323,4.069,11.878,6.646Z"/><path class="cls-2" d="M39.205,36.7s-.002.002-.003.002c-.852.357-8.56,4.075-11.934,6.578l-.759.646c-.342.281-.509.554-.551.893l-.018.141-.008,14.73c.035-.023.075-.033.109-.058,2.85-2.159,5.829-4.017,8.941-5.563,1.179-.619,2.324-1.158,3.43-1.6.564-.387.858-1.08.737-1.777-.671-3.842-.813-8.283.047-13.86.007-.044.005-.087.008-.131Z"/><path class="cls-2" d="M53.267,13.009c-4.606,1.952-8.614,4.178-11.913,6.62l-.786.667c-.344.281-.51.553-.552.893,0,0,0,0,0,0-.001.013-.015.109-.017.12l-.008,14.75c.035-.023.075-.033.108-.058,2.85-2.159,5.829-4.017,8.94-5.563,1.179-.619,2.324-1.158,3.43-1.6.563-.387.858-1.08.737-1.777-.671-3.842-.813-8.283.047-13.86.01-.065.01-.128.012-.193Z"/><path class="cls-2" d="M23.934,44.979c0-.085.012-.164.022-.244-.058-.301-.218-.552-.519-.799l-.935-.792c-.55-.398-1.134-.774-1.708-1.156l-1.525-.989c-2.637-1.632-5.49-3.109-8.521-4.381,0,.061-.018.119-.011.181.017.154.029.306.045.459.026.251.05.502.073.752.04.423.074.846.105,1.267.018.245.037.49.052.735.029.454.05.906.069,1.357.009.202.02.405.027.607.021.649.034,1.295.034,1.938,0,.007,0,.015,0,.022,0,.062-.003.124-.003.186h0c-.001.574-.01,1.146-.028,1.715-.002.057,0,.114-.003.171-.005.156-.017.311-.024.467-.018.428-.039.854-.066,1.28-.015.238-.033.474-.051.711-.031.405-.066.81-.106,1.213-.023.235-.046.469-.072.703-.014.127-.024.255-.039.381-.093.787.362,1.532,1.094,1.835.04.016.081.036.12.053.401.168.805.346,1.216.537.067.031.135.065.202.096.397.188.799.386,1.205.595.044.023.087.044.131.066.311.161.625.328.941.5.119.065.239.134.358.2.087.049.175.097.263.146.433.243.868.495,1.309.757.07.042.141.085.211.127.427.256.856.519,1.29.79.045.028.09.055.135.084.456.287.916.583,1.379.885.091.06.183.119.274.18.457.3.916.607,1.378.92.072.049.144.098.215.147.451.307.905.62,1.361.938.03.021.059.041.089.062.004.003.008.003.012.006v-14.706Z"/></svg>