<?xml version="1.0" encoding="UTF-8"?><svg id="Icons" xmlns="http://www.w3.org/2000/svg" viewBox="0 0 64 64"><defs><style>.cls-1{fill:#001e5b;}.cls-2{fill:#05628a;}</style></defs><path class="cls-2" d="M16.284,59.722c.03.021.059.041.089.062.153.107.317.186.488.238-.171-.053-.335-.132-.488-.238-.03-.021-.059-.041-.089-.062Z"/><path class="cls-1" d="M45.977,15.253c.037-.02.075-.04.112-.06-.03.015-.056.029-.087.044l-.025.017Z"/><path class="cls-1" d="M32.347,39.092l-.026.017c.038-.021.077-.041.115-.062-.031.015-.057.029-.089.045Z"/><path class="cls-1" d="M52.816,11.906s.003-.001.005-.002c-.007-.011-.015-.021-.021-.032-.193-.306-.476-.559-.828-.707-.156-.066-.305-.135-.46-.201-.001,0-.002-.001-.004-.002-.096-.041-.19-.083-.285-.125-.143-.062-.287-.125-.429-.188-.416-.184-.825-.371-1.23-.561-.001,0-.003-.002-.005-.002,0,0-.001,0-.002-.001-.221-.103-.443-.206-.661-.311-.449-.216-.888-.437-1.323-.659-.003-.001-.005-.003-.008-.004-.06-.031-.12-.061-.18-.091-.098-.049-.197-.098-.293-.149-.585-.307-1.159-.619-1.718-.939-.084-.048-.165-.097-.247-.146-.027-.016-.055-.033-.083-.049-.003-.002-.006-.003-.009-.005-.44-.256-.875-.516-1.298-.78,0,0,0,0-.001-.001-.118-.074-.232-.149-.348-.224-.065-.042-.13-.084-.195-.126-.346-.223-.687-.449-1.021-.678-.188-.13-.375-.26-.559-.392-.323-.23-.638-.464-.948-.699,0,0-.002-.001-.003-.002-.092-.07-.184-.141-.276-.211-.076-.058-.154-.116-.229-.175-.074-.059-.154-.115-.227-.174-.323-.259-.717-.391-1.111-.391-.373,0-.746.118-1.058.356-.093.071-.19.138-.283.209-.05.037-.101.074-.151.111-.135.1-.271.2-.407.299-.001,0-.002.002-.003.002-.326.238-.656.473-.989.705,0,0-.002.001-.003.002-.133.092-.266.183-.399.274-.062.042-.122.085-.184.126-.349.236-.703.467-1.06.696-.002.001-.003.002-.005.003-.163.105-.326.211-.49.314-.017.011-.034.022-.051.033-.458.286-.923.566-1.393.841-.002.001-.004.003-.007.004-.07.041-.138.083-.208.124-.012.007-.025.015-.038.022-.557.322-1.123.634-1.697.94,0,0,0,0,0,0-.166.089-.337.173-.505.261-.001,0-.002.001-.004.002-.412.214-.827.426-1.248.633-.215.105-.433.208-.651.312-.388.184-.78.366-1.176.544-.228.102-.457.204-.687.304-.147.064-.291.131-.439.195-.345.147-.621.392-.812.69-.002.003-.004.006-.006.009.003.001.006.003.009.004-.004.002-.005.003-.009.005-.213.337-.316.741-.27,1.159.017.154.029.306.045.459.026.251.05.502.073.752.039.423.074.846.105,1.267.018.245.037.49.052.735.029.454.05.906.069,1.357.009.202.02.405.027.607.021.648.034,1.295.035,1.938,0,.007,0,.015,0,.022,0,.062-.003.124-.003.186h0c-.001.574-.01,1.146-.028,1.715-.002.057,0,.114-.003.171-.005.156-.018.311-.024.467-.018.428-.038.854-.066,1.279-.015.238-.033.474-.051.711-.031.405-.066.81-.106,1.213-.023.235-.046.469-.072.703-.014.127-.024.255-.039.381-.027.225-.1.548-.173.894-.114.052-.23.097-.333.175-.093.071-.19.138-.284.209-.05.037-.101.074-.151.111-.135.1-.271.2-.407.299,0,0-.002.002-.003.002-.326.238-.656.473-.989.705,0,0-.002.001-.003.002-.133.092-.266.183-.399.274-.062.042-.122.085-.184.126-.349.236-.703.467-1.06.696-.001.001-.003.002-.005.003-.164.105-.326.211-.49.314-.017.011-.033.022-.051.033-.458.286-.923.566-1.394.841-.002.001-.004.003-.007.004-.07.041-.138.083-.208.124-.012.007-.025.015-.037.022-.557.322-1.124.634-1.698.94,0,0,0,0,0,0-.166.089-.337.173-.504.261-.001,0-.003.001-.004.002-.412.214-.827.426-1.248.633-.215.106-.433.208-.651.312-.388.184-.78.366-1.176.544-.228.102-.457.204-.687.304-.147.064-.291.131-.439.194-.344.147-.621.392-.812.69-.002.003-.004.006-.006.009.003.001.007.003.01.005,0,0,0,0-.001,0-.004.002-.005.003-.009.005-.213.337-.316.741-.27,1.159.017.154.029.306.045.459.026.251.05.502.073.752.039.423.074.846.105,1.267.018.245.037.49.052.735.029.454.05.906.069,1.357.009.202.02.405.026.607.021.649.034,1.295.035,1.938,0,.007,0,.015,0,.022,0,.062-.003.124-.003.186h0c-.001.574-.01,1.146-.028,1.715-.002.057,0,.114-.003.171-.005.156-.018.311-.024.467-.018.428-.039.854-.066,1.279-.015.238-.033.474-.051.711-.031.405-.066.81-.106,1.213-.023.235-.046.469-.072.703-.014.127-.024.255-.039.381-.093.787.362,1.532,1.094,1.835.039.016.08.036.12.053.4.168.805.346,1.216.537.067.031.135.065.202.096.397.188.799.386,1.205.595.044.023.087.044.131.066.312.161.625.328.941.5.119.065.239.134.358.2.088.049.175.097.263.147.432.243.868.495,1.309.757.07.042.141.085.211.127.427.256.856.519,1.29.79.045.028.09.055.135.084.456.287.916.583,1.379.885.091.06.183.119.274.18.457.3.916.607,1.378.92.072.048.144.098.215.147.452.307.905.62,1.361.938.03.021.059.041.089.062.193.135.497.329.937.329.043,0,.095-.015.141-.019h.001c.009,0,.017-.003.026-.004.1-.01.203-.025.316-.059.247-.056.489-.145.7-.305,2.85-2.159,5.829-4.017,8.941-5.563,1.179-.619,2.324-1.158,3.43-1.6.563-.388.858-1.08.737-1.777-.671-3.842-.813-8.283.047-13.86.039-.253.007-.511-.066-.753.017-.01.036-.022.053-.031.181-.062.356-.151.515-.271,2.85-2.159,5.829-4.017,8.941-5.563,1.179-.619,2.324-1.158,3.43-1.6.564-.387.859-1.08.737-1.777-.67-3.842-.813-8.283.048-13.86.063-.407-.045-.834-.24-1.174ZM26.428,28.159c.069-.32.135-.623.168-.906.01-.084.018-.169.026-.254l.014-.138c.027-.242.051-.485.075-.729.041-.418.078-.837.11-1.257.019-.246.038-.492.053-.735.028-.44.05-.883.068-1.324l.01-.178c.006-.101.012-.203.015-.313l.003-.169c.018-.589.028-1.179.03-1.815l.002-.173c0-.664-.014-1.33-.036-2-.005-.136-.011-.273-.018-.409l-.01-.216c-.02-.465-.042-.931-.071-1.397-.015-.236-.032-.474-.053-.759-.032-.433-.068-.868-.108-1.303-.024-.258-.049-.517-.076-.773l-.017-.177c-.003-.031-.006-.062-.009-.093.007-.008.014-.017.021-.026.258.005.576.043.814.072.044.005.077.008.117.012,3.475,1.635,6.622,3.481,9.453,5.532l.384.29.325.259c.008.099-.004.331.004.413-.005.337-.005.99.001,2.837v.181s-.074,10.689-.074,10.689l-.013,1.424c-.023-.01-.046-.02-.069-.03-.143-.062-.287-.125-.429-.188-.416-.184-.825-.371-1.23-.561-.001,0-.003-.002-.005-.002,0,0-.001,0-.002-.001-.221-.103-.443-.206-.661-.311-.449-.216-.888-.437-1.323-.659-.003-.001-.006-.003-.008-.004-.06-.031-.12-.061-.181-.091-.098-.049-.197-.098-.293-.149-.585-.307-1.159-.619-1.718-.939-.084-.048-.165-.097-.247-.146-.027-.016-.055-.033-.083-.049-.003-.002-.006-.003-.008-.005-.441-.256-.875-.516-1.298-.78,0,0-.001,0-.002-.001-.118-.074-.232-.149-.348-.224-.065-.042-.13-.084-.195-.126-.346-.223-.687-.449-1.021-.678-.188-.13-.375-.26-.559-.392-.323-.23-.638-.464-.948-.699,0,0-.002-.001-.002-.002-.093-.07-.184-.141-.276-.212-.076-.058-.154-.116-.229-.175-.029-.022-.058-.045-.087-.067.005-.022.011-.052.015-.072ZM15.859,35.487c.411-.201.816-.408,1.253-.635.014-.007.028-.014.042-.021l.185-.095c.113-.058.225-.115.338-.175.625-.333,1.2-.652,1.765-.978.003-.002.043-.026.046-.028l.113-.067.091-.054s.008-.004.011-.007c.485-.283.964-.572,1.437-.867l.057-.037.343-.22.16-.103s.01-.006.014-.009c.367-.235.731-.473,1.093-.718l.118-.081.101-.069.36-.247c.009-.006.019-.013.028-.019.345-.24.687-.484,1.025-.731.001,0,.003-.002.004-.003h0s.003-.003.005-.004l.41-.302.052-.038.11-.081.105-.077c.013-.009.025-.018.038-.027.011.008.021.016.032.024l.067.051.198.152.056.042.118.09.141.108c.008.006.015.012.022.017.327.248.658.494.998.736.194.138.389.275.587.411.349.24.707.476,1.068.71l.092.059.1.065.061.039c.102.067.205.133.31.199.002.002.005.003.008.005.441.276.893.546,1.359.817l.065.038.054.032c.075.045.15.09.227.134.564.322,1.164.65,1.78.973.091.048.185.095.278.142l.048.024.174.088c.449.23.903.458,1.367.681.108.052.218.104.328.155-3.38,1.644-6.401,3.449-9.014,5.388-.035.026-.069.053-.103.081l-.411.349-.524-.445c-.039-.033-.079-.065-.121-.095-2.716-1.968-5.679-3.74-8.844-5.292.06-.029.12-.058.179-.087ZM23.992,57.067l-.002.204c-.063-.043-.127-.087-.191-.13l-.084-.057-.135-.092c-.47-.319-.937-.63-1.402-.936l-.28-.183c-.472-.308-.942-.611-1.404-.901l-.091-.056-.051-.031c-.444-.278-.885-.548-1.321-.809l-.076-.046-.144-.086c-.454-.27-.903-.529-1.351-.781l-.27-.151-.125-.07-.247-.138c-.329-.179-.655-.352-.979-.52l-.136-.069c-.426-.219-.846-.426-1.263-.623l-.072-.034-.141-.067c-.427-.199-.849-.385-1.27-.562.002-.023.005-.046.007-.069l.014-.143c.025-.224.047-.449.069-.675l.005-.053c.041-.417.078-.836.11-1.256.019-.245.037-.49.053-.736.028-.44.05-.881.068-1.325l.01-.18c.006-.1.011-.199.015-.299l.003-.178c.018-.589.028-1.18.03-1.817l.002-.146c0-.013,0-.029,0-.045-.001-.657-.014-1.318-.036-1.978-.004-.139-.011-.278-.018-.417l-.01-.211c-.02-.465-.042-.931-.071-1.398-.015-.235-.032-.471-.05-.706l-.004-.05c-.032-.434-.068-.869-.108-1.304-.024-.258-.049-.516-.075-.773l-.017-.182-.009-.088c.007-.009.261-.052.498-.024.044.005.322.044.454.082,0,0,0,0,0,0,3.475,1.635,6.622,3.482,9.453,5.533l.689.585c.008.099.016.202.024.285-.005.338-.005,1.083.001,2.93v.181s-.073,10.601-.073,10.601ZM37.346,50.931c-.976.411-2.008.902-3.051,1.45-2.851,1.416-5.64,3.113-8.306,5.053l.003-.399.111-12.166c.017-.216.096-1.066.146-1.58.096-.359,2.297-2.041,3.518-2.694.052-.028,2.829-1.791,4.122-2.328.908-.473,1.839-.933,2.796-1.377.462-.212.706-.105.711-.085-.774,5.115-.79,9.739-.05,14.125ZM39.34,17.119c-.035.026-.069.053-.103.081l-.412.349-.524-.445c-.039-.033-.079-.065-.121-.095-2.716-1.968-5.679-3.74-8.844-5.292.06-.029.12-.058.179-.087.435-.213.864-.432,1.294-.656l.186-.095c.113-.058.226-.115.338-.175.626-.334,1.201-.652,1.75-.969.009-.005.055-.032.063-.037l.104-.062.101-.06c.487-.285.969-.575,1.444-.872l.057-.037.353-.226.145-.093s.008-.005.011-.007c.37-.237.737-.477,1.098-.721l.122-.084.073-.05.043-.03.356-.245s.005-.004.008-.005l.003-.002s.005-.003.007-.005c.344-.24.685-.483,1.023-.729,0,0,.002-.001.003-.002,0,0,0,0,.001-.001l.417-.307.052-.039.11-.081.103-.076c.012-.009.025-.018.038-.027.011.008.021.016.032.024l.066.05.195.15.061.046.128.098.137.105s.01.007.014.011c.326.248.658.494.998.736.194.138.389.275.587.411.349.24.707.476,1.069.71l.087.056.103.066.055.036c.103.067.205.134.301.194.008.005.015.01.023.014.441.276.893.546,1.352.813l.01.005.062.037.056.034c.074.045.149.089.224.132.563.321,1.162.649,1.783.974.096.05.195.1.324.164l.148.075c.008.004.017.009.025.013.449.23.904.458,1.367.681.108.052.218.104.328.155-3.38,1.644-6.401,3.449-9.014,5.388ZM51.053,12.951c-.773,5.114-.79,9.739-.05,14.125-.978.412-2.009.902-3.051,1.45-2.851,1.417-5.64,3.114-8.306,5.053l.002-.286.112-12.278c.017-.216.036-1.312.146-1.58.473-.492,1.75-1.507,2.97-2.159.052-.028.103-.058.153-.091l2.689-1.761c.312-.178.629-.352.948-.526.396-.208.733-.396,1.016-.564,1.093-.567,2.224-1.111,3.379-1.64.002.037,0,.172-.009.258Z"/></svg>