<?xml version="1.0" encoding="UTF-8"?><svg id="Icons" xmlns="http://www.w3.org/2000/svg" viewBox="0 0 64 64"><defs><style>.cls-1{fill:#001e5b;}.cls-2{fill:#fff;}.cls-3{fill:#eaf5fe;}.cls-4{fill:#05628a;}.cls-5{fill:#0d9dda;}</style></defs><path class="cls-5" d="M7.184,59.912c.185,0,.369-.016.551-.048,7.841-1.363,15.906-2.073,24.137-2.073s16.282.709,24.117,2.07c.196.034.394.051.592.051,1.888,0,3.419-1.531,3.419-3.419V8.356c0-2.657-2.436-4.643-5.057-4.208-7.505,1.244-15.212,1.892-23.071,1.892-7.772,0-15.396-.633-22.823-1.851-2.619-.429-5.049,1.556-5.049,4.21v48.33c0,1.758,1.425,3.184,3.184,3.184Z"/><path class="cls-4" d="M15.027,44.48c-7.942-8.782-9.488-17.308-11.027-25.407v37.655c0,1.758,1.426,3.184,3.184,3.184.185,0,.369-.016.551-.048,7.841-1.363,15.906-2.073,24.137-2.073,7.199,0,14.272.544,21.178,1.592-13.822-3.24-28.055-3.881-38.023-14.903Z"/><path class="cls-2" d="M54.388,8.833c.59-.093,1.074.164,1.266.532.165.272.237.628.158,1.001-.372,1.772-.661,3.703-.843,5.731-.073.812-.945,1.285-1.506.694-.366-.385-.672-.826-.903-1.307-.483-.905-.759-1.52-1.779-2.108-.81-.468-2.169-.555-3.175-.613-.256-.01-.508-.027-.756-.052-.038-.004-.074-.007-.108-.011-1.378-.151-2.617-.531-3.605-1.089-.956-.54-.427-1.687.67-1.73,2.088-.081,4.303-.248,6.59-.507,1.366-.155,2.7-.336,3.99-.54Z"/><path class="cls-3" d="M39.461,38.404h1.827c2.08,0,3.769,1.689,3.769,3.769v3.273c0,2.08-1.689,3.769-3.769,3.769h-1.827c-1.072,0-1.942-.87-1.942-1.942v-6.926c0-1.072.87-1.942,1.942-1.942Z"/><path class="cls-3" d="M20.821,38.404h1.827c2.08,0,3.769,1.689,3.769,3.769v3.273c0,2.08-1.689,3.769-3.769,3.769h-1.827c-1.072,0-1.942-.87-1.942-1.942v-6.926c0-1.072.87-1.942,1.942-1.942Z" transform="translate(45.295 87.619) rotate(-180)"/><path class="cls-1" d="M51.895,40.46c-.281-.292-.487-.647-.487-1.053v-.025c0-1.74-1.388-3.148-3.116-3.195v-4.143c0-8.985-7.311-16.296-16.296-16.296s-16.296,7.311-16.296,16.296v4.138c-1.754.018-3.172,1.442-3.172,3.201v.025c0,.405-.206.761-.487,1.053-1.474,1.529-1.474,5.168,0,6.698.281.292.487.647.487,1.053v.025c0,1.77,1.434,3.204,3.204,3.204h5.284c1.769,0,3.204-1.435,3.204-3.204v-8.854c0-1.769-1.435-3.204-3.204-3.204h-.316v-4.135c0-6.229,5.067-11.296,11.296-11.296s11.296,5.067,11.296,11.296v4.135h-.372c-1.77,0-3.204,1.435-3.204,3.204v8.854c0,1.77,1.434,3.204,3.204,3.204h5.284c1.77,0,3.204-1.435,3.204-3.204v-.025c0-.405.206-.761.487-1.053,1.474-1.529,1.474-5.168,0-6.698Z"/></svg>