<?xml version="1.0" encoding="UTF-8"?><svg id="Icons" xmlns="http://www.w3.org/2000/svg" viewBox="0 0 64 64"><defs><style>.cls-1{fill:#0d9dda;}</style></defs><path class="cls-1" d="M54.943,4.148c-7.505,1.244-15.212,1.892-23.07,1.892-7.772,0-15.396-.633-22.823-1.851-2.619-.429-5.049,1.556-5.049,4.21v48.33c0,1.758,1.425,3.184,3.184,3.184.185,0,.369-.016.551-.048,7.841-1.363,15.906-2.073,24.137-2.073s16.282.709,24.117,2.07c.196.034.394.051.592.051,1.888,0,3.419-1.531,3.419-3.419V8.356c0-2.657-2.437-4.643-5.058-4.208ZM51.895,47.158c-.281.292-.487.647-.487,1.053v.025c0,1.77-1.434,3.204-3.204,3.204h-5.284c-1.426,0-2.62-.938-3.035-2.226h-.423c-1.073,0-1.942-.87-1.942-1.942v-6.926c0-1.073.87-1.942,1.942-1.942h.423c.415-1.288,1.609-2.226,3.035-2.226h.372v-4.135c0-6.229-5.067-11.296-11.296-11.296s-11.296,5.067-11.296,11.296v4.135h.316c1.426,0,2.62.938,3.036,2.226h.423c1.073,0,1.942.87,1.942,1.942v6.926c0,1.073-.87,1.942-1.942,1.942h-.423c-.416,1.288-1.61,2.226-3.036,2.226h-5.284c-1.77,0-3.204-1.435-3.204-3.204v-.025c0-.405-.206-.761-.487-1.053-1.474-1.529-1.474-5.168,0-6.698.281-.292.487-.647.487-1.053v-.025c0-1.758,1.417-3.183,3.172-3.201v-4.138c0-8.985,7.311-16.296,16.296-16.296s16.296,7.311,16.296,16.296v4.143c1.728.047,3.116,1.456,3.116,3.195v.025c0,.405.206.761.487,1.053,1.474,1.529,1.474,5.168,0,6.698Z"/></svg>