<?xml version="1.0" encoding="UTF-8"?><svg id="Icons" xmlns="http://www.w3.org/2000/svg" viewBox="0 0 64 64"><defs><style>.cls-1{fill:#fff;}</style></defs><path class="cls-1" d="M56.651,7.349c-2.805-2.805-6.533-4.349-10.5-4.349s-7.695,1.544-10.5,4.349l-11.462,11.462c-.895.895-1.667,1.93-2.32,3.058-1.129.655-2.163,1.426-3.058,2.32l-11.462,11.461c-5.789,5.79-5.789,15.211,0,21.001,2.896,2.895,6.698,4.342,10.5,4.342s7.605-1.447,10.5-4.342l11.462-11.462c.894-.894,1.665-1.928,2.32-3.057,1.128-.655,2.164-1.425,3.058-2.321l11.462-11.462c5.79-5.79,5.79-15.21,0-21ZM24.19,39.811c.666.666,1.407,1.265,2.204,1.8l-6.542,6.542c-1.067,1.066-2.936,1.067-4.005,0-.533-.534-.828-1.245-.828-2.003s.295-1.468.828-2.002l6.542-6.542c.536.798,1.135,1.539,1.801,2.206ZM26.935,55.237c-5.009,5.008-13.161,5.008-18.172,0-5.009-5.011-5.009-13.162,0-18.173l11.462-11.461c.045-.045.091-.09.137-.135-.005.018-.007.036-.012.054-.099.379-.181.761-.25,1.145-.017.094-.03.189-.045.284-.05.312-.089.625-.119.94-.009.097-.02.194-.027.292-.03.392-.046.784-.045,1.177,0,.056.004.112.005.168.005.343.023.685.051,1.027.009.104.018.208.029.313.038.365.086.73.151,1.092.005.029.008.058.013.086.072.389.164.774.267,1.157.026.097.055.193.083.289.091.312.191.621.303.927.029.079.054.158.085.237.142.37.299.735.472,1.095.01.021.018.043.028.064l-6.917,6.918c-1.884,1.884-1.884,4.949,0,6.833.911.911,2.125,1.414,3.416,1.414s2.506-.503,3.417-1.414l6.903-6.902h0s4.559-4.558,4.559-4.558c.282-.282.506-.6.704-.93,1.038-1.741.906-4.023-.471-5.625l-.021-.021s-.004-.006-.007-.009c-.057-.062-.112-.114-.168-.167l-.128-.125c-.028-.028-.057-.055-.081-.082-.961-1.118-.903-2.804.131-3.838l3.479-3.479c.817.513,1.565,1.107,2.231,1.773.835.835,1.558,1.801,2.15,2.868l.004.007c2.124,3.841,2.119,8.609-.015,12.445-.592,1.064-1.312,2.024-2.139,2.852l-11.462,11.462ZM41.611,26.394c-.534-.797-1.134-1.538-1.801-2.205-.667-.667-1.408-1.266-2.205-1.801l6.542-6.542c1.105-1.104,2.9-1.104,4.006,0,.533.534.827,1.245.827,2.003s-.294,1.469-.827,2.003l-6.542,6.542ZM55.237,26.935l-11.462,11.462c-.045.045-.091.09-.137.134.004-.017.007-.034.011-.051.099-.381.182-.765.25-1.151.017-.092.029-.185.044-.278.05-.314.09-.629.12-.945.009-.096.02-.193.027-.289.029-.392.046-.785.045-1.177,0-.056-.004-.113-.005-.169-.005-.342-.023-.684-.051-1.026-.009-.105-.018-.209-.029-.313-.038-.365-.086-.729-.151-1.09-.005-.029-.008-.059-.014-.088-.072-.389-.163-.774-.266-1.156-.026-.098-.055-.195-.084-.292-.09-.31-.19-.618-.301-.922-.029-.081-.056-.162-.087-.242-.141-.368-.297-.731-.469-1.088-.011-.023-.019-.047-.03-.07l6.918-6.917c.911-.911,1.413-2.125,1.413-3.417s-.502-2.506-1.413-3.417c-1.885-1.885-4.949-1.885-6.834,0l-11.461,11.462c-.221.221-.416.46-.585.711-1.183,1.763-1.082,4.175.351,5.843h0s.001.003.002.004c.032.037.065.072.104.112.041.046.083.094.131.142.059.059.122.117.187.176.064.076.114.159.169.24.045.066.096.13.135.199.046.083.079.172.116.258.032.074.071.146.096.222.029.085.043.174.063.261.019.081.044.161.056.244.012.084.01.169.014.253.005.087.015.174.012.261-.003.081-.02.16-.03.24-.011.09-.016.181-.036.27-.017.078-.049.152-.073.228-.028.088-.049.177-.085.262-.035.081-.084.156-.126.234-.041.075-.074.153-.122.224-.098.146-.211.284-.339.412l-3.479,3.478c-.818-.515-1.566-1.109-2.231-1.773-.836-.836-1.561-1.804-2.154-2.876-.531-.96-.929-1.978-1.194-3.025-.265-1.047-.397-2.123-.396-3.199.002-2.152.537-4.303,1.604-6.221l.004-.007c.59-1.06,1.308-2.017,2.135-2.845l11.462-11.462c2.505-2.505,5.796-3.758,9.086-3.758s6.581,1.253,9.086,3.758c2.427,2.427,3.763,5.653,3.763,9.086s-1.336,6.659-3.763,9.086Z"/></svg>