<?xml version="1.0" encoding="UTF-8"?><svg id="Icons" xmlns="http://www.w3.org/2000/svg" viewBox="0 0 64 64"><defs><style>.cls-1{fill:none;}.cls-2{fill:#001e5b;}.cls-3{fill:#fff;}.cls-4{fill:#05628a;}.cls-5{fill:#0d9dda;}</style></defs><path class="cls-1" d="M22.575,36.006l-7.435,7.435c-1.494,1.494-1.494,3.925,0,5.42s3.925,1.494,5.419,0l7.435-7.435c-1.109-.614-2.157-1.38-3.098-2.321s-1.708-1.989-2.321-3.098Z"/><path class="cls-1" d="M41.425,27.994l7.435-7.435c1.494-1.494,1.494-3.925,0-5.42-1.494-1.494-3.925-1.494-5.42,0l-7.435,7.435c1.109.614,2.157,1.38,3.098,2.322s1.708,1.989,2.322,3.098Z"/><path class="cls-1" d="M31.797,31.797c.063.073.113.154.182.223s.15.119.223.182c-.063-.073-.113-.154-.182-.223s-.15-.119-.223-.182Z"/><path class="cls-2" d="M27.994,41.425l-7.435,7.435c-1.494,1.494-3.925,1.494-5.419,0s-1.494-3.925,0-5.42l7.435-7.435c-2.304-4.165-2.298-9.255.015-13.416-1.1.611-2.138,1.372-3.072,2.306l-11.461,11.461c-5.409,5.409-5.409,14.178,0,19.586h0c5.409,5.409,14.177,5.409,19.586,0l11.461-11.461c.934-.934,1.695-1.973,2.306-3.072-4.161,2.313-9.251,2.319-13.416.015Z"/><path class="cls-2" d="M31.797,31.797c.067.067.117.133.187.203s.143.136.219.203c1.504,1.293,3.771,1.243,5.196-.182l4.026-4.026c-.614-1.109-1.38-2.157-2.322-3.098s-1.989-1.708-3.098-2.322l-4.026,4.026c-1.425,1.425-1.474,3.692-.182,5.196Z"/><path class="cls-2" d="M41.425,27.994l-4.026,4.026c-1.425,1.425-3.692,1.474-5.196.182,1.293,1.504,1.242,3.772-.182,5.197l-4.026,4.026c4.165,2.304,9.255,2.298,13.416-.015,2.313-4.161,2.319-9.251.015-13.416Z"/><path class="cls-5" d="M55.944,8.056h0c-5.408-5.409-14.177-5.409-19.586,0l-11.461,11.461c-.934.934-1.695,1.972-2.306,3.072-2.313,4.161-2.319,9.251-.015,13.416.614,1.109,1.38,2.157,2.322,3.098.941.941,1.989,1.708,3.098,2.321l4.026-4.026c1.425-1.425,1.475-3.693.182-5.197-.071-.075-.138-.133-.208-.203-.069-.069-.135-.129-.197-.203-1.292-1.504-1.243-3.771.182-5.196l4.026-4.026,7.435-7.435c1.494-1.494,3.925-1.494,5.419,0s1.494,3.925,0,5.42l-7.435,7.435c2.304,4.165,2.298,9.255-.015,13.416,1.1-.612,2.138-1.372,3.072-2.306l11.461-11.461c5.408-5.409,5.409-14.178,0-19.586Z"/><path class="cls-4" d="M27.355,36.646c-.941-.941-1.708-1.989-2.322-3.098-2.304-4.165-2.298-9.255.015-13.416.612-1.1,1.373-2.138,2.306-3.072l9.003-9.003s0,0,0,0l-11.461,11.461c-.934.934-1.695,1.972-2.306,3.072-2.313,4.161-2.319,9.251-.015,13.416.614,1.109,1.38,2.157,2.322,3.098.941.941,1.989,1.708,3.098,2.321l4.026-4.026s0,0,0,0l-1.568,1.568c-1.109-.614-2.157-1.38-3.098-2.321Z"/><path class="cls-3" d="M45.818,8.098c5.297-.765,9.991,2.662,10.226,7.844.044.358-.003.804,0,1.156.008.936-1.171,1.007-1.601.175-1.019-4.358-4.188-7.061-8.646-7.813-.718-.283-.743-1.268.022-1.363Z"/></svg>