<?xml version="1.0" encoding="UTF-8"?><svg id="Icons" xmlns="http://www.w3.org/2000/svg" viewBox="0 0 64 64"><defs><style>.cls-1{fill:#0d9dda;}</style></defs><path class="cls-1" d="M55.804,8.199c-2.708-2.708-6.309-4.199-10.139-4.199s-7.431,1.491-10.139,4.199l-11.068,11.068c-.865.865-1.609,1.864-2.241,2.953-1.09.632-2.089,1.377-2.953,2.24l-11.068,11.067c-5.59,5.591-5.59,14.688,0,20.28,2.796,2.795,6.468,4.193,10.139,4.193s7.344-1.398,10.139-4.193l11.068-11.068c.863-.863,1.608-1.862,2.24-2.952,1.089-.632,2.089-1.376,2.953-2.241l11.068-11.068c5.591-5.591,5.591-14.687,0-20.279ZM24.458,39.546c.643.643,1.358,1.222,2.129,1.738l-6.317,6.317c-1.031,1.03-2.835,1.031-3.867,0-.515-.516-.8-1.202-.8-1.934s.285-1.417.8-1.933l6.317-6.318c.517.77,1.096,1.487,1.739,2.13ZM41.281,26.589c-.516-.769-1.095-1.485-1.739-2.129-.644-.644-1.36-1.223-2.129-1.739l6.317-6.317c1.067-1.066,2.801-1.066,3.868,0,.515.516.799,1.202.799,1.934s-.284,1.418-.799,1.934l-6.317,6.317ZM54.438,27.112l-11.068,11.068c-.043.043-.088.087-.132.129.004-.016.007-.033.011-.049.096-.368.175-.738.242-1.111.016-.089.028-.179.042-.268.048-.303.087-.607.116-.913.009-.093.019-.186.026-.279.028-.379.045-.758.043-1.137,0-.054-.004-.109-.005-.163-.005-.331-.022-.661-.049-.99-.008-.101-.017-.202-.028-.303-.037-.352-.083-.703-.146-1.053-.005-.028-.008-.057-.013-.085-.069-.375-.158-.747-.257-1.117-.025-.094-.054-.188-.081-.282-.087-.3-.184-.596-.291-.89-.028-.078-.054-.157-.084-.234-.136-.355-.287-.706-.452-1.05-.011-.022-.018-.045-.029-.068l6.68-6.679c.88-.88,1.365-2.052,1.365-3.3s-.485-2.42-1.365-3.3c-1.82-1.82-4.779-1.82-6.599,0l-11.067,11.068c-.214.214-.402.444-.565.687-1.142,1.702-1.045,4.032.339,5.643h0s.001.003.002.004c.031.036.063.07.101.108.039.045.08.09.127.137.057.057.118.113.181.17.062.074.11.153.163.231.043.064.093.126.13.192.045.081.076.166.112.249.031.072.068.141.093.215.028.083.042.168.061.252.018.079.042.156.054.235.011.081.009.163.014.245.004.084.015.168.012.252-.003.078-.019.154-.029.232-.011.087-.016.175-.035.261-.017.075-.047.147-.07.221-.027.085-.047.171-.082.253-.033.078-.081.151-.122.226-.039.072-.072.148-.118.217-.095.141-.203.274-.327.398l-3.359,3.359c-.79-.497-1.512-1.071-2.155-1.712-.807-.807-1.507-1.742-2.08-2.777-.513-.927-.897-1.91-1.153-2.921-.256-1.011-.383-2.05-.382-3.089.002-2.078.519-4.155,1.549-6.007l.004-.007c.57-1.024,1.263-1.948,2.061-2.747l11.068-11.068c2.419-2.419,5.597-3.629,8.774-3.629s6.355,1.21,8.774,3.629c2.343,2.343,3.633,5.459,3.633,8.774s-1.29,6.43-3.633,8.774Z"/></svg>