<?xml version="1.0" encoding="UTF-8"?><svg id="Icons" xmlns="http://www.w3.org/2000/svg" viewBox="0 0 64 64"><defs><style>.cls-1{fill:#fe9339;}.cls-2{fill:#fedfd0;}.cls-3{fill:#dd7a01;}</style></defs><path class="cls-2" d="M4.282,35.973c-.027-.19-.05-.381-.073-.572.023.191.046.382.073.572Z"/><path class="cls-2" d="M4,32.011s0,.008,0,.012c0-.824.036-1.64.106-2.446-.069.802-.107,1.614-.107,2.434Z"/><path class="cls-2" d="M4.034,33.363c-.019-.396-.028-.794-.03-1.193.002.4.011.798.03,1.193Z"/><path class="cls-2" d="M4.129,34.682c-.022-.235-.038-.471-.054-.707.016.236.031.473.054.707Z"/><path class="cls-2" d="M4.108,29.56c.071-.81.176-1.61.314-2.398-.138.789-.244,1.588-.314,2.398Z"/><path class="cls-2" d="M4.49,37.23c-.03-.158-.058-.317-.085-.475.027.159.055.317.085.475Z"/><path class="cls-2" d="M5.032,39.554c-.019-.067-.039-.134-.057-.201.018.067.038.134.057.201Z"/><path class="cls-2" d="M4.746,38.437c-.029-.123-.058-.245-.085-.368.027.123.056.246.085.368Z"/><path class="cls-3" d="M4.975,39.352c-.082-.303-.157-.609-.229-.915.072.307.147.612.229.915Z"/><path class="cls-3" d="M4.661,38.069c-.061-.278-.118-.558-.171-.839.053.281.109.561.171.839Z"/><path class="cls-1" d="M4.405,36.755c-.044-.259-.086-.52-.123-.781.037.262.079.522.123.781Z"/><path class="cls-3" d="M4.209,35.401c-.029-.239-.058-.478-.081-.719.023.241.052.48.081.719Z"/><path class="cls-3" d="M4.422,27.162s0-.002,0-.003c0,.001,0,.002,0,.003Z"/><path class="cls-3" d="M4.075,33.975c-.014-.204-.031-.407-.041-.612.01.205.027.408.041.612Z"/><path class="cls-3" d="M4.107,29.577c0-.005,0-.011.001-.017,0,.006,0,.011-.001.017Z"/><path class="cls-3" d="M4,32.029c0,.047.003.093.004.14,0-.049-.003-.097-.003-.146,0,.002,0,.004,0,.006Z"/><path class="cls-1" d="M53.578,14.167l-8.974,8.974c1.771,2.511,2.821,5.567,2.821,8.873,0,2.993-.867,5.778-2.343,8.144l9.025,9.026c3.689-4.743,5.893-10.699,5.893-17.173,0-6.781-2.411-12.999-6.422-17.844Z"/><path class="cls-1" d="M32,16.59c4.489,0,8.518,1.93,11.337,4.991l8.905-8.905c-5.098-5.336-12.279-8.665-20.241-8.665s-15.143,3.329-20.241,8.665l8.905,8.905c2.819-3.061,6.847-4.99,11.336-4.99Z"/><path class="cls-1" d="M43.911,41.815c-2.829,3.434-7.114,5.624-11.911,5.624s-9.082-2.19-11.911-5.624l-8.912,8.912c5.125,5.699,12.554,9.284,20.822,9.284s15.697-3.586,20.822-9.284l-8.911-8.912Z"/><path class="cls-1" d="M42.762,40.005c-1.371-2.632-4.024-4.383-7.009-4.809,1.611-1.161,2.66-3.051,2.66-5.184,0-3.531-2.872-6.393-6.415-6.393s-6.416,2.862-6.416,6.393c0,2.133,1.048,4.023,2.66,5.184-2.983.427-5.635,2.178-7.006,4.808,2.449,3.29,6.355,5.435,10.763,5.435s8.313-2.144,10.762-5.434Z"/><path class="cls-1" d="M16.575,32.014c0-3.306,1.05-6.362,2.821-8.873l-8.974-8.974c-4.011,4.845-6.422,11.062-6.422,17.844,0,6.474,2.203,12.43,5.893,17.173l9.025-9.025c-1.476-2.365-2.343-5.15-2.343-8.144Z"/></svg>