<?xml version="1.0" encoding="UTF-8"?><svg id="Icons" xmlns="http://www.w3.org/2000/svg" viewBox="0 0 64 64"><defs><style>.cls-1{fill:#5f3e02;}.cls-2{fill:#fff1ea;}.cls-3{fill:#fe9339;}.cls-4{fill:#ffba90;}.cls-5{fill:#fff;}.cls-6{fill:#fedfd0;}.cls-7{fill:#dd7a01;}</style></defs><circle class="cls-3" cx="32" cy="32.011" r="28"/><path class="cls-4" d="M53.482,14.057l-17.95,17.95,17.954,17.954c4.065-4.86,6.515-11.118,6.515-17.95s-2.451-13.093-6.518-17.954Z"/><path class="cls-4" d="M10.518,14.071l17.95,17.95-17.954,17.954c-4.065-4.86-6.515-11.118-6.515-17.95s2.451-13.093,6.518-17.954Z"/><path class="cls-7" d="M16.43,44.265c-.035-.041-.066-.085-.101-.126l-5.811,5.811c5.131,6.143,12.832,10.062,21.462,10.062,6.249,0,12.019-2.049,16.676-5.51-11.733,2.673-24.21-.83-32.227-10.236Z"/><circle class="cls-2" cx="32" cy="32.015" r="15.425"/><path class="cls-6" d="M4.282,35.973c-.027-.19-.05-.381-.073-.572.023.191.046.382.073.572Z"/><path class="cls-6" d="M4,32.011s0,.008,0,.012c0-.824.036-1.64.106-2.446-.069.802-.107,1.614-.107,2.434Z"/><path class="cls-6" d="M4.034,33.363c-.019-.396-.028-.794-.03-1.193.002.4.011.798.03,1.193Z"/><path class="cls-6" d="M4.129,34.682c-.022-.235-.038-.471-.054-.707.016.236.031.473.054.707Z"/><path class="cls-6" d="M4.108,29.56c.071-.81.176-1.61.314-2.398-.138.789-.244,1.588-.314,2.398Z"/><path class="cls-6" d="M4.49,37.23c-.03-.158-.058-.317-.085-.475.027.159.055.317.085.475Z"/><path class="cls-6" d="M5.032,39.554c-.019-.067-.039-.134-.057-.201.018.067.038.134.057.201Z"/><path class="cls-6" d="M4.746,38.437c-.029-.123-.058-.245-.085-.368.027.123.056.246.085.368Z"/><path class="cls-7" d="M4.975,39.352c-.082-.303-.157-.609-.229-.915.072.307.147.612.229.915Z"/><path class="cls-7" d="M4.661,38.069c-.061-.278-.118-.558-.171-.839.053.281.109.561.171.839Z"/><path class="cls-7" d="M4.405,36.755c-.044-.259-.086-.52-.123-.781.037.262.079.522.123.781Z"/><path class="cls-7" d="M4.209,35.401c-.029-.239-.058-.478-.081-.719.023.241.052.48.081.719Z"/><path class="cls-7" d="M4.422,27.162s0-.002,0-.003c0,.001,0,.002,0,.003Z"/><path class="cls-7" d="M4.075,33.975c-.014-.204-.031-.407-.041-.612.01.205.027.408.041.612Z"/><path class="cls-7" d="M4.107,29.577c0-.005,0-.011.001-.017,0,.006,0,.011-.001.017Z"/><path class="cls-7" d="M4,32.029c0,.047.003.093.004.14,0-.049-.003-.097-.003-.146,0,.002,0,.004,0,.006Z"/><path class="cls-3" d="M16.329,44.138c-7.067-8.378-8.99-19.469-6.147-29.654-.002.002-.004.005-.005.007-.195.242-.377.496-.564.746-.154.205-.316.405-.464.614,0,0,0,0,0,0-.363.511-.707,1.037-1.036,1.573,0,0,0,0,0,0-.274.448-.54.903-.789,1.367,0,0,0,0,0,0-.037.069-.07.14-.106.209,0,0,0,.001,0,.001-.073.138-.137.28-.208.419-.93,1.838-1.67,3.789-2.178,5.832-.011.043-.025.086-.036.129-.141.578-.264,1.163-.368,1.755-.001.007-.003.013-.004.02,0,.001,0,.002,0,.003-.138.789-.243,1.588-.314,2.398,0,.006,0,.011-.001.017-.07.806-.106,1.622-.106,2.446,0,.049.003.097.003.146.002.4.012.798.03,1.193.01.205.027.408.041.612.016.236.032.473.054.708.023.241.052.48.081.718.012.096.024.191.036.286.012.095.023.191.036.286.019.131.041.261.062.391.021.13.039.261.062.391.014.079.028.158.042.238.014.079.028.159.042.238.053.281.109.561.171.839.027.123.056.246.085.368.072.307.147.613.229.915.018.067.038.134.057.201.012.043.026.084.038.127.172.602.368,1.193.578,1.779.062.174.126.348.192.521.229.601.471,1.195.739,1.775.006.013.012.025.018.037.043.089.088.175.131.264.236.493.487.978.75,1.455.104.189.208.376.317.562.306.525.623,1.043.961,1.546.102.152.213.298.318.448.267.38.542.753.826,1.119.201.258.4.519.61.769l.008-.008s0,0,0,0l5.811-5.811h0Z"/><path class="cls-5" d="M35.274,9.721c6.461-1.826,13.184,1.952,15.016,8.438.131.464.233.929.308,1.393.199,1.235-1.344,1.566-2.08.555-3.173-4.362-7.822-7.401-12.999-8.58-1.005-.229-1.238-1.525-.246-1.805Z"/><path class="cls-1" d="M32.001,47.467c4.627,0,8.766-2.047,11.593-5.273l-.228-.748c-1.047-3.437-4.11-5.75-7.613-6.25,1.611-1.161,2.66-3.051,2.66-5.184,0-3.531-2.872-6.393-6.415-6.393s-6.415,2.862-6.415,6.393c0,2.133,1.048,4.023,2.66,5.184-3.506.502-6.571,2.819-7.615,6.261l-.223.734c2.827,3.228,6.968,5.276,11.596,5.276Z"/></svg>