<?xml version="1.0" encoding="UTF-8"?><svg id="Icons" xmlns="http://www.w3.org/2000/svg" viewBox="0 0 64 64"><defs><style>.cls-1{fill:#8c4b02;}.cls-2{fill:#fff;}.cls-3{fill:#ca8501;}.cls-4{fill:#e4a201;}.cls-5{fill:#a96404;}.cls-6{fill:#fcc003;}</style></defs><path class="cls-5" d="M40.424,24.237h-16.795c-2.922,0-5.3-2.378-5.3-5.3v-9.448c0-2.922,2.378-5.3,5.3-5.3h16.795c2.922,0,5.3,2.378,5.3,5.3v9.448c0,2.922-2.378,5.3-5.3,5.3ZM23.629,9.189c-.165,0-.3.135-.3.3v9.448c0,.165.135.3.3.3h16.795c.165,0,.3-.135.3-.3v-9.448c0-.165-.135-.3-.3-.3h-16.795Z"/><path class="cls-3" d="M59.94,53.222c.558,3.853-2.891,7.091-6.74,6.508-6.9-1.046-13.965-1.589-21.156-1.589s-14.313.547-21.239,1.601c-3.857.587-7.314-2.665-6.743-6.525l4.258-28.78c.458-3.093,3.359-5.201,6.463-4.82,5.645.693,11.393,1.049,17.225,1.049s11.625-.359,17.291-1.058c3.111-.383,6.019,1.734,6.469,4.836l4.172,28.776Z"/><path class="cls-1" d="M49.299,19.61c3.111-.383,6.019,1.734,6.469,4.836l2.935,20.247c-6.264-3.2-13.36-5.004-20.877-5.004-13.372,0-25.41,5.711-33.808,14.826-.035-.421-.022-.855.043-1.297l4.258-28.78c.458-3.093,3.359-5.2,6.463-4.82,5.645.693,11.393,1.05,17.225,1.05s11.625-.36,17.291-1.058Z"/><path class="cls-4" d="M59.931,31.247c.559,3.852-2.891,7.091-6.74,6.508-6.897-1.045-13.959-1.587-21.148-1.587s-14.28.544-21.191,1.594c-3.857.586-7.312-2.666-6.741-6.525l2.285-15.444c.462-3.123,3.413-5.236,6.542-4.81,6.235.849,12.601,1.288,19.069,1.288s12.879-.442,19.136-1.297c3.136-.429,6.094,1.694,6.548,4.826l2.24,15.447Z"/><rect class="cls-6" x="25.028" y="30.483" width="13.997" height="11.197" rx="2.799" ry="2.799"/><path class="cls-2" d="M55.494,23.863c-.269-2.346-.531-4.74-.722-6.503-.196-1.808-1.843-3.141-3.639-2.991l-8.192.719c-.644.057-1.115.547-1.147,1.192-.033.645.387,1.18,1.021,1.301l6.192,1.184c1.705.326,3.044,1.76,3.332,3.567.12.755.253,1.483.394,2.166.113.548.316.974.603,1.266.25.254.553.388.86.388.098,0,.195-.014.293-.041.373-.105.677-.401.854-.832.16-.388.213-.877.151-1.415Z"/></svg>