<?xml version="1.0" encoding="UTF-8"?><svg id="Icons" xmlns="http://www.w3.org/2000/svg" viewBox="0 0 64 64"><defs><style>.cls-1{fill:#fff;}</style></defs><path class="cls-1" d="M59.905,31.364l-2.24-15.447c-.454-3.132-3.412-5.255-6.548-4.826-1.795.245-3.604.447-5.42.623v-2.108c0-2.922-2.377-5.299-5.299-5.299h-16.796c-2.922,0-5.299,2.377-5.299,5.299v2.112c-1.806-.175-3.605-.375-5.39-.618-3.128-.426-6.08,1.686-6.542,4.81l-2.285,15.444c-.571,3.859,2.884,7.111,6.741,6.525,4.652-.707,9.384-1.163,14.175-1.4v-3.079c0-1.546,1.253-2.799,2.799-2.799h8.398c1.546,0,2.799,1.253,2.799,2.799v3.077c4.788.235,9.518.69,14.167,1.395,3.849.583,7.298-2.656,6.74-6.508ZM40.697,12.108c-2.883.177-5.787.28-8.715.28s-5.808-.102-8.679-.277v-2.504c0-.165.134-.299.299-.299h16.796c.165,0,.299.134.299.299v2.502Z"/><path class="cls-1" d="M59.914,53.339l-2.082-14.36c-1.146.618-2.434.961-3.765.961-.4,0-.804-.031-1.202-.091-4.568-.692-9.211-1.135-13.867-1.368v.518c0,1.546-1.253,2.799-2.799,2.799h-8.398c-1.546,0-2.799-1.253-2.799-2.799v-.516c-4.659.234-9.304.679-13.874,1.373-.399.061-.804.091-1.204.091-1.331,0-2.618-.343-3.764-.96l-2.123,14.348c-.571,3.86,2.885,7.112,6.743,6.525,6.926-1.054,14.018-1.601,21.239-1.601s14.257.542,21.156,1.589c3.849.584,7.299-2.655,6.74-6.508Z"/></svg>