<?xml version="1.0" encoding="UTF-8"?><svg id="Icons" xmlns="http://www.w3.org/2000/svg" viewBox="0 0 64 64"><defs><style>.cls-1{fill:#fff;}</style></defs><path class="cls-1" d="M59.249,24.009c-.961-2.069-2.564-3.089-4.532-3.536-.922-.172-1.925-.261-2.964-.261-4.362,0-9.196,1.549-13.348,3.744.03.706-.089,1.412-.396,2.071l-10.684,22.896c-.206.441-.486.832-.812,1.175l.656,3.807c.495,2.722,2.286,4.196,3.294,4.671h0c1.396.652,2.809.983,4.198.983,2.778,0,5.437-1.243,8.368-3.912,1.924-1.749,2.82-4.462,2.395-7.255-.223-1.464-.779-2.854-1.627-4.122h.021c1.805,0,3.522-.818,4.594-2.189.067-.085.129-.174.186-.266.885-1.418,2.596-3.206,4.577-5.276,1.759-1.838,3.752-3.921,5.81-6.392,1.251-1.503,1.349-3.797.263-6.136ZM32.972,51.195c-.922,0-1.669-.747-1.669-1.669s.747-1.669,1.669-1.669,1.669.747,1.669,1.669-.747,1.669-1.669,1.669ZM39.64,51.751c-1.229,0-2.225-.996-2.225-2.225s.996-2.225,2.225-2.225,2.225.996,2.225,2.225-.996,2.225-2.225,2.225Z"/><path class="cls-1" d="M23.454,5.892c-1.113-.892-2.245-1.449-3.738-1.449-.613,0-1.263.087-1.879.252-2.494.672-4.188,2.221-4.535,4.145-.571,3.165-.885,6.032-1.162,8.561-.312,2.848-.582,5.307-1.1,6.896-.034.105-.063.212-.086.321-.37,1.763.14,3.573,1.303,4.937-1.531.168-2.97.644-4.214,1.402-2.412,1.469-3.915,3.899-4.02,6.5-.149,3.704.294,8.925,5.833,11.508.087.041.175.077.265.109.354.128,1.072.335,2.013.335,1.165,0,2.34-.319,3.397-.922l3.336-1.939c.053-.477.166-.95.375-1.397l10.684-22.896c.308-.661.776-1.214,1.336-1.642-1.206-5.614-3.814-11.427-7.809-14.718ZM11.501,38.214c-1.229,0-2.225-.996-2.225-2.225s.996-2.225,2.225-2.225,2.225.996,2.225,2.225-.996,2.225-2.225,2.225ZM15.726,42.883c-.922,0-1.669-.747-1.669-1.669s.747-1.669,1.669-1.669,1.669.747,1.669,1.669-.747,1.669-1.669,1.669Z"/><path class="cls-1" d="M23.283,49.497c-.349,0-.702-.074-1.039-.231-1.231-.574-1.764-2.039-1.189-3.27l10.684-22.896c.575-1.231,2.039-1.763,3.27-1.189,1.231.574,1.764,2.039,1.189,3.27l-10.684,22.896c-.417.895-1.305,1.42-2.231,1.42Z"/></svg>