<?xml version="1.0" encoding="UTF-8"?><svg id="Icons" xmlns="http://www.w3.org/2000/svg" viewBox="0 0 64 64"><defs><style>.cls-1{fill:#001e5b;}.cls-2{fill:#fff;}.cls-3{fill:#05628a;}.cls-4{fill:#0d9dda;}</style></defs><path class="cls-4" d="M59.249,24.009c-.961-2.069-2.564-3.089-4.532-3.536-.922-.172-1.925-.261-2.964-.261-6.925,0-15.061,3.882-19.721,8.098.242-7.096-2.653-17.535-8.578-22.417-1.113-.892-2.246-1.449-3.738-1.449-.613,0-1.263.087-1.879.252-2.494.672-4.188,2.221-4.535,4.145-.57,3.165-.885,6.032-1.162,8.561-.312,2.848-.582,5.307-1.1,6.896-.034.105-.063.212-.086.321-.37,1.763.14,3.573,1.303,4.937-1.532.168-2.97.644-4.214,1.402-2.412,1.469-3.915,3.899-4.02,6.5-.149,3.704.294,8.925,5.833,11.508.087.04.175.077.265.109.354.128,1.072.335,2.014.335,1.165,0,2.339-.319,3.397-.921l9.73-5.656,1.91,11.073c.495,2.722,2.286,4.196,3.294,4.671h0c1.396.652,2.809.983,4.198.983,2.778,0,5.437-1.243,8.368-3.912,1.924-1.749,2.82-4.462,2.395-7.255-.223-1.463-.779-2.854-1.627-4.122h.021c1.805,0,3.522-.818,4.594-2.189.066-.085.129-.174.186-.266.885-1.418,2.596-3.206,4.577-5.277,1.759-1.838,3.752-3.921,5.81-6.392,1.251-1.503,1.349-3.797.263-6.136Z"/><path class="cls-3" d="M43.031,55.645c-2.931,2.669-5.59,3.912-8.368,3.912-1.389,0-2.802-.331-4.198-.982h0c-1.008-.476-2.799-1.949-3.294-4.671l-1.91-11.073s1.33,14.295,14.906,13.485c.715-.043,2.864-.67,2.864-.67Z"/><path class="cls-3" d="M25.261,42.831l-9.73,5.656c-1.058.603-2.232.921-3.397.921-.941,0-1.66-.207-2.014-.335-.09-.032-.178-.068-.265-.109-5.539-2.583-5.982-7.804-5.833-11.508.105-2.601,1.608-5.031,4.02-6.5,1.244-.758-5.403,2.517,1.122,10.77,6.889,8.713,16.096,1.105,16.096,1.105Z"/><path class="cls-1" d="M23.282,49.497c-.348,0-.702-.074-1.038-.231-1.231-.574-1.765-2.038-1.189-3.27l10.684-22.896c.572-1.231,2.038-1.768,3.27-1.189,1.231.574,1.765,2.038,1.189,3.27l-10.684,22.896c-.417.896-1.305,1.421-2.231,1.421Z"/><path class="cls-2" d="M55.888,30.159c.851-1.036,1.693-3.028.774-5.005-.812-1.749-1.886-2.361-3.515-2.738-.772-.179-2.084-.135-2.953,0-.335.052-4.06.669-.147,1.7,2.036.537,5.455,1.474,4.327,4.602-1.855,5.146,1.131,1.907,1.514,1.44Z"/><path class="cls-2" d="M27.913,17.445c-.949-3.119-2.75-6.82-5.008-8.79-3.699-3.228-3.895-.133-2.288,1.763,2.689,3.172,3.51,4.851,4.494,6.819,1.367,2.734,2.362,4.52,2.953,3.937.52-.514.381-1.983-.15-3.729Z"/><circle class="cls-1" cx="11.501" cy="35.989" r="2.225"/><circle class="cls-1" cx="39.64" cy="49.526" r="2.225"/><circle class="cls-1" cx="32.972" cy="49.526" r="1.669"/><circle class="cls-1" cx="15.726" cy="41.214" r="1.669"/></svg>