<?xml version="1.0" encoding="UTF-8"?><svg id="Icons" xmlns="http://www.w3.org/2000/svg" viewBox="0 0 64 64"><defs><style>.cls-1{fill:#001e5b;}.cls-2{fill:#fff;}.cls-3{fill:#05628a;}.cls-4{fill:#0d9dda;}</style></defs><path class="cls-1" d="M38.128,19.534l-.921-.782c-3.547-2.57-7.567-4.835-12.143-6.742-.213.337-.316.741-.27,1.159.017.154.029.306.045.459.026.251.05.502.073.752.039.423.074.846.105,1.267.018.245.037.49.052.735.029.454.05.906.069,1.357.009.202.02.405.027.607.021.649.034,1.295.035,1.938,0,.007,0,.015,0,.022,0,.062-.003.124-.003.186h0c-.001.574-.01,1.146-.028,1.715-.002.057,0,.114-.003.171-.005.156-.017.311-.024.467-.018.428-.038.854-.066,1.28-.015.238-.033.474-.051.711-.031.405-.066.81-.106,1.213-.023.235-.046.469-.072.703-.014.127-.024.255-.039.381-.093.787.362,1.532,1.094,1.835.039.016.08.036.12.053.4.168.805.346,1.216.537.067.031.135.065.202.096.398.188.799.386,1.205.595.044.023.087.044.131.066.311.161.625.328.941.5.119.065.239.134.358.2.088.049.175.097.263.147.433.243.869.495,1.309.757.07.042.141.085.211.127.427.256.857.519,1.29.79.045.028.09.055.135.084.456.287.916.583,1.379.885.091.06.183.119.274.18.457.3.916.607,1.378.92.072.049.143.098.215.147.452.307.905.62,1.361.938.03.021.059.041.089.062.305.213.658.316,1.012.318v-15.019c0-.101.021-.19.033-.285-.077-.618-.386-1.113-.897-1.531Z"/><path class="cls-3" d="M53.019,12.026c-4.625,1.95-8.757,4.202-12.289,6.822l-.809.686c-.51.419-.82.913-.897,1.531-.012.095-.033.184-.033.285v15.019c.022,0,.044.002.066.002.368-.011.733-.135,1.042-.369,2.85-2.159,5.829-4.017,8.941-5.563,1.179-.619,2.324-1.158,3.43-1.6.564-.387.858-1.08.737-1.777-.671-3.842-.813-8.283.047-13.86.065-.42-.028-.831-.235-1.176Z"/><path class="cls-4" d="M52.997,11.994c-.193-.306-.476-.559-.828-.707-.156-.066-.305-.135-.46-.201-.001,0-.003-.001-.004-.002-.096-.041-.19-.083-.285-.125-.143-.063-.287-.125-.429-.188-.416-.184-.825-.371-1.23-.561-.002,0-.003-.002-.005-.002,0,0-.001,0-.002-.001-.221-.103-.443-.206-.661-.311-.449-.216-.888-.437-1.323-.659-.003-.001-.006-.003-.008-.004-.06-.031-.12-.061-.181-.091-.098-.049-.197-.098-.293-.149-.585-.307-1.159-.619-1.718-.939-.084-.048-.165-.097-.247-.146-.027-.016-.055-.033-.082-.049-.003-.002-.006-.003-.008-.005-.441-.256-.875-.516-1.298-.78,0,0-.001,0-.002-.001-.118-.074-.232-.149-.348-.224-.065-.042-.13-.084-.195-.126-.346-.223-.687-.449-1.021-.678-.189-.13-.375-.26-.559-.392-.323-.23-.638-.464-.948-.699,0,0-.002-.001-.003-.002-.092-.07-.184-.141-.276-.212-.077-.058-.154-.116-.229-.175-.074-.059-.153-.115-.227-.174-.63-.505-1.526-.524-2.169-.035-.093.071-.19.138-.284.209-.05.037-.101.074-.151.111-.135.1-.271.2-.407.299-.001,0-.002.002-.003.002-.326.238-.656.473-.989.705,0,0-.002.001-.003.002-.132.092-.266.183-.399.274-.061.042-.122.085-.184.126-.349.236-.703.467-1.06.696l-.005.003c-.163.105-.326.211-.49.314-.017.011-.034.022-.051.033-.458.286-.923.566-1.393.841-.002.001-.004.003-.007.004-.07.041-.138.083-.208.124-.012.007-.025.015-.037.022-.557.322-1.123.634-1.697.94,0,0,0,0,0,0-.166.089-.337.173-.505.261-.001,0-.003.001-.004.002-.412.214-.827.426-1.248.633-.215.106-.433.208-.651.312-.388.184-.78.366-1.176.544-.228.102-.457.204-.687.304-.147.064-.291.131-.439.194-.345.147-.621.392-.812.69-.002.003-.004.006-.006.009,4.575,1.907,8.596,4.172,12.143,6.742l.921.782c.51.419.82.913.897,1.531.077-.618.386-1.113.897-1.531l.809-.686c3.532-2.62,7.664-4.872,12.289-6.822-.007-.011-.015-.021-.022-.032Z"/><path class="cls-1" d="M24.07,43.163l-.921-.782c-3.547-2.57-7.567-4.835-12.143-6.742-.213.337-.316.741-.27,1.159.017.154.029.306.045.459.026.251.05.502.073.752.039.423.074.846.105,1.267.018.245.037.49.052.735.029.454.05.906.069,1.357.009.202.02.405.027.607.021.649.034,1.295.035,1.938,0,.007,0,.015,0,.022,0,.062-.003.124-.003.186h0c-.001.574-.01,1.146-.028,1.715-.002.057,0,.114-.003.171-.005.156-.017.311-.024.467-.018.428-.038.854-.066,1.28-.015.238-.033.474-.051.711-.031.405-.066.81-.106,1.213-.023.235-.046.469-.072.703-.014.127-.024.255-.039.381-.093.787.362,1.532,1.094,1.835.039.016.08.036.12.053.4.168.805.346,1.216.537.067.031.135.065.202.096.398.188.799.386,1.205.595.044.023.087.044.131.066.311.161.625.328.941.5.119.065.239.134.358.2.088.049.175.097.263.147.433.243.869.495,1.309.757.07.042.141.085.211.127.427.256.857.519,1.29.79.045.028.09.055.135.084.456.287.916.583,1.379.885.091.06.183.119.274.18.457.3.916.607,1.378.92.072.049.143.098.215.147.452.307.905.62,1.361.938.03.021.059.041.089.062.305.213.658.316,1.012.318v-15.019c0-.101.021-.19.033-.285-.077-.618-.386-1.113-.897-1.531Z"/><path class="cls-3" d="M38.962,35.655c-4.625,1.95-8.757,4.202-12.289,6.822l-.809.686c-.51.419-.82.913-.897,1.531-.012.095-.033.184-.033.285v15.019c.022,0,.044.002.066.002.368-.011.733-.135,1.042-.369,2.85-2.159,5.829-4.017,8.941-5.563,1.179-.619,2.324-1.158,3.43-1.6.564-.387.858-1.08.737-1.777-.671-3.842-.813-8.283.047-13.86.065-.42-.028-.831-.235-1.176Z"/><path class="cls-4" d="M38.94,35.623c-.193-.306-.476-.559-.828-.707-.156-.066-.305-.135-.46-.201-.001,0-.003-.001-.004-.002-.096-.041-.19-.083-.285-.125-.143-.063-.287-.125-.429-.188-.416-.184-.825-.371-1.23-.561-.002,0-.003-.002-.005-.002,0,0-.001,0-.002-.001-.221-.103-.443-.206-.661-.311-.449-.216-.888-.437-1.323-.659-.003-.001-.006-.003-.008-.004-.06-.031-.12-.061-.181-.091-.098-.049-.197-.098-.293-.149-.585-.307-1.159-.619-1.718-.939-.084-.048-.165-.097-.247-.146-.027-.016-.055-.033-.082-.049-.003-.002-.006-.003-.008-.005-.441-.256-.875-.516-1.298-.78,0,0-.001,0-.002-.001-.118-.074-.232-.149-.348-.224-.065-.042-.13-.084-.195-.126-.346-.223-.687-.449-1.021-.678-.189-.13-.375-.26-.559-.392-.323-.23-.638-.464-.948-.699,0,0-.002-.001-.003-.002-.092-.07-.184-.141-.276-.212-.077-.058-.154-.116-.229-.175-.074-.059-.153-.115-.227-.174-.63-.505-1.526-.524-2.169-.035-.093.071-.19.138-.284.209-.05.037-.101.074-.151.111-.135.1-.271.2-.407.299-.001,0-.002.002-.003.002-.326.238-.656.473-.989.705,0,0-.002.001-.003.002-.132.092-.266.183-.399.274-.061.042-.122.085-.184.126-.349.236-.703.467-1.06.696l-.005.003c-.163.105-.326.211-.49.314-.017.011-.034.022-.051.033-.458.286-.923.566-1.393.841-.002.001-.004.003-.007.004-.07.041-.138.083-.208.124-.012.007-.025.015-.037.022-.557.322-1.123.634-1.697.94,0,0,0,0,0,0-.166.089-.337.173-.505.261-.001,0-.003.001-.004.002-.412.214-.827.426-1.248.633-.215.106-.433.208-.651.312-.388.184-.78.366-1.176.544-.228.102-.457.204-.687.304-.147.064-.291.131-.439.194-.345.147-.621.392-.812.69-.002.003-.004.006-.006.009,4.575,1.907,8.596,4.172,12.143,6.742l.921.782c.51.419.82.913.897,1.531.077-.618.386-1.113.897-1.531l.809-.686c3.532-2.62,7.664-4.872,12.289-6.822-.007-.011-.015-.021-.022-.032Z"/><path class="cls-2" d="M43.271,8.587l-3.886-2.405c-.116-.072-.248-.101-.379-.095v.006l-.002-.006c-.131-.006-.263.023-.379.095l-3.886,2.405c-.567.351-.323.66.344.666.662-.177,2.292-.83,3.922-.83s3.26.653,3.922.83c.667-.006.911-.315.344-.666Z"/><path class="cls-2" d="M29.194,32.103l-3.886-2.405c-.116-.072-.248-.101-.379-.095v.006l-.002-.006c-.131-.006-.263.023-.379.095l-3.886,2.405c-.567.351-.323.66.344.666.662-.177,2.292-.83,3.922-.83s3.26.653,3.922.83c.667-.006.911-.315.344-.666Z"/></svg>