<?xml version="1.0" encoding="UTF-8"?><svg id="Icons" xmlns="http://www.w3.org/2000/svg" viewBox="0 0 64 64"><defs><style>.cls-1{fill:#fff;}.cls-2{fill:#05628a;}.cls-3{fill:#0d9dda;}.cls-4{fill:#0d9dda;}</style></defs><circle class="cls-4" cx="32" cy="32" r="28"/><path class="cls-1" d="M37.504,9.643c5.521-1.56,11.267,1.669,12.833,7.211.112.396.199.794.263,1.19.17,1.056-1.149,1.339-1.778.474-2.712-3.728-6.685-6.325-11.109-7.333-.859-.196-1.058-1.303-.21-1.543Z"/><path class="cls-2" d="M15.17,44.954c-.245-.287-.483-.577-.715-.871-.051.067-.1.135-.15.203.05-.068.091-.144.143-.211.002.003.005.006.007.009.003-.004.006-.008.009-.012-6.211-7.839-8.101-17.872-5.946-27.304-1.766,2.712-3.072,5.75-3.814,9.002-.014.061-.029.122-.042.184-.14.633-.261,1.273-.357,1.921-.001.008-.002.015-.003.023-.088.599-.152,1.206-.201,1.817-.011.134-.022.269-.031.404-.042.626-.069,1.256-.07,1.893.003,7.328,2.824,13.994,7.433,18.983l.081-.404c.003-.014.008-.027.011-.041-.003.013-.007.026-.01.039l-.081.406c.852.922,1.763,1.79,2.731,2.591.012.01.023.02.035.029.325.268.656.527.993.78.028.021.057.043.085.065.326.243.657.478.993.706.042.028.083.057.125.085.328.22.661.433.998.64.054.033.107.066.161.099.33.199.665.391,1.004.577.064.035.129.07.193.105.333.179.67.352,1.011.518.075.036.15.072.224.107.335.159.673.313,1.015.459.085.036.17.071.255.106.337.14.677.275,1.021.403.093.034.188.067.281.1.339.121.68.238,1.025.347.104.032.208.062.312.093.339.102.68.201,1.024.291.115.03.232.056.347.084.337.083.676.164,1.018.235.128.026.258.048.387.073.334.064.668.127,1.006.18.145.022.292.038.438.059.325.045.65.09.978.124.18.018.363.028.544.043.298.025.595.053.895.068.327.017.657.021.987.026.157.003.312.012.469.012.663,0,1.319-.03,1.97-.076.132-.009.264-.019.396-.03,1.336-.112,2.647-.316,3.923-.61.066-.015.131-.03.197-.045,3.394-.807,6.55-2.229,9.339-4.147-11.854,2.853-24.533-.62-32.645-10.137Z"/><path class="cls-1" d="M41.007,25.405c-.197.022-.396.038-.593.059v-1.117c0-4.647-3.767-8.414-8.414-8.414s-8.415,3.767-8.415,8.414v1.12c-.198-.021-.397-.036-.594-.059-1.942-.219-3.691,1.267-3.691,3.221v15.661c0,1.955,1.75,3.441,3.692,3.221,2.959-.335,5.968-.507,9.017-.507s6.045.171,8.999.505c1.942.219,3.691-1.267,3.691-3.221v-15.661c0-1.955-1.75-3.441-3.692-3.221ZM28.586,24.346c0-1.883,1.532-3.414,3.415-3.414s3.414,1.532,3.414,3.414v1.485c-1.136.048-2.277.081-3.425.081-1.141,0-2.275-.032-3.404-.08v-1.486Z"/><path class="cls-3" d="M35.7,34.031c0-2.043-1.656-3.7-3.7-3.7s-3.699,1.656-3.699,3.7c0,1.289.661,2.422,1.662,3.084l-1.128,4.721c-.065.437.327.806.764.74.785-.12,1.589-.182,2.407-.182s1.616.061,2.398.18c.436.066.827-.301.764-.738l-1.122-4.725c.997-.663,1.655-1.794,1.655-3.081Z"/></svg>