<?xml version="1.0" encoding="UTF-8"?><svg id="Icons" xmlns="http://www.w3.org/2000/svg" viewBox="0 0 64 64"><defs><style>.cls-1{fill:#fff;}</style></defs><path class="cls-1" d="M32,6c14.336,0,26,11.664,26,26s-11.664,26-26,26S6,46.336,6,32,17.664,6,32,6M32,4c-15.464,0-28,12.536-28,28s12.536,28,28,28,28-12.536,28-28S47.464,4,32,4h0Z"/><path class="cls-1" d="M41.007,25.405c-.197.022-.396.038-.593.059v-1.117c0-4.647-3.767-8.414-8.414-8.414s-8.415,3.767-8.415,8.414v1.12c-.198-.021-.397-.036-.594-.059-1.942-.219-3.691,1.267-3.691,3.221v15.661c0,1.955,1.75,3.441,3.692,3.221,2.959-.335,5.968-.507,9.017-.507s6.045.171,8.999.505c1.942.219,3.691-1.267,3.691-3.221v-15.661c0-1.955-1.75-3.441-3.692-3.221ZM28.586,24.346c0-1.883,1.532-3.414,3.415-3.414s3.414,1.532,3.414,3.414v1.485c-1.136.048-2.277.081-3.425.081-1.141,0-2.275-.032-3.404-.08v-1.486ZM35.166,41.837c.063.437-.328.804-.764.738-.782-.119-1.583-.18-2.398-.18s-1.622.062-2.407.182c-.437.067-.829-.302-.764-.74l1.128-4.721c-1-.662-1.662-1.795-1.662-3.084,0-2.043,1.656-3.7,3.699-3.7s3.7,1.656,3.7,3.7c0,1.287-.658,2.418-1.655,3.081l1.122,4.725Z"/></svg>