<?xml version="1.0" encoding="UTF-8"?><svg id="Icons" xmlns="http://www.w3.org/2000/svg" viewBox="0 0 64 64"><defs><style>.cls-1{fill:#0d9dda;}</style></defs><path class="cls-1" d="M40.327,18.042c-1.129,0-2.334.17-3.58.506-.638.17-1.379.352-2.183.494.01.029.021.058.03.088.519,1.567.982,3.165,1.405,4.656.2.712.49.928,1.242.928h.065c2.091-.036,4.099-.145,5.976-.324.225-.021.805-.074.969-.984.132-.718.237-1.428.349-2.178.101-.681.205-1.382.33-2.084-.21-.128-.422-.25-.605-.327-1.266-.518-2.579-.774-3.998-.774Z"/><path class="cls-1" d="M23.633,18.042c-1.418,0-2.731.255-4.013.78-.176.072-.359.168-.549.288.128.726.231,1.425.332,2.104.112.757.218,1.472.35,2.182.171.92.727.971.964.993,1.913.183,3.865.288,5.974.324h.074c.752,0,1.042-.215,1.241-.922.424-1.496.888-3.095,1.412-4.678.006-.02.013-.041.02-.06-.791-.139-1.537-.322-2.218-.504-1.252-.337-2.457-.507-3.586-.507Z"/><path class="cls-1" d="M53.646,48.249c-.016-.05-.033-.103-.05-.153-.015-.042-.024-.069-.024-.069l.003.003c-.79-2.4-1.646-5.23-2.331-8.091-.563-2.354-1.005-4.717-1.201-6.87-.007-.077-.019-.158-.026-.234-.302-3.621-.706-13.187-2.797-17.689-.214-.461-.464-.952-.781-1.449.023-.003.048-.002.071-.006.054-.008.108-.015.162-.025.083-.015.162-.041.243-.06.131-.03.263-.055.389-.095.048-.016.095-.035.143-.052.169-.06.334-.13.495-.208.05-.025.102-.047.151-.073.179-.095.351-.203.516-.319.057-.04.112-.082.167-.125.136-.104.266-.215.39-.333.051-.048.1-.096.149-.146.121-.125.233-.257.34-.394.048-.061.095-.123.14-.187.111-.158.215-.321.307-.491.034-.063.062-.13.094-.194.064-.133.123-.27.175-.41.018-.049.045-.094.062-.144-.004.003-.008.005-.012.008.167-.493.263-1.019.263-1.568,0-2.691-2.182-4.873-4.873-4.873-1.148,0-2.201.399-3.033,1.063h0s-.002.001-.003.002c-.416.333-.776.732-1.065,1.182-.005.007-.009.015-.013.022-.089.14-.17.284-.244.433-.009.018-.017.035-.025.053-.069.143-.131.289-.187.439-.007.019-.014.037-.021.056-.055.157-.103.318-.143.482-.002.01-.005.02-.008.03-.048.205-.073.417-.094.63-.004.048-.011.096-.014.144-.008.112-.019.222-.019.336,0,.344.038.68.106,1.004-2.135-.685-5.023-1.13-9.043-1.13s-6.915.47-9.071,1.19c.078-.344.134-.696.134-1.064,0-2.691-2.182-4.873-4.873-4.873-1.148,0-2.201.399-3.033,1.063h0s-.002.001-.003.002c-.416.333-.776.732-1.065,1.182-.005.007-.009.015-.013.022-.088.14-.17.284-.244.433-.009.018-.017.035-.025.053-.069.143-.131.289-.186.439-.007.019-.014.037-.021.056-.056.157-.104.318-.143.482-.002.01-.005.02-.008.03-.048.205-.073.417-.094.63-.004.048-.011.096-.014.144-.008.112-.019.222-.019.336,0,2.487,1.87,4.515,4.276,4.813-.336.5-.598.995-.814,1.459-2.091,4.503-2.496,14.068-2.797,17.689-.006.076-.019.157-.026.234-.197,2.153-.638,4.516-1.202,6.87-.686,2.862-1.542,5.694-2.332,8.094l.005-.005s-1.761,4.691,1.49,6.292c4.224,2.306,12.323,5.681,20.078,5.681,7.71,0,15.831-3.378,20.07-5.685,2.827-1.394,1.87-5.122,1.574-6.066ZM40.08,44.335c-2.355,5.016-6.947,5.007-7.914,5.007h-.328c-.967,0-5.895-.252-7.914-5.007-.918-2.163-1.022-3.684-1.021-6.895,0-2.029.224-3.723.638-5.13.311-1.055.729-1.948,1.24-2.694.767-1.12,1.8-1.818,2.864-2.401,2.178-1.193,6.553-1.269,8.714,0,1.044.614,2.097,1.281,2.864,2.401.512.746.93,1.64,1.24,2.694.414,1.406.638,3.1.638,5.13,0,3.211-.023,4.768-1.021,6.895ZM46.941,19.261c-.275,1.488-.446,2.999-.721,4.499-.263,1.465-1.259,2.484-2.747,2.621-2.038.195-4.087.298-6.124.332-.036,0-.072.001-.107.001-1.581,0-2.708-.748-3.167-2.382-.435-1.534-.881-3.068-1.385-4.59-.103-.321-.458-.561-.687-.836-.24.275-.584.515-.687.836-.504,1.522-.95,3.056-1.385,4.59-.459,1.635-1.586,2.382-3.167,2.382-.036,0-.072,0-.107-.001-2.049-.034-4.086-.137-6.124-.332-1.488-.137-2.472-1.145-2.747-2.621-.275-1.488-.447-3.01-.721-4.499-.149-.801.137-1.328.767-1.728.321-.218.664-.412,1.03-.561,1.572-.644,3.167-.929,4.771-.929,1.363,0,2.733.206,4.1.574,1.419.378,2.827.675,4.247.675,1.419-.011,2.827-.298,4.247-.675,1.367-.368,2.737-.574,4.1-.574,1.604,0,3.199.286,4.771.929.355.149.698.355,1.03.561h.046c.618.401.916.939.767,1.728Z"/><path class="cls-1" d="M34.713,41.466c-.268.314-.69.546-1.21.699v-5.938c.807-.284,1.564-.794,2.193-1.525.297-.345.523-.689.677-1.031.154-.342.235-.684.235-1.017,0-.404-.123-.79-.351-1.118-.171-.247-.398-.463-.669-.646-.407-.276-.915-.482-1.513-.623-.598-.14-1.288-.214-2.063-.214-.694,0-1.32.059-1.874.172-.83.17-1.502.458-1.988.872-.242.207-.436.447-.569.715-.133.268-.202.564-.201.87,0,.328.078.665.226,1.002.148.337.367.676.654,1.016.5.592,1.087,1.042,1.719,1.342.17.081.349.123.525.182v5.942c-.519-.153-.942-.385-1.209-.699-.537-.631-1.483-.707-2.114-.17-.631.537-.707,1.483-.17,2.114,1.075,1.262,2.833,1.956,4.941,1.956.029,0,.06,0,.092,0,2.122,0,3.881-.694,4.955-1.956.537-.631.461-1.577-.17-2.114-.63-.536-1.577-.461-2.114.17Z"/></svg>