<?xml version="1.0" encoding="UTF-8"?><svg id="Icons" xmlns="http://www.w3.org/2000/svg" viewBox="0 0 64 64"><defs><style>.cls-1{fill:#001e5b;}</style></defs><path class="cls-1" d="M45.808,6c1.584,0,2.873,1.289,2.873,2.873,0,.308-.052.62-.156.925l-.007.022c-.008.019-.015.037-.021.055-.031.082-.065.162-.107.249l-.05.109c-.047.088-.107.182-.183.291-.025.036-.052.071-.082.109-.063.081-.129.159-.198.231-.029.03-.059.058-.09.088-.073.07-.15.135-.241.205l-.088.066c-.108.076-.207.137-.304.188l-.089.042c-.094.046-.19.087-.287.121l-.076.03c-.037.01-.076.018-.114.026l-.124.028c-.049.011-.098.024-.169.043h-.01c-.038.005-.077.009-.105.012-.678.089-1.263.518-1.552,1.138s-.241,1.344.126,1.92c.221.346.428.733.653,1.217,1.653,3.559,2.194,11.141,2.484,15.215.049.692.093,1.3.134,1.798.005.064.013.13.021.197l.006.052c.189,2.079.609,4.485,1.248,7.154.598,2.498,1.392,5.257,2.36,8.2.011.039.024.077.038.115l.021.063.021.065c.154.492.853,2.982-.55,3.674-.024.012-.048.024-.072.037-4.834,2.63-12.394,5.441-19.114,5.441-6.756,0-14.306-2.808-19.12-5.437-.025-.014-.05-.026-.075-.039-1.554-.765-.509-3.773-.501-3.794.023-.062.043-.123.06-.186.958-2.917,1.745-5.656,2.34-8.141.639-2.668,1.059-5.075,1.249-7.156l.006-.051c.008-.066.015-.131.021-.195.041-.497.085-1.104.134-1.795.291-4.074.831-11.658,2.484-15.218.206-.444.422-.832.66-1.187.387-.577.448-1.313.159-1.945-.288-.632-.884-1.069-1.574-1.154-1.437-.178-2.521-1.394-2.521-2.823,0-.033.004-.066.007-.099l.009-.108.009-.083c.013-.13.029-.276.039-.322.004-.016.012-.049.016-.065.023-.097.052-.192.096-.317.032-.088.069-.174.125-.29.043-.087.091-.172.142-.253.006-.009.013-.021.021-.033.166-.255.37-.481.608-.673.004-.003.007-.006.011-.009.514-.41,1.132-.627,1.787-.627,1.584,0,2.873,1.289,2.873,2.873,0,.17-.027.367-.084.62-.161.705.071,1.441.607,1.926.374.339.854.518,1.344.518.212,0,.426-.034.633-.103,2.161-.721,5-1.087,8.438-1.087,3.456,0,6.293.348,8.432,1.034.2.064.406.096.611.096.488,0,.967-.178,1.34-.515.529-.477.764-1.2.618-1.897-.042-.199-.063-.398-.063-.588,0-.033.004-.066.007-.099l.009-.108.009-.083c.012-.124.027-.261.048-.356.003-.012.006-.024.008-.031.023-.097.052-.192.096-.316.032-.088.069-.174.125-.29.043-.087.091-.172.142-.253.006-.009.013-.021.021-.033.164-.252.366-.477.601-.667.006-.005.012-.01.019-.015.514-.41,1.132-.627,1.786-.627M45.808,4c-1.148,0-2.201.399-3.033,1.063h0s-.002.001-.003.002c-.416.333-.776.732-1.065,1.182-.005.007-.009.015-.013.022-.089.14-.17.284-.244.433-.009.017-.017.035-.025.053-.069.143-.131.289-.187.439-.007.019-.014.037-.021.056-.055.157-.103.318-.143.482-.002.01-.005.02-.008.03-.048.205-.073.417-.094.63-.004.048-.011.096-.014.144-.008.112-.019.222-.019.336,0,.344.038.68.106,1.004-2.135-.685-5.023-1.13-9.043-1.13s-6.915.47-9.071,1.19c.078-.344.134-.696.134-1.064,0-2.691-2.182-4.873-4.873-4.873-1.148,0-2.2.399-3.033,1.063,0,0,0,0,0,0,0,0,0,0,0,0h0s-.002.001-.003.002c-.416.333-.776.732-1.065,1.182-.005.007-.009.015-.013.022-.089.14-.17.284-.244.433-.009.017-.017.035-.025.053-.069.143-.131.289-.187.439-.007.019-.014.037-.021.056-.055.157-.103.318-.143.482-.002.01-.005.02-.008.03-.048.205-.073.417-.094.63-.004.048-.011.096-.014.144-.008.112-.019.222-.019.336,0,2.487,1.869,4.515,4.276,4.813-.336.5-.598.995-.814,1.459-2.091,4.503-2.496,14.068-2.797,17.689-.006.076-.019.157-.026.234-.197,2.153-.638,4.516-1.202,6.87-.686,2.862-1.542,5.694-2.332,8.094l.005-.005s-1.761,4.691,1.49,6.292c4.224,2.306,12.323,5.681,20.078,5.681,7.71,0,15.831-3.378,20.07-5.685,2.827-1.394,1.87-5.122,1.574-6.066-.016-.05-.033-.103-.05-.153-.015-.042-.024-.069-.024-.069l.003.003c-.79-2.4-1.646-5.23-2.331-8.091-.563-2.354-1.005-4.717-1.201-6.87-.007-.077-.019-.158-.026-.234-.302-3.621-.706-13.187-2.797-17.689-.214-.461-.464-.952-.781-1.449.023-.003.048-.002.071-.006.054-.008.108-.015.162-.025.083-.015.161-.041.243-.06.131-.03.263-.055.389-.096.048-.016.095-.035.143-.052.169-.06.334-.13.495-.208.05-.025.102-.047.151-.073.179-.095.351-.203.516-.319.057-.04.112-.082.167-.125.136-.104.266-.215.39-.333.051-.048.1-.096.149-.146.121-.125.233-.257.34-.394.048-.061.095-.123.14-.187.111-.158.215-.321.307-.491.034-.063.062-.13.094-.194.065-.133.123-.27.176-.41.018-.049.045-.094.062-.144-.004.003-.008.005-.012.008.167-.493.263-1.019.263-1.568,0-2.691-2.182-4.873-4.873-4.873h0Z"/><path class="cls-1" d="M32.085,28.292h0c1.331,0,2.581.248,3.261.648.906.532,1.699,1.036,2.228,1.808.401.585.728,1.301.971,2.128.369,1.255.556,2.791.556,4.565,0,3.175-.04,4.359-.832,6.045-1.201,2.557-3.252,3.855-6.104,3.857h-.326c-.746,0-4.545-.186-6.075-3.789-.75-1.765-.863-2.951-.862-6.113,0-1.774.187-3.31.556-4.565.244-.828.571-1.543.972-2.129.564-.823,1.378-1.341,2.175-1.777.763-.418,2.096-.678,3.479-.678M32.085,26.292c-1.661,0-3.334.318-4.44.924-1.064.583-2.097,1.281-2.864,2.401-.512.747-.93,1.64-1.24,2.694-.414,1.406-.638,3.1-.638,5.13,0,3.211.103,4.732,1.021,6.895,2.019,4.755,6.947,5.007,7.914,5.007h.328c.967,0,5.559.008,7.914-5.007.999-2.127,1.021-3.684,1.021-6.895,0-2.029-.224-3.723-.638-5.13-.311-1.055-.729-1.948-1.24-2.694-.767-1.12-1.82-1.788-2.864-2.401-1.064-.625-2.664-.924-4.274-.924h0Z"/><path class="cls-1" d="M46.845,18.25c-.096-.205-.259-.378-.45-.538-.073-.061-.136-.125-.221-.18h-.046c-.13-.081-.264-.16-.398-.237-.121-.07-.244-.131-.367-.193-.088-.044-.175-.093-.265-.131-.379-.155-.76-.287-1.142-.402-.126-.038-.254-.063-.38-.097-.256-.068-.511-.136-.768-.187-.152-.03-.304-.049-.456-.073-.233-.037-.466-.075-.699-.099-.162-.017-.325-.024-.488-.034-.224-.014-.448-.028-.672-.031-.056,0-.111-.008-.167-.008-.144,0-.289.011-.433.016-.15.005-.3.007-.45.017-.216.014-.432.037-.649.06-.141.015-.283.027-.424.046-.239.033-.478.076-.717.12-.118.021-.237.038-.355.062-.348.072-.697.154-1.045.247-.009.002-.018.004-.027.006-1.419.378-2.827.664-4.247.675-.667,0-1.332-.07-1.997-.179-.114-.019-.228-.039-.341-.06-.635-.118-1.271-.266-1.909-.436-.006-.002-.011-.003-.017-.004-.351-.094-.703-.177-1.054-.249-.121-.025-.241-.042-.362-.064-.237-.043-.474-.086-.71-.118-.143-.02-.285-.031-.427-.046-.216-.023-.431-.046-.646-.06-.15-.01-.301-.012-.45-.017-.144-.005-.289-.016-.433-.016-.056,0-.111.007-.167.008-.224.003-.447.016-.67.03-.164.01-.327.018-.49.034-.231.024-.462.061-.693.098-.154.025-.309.043-.462.074-.255.05-.509.118-.762.185-.128.034-.257.06-.385.098-.382.115-.762.247-1.141.402-.366.149-.71.344-1.03.561-.157.1-.293.208-.406.326-.113.118-.203.247-.269.387-.066.141-.107.294-.123.463-.016.168-.006.351.031.552.275,1.488.446,3.011.721,4.499.107.579.328,1.082.641,1.492.187.244.404.458.656.629.135.092.279.172.432.241.179.08.374.138.576.184.143.032.288.062.442.076,1.019.097,2.038.172,3.058.226,1.02.054,2.042.089,3.066.106.036,0,.072.001.107.001.088,0,.17-.011.255-.016.091-.005.183-.006.271-.017.1-.012.193-.033.289-.052.082-.016.167-.029.247-.05.093-.025.178-.062.267-.094.074-.028.15-.051.221-.083.085-.04.162-.091.242-.138.065-.039.133-.072.194-.116.077-.056.146-.123.218-.187.055-.049.114-.092.165-.145.071-.074.132-.162.196-.246.043-.056.09-.106.13-.166.066-.101.123-.217.18-.331.028-.056.062-.105.088-.163.079-.178.148-.371.206-.577.218-.767.438-1.534.667-2.299.229-.766.467-1.53.718-2.291.026-.08.067-.155.117-.227.151-.216.39-.402.57-.609.229.275.584.515.687.836.447,1.351.846,2.712,1.235,4.073.049.172.101.344.15.517.058.207.127.399.206.577.027.061.061.111.09.168.057.112.112.226.177.326.041.062.089.112.132.169.063.083.124.169.194.243.052.054.111.097.166.147.071.063.14.131.217.186.061.044.129.077.194.116.08.048.157.099.242.138.07.033.147.056.221.083.088.033.174.069.267.094.079.021.164.034.247.05.095.019.189.041.288.052.087.01.18.012.271.017.085.005.167.016.255.016.035,0,.071,0,.107-.001,1.019-.017,2.041-.052,3.062-.106,1.022-.054,2.043-.129,3.062-.226.372-.034.713-.124,1.02-.261.614-.275,1.089-.744,1.396-1.351.154-.304.265-.642.331-1.008.275-1.5.447-3.01.721-4.499.037-.197.046-.379.03-.547-.017-.168-.059-.322-.126-.463Z"/><path class="cls-1" d="M36.827,41.296c-.631-.536-1.577-.46-2.115.17-.267.314-.69.546-1.21.699v-5.938c.807-.284,1.565-.794,2.193-1.525.297-.345.523-.689.677-1.031.154-.342.235-.684.234-1.017.001-.404-.122-.79-.351-1.118-.171-.247-.398-.463-.669-.646-.407-.276-.915-.482-1.513-.623-.598-.14-1.288-.214-2.063-.214-.693,0-1.32.059-1.874.172-.831.17-1.502.458-1.988.872-.242.207-.436.447-.569.715-.133.268-.202.564-.201.87,0,.328.078.666.226,1.002.148.337.367.676.654,1.016.5.592,1.087,1.042,1.719,1.342.17.081.349.123.524.182v5.961c-.519-.158-.942-.403-1.21-.718-.537-.63-1.482-.705-2.114-.169-.631.537-.706,1.484-.169,2.114,1.075,1.262,2.834,1.955,4.941,1.955h.092c2.122,0,3.881-.693,4.955-1.955.536-.631.461-1.578-.17-2.115Z"/><path class="cls-1" d="M10.047,49.174c.125-.367.25-.742.38-1.135-.129.391-.255.769-.38,1.135Z"/></svg>