<?xml version="1.0" encoding="UTF-8"?><svg id="Icons" xmlns="http://www.w3.org/2000/svg" viewBox="0 0 64 64"><defs><style>.cls-1{fill:#fff;}</style></defs><path class="cls-1" d="M45.808,6c1.584,0,2.873,1.289,2.873,2.873,0,.308-.052.62-.156.925l-.007.022c-.008.019-.015.037-.021.055-.031.082-.065.162-.107.249l-.05.109c-.047.088-.107.182-.183.291-.025.036-.052.071-.082.109-.063.081-.129.159-.198.231-.029.03-.059.058-.09.088-.073.07-.15.135-.241.205l-.088.066c-.108.076-.207.137-.304.188l-.089.042c-.094.046-.19.087-.287.121l-.076.03c-.037.01-.076.018-.114.026l-.124.028c-.049.011-.098.024-.169.043h-.01c-.038.005-.077.009-.105.012-.678.089-1.263.518-1.552,1.138s-.241,1.344.126,1.92c.221.346.428.733.653,1.217,1.653,3.559,2.194,11.141,2.484,15.215.049.692.093,1.3.134,1.798.005.064.013.13.021.197l.006.052c.189,2.079.609,4.485,1.248,7.154.598,2.498,1.392,5.257,2.36,8.2.011.039.024.077.038.115l.021.063.021.065c.154.492.853,2.982-.55,3.674-.024.012-.048.024-.072.037-4.834,2.63-12.394,5.441-19.114,5.441-6.756,0-14.306-2.808-19.12-5.437-.025-.014-.05-.026-.075-.039-1.554-.765-.509-3.773-.501-3.794.023-.062.043-.123.06-.186.958-2.917,1.745-5.656,2.34-8.141.639-2.668,1.059-5.075,1.249-7.156l.006-.051c.008-.066.015-.131.021-.195.041-.497.085-1.104.134-1.795.291-4.074.831-11.658,2.484-15.218.206-.444.422-.832.66-1.187.387-.577.448-1.313.159-1.945-.288-.632-.884-1.069-1.574-1.154-1.437-.178-2.521-1.394-2.521-2.823,0-.033.004-.066.007-.099l.009-.108.009-.083c.013-.13.029-.276.039-.322.004-.016.012-.049.016-.065.023-.097.052-.192.096-.317.032-.088.069-.174.125-.29.043-.087.091-.172.142-.253.006-.009.013-.021.021-.033.166-.255.37-.481.608-.673.004-.003.007-.006.011-.009.514-.41,1.132-.627,1.787-.627,1.584,0,2.873,1.289,2.873,2.873,0,.17-.027.367-.084.62-.161.705.071,1.441.607,1.926.374.339.854.518,1.344.518.212,0,.426-.034.633-.103,2.161-.721,5-1.087,8.438-1.087,3.456,0,6.293.348,8.432,1.034.2.064.406.096.611.096.488,0,.967-.178,1.34-.515.529-.477.764-1.2.618-1.897-.042-.199-.063-.398-.063-.588,0-.033.004-.066.007-.099l.009-.108.009-.083c.012-.124.027-.261.048-.356.003-.012.006-.024.008-.031.023-.097.052-.192.096-.316.032-.088.069-.174.125-.29.043-.087.091-.172.142-.253.006-.009.013-.021.021-.033.164-.252.366-.477.601-.667.006-.005.012-.01.019-.015.514-.41,1.132-.627,1.786-.627M45.808,4c-1.148,0-2.201.399-3.033,1.063h0s-.002.001-.003.002c-.416.333-.776.732-1.065,1.182-.005.007-.009.015-.013.022-.089.14-.17.284-.244.433-.009.017-.017.035-.025.053-.069.143-.131.289-.187.439-.007.019-.014.037-.021.056-.055.157-.103.318-.143.482-.002.01-.005.02-.008.03-.048.205-.073.417-.094.63-.004.048-.011.096-.014.144-.008.112-.019.222-.019.336,0,.344.038.68.106,1.004-2.135-.685-5.023-1.13-9.043-1.13s-6.915.47-9.071,1.19c.078-.344.134-.696.134-1.064,0-2.691-2.182-4.873-4.873-4.873-1.148,0-2.2.399-3.033,1.063,0,0,0,0,0,0,0,0,0,0,0,0h0s-.002.001-.003.002c-.416.333-.776.732-1.065,1.182-.005.007-.009.015-.013.022-.089.14-.17.284-.244.433-.009.017-.017.035-.025.053-.069.143-.131.289-.187.439-.007.019-.014.037-.021.056-.055.157-.103.318-.143.482-.002.01-.005.02-.008.03-.048.205-.073.417-.094.63-.004.048-.011.096-.014.144-.008.112-.019.222-.019.336,0,2.487,1.869,4.515,4.276,4.813-.336.5-.598.995-.814,1.459-2.091,4.503-2.496,14.068-2.797,17.689-.006.076-.019.157-.026.234-.197,2.153-.638,4.516-1.202,6.87-.686,2.862-1.542,5.694-2.332,8.094l.005-.005s-1.761,4.691,1.49,6.292c4.224,2.306,12.323,5.681,20.078,5.681,7.71,0,15.831-3.378,20.07-5.685,2.827-1.394,1.87-5.122,1.574-6.066-.016-.05-.033-.103-.05-.153-.015-.042-.024-.069-.024-.069l.003.003c-.79-2.4-1.646-5.23-2.331-8.091-.563-2.354-1.005-4.717-1.201-6.87-.007-.077-.019-.158-.026-.234-.302-3.621-.706-13.187-2.797-17.689-.214-.461-.464-.952-.781-1.449.023-.003.048-.002.071-.006.054-.008.108-.015.162-.025.083-.015.161-.041.243-.06.131-.03.263-.055.389-.096.048-.016.095-.035.143-.052.169-.06.334-.13.495-.208.05-.025.102-.047.151-.073.179-.095.351-.203.516-.319.057-.04.112-.082.167-.125.136-.104.266-.215.39-.333.051-.048.1-.096.149-.146.121-.125.233-.257.34-.394.048-.061.095-.123.14-.187.111-.158.215-.321.307-.491.034-.063.062-.13.094-.194.065-.133.123-.27.176-.41.018-.049.045-.094.062-.144-.004.003-.008.005-.012.008.167-.493.263-1.019.263-1.568,0-2.691-2.182-4.873-4.873-4.873h0Z"/><path class="cls-1" d="M46.128,17.532c-.332-.206-.675-.412-1.03-.561-2.907-1.19-5.895-1.156-8.871-.355-1.419.378-2.827.664-4.247.675-1.419,0-2.827-.298-4.247-.675-2.976-.801-5.964-.836-8.871.355-.366.149-.71.343-1.03.561-.63.401-.916.927-.767,1.728.275,1.488.446,3.011.721,4.499.275,1.477,1.259,2.484,2.747,2.621,2.038.195,4.075.298,6.124.332,1.637.034,2.805-.71,3.274-2.381.435-1.534.881-3.068,1.385-4.59.103-.32.446-.561.687-.836.229.275.584.515.687.836.504,1.522.95,3.056,1.385,4.59.469,1.671,1.637,2.415,3.274,2.381,2.038-.034,4.087-.137,6.124-.332,1.488-.137,2.484-1.156,2.747-2.621.275-1.5.446-3.011.721-4.499.149-.79-.149-1.328-.767-1.728h-.046Z"/><path class="cls-1" d="M23.633,18.042c1.13,0,2.334.17,3.586.507.681.181,1.427.365,2.218.504-.007.02-.014.04-.02.06-.524,1.583-.988,3.181-1.412,4.678-.198.707-.489.923-1.241.923h-.074c-2.109-.036-4.061-.142-5.974-.325-.237-.022-.793-.073-.964-.993-.131-.71-.237-1.425-.35-2.182-.101-.678-.204-1.378-.332-2.104.189-.12.372-.217.549-.288,1.282-.525,2.595-.78,4.013-.78M40.327,18.042h0c1.419,0,2.732.255,3.998.774.184.077.395.199.605.327-.125.702-.229,1.403-.33,2.084-.112.751-.217,1.46-.349,2.178-.163.91-.744.963-.969.984-1.878.179-3.886.288-5.976.323h-.065c-.752,0-1.042-.215-1.242-.927-.423-1.491-.886-3.09-1.405-4.656-.01-.03-.02-.059-.03-.088.804-.142,1.545-.324,2.183-.494,1.246-.336,2.451-.506,3.58-.506M40.327,16.042c-1.363,0-2.733.206-4.1.574-1.419.378-2.827.664-4.247.675-1.419,0-2.827-.298-4.247-.675-1.367-.368-2.737-.574-4.1-.574-1.604,0-3.199.286-4.771.929-.366.149-.71.343-1.03.561-.63.401-.916.927-.767,1.728.275,1.488.446,3.01.721,4.499.275,1.477,1.259,2.484,2.747,2.621,2.038.195,4.075.298,6.124.332.036,0,.072.001.107.001,1.581,0,2.708-.748,3.167-2.382.435-1.534.881-3.068,1.385-4.59.103-.321.447-.561.687-.836.229.275.584.515.687.836.504,1.522.95,3.056,1.385,4.59.459,1.634,1.586,2.382,3.167,2.382.035,0,.071,0,.107-.001,2.038-.034,4.087-.137,6.124-.332,1.488-.137,2.484-1.156,2.747-2.621.275-1.5.447-3.01.721-4.499.149-.79-.149-1.328-.767-1.728h-.046c-.332-.206-.675-.412-1.03-.561-1.572-.644-3.167-.929-4.771-.929h0Z"/><path class="cls-1" d="M38.545,32.876c-.244-.827-.57-1.543-.971-2.128-.529-.772-1.322-1.276-2.228-1.808-.681-.4-1.93-.648-3.261-.648-1.383,0-2.716.26-3.479.678-.796.436-1.611.954-2.175,1.777-.402.586-.728,1.302-.972,2.129-.369,1.254-.556,2.79-.556,4.565,0,3.162.113,4.348.862,6.113,1.53,3.603,5.329,3.788,6.075,3.789h.326c2.851-.002,4.903-1.3,6.104-3.857.792-1.686.832-2.87.832-6.045,0-1.774-.187-3.31-.556-4.565ZM36.997,43.411c-1.074,1.262-2.833,1.955-4.955,1.955h-.092c-2.107,0-3.866-.693-4.941-1.955-.537-.63-.462-1.577.169-2.114.631-.536,1.578-.461,2.114.169.267.314.691.559,1.21.717v-5.96c-.175-.059-.354-.101-.524-.182-.632-.3-1.219-.75-1.719-1.342-.287-.34-.506-.679-.654-1.016-.148-.337-.226-.674-.226-1.002,0-.305.069-.601.201-.87.132-.269.327-.509.569-.715.486-.414,1.157-.702,1.988-.872.554-.113,1.181-.172,1.874-.172.775,0,1.465.074,2.063.214.598.141,1.106.348,1.513.623.271.184.498.399.669.646.229.328.352.715.351,1.118,0,.333-.081.675-.234,1.017-.154.342-.38.686-.677,1.031-.628.731-1.386,1.241-2.193,1.525v5.938c.52-.153.943-.385,1.21-.699.538-.63,1.484-.706,2.115-.17.631.537.706,1.484.17,2.115Z"/></svg>