<?xml version="1.0" encoding="UTF-8"?><svg id="Icons" xmlns="http://www.w3.org/2000/svg" viewBox="0 0 64 64"><defs><style>.cls-1{fill:#fe7298;}.cls-2{fill:#fff;}.cls-3{fill:#8a033e;}.cls-4{fill:#e3066a;}</style></defs><path class="cls-1" d="M7.184,59.912c.185,0,.369-.016.551-.048,7.841-1.363,15.906-2.073,24.137-2.073s16.282.709,24.117,2.07c.196.034.394.051.592.051,1.888,0,3.419-1.531,3.419-3.419V8.356c0-2.657-2.436-4.643-5.057-4.208-7.505,1.244-15.212,1.892-23.071,1.892-7.772,0-15.396-.633-22.823-1.851-2.619-.429-5.049,1.556-5.049,4.21v48.33c0,1.758,1.425,3.184,3.184,3.184Z"/><path class="cls-2" d="M54.388,8.833c.59-.093,1.074.164,1.266.532.165.272.237.628.158,1.001-.372,1.772-.661,3.703-.843,5.731-.073.812-.945,1.285-1.506.694-.366-.385-.672-.826-.903-1.307-.483-.905-.759-1.52-1.779-2.108-.81-.468-2.169-.555-3.175-.613-.256-.01-.508-.027-.756-.052-.038-.004-.074-.007-.108-.011-1.378-.151-2.617-.531-3.605-1.089-.956-.54-.427-1.687.67-1.73,2.088-.081,4.303-.248,6.59-.507,1.366-.155,2.7-.336,3.99-.54Z"/><path class="cls-3" d="M48,34.581h-8.412l.833-5h7.579c1.381,0,2.5-1.119,2.5-2.5s-1.119-2.5-2.5-2.5h-6.745l1.179-7.074c.227-1.362-.693-2.65-2.055-2.877-1.359-.23-2.65.693-2.877,2.055l-1.316,7.896h-5.749l1.179-7.074c.227-1.362-.693-2.65-2.055-2.877-1.362-.23-2.65.693-2.877,2.055l-1.316,7.896h-9.369c-1.381,0-2.5,1.119-2.5,2.5s1.119,2.5,2.5,2.5h8.535l-.833,5h-7.702c-1.381,0-2.5,1.119-2.5,2.5s1.119,2.5,2.5,2.5h6.869l-1.152,6.912c-.227,1.362.693,2.65,2.055,2.877.139.023.277.034.414.034,1.2,0,2.259-.866,2.463-2.089l1.289-7.734h5.749l-1.152,6.912c-.227,1.362.693,2.65,2.055,2.877.139.023.277.034.414.034,1.2,0,2.259-.866,2.463-2.089l1.289-7.734h9.245c1.381,0,2.5-1.119,2.5-2.5s-1.119-2.5-2.5-2.5ZM28.771,34.581l.833-5h5.749l-.833,5h-5.749Z"/><path class="cls-4" d="M15.027,44.48c-7.942-8.782-9.488-17.308-11.027-25.407v37.655c0,1.758,1.426,3.184,3.184,3.184.185,0,.369-.016.551-.048,7.841-1.363,15.906-2.073,24.137-2.073,7.199,0,14.272.544,21.178,1.592-13.822-3.24-28.055-3.881-38.023-14.903Z"/></svg>