<?xml version="1.0" encoding="UTF-8"?><svg xmlns="http://www.w3.org/2000/svg" viewBox="0 0 64 64"><defs><style>.cls-1{fill:#fff;}</style></defs><g id="Background"><rect x="0" width="64" height="64"/></g><g id="Icons"><path class="cls-1" d="M55.666,6.088c1.287,0,2.333,1.018,2.333,2.268v48.137c0,.782-.636,1.419-1.419,1.419-.082,0-.167-.007-.25-.022-8.022-1.393-16.251-2.099-24.459-2.099s-16.451.707-24.48,2.103c-.069.012-.14.018-.208.018-.653,0-1.184-.531-1.184-1.184V8.399c0-1.251,1.047-2.268,2.333-2.268.13,0,.262.011.393.032,7.598,1.246,15.385,1.877,23.146,1.877,7.847,0,15.719-.646,23.398-1.919.132-.022.265-.033.396-.033h0M55.667,4.088c-.239,0-.48.019-.724.06-7.505,1.244-15.212,1.892-23.071,1.892-7.772,0-15.396-.633-22.823-1.851-.241-.039-.48-.059-.716-.059-2.329,0-4.333,1.858-4.333,4.268v48.33c0,1.758,1.425,3.184,3.184,3.184.185,0,.369-.016.551-.048,7.841-1.363,15.906-2.073,24.137-2.073s16.282.709,24.117,2.07c.196.034.394.051.592.051,1.888,0,3.419-1.531,3.419-3.419V8.356c0-2.41-2.005-4.268-4.333-4.268h0Z"/><path class="cls-1" d="M48,34.581h-8.412l.833-5h7.579c1.381,0,2.5-1.119,2.5-2.5s-1.119-2.5-2.5-2.5h-6.745l1.179-7.074c.227-1.362-.693-2.65-2.055-2.877-1.359-.23-2.65.693-2.877,2.055l-1.316,7.896h-5.749l1.179-7.074c.227-1.362-.693-2.65-2.055-2.877-1.362-.23-2.65.693-2.877,2.055l-1.316,7.896h-9.369c-1.381,0-2.5,1.119-2.5,2.5s1.119,2.5,2.5,2.5h8.535l-.833,5h-7.702c-1.381,0-2.5,1.119-2.5,2.5s1.119,2.5,2.5,2.5h6.869l-1.152,6.912c-.227,1.362.693,2.65,2.055,2.877.139.023.277.034.414.034,1.2,0,2.259-.866,2.463-2.089l1.289-7.734h5.749l-1.152,6.912c-.227,1.362.693,2.65,2.055,2.877.139.023.277.034.414.034,1.2,0,2.259-.866,2.463-2.089l1.289-7.734h9.245c1.381,0,2.5-1.119,2.5-2.5s-1.119-2.5-2.5-2.5ZM28.771,34.581l.833-5h5.749l-.833,5h-5.749Z"/></g></svg>