<?xml version="1.0" encoding="UTF-8"?><svg xmlns="http://www.w3.org/2000/svg" viewBox="0 0 64 64"><defs><style>.cls-1{fill:#fff;}</style></defs><g id="Background"><rect width="64" height="64"/></g><g id="Icons"><polygon class="cls-1" points="28.771 34.581 34.519 34.581 35.353 29.581 29.604 29.581 28.771 34.581"/><path class="cls-1" d="M54.943,4.148c-7.505,1.244-15.212,1.892-23.071,1.892-7.772,0-15.396-.633-22.823-1.851-2.619-.429-5.049,1.556-5.049,4.21v48.33c0,1.758,1.425,3.184,3.184,3.184.185,0,.369-.016.551-.048,7.841-1.363,15.906-2.073,24.137-2.073s16.282.709,24.117,2.07c.196.034.394.051.592.051,1.888,0,3.419-1.531,3.419-3.419V8.356c0-2.657-2.436-4.643-5.057-4.208ZM48,34.581c1.381,0,2.5,1.119,2.5,2.5s-1.119,2.5-2.5,2.5h-9.245l-1.289,7.734c-.204,1.223-1.263,2.089-2.463,2.089-.137,0-.275-.011-.414-.034-1.362-.227-2.282-1.515-2.055-2.877l1.152-6.912h-5.749l-1.289,7.734c-.204,1.223-1.263,2.089-2.463,2.089-.137,0-.275-.011-.414-.034-1.362-.227-2.282-1.515-2.055-2.877l1.152-6.912h-6.869c-1.381,0-2.5-1.119-2.5-2.5s1.119-2.5,2.5-2.5h7.702l.833-5h-8.535c-1.381,0-2.5-1.119-2.5-2.5s1.119-2.5,2.5-2.5h9.369l1.316-7.896c.227-1.361,1.515-2.285,2.877-2.055,1.362.227,2.282,1.515,2.055,2.877l-1.179,7.074h5.749l1.316-7.896c.227-1.361,1.518-2.285,2.877-2.055,1.362.227,2.282,1.515,2.055,2.877l-1.179,7.074h6.745c1.381,0,2.5,1.119,2.5,2.5s-1.119,2.5-2.5,2.5h-7.579l-.833,5h8.412Z"/></g></svg>