<?xml version="1.0" encoding="UTF-8"?><svg id="Icons" xmlns="http://www.w3.org/2000/svg" viewBox="0 0 64 64"><defs><style>.cls-1{fill:#fff;}</style></defs><path class="cls-1" d="M45.818,35.536c3.497-3.344,5.658-7.95,5.658-13.036,0-10.217-8.72-18.499-19.476-18.499S12.524,12.282,12.524,22.499c0,4.926,2.027,9.401,5.332,12.716,1.512,1.625,2.84,3.421,3.97,5.346.142-.026.288-.054.437-.054-1.345,0-2.435,1.1-2.435,2.444v3.276c0,.611.233,1.279.604,1.832-.372.427-.604.979-.604,1.59v3.046c0,1.345,1.09,2.435,2.435,2.435h2.85c1.002,2.837,3.708,4.869,6.888,4.869s5.885-2.032,6.888-4.869h2.85c1.345,0,2.435-1.09,2.435-2.435v-3.046c0-.611-.233-1.162-.604-1.59.371-.554.604-1.221.604-1.832v-3.276c0-1.345-1.09-2.435-2.435-2.435.138,0,.271.018.404.041,1.056-1.799,2.286-3.485,3.676-5.023ZM42.173,52.696c0,.24-.195.435-.435.435h-2.85c-.848,0-1.603.534-1.886,1.333-.748,2.115-2.758,3.536-5.002,3.536s-4.255-1.421-5.002-3.535c-.282-.799-1.038-1.334-1.886-1.334h-2.85c-.24,0-.435-.195-.435-.435v-3.046c0-.232.184-.418.413-.43.007,0,.014.003.021.003h19.476c.007,0,.014-.003.021-.003.229.012.413.198.413.43v3.046ZM42.173,42.953v3.276c0,.367-.297.857-.496.987h-19.354c-.199-.13-.496-.62-.496-.987v-3.276c0-.24.195-.435.435-.435h19.476c.24,0,.435.195.435.435ZM39.876,40.518h-6.043v-4.377c.032-.063.162-.188.323-.242.82-.277,1.68-.588,2.417-.995,1.817-1.002,2.198-2.282,2.198-3.181s-.381-2.178-2.198-3.18c-.894-.492-1.984-.854-3.082-1.217-.569-.189-1.348-.448-1.945-.705-.068-.029-.111-.096-.111-.171s.044-.142.16-.191c.586-.252,1.009-.435,4.992-1.844,1.688-.598,2.152-1.617,2.025-2.372-.13-.768-.843-1.287-1.775-1.292h-.009c-1.688,0-6.776,2.113-7.512,2.519-1.817,1.002-2.198,2.282-2.198,3.18s.381,2.178,2.198,3.18c.899.495,1.989.856,3.052,1.207.507.167,1.356.448,1.975.714.068.029.113.097.113.172,0,.074-.045.141-.113.171-.615.264-1.425.532-1.977.714l-.614.205c-.772.261-1.938.655-2.025,2.053v5.652h-5.628c-1.299-2.401-2.889-4.636-4.776-6.665-.016-.017-.032-.033-.048-.05-3.062-3.071-4.748-7.086-4.748-11.304,0-9.098,7.84-16.499,17.477-16.499s17.476,7.402,17.476,16.499c0,4.366-1.79,8.483-5.041,11.591-.035.034-.069.068-.101.104-1.751,1.937-3.233,4.058-4.459,6.324Z"/></svg>