<?xml version="1.0" encoding="UTF-8"?><svg id="Icons" xmlns="http://www.w3.org/2000/svg" viewBox="0 0 64 64"><defs><style>.cls-1{fill:#7f8ced;}.cls-2{fill:#2f2cb7;}.cls-3{fill:#fff;}.cls-4{fill:#321d71;}.cls-5{fill:#bec7f6;}.cls-6{fill:#bec7f6;}.cls-7{fill:#7f8ced;}</style></defs><circle class="cls-6" cx="32" cy="32" r="28"/><circle class="cls-3" cx="31.93" cy="11" r="4.2"/><path class="cls-3" d="M22.705,18.557c1.777-1.491,2.009-4.14.518-5.916-1.491-1.777-4.14-2.009-5.916-.518-1.777,1.491-2.009,4.14-.518,5.916,1.491,1.777,4.14,2.009,5.916.518Z"/><path class="cls-3" d="M12.932,30.466c2.285.403,4.463-1.123,4.865-3.406.403-2.285-1.123-4.463-3.406-4.865-2.285-.403-4.463,1.123-4.865,3.406-.403,2.285,1.123,4.463,3.406,4.865Z"/><path class="cls-3" d="M47.072,18.04c1.491-1.777,1.259-4.425-.518-5.916-1.777-1.491-4.425-1.259-5.916.518-1.491,1.777-1.259,4.425.518,5.916,1.777,1.491,4.425,1.259,5.916-.518Z"/><path class="cls-3" d="M46.064,27.059c.403,2.285,2.582,3.809,4.865,3.406,2.285-.403,3.809-2.582,3.406-4.865-.403-2.285-2.582-3.809-4.865-3.406-2.285.403-3.809,2.582-3.406,4.865Z"/><path class="cls-2" d="M52.487,50.589c-1.37-6.857-7.022-11.953-13.85-12.75,2.685-2.011,4.422-5.211,4.422-8.816,0-6.087-4.951-11.022-11.059-11.022s-11.059,4.935-11.059,11.022c0,3.605,1.737,6.806,4.422,8.817-4.402.515-8.307,2.824-10.899,6.232.234.295.224.305-.009.012-.051.067-.1.135-.15.203-.247.336-.481.683-.702,1.04-.068.109-.139.216-.204.327-.264.45-.508.914-.729,1.393-.046.101-.085.205-.129.307-.172.396-.328.801-.469,1.214-.05.147-.1.294-.146.443-.155.503-.294,1.015-.401,1.54-.003.013-.007.026-.01.039l-.081.406c.852.922,1.763,1.79,2.731,2.591.012.01.023.02.035.029.325.268.656.527.993.78.028.021.057.043.085.065.326.243.657.478.993.706.042.028.083.057.125.085.328.22.661.433.998.64.054.033.107.066.161.099.33.199.665.391,1.004.577.064.035.129.07.193.105.333.179.67.352,1.011.518.075.036.15.072.224.107.335.159.673.313,1.015.459.085.036.17.071.255.106.337.14.677.275,1.021.403.093.034.187.067.281.1.339.121.68.238,1.025.347.104.032.208.062.312.093.339.102.68.201,1.024.291.115.03.232.056.347.084.337.083.676.164,1.018.235.128.026.258.048.387.073.334.064.668.127,1.006.18.145.022.292.038.437.059.325.045.65.09.978.124.18.018.363.028.544.043.298.025.595.053.895.068.327.017.657.021.987.026.157.003.312.012.469.012.663,0,1.319-.03,1.97-.076.132-.009.264-.019.396-.03,1.336-.112,2.647-.316,3.923-.61.066-.015.131-.03.197-.045.601-.143,1.192-.312,1.778-.493.15-.046.3-.092.449-.141.545-.179,1.084-.371,1.614-.582.161-.064.319-.133.479-.2.415-.174.824-.357,1.228-.55.163-.077.327-.151.488-.231.464-.233.918-.481,1.367-.739.218-.125.433-.252.647-.382.325-.198.645-.404.961-.615,1.859-1.237,3.571-2.674,5.081-4.308l-.082-.409Z"/><path class="cls-4" d="M15.17,44.954c-.245-.287-.483-.577-.715-.871-.051.067-.1.135-.15.203-.247.336-.481.683-.702,1.04-.068.109-.139.216-.204.327-.264.45-.508.914-.729,1.393-.046.101-.085.205-.129.307-.172.396-.328.801-.469,1.214-.05.147-.1.294-.146.443-.155.503-.294,1.015-.401,1.54-.003.013-.007.026-.01.039l-.081.406c.852.922,1.763,1.79,2.731,2.591.012.01.023.02.035.029.325.268.656.527.993.78.028.021.057.043.085.065.326.243.657.478.993.706.042.028.083.057.125.085.328.22.661.433.998.64.054.033.107.066.161.099.33.199.665.391,1.004.577.064.035.129.07.193.105.333.179.67.352,1.011.518.075.036.15.072.224.107.335.159.673.313,1.015.459.085.036.17.071.255.106.337.14.677.275,1.021.403.093.034.187.067.281.1.339.121.68.238,1.025.347.104.032.208.062.312.093.339.102.68.201,1.024.291.115.03.232.056.347.084.337.083.676.164,1.018.235.128.026.258.048.387.073.334.064.668.127,1.006.18.145.022.292.038.437.059.325.045.65.09.978.124.18.018.363.028.544.043.298.025.595.053.895.068.327.017.657.021.987.026.157.003.312.012.469.012.663,0,1.319-.03,1.97-.076.132-.009.264-.019.396-.03,1.336-.112,2.647-.316,3.923-.61.066-.015.131-.03.197-.045,3.394-.807,6.55-2.229,9.339-4.147-11.854,2.853-24.533-.62-32.645-10.137Z"/><path class="cls-3" d="M40.476,27.905c-.039-.308-.095-.617-.171-.927-1.057-4.324-5.405-6.976-9.713-5.924-.661.162-.539,1.023.12,1.198,3.389.9,6.386,3.016,8.378,5.97.462.685,1.489.503,1.386-.317Z"/><path class="cls-5" d="M8.977,47.93c-.178-.256-.35-.517-.519-.78.169.263.341.523.519.78Z"/><path class="cls-5" d="M10.568,50.012c-.225-.268-.443-.542-.659-.818.215.276.433.55.659.818Z"/><path class="cls-5" d="M11.43,50.991c-.257-.278-.506-.563-.752-.851.246.288.495.573.752.851Z"/><path class="cls-5" d="M9.75,48.991c-.2-.261-.393-.527-.583-.795.191.268.384.534.583.795Z"/><polygon class="cls-7" points="11.433 50.994 11.434 50.994 11.43 50.991 11.433 50.994"/><path class="cls-7" d="M9.167,48.196c-.063-.089-.127-.177-.189-.266.062.09.126.178.189.266Z"/><path class="cls-7" d="M9.909,49.194c-.053-.068-.107-.135-.16-.203.052.068.107.135.16.203Z"/><path class="cls-7" d="M8.458,47.15c-.069-.106-.138-.212-.205-.319.067.107.136.213.205.319Z"/><path class="cls-7" d="M10.679,50.139c-.037-.043-.074-.085-.111-.128.036.043.074.085.111.128Z"/><path class="cls-1" d="M7.664,23.91c.029-2.389.312-4.805.851-7.163-1.766,2.712-3.069,5.77-3.811,9.022-.014.061-.029.122-.042.184-.14.633-.261,1.273-.357,1.921-.001.008-.002.015-.003.023,0,.006-.001.013-.002.019,0,0,0,0,0-.001-.087.593-.15,1.194-.199,1.799-.011.134-.022.269-.031.404,0,.003,0,.005,0,.008h0c0,.006,0,.013,0,.02-.04.613-.069,1.23-.069,1.854,0,.002,0,.004,0,.006,0,.002,0,.003,0,.005.003,7.328,2.824,13.994,7.433,18.983l.081-.404c.003-.014.008-.027.011-.041.106-.525.245-1.037.401-1.54.046-.149.096-.296.146-.443.141-.413.297-.818.469-1.214.044-.102.083-.206.129-.307.22-.479.465-.942.729-1.393.065-.111.136-.218.204-.327.221-.357.455-.703.702-1.04.05-.068.091-.144.143-.211.002.003.005.006.007.009.003-.004.006-.008.009-.012-4.658-5.879-6.886-12.993-6.799-20.161Z"/></svg>