<?xml version="1.0" encoding="UTF-8"?><svg id="Icons" xmlns="http://www.w3.org/2000/svg" viewBox="0 0 64 64"><defs><style>.cls-1{fill:#2f2cb7;}</style></defs><circle class="cls-1" cx="31.964" cy="12.564" r="3.7"/><path class="cls-1" d="M22.419,19.738c1.565-1.314,1.77-3.647.456-5.212-1.314-1.565-3.647-1.77-5.212-.456-1.565,1.314-1.77,3.647-.456,5.212,1.314,1.565,3.647,1.77,5.212.456Z"/><path class="cls-1" d="M13.053,31.537c2.013.355,3.932-.989,4.286-3.001.355-2.013-.989-3.932-3.001-4.286-2.013-.355-3.932.989-4.286,3.001-.355,2.013.989,3.932,3.001,4.286Z"/><path class="cls-1" d="M46.724,19.283c1.314-1.565,1.109-3.899-.456-5.212-1.565-1.314-3.899-1.109-5.212.456-1.314,1.565-1.109,3.899.456,5.212,1.565,1.314,3.899,1.109,5.212-.456Z"/><path class="cls-1" d="M46.591,28.536c.355,2.013,2.274,3.356,4.286,3.001,2.013-.355,3.356-2.274,3.001-4.286-.355-2.013-2.274-3.356-4.286-3.001-2.013.355-3.356,2.274-3.001,4.286Z"/><path class="cls-1" d="M59.965,32c0-15.464-12.536-28-28-28S3.965,16.536,3.965,32c0,7.951,3.319,15.122,8.641,20.219.073.07.147.141.221.211,5.007,4.692,11.734,7.571,19.138,7.571,7.522,0,14.345-2.972,19.376-7.798.014-.013.028-.026.041-.039,5.288-5.093,8.583-12.241,8.583-20.163ZM31.965,7c13.807,0,25,11.193,25,25,0,5.888-2.041,11.297-5.447,15.569-2.211-5.295-7.137-9.056-12.916-9.731,2.685-2.011,4.422-5.211,4.422-8.816,0-6.087-4.951-11.022-11.059-11.022s-11.059,4.935-11.059,11.022c0,3.605,1.737,6.806,4.422,8.817-4.402.515-8.307,2.824-10.899,6.232l-.009.012c-.051.067-.1.135-.15.203-.247.336-.481.683-.702,1.04-.068.109-.139.216-.204.327-.264.45-.508.914-.729,1.393-.046.101-.085.205-.129.307-.032.074-.056.151-.087.226-3.41-4.273-5.454-9.686-5.454-15.578,0-13.807,11.193-25,25-25Z"/></svg>