<?xml version="1.0" encoding="UTF-8"?><svg id="Icons" xmlns="http://www.w3.org/2000/svg" viewBox="0 0 64 64"><defs><style>.cls-1{fill:#fff;}.cls-2{fill:#bec7f6;}.cls-3{fill:#7f8ced;}</style></defs><path class="cls-1" d="M52.568,50.993c4.611-4.991,7.432-11.661,7.432-18.993,0-15.464-12.536-28-28-28S4,16.536,4,32c0,7.332,2.822,14.003,7.434,18.995h0s.005.006.008.008c.384.416.783.817,1.192,1.208.078.075.156.149.234.223.418.392.844.775,1.286,1.141.004.003.007.007.011.01.003.003.006.005.01.008.007.006.014.012.02.017.002.001.003.003.005.004.325.268.656.527.993.78.003.003.007.005.01.007.023.018.047.036.07.053.002.001.003.003.005.004.326.243.657.478.993.706.003.002.007.005.01.007.036.025.072.05.109.074.002.001.004.003.006.004.328.22.661.433.998.64l.008.005c.048.03.097.059.145.089.003.002.005.003.008.005.33.199.665.391,1.004.577.003.001.005.003.008.004.059.032.117.064.176.096.003.002.006.003.009.005.333.179.67.352,1.011.518.002.001.005.002.007.003.069.034.138.066.208.099.003.002.006.003.01.005.335.159.673.313,1.015.459.002,0,.005.002.007.003.078.033.157.065.236.098.004.002.008.003.012.005.337.14.677.275,1.021.403.002,0,.004.001.006.002.087.032.176.063.264.094.004.001.008.003.012.004.339.121.68.238,1.025.347.002,0,.004.001.006.002.096.03.194.058.291.087.005.002.01.003.015.005.339.102.68.201,1.024.291.002,0,.004,0,.006.002.106.028.213.051.32.078.007.002.014.003.021.005.337.083.676.164,1.018.235.002,0,.004,0,.006.001.118.024.238.044.356.067.008.002.016.003.024.005.334.064.668.127,1.006.18.002,0,.003,0,.005,0,.13.02.262.034.393.053.013.002.027.003.04.005.325.045.65.09.978.124.002,0,.004,0,.005,0,.157.016.316.024.474.038.022.002.043.003.065.005.298.025.595.053.895.068.002,0,.004,0,.005,0,.258.013.519.015.779.021.068.001.135.004.203.005.157.003.312.012.469.012.001,0,.003,0,.004,0,.002,0,.004,0,.006,0,.658,0,1.308-.031,1.955-.076.002,0,.004,0,.006,0,.132-.009.264-.019.396-.03.002,0,.004,0,.006,0,1.333-.111,2.638-.316,3.911-.608.002,0,.004,0,.006-.001.066-.015.131-.03.197-.045.002,0,.004-.001.005-.002,4.885-1.159,9.273-3.595,12.794-6.94.077-.073.155-.146.231-.22.293-.284.578-.576.859-.873.066-.07.138-.136.203-.207v-.005ZM32,6c14.336,0,26,11.664,26,26,0,6.327-2.274,12.131-6.044,16.643-1.963-5.857-7.156-10.085-13.319-10.805,2.685-2.011,4.422-5.211,4.422-8.816,0-6.087-4.951-11.022-11.059-11.022s-11.059,4.935-11.059,11.022c0,3.605,1.737,6.806,4.422,8.817-4.402.515-8.307,2.824-10.899,6.232-.054.07-.109.147-.159.215-.247.336-.481.683-.702,1.04-.068.109-.139.216-.204.327-.264.45-.508.914-.729,1.393-.046.101-.085.205-.129.307-.172.396-.328.801-.469,1.214-.009.026-.017.053-.026.079-3.771-4.513-6.046-10.318-6.046-16.646,0-14.336,11.664-26,26-26ZM50.121,50.619c-.52.503-1.054.997-1.625,1.462-.011.009-.022.017-.033.026-.663.539-1.359,1.052-2.086,1.536-.294.196-.591.387-.891.57-.196.119-.392.236-.593.35-.006.003-.011.006-.017.01-.306.175-.584.327-.853.468-.167.087-.334.174-.502.258-.055.026-.109.052-.164.078l-.196.092c-.375.179-.755.349-1.139.51l-.17.072c-.073.031-.146.062-.22.092-.03.012-.059.023-.089.035-.459.181-.95.359-1.462.527-.118.038-.236.075-.354.111l-.064.02c-.586.181-1.076.317-1.539.43-.122.03-.245.057-.367.085-1.155.262-2.353.449-3.564.551-.125.01-.25.02-.375.029-.291.02-.56.034-.824.046-.319.012-.638.024-.959.024-.012,0-.027,0-.039,0-.111,0-.22-.007-.33-.008l-.112-.003h-.029c-.11-.003-.22-.005-.33-.009-.183-.003-.367-.006-.548-.015-.371-.019-.74-.05-1.107-.084-.072-.005-.144-.011-.215-.018-.396-.041-.789-.092-1.18-.15-.039-.005-.077-.01-.115-.016-.423-.065-.844-.14-1.26-.226h-.003c-5.075-1.042-9.616-3.567-13.148-7.101.062-.243.134-.498.219-.772.04-.129.083-.256.128-.386.124-.364.262-.721.41-1.061l.072-.172.04-.097c.186-.403.4-.813.637-1.217.029-.049.06-.097.091-.146l.088-.14c.194-.314.401-.619.613-.909l.048-.066.091-.123c2.302-3.028,5.779-5.017,9.539-5.456.813-.095,1.486-.676,1.699-1.466.213-.79-.077-1.631-.732-2.121-2.301-1.723-3.621-4.354-3.621-7.216,0-4.975,4.064-9.022,9.059-9.022s9.059,4.047,9.059,9.022c0,2.862-1.32,5.492-3.621,7.216-.655.491-.945,1.331-.732,2.121.213.79.886,1.371,1.699,1.466,5.847.683,10.588,4.883,11.983,10.539-.087.087-.178.169-.266.255Z"/><path class="cls-2" d="M8.977,47.93c-.178-.256-.35-.517-.519-.78.169.263.341.523.519.78Z"/><path class="cls-2" d="M10.568,50.012c-.225-.268-.443-.542-.659-.818.215.276.433.55.659.818Z"/><path class="cls-2" d="M11.43,50.991c-.257-.278-.506-.563-.752-.851.246.288.495.573.752.851Z"/><path class="cls-2" d="M9.75,48.991c-.2-.261-.393-.527-.583-.795.191.268.384.534.583.795Z"/><polygon class="cls-3" points="11.433 50.994 11.434 50.994 11.43 50.991 11.433 50.994"/><path class="cls-3" d="M9.167,48.196c-.063-.089-.127-.177-.189-.266.062.09.126.178.189.266Z"/><path class="cls-3" d="M9.909,49.194c-.053-.068-.107-.135-.16-.203.052.068.107.135.16.203Z"/><path class="cls-3" d="M8.458,47.15c-.069-.106-.138-.212-.205-.319.067.107.136.213.205.319Z"/><path class="cls-3" d="M10.679,50.139c-.037-.043-.074-.085-.111-.128.036.043.074.085.111.128Z"/><path class="cls-1" d="M31.964,10.246c.937,0,1.7.763,1.7,1.7s-.763,1.7-1.7,1.7-1.7-.763-1.7-1.7.763-1.7,1.7-1.7M31.964,8.246c-2.044,0-3.7,1.656-3.7,3.7s1.656,3.7,3.7,3.7,3.7-1.656,3.7-3.7-1.656-3.7-3.7-3.7h0Z"/><path class="cls-1" d="M20.038,14.586c.505,0,.981.221,1.305.608.602.718.508,1.792-.21,2.395-.392.329-.809.398-1.09.398-.505,0-.981-.221-1.305-.608-.602-.718-.508-1.792.21-2.395.392-.329.809-.398,1.09-.398M20.038,12.586c-.839,0-1.683.284-2.376.866-1.565,1.314-1.77,3.647-.456,5.212.732.872,1.781,1.322,2.837,1.322.839,0,1.683-.284,2.376-.866,1.565-1.314,1.77-3.647.456-5.212-.732-.872-1.781-1.322-2.837-1.322h0Z"/><path class="cls-1" d="M13.691,25.576c.099,0,.2.009.301.027.447.079.836.327,1.096.698.26.372.36.823.281,1.271-.143.814-.845,1.404-1.669,1.404-.099,0-.2-.009-.301-.027-.447-.079-.836-.327-1.096-.698-.26-.372-.36-.823-.281-1.271.143-.814.845-1.404,1.669-1.404M13.691,23.576c-1.762,0-3.323,1.263-3.638,3.057-.355,2.013.989,3.932,3.001,4.286.217.038.434.057.647.057,1.762,0,3.323-1.263,3.638-3.057.355-2.013-.989-3.932-3.001-4.286-.217-.038-.434-.057-.647-.057h0Z"/><path class="cls-1" d="M43.892,14.587c.281,0,.699.069,1.09.398.718.603.812,1.677.21,2.395-.324.386-.8.608-1.305.608-.281,0-.699-.069-1.09-.398-.348-.292-.561-.702-.601-1.154-.04-.452.099-.893.391-1.24.324-.386.8-.608,1.305-.608M43.892,12.587c-1.056,0-2.105.45-2.837,1.322-1.314,1.565-1.109,3.899.456,5.213.693.582,1.537.866,2.376.866,1.056,0,2.105-.45,2.837-1.322,1.314-1.565,1.109-3.899-.456-5.212-.693-.582-1.537-.866-2.376-.866h0Z"/><path class="cls-1" d="M50.239,25.576c.823,0,1.525.591,1.669,1.405.079.447-.021.897-.281,1.269-.26.372-.65.62-1.097.699-.1.018-.2.026-.3.026-.823,0-1.525-.591-1.669-1.405-.079-.447.021-.897.281-1.269.26-.372.65-.62,1.098-.699.1-.018.2-.026.3-.026M50.239,23.576c-.214,0-.43.019-.647.057-2.013.355-3.356,2.274-3,4.286.317,1.795,1.878,3.057,3.638,3.057.214,0,.43-.019.647-.057,2.013-.355,3.356-2.274,3-4.286-.317-1.795-1.878-3.057-3.638-3.057h0Z"/></svg>