<?xml version="1.0" encoding="UTF-8"?><svg id="Icons" xmlns="http://www.w3.org/2000/svg" xmlns:xlink="http://www.w3.org/1999/xlink" viewBox="0 0 64 64"><defs><style>.cls-1{fill:#00628b;}.cls-2{fill:#009cdb;}.cls-3{fill:#001e5b;}.cls-4{fill:#fff;}.cls-5{fill:#05628a;}.cls-6{fill:#0d9dda;}.cls-7{fill:#002961;}.cls-8{clip-path:url(#clippath);}</style><clipPath id="clippath"><path class="cls-6" d="M19.297,25.954h4.582c6.046,0,10.955,4.909,10.955,10.955v12.136c0,6.046-4.909,10.955-10.955,10.955h-4.585c-6.045,0-10.954-4.908-10.954-10.954v-12.135c0-6.047,4.909-10.957,10.957-10.957Z"/></clipPath></defs><path class="cls-3" d="M21.588,29.976c-1.38,0-2.497-1.119-2.497-2.497v-3.64c0-1.24.526-2.447,1.447-3.307.102-.096.211-.182.327-.259l2.649-1.757c.228-.152.238-.281.217-.39-.024-.117-.12-.325-.505-.401l-3.611-.707c-2.438-.478-4.264-2.227-4.766-4.569-.488-2.27.417-4.534,2.359-5.91l2.937-2.079c1.126-.796,2.685-.531,3.482.595.796,1.126.529,2.685-.597,3.481l-2.937,2.08c-.304.216-.426.482-.361.787.037.172.193.588.842.716l3.611.707c2.266.443,4.01,2.143,4.444,4.328.429,2.161-.475,4.278-2.355,5.526l-2.19,1.453v3.349c0,1.378-1.117,2.497-2.497,2.497"/><path class="cls-6" d="M19.297,25.954h4.582c6.046,0,10.955,4.909,10.955,10.955v12.136c0,6.046-4.909,10.955-10.955,10.955h-4.585c-6.045,0-10.954-4.908-10.954-10.954v-12.135c0-6.047,4.909-10.957,10.957-10.957Z"/><g class="cls-8"><path class="cls-6" d="M23.879,60.001h-4.582c-6.05,0-10.955-4.905-10.955-10.955v-12.137c0-6.05,4.905-10.955,10.955-10.955h4.582c6.05,0,10.955,4.905,10.955,10.955v12.137c0,6.05-4.905,10.955-10.955,10.955"/></g><path class="cls-5" d="M8.341,36.908v12.135c0,6.05,4.906,10.957,10.955,10.957h4.582c2.646,0,5.071-.938,6.964-2.498-22.501,2.498-22.501-17.384-22.501-20.594"/><path class="cls-4" d="M26.317,28.735c3.019-.341,5.744,1.84,6.086,4.87.047.426.047.845,0,1.253-.078.688-.949.654-1.253.03-1.068-2.198-2.901-3.921-5.114-4.854-.635-.271-.718-1.136-.037-1.255.105-.017.212-.033.318-.044"/><path class="cls-3" d="M21.623,39.84c-.966,0-1.75-.784-1.75-1.75v-4.759c0-.966.784-1.75,1.75-1.75s1.75.784,1.75,1.75v4.759c0,.966-.784,1.75-1.75,1.75Z"/><path class="cls-2" d="M41.772,15.016v37.512c-.303,4.034,2.888,7.472,6.932,7.472s7.237-3.438,6.935-7.472V15.016c.201-2.698-5.243-10.952-6.935-10.952s-7.135,8.255-6.932,10.952"/><path class="cls-4" d="M53.654,23.09c-.301-.08-.622.183-.789.938-1.418,6.412-1.47,13.618-.178,20.173.159.805.498,1.087.812.993.301.08.469-22.199.155-22.104"/><path class="cls-1" d="M44.986,52.539V14.146c0-1.608.295-3.2.895-4.692.711-1.767,1.702-3.722,2.704-5.359-1.804.332-7.01,8.28-6.812,10.921v37.512c-.302,4.034,2.888,7.472,6.932,7.472.168,0,.333-.015.498-.026-2.652-1.212-4.447-4.136-4.217-7.435Z"/><path class="cls-3" d="M41.772,48.469v3.553c2.162.429,4.347.656,6.557.656,2.411,0,4.85-.268,7.311-.778v-3.555c-4.754,1.104-9.355,1.141-13.868.124Z"/><path class="cls-3" d="M41.772,15.407v3.553c2.162.429,4.347.656,6.556.656,2.411,0,4.851-.268,7.312-.779v-3.555c-4.754,1.104-9.356,1.141-13.868.124Z"/><path class="cls-7" d="M46.354,6.007c.656.038,1.314.058,1.975.058.889,0,1.782-.048,2.678-.117-.936-1.125-1.791-1.884-2.302-1.884-.519,0-1.395.784-2.351,1.943Z"/></svg>