<?xml version="1.0" encoding="UTF-8"?><svg id="Icons" xmlns="http://www.w3.org/2000/svg" viewBox="0 0 64 64"><defs><style>.cls-1{fill:#001e5b;}</style></defs><path class="cls-1" d="M24.084,25.964v-1.833l2.19-1.453c1.88-1.248,2.784-3.364,2.355-5.526-.435-2.186-2.178-3.885-4.444-4.328l-3.611-.707c-.648-.127-.804-.543-.842-.716-.064-.305.057-.571.361-.787l2.937-2.08c1.126-.796,1.393-2.355.597-3.481-.797-1.126-2.356-1.391-3.482-.595l-2.937,2.079c-1.942,1.375-2.847,3.64-2.359,5.91.502,2.342,2.327,4.092,4.766,4.569l3.611.707c.385.076.48.284.505.401.021.109.011.238-.217.39l-2.649,1.757c-.116.077-.225.164-.327.259-.921.861-1.447,2.067-1.447,3.307v2.125c-5.955.111-10.75,4.964-10.75,10.945v12.137c0,6.051,4.905,10.955,10.955,10.955h4.582c6.051,0,10.955-4.905,10.955-10.955v-12.137c0-5.981-4.795-10.834-10.749-10.945ZM32.833,49.045c0,4.938-4.017,8.955-8.955,8.955h-4.582c-4.938,0-8.955-4.017-8.955-8.955v-12.137c0-4.938,4.017-8.955,8.955-8.955h4.574c.05.026.09.029.122.006,4.885.062,8.841,4.05,8.841,8.949v12.137Z"/><path class="cls-1" d="M21.623,39.839c-.966,0-1.75-.784-1.75-1.75v-4.759c0-.966.784-1.75,1.75-1.75s1.75.784,1.75,1.75v4.759c0,.966-.784,1.75-1.75,1.75Z"/><path class="cls-1" d="M55.64,52.528V15.016c.201-2.698-5.243-10.952-6.936-10.952s-7.135,8.255-6.932,10.952v.391h0v3.553h0v29.509s0,0,0,0v3.553s0,0,0,0v.506c-.302,4.034,2.888,7.472,6.932,7.472s7.237-3.438,6.936-7.472ZM43.766,14.87c-.066-1.544,3.26-6.899,4.938-8.513,1.679,1.614,5.006,6.969,4.94,8.511-.004.049-.006.099-.006.148v.665c-3.354.572-6.636.603-9.868.1v-.765c0-.05-.002-.097-.005-.146ZM43.772,19.291c1.508.209,3.026.326,4.556.326,1.756,0,3.528-.146,5.312-.42v29.547c-3.354.572-6.636.602-9.868.099v-29.552ZM52.336,56.416c-.948,1.021-2.238,1.584-3.632,1.584s-2.683-.562-3.63-1.584c-.948-1.021-1.412-2.349-1.308-3.739.004-.05.006-.1.006-.15v-.176c1.508.209,3.026.326,4.556.326,1.756,0,3.528-.146,5.312-.42v.27c0,.05.002.099.006.149.104,1.39-.361,2.718-1.309,3.739Z"/></svg>