<?xml version="1.0" encoding="UTF-8"?><svg id="Icons" xmlns="http://www.w3.org/2000/svg" viewBox="0 0 64 64"><defs><style>.cls-1{fill:#fff;}</style></defs><circle class="cls-1" cx="31.928" cy="12.157" r="3.033"/><path class="cls-1" d="M16.66,56.76c.186.049.349.064.502.065.011,0,.021,0,.031,0,.048,0,.096-.004.142-.01.056-.006.11-.012.162-.024.005-.001.01-.003.015-.005.521-.13.827-.559,1.042-1.066.03-.066.061-.133.086-.2l4.971-13.24h16.924l4.863,13.178c.26.715.64,1.366,1.475,1.366.157,0,.33-.023.521-.073l.93-.359,1.261,3.259c.384.991,1.33,1.599,2.333,1.599.3,0,.604-.054.9-.169,1.288-.498,1.929-1.945,1.431-3.233l-1.226-3.169-2.97,1.045,3.945-1.389c.978-.475,1.006-1.208.789-1.948-.025-.123-.056-.244-.098-.357l-3.598-9.749h5.288c1.381,0,2.5-1.119,2.5-2.5s-1.119-2.5-2.5-2.5h-7.133l-8.296-22.477c.246-.84.384-1.727.384-2.647,0-5.195-4.211-9.407-9.407-9.407s-9.407,4.212-9.407,9.407c0,1.029.171,2.017.477,2.944,0,0,0-.001,0-.002l-8.363,22.661.177-.479h-7.19c-1.381,0-2.5,1.119-2.5,2.5s1.119,2.5,2.5,2.5h5.345l-3.601,9.757c-.01.026-.014.055-.022.082-.107.302-.182.616-.181.917-.009.505.203.971.894,1.306l.904.318-1.232,3.186c-.498,1.288.143,2.735,1.431,3.233.296.115.601.169.9.169,1.003,0,1.949-.607,2.333-1.599l1.268-3.279M31.928,4.75c4.084,0,7.407,3.323,7.407,7.407s-3.323,7.407-7.407,7.407-7.407-3.323-7.407-7.407,3.323-7.407,7.407-7.407ZM16.821,54.678l-1.932-.746-.303-.114-3.316-1.167s0-.002,0-.003l12.955-35.101s0,0,0,0c1.231,1.756,3.045,3.067,5.163,3.66l-12.567,33.471ZM25.489,37.281l-.277.738,6.188-16.482c.176.01.349.027.527.027.318,0,.633-.017.943-.048l5.818,15.765h-13.201ZM49.39,53.837l-.029.01-.028.011-2.095.809-12.39-33.573c2.029-.663,3.754-1.993,4.914-3.735l13.022,35.282-3.394,1.195Z"/></svg>