<?xml version="1.0" encoding="UTF-8"?><svg id="Icons" xmlns="http://www.w3.org/2000/svg" viewBox="0 0 64 64"><defs><style>.cls-1{fill:#001e5b;}.cls-2{fill:#fff;}.cls-3{fill:#05628a;}.cls-4{fill:#0d9dda;}</style></defs><path class="cls-2" d="M30.863,4.731c3.601-1.123,7.348,1.201,8.37,5.193.073.285.13.571.172.857.111.76-.749.964-1.159.341-1.71-3.153-3.284-4.767-7.245-5.28-.56-.141-.69-.939-.137-1.111Z"/><path class="cls-1" d="M56.38,37.281h-21.924c-.209-1.169-1.226-2.057-2.455-2.057s-2.246.888-2.456,2.057H7.621c-1.381,0-2.5,1.119-2.5,2.5s1.119,2.5,2.5,2.5h21.924c.21,1.168,1.227,2.056,2.456,2.056s2.245-.888,2.455-2.056h21.924c1.381,0,2.5-1.119,2.5-2.5s-1.119-2.5-2.5-2.5Z"/><path class="cls-1" d="M12.058,61.25c-.3,0-.604-.054-.9-.169-1.288-.498-1.929-1.945-1.431-3.233l3.004-7.768c.498-1.287,1.948-1.928,3.233-1.43,1.288.498,1.929,1.945,1.431,3.233l-3.004,7.768c-.384.991-1.33,1.599-2.333,1.599Z"/><path class="cls-1" d="M51.918,61.25c-1.003,0-1.949-.607-2.333-1.599l-3.004-7.768c-.498-1.288.143-2.735,1.431-3.233,1.286-.5,2.734.142,3.233,1.43l3.004,7.768c.498,1.288-.143,2.735-1.431,3.233-.296.115-.601.169-.9.169Z"/><path class="cls-4" d="M54.787,52.387c-.025-.123-.056-.244-.098-.357l-15.538-42.1s-4.327,1.623-7.104,2.643l-6.688-2.643-.185.382-.272-.374-15.538,42.1c-.01.026-.014.056-.022.082-.107.302-.181.616-.18.917-.009.505.203.971.893,1.306l3.867,1.361.261.098,2.476.957c.186.049.349.064.502.065.059.002.116-.002.173-.01.056-.006.111-.012.162-.024.005-.001.01-.003.015-.005.521-.13.827-.559,1.042-1.066.03-.066.061-.133.087-.2l13.506-35.97,13.253,35.908c.308.849.787,1.608,1.995,1.293l2.66-1.028,3.945-1.389c.977-.475,1.006-1.208.788-1.948Z"/><path class="cls-3" d="M24.903,9.938l-15.538,42.1c-.01.026-.014.056-.022.082-.107.302-.181.616-.18.917-.009.505.203.971.893,1.306l3.867,1.361.261.098,2.476.957c.186.049.349.064.502.065.059.002.116-.002.173-.01.056-.006.111-.012.162-.024.005-.001.01-.003.015-.005.521-.13.827-.559,1.042-1.066.03-.066.061-.133.087-.2l13.506-35.97-7.244-9.613Z"/><circle class="cls-1" cx="31.928" cy="12.157" r="9.407"/><circle class="cls-4" cx="31.928" cy="12.157" r="3.033"/></svg>