<?xml version="1.0" encoding="UTF-8"?><svg id="Icons" xmlns="http://www.w3.org/2000/svg" viewBox="0 0 64 64"><defs><style>.cls-1{fill:#fff;}</style></defs><path class="cls-1" d="M55.699,6.088c1.286,0,2.333,1.018,2.333,2.268v48.136c0,.782-.636,1.419-1.419,1.419-.082,0-.167-.007-.25-.022-8.022-1.393-16.251-2.099-24.459-2.099s-16.451.707-24.48,2.103c-.069.012-.14.018-.209.018-.653,0-1.183-.531-1.183-1.184V8.399c0-1.251,1.047-2.268,2.333-2.268.13,0,.262.011.393.032,7.597,1.246,15.385,1.877,23.146,1.877,7.847,0,15.719-.646,23.398-1.919.132-.022.265-.033.397-.033M55.699,4.088c-.239,0-.48.019-.724.06-7.505,1.244-15.212,1.892-23.071,1.892-7.772,0-15.396-.633-22.823-1.851-.241-.039-.48-.059-.716-.059-2.329,0-4.333,1.858-4.333,4.268v48.33c0,1.758,1.425,3.184,3.183,3.184.185,0,.369-.016.552-.048,7.841-1.363,15.906-2.073,24.137-2.073s16.282.709,24.117,2.07c.196.034.394.051.592.051,1.888,0,3.419-1.531,3.419-3.419V8.357c0-2.41-2.005-4.268-4.333-4.268h0Z"/><path class="cls-1" d="M45.905,25.146c-.598-3.331-3.245-8.967-9.138-11.102-3.5-1.224-6.98-1.206-10.443,0-1.715.682-3.269,1.673-4.503,2.989-4.526,4.783-4.014,12.298-4.014,12.64,0,.939.769,1.623,1.708,1.537.939,0,1.623-.769,1.537-1.708,0-.085-.342-6.491,3.16-10.248,1.793-1.879,4.356-2.818,7.516-2.818,9.138,0,10.932,9.053,11.017,9.394v.171c.085.342,2.05,7.601-3.16,15.714-.427.683-.256,1.708.512,2.22.256.171.512.256.854.256.512,0,1.025-.256,1.366-.769,5.807-8.967,3.843-17.251,3.587-18.276Z"/><path class="cls-1" d="M19.516,37.358c2.733-.171,7.857-1.793,7.857-6.918v-3.245c.085-.427.342-4.356,4.356-4.356,4.185,0,4.868,4.099,4.953,4.526.171.854.939,1.452,1.879,1.366.854-.171,1.452-1.025,1.366-1.879-.342-2.562-2.477-7.345-8.113-7.345-5.807,0-7.516,4.953-7.601,7.601v3.245c0,3.245-4.612,3.587-4.783,3.587-.939.085-1.623.854-1.623,1.879,0,.854.769,1.537,1.623,1.537h.085Z"/><path class="cls-1" d="M36.255,46.326l-1.727,1.788c-.598.598-.598,1.708,0,2.306.598.598,1.708.598,2.306,0l1.727-1.788c.598-.598.598-1.708,0-2.306s-1.708-.598-2.306,0Z"/><path class="cls-1" d="M17.807,42.226c.085.854.769,1.452,1.623,1.452h.171l1.708-.171c4.27-.598,7.601-2.306,9.736-5.21,3.502-4.782,2.562-10.932,2.477-11.188-.171-.939-1.025-1.537-1.879-1.366-.94.171-1.537,1.025-1.366,1.879,0,.085.854,5.039-1.879,8.711-1.623,2.135-4.099,3.416-7.516,3.843l-1.708.171c-.854.085-1.537.939-1.366,1.879Z"/><path class="cls-1" d="M39.927,33.174c.171-.854-.427-1.793-1.281-1.964-.854-.171-1.794.427-1.964,1.281-1.452,6.661-5.124,9.736-5.124,9.736q-.085.085-.171.171c-.171.171-4.099,4.185-11.956,4.27-.939,0-1.623.683-1.623,1.623s.683,1.623,1.623,1.623c8.797-.085,13.579-4.612,14.262-5.295.683-.598,4.612-4.185,6.234-11.444Z"/></svg>