<?xml version="1.0" encoding="UTF-8"?><svg id="Icons" xmlns="http://www.w3.org/2000/svg" viewBox="0 0 64 64"><defs><style>.cls-1{fill:#fff;}</style></defs><path class="cls-1" d="M54.975,4.148c-7.505,1.244-15.212,1.892-23.071,1.892-7.772,0-15.396-.633-22.823-1.851-2.619-.429-5.049,1.556-5.049,4.21v48.33c0,1.758,1.425,3.184,3.184,3.184.185,0,.369-.016.551-.048,7.841-1.363,15.906-2.073,24.137-2.073s16.282.709,24.117,2.07c.196.034.394.051.592.051,1.888,0,3.419-1.531,3.419-3.419V8.357c0-2.657-2.436-4.643-5.057-4.208ZM19.174,40.348l1.708-.171c3.416-.427,5.893-1.708,7.516-3.843,2.733-3.672,1.879-8.626,1.879-8.711-.171-.854.427-1.708,1.366-1.879.854-.171,1.708.427,1.879,1.366.085.256,1.025,6.405-2.477,11.188-2.135,2.904-5.466,4.612-9.736,5.21l-1.708.171h-.171c-.854,0-1.537-.598-1.623-1.452-.171-.939.512-1.793,1.366-1.879ZM17.807,35.821c0-1.025.683-1.794,1.623-1.879.171,0,4.783-.342,4.783-3.587v-3.245c.085-2.648,1.793-7.601,7.601-7.601,5.637,0,7.772,4.783,8.114,7.345.085.854-.513,1.708-1.367,1.879-.939.085-1.708-.512-1.879-1.366-.085-.427-.769-4.526-4.953-4.526-4.014,0-4.27,3.929-4.356,4.356v3.245c0,5.124-5.124,6.747-7.857,6.918h-.085c-.854,0-1.623-.683-1.623-1.537ZM19.43,49.913c-.939,0-1.623-.683-1.623-1.623s.683-1.623,1.623-1.623c7.857-.085,11.786-4.099,11.957-4.27q.085-.085.171-.171s3.672-3.075,5.124-9.736c.171-.854,1.11-1.452,1.964-1.281.854.171,1.452,1.11,1.281,1.964-1.623,7.259-5.551,10.846-6.235,11.444-.683.683-5.466,5.21-14.262,5.295ZM38.56,48.632l-1.727,1.788c-.598.598-1.708.598-2.306,0-.598-.598-.598-1.708,0-2.306l1.727-1.788c.598-.598,1.708-.598,2.306,0,.598.598.598,1.708,0,2.306ZM42.318,43.422c-.342.512-.854.769-1.366.769-.342,0-.598-.085-.854-.256-.769-.512-.939-1.537-.512-2.22,5.21-8.113,3.245-15.373,3.16-15.714v-.171c-.085-.342-1.879-9.394-11.017-9.394-3.16,0-5.722.939-7.516,2.818-3.501,3.758-3.16,10.163-3.16,10.248.085.939-.598,1.708-1.537,1.708-.939.085-1.708-.598-1.708-1.537,0-.342-.512-7.857,4.014-12.64,1.234-1.316,2.788-2.307,4.503-2.989,3.462-1.206,6.943-1.224,10.442,0,5.893,2.135,8.541,7.772,9.138,11.102.256,1.025,2.221,9.309-3.587,18.276Z"/></svg>