<?xml version="1.0" encoding="UTF-8"?><svg id="Icons" xmlns="http://www.w3.org/2000/svg" viewBox="0 0 64 64"><defs><style>.cls-1{fill:#7f8ced;}.cls-2{fill:#2f2cb7;}.cls-3{fill:#fff;}</style></defs><path class="cls-1" d="M54.421,29.2l-13.168.008s3.157-5.515,5.666-10.449c1.368-2.689,3.083-6.832,4.361-10.045.905-2.275-.783-4.715-3.232-4.715h-23.236c-2.404,0-4.529,1.536-5.377,3.785,0,0-7.04,18.133-4.006,29.902h8.119l-2.371,7.908c3.965,2.39,9.661,3.369,15.382,1.251l-.302.513c6.562-5.277,13.106-9.298,19.501-12.835,2.56-1.416,1.589-5.323-1.336-5.323Z"/><path class="cls-2" d="M19.434,7.785c-3.217,8.539-7.356,16.685-12.116,24.345-1.487,2.393.197,5.557,3.014,5.557h5.096c-3.035-11.769,4.006-29.902,4.006-29.902Z"/><path class="cls-2" d="M21.176,45.595l-3.107,10.364c-.6,2.016.91,4.041,3.014,4.041,1.045,0,2.025-.52,2.722-1.298,1.9-2.121,5.282-5.074,6.91-6.576,1.846-1.702,3.694-3.281,5.54-4.766l.302-.513c-5.721,2.117-11.417,1.139-15.382-1.251Z"/><path class="cls-3" d="M46.027,7.137c.597-.016,1.045.299,1.191.688.131.293.157.66.031,1.022-.6,1.718-1.337,3.721-2.283,5.601-.368.731-1.231.763-1.59.496-.359-.267-.473-.611-.641-1.118-.366-.967.054-1.912-.887-2.632-.744-.569-2.081-.832-3.075-1.02-1.712-.288-3.211-.903-4.311-1.727-.882-.661-.207-1.736.892-1.636,2.091.19,4.318.31,6.631.347,1.381.022,2.733.014,4.044-.022Z"/></svg>