<?xml version="1.0" encoding="UTF-8"?><svg id="Icons" xmlns="http://www.w3.org/2000/svg" viewBox="0 0 64 64"><defs><style>.cls-1{fill:#fff;}</style></defs><path class="cls-1" d="M54.434,29.2l-13.177.008s3.159-5.515,5.67-10.449c1.369-2.689,3.085-6.832,4.363-10.045.905-2.275-.784-4.715-3.234-4.715h-23.251c-1.503,0-2.898.6-3.939,1.599-.625.599-1.123,1.343-1.441,2.186-3.219,8.539-7.36,16.685-12.123,24.345-.279.449-.446.924-.516,1.401-.162,1.113.211,2.232.946,3.028.631.682,1.528,1.127,2.585,1.127h13.223l-5.482,18.272c-.075.252-.117.504-.129.752-.036.745.198,1.455.622,2.024.283.379.65.695,1.079.917.428.221.917.348,1.443.348.623,0,1.214-.201,1.745-.515.36-.213.697-.469.979-.784.255-.284.539-.584.839-.893.097-.1.203-.204.304-.305.21-.212.422-.424.644-.642.131-.128.267-.257.401-.386.202-.194.404-.387.609-.581.15-.141.3-.281.45-.421.197-.184.394-.367.59-.547,1.187-1.092,2.322-2.105,3.077-2.801,8.413-7.753,16.857-13.069,25.057-17.602,2.561-1.416,1.59-5.323-1.337-5.323Z"/></svg>