<?xml version="1.0" encoding="UTF-8"?><svg id="Icons" xmlns="http://www.w3.org/2000/svg" viewBox="0 0 64 64"><defs><style>.cls-1{fill:#fff;}</style></defs><path class="cls-1" d="M48.057,6c.505,0,.954.235,1.233.646.158.233.387.715.142,1.329-1.208,3.037-2.933,7.216-4.287,9.877-2.459,4.831-5.591,10.307-5.623,10.362-.355.619-.352,1.38.006,1.997.358.617,1.017.996,1.73.996,0,0,0,0,.001,0l13.175-.008c.518,0,.713.331.784.609.062.24.09.685-.415.964-7.029,3.885-16.273,9.429-25.445,17.881-.338.311-.752.686-1.214,1.104-.569.515-1.208,1.093-1.863,1.696l-.599.556-.458.428c-.21.198-.417.396-.623.594l-.094.09-.319.308c-.23.225-.449.445-.668.666l-.112.112-.205.206c-.32.329-.623.649-.894.952-.123.137-.294.271-.508.397-.265.157-.509.236-.727.236-.188,0-.365-.042-.525-.125-.152-.079-.289-.195-.394-.336-.159-.214-.24-.473-.228-.732.004-.092.021-.186.047-.274l5.482-18.272c.182-.606.066-1.261-.311-1.769-.377-.507-.972-.806-1.605-.806h-13.223c-.552,0-.912-.264-1.117-.485-.345-.373-.508-.89-.436-1.383.032-.221.111-.434.235-.633,5.033-8.095,9.17-16.403,12.296-24.695.206-.547.536-1.048.954-1.449.701-.672,1.608-1.042,2.555-1.042h23.25M48.057,4h-23.251c-1.503,0-2.898.6-3.939,1.599-.625.599-1.123,1.343-1.441,2.186-3.219,8.539-7.36,16.685-12.123,24.345-.279.449-.446.924-.516,1.401-.162,1.113.211,2.232.946,3.028.631.682,1.528,1.127,2.585,1.127h13.223l-5.482,18.272c-.075.252-.117.504-.129.752-.036.745.198,1.455.622,2.024.283.379.65.695,1.079.917.428.221.917.348,1.443.348.623,0,1.214-.201,1.745-.515.36-.213.697-.469.979-.784.255-.284.539-.584.839-.893.097-.1.203-.204.304-.305.21-.212.422-.424.644-.642.131-.128.267-.257.401-.386.202-.194.404-.387.609-.581.15-.141.3-.281.45-.421.197-.184.394-.367.59-.547,1.187-1.092,2.322-2.105,3.077-2.801,8.413-7.753,16.857-13.069,25.057-17.602,2.561-1.416,1.59-5.323-1.337-5.323l-13.177.008s3.159-5.515,5.67-10.449c1.369-2.689,3.085-6.832,4.363-10.045.905-2.275-.784-4.715-3.234-4.715h0Z"/></svg>