<?xml version="1.0" encoding="utf-8"?>
<!-- Generator: Adobe Illustrator 25.2.3, SVG Export Plug-In . SVG Version: 6.00 Build 0)  -->
<svg version="1.1" id="Isolation_Mode" xmlns="http://www.w3.org/2000/svg" xmlns:xlink="http://www.w3.org/1999/xlink" x="0px"
	 y="0px" viewBox="0 0 800 166.1" style="enable-background:new 0 0 800 166.1;" xml:space="preserve">
<style type="text/css">
	.st0{fill:#FBAF3C;}
	.st1{fill:#63A5B9;}
	.st2{fill:#576EB2;}
	.st3{fill:#26569A;}
	.st4{fill:#CD2033;}
	.st5{fill:#F58220;}
</style>
<polygon class="st0" points="63.22,38.75 41.9,38.75 41.9,17.43 35.25,17.43 35.25,38.75 13.93,38.75 13.93,45.41 35.25,45.41 
	35.25,66.73 41.9,66.73 41.9,45.41 63.22,45.41 "/>
<polygon class="st1" points="150.18,38.75 128.86,38.75 128.86,17.43 122.2,17.43 122.2,38.75 100.88,38.75 100.88,45.41 
	122.2,45.41 122.2,66.73 128.86,66.73 128.86,45.41 150.18,45.41 "/>
<polygon class="st1" points="32.83,80.37 18.74,80.37 18.74,66.29 14.08,66.29 14.08,80.37 0,80.37 0,85.03 14.08,85.03 
	14.08,99.12 18.74,99.12 18.74,85.03 32.83,85.03 "/>
<polygon class="st2" points="166.1,79.67 151.72,79.67 151.72,65.29 145.66,65.29 145.66,79.67 131.28,79.67 131.28,85.73 
	145.66,85.73 145.66,100.11 151.72,100.11 151.72,85.73 166.1,85.73 "/>
<polygon class="st3" points="150.18,119.29 128.96,119.29 128.96,98.07 122.1,98.07 122.1,119.29 100.88,119.29 100.88,126.15 
	122.1,126.15 122.1,147.37 128.96,147.37 128.96,126.15 150.18,126.15 "/>
<polygon class="st4" points="63.22,119.29 42.01,119.29 42.01,98.07 35.15,98.07 35.15,119.29 13.93,119.29 13.93,126.15 
	35.15,126.15 35.15,147.37 42.01,147.37 42.01,126.15 63.22,126.15 "/>
<polygon class="st1" points="98.47,14.09 84.38,14.09 84.38,0 79.72,0 79.72,14.09 65.64,14.09 65.64,18.74 79.72,18.74 
	79.72,32.83 84.38,32.83 84.38,18.74 98.47,18.74 "/>
<polygon class="st2" points="99.47,145.66 85.08,145.66 85.08,131.28 79.02,131.28 79.02,145.66 64.64,145.66 64.64,151.72 
	79.02,151.72 79.02,166.1 85.08,166.1 85.08,151.72 99.47,151.72 "/>
<polygon class="st5" points="111.67,78.15 86.6,78.15 86.6,53.09 77.51,53.09 77.51,78.15 52.44,78.15 52.44,87.25 77.51,87.25 
	77.51,112.31 86.6,112.31 86.6,87.25 111.67,87.25 "/>
<path class="st3" d="M434.65,67.62c-2.88,0-7.37,0.59-12.42,2.58V43.6h-10.74l0.31,72.49c6.42,2.17,12.52,3.38,18.75,3.38
	c17.96,0,28.14-9.58,28.14-25.97C458.68,77.7,448.99,67.62,434.65,67.62z M431.62,109.6c-2.98,0-6.08-0.6-9.39-1.81V80.1
	c2.72-1.24,6.44-2.6,10.37-2.6c9.02,0,14.8,6.04,14.8,16.11C447.4,103.86,441.65,109.6,431.62,109.6z"/>
<rect x="499.83" y="33.43" class="st3" width="10.63" height="95.15"/>
<path class="st3" d="M578.37,67.75c-14.54,0-24.07,10.46-24.57,25.19c-0.46,13.65,7.52,25.15,23.89,26.74
	c8.34,0.81,14.95-0.56,21.29-3.64v-10.14c-4.82,3.03-13.71,4.45-20.01,3.97c-7.57-0.58-13.1-4.95-13.98-14.17l36.72,0
	C602.46,79.03,593.63,67.75,578.37,67.75z M565.65,87.86c2.1-6.64,8.17-10.67,14.42-10.26c6.21,0.4,9.7,3.77,9.98,10.26H565.65z"/>
<path class="st3" d="M742.75,100.18V68.7h-10.74v32.8c0,10.96,8.51,17.65,22.03,17.65c13.52,0,22.03-6.69,22.03-17.65V68.7h-10.74
	v31.47c0,7.7-4.55,11.13-11.29,11.13C747.31,111.3,742.75,107.87,742.75,100.18z"/>
<path class="st3" d="M349.09,67.39v3.62c-3.58-2.32-7.58-3.39-12.42-3.39c-14.34,0-24.03,10.08-24.03,25.88
	c0,16.39,10.18,26.03,28.14,25.97c6.81-0.02,14.23-1.41,18.75-3.38l0.3-48.71H349.09z M348.89,108.43
	c-3.78,0.95-6.75,1.14-9.19,1.17c-10.03,0.14-15.78-5.75-15.78-15.99c0-10.07,5.78-16.11,14.8-16.11c3.61,0,6.93,1.11,10.37,3.47
	L348.89,108.43z"/>
<path class="st3" d="M679.63,67.39v3.62c-3.59-2.32-7.59-3.39-12.43-3.39c-14.34,0-24.03,10.08-24.03,25.88
	c0,16.39,10.18,26.03,28.14,25.97c6.81-0.02,14.23-1.41,18.75-3.38l0.31-48.71H679.63z M679.42,108.43
	c-3.78,0.95-7.07,1.17-9.19,1.17c-10.03,0.02-15.78-5.75-15.78-15.99c0-10.07,5.78-16.11,14.81-16.11c3.61,0,6.93,1.11,10.37,3.47
	L679.42,108.43z"/>
<polygon class="st3" points="234.49,77.22 205.77,77.22 205.77,87.13 234.49,87.13 234.49,119.85 245.12,119.85 245.12,87.13 
	273.84,87.13 273.84,77.22 245.12,77.22 245.12,47.04 234.49,47.04 "/>
<path class="st3" d="M793.74,68.27h-0.03c-3.49,0-6.32,2.83-6.32,6.37c0,3.6,2.83,6.4,6.32,6.4c3.51,0,6.28-2.8,6.28-6.4
	C800,71.1,797.23,68.27,793.74,68.27z M793.74,80.05c-2.83,0-5.13-2.38-5.13-5.41c0-2.97,2.29-5.38,5.1-5.38h0.03
	c2.83,0,5.1,2.41,5.1,5.4C798.84,77.67,796.58,80.08,793.74,80.05z"/>
<path class="st3" d="M796.06,76.6c-0.14-1.05-0.57-1.61-1.19-1.73v-0.05c0.76-0.23,1.39-0.79,1.39-1.73c0-0.68-0.23-1.16-0.65-1.47
	c-0.43-0.31-1.13-0.54-2.21-0.54c-0.85,0-1.41,0.09-2.01,0.17v7.1h1.13V75.3h0.79c0.91,0,1.36,0.34,1.53,1.25
	c0.14,0.93,0.31,1.58,0.48,1.81h1.18C796.4,78.13,796.23,77.7,796.06,76.6z M793.35,74.42h-0.82v-2.41c0.2-0.03,0.46-0.06,0.82-0.06
	c1.27,0,1.73,0.62,1.73,1.24C795.07,74.08,794.28,74.42,793.35,74.42z"/>
</svg>
