<?xml version="1.0" encoding="UTF-8"?>
<svg id="Layer_1" xmlns="http://www.w3.org/2000/svg" version="1.1" viewBox="0 0 166.1 166.1">
  <!-- Generator: Adobe Illustrator 30.2.1, SVG Export Plug-In . SVG Version: 2.1.1 Build 1)  -->
  <defs>
    <style>
      .st0 {
        fill: #f58220;
      }

      .st1 {
        fill: #27579b;
      }

      .st2 {
        fill: #fbaf3d;
      }

      .st3 {
        fill: #cd2033;
      }

      .st4 {
        fill: #586fb3;
      }

      .st5 {
        fill: #64a5b9;
      }
    </style>
  </defs>
  <polygon class="st2" points="63.22 38.75 41.9 38.75 41.9 17.43 35.25 17.43 35.25 38.75 13.93 38.75 13.93 45.41 35.25 45.41 35.25 66.73 41.9 66.73 41.9 45.41 63.22 45.41 63.22 38.75"/>
  <polygon class="st5" points="150.18 38.75 128.86 38.75 128.86 17.43 122.2 17.43 122.2 38.75 100.88 38.75 100.88 45.41 122.2 45.41 122.2 66.73 128.86 66.73 128.86 45.41 150.18 45.41 150.18 38.75"/>
  <polygon class="st5" points="32.83 80.37 18.74 80.37 18.74 66.29 14.08 66.29 14.08 80.37 0 80.37 0 85.03 14.08 85.03 14.08 99.12 18.74 99.12 18.74 85.03 32.83 85.03 32.83 80.37"/>
  <polygon class="st4" points="166.1 79.67 151.72 79.67 151.72 65.29 145.66 65.29 145.66 79.67 131.28 79.67 131.28 85.73 145.66 85.73 145.66 100.11 151.72 100.11 151.72 85.73 166.1 85.73 166.1 79.67"/>
  <polygon class="st1" points="150.18 119.29 128.96 119.29 128.96 98.07 122.1 98.07 122.1 119.29 100.88 119.29 100.88 126.15 122.1 126.15 122.1 147.37 128.96 147.37 128.96 126.15 150.18 126.15 150.18 119.29"/>
  <polygon class="st3" points="63.22 119.29 42.01 119.29 42.01 98.07 35.15 98.07 35.15 119.29 13.93 119.29 13.93 126.15 35.15 126.15 35.15 147.37 42.01 147.37 42.01 126.15 63.22 126.15 63.22 119.29"/>
  <polygon class="st5" points="98.47 14.09 84.38 14.09 84.38 0 79.72 0 79.72 14.09 65.64 14.09 65.64 18.74 79.72 18.74 79.72 32.83 84.38 32.83 84.38 18.74 98.47 18.74 98.47 14.09"/>
  <polygon class="st4" points="99.47 145.66 85.08 145.66 85.08 131.28 79.02 131.28 79.02 145.66 64.64 145.66 64.64 151.72 79.02 151.72 79.02 166.1 85.08 166.1 85.08 151.72 99.47 151.72 99.47 145.66"/>
  <polygon class="st0" points="111.67 78.15 86.6 78.15 86.6 53.09 77.51 53.09 77.51 78.15 52.44 78.15 52.44 87.25 77.51 87.25 77.51 112.31 86.6 112.31 86.6 87.25 111.67 87.25 111.67 78.15"/>
</svg>