<?xml version="1.0" encoding="UTF-8"?><svg id="Icons" xmlns="http://www.w3.org/2000/svg" viewBox="0 0 64 64"><defs><style>.cls-1{fill:#444;}</style></defs><path class="cls-1" d="M58.141,25.207c-.002-.011-.002-.023-.004-.034-.232-1.68-.548-3.297-.939-4.841,1.132-.748,1.655-2.275.954-3.623l-4.368-8.4c-.482-.927-1.44-1.508-2.484-1.508h-1.382c-2.03-1.793-4.309-2.8-6.718-2.8-.012,0-.024.002-.036.002-.012,0-.024-.002-.036-.002h-22.4c-.88,0-1.742.138-2.581.395-1.334.41-2.943,1.414-4.137,2.405h-1.277c-1.045,0-2.002.581-2.484,1.508l-4.368,8.4c-.682,1.311-.201,2.786.866,3.555-.003.011-.005.023-.008.034-.391,1.545-.716,3.195-.948,4.876-1.29.271-1.863,1.457-1.863,2.628v8.4c0,.627.21,1.2.558,1.664.328.437.78.776,1.305.964.187,1.355.505,3.496.827,5.107-1.117,1.086-1.238,2.254-.665,3.357l4.368,8.4c.482.927,1.44,1.508,2.484,1.508h1.204c1.997,1.721,4.361,2.8,6.718,2.8h22.4c2.409,0,4.688-1.007,6.718-2.8h1.382c1.045,0,2.002-.581,2.484-1.508l4.368-8.4c.701-1.348.178-2.874-.954-3.623.39-1.544.707-3.161.939-4.841,1.083-.387,1.863-1.411,1.863-2.628v-8.4c0-1.186-.745-2.186-1.786-2.593ZM7.772,25.446c.209-1.516.504-3.027.87-4.499l5.435,1.929c.425.152.885.186,1.327.1l13.753-2.468h.006c-.083.333-.168.666-.244,1.008-.029.133-.058.266-.087.4-.12.564-.233,1.134-.333,1.715-.002.009-.003.018-.005.027-.101.587-.187,1.184-.267,1.787-.019.147-.038.294-.056.442.005-.041.008-.083.013-.124l-11.862,2.128c-.457.089-.924.133-1.394.133-.851,0-1.708-.146-2.525-.436l-4.689-1.732.057-.411ZM15.369,46.934c-1.114,0-2.22-.216-3.271-.644l-3.256-1.575-.038-.148c-.243-.954-.568-2.792-.892-5.025l6.071,2.117c.712.29,1.485.351,2.232.176l12.073-2.818.01-.002c.032.228.061.458.097.684.021.131.04.264.062.394.093.562.195,1.117.307,1.664.017.084.036.165.054.249.1.475.207.943.321,1.405.031.126.062.253.094.378.012.045.025.089.037.134h-.003s-11.913,2.782-11.913,2.782c-.657.153-1.321.229-1.983.229ZM31.926,58h-11.198c-.304,0-.613-.033-.925-.082,1.968-.034,3.929-.376,5.799-1.023l1.807-.625,6.327-2.187s.026.033.066.09c.523.733,1.072,1.406,1.645,2.015.043.046.087.091.13.136.285.296.574.58.87.843.012.011.024.022.036.032.023.021.046.042.069.062.001,0,.002.002.003.003h0s0,0,0,0c.195.17.395.323.595.477.073.056.143.119.217.173.009.007.018.013.027.019.03.022.06.043.09.064h-5.56ZM37.279,6.147c-.005.004-.01.007-.015.011-.004.003-.008.006-.013.009-.255.195-.503.414-.751.633-.064.056-.13.105-.193.163-.055.05-.109.101-.164.152-.542.509-1.062,1.082-1.564,1.7l-.016.002-7.876.836-5.158.547c-.258.046-.516.069-.773.069-.838,0-1.659-.245-2.375-.718-.038-.026-.076-.053-.112-.081l-2.431-1.55c.996-.741,2.097-1.367,2.896-1.612.663-.204,1.334-.307,1.994-.307h16.762c-.07.05-.141.095-.21.147ZM49.813,39.666c-.479,1.661-1.104,3.096-1.842,4.2-1.042,1.558-2.3,2.47-3.654,2.47s-2.612-.912-3.654-2.47c-.738-1.104-1.363-2.539-1.842-4.2-.64-2.219-1.016-4.843-1.016-7.666,0-2.277.248-4.422.677-6.334.357-1.59.843-3.01,1.429-4.2,1.16-2.353,2.705-3.802,4.406-3.802s3.246,1.449,4.406,3.802c.586,1.19,1.072,2.61,1.429,4.2.429,1.912.677,4.057.677,6.334,0,2.823-.376,5.447-1.016,7.666Z"/><path class="cls-1" d="M43.71,24.946c-.61,0-1.185.263-1.699.719-1.29,1.146-2.181,3.548-2.181,6.334,0,3.896,1.737,7.054,3.88,7.054s3.88-3.158,3.88-7.054c0-2.786-.891-5.188-2.181-6.334-.514-.456-1.089-.719-1.699-.719Z"/></svg>