<?xml version="1.0" encoding="UTF-8"?><svg id="Icons" xmlns="http://www.w3.org/2000/svg" viewBox="0 0 64 64"><defs><style>.cls-1{fill:none;}.cls-2{fill:#cb65ff;}.cls-3{fill:#444;}.cls-4{fill:#5c5c5c;}.cls-5{fill:#fff;}.cls-6{fill:#747474;}.cls-7{fill:#2e2e2e;}</style></defs><polygon class="cls-1" points="36.556 57.265 36.556 57.266 36.556 57.265 36.556 57.265"/><path class="cls-1" d="M39.562,4.793h0c.054-.023.108-.045.161-.068-.054.022-.108.044-.161.068Z"/><path class="cls-1" d="M37.395,57.936c.039.029.079.056.118.085h0c-.039-.028-.079-.056-.119-.085Z"/><path class="cls-1" d="M42.351,4.044c-.09.009-.179.025-.269.037,0,0-.001,0-.002,0,.09-.012.18-.028.27-.037h0Z"/><path class="cls-1" d="M37.277,6.149s-.008.006-.013.009c.005-.004.01-.007.015-.011,0,0-.002.001-.002.002Z"/><path class="cls-5" d="M43.732,7.417c-.182-.019-.363-.033-.543-.042-1.168-.056-1.349,1.406-.396,2.084,3.31,2.356,7.054,5.964,8.345,9.893.221.671.459,1.135.699,1.449.601.789,1.205.584,1.55,0,.179-.302.289-.702.29-1.118.01-4.334-4.835-11.722-9.946-12.266Z"/><path class="cls-4" d="M20.83,6.26c.064-.013.128-.023.193-.03l21.018-2.229h-21.241c-.88,0-1.742.138-2.581.395l2.4,1.837c.065.032.138.042.211.027Z"/><polygon class="cls-2" points="31.998 60 31.998 59.975 31.927 60 31.998 60"/><path class="cls-7" d="M58.137,25.172c.094.679.171,1.369.237,2.067h0c.011.435.02.87.02,1.309,0,3.674-.401,7.193-1.131,10.445-.332,1.479-.734,2.901-1.197,4.259-2.257,6.63-5.991,11.69-10.463,13.947-1.664.84-3.429,1.295-5.259,1.295-.883,0-1.749-.11-2.598-.313-.077-.054-.155-.106-.232-.161h0c-.039-.029-.079-.057-.118-.085-.004-.003-.008-.005-.011-.008-.008-.006-.016-.012-.024-.018-.07-.053-.138-.113-.208-.167-.2-.154-.4-.307-.595-.477,0,0,0,0,0,0h0s-.002-.002-.003-.003c-.023-.02-.046-.041-.069-.062-.012-.011-.024-.022-.036-.032-.296-.263-.585-.547-.87-.843-.044-.045-.087-.09-.13-.136-.573-.608-1.122-1.281-1.645-2.015-.041-.057-.066-.09-.066-.09l-6.327,2.187-1.807.625c-3.012,1.042-6.26,1.298-9.395.736,0,0-2.027-.426-2.124-.432,1.997,1.721,4.361,2.8,6.718,2.8h11.127l.071-.025v.025h11.202c2.409,0,4.688-1.007,6.718-2.8h1.382c1.045,0,2.002-.581,2.484-1.508l4.368-8.4c.701-1.348.178-2.874-.954-3.623.39-1.544.707-3.161.939-4.841,1.083-.387,1.863-1.411,1.863-2.628v-8.4c0-1.216-.78-2.241-1.863-2.628Z"/><path class="cls-6" d="M17.352,46.704l11.913-2.781h.003c-.012-.046-.025-.09-.037-.135-.032-.125-.063-.252-.094-.378-.114-.462-.221-.93-.321-1.405-.018-.083-.037-.165-.054-.249-.112-.547-.213-1.102-.307-1.664-.022-.131-.041-.263-.062-.394-.035-.226-.065-.456-.097-.684l-.01.002-12.073,2.818c-.747.175-1.52.114-2.232-.176,0,0-8.644-3.019-8.119-2.832.235,1.704.557,3.345.955,4.909-.114.082,5.279,2.553,5.279,2.553,1.051.428,2.158.644,3.271.644.662,0,1.327-.076,1.983-.229Z"/><path class="cls-6" d="M14.93,28.023c.47,0,.938-.044,1.394-.133l11.862-2.128c.013-.107.029-.212.043-.319.08-.602.166-1.2.267-1.787.002-.009.003-.018.005-.027.1-.581.213-1.151.333-1.715.028-.134.057-.267.087-.4.076-.341.161-.674.244-1.009h-.006s-13.753,2.469-13.753,2.469c-.442.086-.902.053-1.327-.1l-7.259-2.613c-.394,1.554-.722,3.217-.955,4.909-.041.015,6.541,2.415,6.541,2.415.817.29,1.675.436,2.525.436Z"/><path class="cls-6" d="M18.381,9.551c.716.473,1.536.718,2.375.718.257,0,.515-.023.773-.069l5.158-.547,7.876-.836.016-.002c.502-.618,1.022-1.191,1.564-1.7.054-.051.109-.102.164-.152.063-.058.129-.107.193-.163.229-.202.459-.401.694-.584.024-.018.047-.04.07-.058.004-.003.009-.006.013-.009,0,0,.002-.001.002-.002.338-.256.684-.485,1.034-.697.063-.039.127-.074.19-.112.348-.202.7-.388,1.059-.546h0c.054-.024.107-.045.161-.068.373-.156.751-.286,1.133-.392.024-.007.049-.013.073-.019.379-.102.763-.181,1.151-.232,0,0,.001,0,.002,0,.09-.012.179-.028.269-.037h0c.281-.028.564-.044.849-.044h-1.159l-21.018,2.229c-.065.007-.129.018-.193.03-.073.015-.146.005-.211-.027l-2.4-1.837c-1.334.41-2.943,1.414-4.137,2.405l4.187,2.67c.037.028.074.055.112.081Z"/><path class="cls-3" d="M58.137,25.172c-.232-1.68-.548-3.297-.939-4.841,1.132-.748,1.655-2.275.954-3.623l-4.368-8.4c-.482-.927-1.44-1.508-2.484-1.508h-1.382c-2.03-1.793-4.309-2.8-6.718-2.8-.285,0-.568.016-.849.044-.091.009-.18.026-.27.037-.191.025-.381.052-.57.09-.103.02-.204.047-.306.071-.176.041-.351.086-.525.138-.103.031-.206.065-.309.1-.173.058-.345.121-.516.19-.044.018-.088.037-.132.055-.054.023-.108.044-.161.068-.177.078-.352.163-.526.251-.088.045-.176.088-.263.136-.191.104-.38.217-.569.335-.067.042-.135.081-.201.124-.244.159-.485.328-.723.509-.005.004-.01.007-.015.011-.004.003-.008.006-.013.009-.255.195-.503.414-.751.633-.064.056-.13.105-.193.163-.055.05-.109.101-.164.152-.542.509-1.062,1.082-1.564,1.7l-.016.002-7.876.836-5.158.547c-.258.046-.516.069-.773.069-.838,0-1.659-.245-2.375-.718-.038-.026-.076-.053-.112-.081l-4.187-2.67c-.112.093.111-.098,0,0h-1.277c-1.045,0-2.002.581-2.484,1.508l-4.368,8.4c-.682,1.311-.201,2.786.866,3.555-.003.011-.005.023-.008.034l7.266,2.579c.425.152.885.186,1.327.1l13.753-2.468h.006c-.083.333-.168.666-.244,1.008-.029.133-.058.266-.087.4-.12.564-.233,1.134-.333,1.715-.002.009-.003.018-.005.027-.101.587-.187,1.184-.267,1.787-.019.147-.038.294-.056.442.005-.041.008-.083.013-.124l-11.862,2.128c-.457.089-.924.133-1.394.133-.851,0-1.708-.146-2.525-.436l-6.541-2.415c-1.29.271-1.863,1.457-1.863,2.628v8.4c0,.627.21,1.2.558,1.664.328.437.78.776,1.305.964l8.119,2.832c.712.29,1.485.351,2.232.176l12.073-2.818.01-.002c.032.228.061.458.097.684.021.131.04.264.062.394.093.562.195,1.117.307,1.664.017.084.036.165.054.249.1.475.207.943.321,1.405.031.126.062.253.094.378.012.045.025.089.037.134h-.003s-11.913,2.782-11.913,2.782c-.657.153-1.321.229-1.983.229-1.114,0-2.22-.216-3.271-.644l-5.279-2.553c-1.316,1.14-1.474,2.385-.866,3.555l4.368,8.4c.482.927,1.44,1.508,2.484,1.508h1.277c.044.039,2.124.432,2.124.432,3.135.562,6.383.306,9.395-.736l1.807-.625,6.327-2.187s.026.033.066.09c.523.733,1.072,1.406,1.645,2.015.043.046.087.091.13.136.285.296.574.58.87.843.012.011.024.022.036.032.023.021.046.042.069.062.001,0,.002.002.003.003h0s0,0,0,0c.195.17.395.323.595.477.073.056.143.119.217.173.009.007.018.013.027.019.039.029.079.056.119.085.077.056.155.107.232.161.849.203,1.715.313,2.598.313,1.83,0,3.595-.456,5.259-1.295,4.472-2.257,8.206-7.317,10.463-13.947.462-1.358.865-2.78,1.197-4.259.73-3.253,1.131-6.771,1.131-10.445,0-.439-.009-.875-.02-1.309-.066-.698-.143-1.388-.237-2.067ZM53.388,20.8c-.345.584-.949.789-1.55,0-.239-.314-.478-.778-.699-1.449-1.292-3.929-5.036-7.537-8.345-9.893-.953-.678-.772-2.14.396-2.084.18.009.361.023.543.042,5.111.544,9.956,7.931,9.946,12.266-.001.416-.112.815-.29,1.118Z"/><path class="cls-6" d="M50.152,25.666c-.357-1.59-.842-3.01-1.429-4.2-1.16-2.353-2.705-3.802-4.406-3.802s-3.246,1.449-4.406,3.802c-.586,1.19-1.072,2.61-1.429,4.2-.429,1.912-.677,4.057-.677,6.334,0,2.823.376,5.447,1.016,7.666.479,1.661,1.104,3.096,1.842,4.2,1.042,1.558,2.3,2.47,3.654,2.47s2.612-.912,3.654-2.47c.738-1.104,1.363-2.539,1.842-4.2.64-2.219,1.016-4.843,1.016-7.666,0-2.277-.248-4.422-.677-6.334Z"/><path class="cls-7" d="M45.408,25.666c-.514-.456-1.089-.719-1.699-.719s-1.185.263-1.699.719c-1.29,1.146-2.181,3.548-2.181,6.334,0,3.896,1.737,7.054,3.88,7.054s3.88-3.158,3.88-7.054c0-2.786-.891-5.188-2.181-6.334Z"/></svg>