<?xml version="1.0" encoding="UTF-8"?><svg id="Icons" xmlns="http://www.w3.org/2000/svg" viewBox="0 0 64 64"><defs><style>.cls-1{fill:#001e5b;}</style></defs><path class="cls-1" d="M32.062,5.939c12.805,0,23.223,8.646,23.223,19.273,0,4.713-2.079,9.253-5.855,12.783l-.634.611v.035c-2.498,2.494-4.97,5.154-7.357,7.915-3.126,3.616-6.076,7.377-8.769,11.181-.208.173-.436.201-.561.201-.14,0-.408-.035-.634-.269l-.454-.47c-4.713-6.595-10.011-12.839-15.759-18.573v-.096l-.628-.592c-3.737-3.521-5.795-8.041-5.795-12.727,0-3.524,1.164-6.976,3.366-9.983,4.262-5.817,11.685-9.291,19.856-9.291M32.062,3.939c-9.074,0-17.026,4.043-21.47,10.109-2.378,3.246-3.753,7.069-3.753,11.165,0,5.449,2.429,10.419,6.424,14.183v.065c5.935,5.854,11.365,12.218,16.217,19.023l.557.577c.566.586,1.319.879,2.072.879s1.506-.293,2.072-.879l.013-.014c2.735-3.875,5.663-7.602,8.758-11.182,2.506-2.898,5.118-5.701,7.844-8.39v-.018c4.033-3.771,6.489-8.765,6.489-14.244,0-11.749-11.293-21.273-25.223-21.273h0Z"/><circle class="cls-1" cx="32.062" cy="26.786" r="10.502"/></svg>