<?xml version="1.0" encoding="UTF-8"?><svg id="Icons" xmlns="http://www.w3.org/2000/svg" viewBox="0 0 64 64"><defs><style>.cls-1{fill:#001e5b;}</style></defs><path class="cls-1" d="M32,6c14.336,0,26,11.664,26,26s-11.664,26-26,26S6,46.336,6,32,17.664,6,32,6M32,4c-15.464,0-28,12.536-28,28s12.536,28,28,28,28-12.536,28-28S47.464,4,32,4h0Z"/><path class="cls-1" d="M25.581,42.748c-3.974-1.987-6.503-6.142-6.503-10.568,0-2.348.723-4.697,1.987-6.684l8.31,12.465h5.058l8.31-12.465c1.264,1.987,1.987,4.336,1.987,6.684,0,4.155-2.168,8.039-5.69,10.207l1.626,6.142c9.303-4.877,13.007-16.349,8.129-25.742-1.626-3.161-4.064-5.781-7.136-7.587l-9.664,14.994-9.574-14.994c-9.032,5.329-12.103,16.981-6.684,26.013,1.987,3.252,4.877,5.961,8.31,7.587l1.536-6.052Z"/></svg>