<?xml version="1.0" encoding="UTF-8"?><svg xmlns="http://www.w3.org/2000/svg" viewBox="0 0 64 64"><defs><style>.cls-1{fill:#fff;}.cls-2{fill:#171615;}</style></defs><g id="Background"><rect class="cls-2" x="0" width="64" height="64"/></g><g id="Icons"><path class="cls-1" d="M55.666,4c-.237,0-.478.019-.72.059-7.466,1.231-15.132,1.871-22.946,1.871s-15.48-.64-22.946-1.871c-.242-.04-.483-.059-.72-.059-2.329,0-4.333,1.858-4.333,4.268v33.523c0,2.41,2.004,4.268,4.333,4.268.237,0,.478-.019.72-.059,5.664-.934,11.443-1.526,17.314-1.758-.624,4.005-1.768,7.838-3.368,11.424-.881,1.973.49,4.334,2.65,4.334h12.665c2.161,0,3.532-2.363,2.65-4.336-1.603-3.585-2.748-7.418-3.375-11.423,5.886.231,11.679.824,17.357,1.76.242.04.483.059.72.059,2.329,0,4.333-1.858,4.333-4.268V8.268c0-2.41-2.004-4.268-4.333-4.268ZM39.045,57.576c-.125.193-.354.424-.73.424h-12.665c-.377,0-.605-.23-.73-.423-.216-.333-.251-.743-.094-1.095,1.719-3.851,2.913-7.92,3.549-12.094l.024-.16,7.159-.008c.008.051.017.106.026.167.638,4.174,1.834,8.243,3.555,12.094.158.353.123.762-.094,1.096ZM58,41.791c0,1.251-1.047,2.268-2.333,2.268-.131,0-.263-.011-.395-.033-7.639-1.26-15.469-1.898-23.272-1.898s-15.633.639-23.272,1.898c-.131.022-.264.033-.395.033-1.286,0-2.333-1.018-2.333-2.268V8.268c0-1.251,1.047-2.268,2.333-2.268.131,0,.263.011.394.033,7.638,1.259,15.468,1.898,23.272,1.898s15.633-.639,23.272-1.898c.131-.022.264-.033.395-.033,1.286,0,2.333,1.018,2.333,2.268v33.523Z"/><path class="cls-1" d="M48.773,15.372c.472,0,.855.372.855.829v17.655c0,.457-.384.829-.855.829-.035,0-.07-.002-.106-.006-5.483-.64-11.081-.965-16.638-.965s-11.156.325-16.638.965c-.036.004-.071.006-.106.006-.472,0-.855-.372-.855-.829v-17.655c0-.457.384-.829.855-.829.035,0,.07.002.106.006,5.483.64,11.081.965,16.638.965s11.155-.325,16.638-.965c.036-.004.071-.006.106-.006M48.773,13.372c-.112,0-.224.006-.338.02-5.382.628-10.856.951-16.406.951s-11.025-.323-16.406-.951c-.114-.013-.226-.02-.338-.02-1.547,0-2.855,1.243-2.855,2.829v17.655c0,1.586,1.308,2.829,2.855,2.829.112,0,.224-.006.338-.02,5.382-.628,10.856-.951,16.406-.951s11.025.323,16.406.951c.114.013.226.02.338.02,1.547,0,2.855-1.243,2.855-2.829v-17.655c0-1.586-1.308-2.829-2.855-2.829h0Z"/></g></svg>