<?xml version="1.0" encoding="UTF-8"?><svg id="Icons" xmlns="http://www.w3.org/2000/svg" viewBox="0 0 64 64"><defs><style>.cls-1{fill:#fe7298;}</style></defs><path class="cls-1" d="M54.947,4.059c-7.466,1.231-15.132,1.871-22.947,1.871s-15.48-.64-22.946-1.871c-2.62-.432-5.053,1.554-5.053,4.209v33.523c0,2.655,2.433,4.641,5.053,4.209,5.664-.934,11.443-1.526,17.314-1.758-.624,4.005-1.768,7.838-3.369,11.424-.881,1.973.49,4.334,2.65,4.334h12.665c2.161,0,3.532-2.363,2.65-4.336-1.603-3.585-2.748-7.418-3.375-11.423,5.886.231,11.679.824,17.357,1.76,2.62.432,5.053-1.554,5.053-4.209V8.268c0-2.655-2.433-4.641-5.053-4.209ZM51.629,33.856c0,1.701-1.504,3.007-3.193,2.81-5.381-.628-10.856-.951-16.406-.951s-11.025.323-16.406.951c-1.689.197-3.193-1.109-3.193-2.81v-17.655c0-1.701,1.504-3.007,3.193-2.81,5.381.628,10.856.951,16.406.951s11.025-.323,16.406-.951c1.689-.197,3.193,1.109,3.193,2.81v17.655Z"/></svg>