<?xml version="1.0" encoding="UTF-8"?><svg id="Icons" xmlns="http://www.w3.org/2000/svg" viewBox="0 0 64 64"><defs><style>.cls-1{fill:#fe7298;}.cls-2{fill:#fff;}.cls-3{fill:#8a033e;}.cls-4{fill:#e3066a;}</style></defs><path class="cls-1" d="M34.702,41.56c1.443,0,2.64,1.099,2.858,2.525.62,4.062,1.78,7.947,3.404,11.579.882,1.973-.488,4.336-2.65,4.336h-12.665c-2.16,0-3.531-2.361-2.65-4.334,1.622-3.633,2.779-7.517,3.398-11.58.217-1.427,1.415-2.526,2.858-2.526h5.447Z"/><path class="cls-4" d="M34.739,41.56c1.443,0,2.64,1.099,2.858,2.525.131.857.249,1.707.427,2.547-5,.198-9.465,1.261-12.817,2.945.506-1.788.905-3.62,1.189-5.49.217-1.427,1.452-2.526,2.895-2.526h5.447Z"/><path class="cls-1" d="M60,41.791c0,2.655-2.433,4.641-5.053,4.209-7.466-1.231-15.132-1.871-22.946-1.871s-15.48.64-22.946,1.871c-2.62.432-5.053-1.554-5.053-4.209V8.268c0-2.655,2.433-4.641,5.053-4.209,7.466,1.231,15.131,1.871,22.946,1.871s15.48-.64,22.946-1.871c2.62-.432,5.053,1.554,5.053,4.209v33.523Z"/><path class="cls-3" d="M51.629,33.856c0,1.701-1.504,3.007-3.193,2.809-5.382-.628-10.856-.951-16.406-.951s-11.025.323-16.406.951c-1.689.197-3.193-1.109-3.193-2.809v-17.655c0-1.701,1.504-3.007,3.193-2.81,5.381.628,10.856.951,16.406.951s11.025-.323,16.406-.951c1.689-.197,3.193,1.109,3.193,2.81v17.655Z"/><path class="cls-2" d="M47.789,15.964c.588-.093,1.072.162,1.266.528.167.273.24.632.162,1.008-.373,1.777-.663,3.712-.845,5.744-.073.814-.947,1.288-1.509.695-.366-.385-.671-.826-.903-1.306-.486-.91-.762-1.526-1.785-2.117-.809-.467-2.166-.555-3.173-.614-1.731-.065-3.292-.48-4.487-1.155-.958-.541-.428-1.691.672-1.734,2.093-.081,4.312-.248,6.605-.508,1.369-.155,2.706-.337,3.998-.541Z"/></svg>