<?xml version="1.0" encoding="UTF-8"?><svg id="Icons" xmlns="http://www.w3.org/2000/svg" viewBox="0 0 64 64"><defs><style>.cls-1{fill:#001e5b;}</style></defs><path class="cls-1" d="M55.667,6.088c1.287,0,2.333,1.018,2.333,2.268v48.137c0,.782-.637,1.419-1.419,1.419-.083,0-.167-.007-.25-.022-8.022-1.393-16.252-2.099-24.459-2.099s-16.452.707-24.48,2.103c-.069.012-.14.018-.208.018-.653,0-1.184-.531-1.184-1.184V8.399c0-1.251,1.047-2.268,2.333-2.268.13,0,.262.011.393.032,7.598,1.246,15.385,1.877,23.146,1.877,7.846,0,15.718-.646,23.398-1.919.132-.022.265-.033.396-.033M55.667,4.088c-.238,0-.48.019-.724.06-7.506,1.244-15.213,1.892-23.071,1.892-7.772,0-15.396-.633-22.823-1.851-.241-.039-.48-.059-.716-.059-2.33,0-4.333,1.858-4.333,4.268v48.33c0,1.758,1.425,3.184,3.184,3.184.185,0,.369-.016.551-.048,7.841-1.363,15.906-2.073,24.137-2.073s16.282.709,24.117,2.07c.196.034.394.051.592.051,1.888,0,3.419-1.531,3.419-3.419V8.356c0-2.41-2.004-4.268-4.333-4.268h0Z"/><path class="cls-1" d="M51.895,40.461c-.281-.292-.486-.647-.486-1.053v-.025c0-1.74-1.389-3.148-3.117-3.195v-4.143c0-8.985-7.311-16.296-16.296-16.296s-16.296,7.311-16.296,16.296v4.138c-1.754.018-3.172,1.442-3.172,3.201v.025c0,.405-.206.761-.487,1.053-1.474,1.529-1.474,5.168,0,6.698.281.292.487.647.487,1.053v.025c0,1.769,1.435,3.204,3.204,3.204h5.284c1.426,0,2.62-.938,3.036-2.226h.423c1.073,0,1.942-.87,1.942-1.942v-6.926c0-1.073-.87-1.942-1.942-1.942h-.423c-.416-1.288-1.61-2.226-3.036-2.226h-.316v-4.135c0-6.229,5.067-11.296,11.296-11.296s11.296,5.067,11.296,11.296v4.135h-.372c-1.426,0-2.62.938-3.035,2.226h-.423c-1.073,0-1.942.87-1.942,1.942v6.926c0,1.073.87,1.942,1.942,1.942h.423c.415,1.288,1.609,2.226,3.035,2.226h5.284c1.77,0,3.204-1.435,3.204-3.204v-.025c0-.405.205-.761.486-1.053,1.474-1.529,1.474-5.168,0-6.698Z"/></svg>