<?xml version="1.0" encoding="UTF-8"?><svg id="Icons" xmlns="http://www.w3.org/2000/svg" viewBox="0 0 64 64"><defs><style>.cls-1{fill:#fe9339;}.cls-2{fill:#ffba90;}.cls-3{fill:#fff;}.cls-4{fill:#dd7a01;}</style></defs><path class="cls-1" d="M29.114,11.611c-.253-1.021-1.118-1.775-2.164-1.886-3.64-.384-6.238-2.809-6.31-2.877-.988-.958-2.564-.939-3.527.045-.966.986-.949,2.569.037,3.535.053.052.529.508,1.345,1.104-3.971,1.422-7.426,3.993-9.953,7.484-3.31,4.572-4.642,10.159-3.749,15.732.988,6.17,4.629,11.556,9.988,14.777.403.242.848.357,1.286.357.849,0,1.676-.433,2.145-1.213.712-1.184.328-2.719-.854-3.431-4.094-2.459-6.873-6.571-7.627-11.281-.682-4.254.335-8.519,2.861-12.009,1.733-2.394,4.043-4.209,6.691-5.344-.26.465-.501.945-.706,1.447-.522,1.278.091,2.737,1.369,3.259.31.126.63.186.944.186.985,0,1.92-.586,2.315-1.556,1.312-3.214,4.843-5.633,4.873-5.653.874-.585,1.288-1.656,1.035-2.677Z"/><path class="cls-2" d="M43.56,21.348c5.726.02,10.645,4.072,11.762,9.688l1.598,8.035c.396,1.99-1.331,3.761-3.344,3.5-3.983-.516-8.043-.79-12.164-.804-4.011-.014-7.965.217-11.848.68-2.016.24-3.726-1.551-3.307-3.538l1.691-8.022c1.177-5.583,6.112-9.573,11.818-9.553l3.796.013Z"/><circle class="cls-2" cx="41.674" cy="13.63" r="9.628"/><path class="cls-1" d="M29.633,38.749c5.726.02,10.645,4.072,11.762,9.688l1.598,8.035c.396,1.99-1.331,3.761-3.344,3.5-3.983-.516-8.043-.79-12.164-.804-4.011-.014-7.965.217-11.848.68-2.016.24-3.726-1.551-3.307-3.538l1.691-8.022c1.177-5.583,6.112-9.573,11.818-9.553l3.796.013Z"/><circle class="cls-1" cx="27.748" cy="31.031" r="9.628"/><path class="cls-4" d="M22.128,23.229c-.706,1.488-1.103,3.151-1.11,4.906-.022,6.185,4.821,11.252,10.93,11.577-1.279.621-2.716.968-4.234.963-5.317-.019-9.613-4.344-9.594-9.661.011-3.208,1.59-6.043,4.008-7.785Z"/><path class="cls-4" d="M18.049,41.56c-.722,1.588-1.127,3.352-1.134,5.21-.021,6.01,4.135,11.059,9.737,12.399-3.726.019-7.402.249-11.017.679-2.016.24-3.726-1.55-3.307-3.538l1.691-8.022c.571-2.711,2.029-5.045,4.03-6.728Z"/><path class="cls-3" d="M40.993,6.53c3.436-.827,6.895,1.299,7.725,4.749.117.484.175.968.18,1.446.009.805-1.003.891-1.442.216-1.55-2.385-3.913-4.109-6.601-4.871-.774-.219-.994-1.208-.224-1.441.119-.036.239-.069.361-.098Z"/></svg>