<?xml version="1.0" encoding="UTF-8"?><svg id="Icons" xmlns="http://www.w3.org/2000/svg" viewBox="0 0 64 64"><defs><style>.cls-1{fill:#fff;}</style></defs><path class="cls-1" d="M56.919,39.071l-1.598-8.035c-.901-4.533-4.281-8.044-8.562-9.241,2.714-1.694,4.53-4.695,4.542-8.131.019-5.317-4.277-9.643-9.594-9.661-.011,0-.023,0-.034,0-5.302,0-9.608,4.288-9.627,9.594-.012,3.44,1.788,6.457,4.496,8.169-1.149.315-2.23.801-3.221,1.424-1.565-1.114-3.473-1.778-5.54-1.786-5.317-.019-9.643,4.277-9.661,9.594-.012,3.44,1.787,6.457,4.495,8.169-2.821.773-5.252,2.553-6.852,4.972-3.215-2.496-5.382-6.112-6.033-10.18-.682-4.254.335-8.519,2.861-12.009,1.733-2.394,4.043-4.209,6.691-5.344-.26.465-.501.945-.706,1.447-.522,1.278.091,2.737,1.369,3.259.31.126.63.186.944.186.985,0,1.92-.586,2.315-1.556,1.312-3.214,4.843-5.633,4.873-5.653.874-.585,1.288-1.656,1.035-2.677-.253-1.021-1.118-1.775-2.164-1.886-3.64-.384-6.238-2.809-6.31-2.877-.989-.958-2.564-.939-3.527.045-.966.986-.949,2.569.037,3.535.053.052.529.508,1.345,1.104-3.971,1.422-7.426,3.993-9.953,7.484-3.31,4.572-4.642,10.159-3.749,15.732.932,5.817,4.223,10.935,9.088,14.201l-1.551,7.36c-.419,1.987,1.291,3.778,3.307,3.538,3.884-.463,7.838-.694,11.848-.68,4.121.014,8.181.288,12.164.804,2.012.261,3.74-1.51,3.344-3.5l-1.597-8.035c-.523-2.632-1.889-4.912-3.774-6.603,1.145-.04,2.293-.067,3.448-.067.115,0,.228,0,.343,0,4.121.014,8.181.288,12.165.804.133.017.265.026.395.026,1.836,0,3.318-1.667,2.949-3.526ZM54.763,40.218c-.198.241-.487.379-.793.379-.045,0-.092-.003-.138-.009-4.088-.53-8.265-.806-12.415-.821h-.35c-2.071,0-4.148.069-6.219.198-.644-.314-1.317-.574-2.016-.769,2.714-1.694,4.53-4.695,4.542-8.131.009-2.49-.937-4.755-2.482-6.47.682-.374,1.404-.689,2.178-.901.764-.209,1.333-.85,1.449-1.634.117-.784-.24-1.562-.909-1.986-2.241-1.417-3.574-3.836-3.564-6.471.015-4.191,3.436-7.601,7.627-7.601h.027c4.206.015,7.616,3.449,7.601,7.654-.009,2.631-1.355,5.039-3.601,6.441-.672.42-1.033,1.197-.921,1.981.113.784.678,1.428,1.441,1.642,3.662,1.024,6.397,3.977,7.139,7.705l1.598,8.035c.069.346-.068.602-.194.756Z"/></svg>