<?xml version="1.0" encoding="UTF-8"?><svg id="Icons" xmlns="http://www.w3.org/2000/svg" viewBox="0 0 64 64"><defs><style>.cls-1{fill:#fff;}</style></defs><path class="cls-1" d="M36.805,54.636l-1.736-8.573c-.979-4.836-4.601-8.572-9.176-9.834,2.892-1.819,4.819-5.03,4.819-8.698,0-5.677-4.602-10.279-10.279-10.279s-10.279,4.602-10.279,10.279c0,3.673,1.933,6.887,4.83,8.705-4.546,1.263-8.149,4.967-9.144,9.771l-1.775,8.571c-.44,2.123,1.392,4.029,3.544,3.765,4.145-.508,8.365-.77,12.647-.77,4.4,0,8.736.276,12.99.813,2.15.271,3.987-1.626,3.557-3.749Z"/><path class="cls-1" d="M59.998,51.228v-2.184c0-.512.072-.918-1.018-1.01v-3.928c0-1.131-.265-2.013-1.68-2.069-.202-.008-.409.001-.618.029-.729.096-1.476.186-2.232.271v-20.315c.778.07,1.528.144,2.119.222.208.027.413.036.614.029,1.408-.055,1.671-.937,1.671-2.069v-2.68c0-.632-.359-1.21-.926-1.49l-20.774-10.271c-.465-.23-1.01-.23-1.474,0l-20.774,10.271c-.426.21-.734.589-.861,1.032,1.864-1.143,4.047-1.813,6.39-1.813,4.41,0,8.273,2.345,10.439,5.845.766-.026,1.537-.06,2.295-.076v17.292c1.921,1.992,3.287,4.514,3.862,7.353l1.207,5.964c2.703.015,5.389.056,8.046.136.271.008.542.017.812.026,1.465.048,2.923.104,4.373.171.212.01.423.021.635.031,1.52.074,4.377.155,5.879.25.218.014.433.018.644.014,1.476-.028,1.373-.467,1.373-1.031ZM47.951,42.918c-2.761.19-5.559.315-8.286.37v-22.252c2.048.046,4.087.12,6.107.248.259.016.517.034.774.052.471.032.936.079,1.405.116v21.467Z"/></svg>