<?xml version="1.0" encoding="UTF-8"?><svg id="Icons" xmlns="http://www.w3.org/2000/svg" viewBox="0 0 64 64"><defs><style>.cls-1{fill:#001e5b;}</style></defs><path class="cls-1" d="M39.706,45.288c2.771-.056,5.591-.182,8.383-.375,1.049-.072,1.863-.944,1.863-1.995v-21.467c0-1.045-.804-1.913-1.845-1.994-.191-.015-.381-.031-.571-.048-.283-.025-.566-.049-.851-.069l-.785-.052c-1.834-.116-3.858-.198-6.188-.251-.015,0-.03,0-.045,0-.522,0-1.024.204-1.398.57-.385.376-.602.892-.602,1.43v22.252c0,.537.216,1.052.6,1.428.374.367.877.572,1.4.572.013,0,.027,0,.041,0ZM39.666,21.036c2.048.046,4.087.12,6.107.248.259.016.517.034.775.052.471.032.935.079,1.405.116v21.467c-2.761.19-5.559.315-8.286.37v-22.252Z"/><path class="cls-1" d="M59.998,51.228v-2.184c0-.512.072-.918-1.018-1.01v-3.928c0-1.131-.265-2.013-1.68-2.069-.047-.002-.094-.003-.141-.003-.157,0-.316.01-.477.031-.729.096-1.476.186-2.232.271v-20.315c.778.07,1.528.144,2.119.222.159.021.318.031.474.031.047,0,.094,0,.14-.003,1.408-.055,1.671-.937,1.671-2.069v-2.68c0-.632-.359-1.21-.926-1.49l-20.774-10.271c-.232-.115-.485-.172-.737-.172s-.505.057-.737.172l-20.774,10.271c-.567.28-.926.858-.926,1.491v2.013c-2.331,1.884-3.825,4.764-3.825,7.995,0,3.673,1.933,6.887,4.83,8.705-4.546,1.263-8.149,4.967-9.144,9.771l-1.775,8.571c-.412,1.99,1.172,3.789,3.144,3.789.132,0,.265-.008.4-.025,4.145-.508,8.365-.77,12.647-.77,4.4,0,8.736.276,12.99.813.138.017.276.026.411.026,1.966,0,3.548-1.788,3.146-3.775l-1.736-8.573c-.102-.504-.239-.994-.397-1.473,0,0,0,0,0,0,.313-.362.495-.82.495-1.302v-22.268c0-.538-.216-1.052-.6-1.429-.374-.367-.877-.571-1.4-.571-.014,0-.027,0-.041,0-2.172.045-4.369.145-6.559.274,0,0,0,0,0,0-1.713-1.278-3.832-2.044-6.134-2.044-1.598,0-3.105.375-4.454,1.026v-.545l20.437-10.104,20.437,10.104v2.471c0,.021,0,.041,0,.06-.007,0-.015-.002-.022-.003-.536-.071-1.215-.142-2.202-.231-.06-.005-.12-.008-.18-.008-.497,0-.979.185-1.349.524-.415.379-.651.915-.651,1.476v20.315c0,.57.243,1.112.668,1.492.368.329.843.508,1.332.508.075,0,.15-.004.225-.013.769-.087,1.528-.178,2.268-.276.012-.002.025-.003.037-.004,0,.02,0,.04,0,.062v3.928c0,.744.407,1.398,1.018,1.743v.465c-.927-.056-2.256-.105-3.542-.154-.85-.032-1.658-.062-2.256-.091l-.245-.012-.395-.019c-1.458-.068-2.926-.124-4.4-.172l-.817-.026c-3.326-.1-6.647-.151-9.87-.151-.225,0-.457.002-.684.003l.405,1.998c.092,0,.188-.001.279-.001,3.304,0,6.574.053,9.81.15.271.008.542.017.812.026,1.465.048,2.923.104,4.372.171.212.01.423.021.635.031,1.521.074,4.377.155,5.879.25.167.01.332.016.496.016.05,0,.099,0,.149-.001,1.476-.028,1.373-.467,1.373-1.031ZM33.167,21.021v20.478s0,0,0,.001c-1.704-2.558-4.282-4.446-7.274-5.271,2.892-1.819,4.819-5.03,4.819-8.698,0-2.397-.827-4.596-2.202-6.344,0,0,0,0,0,0,1.562-.075,3.12-.135,4.656-.166ZM28.713,27.531c0,2.856-1.452,5.475-3.884,7.005-.671.422-1.029,1.2-.914,1.984.115.784.683,1.426,1.447,1.637,3.963,1.093,6.932,4.275,7.747,8.303l1.736,8.573c.085.422-.08.734-.234.922-.237.29-.584.456-.952.456-.053,0-.107-.003-.161-.01-4.361-.55-8.816-.829-13.241-.829-4.306,0-8.643.264-12.891.785-.053.006-.105.01-.156.01-.369,0-.717-.167-.954-.458-.154-.189-.319-.503-.231-.926l1.775-8.571c.828-3.996,3.786-7.157,7.72-8.25.763-.212,1.33-.855,1.444-1.639.114-.784-.245-1.562-.916-1.983-2.438-1.529-3.893-4.15-3.893-7.011,0-4.565,3.714-8.279,8.279-8.279s8.279,3.714,8.279,8.279Z"/></svg>