<?xml version="1.0" encoding="UTF-8"?><svg id="Icons" xmlns="http://www.w3.org/2000/svg" viewBox="0 0 64 64"><defs><style>.cls-1{fill:#fff;}</style></defs><path class="cls-1" d="M57.723,37.143c.449-1.952.703-3.977.703-6.065,0-14.955-12.123-27.078-27.078-27.078S4.27,16.123,4.27,31.078s12.123,27.078,27.078,27.078c2.997,0,5.877-.493,8.571-1.393.697.806,1.391,1.634,2.07,2.471.911,1.123,2.279,1.766,3.753,1.766h.005c1.479-.001,2.852-.649,3.765-1.778,2.642-3.268,5.611-6.481,8.115-8.788,1.972-1.667,3.104-4.103,3.104-6.707,0-2.626-1.169-4.979-3.007-6.584ZM53.054,35.053c-.352-.043-.707-.072-1.071-.072-2.384,0-4.597.94-6.231,2.614-.951-.964-2.101-1.676-3.364-2.109.044-.635.093-1.268.117-1.909h10.774c-.056.498-.136.989-.226,1.476ZM53.28,28.578h-10.777c-.099-2.701-.357-5.374-.772-7.902,3.442-.505,6.211-1.148,8.096-1.658,1.84,2.81,3.057,6.062,3.453,9.56ZM46.203,14.759c-1.763.399-3.616.743-5.529,1.011-.566-2.058-1.258-3.933-2.074-5.541,2.842.991,5.422,2.543,7.603,4.53ZM31.348,9.401c1.196,0,2.937,2.476,4.271,6.907-1.76.129-3.519.198-5.238.198-1.142,0-2.255-.031-3.34-.084,1.339-4.504,3.1-7.021,4.307-7.021ZM25.919,21.367c1.437.087,2.925.139,4.461.139,2.255,0,4.382-.102,6.373-.265.374,2.188.64,4.641.745,7.336h-12.304c.103-2.644.362-5.054.724-7.21ZM24.1,10.228c-.846,1.668-1.561,3.621-2.138,5.768-2.159-.257-4.11-.585-5.801-.921,2.251-2.137,4.948-3.805,7.939-4.847ZM12.61,19.421c2.173.511,5.007,1.073,8.317,1.486-.393,2.46-.639,5.052-.735,7.671h-10.776c.378-3.332,1.499-6.441,3.195-9.157ZM9.415,33.578h10.774c.096,2.62.343,5.211.737,7.672-3.309.413-6.143.975-8.316,1.486-1.696-2.716-2.818-5.825-3.195-9.158ZM16.162,47.081c1.691-.336,3.642-.665,5.801-.921.577,2.148,1.292,4.101,2.138,5.769-2.991-1.042-5.688-2.71-7.939-4.847ZM25.192,33.578h12.311c-.022.583-.057,1.145-.096,1.7-2.418.601-4.494,2.201-5.668,4.49-.15.292-.28.594-.395.902-.32-.008-.637-.02-.964-.02-1.536,0-3.024.052-4.461.139-.363-2.158-.627-4.56-.728-7.211ZM31.348,52.754c-1.206,0-2.965-2.52-4.303-7.021,1.084-.052,2.196-.084,3.336-.084.208,0,.408.008.612.011.405,1.818,1.382,3.465,2.799,4.686-.874,1.564-1.751,2.407-2.444,2.407ZM56.304,48.935c-2.604,2.398-5.646,5.689-8.347,9.029-.532.658-1.338,1.035-2.211,1.036h-.002c-.869,0-1.671-.374-2.201-1.026-2.783-3.431-5.819-6.724-8.362-9.065-1.523-1.286-2.396-3.166-2.396-5.157,0-1.083.248-2.116.737-3.07,1.161-2.268,3.464-3.676,5.999-3.676h.098c2.125.027,4.07,1.02,5.338,2.724l.806,1.083.801-1.086c1.287-1.745,3.264-2.745,5.423-2.745,3.72,0,6.746,3.026,6.746,6.77,0,1.99-.873,3.87-2.426,5.184Z"/></svg>