<?xml version="1.0" encoding="UTF-8"?><svg id="Icons" xmlns="http://www.w3.org/2000/svg" viewBox="0 0 64 64"><defs><style>.cls-1{fill:#001e5b;}</style></defs><path class="cls-1" d="M55.649,4.968c-.238,0-.48.019-.723.06-7.501,1.238-15.202,1.881-23.054,1.881-7.765,0-15.383-.63-22.805-1.84-.241-.039-.48-.058-.715-.058-2.339,0-4.351,1.866-4.351,4.286v40.999c0,2.419,2.012,4.286,4.351,4.286.236,0,.475-.019.715-.058,7.423-1.211,15.04-1.84,22.805-1.84,7.153,0,14.179.54,21.045,1.571v2.237c0,.298-.252.541-.602.541h-.003c-3.735-.243-12.938-.33-20.304-.33s-16.569.087-20.345.331c-.311,0-.564-.243-.564-.543v-2.278c-.668.099-1.335.197-2,.306v1.972c0,1.415,1.162,2.543,2.564,2.543.057,0,.114-.002.171-.006,3.334-.217,11.754-.326,20.174-.326s16.84.109,20.174.326c.057.004.114.006.171.006,1.402,0,2.564-1.127,2.564-2.543v-1.928s.006,0,.009.001c.243.04.485.06.723.06,2.339,0,4.351-1.866,4.351-4.286V9.254c0-2.42-2.013-4.286-4.351-4.286ZM58,50.336c0,1.26-1.055,2.286-2.351,2.286-.132,0-.266-.011-.398-.033-7.674-1.266-15.54-1.908-23.38-1.908-7.754,0-15.535.628-23.127,1.866-.131.021-.263.032-.393.032-1.296,0-2.351-1.025-2.351-2.286V9.296c0-.61.245-1.183.689-1.612.449-.434,1.04-.673,1.662-.673.13,0,.263.011.393.032,7.592,1.239,15.374,1.867,23.127,1.867,7.84,0,15.706-.642,23.38-1.908.132-.022.266-.033.398-.033,1.297,0,2.351,1.025,2.351,2.286v41.083Z"/><path class="cls-1" d="M38.173,25.237c0,.501-.428.896-.93.863-2.268-.148-2.407-.148-4.676,0-.502.033-.93-.362-.93-.863v-3.618c0-.501.428-.896.93-.863,2.268.148,2.407.148,4.676,0,.502-.033.93.362.93.863v3.618Z"/><path class="cls-1" d="M46.629,25.237c0,.501-.428.896-.93.863-2.268-.148-2.407-.148-4.676,0-.502.033-.93-.362-.93-.863v-3.618c0-.501.428-.896.93-.863,2.268.148,2.407.148,4.676,0,.502-.033.93.362.93.863v3.618Z"/><path class="cls-1" d="M55.084,25.237c0,.501-.428.896-.93.863-2.268-.148-2.407-.148-4.676,0-.502.033-.93-.362-.93-.863v-3.618c0-.501.428-.896.93-.863,2.268.148,2.407.148,4.676,0,.502-.033.93.362.93.863v3.618Z"/><path class="cls-1" d="M38.173,32.617c0,.501-.428.896-.93.863-2.268-.148-2.407-.148-4.676,0-.502.033-.93-.362-.93-.863v-3.618c0-.501.428-.896.93-.863,2.268.148,2.407.148,4.676,0,.502-.033.93.362.93.863v3.618Z"/><path class="cls-1" d="M46.629,32.617c0,.501-.428.896-.93.863-2.268-.148-2.407-.148-4.676,0-.502.033-.93-.362-.93-.863v-3.618c0-.501.428-.896.93-.863,2.268.148,2.407.148,4.676,0,.502-.033.93.362.93.863v3.618Z"/><path class="cls-1" d="M55.084,32.617c0,.501-.428.896-.93.863-2.268-.148-2.407-.148-4.676,0-.502.033-.93-.362-.93-.863v-3.618c0-.501.428-.896.93-.863,2.268.148,2.407.148,4.676,0,.502-.033.93.362.93.863v3.618Z"/><path class="cls-1" d="M38.173,39.998c0,.501-.428.896-.93.863-2.268-.148-2.407-.148-4.676,0-.502.033-.93-.362-.93-.863v-3.618c0-.501.428-.896.93-.863,2.268.148,2.407.148,4.676,0,.502-.033.93.362.93.863v3.618Z"/><path class="cls-1" d="M46.629,39.998c0,.501-.428.896-.93.863-2.268-.148-2.407-.148-4.676,0-.502.033-.93-.362-.93-.863v-3.618c0-.501.428-.896.93-.863,2.268.148,2.407.148,4.676,0,.502-.033.93.362.93.863v3.618Z"/><path class="cls-1" d="M55.084,39.998c0,.501-.428.896-.93.863-2.268-.148-2.407-.148-4.676,0-.502.033-.93-.362-.93-.863v-3.618c0-.501.428-.896.93-.863,2.268.148,2.407.148,4.676,0,.502-.033.93.362.93.863v3.618Z"/><path class="cls-1" d="M26.227,28.827h-1.283c-.137-.46-.318-.901-.543-1.315l.906-.906c.773-.774.773-2.027,0-2.801-.774-.772-2.027-.772-2.801,0l-.906.906c-.414-.225-.855-.406-1.315-.543v-1.282c0-1.094-.887-1.98-1.98-1.98s-1.98.887-1.98,1.98v1.282c-.459.137-.9.318-1.314.543l-.906-.906c-.774-.772-2.027-.772-2.801,0-.773.774-.773,2.027,0,2.801l.906.906c-.225.414-.406.855-.543,1.315h-1.282c-1.094,0-1.98.887-1.98,1.98s.886,1.98,1.98,1.98h1.282c.137.46.318.901.543,1.315l-.906.906c-.773.774-.773,2.027,0,2.801.387.386.894.58,1.401.58s1.014-.193,1.401-.58l.906-.906c.415.225.855.406,1.315.543v1.283c0,1.094.886,1.98,1.98,1.98s1.98-.887,1.98-1.98v-1.283c.46-.137.901-.318,1.316-.543l.906.906c.387.386.893.58,1.4.58s1.014-.193,1.401-.58c.773-.774.773-2.027,0-2.801l-.906-.906c.225-.414.406-.855.543-1.315h1.282c1.094,0,1.98-.886,1.98-1.98s-.887-1.98-1.98-1.98ZM18.305,33.779c-1.638,0-2.971-1.333-2.971-2.97s1.333-2.971,2.971-2.971,2.97,1.333,2.97,2.971-1.333,2.97-2.97,2.97Z"/></svg>