<?xml version="1.0" encoding="UTF-8"?><svg id="Icons" xmlns="http://www.w3.org/2000/svg" viewBox="0 0 64 64"><defs><style>.cls-1{fill:#001e5b;}.cls-2{fill:#fff;}</style></defs><path class="cls-1" d="M14.698,9.465c-1.738-1.776-3.368-3.754-3.55-4.271-.138-.693-.751-1.178-1.433-1.168-.766-.129-1.495.353-1.649,1.121-.193.564-1.824,2.541-3.562,4.318-.561.574-.551,1.493.023,2.053.283.276.649.414,1.015.414.377,0,.753-.146,1.038-.437.219-.224.464-.48.718-.75.001.042-.005.082-.003.125l1.234,34.826c.042.78.509,1.383,1.071,1.383s1.029-.603,1.071-1.383l1.234-34.826c.002-.043-.004-.083-.003-.125.254.27.499.526.718.75.285.291.661.437,1.038.437.366,0,.733-.138,1.015-.414.573-.561.583-1.48.023-2.053Z"/><path class="cls-1" d="M58.765,52.954c-.554-.19-2.571-1.855-4.317-3.562-.572-.56-1.492-.552-2.053.023-.561.573-.551,1.493.022,2.053.224.219.48.464.75.719-.042.001-.082-.005-.125-.003l-34.826,1.234c-.78.042-1.383.509-1.383,1.071s.603,1.029,1.383,1.071l34.826,1.234c.042.002.082-.004.124-.003-.27.254-.526.499-.749.718-.573.561-.583,1.48-.023,2.053.285.291.661.437,1.038.437.366,0,.733-.138,1.015-.414,1.746-1.707,3.763-3.371,4.271-3.55.69-.138,1.167-.744,1.167-1.422.131-.771-.349-1.506-1.12-1.66Z"/><path class="cls-2" d="M33.458,43.911c.048.033.096.065.144.098v-.105c-.122-.054-.221-.089-.261-.072l.117.08Z"/><path class="cls-1" d="M54.539,16.555c.067-1.742-.679-2.216-1.296-2.453-.051-.026-.091-.067-.145-.09-.207-.087-.405-.179-.61-.267-.002,0-.003-.001-.005-.002-.127-.055-.252-.11-.378-.166-.19-.083-.381-.166-.57-.249-.552-.245-1.096-.493-1.633-.745-.002,0-.005-.002-.007-.003,0,0-.002,0-.003-.001-.293-.137-.588-.274-.877-.413-.596-.287-1.179-.58-1.757-.875-.003-.002-.007-.004-.011-.006-.08-.041-.159-.081-.24-.121-.131-.065-.262-.13-.389-.197-.777-.407-1.539-.822-2.281-1.246-.111-.064-.219-.129-.328-.194-.036-.022-.072-.043-.109-.065-.004-.002-.007-.005-.011-.007-.585-.34-1.161-.685-1.723-1.036,0,0-.001-.001-.002-.001-.157-.098-.309-.198-.462-.297-.086-.056-.173-.111-.259-.167-.459-.296-.912-.596-1.355-.901-.25-.172-.497-.345-.742-.52-.428-.305-.847-.615-1.259-.929,0,0-.002-.002-.003-.003-.123-.093-.244-.187-.367-.281-.102-.078-.204-.154-.304-.233-.099-.078-.204-.152-.301-.231-.43-.344-.952-.519-1.475-.519-.495,0-.99.156-1.405.472-.124.094-.252.184-.376.277-.066.05-.133.098-.2.147-.18.133-.359.266-.54.397-.001,0-.003.002-.004.003-.433.316-.871.628-1.313.936,0,0-.002.002-.004.002-.176.122-.353.243-.53.364-.082.056-.162.112-.244.168-.463.313-.933.62-1.407.924-.002.001-.004.003-.006.004-.217.139-.433.28-.651.417-.022.014-.045.029-.067.043-.608.38-1.226.752-1.85,1.117-.003.002-.006.004-.009.005-.093.054-.184.11-.276.165-.017.01-.033.02-.05.03-.739.427-1.492.842-2.254,1.248,0,0,0,0,0,0-.221.118-.447.23-.67.346-.002,0-.004.002-.005.003-.547.285-1.098.566-1.657.84-.286.14-.576.276-.864.414-.516.245-1.036.486-1.561.722-.303.136-.606.271-.912.404-.195.085-.386.174-.583.258-.458.195-.825.52-1.078.916-.002.004-.006.008-.008.012h0c-.282.447-.419.984-.358,1.539.022.204.038.406.059.609.035.333.066.666.097.999.053.562.099,1.123.14,1.682.024.325.049.651.069.975.038.603.067,1.203.092,1.802.012.269.027.538.035.806.028.861.045,1.719.046,2.573,0,.01,0,.019,0,.029,0,.083-.003.164-.004.247h0c-.001.762-.014,1.521-.037,2.277-.002.075-.001.151-.004.227-.007.208-.023.413-.032.62-.024.568-.051,1.135-.087,1.699-.02.315-.043.63-.067.944-.042.538-.088,1.075-.141,1.61-.031.312-.062.623-.096.933-.019.168-.032.338-.052.506-.124,1.045.48,2.034,1.453,2.436.052.022.107.048.159.07.532.223,1.069.459,1.614.714.089.042.179.086.268.128.528.25,1.061.512,1.6.789.058.03.116.058.174.088.413.214.83.435,1.249.664.158.086.317.177.476.266.116.065.232.129.349.195.574.323,1.153.657,1.738,1.005.093.055.187.113.28.169.567.339,1.137.688,1.712,1.049.06.038.12.074.18.111.605.381,1.216.774,1.83,1.175.122.079.243.159.365.239.606.399,1.216.806,1.83,1.221.095.064.191.13.286.195.6.408,1.202.823,1.807,1.245.04.028.079.054.119.082.213.149.444.252.683.322.11.052.219.103.234.103.077-.002.183-.015.281-.025.049.003.097.022.146.022v-.035c.51-.066,1.16-.216,1.472-.452,3.784-2.867,7.739-5.334,11.871-7.386,1.565-.822,3.086-1.538,4.554-2.124.749-.514,1.14-1.434.979-2.359-.891-5.101-.226-10.915.063-18.402ZM22.111,14.466l.193-.092c.231-.11.463-.22.692-.332.566-.277,1.125-.562,1.679-.851.008-.004.017-.009.025-.013l.254-.131c.142-.072.283-.145.423-.219.003-.002.007-.004.011-.006.825-.44,1.582-.859,2.318-1.284l.065-.039.133-.08.141-.084c.642-.375,1.275-.757,1.907-1.151l.068-.043c.154-.098.308-.196.461-.295l.203-.131.012-.008c.485-.311.966-.625,1.44-.946l.166-.113.089-.062.1-.068.415-.286c.01-.007.021-.014.03-.021.45-.313.895-.63,1.336-.952.006-.005.013-.009.019-.014l.549-.405.068-.05.142-.105.144-.106c.082-.06.165-.12.244-.18.056-.042.121-.064.194-.064.057,0,.142.014.223.078.069.056.142.11.213.164l.102.078c.083.065.167.13.252.194l.077.059.17.13.177.135c.008.006.017.013.025.019.428.325.863.648,1.309.965.254.181.51.361.77.539.458.315.928.626,1.403.933l.106.068.15.097.092.06c.125.081.249.161.376.241.007.005.015.01.022.014.566.354,1.146.701,1.756,1.056.012.007.025.015.036.021l.086.051.07.042c.097.058.193.115.292.172.74.423,1.529.854,2.343,1.28.136.071.274.141.424.215l.188.095c.007.004.014.008.022.012.008.004.016.008.023.012.592.303,1.19.603,1.8.897.242.117.488.231.734.346l.164.077s.006.003.009.004c.002,0,.004.002.006.003.258.12.517.24.777.359-.409.192-.808.388-1.209.583-3.304,1.359-5.139,2.205-8.666,4.821l-.416.31c-.978.646-1.921,1.304-2.826,1.975-.035.026-.069.053-.103.081l-.97.824-1.12-.95c-.039-.033-.079-.065-.121-.095-3.926-2.845-8.246-5.38-12.881-7.562.196-.091.392-.183.587-.276ZM33.901,44.193l-.299-.184c-.048-.033-.096-.065-.144-.098l-.117-.08c-.043.018-.091-.028-.14-.095l-.032-.022c-.622-.421-1.239-.833-1.853-1.237l-.299-.196-.071-.047c-.624-.407-1.245-.807-1.859-1.193l-.113-.07-.07-.044c-.586-.367-1.168-.723-1.744-1.068l-.102-.062-.188-.113c-.598-.355-1.19-.697-1.779-1.029l-.357-.199-.174-.098-.315-.175c-.432-.236-.861-.463-1.289-.685l-.118-.06-.061-.031c-.559-.287-1.111-.559-1.658-.818l-.1-.048-.179-.085c-.544-.254-1.112-.505-1.708-.755-.049-.022-.099-.044-.146-.064-.153-.063-.248-.209-.231-.354.013-.106.023-.213.033-.32l.02-.199c.036-.319.067-.639.099-.959.054-.55.102-1.1.145-1.653.024-.323.049-.646.069-.969.037-.579.065-1.161.089-1.743l.013-.245c.008-.13.015-.26.02-.392l.003-.167v-.065c.024-.775.037-1.553.039-2.334v-.076s.003-.208.003-.208c0-.835-.016-1.697-.047-2.635-.006-.179-.014-.359-.022-.539l-.014-.286c-.025-.613-.055-1.227-.094-1.843-.018-.289-.04-.579-.061-.87l-.009-.129c-.042-.571-.09-1.144-.143-1.718h0c-.048-.429-.205-1.404-.151-1.687s.283-.443.283-.443c5.285,2.351,9.995,5.072,14.2,8.119l1.223,1.038c.176.144.332.297.472.456l-.207,19.184c-.295-.161-.582-.303-.819-.408ZM52.506,35.299c.018.103-.004.205-.057.283-1.391.57-2.878,1.269-4.395,2.066-3.896,1.936-7.704,4.269-11.334,6.945l.21-19.509c0-.024-.001-.071-.003-.116.127-.123.339-.292.454-.384l.138-.112,3.081-2.296c2.713-1.799,5.65-3.46,8.797-4.992.292-.12.577-.238.897-.369.65-.266,1.358-.555,2.141-.881.026.009.053.019.078.028.018.088.038.25.028.515-.067,1.742-.154,3.387-.239,4.977-.277,5.214-.517,9.718.204,13.845Z"/><path class="cls-2" d="M33.341,43.831l-.139-.095c.049.067.096.112.139.095Z"/></svg>