<?xml version="1.0" encoding="UTF-8"?><svg id="Icons" xmlns="http://www.w3.org/2000/svg" viewBox="0 0 64 64"><defs><style>.cls-1{fill:#001e5b;}.cls-2{fill:#fff;}.cls-3{fill:#05628a;}.cls-4{fill:#0d9dda;}</style></defs><path class="cls-3" d="M34.455,24.962l-1.223-1.038c-4.71-3.413-10.047-6.42-16.122-8.951-.282.447-.42.984-.358,1.539.023.204.038.406.059.609.035.333.067.666.097.998.052.562.098,1.123.14,1.682.024.325.049.651.069.975.038.603.067,1.203.092,1.802.011.269.027.538.035.806.028.861.045,1.719.046,2.573,0,.01,0,.019,0,.029,0,.083-.004.164-.004.247h0c-.002.762-.014,1.521-.037,2.277-.002.075-.001.152-.004.227-.007.208-.023.413-.032.62-.024.568-.051,1.135-.087,1.699-.02.315-.044.63-.068.944-.041.538-.088,1.075-.141,1.61-.031.311-.061.623-.096.933-.019.168-.032.338-.052.506-.124,1.045.48,2.034,1.453,2.436.052.022.107.048.159.07.532.223,1.069.459,1.614.713.089.041.179.086.268.128.528.25,1.061.512,1.6.789.058.03.116.058.174.088.414.214.83.435,1.249.664.158.086.317.178.476.266.116.065.232.129.349.195.574.323,1.153.657,1.738,1.004.093.055.187.113.281.169.567.34,1.137.689,1.712,1.049.06.038.119.074.18.111.606.381,1.216.774,1.83,1.175.121.079.243.159.364.239.607.399,1.216.805,1.83,1.221.095.064.191.13.286.195.6.408,1.202.823,1.807,1.245.04.028.079.054.119.082.405.283.874.42,1.344.423v-19.941c0-.134.028-.253.044-.378-.102-.821-.513-1.477-1.191-2.033Z"/><path class="cls-1" d="M54.226,14.993c-6.141,2.588-11.627,5.579-16.317,9.057l-1.074.911c-.678.556-1.088,1.212-1.191,2.033-.016.126-.044.244-.044.378v19.941c.029,0,.059.003.088.002.488-.015.973-.179,1.384-.49,3.784-2.867,7.739-5.334,11.871-7.386,1.565-.822,3.086-1.538,4.554-2.124.748-.514,1.14-1.434.978-2.359-.89-5.101-1.08-10.997.063-18.402.086-.557-.037-1.104-.313-1.562Z"/><path class="cls-4" d="M54.198,14.951c-.256-.407-.632-.742-1.099-.939-.207-.087-.405-.179-.611-.267-.002,0-.003-.001-.005-.002-.127-.055-.252-.11-.379-.166-.19-.083-.381-.166-.57-.249-.552-.245-1.096-.493-1.634-.745-.002,0-.004-.002-.007-.003,0,0-.002,0-.003-.001-.293-.137-.588-.274-.877-.413-.596-.287-1.179-.58-1.757-.875-.004-.002-.007-.004-.011-.006-.079-.041-.159-.081-.24-.121-.131-.065-.262-.131-.389-.197-.777-.407-1.538-.822-2.281-1.246-.111-.064-.219-.129-.328-.194-.036-.022-.073-.043-.11-.065-.004-.002-.008-.005-.011-.007-.585-.34-1.161-.685-1.723-1.036,0,0-.001-.001-.002-.001-.156-.098-.308-.198-.461-.297-.086-.056-.173-.111-.259-.167-.459-.296-.912-.596-1.355-.901-.25-.172-.497-.346-.742-.52-.428-.305-.847-.615-1.259-.929-.001,0-.002-.002-.003-.003-.123-.093-.244-.187-.367-.281-.102-.077-.204-.154-.304-.233-.099-.078-.204-.153-.301-.231-.837-.671-2.026-.696-2.88-.046-.124.094-.252.184-.377.277-.066.05-.133.098-.2.147-.18.133-.359.266-.54.397-.001,0-.003.002-.004.003-.433.316-.871.628-1.313.936-.001,0-.003.002-.004.003-.176.122-.353.243-.53.364-.082.056-.162.112-.244.168-.463.313-.933.62-1.407.924l-.006.004c-.217.139-.433.28-.651.417-.023.014-.045.029-.067.043-.608.38-1.226.752-1.85,1.117-.003.002-.006.003-.009.005-.093.054-.184.11-.276.165-.017.01-.033.02-.05.03-.739.427-1.492.842-2.254,1.248,0,0,0,0-.001,0-.221.118-.447.23-.67.346-.002,0-.003.002-.005.003-.547.285-1.098.566-1.657.84-.286.14-.576.276-.864.414-.516.245-1.036.486-1.561.722-.303.136-.606.271-.912.404-.196.085-.386.175-.583.258-.457.195-.824.52-1.078.916-.003.004-.006.008-.008.012,6.075,2.531,11.412,5.539,16.122,8.951l1.223,1.038c.678.556,1.088,1.212,1.191,2.033.102-.821.513-1.477,1.191-2.033l1.074-.911c4.69-3.479,10.175-6.469,16.317-9.057-.009-.014-.02-.028-.029-.042Z"/><path class="cls-4" d="M14.698,9.465c-1.738-1.776-3.368-3.754-3.55-4.271-.138-.693-.751-1.178-1.433-1.168-.766-.129-1.495.353-1.649,1.121-.193.564-1.824,2.541-3.562,4.318-.561.574-.551,1.493.023,2.053.283.276.649.414,1.015.414.377,0,.753-.146,1.038-.437.219-.224.464-.48.718-.75.001.042-.005.082-.003.125l1.234,34.826c.042.78.509,1.383,1.071,1.383s1.029-.603,1.071-1.383l1.234-34.826c.002-.043-.004-.083-.003-.125.254.27.499.526.718.75.285.291.661.437,1.038.437.366,0,.733-.138,1.015-.414.573-.561.583-1.48.023-2.053Z"/><path class="cls-4" d="M58.765,52.954c-.554-.19-2.571-1.855-4.317-3.562-.572-.56-1.492-.552-2.053.023-.561.573-.551,1.493.022,2.053.224.219.48.464.75.719-.042.001-.082-.005-.125-.003l-34.826,1.234c-.78.042-1.383.509-1.383,1.071s.603,1.029,1.383,1.071l34.826,1.234c.042.002.082-.004.124-.003-.27.254-.526.499-.749.718-.573.561-.583,1.48-.023,2.053.285.291.661.437,1.038.437.366,0,.733-.138,1.015-.414,1.746-1.707,3.763-3.371,4.271-3.55.69-.138,1.167-.744,1.167-1.422.131-.771-.349-1.506-1.12-1.66Z"/><path class="cls-2" d="M36.267,9.879c-.268-.89.706-1.489,1.504-1.012,3.07,1.835,6.204,3.563,9.398,5.18.647.328.664,1.225-.023,1.459-.399.2-9.263-.871-10.782-5.324-.034-.101-.067-.202-.097-.303Z"/></svg>