<?xml version="1.0" encoding="UTF-8"?><svg id="Icons" xmlns="http://www.w3.org/2000/svg" viewBox="0 0 64 64"><defs><style>.cls-1{fill:#04e1cb;}.cls-2{fill:#024d4c;}.cls-3{fill:#fff;}.cls-4{fill:#03b4a7;}</style></defs><path class="cls-2" d="M56.308,21.537h-2.802c-.412-1.593-1.045-3.097-1.861-4.482l1.984-1.984c.856-.856.856-2.244,0-3.1l-3.1-3.1c-.856-.856-2.244-.856-3.1,0l-1.969,1.969c-1.388-.825-2.898-1.466-4.497-1.885v-2.763c0-1.211-.981-2.192-2.192-2.192h-4.384c-1.211,0-2.192.981-2.192,2.192v2.734c-1.613.411-3.136,1.049-4.537,1.874l-1.929-1.929c-.856-.856-2.244-.856-3.1,0l-3.1,3.1c-.856.856-.856,2.244,0,3.1l1.914,1.914c-.835,1.404-1.482,2.932-1.901,4.552h-2.692c-1.211,0-2.192.981-2.192,2.192v4.384c0,1.211.981,2.192,2.192,2.192h2.692c.418,1.62,1.066,3.148,1.901,4.552l-1.915,1.915c-.856.856-.856,2.244,0,3.1l3.1,3.1c.856.856,2.244.856,3.1,0l1.929-1.929c1.401.824,2.924,1.463,4.537,1.874v2.734c0,1.211.981,2.192,2.192,2.192h4.384c1.211,0,2.192-.981,2.192-2.192v-2.763c1.599-.419,3.109-1.06,4.497-1.885l1.969,1.969c.856.856,2.244.856,3.1,0l3.1-3.1c.856-.856.856-2.244,0-3.1l-1.984-1.984c.815-1.385,1.449-2.889,1.861-4.482h2.802c1.211,0,2.192-.981,2.192-2.192v-4.384c0-1.211-.981-2.192-2.192-2.192Z"/><path class="cls-1" d="M36.579,34.728c-4.856,0-8.807-3.951-8.807-8.807s3.951-8.807,8.807-8.807,8.807,3.951,8.807,8.807-3.951,8.807-8.807,8.807ZM36.579,21.518c-2.428,0-4.404,1.975-4.404,4.404s1.975,4.403,4.404,4.403,4.404-1.975,4.404-4.403-1.975-4.404-4.404-4.404Z"/><path class="cls-3" d="M36.579,21.353c-2.519,0-4.568,2.049-4.568,4.568s2.049,4.568,4.568,4.568,4.568-2.049,4.568-4.568-2.049-4.568-4.568-4.568Z"/><path class="cls-1" d="M36.579,57.719c0,1.419-1.35,2.48-2.804,2.249-4.144-.658-8.398-1-12.735-1s-8.591.342-12.735,1c-1.454.231-2.804-.83-2.804-2.249v-17.912c0-1.419,1.35-2.48,2.804-2.249,4.144.658,8.398,1,12.735,1s8.591-.342,12.735-1c1.454-.231,2.804.83,2.804,2.249v17.912Z"/><path class="cls-3" d="M33.705,39.734c.321-.051.585.088.691.288.091.149.131.345.088.55-.016,1.099.057,2.025-.042,3.134-.04.444-.517.702-.823.379-.199-.21-.366-.45-.493-.712-.265-.496-.415-1.252-.974-1.574-.441-.255-1.601-.303-2.15-.335-.944-.035-1.796.157-2.448-.211-.523-.295-.233-.923.366-.946,1.142-.044,2.352-.136,3.603-.277.747-.085,1.476-.184,2.181-.295Z"/><path class="cls-4" d="M7.054,37.676c.032,8.983,4.937,16.86,12.303,21.31-3.756.077-7.446.41-11.052.983-1.454.231-2.804-.83-2.804-2.249v-17.912c0-.992.66-1.809,1.554-2.132Z"/><path class="cls-2" d="M25.615,48.764c0,.921.746,1.667,1.667,1.667s1.667-.746,1.667-1.667c0-.282-.077-.544-.201-.778-.28-.527-.828-.889-1.466-.889-.48,0-.909.206-1.213.53-.279.298-.454.696-.454,1.137Z"/><circle class="cls-2" cx="14.796" cy="48.764" r="1.667"/><path class="cls-3" d="M21.215,46.701c-.057-.005-.112-.017-.171-.017-1.148,0-2.08.931-2.08,2.08s.931,2.08,2.08,2.08c.957,0,1.754-.65,1.997-1.53.049-.176.083-.358.083-.55,0-1.09-.841-1.974-1.909-2.062Z"/></svg>