<?xml version="1.0" encoding="UTF-8"?><svg id="Icons" xmlns="http://www.w3.org/2000/svg" viewBox="0 0 64 64"><defs><style>.cls-1{fill:#001e5b;}</style></defs><path class="cls-1" d="M19.868,30.306c.209.81.476,1.597.794,2.357-.319-.76-.585-1.547-.794-2.357h0Z"/><path class="cls-1" d="M48.888,43.574c.276.054.561.054.837,0-.138.027-.278.04-.419.04s-.281-.013-.419-.04Z"/><path class="cls-1" d="M19.574,14.727c-.241-.365-.361-.785-.361-1.206,0,.421.12.842.361,1.206Z"/><path class="cls-1" d="M19.213,13.521c0-.421.12-.842.361-1.206-.241.365-.361.785-.361,1.206Z"/><path class="cls-1" d="M56.635,21.537h-2.802c-.206-.797-.467-1.571-.779-2.319-.312-.748-.674-1.47-1.082-2.163l1.984-1.984c.856-.856.856-2.244,0-3.1l-3.1-3.1c-.428-.428-.989-.642-1.55-.642-.14,0-.281.013-.419.04-.415.08-.81.281-1.131.602l-1.969,1.969c-1.388-.826-2.898-1.466-4.497-1.885v-2.763c0-1.211-.981-2.192-2.192-2.192h-4.384c-1.211,0-2.192.981-2.192,2.192v2.734c-.807.206-1.591.468-2.348.782s-1.488.68-2.189,1.092l-1.929-1.929c-.107-.107-.222-.201-.344-.281-.365-.241-.785-.361-1.206-.361-.14,0-.281.013-.419.04-.415.08-.81.281-1.131.602l-3.1,3.1c-.107.107-.201.222-.281.344-.241.365-.361.785-.361,1.206s.12.842.361,1.206c.08.122.174.237.281.344l1.914,1.914c-.835,1.404-1.482,2.932-1.901,4.552h-2.692c-1.211,0-2.192.981-2.192,2.192v4.384c0,1.211.981,2.192,2.192,2.192h2.692c.209.81.476,1.597.794,2.357.318.76.689,1.493,1.107,2.195l-1.915,1.915c-.48.48-.683,1.126-.621,1.751-3.712-.082-7.363-.398-10.929-.964-.134-.021-.268-.032-.399-.032-.025,0-.049.006-.075.007-.071.002-.139.012-.208.02-.097.011-.193.024-.287.046-.069.016-.135.037-.201.059-.089.029-.176.061-.26.099-.063.029-.125.06-.185.094-.081.045-.157.095-.231.148-.055.04-.11.08-.161.124-.07.06-.134.125-.196.193-.045.049-.091.096-.131.148-.058.075-.107.156-.156.238-.032.054-.067.106-.095.163-.046.095-.078.195-.109.297-.016.052-.039.1-.051.154-.037.158-.058.322-.058.491v17.912c0,.17.022.334.058.492.012.053.035.101.051.153.032.102.064.203.11.298.027.057.062.108.094.162.049.082.098.164.156.239.04.052.086.099.131.147.063.068.126.133.197.193.051.044.106.084.161.124.074.053.151.103.231.148.06.034.122.065.185.094.085.039.171.071.261.1.066.021.132.042.201.058.094.022.189.035.287.046.069.008.138.018.208.02.025,0,.049.007.075.007.132,0,.265-.01.399-.032,4.144-.658,8.398-1,12.735-1,3.253,0,6.459.192,9.607.566,1.049.125,2.092.269,3.128.434h0c.134.021.268.032.399.032.025,0,.049-.006.075-.007.071-.002.139-.012.208-.02.097-.011.193-.024.287-.046.069-.016.135-.037.201-.059.089-.029.176-.061.26-.099.063-.029.125-.06.185-.094.081-.045.157-.095.231-.148.055-.04.11-.08.161-.124.07-.06.134-.125.196-.193.045-.049.091-.096.132-.148.058-.075.107-.156.155-.238.032-.054.067-.106.095-.162.046-.095.078-.195.109-.297.016-.052.039-.1.051-.154.037-.158.058-.322.058-.491v-9.877h2.519c1.211,0,2.192-.981,2.192-2.192v-2.763c1.599-.419,3.109-1.06,4.497-1.885l1.969,1.969c.163.163.35.285.544.386.188.098.383.176.587.215.138.027.278.04.419.04s.281-.013.419-.04c.204-.039.399-.118.587-.215.195-.101.381-.223.544-.386l3.1-3.1c.856-.856.856-2.244,0-3.1l-1.984-1.984c.815-1.385,1.449-2.889,1.861-4.482h2.802c1.211,0,2.192-.981,2.192-2.192v-4.384c0-1.211-.981-2.192-2.192-2.192ZM21.039,56.968c-4.375,0-8.766.345-13.048,1.025-.029.005-.058.007-.086.007-.208,0-.405-.136-.405-.281v-17.912c0-.144.197-.281.405-.281.028,0,.057.002.086.007,4.283.68,8.673,1.025,13.048,1.025s8.765-.345,13.048-1.025c.029-.005.058-.007.086-.007.208,0,.405.136.405.281v17.912c0,.144-.197.281-.405.281-.028,0-.057-.002-.086-.007-4.283-.68-8.673-1.025-13.048-1.025ZM56.827,28.114c0,.106-.086.192-.192.192h-2.802c-.912,0-1.708.617-1.936,1.5-.357,1.381-.911,2.716-1.648,3.968-.462.786-.335,1.784.309,2.429l1.984,1.984c.075.075.075.197,0,.272l-3.1,3.1c-.037.037-.083.056-.136.056s-.099-.019-.136-.056l-1.969-1.969c-.385-.385-.898-.586-1.415-.586-.351,0-.704.092-1.022.281-1.249.743-2.589,1.305-3.981,1.669-.88.23-1.493,1.025-1.493,1.935v2.763c0,.106-.086.192-.192.192h-2.519v-6.035c0-1.288-1.112-2.281-2.405-2.281-.132,0-.265.01-.399.032-1.036.164-2.079.309-3.128.434-3.043.361-6.142.548-9.283.56l-.094-.094c-.037-.037-.056-.083-.056-.136s.019-.099.056-.136l1.915-1.915c.647-.647.772-1.65.305-2.437-.753-1.267-1.32-2.622-1.683-4.03-.228-.883-1.025-1.5-1.936-1.5h-2.692c-.106,0-.192-.086-.192-.192v-4.384c0-.106.086-.192.192-.192h2.692c.912,0,1.708-.617,1.936-1.5.364-1.407.93-2.763,1.683-4.03.468-.786.342-1.79-.305-2.437l-1.914-1.914c-.075-.075-.075-.197,0-.272l3.1-3.1c.037-.037.083-.056.136-.056s.098.019.136.056l1.929,1.929c.385.385.897.586,1.415.586.348,0,.698-.091,1.014-.276,1.264-.744,2.615-1.302,4.016-1.659.886-.226,1.506-1.024,1.506-1.938v-2.734c0-.106.086-.192.192-.192h4.384c.106,0,.192.086.192.192v2.763c0,.909.614,1.704,1.493,1.935,1.392.365,2.732.926,3.981,1.669.318.189.671.281,1.022.281.517,0,1.029-.2,1.415-.586l1.969-1.969c.037-.037.083-.056.136-.056s.099.019.136.056l3.1,3.1c.037.037.056.083.056.136s-.019.099-.056.136l-1.984,1.984c-.644.644-.772,1.643-.309,2.429.737,1.251,1.291,2.586,1.648,3.968.228.883,1.024,1.5,1.936,1.5h2.802c.106,0,.192.086.192.192v4.384Z"/><path class="cls-1" d="M30.646,59.535c1.049.125,2.092.269,3.128.434h0,0c-1.036-.164-2.079-.309-3.128-.434Z"/><path class="cls-1" d="M34.945,59.868c-.066.022-.133.043-.201.059.069-.016.135-.037.201-.059Z"/><path class="cls-1" d="M6.458,59.527c-.055-.04-.11-.08-.161-.124.052.044.106.084.161.124Z"/><path class="cls-1" d="M36.52,58.211c-.012.053-.035.102-.051.154.016-.052.039-.1.051-.154Z"/><path class="cls-1" d="M7.622,37.554c.069-.008.138-.018.208-.02-.071.002-.139.012-.208.02Z"/><path class="cls-1" d="M36.36,58.662c-.027.057-.063.108-.095.162.032-.054.067-.106.095-.162Z"/><path class="cls-1" d="M6.874,59.769c-.063-.029-.125-.06-.185-.094.06.034.121.065.185.094Z"/><path class="cls-1" d="M7.335,59.927c-.068-.016-.135-.037-.201-.058.066.022.132.042.201.058Z"/><path class="cls-1" d="M36.109,59.062c-.041.052-.087.1-.132.148.045-.049.091-.096.132-.148Z"/><path class="cls-1" d="M7.83,59.993c-.071-.002-.139-.012-.208-.02.069.008.138.018.208.02Z"/><path class="cls-1" d="M34.457,59.973c-.069.008-.138.018-.208.02.071-.002.139-.012.208-.02Z"/><path class="cls-1" d="M35.782,59.403c-.051.044-.106.084-.161.124.055-.04.109-.08.161-.124Z"/><path class="cls-1" d="M35.39,59.675c-.06.034-.122.065-.185.094.064-.029.125-.06.185-.094Z"/><path class="cls-1" d="M6.297,38.124c.051-.044.106-.084.161-.124-.055.04-.109.08-.161.124Z"/><path class="cls-1" d="M5.969,38.465c.041-.052.086-.1.131-.148-.045.049-.091.096-.131.148Z"/><path class="cls-1" d="M6.1,59.21c-.045-.048-.09-.096-.131-.147.04.052.086.099.131.147Z"/><path class="cls-1" d="M7.134,37.659c.066-.022.133-.043.201-.059-.069.016-.135.037-.201.059Z"/><path class="cls-1" d="M6.689,37.852c.06-.034.122-.065.185-.094-.064.029-.125.06-.185.094Z"/><path class="cls-1" d="M5.719,38.865c.027-.057.063-.108.095-.163-.032.054-.067.106-.095.163Z"/><path class="cls-1" d="M5.609,58.364c-.016-.051-.038-.1-.051-.153.012.053.035.101.051.153Z"/><path class="cls-1" d="M5.813,58.823c-.032-.054-.067-.105-.094-.162.027.057.062.108.094.162Z"/><path class="cls-1" d="M5.558,39.316c.012-.053.035-.102.051-.154-.016.052-.039.1-.051.154Z"/><path class="cls-1" d="M36.579,19.114c3.753,0,6.807,3.054,6.807,6.807s-3.054,6.807-6.807,6.807-6.807-3.054-6.807-6.807,3.054-6.807,6.807-6.807M36.579,17.114c-4.856,0-8.807,3.951-8.807,8.807s3.951,8.807,8.807,8.807,8.807-3.951,8.807-8.807-3.951-8.807-8.807-8.807h0Z"/><path class="cls-1" d="M25.615,48.764c0,.921.746,1.667,1.667,1.667s1.667-.746,1.667-1.667c0-.282-.077-.544-.201-.778-.28-.527-.828-.889-1.466-.889-.48,0-.909.206-1.213.53-.279.298-.454.696-.454,1.137Z"/><circle class="cls-1" cx="14.796" cy="48.764" r="1.667"/><path class="cls-1" d="M21.215,46.701c-.057-.005-.112-.017-.171-.017-1.148,0-2.08.931-2.08,2.08s.931,2.08,2.08,2.08c.957,0,1.754-.65,1.997-1.53.049-.176.083-.358.083-.55,0-1.09-.841-1.974-1.909-2.062Z"/><path class="cls-1" d="M36.579,23.353c1.416,0,2.568,1.152,2.568,2.568s-1.152,2.568-2.568,2.568-2.568-1.152-2.568-2.568,1.152-2.568,2.568-2.568M36.579,21.353c-2.519,0-4.568,2.049-4.568,4.568s2.049,4.568,4.568,4.568,4.568-2.049,4.568-4.568-2.049-4.568-4.568-4.568h0Z"/></svg>