<?xml version="1.0" encoding="UTF-8"?><svg id="Icons" xmlns="http://www.w3.org/2000/svg" viewBox="0 0 64 64"><defs><style>.cls-1{fill:#fff;}</style></defs><path class="cls-1" d="M42.716,25.434h-21.432c-1.381,0-2.5-1.119-2.5-2.5s1.119-2.5,2.5-2.5h21.432c1.381,0,2.5,1.119,2.5,2.5s-1.119,2.5-2.5,2.5Z"/><path class="cls-1" d="M47.855,35.768H15.145c-1.381,0-2.5-1.119-2.5-2.5s1.119-2.5,2.5-2.5h32.711c1.381,0,2.5,1.119,2.5,2.5s-1.119,2.5-2.5,2.5Z"/><path class="cls-1" d="M42.716,46.101h-21.432c-1.381,0-2.5-1.119-2.5-2.5s1.119-2.5,2.5-2.5h21.432c1.381,0,2.5,1.119,2.5,2.5s-1.119,2.5-2.5,2.5Z"/><path class="cls-1" d="M51.851,10.842l-.002-.002c-11.123-10.419-28.549-10.419-39.671,0-2.319,2.173-4.255,4.698-5.767,7.526-.084.154-.167.309-.251.47-.244.479-.475.962-.688,1.445-2.08,4.646-2.875,9.8-2.298,14.903l.05.389c.078.612.169,1.221.286,1.825.079.42.167.838.266,1.259l.044.193c.029.127.058.254.09.377.159.624.351,1.27.586,1.978l.074.215c1.27,3.711,3.255,7.081,5.93,10.05l.442.486c2.956,3.149,6.701,5.629,10.824,7.171l.137.051c.365.134.732.261,1.104.381l.38.123c.286.088.572.17.873.253.194.054.388.108.583.158.196.05.392.094.588.139l.103.023c.249.058.498.115.751.167l.433.079c.327.061.654.121.983.17l.243.032c.573.081,1.149.144,1.728.19l.212.019c.197.017.394.034.626.046.311.017.624.028.928.034l17.67.004h0s8.738.002,8.738.002c1.74,0,3.155-1.415,3.155-3.155v-25.86c-.014-7.971-3.348-15.677-9.149-21.144ZM59,57.845c0,.637-.518,1.155-1.155,1.155h-8.738s0-.001,0-.001l-17.357-.003-.266-.002c-.29-.005-.579-.016-.897-.033-.177-.01-.353-.025-.529-.041l-.224-.019c-.541-.044-1.078-.103-1.608-.177l-.229-.03c-.307-.046-.611-.103-.917-.16l-.404-.074c-.232-.046-.462-.1-.693-.153,0,0-.109-.025-.111-.025-.18-.041-.359-.082-.538-.127-.181-.046-.36-.097-.559-.152-.269-.074-.537-.15-.8-.232l-.354-.114c-.345-.112-.689-.23-1.03-.356l-.123-.046c-3.841-1.436-7.323-3.742-10.069-6.667l-.445-.494c-2.464-2.732-4.313-5.869-5.497-9.329l-.067-.196c-.219-.66-.398-1.261-.546-1.842-.028-.107-.052-.214-.076-.321l-.048-.209c-.091-.389-.173-.778-.248-1.173-.108-.565-.194-1.132-.265-1.697l-.047-.364c-.536-4.75.202-9.545,2.138-13.87.2-.455.415-.904.639-1.342l.249-.464c1.396-2.613,3.199-4.964,5.358-6.987,5.178-4.851,11.823-7.276,18.468-7.276s13.29,2.425,18.467,7.275c5.402,5.091,8.507,12.268,8.52,19.688v25.858Z"/></svg>