<?xml version="1.0" encoding="UTF-8"?><svg id="Icons" xmlns="http://www.w3.org/2000/svg" viewBox="0 0 64 64"><defs><style>.cls-1{fill:#001e5b;}.cls-2{fill:#fff;}.cls-3{fill:#05628a;}.cls-4{fill:#0d9dda;}.cls-5{fill:#0d9dda;}</style></defs><path class="cls-5" d="M10.602,15.783v27.538c0,2.131,1.052,4.125,2.811,5.329l14.941,10.223c2.198,1.504,5.094,1.504,7.292,0l14.941-10.223c1.759-1.203,2.811-3.197,2.811-5.329V15.796c0-2.078-.991-4.032-2.681-5.24-3.851-2.751-10.638-6.556-18.716-6.556s-14.886,3.799-18.724,6.549c-1.686,1.208-2.673,3.16-2.673,5.234Z"/><path class="cls-2" d="M51.037,21.044c.022-2.043,0-2.129,0-2.129,0-2.472-.164-4.295-2.032-5.915-2.035-1.764-6.042-4.179-9.7-5.152-.475-.126-1.379,1.523.7,3.152,5.377,4.214,7,4,8,9.001,1.24,6.202,3,4,3.032,1.043Z"/><path class="cls-1" d="M27.79,44.06c-.014,0-.028,0-.042,0-.751-.013-1.457-.362-1.921-.952l-6.555-8.319c-.854-1.084-.668-2.657.417-3.511,1.084-.853,2.656-.668,3.511.417l4.658,5.912,13.19-15.615c.89-1.054,2.468-1.188,3.523-.296,1.055.891,1.188,2.468.296,3.523l-15.167,17.956c-.475.563-1.174.887-1.91.887Z"/><path class="cls-4" d="M11.599,46.746c-.223-.356-.421-.727-.571-1.12.15.393.348.764.571,1.12Z"/><path class="cls-3" d="M24.069,47.464c-8.656-7.503-12.727-20.176-13.317-31.327-.098.455-.149.927-.149,1.414v25.77c0,.799.148,1.579.425,2.305.15.393.348.764.571,1.12.465.741,1.072,1.395,1.814,1.904l14.941,10.223c2.198,1.504,5.094,1.504,7.292,0l10.047-6.874.065-.194s-11.625,4.382-21.689-4.34Z"/></svg>