<?xml version="1.0" encoding="UTF-8"?><svg id="Icons" xmlns="http://www.w3.org/2000/svg" viewBox="0 0 64 64"><defs><style>.cls-1{fill:#fff;}</style></defs><path class="cls-1" d="M50.716,10.556c-3.851-2.751-10.638-6.556-18.716-6.556s-14.886,3.799-18.724,6.549c-1.686,1.208-2.673,3.16-2.673,5.234v27.538c0,2.131,1.052,4.125,2.811,5.329l14.941,10.223c2.198,1.504,5.094,1.504,7.292,0l14.941-10.223c1.759-1.203,2.811-3.197,2.811-5.329V15.796c0-2.078-.99-4.032-2.681-5.24ZM44.868,25.217l-15.167,17.956c-.476.562-1.175.887-1.91.887h-.043c-.75-.013-1.456-.363-1.921-.953l-6.555-8.318c-.854-1.084-.668-2.656.417-3.511,1.085-.855,2.657-.668,3.511.417l4.658,5.911,13.189-15.615c.893-1.056,2.469-1.188,3.523-.297,1.055.892,1.188,2.469.297,3.523Z"/></svg>