<?xml version="1.0" encoding="UTF-8"?><svg id="Icons" xmlns="http://www.w3.org/2000/svg" viewBox="0 0 64 64"><defs><style>.cls-1{fill:#001e5b;}.cls-2{fill:#fff;}.cls-3{fill:#eaf5fe;}.cls-4{fill:#05628a;}.cls-5{fill:#0d9dda;}</style></defs><path class="cls-5" d="M59.146,50.805l-9.152-9.152c2.284-3.75,3.601-8.152,3.601-12.855,0-13.669-11.12-24.789-24.789-24.789-8.461,0-15.942,4.264-20.417,10.753-1.75,5.938-1.646,12.245.395,17.999,1.1,3.102,2.751,6.045,4.997,8.677.606.71,1.249,1.369,1.91,2.002,1.061,1.018,2.184,1.943,3.368,2.763,1.033.715,2.105,1.358,3.214,1.921,5.384,2.736,11.568,3.679,17.647,2.774-3.347,1.684-7.127,2.633-11.129,2.633-9.834,0-18.33-5.726-22.336-14.026,4.003,8.322,12.518,14.08,22.353,14.08,4.703,0,9.104-1.317,12.855-3.601,0,0,0,0,0,0,3.399-2.07,6.263-4.934,8.333-8.333l.281.281c-.579,4.391-2.66,8.263-5.668,10.998l6.207,6.207c1.139,1.139,2.985,1.139,4.124,0l4.208-4.208c1.139-1.139,1.139-2.985,0-4.124ZM33.712,8.938c5.479-1.339,11.01,2.034,12.354,7.534.096.393.168.786.217,1.179.025.202-.015.363-.082.502-.278.579-1.207.604-1.681-.099-2.533-3.757-6.345-6.447-10.656-7.593-.801-.213-.969-1.217-.244-1.484.032-.012.056-.031.092-.04ZM16.817,39.416c-2.511-2.832-4.051-6.545-4.051-10.619,0-8.845,7.196-16.04,16.04-16.04s16.04,7.196,16.04,16.04c0,4.075-1.54,7.789-4.053,10.621-2.941,3.315-7.218,5.419-11.987,5.419s-9.048-2.105-11.989-5.421Z"/><path class="cls-2" d="M46.066,16.473c-1.344-5.5-6.875-8.873-12.354-7.534-.036.009-.06.028-.092.04-.724.267-.557,1.271.244,1.484,4.311,1.145,8.123,3.836,10.656,7.593.474.703,1.403.678,1.681.099.067-.139.107-.3.082-.502-.049-.392-.121-.785-.217-1.179Z"/><path class="cls-4" d="M49.994,41.652c-2.07,3.399-4.934,6.263-8.333,8.333,0,0,0,0,0,0l2.946,2.946h0c3.008-2.735,5.089-6.607,5.668-10.998l-.281-.281Z"/><path class="cls-4" d="M22.271,48.124c-1.109-.563-2.181-1.206-3.214-1.921-1.183-.82-2.306-1.745-3.368-2.763-.661-.634-1.304-1.292-1.91-2.002-2.245-2.632-3.897-5.575-4.997-8.677-2.04-5.754-2.144-12.062-.395-17.999.017-.057.029-.115.046-.172-2.796,4.013-4.435,8.891-4.435,14.153,0,3.857.881,7.508,2.452,10.763,4.007,8.3,12.503,14.026,22.336,14.026,4.002,0,7.783-.949,11.129-2.633-6.079.905-12.263-.038-17.647-2.774Z"/><path class="cls-1" d="M16.817,39.416c-2.511-2.832-4.051-6.545-4.051-10.619,0-8.845,7.196-16.04,16.04-16.04s16.04,7.196,16.04,16.04c0,4.075-1.54,7.789-4.053,10.621-2.941,3.315-7.218,5.419-11.987,5.419s-9.048-2.105-11.989-5.421Z"/><path class="cls-3" d="M23.245,33.722c-1.165-1.314-1.879-3.036-1.879-4.925,0-4.102,3.338-7.44,7.44-7.44s7.44,3.338,7.44,7.44c0,1.89-.714,3.613-1.88,4.926-1.364,1.537-3.348,2.513-5.56,2.513s-4.197-.976-5.561-2.514Z"/></svg>