<?xml version="1.0" encoding="UTF-8"?><svg id="Icons" xmlns="http://www.w3.org/2000/svg" viewBox="0 0 64 64"><defs><style>.cls-1{fill:#fff;}.cls-2{fill:#0d9dda;}.cls-3{fill:#0d9dda;}</style></defs><path class="cls-3" d="M59.146,50.805l-9.152-9.152c2.284-3.75,3.601-8.152,3.601-12.855,0-13.669-11.12-24.789-24.789-24.789-8.461,0-15.942,4.264-20.417,10.753.017-.057.029-.115.046-.172-2.796,4.013-4.435,8.891-4.435,14.153,0,3.857.881,7.508,2.452,10.763,4.003,8.322,12.518,14.08,22.353,14.08,4.703,0,9.104-1.317,12.855-3.601l2.946,2.946h0s6.207,6.207,6.207,6.207c1.139,1.139,2.985,1.139,4.124,0l4.208-4.208c1.139-1.139,1.139-2.985,0-4.124ZM40.793,39.418c-2.941,3.315-7.218,5.419-11.987,5.419s-9.048-2.105-11.989-5.421c-2.511-2.832-4.051-6.545-4.051-10.619,0-8.845,7.196-16.04,16.04-16.04s16.04,7.196,16.04,16.04c0,4.075-1.54,7.789-4.053,10.621Z"/><path class="cls-1" d="M16.817,39.416c-2.511-2.832-4.051-6.545-4.051-10.619,0-8.845,7.196-16.04,16.04-16.04s16.04,7.196,16.04,16.04c0,4.075-1.54,7.789-4.053,10.621-2.941,3.315-7.218,5.419-11.987,5.419s-9.048-2.105-11.989-5.421Z"/><path class="cls-2" d="M23.245,33.722c-1.165-1.314-1.879-3.036-1.879-4.925,0-4.102,3.338-7.44,7.44-7.44s7.44,3.338,7.44,7.44c0,1.89-.714,3.613-1.88,4.926-1.364,1.537-3.348,2.513-5.56,2.513s-4.197-.976-5.561-2.514Z"/></svg>