<?xml version="1.0" encoding="UTF-8"?><svg id="Icons" xmlns="http://www.w3.org/2000/svg" viewBox="0 0 64 64"><defs><style>.cls-1{fill:#001e5b;}</style></defs><path class="cls-1" d="M28.806,6.009c12.566,0,22.789,10.223,22.789,22.789,0,4.175-1.144,8.26-3.309,11.815-.48.788-.359,1.802.294,2.455l9.153,9.152c.233.233.268.506.268.648s-.035.414-.269.648l-4.208,4.208c-.233.234-.506.268-.648.268s-.415-.035-.648-.268l-6.207-6.206-2.946-2.946c-.386-.386-.898-.586-1.415-.586-.357,0-.717.096-1.04.292-3.554,2.165-7.64,3.309-11.814,3.309-8.701,0-16.768-5.082-20.552-12.949-1.495-3.098-2.253-6.426-2.253-9.893,0-4.475,1.287-8.782,3.728-12.496.114-.102.217-.219.307-.35,4.27-6.192,11.287-9.888,18.771-9.888M28.806,4.009c-8.461,0-15.942,4.264-20.417,10.753.017-.057.029-.115.046-.172-2.795,4.013-4.435,8.891-4.435,14.153,0,3.857.881,7.508,2.452,10.763,4.003,8.322,12.518,14.08,22.353,14.08,4.703,0,9.104-1.317,12.855-3.601l2.946,2.946h0s6.207,6.207,6.207,6.207c.569.569,1.316.854,2.062.854s1.493-.285,2.062-.854l4.208-4.208c1.139-1.139,1.139-2.985,0-4.124l-9.152-9.152c2.284-3.75,3.601-8.152,3.601-12.855,0-13.669-11.12-24.789-24.789-24.789h0Z"/><path class="cls-1" d="M28.806,14.757c7.742,0,14.04,6.298,14.04,14.04,0,3.413-1.26,6.714-3.549,9.294-2.676,3.016-6.5,4.746-10.491,4.746s-7.817-1.731-10.493-4.748c-2.287-2.58-3.547-5.88-3.547-9.292,0-7.742,6.298-14.04,14.04-14.04M28.806,12.757c-8.844,0-16.04,7.196-16.04,16.04,0,4.074,1.54,7.786,4.051,10.619,2.941,3.316,7.219,5.421,11.989,5.421s9.046-2.104,11.987-5.419c2.513-2.833,4.053-6.546,4.053-10.621,0-8.845-7.196-16.04-16.04-16.04h0Z"/><path class="cls-1" d="M23.245,33.722c-1.165-1.314-1.879-3.036-1.879-4.925,0-4.102,3.338-7.44,7.44-7.44s7.44,3.338,7.44,7.44c0,1.89-.714,3.613-1.88,4.926-1.364,1.537-3.348,2.513-5.56,2.513s-4.197-.976-5.561-2.514Z"/></svg>