<?xml version="1.0" encoding="UTF-8"?><svg id="Icons" xmlns="http://www.w3.org/2000/svg" viewBox="0 0 64 64"><defs><style>.cls-1{fill:#fff1ea;}.cls-2{fill:#5f3e02;}.cls-3{fill:#fe9339;}.cls-4{fill:#fff;}.cls-5{fill:#dd7a01;}</style></defs><path class="cls-1" d="M24.954,31.899c-1.651-1.191-2.726-3.127-2.726-5.314,0-3.62,2.944-6.554,6.575-6.554s6.574,2.934,6.574,6.554c0,2.187-1.074,4.124-2.726,5.314,3.589.513,6.729,2.884,7.802,6.407l.339,1.114c2.513-2.833,4.053-6.548,4.053-10.624,0-8.847-7.196-16.045-16.04-16.045s-16.04,7.198-16.04,16.045c0,4.075,1.539,7.789,4.051,10.622l.334-1.101c1.07-3.528,4.211-5.904,7.804-6.418Z"/><path class="cls-2" d="M28.806,44.841c4.769,0,9.046-2.105,11.987-5.42l-.339-1.114c-1.073-3.524-4.212-5.894-7.802-6.407,1.651-1.191,2.726-3.127,2.726-5.314,0-3.62-2.943-6.554-6.574-6.554s-6.575,2.934-6.575,6.554c0,2.187,1.075,4.124,2.726,5.314-3.593.514-6.734,2.89-7.804,6.418l-.334,1.101c2.941,3.317,7.219,5.423,11.989,5.423Z"/><path class="cls-3" d="M41.661,49.99s0,0,0,0c3.399-2.07,6.263-4.935,8.333-8.335l.281.281c-.579,4.392-2.66,8.266-5.668,11.001l6.207,6.209c1.139,1.139,2.985,1.139,4.124,0l4.208-4.21c1.139-1.139,1.139-2.986,0-4.126l-9.152-9.155c2.284-3.752,3.601-8.154,3.601-12.859,0-13.673-11.12-24.796-24.789-24.796-8.461,0-15.942,4.265-20.417,10.756-1.75,5.939-1.646,12.249.395,18.005,1.1,3.103,2.751,6.047,4.997,8.68.606.71,1.249,1.369,1.91,2.003,1.061,1.018,2.184,1.944,3.368,2.764,1.033.715,2.105,1.358,3.214,1.922,5.384,2.737,11.568,3.68,17.647,2.775M33.712,8.931c5.479-1.339,11.01,2.035,12.354,7.537.096.393.168.787.217,1.179.025.202-.015.364-.082.503-.278.579-1.207.604-1.681-.099-2.533-3.758-6.345-6.449-10.656-7.595-.801-.213-.969-1.217-.244-1.484.032-.012.056-.031.092-.04ZM16.817,39.418c-2.511-2.833-4.051-6.547-4.051-10.622,0-8.847,7.196-16.045,16.04-16.045s16.04,7.198,16.04,16.045c0,4.076-1.54,7.791-4.053,10.624-2.941,3.316-7.218,5.42-11.987,5.42s-9.048-2.106-11.989-5.423Z"/><path class="cls-4" d="M46.066,16.468c-1.344-5.502-6.875-8.876-12.354-7.537-.036.009-.06.028-.092.039-.724.267-.557,1.271.244,1.484,4.311,1.146,8.123,3.837,10.656,7.595.474.703,1.403.678,1.681.099.067-.139.107-.301.082-.503-.049-.392-.121-.786-.217-1.179Z"/><path class="cls-5" d="M49.994,41.655c-2.07,3.4-4.934,6.265-8.333,8.335,0,0,0,0,0,0l2.946,2.947h0c3.008-2.735,5.089-6.609,5.668-11.001l-.281-.281Z"/><path class="cls-5" d="M22.271,48.129c-1.109-.563-2.181-1.206-3.214-1.922-1.183-.82-2.306-1.746-3.368-2.764-.661-.634-1.304-1.293-1.91-2.003-2.245-2.633-3.897-5.577-4.997-8.68-2.04-5.756-2.144-12.065-.395-18.005.017-.057.083-.087.1-.144-2.796,4.014-4.489,8.866-4.489,14.129,0,3.858.881,7.51,2.452,10.766,4.007,8.302,12.503,14.03,22.336,14.03,4.002,0,7.783-.949,11.129-2.634-6.079.905-12.263-.039-17.647-2.775Z"/></svg>