<?xml version="1.0" encoding="UTF-8"?><svg id="Icons" xmlns="http://www.w3.org/2000/svg" viewBox="0 0 64 64"><defs><style>.cls-1{fill:#fff;}</style></defs><path class="cls-1" d="M28.806,6c12.566,0,22.789,10.226,22.789,22.796,0,4.176-1.144,8.263-3.309,11.819-.48.788-.358,1.802.294,2.454l9.152,9.155c.358.358.358.94,0,1.297l-4.209,4.21c-.233.234-.506.268-.648.268s-.414-.035-.648-.268l-6.207-6.208-2.946-2.947c-.384-.385-.896-.586-1.415-.586-.316,0-.634.075-.928.229l-1.714.898c-3.19,1.606-6.632,2.421-10.23,2.421-8.693,0-16.753-5.063-20.535-12.899-1.495-3.099-2.254-6.429-2.254-9.897,0-4.548,1.395-8.987,4.034-12.837.016-.023.031-.047.046-.071.03-.041.059-.084.087-.127,4.28-6.08,11.242-9.707,18.639-9.707M28.806,4c-8.402,0-15.836,4.207-20.321,10.622-.008.018-.02.034-.034.049-.001.002-.002.003-.003.005.001-.002.002-.003.003-.005-.024.026-.052.051-.062.085-.002.006-.003.012-.005.018-2.73,3.983-4.384,8.773-4.384,13.967,0,3.858.881,7.51,2.452,10.766,4.007,8.302,12.503,14.03,22.336,14.03,4.002,0,7.783-.949,11.129-2.634l1.743-.913,2.946,2.947h0s6.207,6.208,6.207,6.208c.569.57,1.316.854,2.062.854s1.493-.285,2.062-.854l4.208-4.21c1.139-1.139,1.139-2.986,0-4.125l-9.152-9.155c2.284-3.752,3.601-8.154,3.601-12.859,0-13.673-11.12-24.796-24.789-24.796h0ZM8.489,14.612c-.013.019-.025.039-.038.059,0,0,0,0,0,0,.011-.016.023-.033.034-.049.001-.003.003-.006.004-.01h0Z"/><path class="cls-1" d="M40.781,39.382c2.497-2.822,4.025-6.521,4.025-10.586,0-8.837-7.163-16-16-16s-16,7.163-16,16c0,4.063,1.527,7.761,4.023,10.583l-.012.039c.199.225.42.429.631.643.026.026.051.053.078.079.347.346.709.674,1.086.987.011.009.023.019.034.028,2.769,2.288,6.296,3.686,10.16,3.686s7.39-1.397,10.158-3.684c.013-.011.026-.022.04-.033.375-.312.735-.638,1.081-.982.028-.028.055-.057.083-.085.209-.212.428-.414.626-.637l-.012-.039ZM28.806,14.678c7.784,0,14.118,6.333,14.118,14.118,0,3.191-1.077,6.128-2.868,8.495-1.324-2.956-4.174-4.93-7.404-5.391,1.651-1.191,2.726-3.127,2.726-5.314,0-3.62-2.943-6.554-6.574-6.554s-6.575,2.934-6.575,6.554c0,2.187,1.075,4.124,2.726,5.314-3.227.462-6.076,2.435-7.401,5.387-1.79-2.366-2.865-5.301-2.865-8.49,0-7.784,6.333-14.118,14.118-14.118ZM26.124,30.277c-1.187-.856-1.896-2.236-1.896-3.692,0-2.511,2.052-4.554,4.575-4.554s4.574,2.043,4.574,4.554c0,1.456-.709,2.836-1.895,3.692-.662.477-.967,1.308-.772,2.1.195.792.852,1.386,1.659,1.502,2.994.428,5.358,2.346,6.17,5.005-2.615,2.527-6.105,3.957-9.733,3.957s-7.121-1.431-9.736-3.96c.802-2.618,3.221-4.58,6.168-5.002.807-.116,1.464-.71,1.659-1.502s-.111-1.623-.772-2.1Z"/></svg>