<?xml version="1.0" encoding="UTF-8"?><svg id="Icons" xmlns="http://www.w3.org/2000/svg" viewBox="0 0 64 64"><defs><style>.cls-1{fill:none;}.cls-2{fill:#fe9339;}.cls-3{fill:#fe9339;}.cls-4{fill:#fff;}</style></defs><path class="cls-1" d="M20.107,33.978c-.792.636-1.461,1.412-2.002,2.284h0c.541-.872,1.21-1.647,2.002-2.284Z"/><path class="cls-1" d="M28.803,20.031c-.454,0-.897.046-1.325.133.428-.087.871-.133,1.325-.133h0Z"/><polygon class="cls-1" points="25.332 44.459 25.331 44.459 25.334 44.46 25.334 44.46 25.332 44.459"/><path class="cls-1" d="M28.793,44.84s.008,0,.013,0h0s-.008,0-.013,0h0Z"/><path class="cls-1" d="M26.984,44.734c.019.002.038.006.057.009-.019-.003-.037-.006-.056-.009,0,0,0,0,0,0Z"/><path class="cls-2" d="M59.146,50.81l-9.152-9.155c2.284-3.752,3.601-8.154,3.601-12.859,0-13.673-11.12-24.796-24.789-24.796-8.461,0-15.942,4.265-20.417,10.756.017-.057.029-.115.046-.172-2.796,4.014-4.435,8.894-4.435,14.157,0,3.858.881,7.51,2.452,10.766,4.003,8.324,12.518,14.084,22.353,14.084,4.703,0,9.104-1.317,12.855-3.602l2.946,2.947h0s6.207,6.208,6.207,6.208c1.139,1.139,2.985,1.139,4.124,0l4.208-4.21c1.139-1.139,1.139-2.986,0-4.125ZM43.557,35.037c-.003.007-.006.014-.01.021-.184.434-.391.855-.61,1.268-.052.097-.106.192-.159.287-.176.315-.365.623-.561.924-.1.154-.203.305-.308.456-.163.232-.334.458-.509.681-.146.186-.293.37-.446.549-.055.064-.104.134-.16.197-.08.09-.171.169-.253.258-.24.259-.485.512-.741.755-.059.055-.11.118-.169.172-.074.068-.156.125-.231.192-.13.115-.267.221-.4.332-.143.119-.282.242-.43.356-.143.111-.288.219-.435.325-.003.002-.005.004-.008.006-.283.204-.574.397-.871.583,0,0,0,0,0,0-.169.106-.337.21-.51.31,0,0,0,0,0,0-.175.101-.357.19-.536.283-.115.059-.226.123-.342.181-.197.098-.392.196-.593.286,0,0,0,0,0,0-.283.126-.573.236-.865.346-.181.068-.361.135-.543.199-.046.016-.09.035-.136.05,0,0,0,0,0,0-.28.091-.567.164-.853.239-.062.016-.125.031-.187.048-.186.051-.371.104-.562.145-.293.062-.594.102-.893.148-.252.039-.5.089-.755.115-.035.004-.07.003-.105.006-.416.04-.838.061-1.262.069-.103.002-.202.017-.305.017h0s-.008,0-.013,0c-.005,0-.009,0-.014,0-.583,0-1.158-.035-1.726-.096-.001,0-.003,0-.004,0-.003,0-.006,0-.009-.001-.019-.003-.037-.006-.057-.009-.56-.062-1.109-.156-1.65-.274-.001,0-.002,0-.004,0-.54-.119-1.067-.273-1.585-.444-.018-.006-.037-.009-.054-.015-.036-.012-.069-.03-.105-.042-6.303-2.16-10.842-8.119-10.842-15.157,0-7.237,4.793-13.35,11.376-15.347,1.483-.454,3.056-.702,4.686-.702,8.844,0,16.04,7.198,16.04,16.045,0,2.218-.469,4.321-1.289,6.241Z"/><path class="cls-3" d="M39.629,40.605c.059-.055.111-.117.169-.172-.131.124-.266.245-.401.364.075-.066.158-.124.231-.192Z"/><path class="cls-3" d="M40.54,39.678c.082-.088.173-.168.253-.258l-.005-.016c-.082.092-.165.183-.248.273Z"/><path class="cls-3" d="M28.793,44.84s.008,0,.013,0c.103,0,.202-.015.304-.017-.106.002-.21.016-.317.016Z"/><path class="cls-3" d="M39.481,36.225h0c-.269-.429-.57-.835-.901-1.212.331.377.631.783.901,1.212Z"/><path class="cls-3" d="M33.864,44.004c.182-.064.363-.131.543-.199,0,0,0,0,0,0-.18.068-.361.135-.543.199Z"/><path class="cls-3" d="M32.688,44.341c.062-.017.125-.032.187-.048h0c-.062.017-.125.031-.186.048Z"/><polygon class="cls-3" points="38.125 41.817 38.133 41.811 38.125 41.816 38.125 41.817"/><path class="cls-3" d="M39.398,40.797c.075-.066.158-.124.231-.192-.074.068-.156.125-.231.192,0,0,0,0,0,0Z"/><path class="cls-3" d="M28.806,44.841c.103,0,.202-.015.305-.017h0c-.102.002-.201.017-.304.017Z"/><path class="cls-4" d="M25.334,44.46c.541.119,1.09.212,1.65.274,0,0,0,0,0,0-.559-.064-1.111-.154-1.651-.274,0,0,0,0,0,0Z"/><path class="cls-4" d="M25.332,44.459c-.54-.12-1.068-.271-1.586-.445.518.174,1.046.324,1.585.444h0Z"/><path class="cls-4" d="M21.954,43.283c-.441-.209-.873-.433-1.29-.681.418.246.848.473,1.29.681h0Z"/><path class="cls-4" d="M20.664,42.602c-.01-.006-.021-.012-.031-.018.004.003.008.006.012.008.006.004.013.006.019.01Z"/><path class="cls-4" d="M22.006,43.308c-.017-.008-.035-.017-.053-.025,0,0,0,0,0,0,.018.008.035.017.052.025Z"/><path class="cls-4" d="M23.586,43.958c.036.012.069.03.105.042.018.006.037.009.054.015-.054-.018-.106-.039-.16-.057-.488-.17-.964-.365-1.431-.578-.05-.023-.1-.047-.149-.072.05.024.099.049.15.072.467.212.941.41,1.43.578Z"/><path class="cls-4" d="M35.272,43.459s0,0,0,0c.201-.09.396-.188.593-.286.116-.057.227-.121.342-.181-.114.059-.226.123-.341.18-.197.098-.392.196-.594.286Z"/><path class="cls-4" d="M38.133,41.811c.147-.106.292-.214.435-.325.147-.114.287-.237.43-.356-.143.119-.282.242-.429.356-.143.111-.288.219-.435.326Z"/><path class="cls-4" d="M27.05,44.744s-.006,0-.009-.001c.003,0,.006.001.009.001.001,0,.003,0,.004,0,.567.061,1.142.096,1.726.096.005,0,.009,0,.014,0h0c-.295,0-.581-.032-.872-.048s-.585-.016-.872-.048Z"/><path class="cls-4" d="M31.234,44.634c-.252.039-.5.089-.756.115-.035.004-.07.003-.105.006.035-.003.071-.002.105-.006.255-.027.503-.077.755-.115.299-.046.6-.086.893-.148.19-.041.376-.094.562-.145-.186.051-.371.104-.562.145-.293.062-.593.102-.892.148Z"/><path class="cls-4" d="M34.407,43.805c.291-.109.581-.22.865-.346-.283.126-.574.236-.865.346,0,0,0,0,0,0Z"/><path class="cls-4" d="M32.874,44.293h0c.286-.076.573-.148.853-.239,0,0,0,0,0,0,.046-.015.09-.034.136-.05-.045.016-.09.035-.136.05-.28.091-.568.164-.854.239Z"/><path class="cls-4" d="M39.398,40.797s0,0,0,0c-.13.115-.267.221-.4.332.133-.111.27-.217.4-.332Z"/><path class="cls-4" d="M38.125,41.817s0,0,0,0c-.283.204-.575.397-.871.583.297-.186.587-.379.871-.583Z"/><path class="cls-4" d="M36.744,42.71s0,0,0,0c-.175.101-.357.19-.536.283.18-.093.362-.183.537-.283.173-.1.341-.204.51-.31,0,0,0,0,0,0,0,0,0,0,0,0-.169.106-.337.21-.51.31Z"/><path class="cls-4" d="M29.11,44.824c.425-.009.846-.03,1.262-.069-.416.04-.838.061-1.263.069h0Z"/><path class="cls-2" d="M37.496,33.974c-1.368-1.097-3.05-1.818-4.845-2.075.206-.149.404-.309.591-.48.562-.513,1.035-1.123,1.391-1.803.475-.906.744-1.937.744-3.031,0-2.715-1.656-5.044-4.015-6.039-.393-.166-.806-.295-1.234-.382s-.871-.133-1.325-.133-.897.046-1.325.133c-.214.044-.424.098-.63.161-.618.192-1.196.471-1.721.825-1.749,1.178-2.899,3.172-2.899,5.435,0,.273.017.543.049.807.065.529.194,1.039.378,1.521.184.482.423.938.711,1.358.431.63.969,1.182,1.588,1.628-1.796.257-3.48.98-4.848,2.079-.792.636-1.461,1.412-2.002,2.284,2.359,3.367,6.261,5.578,10.674,5.578s8.346-2.227,10.702-5.615c-.269-.429-.57-.835-.901-1.212-.331-.377-.693-.725-1.084-1.039Z"/></svg>