<?xml version="1.0" encoding="UTF-8"?><svg id="Icons" xmlns="http://www.w3.org/2000/svg" viewBox="0 0 64 64"><defs><style>.cls-1{fill:#41b658;}.cls-2{fill:#2e844a;}.cls-3{fill:#fff;}.cls-4{fill:#004f2e;}</style></defs><path class="cls-4" d="M34.886,34.8c1.202,0,2.155,1.008,2.15,2.211,0,.058,0,.116,0,.174,0,7.015,1.594,13.657,4.438,19.585.701,1.461-.322,3.23-1.943,3.23h-15.102c-1.62,0-2.644-1.767-1.944-3.228,2.838-5.923,4.428-12.557,4.428-19.564,0-.065,0-.131,0-.196-.005-1.203.947-2.212,2.15-2.212h5.824Z"/><path class="cls-1" d="M58.944,47.107c-5.088-5.555-9.865-11.399-14.316-17.496.135-.008-6.345-10.649-9.353-16.201-.098-.182-.213-.355-.343-.516-1.354-1.68-3.913-1.68-5.267,0l-1.791,2.223c-.199.247-.377.512-.533.789-4.686,8.368-9.955,16.363-15.737,23.947-1.443,1.701-2.905,3.386-4.402,5.038-.706.78-1.418,1.554-2.136,2.322-1.157,1.238-1.14,3.172.058,4.37.823.823,2.037,1.113,3.153.783,7.541-2.228,15.525-3.425,23.788-3.425,8.197,0,16.119,1.177,23.606,3.371,1.131.331,2.359.037,3.193-.796,1.206-1.206,1.232-3.151.08-4.41Z"/><path class="cls-2" d="M44.627,29.611s-6.832-11.547-9.353-16.201c-.098-.182-.213-.355-.343-.516-1.354-1.68-3.913-1.68-5.267,0l-1.791,2.223c-.199.247-.377.512-.533.789-4.686,8.368-9.955,16.363-15.737,23.947-1.443,1.701-2.905,3.386-4.402,5.038,0,0,9.6-6.939,17.881-10.394,11.744-4.899,19.544-4.887,19.544-4.887Z"/><path class="cls-1" d="M29.766,5.061c1.149-1.415,3.322-1.415,4.471,0,6.67,8.217,14.036,15.845,22.009,22.796,1.179,1.028,1.257,2.842.151,3.948-.708.708-1.752.957-2.712.671-6.852-2.038-14.111-3.133-21.625-3.133-7.564,0-14.87,1.109-21.762,3.174-.964.289-2.013.04-2.724-.672-1.109-1.109-1.031-2.929.152-3.959,7.986-6.958,15.363-14.596,22.042-22.825Z"/><path class="cls-3" d="M34.571,14.817c.028-1.119,1.367-1.438,2.101-.593,2.824,3.252,5.763,6.406,8.811,9.456.618.618.3,1.651-.574,1.661-5.644.066-10.274-4.474-10.34-10.14-.001-.128,0-.256.003-.384Z"/><path class="cls-3" d="M40.871,35.677c.028-1.119,1.367-1.438,2.101-.593,2.824,3.252,5.763,6.406,8.811,9.456.618.618.3,1.651-.574,1.661-5.644.066-10.274-4.474-10.34-10.14-.001-.129,0-.256.003-.384Z"/></svg>