<?xml version="1.0" encoding="UTF-8"?><svg id="Icons" xmlns="http://www.w3.org/2000/svg" viewBox="0 0 64 64"><defs><style>.cls-1{fill:#0d9dda;}</style></defs><path class="cls-1" d="M15.262,40.018c.206-1.372,1.383-2.387,2.769-2.387h5.569c1.546,0,2.8,1.255,2.8,2.803v8.408c0,1.548-1.254,2.803-2.8,2.803h-6.829c-1.712,0-3.023-1.524-2.769-3.218l1.26-8.408Z"/><path class="cls-1" d="M60,25.019c0-1.067-.245-2.075-.672-2.981l-6.273-14.642c-.883-2.06-2.907-3.396-5.147-3.396h-31.815c-2.24,0-4.265,1.337-5.147,3.398l-6.211,14.512c-.466.938-.734,1.991-.734,3.11,0,3.591,2.7,6.546,6.178,6.954l-3.278,21.397c-.545,3.56,2.339,6.63,5.831,6.63.26,0,.523-.017.789-.052,6.047-.799,12.216-1.212,18.481-1.213v.019h.028c4.716,0,9.377.233,13.973.689v-.018c1.508.15,3.009.322,4.503.519.265.035.528.052.788.052,3.503,0,6.392-3.088,5.829-6.656l-3.368-21.355c3.512-.375,6.249-3.349,6.249-6.965ZM54.155,53.807c.165,1.046-.317,1.794-.618,2.147-.565.661-1.383,1.04-2.246,1.04-.131,0-.264-.009-.395-.026-1.623-.214-3.257-.397-4.895-.556v-15.978c0-1.548-1.254-2.803-2.8-2.803h-8.4c-1.546,0-2.8,1.255-2.8,2.803v15.3c-6.31.001-12.66.418-18.874,1.239-.132.017-.265.026-.396.026-.86,0-1.676-.377-2.24-1.034-.302-.351-.784-1.097-.624-2.14l3.398-22.181c2.565-.879,4.454-3.203,4.7-6.005h.071c.314,3.579,3.308,6.387,6.964,6.387s6.651-2.809,6.965-6.387h.069c.314,3.579,3.308,6.387,6.965,6.387s6.652-2.809,6.966-6.387h.068c.243,2.772,2.097,5.076,4.621,5.976l3.5,22.193Z"/></svg>