<?xml version="1.0" encoding="UTF-8"?><svg id="Icons" xmlns="http://www.w3.org/2000/svg" viewBox="0 0 64 64"><defs><style>.cls-1{fill:#001e5b;}</style></defs><path class="cls-1" d="M23.6,39.631c.441,0,.8.36.8.803v8.408c0,.443-.359.803-.8.803h-6.829c-.318,0-.516-.174-.605-.278-.09-.104-.233-.327-.186-.644l1.26-8.408c.059-.396.392-.683.791-.683h5.569M23.6,37.631h-5.569c-1.386,0-2.563,1.015-2.769,2.387l-1.26,8.408c-.254,1.694,1.057,3.218,2.769,3.218h6.829c1.546,0,2.8-1.255,2.8-2.803v-8.408c0-1.548-1.254-2.803-2.8-2.803h0Z"/><path class="cls-1" d="M60,25.019c0-1.067-.245-2.075-.672-2.981l-6.273-14.642c-.883-2.06-2.907-3.396-5.147-3.396h-31.815c-2.24,0-4.265,1.337-5.147,3.398l-6.211,14.512c-.466.938-.734,1.991-.734,3.11,0,3.591,2.7,6.546,6.178,6.954l-3.278,21.397c-.545,3.56,2.339,6.63,5.831,6.63.26,0,.523-.017.789-.052,6.047-.799,12.216-1.212,18.481-1.213v.019h.028c2.358,0,4.702.058,7.031.174h0c2.329.115,4.643.288,6.941.516v-.018c1.508.15,3.009.322,4.503.519.265.035.528.052.788.052,3.502,0,6.392-3.088,5.829-6.656l-3.368-21.355c3.512-.375,6.249-3.349,6.249-6.965ZM44,57.252c-.015-.001-.031-.002-.046-.003-1.639-.136-3.281-.244-4.927-.325-.009,0-.018,0-.026-.001-1.667-.081-3.334-.133-5.001-.156v-16.333c0-.443.359-.803.8-.803h8.4c.441,0,.8.36.8.803v16.818ZM55.144,53.651c.169,1.069-.132,2.118-.846,2.954-.755.884-1.851,1.391-3.007,1.391-.174,0-.351-.012-.526-.035-1.58-.208-3.169-.389-4.764-.544v-16.983c0-1.548-1.254-2.803-2.8-2.803h-8.4c-1.546,0-2.8,1.255-2.8,2.803v16.301c-6.267.001-12.573.415-18.743,1.231-.175.023-.352.035-.527.035-1.152,0-2.246-.504-3-1.383-.714-.832-1.017-1.877-.854-2.944l3.334-21.759c3.27-.572,5.76-3.409,5.787-6.839h.006c.03,3.844,3.15,6.951,6.997,6.951s6.973-3.113,6.998-6.961h.005c.024,3.849,3.147,6.961,6.998,6.961s6.98-3.119,6.998-6.972h.003c.017,3.414,2.473,6.246,5.712,6.849l3.43,21.749ZM53,30.026c-2.743,0-4.985-2.235-4.998-4.982-.005-1.101-.903-1.99-2.003-1.99s-1.995.89-2,1.99c-.013,2.747-2.256,4.982-4.998,4.982s-4.98-2.231-4.998-4.974c-.007-1.1-.905-1.987-2.005-1.987s-1.993.888-2,1.987c-.017,2.743-2.259,4.974-4.998,4.974s-4.976-2.228-4.997-4.966c-.009-1.098-.907-1.984-2.006-1.984s-1.991.886-2,1.984c-.022,2.738-2.263,4.966-4.997,4.966-2.757,0-5-2.246-5-5.006,0-.771.177-1.518.526-2.22.017-.034.032-.068.047-.102l6.211-14.512c.568-1.327,1.867-2.185,3.309-2.185h31.815c1.441,0,2.74.857,3.308,2.184l6.273,14.642c.009.022.019.043.029.065.319.678.481,1.394.481,2.128,0,2.761-2.243,5.006-5,5.006Z"/></svg>