<?xml version="1.0" encoding="UTF-8"?><svg id="Icons" xmlns="http://www.w3.org/2000/svg" viewBox="0 0 64 64"><defs><style>.cls-1{fill:#001e5b;}.cls-2{fill:#fff;}.cls-3{fill:#05628a;}.cls-4{fill:#0d9dda;}</style></defs><path class="cls-4" d="M47.716,22.637c3.093,0,5.6,2.51,5.6,5.605v.54c0,.293.023.585.069.874l3.735,23.683c.605,3.832-2.773,7.111-6.617,6.604-6.045-.798-12.212-1.209-18.475-1.209s-12.452.413-18.508,1.214c-3.833.507-7.206-2.753-6.62-6.578l3.635-23.726c.043-.281.065-.565.065-.85v-.553c0-3.096,2.507-5.605,5.6-5.605h31.517Z"/><path class="cls-3" d="M47.716,22.637c3.093,0,5.6,2.51,5.6,5.605v.54c0,.293.023.585.068.874l.725,4.595c-2.197-.213-4.439-.323-6.716-.323-16.127,0-30.48,5.516-39.673,14.091l2.815-18.375c.043-.281.065-.565.065-.85v-.553c0-3.096,2.507-5.605,5.6-5.605h31.517Z"/><path class="cls-4" d="M59.328,22.039l-6.273-14.642c-.883-2.06-2.907-3.396-5.147-3.396h-31.815c-2.24,0-4.265,1.337-5.147,3.398l-6.211,14.512c-.466.938-.734,1.991-.734,3.11,0,3.87,3.134,7.006,7,7.006s6.967-3.107,6.997-6.951h.006c.03,3.844,3.15,6.951,6.997,6.951s6.973-3.113,6.998-6.961h.005c.024,3.849,3.147,6.961,6.998,6.961s6.98-3.119,6.998-6.972h.003c.019,3.854,3.144,6.972,6.998,6.972s7-3.137,7-7.006c0-1.067-.245-2.075-.672-2.981Z"/><path class="cls-2" d="M52.571,16.213c-1.03-2.468-2.147-4.97-2.903-6.634-.537-1.183-1.729-1.947-3.036-1.947h-6.776c-.788,0-1.202.592-1.254,1.142-.052.55.244,1.21,1.018,1.358l5.166.988c1.146.22,2.134.934,2.712,1.96.88,1.559,1.73,3.033,2.528,4.381.28.474.602.818.956,1.025.237.139.479.209.71.209.165,0,.325-.035.474-.107.357-.172.594-.536.65-.998.05-.405-.033-.868-.245-1.377Z"/><path class="cls-1" d="M15.262,40.018c.206-1.372,1.383-2.387,2.769-2.387h5.569c1.546,0,2.8,1.255,2.8,2.803v8.408c0,1.548-1.254,2.803-2.8,2.803h-6.829c-1.712,0-3.023-1.524-2.769-3.218l1.26-8.408Z"/><path class="cls-1" d="M43.2,37.631c1.546,0,2.8,1.255,2.8,2.803v19.009c-4.596-.456-9.257-.689-13.973-.689h-.028v-18.32c0-1.548,1.254-2.803,2.8-2.803h8.4Z"/></svg>