<?xml version="1.0" encoding="UTF-8"?><svg id="Icons" xmlns="http://www.w3.org/2000/svg" viewBox="0 0 64 64"><defs><style>.cls-1{fill:#fff;}</style></defs><path class="cls-1" d="M32,4c-15.464,0-28,12.536-28,28s12.536,28,28,28,28-12.536,28-28S47.464,4,32,4ZM40.665,48.529l-1.626-6.142c3.523-2.168,5.69-6.052,5.69-10.207,0-2.348-.723-4.697-1.987-6.684l-8.31,12.465h-5.058l-8.31-12.465c-1.265,1.987-1.987,4.336-1.987,6.684,0,4.426,2.529,8.581,6.503,10.568l-1.536,6.052c-3.432-1.626-6.323-4.336-8.31-7.587-5.419-9.032-2.348-20.684,6.684-26.013l9.574,14.994,9.664-14.994c3.071,1.806,5.51,4.426,7.135,7.587,4.878,9.393,1.174,20.864-8.129,25.742Z"/></svg>