<?xml version="1.0" encoding="UTF-8"?><svg id="Icons" xmlns="http://www.w3.org/2000/svg" viewBox="0 0 64 64"><defs><style>.cls-1{fill:#fff;}.cls-2{fill:#05628a;}.cls-3{fill:#0d9dda;}</style></defs><circle class="cls-3" cx="32" cy="32" r="28"/><path class="cls-1" d="M25.581,42.748c-3.974-1.987-6.503-6.142-6.503-10.568,0-2.348.723-4.697,1.987-6.684l8.31,12.465h5.058l8.31-12.465c1.264,1.987,1.987,4.336,1.987,6.684,0,4.155-2.168,8.039-5.69,10.207l1.626,6.142c9.303-4.877,13.007-16.349,8.129-25.742-1.626-3.161-4.064-5.781-7.136-7.587l-9.664,14.994-9.574-14.994c-9.032,5.329-12.103,16.981-6.684,26.013,1.987,3.252,4.877,5.961,8.31,7.587l1.536-6.052Z"/><path class="cls-1" d="M37.504,9.643c5.521-1.56,11.267,1.669,12.833,7.211.112.396.199.794.263,1.19.17,1.056-1.149,1.339-1.778.474-2.712-3.728-6.685-6.325-11.109-7.333-.859-.196-1.058-1.303-.21-1.543Z"/><path class="cls-2" d="M15.17,44.954c-.245-.287-.483-.577-.715-.871-6.211-7.839-8.093-17.884-5.937-27.316-1.766,2.712-3.072,5.75-3.814,9.002-.014.061-.029.122-.042.184-.14.633-.261,1.273-.357,1.921l-.003.023c-.088.599-.152,1.206-.201,1.817-.011.134-.022.269-.031.404-.042.626-.069,1.256-.07,1.893.003,7.328,2.824,13.994,7.433,18.983h0c.852.923,1.763,1.79,2.731,2.591.012.01.023.02.035.029.325.268.656.527.993.78.028.021.057.043.085.065.326.243.657.478.993.706.042.028.083.057.125.085.328.22.661.433.998.64.054.033.107.066.162.099.33.199.665.391,1.004.577.064.035.129.07.193.105.333.179.67.352,1.011.518.075.036.15.072.224.107.335.159.673.313,1.015.459.085.036.17.071.255.106.337.14.677.275,1.021.403.093.034.187.067.281.1.339.121.68.238,1.025.347.104.032.208.062.312.093.339.102.68.201,1.024.291.115.03.232.056.347.084.337.083.676.164,1.018.235.128.026.258.048.387.073.334.064.668.127,1.006.18.145.022.292.038.438.059.325.045.65.09.978.124.18.018.363.028.544.043.298.025.595.053.895.068.327.017.657.021.987.026.157.003.312.012.469.012.663,0,1.319-.03,1.97-.076.132-.009.264-.019.396-.03,1.336-.112,2.647-.316,3.923-.61.066-.015.131-.03.197-.045,3.394-.807,6.55-2.229,9.339-4.147-11.854,2.853-24.533-.62-32.645-10.137Z"/></svg>