<?xml version="1.0" encoding="UTF-8"?><svg xmlns="http://www.w3.org/2000/svg" viewBox="0 0 64 64"><defs><style>.cls-1{fill:#fff;}</style></defs><g id="Background"><rect width="64" height="64"/></g><g id="Icons"><path class="cls-1" d="M39.383,48.239h-5.881v5.881c0,1.509.571,2.879,1.502,3.919.013.015.026.029.04.044.208.227.43.439.67.631.008.006.016.012.024.018.24.19.494.362.762.513.01.006.02.012.03.018.256.142.526.262.804.365.046.017.091.034.138.05.272.093.552.168.84.221.049.009.098.015.147.022.302.048.609.079.924.079h0c.267,0,.53-.018.787-.052.772-.103,1.496-.355,2.143-.727.301-.173.577-.38.841-.601.06-.05.119-.101.177-.154.518-.47.948-1.031,1.272-1.659.027-.052.053-.103.079-.156.367-.768.583-1.623.583-2.533,0-3.252-2.628-5.881-5.881-5.881Z"/><path class="cls-1" d="M24.636,33.537c-3.252,0-5.881,2.628-5.881,5.881v14.702c0,.406.041.803.119,1.186.547,2.682,2.916,4.694,5.761,4.694h0c1.183,0,2.283-.348,3.205-.947.191-.124.372-.26.547-.405.066-.055.126-.116.189-.173.103-.094.206-.187.303-.287.075-.078.144-.162.214-.245.074-.087.149-.173.218-.264.075-.099.144-.201.213-.304.054-.081.107-.162.156-.245.07-.118.136-.238.198-.361.037-.073.072-.147.105-.222.062-.137.12-.276.172-.419.023-.063.042-.127.063-.19.051-.158.099-.316.137-.479.01-.046.017-.093.027-.139.081-.388.134-.787.134-1.2v-14.702c0-3.252-2.629-5.881-5.881-5.881Z"/><path class="cls-1" d="M24.627,18.746h-14.746c-.626,0-1.225.104-1.791.284-.531.169-1.028.411-1.481.715-.037.024-.071.051-.107.076-.175.123-.343.255-.503.397-.047.041-.095.081-.141.124-.187.175-.366.359-.528.557-.831,1.014-1.329,2.312-1.329,3.728,0,.301.03.595.073.884.008.054.015.109.025.163.05.278.118.549.205.811.015.044.032.087.048.13.094.264.203.52.333.765.004.007.007.015.01.022.135.253.293.492.463.721.025.033.049.066.074.099.174.225.362.437.566.635.015.014.03.027.045.041.215.203.443.392.686.561,0,0,0,0,0,0,.243.169.502.317.77.448.025.012.049.024.074.035.761.359,1.609.566,2.507.566h14.746c3.252,0,5.881-2.628,5.881-5.881s-2.628-5.881-5.881-5.881Z"/><path class="cls-1" d="M39.383,4c-3.252,0-5.881,2.628-5.881,5.881v14.746c0,3.252,2.629,5.881,5.881,5.881s5.881-2.628,5.881-5.881v-14.746c0-3.252-2.628-5.881-5.881-5.881Z"/><path class="cls-1" d="M54.119,33.515h-14.746c-3.252,0-5.881,2.628-5.881,5.881s2.628,5.881,5.881,5.881h14.746c3.252,0,5.881-2.628,5.881-5.881s-2.628-5.881-5.881-5.881Z"/><path class="cls-1" d="M54.119,18.746c-3.252,0-5.881,2.628-5.881,5.881v5.881h5.881c3.252,0,5.881-2.628,5.881-5.881s-2.628-5.881-5.881-5.881Z"/><path class="cls-1" d="M24.636,4c-3.252,0-5.881,2.628-5.881,5.881s2.628,5.881,5.881,5.881h5.881v-5.881c0-3.252-2.629-5.881-5.881-5.881Z"/><path class="cls-1" d="M15.761,33.515h-5.881c-.352,0-.693.04-1.027.099-.212.037-.422.081-.626.141-.099.029-.193.068-.29.102-.155.054-.308.109-.456.175-.101.045-.198.097-.295.148-.137.071-.271.144-.401.224-.095.059-.186.121-.277.185-.125.088-.245.18-.363.276-.084.07-.167.139-.247.213-.116.107-.225.22-.331.336-.07.076-.141.149-.207.228-.111.133-.211.274-.31.417-.05.072-.104.14-.151.214-.137.219-.262.445-.37.682-.001.003-.003.005-.005.008-.336.741-.523,1.564-.523,2.432,0,3.252,2.628,5.881,5.881,5.881h0c.242,0,.48-.015.714-.043.703-.085,1.367-.293,1.97-.603.274-.141.531-.307.778-.488.015-.011.029-.024.044-.036.238-.177.459-.373.667-.584,0,0,0,0,0,0h0c1.05-1.062,1.706-2.514,1.706-4.128v-5.881Z"/></g></svg>