<?xml version="1.0" encoding="UTF-8"?><svg id="Icons" xmlns="http://www.w3.org/2000/svg" viewBox="0 0 64 64"><defs><style>.cls-1{fill:#41b658;}.cls-2{fill:#1ab9ff;}.cls-3{fill:#e3066a;}.cls-4{fill:#fcc003;}</style></defs><path class="cls-3" d="M15.765,39.388c0,3.238-2.645,5.883-5.883,5.883s-5.883-2.645-5.883-5.883,2.645-5.883,5.883-5.883h5.883v5.883h0Z"/><path class="cls-3" d="M18.73,39.388c0-3.238,2.645-5.883,5.883-5.883s5.883,2.645,5.883,5.883v14.73c0,3.238-2.645,5.883-5.883,5.883s-5.883-2.645-5.883-5.883v-14.73h0Z"/><path class="cls-2" d="M24.612,15.765c-3.238,0-5.883-2.645-5.883-5.883s2.645-5.883,5.883-5.883,5.883,2.645,5.883,5.883v5.883h-5.883Z"/><path class="cls-2" d="M24.612,18.73c3.238,0,5.883,2.645,5.883,5.883s-2.645,5.883-5.883,5.883h-14.73c-3.238,0-5.883-2.645-5.883-5.883s2.645-5.883,5.883-5.883h14.73,0Z"/><path class="cls-1" d="M48.234,24.612c0-3.238,2.645-5.883,5.883-5.883s5.883,2.645,5.883,5.883-2.645,5.883-5.883,5.883h-5.883v-5.883Z"/><path class="cls-1" d="M45.27,24.612c0,3.238-2.645,5.883-5.883,5.883s-5.883-2.645-5.883-5.883v-14.73c0-3.238,2.645-5.883,5.883-5.883s5.883,2.645,5.883,5.883v14.73h0Z"/><path class="cls-4" d="M39.388,48.234c3.238,0,5.883,2.645,5.883,5.883s-2.645,5.883-5.883,5.883-5.883-2.645-5.883-5.883v-5.883h5.883Z"/><path class="cls-4" d="M39.388,45.27c-3.238,0-5.883-2.645-5.883-5.883s2.645-5.883,5.883-5.883h14.73c3.238,0,5.883,2.645,5.883,5.883s-2.645,5.883-5.883,5.883h-14.73,0Z"/></svg>