<?xml version="1.0" encoding="UTF-8"?><svg id="Icons" xmlns="http://www.w3.org/2000/svg" viewBox="0 0 64 64"><defs><style>.cls-1{fill:#fff;}</style></defs><path class="cls-1" d="M54.519,29.627c-1.328-1.124-3.314-.957-4.437.372l-4.031,4.767c-2.201-2.36-5.034-4.098-8.204-4.962,3.924-2.478,6.538-6.839,6.538-11.819,0-7.724-6.268-13.986-14-13.986s-14,6.262-14,13.986c0,5.048,2.686,9.458,6.699,11.917-6.079,1.779-10.881,6.769-12.219,13.221l-2.411,11.627c-.561,2.707,1.595,5.155,4.282,5.155.177,0,.355-.011.536-.032,5.556-.67,11.211-1.014,16.948-1.014,5.993,0,11.898.376,17.692,1.106.188.024.375.035.559.035,2.678,0,4.833-2.433,4.285-5.136l-2.364-11.664c-.198-.979-.486-1.921-.836-2.828l5.334-6.308c1.123-1.328.957-3.314-.372-4.437ZM48.433,43.597l2.364,11.664c.181.894-.214,1.544-.466,1.852-.461.563-1.138.887-1.859.887-.102,0-.206-.007-.309-.02-5.909-.745-11.946-1.122-17.942-1.122-5.741,0-11.524.346-17.187,1.029-.1.012-.199.018-.297.018-.723,0-1.401-.325-1.862-.891-.252-.31-.647-.963-.461-1.858l2.411-11.627c1.163-5.608,5.31-10.094,10.823-11.707.759-.222,1.316-.871,1.421-1.655.105-.784-.263-1.556-.938-1.97-3.597-2.204-5.744-6.021-5.744-10.211,0-6.609,5.383-11.986,12-11.986s12,5.377,12,11.986c0,4.125-2.096,7.911-5.606,10.128-.671.423-1.028,1.203-.91,1.987.117.784.687,1.425,1.452,1.634,2.938.8,5.489,2.406,7.436,4.563l-8.629,10.204-6.024-8.028c-1.043-1.39-3.018-1.673-4.408-.628-1.391,1.043-1.672,3.017-.628,4.408l8.396,11.188c.575.767,1.468,1.229,2.426,1.257.031,0,.062.001.092.001.925,0,1.805-.407,2.404-1.116l9.671-11.438c.145.475.275.957.376,1.451Z"/></svg>