<?xml version="1.0" encoding="UTF-8"?><svg id="Icons" xmlns="http://www.w3.org/2000/svg" viewBox="0 0 64 64"><defs><style>.cls-1{fill:#07638b;}.cls-2{fill:#129cd8;}.cls-3{fill:#1d2758;}.cls-4{fill:#fff;}</style></defs><path class="cls-2" d="M33.241,29.187c8.326,0,15.5,5.861,17.152,14.013l2.364,11.664c.585,2.889-1.917,5.47-4.845,5.101-5.794-.73-11.699-1.106-17.692-1.106-5.736,0-11.392.345-16.948,1.014-2.928.353-5.416-2.238-4.818-5.123l2.411-11.627c1.683-8.116,8.839-13.936,17.136-13.936h5.24Z"/><path class="cls-3" d="M35.981,54.699c-.03,0-.061,0-.092-.001-.958-.028-1.851-.491-2.426-1.257l-8.396-11.188c-1.044-1.391-.762-3.364.628-4.408,1.39-1.044,3.364-.762,4.408.628l6.024,8.028,13.954-16.502c1.123-1.329,3.109-1.495,4.437-.372,1.328,1.123,1.494,3.109.372,4.437l-16.505,19.52c-.599.708-1.479,1.116-2.404,1.116Z"/><ellipse class="cls-2" cx="30.385" cy="17.986" rx="14" ry="13.986"/><path class="cls-1" d="M22.173,6.681c-1.019,2.165-1.589,4.582-1.589,7.133,0,8.985,7.068,16.32,15.952,16.762-1.857.909-3.945,1.42-6.152,1.42-7.732,0-14-6.262-14-13.986,0-4.66,2.281-8.787,5.789-11.328Z"/><path class="cls-4" d="M29.358,7.763c4.993-1.219,10.033,1.852,11.258,6.859.172.703.26,1.406.269,2.099.017,1.17-1.454,1.299-2.096.321-2.266-3.456-5.711-5.949-9.623-7.042-1.126-.315-1.451-1.75-.333-2.092.172-.053.347-.101.525-.144Z"/><path class="cls-1" d="M16.116,33.837c-.904,2.176-1.403,4.563-1.403,7.065,0,8.731,6.07,16.045,14.225,17.962-5.298.047-10.525.389-15.666,1.009-2.928.353-5.416-2.238-4.818-5.123l2.411-11.627c.762-3.675,2.647-6.88,5.251-9.286Z"/></svg>