<?xml version="1.0" encoding="UTF-8"?><svg id="Icons" xmlns="http://www.w3.org/2000/svg" viewBox="0 0 64 64"><defs><style>.cls-1{fill:#fff;}</style></defs><path class="cls-1" d="M59.914,53.339l-2.394-16.51c1.677-1.194,2.709-3.225,2.384-5.466l-2.24-15.447c-.415-2.862-2.92-4.881-5.741-4.881-.266,0-.536.018-.806.055-1.795.245-3.604.447-5.42.623v-2.108c0-2.922-2.377-5.299-5.299-5.299h-16.796c-2.922,0-5.299,2.377-5.299,5.299v2.112c-1.806-.175-3.605-.375-5.39-.618-.27-.037-.538-.055-.803-.055-2.815,0-5.316,2.01-5.738,4.864l-2.285,15.444c-.333,2.25.704,4.29,2.39,5.487l-2.441,16.494c-.526,3.554,2.364,6.594,5.837,6.594.298,0,.601-.022.906-.069,6.926-1.054,14.018-1.601,21.239-1.601s14.257.542,21.156,1.589c.304.046.605.068.902.068,3.466,0,6.352-3.028,5.838-6.576ZM23.303,9.606c0-.165.134-.299.299-.299h16.796c.165,0,.299.134.299.299v2.502c-2.883.177-5.787.28-8.715.28s-5.808-.102-8.679-.278v-2.504ZM6.065,31.646l2.285-15.444c.266-1.8,1.883-3.157,3.76-3.157.177,0,.357.012.533.036,6.363.867,12.87,1.306,19.339,1.306s13.021-.443,19.407-1.316c.177-.024.358-.037.536-.037,1.883,0,3.5,1.362,3.762,3.168l2.24,15.447c.154,1.059-.154,2.095-.865,2.917-.755.872-1.846,1.372-2.994,1.372-.2,0-.402-.015-.602-.046-4.766-.722-9.609-1.183-14.466-1.419v-1.076c0-1.546-1.253-2.799-2.799-2.799h-8.398c-1.546,0-2.799,1.253-2.799,2.799v1.078c-4.86.237-9.707.699-14.475,1.424-.2.03-.404.046-.604.046-1.15,0-2.243-.502-2.998-1.377-.712-.825-1.017-1.863-.86-2.924ZM57.069,56.543c-.755.872-1.846,1.372-2.993,1.372-.2,0-.402-.015-.602-.046-7.051-1.069-14.27-1.611-21.456-1.611s-14.462.546-21.54,1.624c-.201.031-.404.046-.605.046-1.15,0-2.243-.502-2.998-1.377-.712-.825-1.017-1.863-.86-2.924l2.352-15.897c.499.136,1.019.217,1.557.217.298,0,.6-.022.904-.069,4.652-.707,9.384-1.163,14.175-1.4v2.52c0,1.546,1.253,2.799,2.799,2.799h8.398c1.546,0,2.799-1.253,2.799-2.799v-2.522c4.788.235,9.518.69,14.167,1.395.304.046.605.068.902.068.539,0,1.061-.081,1.562-.218l2.306,15.904c.154,1.059-.154,2.095-.865,2.917Z"/></svg>