<?xml version="1.0" encoding="UTF-8"?><svg id="Icons" xmlns="http://www.w3.org/2000/svg" viewBox="0 0 64 64"><defs><style>.cls-1{fill:#fff;}</style></defs><path class="cls-1" d="M10.351,59.994c3.508,0,6.351-2.855,6.351-6.377s-2.844-6.377-6.351-6.377-6.351,2.855-6.351,6.377,2.844,6.377,6.351,6.377Z"/><polygon class="cls-1" points="47.734 19.901 47.741 19.893 47.734 19.888 47.734 19.901"/><path class="cls-1" d="M53.617,16.822c3.525,0,6.383-2.869,6.383-6.408s-2.858-6.408-6.383-6.408-6.383,2.869-6.383,6.408,2.858,6.408,6.383,6.408Z"/><path class="cls-1" d="M33.173,49.384s-.029-.004-.072-.01c-.19.006-.38.021-.571.021.214,0,.429-.004.643-.011Z"/><path class="cls-1" d="M53.649,47.241c-.861,0-1.68.174-2.429.485l-7.495-7.495-5.052-5.052h0S16.245,12.751,16.245,12.751c.292-.733.458-1.531.458-2.369,0-3.522-2.844-6.377-6.351-6.377s-6.352,2.855-6.352,6.377,2.844,6.377,6.352,6.377c.838,0,1.636-.167,2.369-.463l35.013,35.013c-.277.716-.436,1.493-.436,2.308,0,3.522,2.844,6.377,6.351,6.377s6.351-2.855,6.351-6.377-2.844-6.377-6.351-6.377Z"/><path class="cls-1" d="M31.989,39.517c-.852,0-1.667-.149-2.425-.418-.253-.09-.5-.192-.739-.307-1.573-.755-2.834-2.05-3.538-3.652-.396-.901-.62-1.896-.62-2.945,0-.354.034-.7.082-1.041l-9.737-9.737c-1.537,1.131-2.984,2.324-4.308,3.522-1.972,1.878-3.621,3.73-4.834,5.297-.904,1.171-.878,2.775.064,3.908,1.13,1.365,2.613,2.952,4.352,4.579,2.568,2.287,5.587,4.605,8.842,6.494,4.238,2.455,8.856,4.18,13.401,4.18,2.914,0,5.811-.718,8.588-1.873l-8.085-8.085c-.341.049-.689.079-1.044.079Z"/><path class="cls-1" d="M31.234,24.912c.248-.025.5-.039.755-.039.524,0,1.034.056,1.525.161.492.105.965.259,1.415.457.8.351,1.524.841,2.143,1.44.618.599,1.131,1.306,1.509,2.091.231.48.414.989.538,1.52.125.531.191,1.084.191,1.653,0,.255-.013.507-.039.755l9.899,9.899c1.08-.801,2.115-1.636,3.093-2.482,2.449-2.219,4.475-4.477,5.894-6.325.827-1.095.865-2.584.064-3.704-1.433-2.018-3.573-4.52-6.2-6.942-1.919-1.687-4.06-3.316-6.368-4.704-3.99-2.397-8.476-4.077-13.124-4.077-3.233,0-6.432.818-9.476,2.118l8.18,8.18Z"/><path class="cls-1" d="M33.173,49.384s-.029-.004-.072-.01c-.19.006-.38.021-.571.021.214,0,.429-.004.643-.011Z"/></svg>