<?xml version="1.0" encoding="UTF-8"?><svg id="Icons" xmlns="http://www.w3.org/2000/svg" viewBox="0 0 64 64"><defs><style>.cls-1{fill:none;}.cls-2{fill:#1d305e;}.cls-3{fill:#001e5b;}.cls-4{fill:#fff;}.cls-5{fill:#05628a;}.cls-6{fill:#0d9dda;}.cls-7{fill:#046289;}</style></defs><path class="cls-3" d="M10.351,59.994c3.508,0,6.351-2.855,6.351-6.377s-2.844-6.377-6.351-6.377-6.351,2.855-6.351,6.377,2.844,6.377,6.351,6.377Z"/><polygon class="cls-2" points="47.734 19.901 47.741 19.893 47.734 19.888 47.734 19.901"/><path class="cls-6" d="M58.222,30.338c-1.433-2.018-3.573-4.52-6.2-6.942-1.919-1.687-4.06-3.316-6.369-4.704-3.99-2.397-8.476-4.077-13.124-4.077-8.152,0-16.105,5.148-21.825,10.325-1.972,1.878-3.621,3.73-4.834,5.297-.904,1.171-.878,2.775.064,3.908,1.13,1.364,2.613,2.952,4.352,4.579,2.568,2.287,5.587,4.605,8.842,6.494,4.238,2.455,8.856,4.18,13.401,4.18,7.212,0,14.329-4.349,19.734-9.029,2.449-2.219,4.475-4.477,5.894-6.325.827-1.095.866-2.584.064-3.704ZM31.989,24.873c1.047,0,2.04.223,2.941.617,1.601.702,2.895,1.961,3.652,3.531.463.961.729,2.034.729,3.173,0,4.048-3.274,7.322-7.322,7.322-1.135,0-2.206-.265-3.164-.725-1.573-.755-2.834-2.05-3.538-3.652-.396-.901-.62-1.896-.62-2.945,0-4.048,3.274-7.322,7.322-7.322Z"/><path class="cls-5" d="M10.705,24.939c-1.972,1.878-3.621,3.73-4.834,5.297-.904,1.171-.878,2.775.064,3.908,1.13,1.364,2.613,2.952,4.352,4.579,2.568,2.287,5.587,4.605,8.842,6.494,4.238,2.455,8.856,4.18,13.401,4.18,7.212,0,14.329-4.349,19.734-9.029,0,0-18.767,7.707-31.207.186-11.2-6.771-10.352-15.613-10.352-15.613Z"/><path class="cls-3" d="M53.617,16.822c3.525,0,6.383-2.869,6.383-6.408s-2.858-6.408-6.383-6.408-6.383,2.869-6.383,6.408,2.858,6.408,6.383,6.408Z"/><path class="cls-1" d="M34.93,25.491c-.9-.395-1.894-.617-2.941-.617-4.048,0-7.322,3.274-7.322,7.322,0,1.049.224,2.044.62,2.945.704,1.602,1.965,2.897,3.538,3.652.958.46,2.029.725,3.164.725,4.048,0,7.322-3.274,7.322-7.322,0-1.139-.267-2.212-.729-3.173-.756-1.571-2.051-2.829-3.652-3.531Z"/><path class="cls-1" d="M34.93,25.491c-.9-.395-1.894-.617-2.941-.617-4.048,0-7.322,3.274-7.322,7.322,0,1.049.224,2.044.62,2.945.704,1.602,1.965,2.897,3.538,3.652.958.46,2.029.725,3.164.725,4.048,0,7.322-3.274,7.322-7.322,0-1.139-.267-2.212-.729-3.173-.756-1.571-2.051-2.829-3.652-3.531Z"/><path class="cls-7" d="M33.173,49.384s-.029-.004-.072-.01c-.19.006-.38.021-.571.021.214,0,.429-.004.643-.011Z"/><path class="cls-1" d="M34.93,25.491c-.9-.395-1.894-.617-2.941-.617-4.048,0-7.322,3.274-7.322,7.322,0,1.049.224,2.044.62,2.945.704,1.602,1.965,2.897,3.538,3.652.958.46,2.029.725,3.164.725,4.048,0,7.322-3.274,7.322-7.322,0-1.139-.267-2.212-.729-3.173-.756-1.571-2.051-2.829-3.652-3.531Z"/><path class="cls-4" d="M34.93,25.491c-.9-.395-1.894-.617-2.941-.617-4.048,0-7.322,3.274-7.322,7.322,0,1.049.224,2.044.62,2.945.704,1.602,1.965,2.897,3.538,3.652.958.46,2.029.725,3.164.725,4.048,0,7.322-3.274,7.322-7.322,0-1.139-.267-2.212-.729-3.173-.756-1.571-2.051-2.829-3.652-3.531Z"/><path class="cls-3" d="M53.649,47.241c-.861,0-1.68.174-2.429.485L16.245,12.751c.292-.733.458-1.531.458-2.369,0-3.522-2.844-6.377-6.351-6.377s-6.351,2.855-6.351,6.377,2.844,6.377,6.351,6.377c.838,0,1.636-.167,2.369-.463l35.013,35.013c-.278.716-.436,1.493-.436,2.308,0,3.522,2.844,6.377,6.351,6.377s6.351-2.855,6.351-6.377-2.844-6.377-6.351-6.377Z"/><path class="cls-7" d="M33.173,49.384s-.029-.004-.072-.01c-.19.006-.38.021-.571.021.214,0,.429-.004.643-.011Z"/><path class="cls-4" d="M33.726,18.178c5.527-1.066,13.15,2.075,15.772,8.01.143.422.259.847.35,1.273.242,1.132-1.169,1.511-1.897.61-3.137-3.883-9.074-7.387-13.914-8.236-.94-.165-1.215-1.352-.311-1.657Z"/></svg>