<?xml version="1.0" encoding="UTF-8"?><svg id="Icons" xmlns="http://www.w3.org/2000/svg" viewBox="0 0 64 64"><defs><style>.cls-1{fill:#001e5b;}</style></defs><path class="cls-1" d="M37.747,9.494c-.047,0-.094.003-.141.004l-3.728-.026-20.189-.088h-.011c-1.375,0-2.494,1.112-2.5,2.489-.006,1.381,1.108,2.505,2.489,2.511l10.025.044c-1.783,1.428-3.348,3.118-4.626,5.018l-10.27-.025h-.006c-1.378,0-2.497,1.115-2.5,2.494-.003,1.381,1.113,2.503,2.494,2.506l7.762.019c-.57,1.6-.964,3.282-1.16,5.026l-11.374-.055h-.013c-1.375,0-2.493,1.111-2.5,2.488-.007,1.38,1.107,2.505,2.488,2.512l11.389.055c.188,1.73.575,3.4,1.133,4.989l-7.702-.056h-.019c-1.372,0-2.489,1.107-2.5,2.481-.01,1.381,1.101,2.509,2.482,2.519l10.241.075c1.247,1.869,2.765,3.541,4.5,4.959l-9.867-.045h-.012c-1.375,0-2.494,1.111-2.5,2.488-.006,1.381,1.108,2.505,2.488,2.512l24.044.119c.027,0,.054.002.081.002,12.43,0,22.506-10.076,22.506-22.506s-10.076-22.506-22.506-22.506ZM37.747,52.506c-11.307,0-20.506-9.199-20.506-20.506s9.199-20.506,20.506-20.506,20.506,9.199,20.506,20.506-9.199,20.506-20.506,20.506Z"/><path class="cls-1" d="M33.565,41.647h-.042c-.751-.013-1.457-.363-1.921-.953l-5.218-6.622c-.854-1.084-.668-2.656.417-3.511,1.085-.854,2.656-.669,3.511.417l3.321,4.215,10.097-11.953c.89-1.054,2.468-1.188,3.523-.297,1.055.892,1.188,2.469.296,3.523l-12.074,14.294c-.475.562-1.174.887-1.91.887Z"/></svg>