<?xml version="1.0" encoding="UTF-8"?><svg id="Icons" xmlns="http://www.w3.org/2000/svg" viewBox="0 0 64 64"><defs><style>.cls-1{fill:#fff;}</style></defs><path class="cls-1" d="M57.626,26.996c-.642-.528-1.386-.934-2.196-1.185-.607-.189-1.251-.29-1.917-.29-.164,0-.328.006-.494.019l-5.48.411c-7.522-6.45-14.575-13.433-21.086-20.902-.599-.688-1.44-1.038-2.28-1.038-.761,0-1.522.287-2.106.871-.787.787-1.063,1.946-.746,3.012,1.877,6.311,3.021,12.935,3.362,19.771l-3.64.273c-4.42-3.816-8.592-7.91-12.429-12.311-.089-.102-.187-.19-.291-.268-.035-.026-.073-.043-.109-.066-.072-.046-.144-.093-.22-.128-.046-.021-.094-.033-.141-.05-.071-.026-.141-.053-.215-.07-.052-.012-.105-.015-.157-.022-.071-.01-.141-.021-.212-.022-.012,0-.023-.004-.035-.004-.056,0-.111.011-.166.016-.05.005-.1.005-.15.014-.07.012-.138.035-.207.055-.046.014-.092.023-.137.04-.075.029-.146.07-.217.11-.035.02-.072.034-.107.056-.103.067-.202.145-.293.236-.477.476-.644,1.179-.452,1.824,1.103,3.706,1.769,7.597,1.998,11.604l-.712.053c-1.575.118-2.792,1.43-2.792,3.009s1.217,2.891,2.792,3.009l.699.052c-.244,3.958-.915,7.801-2.012,11.463-.194.648-.027,1.354.452,1.833.091.091.19.169.293.237.036.023.074.038.111.058.07.039.14.079.213.108.045.018.092.027.139.041.068.021.136.043.206.055.05.009.101.01.152.014.055.005.109.016.164.016.012,0,.023-.003.035-.004.072-.001.143-.013.214-.022.052-.007.105-.01.157-.022.073-.017.144-.044.215-.07.047-.017.096-.029.142-.05.076-.035.147-.082.219-.127.037-.023.076-.041.111-.067.104-.078.202-.167.291-.269,3.794-4.354,7.916-8.408,12.281-12.19l3.014.226.783.059c-.356,6.82-1.51,13.429-3.396,19.725-.321,1.071-.044,2.236.746,3.026.585.585,1.349.873,2.111.873.843,0,1.686-.352,2.287-1.041,6.498-7.457,13.536-14.43,21.042-20.873l5.556.417c.166.012.331.019.494.019h0c2.219,0,4.198-1.126,5.37-2.853.703-1.036,1.116-2.288,1.116-3.642,0-2.032-.929-3.833-2.374-5.02ZM23.239,7.323c-.111-.373-.018-.767.243-1.028.235-.235.506-.285.691-.285.174,0,.506.046.773.352,6.095,6.991,12.75,13.64,19.793,19.798l-18.061,1.355c-.347-6.893-1.504-13.686-3.439-20.192ZM6,32.015c0-.265.103-.509.273-.691.169-.183.405-.304.669-.324l.176-.013.554-.042,1.959-.147h0s37.234-2.793,37.234-2.793h0l.824-.062,5.48-.411c.116-.009.231-.013.345-.013,2.474,0,4.486,2.016,4.486,4.495,0,.62-.126,1.21-.353,1.748-.682,1.613-2.278,2.747-4.133,2.747-.114,0-.229-.004-.344-.013l-26.397-1.98h0l-.382-.029-16.763-1.257h0s-1.968-.148-1.968-.148l-.247-.018-.471-.035c-.264-.02-.499-.141-.669-.324-.169-.183-.273-.427-.273-.691ZM24.914,57.634c-.269.309-.604.355-.779.355-.187,0-.46-.05-.697-.287-.264-.264-.357-.661-.245-1.038,1.943-6.488,3.112-13.266,3.474-20.149l17.998,1.35c-7.03,6.152-13.671,12.791-19.752,19.769Z"/></svg>