<?xml version="1.0" encoding="UTF-8"?><svg id="Icons" xmlns="http://www.w3.org/2000/svg" viewBox="0 0 64 64"><defs><style>.cls-1{fill:#001e5b;}</style></defs><path class="cls-1" d="M39.116,39.089c-1.314-1.312-3.443-1.312-4.757,0l-.864.864-.864-.864c-1.299-1.233-3.336-1.233-4.635,0-1.347,1.28-1.402,3.41-.123,4.757l5.288,5.288c.088.089.208.139.333.139.125,0,.245-.051.333-.139l5.288-5.288c1.312-1.314,1.312-3.443,0-4.757Z"/><path class="cls-1" d="M59.94,46.42l-1.652-8.161c-.935-4.616-4.398-8.18-8.769-9.373,2.743-1.734,4.57-4.785,4.57-8.269,0-5.404-4.381-9.785-9.785-9.786-5.404,0-9.785,4.381-9.785,9.785,0,3.532,1.877,6.617,4.682,8.338-1.998.585-3.786,1.682-5.23,3.134-.144,0-.286.009-.43.009-.034,0-.067-.002-.1-.002-1.755-2.369-4.268-4.113-7.15-4.899,2.967-1.875,4.943-5.175,4.943-8.945,0-5.846-4.739-10.585-10.584-10.585-5.845,0-10.584,4.739-10.584,10.584,0,3.82,2.031,7.158,5.065,9.019-4.596,1.347-8.227,5.123-9.238,10.006l-1.823,8.799c-.424,2.049,1.206,3.901,3.237,3.901.134,0,.269-.008.405-.024,3.387-.409,6.825-.649,10.303-.73v2.761c0,.204,0,.414.002.625h-.256c-1.028,0-1.861.833-1.861,1.861s.833,1.861,1.861,1.861h31.886c1.028,0,1.861-.833,1.861-1.861s-.833-1.861-1.861-1.861h-.547c-.017-.212-.031-.422-.031-.625v-18.591c0-1.336-1.111-2.367-2.403-2.367-.132,0-.265.011-.399.033-2.956.487-5.969.801-9.027.942.775-.481,1.622-.863,2.525-1.127.759-.222,1.316-.871,1.42-1.655.104-.784-.262-1.556-.937-1.969-2.334-1.432-3.728-3.912-3.728-6.633,0-2.08.81-4.035,2.28-5.505,1.47-1.47,3.426-2.28,5.505-2.28s4.035.81,5.505,2.28c1.47,1.471,2.28,3.426,2.28,5.505,0,2.679-1.36,5.139-3.638,6.579-.67.424-1.027,1.203-.909,1.987.118.784.687,1.425,1.452,1.633,3.752,1.023,6.563,4.028,7.335,7.84l1.652,8.161c.074.365-.07.635-.203.798-.207.253-.51.399-.832.399-.046,0-.094-.003-.141-.009-2.554-.322-5.143-.534-7.737-.66v2.001c2.521.124,5.02.331,7.487.643.132.017.262.025.391.025,1.872,0,3.378-1.702,2.995-3.594ZM18.013,47.223c-3.53.081-7.065.325-10.542.744-.056.007-.111.01-.166.01-.398,0-.773-.18-1.028-.493-.136-.167-.35-.521-.25-1.003l1.823-8.799c.843-4.068,3.847-7.322,7.842-8.492.759-.222,1.316-.871,1.42-1.655.104-.784-.263-1.556-.937-1.969-2.574-1.579-4.111-4.313-4.111-7.314,0-2.293.893-4.449,2.514-6.07,1.621-1.621,3.777-2.514,6.07-2.514,4.733,0,8.584,3.851,8.584,8.585,0,2.954-1.5,5.666-4.011,7.254-.67.424-1.027,1.203-.909,1.987.118.784.687,1.425,1.452,1.633,1.941.529,3.639,1.555,4.994,2.914-3.373-.119-6.693-.445-9.943-.981-.134-.022-.268-.033-.399-.033-1.292,0-2.403,1.031-2.403,2.367v13.829ZM46.591,33.033c.025-.004.049-.006.074-.006.195,0,.403.147.403.367v18.591c0,.214.018.419.032.625h-3.712c-2.351-.116-4.895-.141-7.401-.141h-1.308s-1.154.002-1.154.002l-1.414-.002-1.566-.002c-2.264,0-4.578.024-6.758.143h-3.772c-.002-.163-.002-.318-.002-.442v-.183s0-18.591,0-18.591c0-.035,0-.143.107-.247.079-.076.187-.12.296-.12.024,0,.049.002.074.006,4.284.706,8.674,1.064,13.051,1.064s8.767-.358,13.051-1.064ZM33.973,32.089c1.085-.006,2.165-.035,3.239-.085-1.074.049-2.154.079-3.239.085Z"/></svg>