<?xml version="1.0" encoding="UTF-8"?><svg id="Icons" xmlns="http://www.w3.org/2000/svg" viewBox="0 0 64 64"><defs><style>.cls-1{fill:#001e5b;}.cls-2{fill:#fff;}.cls-3{fill:#05628a;}.cls-4{fill:#0d9dda;}</style></defs><path class="cls-4" d="M32,4c10.756,0,19.476,8.282,19.476,18.499,0,5.086-2.161,9.692-5.658,13.036-2.574,2.847-4.617,6.183-5.973,9.852h-15.724c-1.407-3.807-3.554-7.256-6.266-10.171-3.305-3.315-5.331-7.791-5.331-12.716,0-10.217,8.72-18.499,19.476-18.499Z"/><path class="cls-2" d="M34.686,9.544c4.768-1.165,9.581,1.77,10.751,6.557.164.672.248,1.344.257,2.007.016,1.118-1.388,1.242-2.001.306-2.164-3.304-5.454-5.686-9.19-6.732-1.075-.301-1.386-1.673-.318-2,.165-.05.332-.097.501-.138Z"/><path class="cls-3" d="M28.123,4.367c-5.145,3.269-8.296,9.077-8.296,15.698,0,10.217,8.72,18.499,19.476,18.499,1.562,0,3.054-.175,4.466-.505-1.623,2.233-2.951,4.694-3.924,7.328h-15.724c-1.407-3.807-3.554-7.256-6.266-10.171-3.305-3.315-5.331-7.791-5.331-12.716,0-8.956,6.7-16.425,15.6-18.133Z"/><path class="cls-1" d="M36.573,28.543c-.894-.492-1.984-.854-3.082-1.217-.569-.189-1.348-.447-1.945-.705-.068-.029-.112-.096-.112-.171s.044-.142.16-.191c.586-.252,1.009-.435,4.991-1.844,1.688-.598,2.152-1.617,2.025-2.372-.13-.768-.843-1.287-1.775-1.292h-.009c-1.688,0-6.776,2.113-7.512,2.519-1.817,1.002-2.198,2.282-2.198,3.18s.381,2.178,2.198,3.18c.899.495,1.989.856,3.051,1.207.507.167,1.356.447,1.975.714.068.029.113.097.113.172,0,.074-.045.141-.113.171-.615.264-1.425.532-1.977.714l-.614.205c-.772.261-1.938.656-2.025,2.053v7.706h4.109v-6.432c.031-.063.162-.188.323-.242.82-.277,1.68-.588,2.417-.995,1.817-1.002,2.198-2.282,2.198-3.181s-.381-2.178-2.198-3.18Z"/><path class="cls-1" d="M41.738,47.827c1.345,0,2.435,1.09,2.435,2.435v2.435c0,1.345-1.09,2.435-2.435,2.435h-2.85c-1.003,2.837-3.708,4.869-6.888,4.869s-5.885-2.032-6.888-4.869h-2.85c-1.345,0-2.435-1.09-2.435-2.435v-2.435c0-1.345,1.09-2.435,2.435-2.435h19.476Z"/><path class="cls-1" d="M22.262,47.822c-1.345,0-2.435-1.09-2.435-2.435v-2.435c0-1.345,1.09-2.435,2.435-2.435h19.476c1.345,0,2.435,1.09,2.435,2.435v2.435c0,1.345-1.09,2.435-2.435,2.435h-19.476Z"/></svg>