<?xml version="1.0" encoding="UTF-8"?><svg id="Icons" xmlns="http://www.w3.org/2000/svg" viewBox="0 0 64 64"><defs><style>.cls-1{fill:#fff;}</style></defs><path class="cls-1" d="M41.738,48.803c1.345,0,2.435,1.09,2.435,2.435v1.459c0,1.345-1.09,2.435-2.435,2.435h-2.85c-1.003,2.837-3.708,4.869-6.888,4.869s-5.885-2.032-6.888-4.869h-2.85c-1.345,0-2.435-1.09-2.435-2.435v-1.459c0-1.345,1.09-2.435,2.435-2.435h19.476Z"/><path class="cls-1" d="M51.476,22.499c0-10.217-8.72-18.499-19.476-18.499S12.524,12.282,12.524,22.499c0,4.926,2.027,9.401,5.332,12.716,1.512,1.625,2.84,3.421,3.97,5.346-1.136.206-1.998,1.195-1.998,2.391v1.408c0,1.345,1.09,2.435,2.435,2.435h19.476c1.345,0,2.435-1.09,2.435-2.435v-1.408c0-1.206-.879-2.201-2.031-2.394,1.056-1.799,2.286-3.485,3.677-5.023,3.497-3.344,5.658-7.95,5.658-13.036ZM36.573,34.904c-.738.407-1.598.718-2.417.995-.161.054-.291.179-.323.242v4.377h-4.109v-5.652c.087-1.398,1.253-1.792,2.025-2.053l.614-.205c.552-.183,1.362-.45,1.977-.714.068-.03.113-.097.113-.171,0-.075-.044-.143-.113-.172-.619-.267-1.468-.547-1.975-.714-1.062-.352-2.152-.712-3.052-1.207-1.817-1.002-2.198-2.282-2.198-3.18s.381-2.178,2.198-3.18c.736-.406,5.824-2.519,7.512-2.519h.009c.932.005,1.645.524,1.775,1.292.127.755-.337,1.774-2.025,2.372-3.982,1.409-4.406,1.592-4.992,1.844-.116.049-.16.116-.16.191s.043.142.111.171c.598.257,1.376.515,1.945.705,1.098.363,2.188.724,3.082,1.217,1.817,1.002,2.198,2.282,2.198,3.18s-.381,2.179-2.198,3.181Z"/></svg>