<?xml version="1.0" encoding="UTF-8"?><svg id="Artwork" xmlns="http://www.w3.org/2000/svg" viewBox="0 0 561.71 142.38"><defs><style>.cls-1{fill:#e23400;}.cls-2{fill:#ff7d00;}.cls-3{fill:#ff4d00;}.cls-4{fill:#001aff;}.cls-5{fill:#0d9dda;}</style></defs><path d="M315.1,116.96l-.56,1.8c-.63-.14-1.24-.2-1.84-.17-1.86.02-2.78,1.03-2.78,3.04v1.24h3.79v1.93h-3.79v13.14h-2.51v-13.14h-2.64v-1.6l2.64-.32v-1.3c0-1.6.42-2.82,1.28-3.68.85-.86,2.11-1.3,3.79-1.31.96,0,1.85.13,2.64.38h-.02,0Z"/><path d="M316.45,126.25c0-1.1-.07-2.23-.21-3.37h2.39c.09.67.16,1.48.21,2.39h.06c.87-1.87,2.45-2.81,4.74-2.81.16,0,.44.04.86.09l-.15,2.16c-.2-.04-.5-.06-.92-.06-1.44,0-2.54.49-3.31,1.45s-1.15,2.22-1.15,3.75v8.07h-2.51v-11.69h-.01Z"/><path d="M340.55,130.37c0,1.56-.3,2.94-.91,4.16-.6,1.21-1.46,2.16-2.6,2.82-1.14.67-2.49,1.01-4.07,1.01s-2.92-.34-4.05-1.02c-1.15-.68-2.01-1.63-2.6-2.82-.59-1.21-.88-2.58-.88-4.15,0-2.4.66-4.32,1.99-5.75s3.17-2.15,5.57-2.15c1.59,0,2.96.32,4.1.99s2,1.58,2.59,2.76.88,2.57.88,4.15h-.01ZM328.02,130.37c0,1.8.41,3.24,1.23,4.33s2.06,1.64,3.72,1.64,2.93-.55,3.75-1.64,1.24-2.54,1.24-4.33-.42-3.23-1.24-4.29c-.83-1.07-2.08-1.6-3.75-1.6s-2.92.53-3.73,1.6c-.81,1.07-1.21,2.5-1.21,4.29h-.01,0Z"/><path d="M343.8,126.25c0-1.1-.07-2.23-.21-3.37h2.39c.09.53.16,1.24.21,2.13h.06c.48-.76,1.14-1.36,2-1.84s1.85-.71,2.97-.71c1.28,0,2.32.27,3.14.81s1.41,1.29,1.78,2.23h.06c.51-.95,1.21-1.7,2.1-2.23.88-.55,1.95-.81,3.2-.81s2.28.27,3.1.81,1.44,1.26,1.84,2.13c.39.88.59,1.84.59,2.88v9.64h-2.51v-9.29c0-1.16-.28-2.14-.85-2.93-.56-.79-1.46-1.18-2.71-1.18-.91,0-1.68.23-2.33.71s-1.15,1.1-1.48,1.89c-.34.79-.5,1.64-.5,2.54v8.26h-2.51v-9.35c0-1.14-.29-2.1-.86-2.88s-1.48-1.17-2.7-1.17c-1.3,0-2.33.45-3.1,1.37s-1.15,2.04-1.15,3.39v8.64h-2.51v-11.69h-.02s0,.01,0,.01Z"/><path d="M416.69,135.99l1.34-1.66c.85.67,1.73,1.15,2.64,1.45.91.29,1.93.44,3.08.44,1.42,0,2.57-.32,3.45-.99s1.31-1.63,1.31-2.88c0-.88-.21-1.6-.62-2.16-.42-.56-.99-1-1.72-1.34s-1.7-.66-2.9-.98c-1.95-.51-3.42-1.21-4.38-2.09-.96-.88-1.45-2.1-1.45-3.68,0-1.75.65-3.12,1.96-4.11s2.99-1.48,5.02-1.48c1.28,0,2.44.16,3.47.5s2,.82,2.88,1.48l-1.18,1.72c-.83-.53-1.65-.93-2.48-1.18-.81-.26-1.72-.38-2.71-.38-1.32,0-2.38.28-3.2.85-.81.56-1.21,1.37-1.21,2.44s.37,1.87,1.1,2.42c.74.55,1.95,1.03,3.62,1.46,2.11.56,3.71,1.3,4.8,2.25,1.08.95,1.63,2.35,1.63,4.21,0,1.34-.33,2.48-.99,3.4s-1.56,1.63-2.67,2.09-2.38.7-3.79.7c-2.72,0-5.07-.81-7.02-2.45v-.02h0Z"/><path d="M433.41,133.83c0-1.95.71-3.31,2.11-4.07s3.53-1.14,6.38-1.14c.68,0,1.21,0,1.57.04v-.86c0-1.13-.3-1.96-.92-2.51-.62-.56-1.55-.82-2.81-.82-1.6,0-3.1.43-4.53,1.28l-.88-1.68c1.7-1.05,3.55-1.57,5.57-1.57,2.11,0,3.66.49,4.64,1.48.98.99,1.46,2.49,1.46,4.5v6.16c0,1.08.07,2.2.21,3.35h-2.31c-.14-.87-.21-1.54-.21-2.04h-.09c-.56.81-1.24,1.42-2.09,1.84-.84.42-1.92.62-3.24.62-1.46,0-2.64-.4-3.52-1.17s-1.34-1.89-1.34-3.36h.01s0-.01,0-.01ZM443.47,132.38v-1.95l-1.34-.04c-1.48,0-2.66.1-3.53.29-.88.2-1.53.53-1.95,1.01-.43.48-.64,1.14-.64,1.99s.26,1.53.77,2,1.22.7,2.13.7,1.77-.2,2.45-.6,1.21-.92,1.57-1.52c.36-.62.53-1.23.53-1.86h.01s0-.01,0-.01Z"/><path d="M453.23,116.99v20.95h-2.51v-20.95h2.51Z"/><path d="M470.81,131.31h-11.19c.09,1.53.56,2.76,1.39,3.67.83.91,2.01,1.36,3.55,1.36.91,0,1.72-.13,2.44-.37s1.44-.62,2.17-1.12l1.13,1.63c-.85.62-1.75,1.08-2.71,1.39s-2.02.48-3.18.48c-2.31,0-4.11-.73-5.4-2.18-1.29-1.46-1.94-3.4-1.94-5.83,0-1.56.28-2.93.83-4.11.56-1.18,1.36-2.1,2.42-2.76s2.32-.99,3.8-.99c2.18,0,3.86.71,5.02,2.13,1.15,1.42,1.73,3.3,1.73,5.66,0,.48-.02.82-.06,1.07h0s0,0,0,0ZM468.41,129.35c-.03-1.5-.43-2.71-1.15-3.61-.73-.91-1.79-1.36-3.17-1.36s-2.49.46-3.25,1.41c-.77.94-1.18,2.13-1.24,3.57h8.82Z"/><path d="M483.8,124.06l-1.13,1.57c-1.16-.81-2.43-1.21-3.79-1.21-.95,0-1.68.19-2.22.55s-.8.88-.8,1.56c0,.49.1.9.33,1.21s.58.58,1.09.8,1.27.44,2.25.68c1.53.37,2.68.92,3.42,1.64.74.72,1.11,1.66,1.11,2.82,0,1.48-.56,2.63-1.66,3.45-1.1.81-2.46,1.23-4.08,1.23-2.17,0-3.98-.58-5.45-1.74l1.15-1.57c.67.45,1.34.79,1.99,1.01s1.39.32,2.22.32c1.01,0,1.8-.22,2.38-.65s.87-1.06.87-1.86c0-.53-.1-.96-.33-1.29s-.58-.59-1.08-.81-1.26-.45-2.27-.71c-1.56-.4-2.7-.93-3.4-1.6s-1.07-1.6-1.07-2.78c0-1.28.5-2.3,1.5-3.07,1-.76,2.31-1.14,3.95-1.14,1.93,0,3.6.53,5,1.6v-.02s0,0,0,0Z"/><path d="M496.41,116.96l-.56,1.8c-.63-.14-1.24-.2-1.84-.17-1.86.02-2.78,1.03-2.78,3.04v1.24h3.79v1.93h-3.79v13.14h-2.51v-13.14h-2.64v-1.6l2.64-.32v-1.3c0-1.6.42-2.82,1.28-3.68.85-.86,2.11-1.3,3.79-1.31.96,0,1.85.13,2.64.38h-.02,0Z"/><path d="M511.83,130.37c0,1.56-.3,2.94-.91,4.16-.6,1.21-1.46,2.16-2.6,2.82-1.14.67-2.49,1.01-4.07,1.01s-2.92-.34-4.05-1.02c-1.15-.68-2.01-1.63-2.6-2.82-.59-1.21-.88-2.58-.88-4.15,0-2.4.66-4.32,1.99-5.75s3.17-2.15,5.57-2.15c1.59,0,2.96.32,4.1.99s2,1.58,2.59,2.76.88,2.57.88,4.15h-.01ZM499.31,130.37c0,1.8.41,3.24,1.23,4.33.81,1.09,2.06,1.64,3.72,1.64s2.93-.55,3.75-1.64,1.24-2.54,1.24-4.33-.42-3.23-1.24-4.29c-.83-1.07-2.08-1.6-3.75-1.6s-2.92.53-3.73,1.6-1.21,2.5-1.21,4.29h-.01Z"/><path d="M515.08,126.25c0-1.1-.07-2.23-.21-3.37h2.39c.09.67.16,1.48.21,2.39h.06c.87-1.87,2.45-2.81,4.74-2.81.16,0,.44.04.86.09l-.15,2.16c-.2-.04-.5-.06-.92-.06-1.44,0-2.54.49-3.31,1.45s-1.15,2.22-1.15,3.75v8.07h-2.51v-11.69h-.01,0Z"/><path d="M531.5,122.46c.95,0,1.85.14,2.71.43s1.63.68,2.29,1.2l-1.01,1.74c-1.15-.85-2.47-1.28-4-1.28-1.61,0-2.85.52-3.67,1.58s-1.24,2.48-1.24,4.24.42,3.14,1.24,4.22,2.04,1.62,3.64,1.62c1.36,0,2.71-.43,4.05-1.28l.92,1.78c-1.5,1.08-3.22,1.63-5.15,1.63-1.7,0-3.09-.38-4.17-1.14s-1.87-1.74-2.35-2.94c-.49-1.21-.72-2.5-.72-3.88,0-2.4.66-4.33,1.99-5.77s3.15-2.16,5.47-2.16v.02Z"/><path d="M552.02,131.31h-11.19c.09,1.53.56,2.76,1.39,3.67.83.91,2.01,1.36,3.55,1.36.91,0,1.72-.13,2.44-.37s1.44-.62,2.17-1.12l1.13,1.63c-.85.62-1.75,1.08-2.71,1.39-.95.31-2.02.48-3.18.48-2.31,0-4.11-.73-5.4-2.18-1.29-1.46-1.94-3.4-1.94-5.83,0-1.56.28-2.93.83-4.11.56-1.18,1.36-2.1,2.42-2.76,1.06-.66,2.32-.99,3.8-.99,2.18,0,3.86.71,5.02,2.13,1.15,1.42,1.73,3.3,1.73,5.66,0,.48-.02.82-.06,1.07h0s0,0,0,0ZM549.61,129.35c-.03-1.5-.43-2.71-1.15-3.61-.73-.91-1.79-1.36-3.17-1.36s-2.49.46-3.25,1.41-1.18,2.13-1.24,3.57h8.82Z"/><path class="cls-5" d="M389.7,119.12c.6-.64,1.32-1.14,2.13-1.49s1.66-.53,2.53-.53c1.16,0,2.3.32,3.3.92,1,.6,1.81,1.46,2.37,2.49,1.02-.45,2.13-.7,3.24-.7,2.13,0,4.17.86,5.67,2.38,1.51,1.52,2.35,3.59,2.35,5.74s-.85,4.22-2.35,5.74c-1.51,1.52-3.54,2.38-5.67,2.38-.52,0-1.05-.06-1.56-.19-.72,1.31-1.9,2.29-3.32,2.74-1.42.43-2.95.32-4.3-.31-.51,1.24-1.39,2.3-2.53,3.01-1.11.73-2.44,1.12-3.78,1.08-1.32-.01-2.61-.44-3.68-1.23-1.08-.78-1.9-1.87-2.36-3.14-.42.09-.85.14-1.29.13-1.08-.02-2.15-.32-3.08-.88-.93-.56-1.71-1.36-2.24-2.31s-.83-2.03-.83-3.12.28-2.17.81-3.14c.55-.95,1.32-1.74,2.27-2.29-.7-1.62-.77-3.44-.22-5.11.56-1.66,1.68-3.08,3.17-3.97,1.51-.91,3.29-1.21,5.01-.85,1.73.3,3.28,1.24,4.35,2.65h.01s0,.01,0,.01Z"/><polygon class="cls-3" points="61.96 80.25 103.45 103.45 105 85.81 93.48 73.54 76.48 70.74 61.96 80.25"/><polygon class="cls-2" points="68.97 0 103.45 103.45 137.94 68.97 68.97 0"/><polygon class="cls-4" points="63.42 54.79 61.96 80.25 114.96 68.97 63.42 54.79"/><polygon class="cls-1" points="0 68.97 0 68.97 36.82 105.8 43.68 96.61 42.45 85.57 25.55 74.61 0 68.97"/><polygon class="cls-3" points="65.24 3.74 0 68.97 42.45 85.57 65.24 3.74"/><polygon class="cls-2" points="42.45 85.57 36.82 105.8 68.97 137.94 99.17 107.74 42.45 85.57"/><polygon points="183.84 88.64 177.39 88.64 177.39 36.45 183.84 32.69 183.84 88.64"/><polygon points="472.54 42.15 465.91 42.15 465.91 37.02 465.91 35.23 472.54 35.23 472.54 42.15"/><path d="M212.67,48.41c-5.17,0-9.27,2.2-12.22,6.53v-5.71h-6.31v39.41h6.31v-22.51c0-6.88,4.38-11.69,10.65-11.69s9.79,4.2,9.79,11.24v22.95h6.31v-24.37c0-4.68-1.32-8.63-3.82-11.44-2.57-2.89-6.28-4.42-10.71-4.42Z"/><path d="M277.51,48.41c-5.42,0-10.43,2.17-14.1,6.12-3.59,3.85-5.57,8.98-5.57,14.44v.15c0,11.45,8.58,20.42,19.52,20.42,5.42,0,10.44-2.17,14.14-6.12,3.61-3.86,5.6-8.99,5.6-14.44v-.15c0-11.45-8.61-20.42-19.6-20.42h0ZM290.65,68.97v.15c0,8.24-5.65,14.45-13.15,14.45s-13.22-6.41-13.22-14.6v-.15c0-8.28,5.62-14.52,13.08-14.52s13.29,6.44,13.29,14.67h0Z"/><path d="M311.08,57.89v-8.66h-6.31v39.41h6.31v-15.79c0-10.5,5.58-17.54,14.22-17.54h.83v-6.73l-.39-.02c-6.11-.26-11.48,3.2-14.66,9.33Z"/><path d="M374.88,48.41c-5.46,0-9.69,2.38-12.93,7.27-2.42-4.69-6.61-7.27-11.89-7.27-5.92,0-9.27,3.21-11.51,6.38v-5.56h-6.31v39.41h6.31v-22.43c0-6.82,4.15-11.76,9.87-11.76s9.08,4.15,9.08,11.09v23.1h6.31v-22.65c0-3.51.99-6.47,2.87-8.56,1.74-1.92,4.17-2.98,6.85-2.98,5.82,0,9.15,4.1,9.15,11.24v22.95h6.31v-24.3c0-9.83-5.4-15.93-14.1-15.93h0Z"/><path d="M458.25,55.12v-5.89h-11.85v-13.72l-6.31,3.68v10.04h-6.87v5.89h6.87v22.89c0,9.84,6.78,11.31,10.82,11.31,2.53,0,4.7-.54,6.83-1.69l.21-.12v-5.83l-.59.3c-1.83.92-3.33,1.3-5.17,1.3-3.9,0-5.8-1.97-5.8-6.01v-22.14h11.85Z"/><path d="M510.63,77.96c-3.36,3.78-6.95,5.61-10.97,5.61-7.37,0-13.15-6.41-13.15-14.6v-.15c0-8.14,5.62-14.52,12.79-14.52,5.02,0,8.21,2.74,10.9,5.69l.3.33,4.18-4.64-.24-.27c-2.93-3.26-7.29-7-15.07-7-5.26,0-10.16,2.17-13.79,6.12-3.56,3.87-5.52,9-5.52,14.44v.15c0,5.4,1.96,10.5,5.52,14.34,3.63,3.92,8.53,6.07,13.79,6.07,7.84,0,12.33-4.07,15.36-7.61l.25-.29-4.07-4-.28.32h0Z"/><path d="M412.97,48.41c-5.97,0-10.22,1.64-13.59,3.25l-.33.16,1.91,5.48.41-.2c3.03-1.45,6.46-2.8,11.02-2.8,6.78,0,10.65,3.11,10.65,10.29h-11.01c-10.28,0-16.17,4.48-16.17,12.3v.15c0,8.16,7.13,12.43,14.17,12.43,6.46,0,10.6-3.01,13.01-5.87v5.05s6.02,0,6.02,0v-24c0-4.96-1.31-9.15-3.89-11.85-2.78-2.91-6.89-4.38-12.21-4.38h0ZM423.05,69.65v4.39c0,5.73-5.13,10.04-11.93,10.04-6.09,0-8.87-3.77-8.87-7.28v-.15c0-3.2,1.8-7.01,10.36-7.01h10.44Z"/><path d="M245.03,45.56c0-5.67,1.46-7.8,5.94-7.8,1.73,0,3.12.32,5.23.95l.39.12v-5.84l-.13-.05c-1.88-.71-3.67-1-6.2-1-3.42,0-6.26,1.07-8.21,3.11-2.17,2.27-3.32,5.8-3.32,10.2v3.97h-6.87v5.89h6.87v33.52h6.31v-33.52h11.85v-5.89h-11.85v-3.67h0Z"/><polygon points="472.37 88.64 466.07 88.64 466.07 53.42 466.07 49.23 472.37 49.23 472.37 88.64"/><path d="M535.97,48.41c-5.97,0-10.22,1.64-13.59,3.25l-.33.16,1.91,5.48.41-.2c3.03-1.45,6.46-2.8,11.03-2.8,6.78,0,10.65,3.11,10.65,10.29h-11.01c-10.28,0-16.17,4.48-16.17,12.3v.15c0,8.16,7.13,12.43,14.18,12.43,6.47,0,10.6-3.01,13.01-5.87v5.05s6.02,0,6.02,0v-24c0-4.96-1.31-9.15-3.89-11.85-2.78-2.91-6.89-4.38-12.21-4.38h0ZM546.05,69.66v4.39c0,5.73-5.13,10.05-11.94,10.05-6.09,0-8.87-3.77-8.87-7.28v-.15c0-3.2,1.8-7.01,10.37-7.01h10.44,0Z"/><path d="M554.39,52.74c0-.69.16-1.34.48-1.93s.77-1.06,1.34-1.4,1.18-.51,1.84-.51,1.27.17,1.84.51,1.01.81,1.33,1.4c.32.6.48,1.24.48,1.93s-.16,1.31-.46,1.9-.75,1.07-1.32,1.43-1.19.54-1.87.54-1.3-.18-1.87-.53-1.01-.83-1.32-1.42c-.31-.59-.47-1.23-.47-1.91h0ZM554.99,52.74c0,.59.14,1.14.41,1.64.28.5.65.9,1.12,1.18.47.29.98.43,1.53.43s1.07-.14,1.54-.43.85-.68,1.12-1.18.41-1.04.41-1.63-.14-1.13-.41-1.62-.64-.89-1.12-1.17c-.47-.29-.99-.43-1.54-.43s-1.06.14-1.54.43c-.47.28-.85.68-1.12,1.18s-.41,1.04-.41,1.63h0ZM557.3,53.13v1.74h-.73v-4.38h1.42c.53,0,.93.11,1.22.34s.44.55.44.98-.22.75-.66.97c.42.17.63.52.63,1.05v.31c0,.3.03.51.09.64v.08h-.75c-.05-.12-.07-.35-.07-.66s0-.51-.02-.56c-.05-.33-.28-.5-.67-.52h-.91ZM557.3,52.47h.8c.25,0,.45-.07.6-.18s.23-.26.23-.45c0-.25-.07-.43-.2-.53s-.37-.16-.72-.16h-.71v1.32h0Z"/></svg>