<?xml version="1.0" encoding="UTF-8"?><svg id="Icons" xmlns="http://www.w3.org/2000/svg" viewBox="0 0 64 64"><defs><style>.cls-1{fill:#fff;}</style></defs><ellipse class="cls-1" cx="32" cy="15.151" rx="28" ry="11.151"/><path class="cls-1" d="M16.607,35.628v4.488c0,1.381,1.119,2.5,2.5,2.5s2.5-1.119,2.5-2.5v-3.49c-1.757-.267-3.427-.603-5-.998Z"/><ellipse class="cls-1" cx="32" cy="15.151" rx="28" ry="11.151"/><path class="cls-1" d="M4,15.151v.002c.002,6.158,12.538,11.149,28,11.149s28-4.993,28-11.151"/><path class="cls-1" d="M32,28.302c-13.116,0-23.751-3.327-28-8.259v4.185c0,6.159,12.536,11.151,28,11.151s28-4.993,28-11.151v-4.185c-4.249,4.932-14.884,8.259-28,8.259Z"/><path class="cls-1" d="M32,37.379c-.845,0-1.677-.018-2.5-.045v6.444c0,1.381,1.119,2.5,2.5,2.5s2.5-1.119,2.5-2.5v-6.444c-.823.027-1.655.045-2.5.045Z"/><path class="cls-1" d="M42.393,36.626v3.49c0,1.381,1.119,2.5,2.5,2.5s2.5-1.119,2.5-2.5v-4.488c-1.573.396-3.243.731-5,.999Z"/><path class="cls-1" d="M60,39.772c0-2.493-2.055-4.794-5.525-6.651-.757.37-1.567.719-2.419,1.046,3.741,1.666,5.944,3.724,5.944,5.604,0,2.043-2.595,4.296-6.941,6.027-5.059,2.015-11.827,3.124-19.059,3.124s-14-1.109-19.059-3.124c-4.346-1.731-6.941-3.984-6.941-6.027,0-1.881,2.203-3.939,5.944-5.604-.853-.328-1.662-.676-2.419-1.046-3.47,1.857-5.525,4.158-5.525,6.651,0,.001,0,.003,0,.004v9.073c0,6.159,12.536,11.151,28,11.151s28-4.992,28-11.151v-9.077M51.183,47.891c-.153.057-.303.115-.459.171.156-.056.307-.114.459-.171Z"/><ellipse class="cls-1" cx="32" cy="15.151" rx="28" ry="11.151"/></svg>