<?xml version="1.0" encoding="UTF-8"?>
<svg id="Layer_1" data-name="Layer 1" xmlns="http://www.w3.org/2000/svg" version="1.1" viewBox="0 0 400 142.822">
  <defs>
    <style>
      .cls-1 {
        fill: #0d9dda;
      }

      .cls-1, .cls-2, .cls-3, .cls-4, .cls-5, .cls-6 {
        stroke-width: 0px;
      }

      .cls-2 {
        fill: #e3066a;
      }

      .cls-3 {
        fill: #41b658;
      }

      .cls-4 {
        fill: #000;
      }

      .cls-5 {
        fill: #fcc003;
      }

      .cls-6 {
        fill: #1ab9ff;
      }
    </style>
  </defs>
  <path class="cls-1" d="M220.409,117.389c.655-.699,1.447-1.251,2.326-1.62.872-.386,1.812-.586,2.764-.588,1.268.005,2.512.354,3.602,1.009,1.09.656,1.987,1.595,2.597,2.72,1.117-.496,2.322-.756,3.541-.764,2.327,0,4.559.936,6.204,2.601,1.645,1.665,2.57,3.924,2.57,6.279s-.925,4.613-2.57,6.279c-1.645,1.665-3.877,2.601-6.204,2.601-.572.008-1.144-.058-1.699-.199-.785,1.434-2.085,2.507-3.632,2.995-1.556.476-3.232.354-4.704-.344-.558,1.361-1.525,2.511-2.764,3.286-1.225.805-2.663,1.216-4.123,1.177-1.449-.014-2.859-.484-4.032-1.345-1.181-.854-2.079-2.05-2.575-3.431-.461.1-.932.149-1.404.145-1.186-.021-2.346-.353-3.366-.964s-1.867-1.48-2.455-2.522c-.589-1.042-.899-2.221-.902-3.421-.003-1.2.303-2.38.887-3.425.592-1.04,1.447-1.902,2.477-2.499-.757-1.771-.843-3.762-.242-5.594.604-1.823,1.837-3.364,3.473-4.34,1.648-.985,3.598-1.317,5.474-.932,1.889.327,3.587,1.361,4.757,2.896h0Z"/>
  <g>
    <g>
      <g>
        <path class="cls-4" d="M127.954,79.665l5.01-11.619c5.401,4.015,12.579,6.112,19.65,6.112,5.223,0,8.528-2.025,8.528-5.081-.071-8.528-31.34-1.848-31.589-23.274-.071-10.873,9.594-19.259,23.274-19.259,8.137,0,16.274,2.025,22.066,6.609l-4.69,11.832c-5.33-3.376-11.939-5.792-18.193-5.792-4.264,0-7.107,2.025-7.107,4.584.071,8.386,31.589,3.802,31.909,24.269,0,11.122-9.416,18.939-22.954,18.939-9.878,0-18.975-2.31-25.904-7.32"/>
        <path class="cls-4" d="M319.619,63.888c-2.487,4.335-7.178,7.32-12.579,7.32-7.959,0-14.426-6.431-14.426-14.426s6.431-14.426,14.426-14.426c5.401,0,10.056,2.985,12.579,7.32l13.787-7.64c-5.152-9.203-15.066-15.457-26.365-15.457-16.665,0-30.203,13.538-30.203,30.203s13.538,30.203,30.203,30.203c11.371,0,21.178-6.218,26.365-15.457l-13.787-7.64Z"/>
        <rect class="cls-4" x="183.776" y="1.492" width="17.233" height="84.355"/>
        <polygon class="cls-4" points="340.193 1.492 340.193 85.883 357.426 85.883 357.426 60.584 377.893 85.883 399.959 85.883 373.949 55.822 398.04 27.787 376.934 27.787 357.426 51.061 357.426 1.492 340.193 1.492"/>
        <path class="cls-4" d="M252.284,64.03c-2.487,4.122-7.64,7.178-13.467,7.178-7.959,0-14.426-6.431-14.426-14.426s6.431-14.426,14.426-14.426c5.792,0,10.944,3.234,13.467,7.426v14.249ZM252.284,27.787v6.858c-2.807-4.761-9.843-8.066-17.162-8.066-15.137,0-27.076,13.36-27.076,30.132s11.939,30.31,27.076,30.31c7.32,0,14.355-3.305,17.162-8.066v6.858h17.233V27.787h-17.233Z"/>
      </g>
      <g>
        <g>
          <path class="cls-2" d="M21.355,63.959c0,5.898-4.761,10.624-10.624,10.624S.071,69.822.071,63.959s4.761-10.624,10.624-10.624h10.624v10.624h.036Z"/>
          <path class="cls-2" d="M26.65,63.959c0-5.898,4.761-10.624,10.624-10.624s10.624,4.761,10.624,10.624v26.579c0,5.898-4.761,10.624-10.624,10.624s-10.624-4.726-10.624-10.624v-26.579Z"/>
        </g>
        <g>
          <path class="cls-6" d="M37.31,21.249c-5.898,0-10.624-4.761-10.624-10.624S31.447,0,37.31,0s10.624,4.761,10.624,10.624v10.624h-10.624Z"/>
          <path class="cls-6" d="M37.31,26.65c5.898,0,10.624,4.761,10.624,10.624s-4.761,10.624-10.624,10.624H10.624c-5.898,0-10.624-4.761-10.624-10.624s4.761-10.624,10.624-10.624h26.685Z"/>
        </g>
        <g>
          <path class="cls-3" d="M79.914,37.274c0-5.898,4.761-10.624,10.624-10.624s10.624,4.761,10.624,10.624-4.761,10.624-10.624,10.624h-10.624v-10.624Z"/>
          <path class="cls-3" d="M74.619,37.274c0,5.898-4.761,10.624-10.624,10.624s-10.624-4.761-10.624-10.624V10.624c0-5.898,4.761-10.624,10.624-10.624s10.624,4.726,10.624,10.624v26.65Z"/>
        </g>
        <g>
          <path class="cls-5" d="M63.959,79.914c5.898,0,10.624,4.761,10.624,10.624s-4.761,10.624-10.624,10.624-10.624-4.761-10.624-10.624v-10.624h10.624Z"/>
          <path class="cls-5" d="M63.959,74.584c-5.898,0-10.624-4.761-10.624-10.624s4.761-10.624,10.624-10.624h26.685c5.898,0,10.624,4.761,10.624,10.624s-4.761,10.624-10.624,10.624h-26.685Z"/>
        </g>
      </g>
    </g>
    <g>
      <g>
        <path class="cls-4" d="M139.278,117.035l-.616,1.981c-.693-.151-1.365-.216-2.014-.195-2.035.022-3.053,1.136-3.053,3.345v1.364h4.157v2.111h-4.157v14.419h-2.76v-14.419h-2.891v-1.753l2.891-.357v-1.429c0-1.754.465-3.101,1.397-4.043.93-.942,2.317-1.423,4.157-1.445,1.061,0,2.024.141,2.89.422Z"/>
        <path class="cls-4" d="M140.772,127.232c0-1.212-.076-2.446-.228-3.702h2.631c.108.736.184,1.613.227,2.63h.066c.952-2.056,2.684-3.085,5.196-3.085.173,0,.487.033.942.098l-.162,2.371c-.217-.043-.552-.065-1.007-.065-1.58,0-2.793.531-3.637,1.591-.844,1.061-1.266,2.436-1.266,4.124v8.866h-2.76v-12.828Z"/>
        <path class="cls-4" d="M167.207,131.746c0,1.711-.331,3.231-.991,4.563-.66,1.331-1.612,2.365-2.857,3.101-1.246.736-2.734,1.104-4.465,1.104-1.711,0-3.195-.373-4.449-1.12-1.256-.747-2.209-1.78-2.858-3.101-.65-1.32-.974-2.836-.974-4.547,0-2.641.725-4.746,2.176-6.316,1.45-1.57,3.485-2.355,6.106-2.355,1.753,0,3.252.363,4.497,1.088,1.245.726,2.192,1.737,2.842,3.036.649,1.299.974,2.815.974,4.547ZM153.47,131.746c0,1.971.449,3.556,1.348,4.758.899,1.201,2.258,1.803,4.076,1.803,1.839,0,3.214-.601,4.124-1.803.909-1.201,1.364-2.787,1.364-4.758s-.455-3.54-1.364-4.709c-.91-1.169-2.285-1.754-4.124-1.754s-3.205.585-4.092,1.754c-.888,1.169-1.332,2.739-1.332,4.709Z"/>
        <path class="cls-4" d="M170.779,127.232c0-1.212-.076-2.446-.228-3.702h2.631c.108.584.184,1.364.227,2.338h.066c.52-.823,1.25-1.494,2.192-2.014.942-.52,2.03-.779,3.264-.779,1.407,0,2.554.298,3.442.893.887.596,1.537,1.412,1.948,2.452h.066c.563-1.039,1.331-1.856,2.305-2.452.974-.595,2.143-.893,3.507-.893s2.501.298,3.41.893c.91.596,1.58,1.375,2.014,2.338.432.963.649,2.019.649,3.166v10.587h-2.76v-10.197c0-1.277-.309-2.349-.926-3.215-.617-.866-1.608-1.299-2.971-1.299-.996,0-1.85.26-2.565.779s-1.256,1.213-1.624,2.078c-.369.866-.552,1.797-.552,2.793v9.061h-2.76v-10.262c0-1.255-.314-2.311-.942-3.166-.628-.855-1.613-1.283-2.955-1.283-1.429,0-2.566.503-3.41,1.51-.844,1.007-1.266,2.246-1.266,3.718v9.483h-2.76v-12.828Z"/>
      </g>
      <g>
        <path class="cls-4" d="M251.43,137.916l1.461-1.819c.93.736,1.894,1.266,2.89,1.591.996.325,2.122.487,3.377.487,1.559,0,2.82-.363,3.784-1.088.963-.725,1.445-1.781,1.445-3.166,0-.974-.227-1.764-.682-2.371-.455-.606-1.083-1.093-1.883-1.462-.802-.368-1.863-.725-3.183-1.072-2.143-.563-3.745-1.326-4.806-2.289-1.061-.963-1.592-2.311-1.592-4.043,0-1.926.72-3.431,2.16-4.514,1.44-1.082,3.274-1.624,5.505-1.624,1.407,0,2.679.184,3.815.552,1.137.369,2.192.909,3.166,1.624l-1.299,1.883c-.909-.584-1.813-1.017-2.711-1.299-.899-.281-1.889-.422-2.971-.422-1.451,0-2.62.309-3.508.926-.887.617-1.331,1.51-1.331,2.679s.406,2.052,1.217,2.647c.812.596,2.137,1.132,3.979,1.608,2.316.606,4.07,1.429,5.261,2.468,1.19,1.039,1.786,2.576,1.786,4.611,0,1.473-.363,2.717-1.088,3.735s-1.704,1.781-2.938,2.289-2.62.763-4.157.763c-2.988,0-5.553-.898-7.696-2.695Z"/>
        <path class="cls-4" d="M269.777,135.545c0-2.143.774-3.632,2.322-4.465,1.548-.833,3.881-1.25,6.999-1.25.757,0,1.331.011,1.721.033v-.942c0-1.234-.336-2.154-1.007-2.76-.671-.606-1.699-.909-3.085-.909-1.754,0-3.41.466-4.969,1.397l-.974-1.851c1.862-1.148,3.897-1.722,6.105-1.722,2.317,0,4.01.542,5.083,1.624,1.072,1.083,1.608,2.728,1.608,4.936v6.755c0,1.191.075,2.414.227,3.67h-2.533c-.151-.952-.227-1.699-.227-2.241h-.098c-.606.888-1.369,1.559-2.289,2.013-.92.455-2.106.682-3.556.682-1.603,0-2.891-.428-3.865-1.283-.974-.855-1.461-2.084-1.461-3.686ZM280.819,133.954v-2.143l-1.461-.033c-1.624,0-2.918.109-3.881.325-.963.217-1.678.584-2.143,1.104-.466.52-.699,1.246-.699,2.176,0,.953.281,1.684.844,2.192.563.509,1.342.763,2.338.763,1.039,0,1.938-.222,2.696-.666.758-.444,1.332-1.001,1.721-1.672.39-.671.585-1.353.585-2.046Z"/>
        <path class="cls-4" d="M291.535,117.067v22.992h-2.76v-22.992h2.76Z"/>
        <path class="cls-4" d="M310.826,132.785h-12.275c.108,1.689.617,3.031,1.526,4.027.91.996,2.209,1.494,3.897,1.494.996,0,1.889-.135,2.68-.406.79-.271,1.586-.676,2.387-1.218l1.234,1.786c-.931.671-1.922,1.18-2.972,1.526-1.05.346-2.213.519-3.491.519-2.533,0-4.509-.801-5.927-2.403-1.418-1.602-2.127-3.735-2.127-6.397,0-1.71.303-3.215.91-4.514.606-1.299,1.488-2.311,2.647-3.036,1.157-.725,2.549-1.088,4.173-1.088,2.403,0,4.238.779,5.505,2.338,1.266,1.559,1.899,3.627,1.899,6.203,0,.52-.022.909-.065,1.169ZM308.196,130.642c-.044-1.645-.466-2.966-1.267-3.962-.801-.996-1.959-1.494-3.475-1.494-1.537,0-2.727.514-3.572,1.542-.845,1.028-1.299,2.333-1.365,3.913h9.678Z"/>
        <path class="cls-4" d="M325.081,124.829l-1.234,1.721c-1.277-.887-2.663-1.331-4.157-1.331-1.039,0-1.85.2-2.435.601-.585.401-.877.969-.877,1.705,0,.541.118.985.357,1.331.237.347.638.639,1.201.877.563.238,1.385.487,2.468.747,1.689.412,2.939,1.012,3.751,1.803.812.79,1.218,1.824,1.218,3.101,0,1.624-.607,2.885-1.819,3.784-1.213.898-2.707,1.347-4.481,1.347-2.382,0-4.373-.638-5.975-1.916l1.266-1.721c.735.498,1.461.866,2.176,1.104.715.239,1.526.357,2.436.357,1.104,0,1.975-.238,2.614-.715.639-.476.958-1.158.958-2.046,0-.585-.119-1.056-.356-1.413-.239-.357-.634-.655-1.186-.893-.552-.238-1.381-.498-2.485-.779-1.711-.433-2.955-1.018-3.735-1.754-.779-.736-1.169-1.753-1.169-3.052,0-1.407.546-2.528,1.639-3.361,1.094-.833,2.538-1.25,4.336-1.25,2.122,0,3.95.585,5.488,1.754Z"/>
        <path class="cls-4" d="M338.915,117.035l-.616,1.981c-.693-.151-1.365-.216-2.014-.195-2.035.022-3.053,1.136-3.053,3.345v1.364h4.157v2.111h-4.157v14.419h-2.76v-14.419h-2.891v-1.753l2.891-.357v-1.429c0-1.754.465-3.101,1.397-4.043.93-.942,2.317-1.423,4.157-1.445,1.061,0,2.024.141,2.89.422Z"/>
        <path class="cls-4" d="M355.835,131.746c0,1.711-.331,3.231-.991,4.563-.66,1.331-1.612,2.365-2.857,3.101-1.246.736-2.734,1.104-4.465,1.104-1.711,0-3.195-.373-4.449-1.12-1.256-.747-2.209-1.78-2.858-3.101-.65-1.32-.974-2.836-.974-4.547,0-2.641.725-4.746,2.176-6.316,1.45-1.57,3.485-2.355,6.106-2.355,1.753,0,3.252.363,4.497,1.088,1.245.726,2.192,1.737,2.842,3.036.649,1.299.974,2.815.974,4.547ZM342.097,131.746c0,1.971.449,3.556,1.348,4.758.899,1.201,2.258,1.803,4.076,1.803,1.839,0,3.214-.601,4.124-1.803.909-1.201,1.364-2.787,1.364-4.758s-.455-3.54-1.364-4.709c-.91-1.169-2.285-1.754-4.124-1.754s-3.205.585-4.092,1.754c-.888,1.169-1.332,2.739-1.332,4.709Z"/>
        <path class="cls-4" d="M359.406,127.232c0-1.212-.076-2.446-.228-3.702h2.631c.108.736.184,1.613.227,2.63h.066c.952-2.056,2.684-3.085,5.196-3.085.173,0,.487.033.942.098l-.162,2.371c-.217-.043-.552-.065-1.007-.065-1.58,0-2.793.531-3.637,1.591-.844,1.061-1.266,2.436-1.266,4.124v8.866h-2.76v-12.828Z"/>
        <path class="cls-4" d="M377.43,123.075c1.039,0,2.03.158,2.971.471.942.314,1.78.753,2.516,1.315l-1.104,1.916c-1.256-.931-2.717-1.397-4.384-1.397-1.775,0-3.118.58-4.027,1.737-.909,1.158-1.364,2.711-1.364,4.66,0,1.905.455,3.448,1.364,4.628.91,1.18,2.241,1.77,3.995,1.77,1.494,0,2.977-.466,4.449-1.397l1.006,1.949c-1.645,1.191-3.529,1.786-5.651,1.786-1.862,0-3.389-.417-4.579-1.25-1.191-.833-2.051-1.91-2.581-3.231-.531-1.32-.796-2.739-.796-4.254,0-2.641.725-4.752,2.176-6.332,1.45-1.58,3.453-2.371,6.008-2.371Z"/>
        <path class="cls-4" d="M399.935,132.785h-12.275c.108,1.689.617,3.031,1.526,4.027.91.996,2.209,1.494,3.897,1.494.996,0,1.889-.135,2.68-.406.79-.271,1.586-.676,2.387-1.218l1.234,1.786c-.931.671-1.922,1.18-2.972,1.526-1.05.346-2.213.519-3.491.519-2.533,0-4.509-.801-5.927-2.403-1.418-1.602-2.127-3.735-2.127-6.397,0-1.71.303-3.215.91-4.514.606-1.299,1.488-2.311,2.647-3.036,1.157-.725,2.549-1.088,4.173-1.088,2.403,0,4.238.779,5.505,2.338s1.899,3.627,1.899,6.203c0,.52-.022.909-.065,1.169ZM397.305,130.642c-.044-1.645-.466-2.966-1.267-3.962-.801-.996-1.959-1.494-3.475-1.494-1.537,0-2.727.514-3.572,1.542-.845,1.028-1.299,2.333-1.365,3.913h9.678Z"/>
      </g>
    </g>
  </g>
</svg>