<?xml version="1.0" encoding="UTF-8"?>
<svg id="Layer_1" xmlns="http://www.w3.org/2000/svg" version="1.1" viewBox="0 0 101.27 101.16">
  <!-- Generator: Adobe Illustrator 30.2.1, SVG Export Plug-In . SVG Version: 2.1.1 Build 1)  -->
  <defs>
    <style>
      .st0 {
        fill: #f9c014;
      }

      .st1 {
        fill: #e2146b;
      }

      .st2 {
        fill: #4ab4e7;
      }

      .st3 {
        fill: #42b659;
      }
    </style>
  </defs>
  <g>
    <path class="st1" d="M21.35,63.96c0,5.9-4.76,10.62-10.62,10.62S.07,69.82.07,63.96s4.76-10.62,10.62-10.62h10.62v10.62h.04Z"/>
    <path class="st1" d="M26.65,63.96c0-5.9,4.76-10.62,10.62-10.62s10.62,4.76,10.62,10.62v26.58c0,5.9-4.76,10.62-10.62,10.62s-10.62-4.73-10.62-10.62c0,0,0-26.58,0-26.58Z"/>
  </g>
  <g>
    <path class="st2" d="M37.31,21.25c-5.9,0-10.62-4.76-10.62-10.62S31.45,0,37.31,0s10.62,4.76,10.62,10.62v10.62h-10.62Z"/>
    <path class="st2" d="M37.31,26.65c5.9,0,10.62,4.76,10.62,10.62s-4.76,10.62-10.62,10.62H10.62c-5.9,0-10.62-4.76-10.62-10.62s4.76-10.62,10.62-10.62h26.69Z"/>
  </g>
  <g>
    <path class="st3" d="M79.91,37.27c0-5.9,4.76-10.62,10.62-10.62s10.62,4.76,10.62,10.62-4.76,10.62-10.62,10.62h-10.62v-10.62Z"/>
    <path class="st3" d="M74.62,37.27c0,5.9-4.76,10.62-10.62,10.62s-10.62-4.76-10.62-10.62V10.62c0-5.9,4.76-10.62,10.62-10.62s10.62,4.73,10.62,10.62v26.65Z"/>
  </g>
  <g>
    <path class="st0" d="M63.96,79.91c5.9,0,10.62,4.76,10.62,10.62s-4.76,10.62-10.62,10.62-10.62-4.76-10.62-10.62v-10.62h10.62Z"/>
    <path class="st0" d="M63.96,74.58c-5.9,0-10.62-4.76-10.62-10.62s4.76-10.62,10.62-10.62h26.68c5.9,0,10.62,4.76,10.62,10.62s-4.76,10.62-10.62,10.62h-26.68Z"/>
  </g>
</svg>