<?xml version="1.0" encoding="UTF-8"?><svg id="Icons" xmlns="http://www.w3.org/2000/svg" xmlns:xlink="http://www.w3.org/1999/xlink" viewBox="0 0 64 64"><defs><style>.cls-1{fill:#cb65ff;}.cls-2{fill:#3a49da;}.cls-3{fill:#fff;}.cls-4{fill:#ba01ff;}.cls-5{clip-path:url(#clippath);}</style><clipPath id="clippath"><path class="cls-1" d="M44.479,6.267c8.572,0,15.521,6.949,15.521,15.521,0,.008,0,.016,0,.024s0,.016,0,.024c0,4.756-2.14,9.013-5.509,11.86-7.56,6.963-14.378,14.72-20.321,23.139l-.013.014c-1.139,1.179-3.029,1.179-4.168,0l-.56-.58c-5.847-8.199-12.526-15.763-19.915-22.569-3.372-2.847-5.513-7.106-5.513-11.864,0-2.545.612-4.947,1.698-7.066,2.571-5.02,7.796-8.455,13.823-8.455h.201c5.022.065,9.468,2.513,12.26,6.266,2.826-3.83,7.371-6.314,12.496-6.314Z"/></clipPath></defs><path class="cls-1" d="M44.479,6.267c8.572,0,15.521,6.949,15.521,15.521,0,.008,0,.016,0,.024s0,.016,0,.024c0,4.756-2.14,9.013-5.509,11.86-7.56,6.963-14.378,14.72-20.321,23.139l-.013.014c-1.139,1.179-3.029,1.179-4.168,0l-.56-.58c-5.847-8.199-12.526-15.763-19.915-22.569-3.372-2.847-5.513-7.106-5.513-11.864,0-2.545.612-4.947,1.698-7.066,2.571-5.02,7.796-8.455,13.823-8.455h.201c5.022.065,9.468,2.513,12.26,6.266,2.826-3.83,7.371-6.314,12.496-6.314Z"/><g class="cls-5"><path class="cls-4" d="M8.56,26.169c-4.118-5.405-1.52-12.298-.751-14.502-.821.943-1.536,1.98-2.111,3.103-1.085,2.119-1.698,4.521-1.698,7.066,0,4.759,2.141,9.017,5.513,11.864,7.389,6.806,14.069,14.37,19.916,22.569l.56.58c1.139,1.179,3.029,1.179,4.168,0l.013-.014c1.27-1.8,2.589-3.562,3.938-5.3,1.107-1.426,2.235-2.833,3.393-4.216.179-.214-10.822,7.879-32.941-21.15Z"/><path class="cls-3" d="M43.057,10.82c5.515-1.348,11.083,2.048,12.437,7.585.19.777.287,1.555.298,2.322.018,1.294-1.606,1.437-2.315.354-2.503-3.822-6.309-6.578-10.631-7.787-1.244-.348-1.603-1.935-.368-2.314.19-.058.384-.112.58-.16Z"/><path class="cls-2" d="M34.845,45.483c-.044,0-.088-.002-.132-.004-.998-.052-1.869-.69-2.22-1.626l-6.437-17.182-3.062,6.125c-.425.85-1.294,1.388-2.245,1.388H3.77c-1.387,0-2.511-1.124-2.511-2.511s1.124-2.511,2.511-2.511h15.428l4.944-9.888c.447-.894,1.42-1.412,2.377-1.384.997.053,1.868.691,2.219,1.626l6.434,17.174,3.062-6.138c.425-.852,1.294-1.391,2.246-1.391h19.314c1.387,0,2.511,1.124,2.511,2.511s-1.124,2.511-2.511,2.511h-17.762l-4.942,9.908c-.426.854-1.298,1.39-2.245,1.391Z"/></g></svg>