<?xml version="1.0" encoding="UTF-8"?><svg id="Icons" xmlns="http://www.w3.org/2000/svg" viewBox="0 0 64 64"><defs><style>.cls-1{fill:#fff;}</style></defs><path class="cls-1" d="M60,21.788c0-8.572-6.949-15.521-15.521-15.521-5.125,0-9.67,2.484-12.496,6.314-2.792-3.753-7.239-6.201-12.26-6.265h-.201c-6.027-.001-11.252,3.434-13.823,8.454-1.086,2.119-1.698,4.521-1.698,7.066,0,4.759,2.141,9.017,5.513,11.864,7.389,6.806,14.069,14.37,19.915,22.569l.56.58c.57.59,1.327.884,2.084.884s1.515-.295,2.084-.884l.013-.014c5.943-8.419,12.761-16.176,20.321-23.139,3.369-2.847,5.509-7.104,5.509-11.86,0-.008,0-.016,0-.024s0-.016,0-.024ZM32.646,55.527c-.213.177-.445.206-.573.206-.142,0-.415-.036-.646-.274l-.457-.473c-5.335-7.465-11.396-14.446-18.033-20.802h7.813c.951,0,1.82-.537,2.245-1.388l3.062-6.124,6.437,17.181c.351.936,1.222,1.574,2.22,1.626.044.002.088.003.131.003.948,0,1.82-.535,2.246-1.39l4.942-9.909h9.031c-6.798,6.509-12.989,13.672-18.419,21.343ZM58,21.836c0,2.636-.778,5.166-2.176,7.328h-15.344c-.952,0-1.822.538-2.247,1.39l-3.061,6.138-6.434-17.174c-.35-.935-1.221-1.573-2.219-1.626-1.002-.057-1.93.491-2.377,1.384l-4.944,9.888h-11.023c-1.398-2.162-2.176-4.692-2.176-7.328,0-2.169.497-4.24,1.478-6.154,2.327-4.544,6.942-7.367,12.031-7.367h.188c4.247.055,8.14,2.044,10.681,5.46.377.507.972.806,1.605.806h.004c.634-.001,1.229-.303,1.605-.812,2.542-3.445,6.612-5.502,10.887-5.502,7.455,0,13.521,6.066,13.522,13.495,0,.013,0,.062,0,.075Z"/></svg>