<?xml version="1.0" encoding="UTF-8"?><svg id="Icons" xmlns="http://www.w3.org/2000/svg" viewBox="0 0 64 64"><defs><style>.cls-1{fill:none;}.cls-2{fill:#cb65ff;}</style></defs><path class="cls-2" d="M42.033,34.185l-4.942,9.909c-.426.854-1.298,1.39-2.246,1.39-.043,0-.087,0-.131-.003-.998-.052-1.87-.69-2.22-1.626l-6.437-17.181-3.062,6.124c-.425.851-1.294,1.388-2.245,1.388h-10.724c7.183,6.681,13.693,14.078,19.403,22.085l.56.58c1.139,1.179,3.029,1.179,4.168,0l.013-.014c5.806-8.225,12.452-15.812,19.805-22.651h-11.942Z"/><path class="cls-2" d="M60,21.788c0-8.572-6.949-15.521-15.521-15.521-5.125,0-9.67,2.484-12.496,6.314-2.792-3.753-7.239-6.201-12.26-6.265h-.201c-6.027-.001-11.252,3.434-13.823,8.454-1.086,2.119-1.698,4.521-1.698,7.066,0,2.655.686,5.143,1.861,7.328h13.338l4.944-9.888c.447-.893,1.375-1.441,2.377-1.384.998.053,1.869.691,2.219,1.626l6.434,17.174,3.061-6.138c.425-.852,1.295-1.39,2.247-1.39h17.659c1.175-2.185,1.861-4.673,1.861-7.328,0-.008,0-.016,0-.024s0-.016,0-.024Z"/><path class="cls-1" d="M44.479,6.267c8.572,0,15.521,6.949,15.521,15.521,0,.008,0,.016,0,.024s0,.016,0,.024c0,4.756-2.14,9.013-5.509,11.86-7.56,6.963-14.378,14.72-20.321,23.139l-.013.014c-1.139,1.179-3.029,1.179-4.168,0l-.56-.58c-5.847-8.199-12.526-15.763-19.915-22.569-3.372-2.847-5.513-7.106-5.513-11.864,0-2.545.612-4.947,1.698-7.066,2.571-5.02,7.796-8.455,13.823-8.455h.201c5.022.065,9.468,2.513,12.26,6.266,2.826-3.83,7.371-6.314,12.496-6.314Z"/></svg>