<?xml version="1.0" encoding="UTF-8"?><svg id="Icons" xmlns="http://www.w3.org/2000/svg" viewBox="0 0 64 64"><defs><style>.cls-1{fill:#fff;}</style></defs><path class="cls-1" d="M14.698,9.465c-1.738-1.776-3.368-3.754-3.55-4.271-.138-.693-.751-1.178-1.433-1.168-.766-.129-1.495.353-1.649,1.121-.193.564-1.824,2.541-3.562,4.318-.561.574-.551,1.493.023,2.053.283.276.649.414,1.015.414.377,0,.753-.146,1.038-.437.219-.224.464-.48.718-.75.001.042-.005.082-.003.125l1.234,34.826c.042.78.509,1.383,1.071,1.383s1.029-.603,1.071-1.383l1.234-34.826c.002-.043-.004-.083-.003-.125.254.27.499.526.718.75.285.291.661.437,1.038.437.366,0,.733-.138,1.015-.414.573-.561.583-1.48.023-2.053Z"/><path class="cls-1" d="M58.765,52.954c-.554-.19-2.571-1.855-4.317-3.562-.572-.56-1.492-.552-2.053.023-.561.573-.551,1.493.022,2.053.224.219.48.464.75.719-.042.001-.082-.005-.125-.003l-34.826,1.234c-.78.042-1.383.509-1.383,1.071s.603,1.029,1.383,1.071l34.826,1.234c.042.002.082-.004.124-.003-.27.254-.526.499-.749.718-.573.561-.583,1.48-.023,2.053.285.291.661.437,1.038.437.366,0,.733-.138,1.015-.414,1.746-1.707,3.763-3.371,4.271-3.55.69-.138,1.167-.744,1.167-1.422.131-.771-.349-1.506-1.12-1.66Z"/><path class="cls-1" d="M54.536,15.888l-.057.027c-6.196,2.629-11.579,5.636-16.001,8.938l-1.017.871c-.44.364-1.145,1.073-1.232,1.924v19.568c.298-.079.587-.195.844-.39,3.784-2.867,7.739-5.334,11.871-7.386,1.565-.822,3.086-1.538,4.554-2.124.749-.515,1.14-1.434.979-2.359-.891-5.101-1.08-10.997.063-18.402.035-.227.027-.449-.003-.667Z"/><path class="cls-1" d="M35.468,24.884c.216-.241.454-.475.721-.696l1.054-.9c4.526-3.383,9.949-6.424,16.163-9.085-.103-.064-.193-.143-.308-.191-.207-.087-.405-.179-.611-.267-.001,0-.003-.001-.005-.002-.127-.055-.252-.11-.378-.166-.19-.083-.381-.166-.57-.25-.552-.245-1.096-.493-1.633-.744-.002,0-.005-.002-.007-.003,0,0-.002,0-.003-.001-.293-.137-.588-.274-.877-.413-.596-.287-1.179-.58-1.757-.875-.003-.002-.007-.004-.011-.005-.08-.041-.16-.081-.24-.122-.131-.065-.262-.131-.389-.197-.777-.407-1.539-.822-2.281-1.246-.111-.063-.219-.129-.328-.194-.036-.022-.072-.043-.109-.065-.004-.002-.007-.005-.011-.007-.585-.34-1.161-.685-1.723-1.036,0,0-.001,0-.002-.001-.157-.098-.309-.198-.462-.297-.086-.056-.173-.111-.259-.167-.459-.296-.912-.596-1.355-.901-.25-.172-.497-.346-.742-.52-.428-.305-.847-.615-1.259-.929,0,0-.002-.002-.003-.003-.123-.093-.244-.187-.367-.281-.102-.077-.204-.154-.304-.233-.099-.078-.204-.153-.301-.231-.837-.671-2.026-.695-2.88-.046-.124.094-.252.184-.376.277-.066.05-.133.098-.2.147-.18.133-.359.265-.54.397-.001,0-.003.002-.004.003-.433.316-.871.628-1.313.936,0,0-.002.002-.004.003-.176.122-.353.243-.53.364-.082.056-.162.112-.244.168-.463.313-.933.62-1.407.924-.002.001-.004.003-.006.004-.217.139-.433.28-.651.417-.022.014-.044.029-.067.043-.608.38-1.226.752-1.85,1.117-.003.002-.006.004-.009.005-.093.054-.184.11-.276.165-.016.01-.033.02-.049.03-.74.427-1.492.842-2.254,1.248,0,0,0,0,0,0-.221.118-.447.23-.67.346-.001,0-.003.002-.005.003-.547.285-1.098.566-1.657.84-.286.14-.576.276-.864.414-.516.245-1.036.486-1.561.722-.303.136-.606.271-.912.404-.195.085-.386.175-.583.258-.137.058-.248.148-.367.228,5.68,2.425,10.934,5.366,15.617,8.758l1.283,1.085c.289.236.532.494.739.768Z"/><path class="cls-1" d="M34.229,27.472c0-.132-.014-.428-.009-.587-.026-.442-.31-.854-.772-1.233l-1.236-1.049c-4.583-3.317-9.801-6.226-15.454-8.615-.019.172-.027.346-.007.524.023.204.039.406.06.609.035.333.066.666.097.999.053.562.099,1.123.14,1.682.024.325.049.651.069.975.038.603.067,1.203.092,1.802.012.269.027.538.035.806.028.861.045,1.719.046,2.573,0,.01,0,.019,0,.029,0,.083-.003.164-.004.247h0c-.001.762-.014,1.521-.037,2.277-.002.075-.001.151-.004.227-.007.208-.023.413-.032.62-.024.568-.051,1.135-.087,1.699-.02.315-.043.63-.067.944-.042.538-.088,1.075-.141,1.61-.03.312-.061.623-.095.933-.019.168-.032.338-.052.506-.124,1.045.48,2.034,1.453,2.436.052.022.107.048.159.07.532.223,1.069.459,1.614.714.089.041.179.086.268.128.528.25,1.061.512,1.6.79.058.03.116.058.174.088.414.214.83.435,1.25.664.158.086.317.177.476.266.116.065.232.129.349.195.574.323,1.153.657,1.738,1.005.093.055.187.113.28.169.567.339,1.137.688,1.712,1.049.06.038.12.074.18.111.605.381,1.216.774,1.83,1.175.122.079.243.159.365.239.606.399,1.216.806,1.83,1.221.095.064.191.13.286.195.6.408,1.202.823,1.807,1.245.03.021.06.041.089.062v-19.399Z"/></svg>