<?xml version="1.0" encoding="UTF-8"?><svg id="Icons" xmlns="http://www.w3.org/2000/svg" viewBox="0 0 64 64"><defs><style>.cls-1{fill:#90d0fe;}.cls-2{fill:#001e5b;}.cls-3{fill:#fff;}.cls-4{fill:#05628a;}.cls-5{fill:#0d9dda;}</style></defs><path class="cls-1" d="M44.557,60h-25.167c-1.017,0-1.599-1.161-.989-1.975l1.749-2.339c2.715-3.631,4.658-7.78,5.71-12.191l.728-3.052c.133-.556.63-.949,1.202-.949h8.423c.572,0,1.069.393,1.202.949l.776,3.256c1.096,4.595,3.158,8.903,6.05,12.638l1.294,1.672c.629.812.05,1.992-.977,1.992Z"/><path class="cls-2" d="M25.587,43.721c.048,0,.095-.004.142-.012,2.023-.352,4.103-.535,6.226-.535,2.121,0,4.2.183,6.221.534.05.009.102.013.153.013.487,0,.882-.395.882-.882l-2.18-12.417c0-.685-.628-1.198-1.305-1.086-1.936.321-1.744.488-3.771.488-2.005,0-1.791-.163-3.707-.477-.676-.111-1.302.401-1.302,1.086l-2.18,12.467c0,.454.368.821.821.821Z"/><path class="cls-2" d="M39.391,30.041c-.223,1.526-.583,3.052-1.016,4.571-.708-.327-1.37-.582-1.831-.651-.043-.006.516,4.454.471,4.448.299.323-.152.721-.28,1.046-.028.072.033.176,0,.241,5.349.641,6.786,3.574,9.082,5.874.129.266.928,1.062.978-.362.083-2.352,1.18-12.62-7.405-15.168Z"/><path class="cls-2" d="M24.609,30.041c.223,1.526.583,3.052,1.016,4.571.708-.327,1.37-.582,1.831-.651.043-.006-.516,4.454-.471,4.448-.299.323.152.721.28,1.046.028.072-.033.176,0,.241-5.349.641-6.786,3.574-9.082,5.874-.129.266-.928,1.062-.978-.362-.083-2.352-1.18-12.62,7.405-15.168Z"/><path class="cls-5" d="M40.27,12.685c-1.438-2.928-3.643-6.122-6.548-8.146-1.031-.718-2.437-.718-3.467,0-2.905,2.025-5.11,5.218-6.548,8.146-2.98,6.071-3.383,12.839-2.515,19.144.41,2.981,1.259,5.964,2.235,8.888l.055.029c3.745-1.3,13.114-1.688,17.002.002l.066-.031c.977-2.924,1.825-5.907,2.236-8.888.868-6.305.465-13.073-2.515-19.144Z"/><circle class="cls-2" cx="31.988" cy="17.762" r="4.62"/><circle class="cls-1" cx="31.988" cy="17.762" r="2.751"/><path class="cls-4" d="M21.191,31.829c.41,2.981,1.246,6.023,2.222,8.947.043-.007.111-.045.153-.059,2.863-.962,8.822-1.407,13.238-.851-3.291-1.358-9.3-5.537-11.417-12.197-2.036-6.404-1.751-11.381-.219-17.582-.549.865-1.042,1.742-1.462,2.598-2.98,6.071-3.383,12.839-2.515,19.144Z"/><path class="cls-3" d="M38.775,14.312c-1.279-4.172-4.877-8.736-7.355-8.107-1.506.387-.49,1.544.06,1.824,2.368,1.204,4.728,3.507,6.627,6.425.369.567.865.498.669-.143Z"/><path class="cls-2" d="M32.175,46.056h0c-1.519,0-1.519-15.23,0-15.23h0c1.519,0,1.519,15.23,0,15.23Z"/><path class="cls-2" d="M28.599,56.887c-.163,0-.328-.053-.466-.16l-3.041-2.372c-.185-.144-.292-.365-.292-.599s.108-.455.292-.599l3.041-2.372c.331-.257.808-.199,1.066.132.258.33.199.808-.132,1.066l-2.273,1.773,2.273,1.773c.331.258.39.735.132,1.066-.15.192-.373.293-.599.293Z"/><path class="cls-2" d="M35.401,56.887c-.226,0-.45-.1-.599-.293-.258-.33-.199-.808.132-1.066l2.273-1.773-2.273-1.773c-.331-.258-.39-.735-.132-1.066.258-.331.735-.389,1.066-.132l3.041,2.372c.185.144.292.365.292.599s-.108.455-.292.599l-3.041,2.372c-.139.108-.303.16-.466.16Z"/><path class="cls-2" d="M30.934,57.778c-.076,0-.154-.012-.23-.036-.4-.127-.621-.554-.493-.954l2.077-6.526c.127-.4.554-.622.954-.493.4.127.621.554.493.954l-2.077,6.526c-.103.323-.402.53-.724.53Z"/></svg>