<?xml version="1.0" encoding="UTF-8"?><svg id="Icons" xmlns="http://www.w3.org/2000/svg" viewBox="0 0 64 64"><defs><style>.cls-1{fill:#001e5b;}.cls-2{fill:#0d9bd8;}.cls-3{fill:#fff;}.cls-4{fill:#05628a;}.cls-5{fill:#0d9dda;}</style></defs><path class="cls-1" d="M19.325,29.77c.951,0,1.7.812,1.638,1.766-.28,4.305-.28,6.927,0,11.233.062.954-.687,1.766-1.638,1.766h-6.868c-.951,0-1.7-.812-1.638-1.766.281-4.305.281-6.927,0-11.232-.062-.954.687-1.766,1.638-1.766h6.868Z"/><path class="cls-2" d="M41.034,57.836c0,1.351-1.238,2.361-2.568,2.131-5.01-.865-10.162-1.317-15.419-1.317s-10.409.451-15.419,1.317c-1.331.23-2.569-.78-2.569-2.131v-21.52c0-1.351,1.238-2.361,2.569-2.131,5.01.866,25.828.866,30.838,0,1.331-.23,2.568.78,2.568,2.131v21.52Z"/><polyline class="cls-2" points="38.465 34.185 21.77 46.734 7.628 34.185"/><path class="cls-1" d="M37.232,4c.951,0,1.7.812,1.638,1.766-.28,4.305-.28,6.927,0,11.233.062.954-.687,1.766-1.638,1.766h-6.868c-.951,0-1.7-.812-1.638-1.766.281-4.305.281-6.927,0-11.232-.062-.954.687-1.766,1.638-1.766h6.868Z"/><path class="cls-1" d="M51.543,4c.951,0,1.7.812,1.638,1.766-.28,4.305-.28,6.927,0,11.233.062.954-.687,1.766-1.638,1.766h-6.868c-.951,0-1.7-.812-1.638-1.766.281-4.305.281-6.927,0-11.232-.062-.954.687-1.766,1.638-1.766h6.868Z"/><path class="cls-5" d="M56.373,8.415c-5.01.866-25.828.866-30.838,0-1.331-.23-2.569.78-2.569,2.131v.126c.185,1.83,2.538,20.858,20.474,23.517l-.337.009h13.269c1.331.23,2.568-.78,2.568-2.131V10.546c0-1.351-1.238-2.361-2.568-2.131Z"/><path class="cls-4" d="M22.966,10.671v21.395c0,1.351,1.113,2.131,2.569,2.131h17.569l.337-.009c-17.936-2.659-20.289-21.687-20.474-23.517Z"/><path class="cls-4" d="M5.122,36.182h0v21.52c0,.193.009.441.027.719.297,1.04,1.35,1.74,2.478,1.546,5.01-.866,10.162-1.317,15.419-1.317.751,0,1.496.03,2.242.048l.077-.047c-18.123-3.135-20.244-22.47-20.244-22.47Z"/><path class="cls-3" d="M46.566,20.59l-3.692.002s.885-1.546,1.588-2.929c.383-.754.864-1.915,1.222-2.816.254-.638-.22-1.322-.906-1.322h-6.514c-.421,0-.812.168-1.104.448-.175.168-.315.376-.404.613-.902,2.394-2.062,4.677-3.396,6.825-.078.126-.125.259-.144.393-.045.312.059.626.265.849.177.191.428.316.724.316h3.705l-1.536,5.122c-.021.071-.033.141-.036.211-.01.209.056.408.174.567.079.106.182.195.302.257.12.062.257.098.404.098.175,0,.34-.056.489-.144.101-.06.195-.132.274-.22.071-.08.151-.164.235-.25.027-.028.057-.057.085-.086.059-.059.118-.119.18-.18.037-.036.075-.072.112-.108.057-.054.113-.109.171-.163.042-.04.084-.079.126-.118.055-.052.11-.103.165-.153.333-.306.651-.59.862-.785,2.357-2.173,4.723-3.664,7.02-4.934.718-.397.445-1.492-.375-1.492Z"/><path class="cls-3" d="M56.059,10.224c.329-.052.6.091.707.297.092.152.132.351.089.559-.208.99-.369,2.069-.471,3.201-.041.453-.528.718-.841.388-.204-.215-.375-.462-.505-.73-.27-.506-.424-.849-.994-1.178-.452-.261-1.212-.31-1.773-.342-.143-.005-.284-.015-.422-.029-.021-.002-.041-.004-.06-.006-.77-.084-1.462-.297-2.014-.608-.534-.301-.238-.942.374-.966,1.167-.045,2.404-.138,3.681-.283.763-.087,1.508-.188,2.229-.302Z"/><path class="cls-3" d="M38.152,36.193c.329-.052.6.091.707.297.092.152.132.351.089.559-.208.99-.369,2.069-.471,3.201-.041.453-.528.718-.841.388-.204-.215-.375-.462-.505-.73-.27-.506-.424-.849-.994-1.178-.452-.261-1.212-.31-1.773-.342-.143-.005-.284-.015-.422-.029-.021-.002-.041-.004-.06-.006-.77-.084-1.462-.297-2.014-.608-.534-.301-.238-.942.374-.966,1.167-.045,2.404-.138,3.681-.283.763-.087,1.508-.188,2.229-.302Z"/></svg>