<?xml version="1.0" encoding="UTF-8"?><svg id="Icons" xmlns="http://www.w3.org/2000/svg" viewBox="0 0 64 64"><defs><style>.cls-1{fill:#fff;}</style></defs><path class="cls-1" d="M38.465,33.195h-17.642c.034-.829.077-1.688.14-2.649.062-.954-.688-1.766-1.638-1.766h-6.868c-.95,0-1.7.812-1.638,1.766.062.96.106,1.82.14,2.649h-3.331c-1.388,0-2.568.644-2.568,2.131v21.181c0,.623.247,2.497,2.157,2.497.128,0,.264-.008.407-.026.001,0,.002,0,.004,0,1.252-.216,2.514-.407,3.784-.571,1.27-.164,2.547-.302,3.833-.412,2.571-.221,5.174-.334,7.802-.334.751,0,1.496.03,2.243.048h0c4.479.11,8.882.527,13.176,1.268.128.022.255.033.38.033,1.178,0,2.188-.943,2.188-2.164v-21.52c0-1.592-1.097-2.131-2.568-2.131ZM12.838,30.78h6.106c-.054.866-.093,1.653-.124,2.415h-5.858c-.031-.762-.069-1.548-.124-2.415ZM39.034,56.846c0,.102-.105.16-.218.16-.003,0-.007,0-.01,0-4.329-.748-8.86-1.184-13.468-1.297l-.614-.017c-.558-.016-1.116-.032-1.677-.032-2.658,0-5.34.115-7.974.341-1.303.112-2.621.254-3.918.421-1.271.164-2.553.357-3.81.574-.045.005-.088.007-.129.007-.022,0-.041,0-.055-.002-.051-.107-.102-.323-.102-.496v-21.181c0-.016,0-.03,0-.041.085-.037.271-.09.567-.09h30.838c.289,0,.467.031.566.057,0,.021.002.046.002.074v21.52Z"/><path class="cls-1" d="M46.566,21.58l-3.692.002s.885-1.546,1.588-2.929c.383-.754.864-1.915,1.222-2.816.254-.638-.22-1.322-.906-1.322h-6.514c-.421,0-.812.168-1.104.448-.175.168-.315.376-.404.613-.902,2.394-2.062,4.677-3.396,6.825-.078.126-.125.259-.144.393-.045.312.059.626.265.849.177.191.428.316.724.316h3.705l-1.536,5.122c-.021.071-.033.141-.036.211-.01.209.056.408.174.567.079.106.182.195.302.257.12.062.257.098.404.098.175,0,.34-.056.489-.144.101-.06.195-.132.274-.22.071-.08.151-.164.235-.25.027-.028.057-.057.085-.086.059-.059.118-.119.18-.18.037-.036.075-.072.112-.108.057-.054.113-.109.171-.163.042-.04.084-.079.126-.118.055-.052.11-.103.165-.153.333-.306.651-.59.862-.785,2.357-2.173,4.723-3.664,7.02-4.934.718-.397.445-1.492-.375-1.492Z"/><path class="cls-1" d="M56.753,9.372c-.125,0-.252.011-.38.033-.775.134-1.931.247-3.347.34.035-.926.084-1.9.155-2.988.062-.954-.688-1.766-1.638-1.766h-6.868c-.951,0-1.7.812-1.638,1.766.079,1.207.132,2.274.167,3.289-.746.006-1.498.009-2.25.009s-1.504-.003-2.25-.009c.034-1.015.087-2.082.166-3.289.062-.954-.688-1.766-1.638-1.766h-6.868c-.951,0-1.7.812-1.638,1.766.071,1.089.121,2.062.155,2.988-1.416-.092-2.571-.206-3.346-.339-.128-.022-.255-.033-.38-.033-1.178,0-2.189.943-2.189,2.164v21.52c0,1.351,1.113,2.131,2.569,2.131h30.838c.128.022.255.033.38.033,1.177,0,2.188-.943,2.188-2.164V11.536c0-1.221-1.012-2.164-2.188-2.164ZM45.056,6.99h6.106c-.065,1.039-.108,1.967-.139,2.864-1.745.08-3.733.135-5.819.167-.031-.944-.079-1.932-.148-3.031ZM30.745,6.99h6.106c-.069,1.099-.117,2.087-.148,3.031-2.085-.032-4.074-.088-5.819-.167-.031-.897-.074-1.825-.139-2.864ZM56.941,33.056c0,.102-.105.16-.218.16-.003,0-.007,0-.01,0-.112-.019-.226-.029-.34-.029h-30.837c-.324,0-.508-.076-.572-.115.001-.002.002-.007.002-.016V11.536c0-.02,0-.06.046-.105.018-.017.065-.056.169-.056.004,0,.009,0,.014,0,2.895.5,10.039.678,15.759.678s12.864-.178,15.759-.678c.014-.002.026-.004.04-.004.077,0,.188.058.188.164v21.52Z"/></svg>