<?xml version="1.0" encoding="UTF-8"?><svg id="Icons" xmlns="http://www.w3.org/2000/svg" viewBox="0 0 64 64"><defs><style>.cls-1{fill:#fff;}</style></defs><path class="cls-1" d="M38.465,34.185h-17.646c.035-.827.081-1.692.143-2.649.062-.954-.688-1.766-1.638-1.766h-6.868c-.951,0-1.7.812-1.638,1.766.062.956.108,1.821.143,2.649h-3.334c-1.331-.23-2.568.781-2.568,2.131v21.52c0,.608.259,1.138.656,1.526.023.023.044.048.068.069.065.059.136.109.208.16.048.034.097.068.148.098.064.038.13.072.199.103.069.032.139.059.211.083.062.021.122.041.186.057.091.022.184.035.279.045.052.006.103.016.156.018.149.006.3-.001.454-.027.001,0,.002,0,.004,0,1.252-.216,2.514-.407,3.784-.571s2.547-.302,3.833-.412c2.571-.221,5.174-.334,7.802-.334.751,0,1.496.03,2.243.048h0c4.479.11,8.882.527,13.176,1.268,1.331.23,2.568-.78,2.568-2.131v-21.52c0-1.351-1.237-2.361-2.568-2.131Z"/><path class="cls-1" d="M56.373,8.415c-.776.134-1.933.247-3.35.34.035-.925.088-1.903.158-2.989.062-.954-.687-1.766-1.638-1.766h-6.868c-.951,0-1.7.812-1.638,1.766.078,1.205.132,2.273.167,3.289-1.493.012-3.009.012-4.501,0,.035-1.015.088-2.083.167-3.289.062-.954-.687-1.766-1.638-1.766h-6.868c-.951,0-1.7.812-1.638,1.766.071,1.085.124,2.063.159,2.988-1.417-.093-2.574-.206-3.35-.34-1.331-.23-2.569.781-2.569,2.131v21.52c0,1.351,1.113,2.131,2.569,2.131h30.838c1.331.23,2.568-.78,2.568-2.131V10.546c0-1.351-1.238-2.361-2.568-2.131ZM46.941,22.082c-2.297,1.271-4.663,2.761-7.02,4.934-.211.195-.53.479-.862.785-.055.051-.11.102-.166.153-.042.039-.084.078-.126.118-.058.054-.114.109-.17.163-.038.036-.076.072-.112.108-.062.061-.122.12-.181.18-.028.028-.058.058-.085.086-.084.086-.163.171-.235.25-.079.088-.173.16-.274.22-.149.088-.314.144-.489.144-.147,0-.284-.035-.404-.097-.12-.062-.223-.151-.302-.257-.119-.159-.184-.359-.174-.567.003-.07.015-.14.036-.211l1.536-5.122h-3.705c-.296,0-.548-.125-.725-.316-.206-.223-.311-.537-.265-.849.02-.134.066-.267.145-.393,1.334-2.147,2.495-4.431,3.396-6.825.089-.237.229-.445.404-.613.292-.28.682-.448,1.104-.448h6.514c.686,0,1.159.684.906,1.322-.358.901-.839,2.062-1.222,2.816-.704,1.383-1.589,2.929-1.589,2.929l3.692-.002c.82,0,1.092,1.096.375,1.492Z"/></svg>