<?xml version="1.0" encoding="UTF-8"?><svg id="Icons" xmlns="http://www.w3.org/2000/svg" viewBox="0 0 64 64"><defs><style>.cls-1{fill:#001e5b;}</style></defs><path class="cls-1" d="M58.616,24.272c-8.381-3.346-16.503-7.534-24.238-12.564-.723-.47-1.551-.705-2.379-.705s-1.656.235-2.379.705c-7.735,5.029-15.857,9.217-24.237,12.563-1.839.734-1.847,3.455-.011,4.199.445.18.882.382,1.325.567-.205.563-.322,1.164-.322,1.788v1.821c-1.027.766-1.702,1.98-1.702,3.36s.674,2.594,1.702,3.36v6.596c0,1.381,1.119,2.5,2.5,2.5s2.5-1.119,2.5-2.5v-6.596c1.027-.766,1.702-1.98,1.702-3.36s-.674-2.594-1.702-3.36v-1.554c1.199.554,2.398,1.108,3.585,1.698v9.013c0,6.188,7.629,11.204,17.04,11.204s17.04-5.016,17.04-11.204v-9.013c3.152-1.565,6.35-3.007,9.588-4.32,1.835-.744,1.828-3.464-.011-4.199ZM47.04,41.804c0,4.989-6.887,9.204-15.04,9.204s-15.04-4.215-15.04-9.204v-7.995c4.31,2.228,8.532,4.687,12.64,7.392.728.479,1.564.719,2.4.719s1.673-.24,2.4-.719c4.108-2.705,8.329-5.164,12.639-7.392v7.995ZM57.876,26.617c-8.577,3.478-16.845,7.822-24.576,12.913-.387.255-.836.389-1.3.389s-.914-.135-1.3-.389c-5.296-3.488-10.85-6.616-16.577-9.365l18.923-2.752c1.366-.199,2.313-1.468,2.114-2.834-.199-1.366-1.462-2.31-2.834-2.114l-21.413,3.115c-1.26.184-2.363.818-3.17,1.717-.54-.227-1.077-.46-1.619-.68-.083-.033-.124-.116-.124-.244,0-.129.042-.211.125-.244,8.574-3.423,16.846-7.711,24.586-12.744.384-.25.829-.382,1.288-.382s.904.132,1.288.382c7.74,5.033,16.012,9.321,24.587,12.745.083.033.125.115.125.244,0,.129-.041.211-.124.244Z"/></svg>