<?xml version="1.0" encoding="UTF-8"?><svg id="Icons" xmlns="http://www.w3.org/2000/svg" viewBox="0 0 64 64"><defs><style>.cls-1{fill:#001e5b;}.cls-2{fill:#fff;}.cls-3{fill:#05628a;}.cls-4{fill:#0d9dda;}</style></defs><path class="cls-4" d="M60,8.949c0-3.019-2.72-5.305-5.71-4.894-7.33,1.023-14.83,1.544-22.44,1.544s-14.91-.511-22.15-1.504c-2.99-.411-5.7,1.875-5.7,4.894v46.032c0,3.019,2.71,5.305,5.7,4.894,7.24-.993,14.64-1.514,22.15-1.514s15.11.531,22.44,1.544c2.99.411,5.71-1.875,5.71-4.894V8.949Z"/><path class="cls-3" d="M12.83,40.91c-1.13-1.514-2.12-3.089-3.01-4.784-2.54-4.854-4.23-10.761-5.82-19.476v38.37c0,3.019,2.71,5.305,5.7,4.894,7.24-.993,14.64-1.514,22.15-1.514s15.11.532,22.44,1.544h.18c-14.2-3.43-27.94-4.854-36.7-13.469-1.9-1.875-3.53-3.68-4.94-5.576v.01Z"/><path class="cls-1" d="M49.2,49.956H14.79c-1.381,0-2.5-1.119-2.5-2.5s1.119-2.5,2.5-2.5h34.41c1.381,0,2.5,1.119,2.5,2.5s-1.119,2.5-2.5,2.5Z"/><path class="cls-2" d="M44.26,52.43c-2.73,0-4.96-2.226-4.96-4.974s2.22-4.974,4.96-4.974,4.96,2.226,4.96,4.974-2.22,4.974-4.96,4.974Z"/><path class="cls-1" d="M44.26,54.93c-4.113,0-7.46-3.353-7.46-7.474s3.347-7.474,7.46-7.474,7.46,3.353,7.46,7.474-3.347,7.474-7.46,7.474ZM44.26,44.982c-1.356,0-2.46,1.11-2.46,2.474s1.104,2.474,2.46,2.474,2.46-1.11,2.46-2.474-1.104-2.474-2.46-2.474Z"/><path class="cls-1" d="M49.2,35.525H14.79c-1.381,0-2.5-1.119-2.5-2.5s1.119-2.5,2.5-2.5h34.41c1.381,0,2.5,1.119,2.5,2.5s-1.119,2.5-2.5,2.5Z"/><path class="cls-2" d="M24.05,37.999c-2.73,0-4.96-2.226-4.96-4.974s2.22-4.974,4.96-4.974,4.96,2.226,4.96,4.974-2.22,4.974-4.96,4.974Z"/><path class="cls-1" d="M24.05,40.499c-4.113,0-7.46-3.353-7.46-7.474s3.347-7.474,7.46-7.474,7.46,3.353,7.46,7.474-3.347,7.474-7.46,7.474ZM24.05,30.551c-1.356,0-2.46,1.11-2.46,2.474s1.104,2.474,2.46,2.474,2.46-1.11,2.46-2.474-1.104-2.474-2.46-2.474Z"/><path class="cls-1" d="M49.2,21.094H14.79c-1.381,0-2.5-1.119-2.5-2.5s1.119-2.5,2.5-2.5h34.41c1.381,0,2.5,1.119,2.5,2.5s-1.119,2.5-2.5,2.5Z"/><path class="cls-2" d="M36.4,23.558c-2.73,0-4.96-2.226-4.96-4.974s2.22-4.974,4.96-4.974,4.96,2.226,4.96,4.974-2.22,4.974-4.96,4.974Z"/><path class="cls-1" d="M36.4,26.058c-4.113,0-7.46-3.353-7.46-7.474s3.347-7.474,7.46-7.474,7.46,3.353,7.46,7.474-3.347,7.474-7.46,7.474ZM36.4,16.109c-1.356,0-2.46,1.11-2.46,2.474s1.104,2.474,2.46,2.474,2.46-1.11,2.46-2.474-1.104-2.474-2.46-2.474Z"/><path class="cls-2" d="M55.4,7.094c.5-.08.91.13,1.08.441.15.241.22.552.15.893-.32,1.534-.57,3.209-.73,4.964-.06.702-.82,1.113-1.3.602-.32-.331-.58-.712-.78-1.133-.42-.782-.66-1.314-1.54-1.825-.69-.401-1.86-.481-2.72-.532-1.5-.05-2.84-.411-3.88-1.003-.83-.471-.37-1.464.58-1.494,1.8-.07,3.71-.211,5.69-.441,1.18-.13,2.33-.291,3.44-.471h.01Z"/></svg>