<?xml version="1.0" encoding="UTF-8"?><svg id="Icons" xmlns="http://www.w3.org/2000/svg" viewBox="0 0 64 64"><defs><style>.cls-1{fill:#fff;}</style></defs><ellipse class="cls-1" cx="44.26" cy="47.456" rx="3.21" ry="3.224"/><ellipse class="cls-1" cx="24.05" cy="33.025" rx="3.21" ry="3.224"/><path class="cls-1" d="M36.4,21.808c1.771,0,3.211-1.446,3.211-3.224s-1.44-3.224-3.211-3.224-3.21,1.446-3.21,3.224,1.44,3.224,3.21,3.224Z"/><path class="cls-1" d="M54.29,4.055c-7.33,1.023-14.83,1.544-22.44,1.544s-14.91-.511-22.15-1.504c-2.99-.411-5.7,1.875-5.7,4.894v46.032c0,3.019,2.71,5.305,5.7,4.894,7.24-.993,14.64-1.514,22.15-1.514s15.11.531,22.44,1.544c2.99.411,5.71-1.875,5.71-4.894V8.949c0-3.019-2.72-5.305-5.71-4.894ZM14.79,16.844h15.135c.768-2.866,3.375-4.984,6.474-4.984s5.707,2.119,6.475,4.984h6.326c.967,0,1.75.784,1.75,1.75s-.783,1.75-1.75,1.75h-6.331c-.775,2.855-3.378,4.964-6.47,4.964s-5.694-2.109-6.469-4.964h-15.141c-.967,0-1.75-.784-1.75-1.75s.783-1.75,1.75-1.75ZM14.79,31.275h2.788c.771-2.86,3.376-4.974,6.472-4.974s5.7,2.114,6.472,4.974h18.679c.967,0,1.75.784,1.75,1.75s-.783,1.75-1.75,1.75h-18.679c-.771,2.86-3.376,4.974-6.472,4.974s-5.7-2.114-6.472-4.974h-2.788c-.967,0-1.75-.784-1.75-1.75s.783-1.75,1.75-1.75ZM44.26,54.18c-3.097,0-5.703-2.116-6.473-4.979,0,.002,0,.003,0,.005H14.79c-.967,0-1.75-.784-1.75-1.75s.783-1.75,1.75-1.75h22.998s0,.003,0,.005c.77-2.863,3.375-4.979,6.473-4.979,3.7,0,6.71,3.017,6.71,6.724s-3.01,6.724-6.71,6.724Z"/></svg>