<?xml version="1.0" encoding="UTF-8"?><svg id="Icons" xmlns="http://www.w3.org/2000/svg" viewBox="0 0 64 64"><defs><style>.cls-1{fill:#1b96ff;}.cls-2{fill:#aacbff;}.cls-3{fill:#fff;}.cls-4{fill:#57a3fd;}</style></defs><path class="cls-2" d="M59.998,51.228v-2.184c0-.512.072-.918-1.018-1.01v-3.928c0-1.131-.265-2.013-1.68-2.069-.202-.008-.409.001-.618.029-.729.096-1.476.186-2.232.271v-20.315c.778.07,1.528.144,2.119.222.208.028.413.036.614.029,1.408-.055,1.671-.937,1.671-2.069v-2.68c0-.632-.359-1.21-.926-1.49l-20.774-10.271c-.464-.23-1.01-.23-1.474,0l-20.774,10.271c-.567.28-.926.858-.926,1.491v2.68c0,1.293.625,2.26,2.285,2.04.692-.092,1.402-.177,2.119-.259v20.352c-.756-.085-1.503-.175-2.232-.271-.102-.013-.203-.022-.303-.027,0,.004,0,.009,0,.013-1.549-.073-1.996.84-1.996,2.054v3.951c-.855.115-.905.5-.905.986v2.184c0,.644.245,1.126,1.986,1.017,6.552-.413,14.663-.628,21.539-.628,3.304,0,6.574.053,9.81.15.271.008.542.017.812.026,1.465.048,2.923.104,4.372.171.212.01.423.021.635.031,1.52.074,4.377.155,5.879.25.218.014.433.018.644.014,1.476-.028,1.373-.467,1.373-1.031ZM33.167,43.289c-2.727-.055-5.525-.18-8.286-.371v-21.523c2.761-.192,5.559-.318,8.286-.375v22.268ZM47.952,42.918c-2.761.19-5.559.315-8.286.371v-22.253c2.048.046,4.087.12,6.107.248.259.016.517.034.775.051.471.032.935.079,1.405.116v21.467Z"/><path class="cls-4" d="M22.475,35.764c6.114,0,11.38,4.308,12.594,10.299l1.736,8.573c.43,2.123-1.408,4.02-3.557,3.749-4.255-.537-8.59-.813-12.99-.813-4.282,0-8.503.262-12.647.77-2.152.264-3.984-1.642-3.544-3.765l1.775-8.571c1.236-5.965,6.49-10.243,12.582-10.243h4.053Z"/><circle class="cls-4" cx="20.434" cy="27.531" r="10.279"/><path class="cls-1" d="M14.405,19.222c-.748,1.591-1.166,3.368-1.166,5.242,0,6.604,5.189,11.995,11.713,12.32-1.363.668-2.896,1.043-4.517,1.043-5.677,0-10.279-4.602-10.279-10.279,0-3.425,1.675-6.458,4.25-8.326Z"/><path class="cls-3" d="M19.68,20.018c3.666-.896,7.367,1.361,8.266,5.041.126.516.191,1.033.198,1.543.012.86-1.067.955-1.539.236-1.664-2.54-4.193-4.372-7.066-5.176-.827-.231-1.065-1.286-.245-1.538.127-.039.255-.074.385-.106Z"/><path class="cls-1" d="M10.119,38.808c-.765,1.698-1.191,3.583-1.191,5.566,0,6.417,4.456,11.792,10.442,13.201-3.978.034-7.902.293-11.76.767-2.152.264-3.984-1.641-3.544-3.765l1.775-8.571c.6-2.896,2.147-5.394,4.277-7.199Z"/></svg>