<?xml version="1.0" encoding="UTF-8"?><svg id="Icons" xmlns="http://www.w3.org/2000/svg" viewBox="0 0 64 64"><defs><style>.cls-1{fill:#ef5489;}.cls-2{fill:#b41f56;}.cls-3{fill:#df146b;}.cls-4{fill:#fff;}.cls-5{fill:#f5b2c2;}</style></defs><path class="cls-5" d="M46.3,28.455c5.82,0,10.834,4.101,11.988,9.805l1.652,8.161c.409,2.021-1.34,3.827-3.386,3.569-4.05-.511-8.177-.774-12.366-.774-4.009,0-7.963.241-11.846.71-2.046.247-3.785-1.566-3.367-3.584l1.685-8.135c1.176-5.679,6.178-9.751,11.977-9.751h3.662Z"/><circle class="cls-5" cx="44.303" cy="20.617" r="9.785" transform="translate(-.475 40.182) rotate(-48.557)"/><path class="cls-1" d="M22.807,26.729c6.295,0,11.718,4.436,12.967,10.605l1.787,8.828c.443,2.187-1.449,4.139-3.663,3.86-4.381-.553-8.845-.837-13.376-.837-4.337,0-8.613.261-12.813.768-2.214.267-4.094-1.694-3.642-3.877l1.823-8.799c1.272-6.142,6.683-10.547,12.956-10.547h3.961Z"/><circle class="cls-1" cx="20.648" cy="18.252" r="10.584" transform="translate(-1.663 2.075) rotate(-5.531)"/><path class="cls-3" d="M14.443,9.694c-.77,1.638-1.201,3.468-1.201,5.398,0,6.8,5.343,12.352,12.06,12.686-1.404.688-2.983,1.074-4.651,1.074-5.846,0-10.585-4.739-10.584-10.585,0-3.526,1.725-6.65,4.376-8.573Z"/><path class="cls-4" d="M19.875,10.514c3.775-.922,7.585,1.402,8.511,5.191.13.532.196,1.064.204,1.589.012.885-1.099.983-1.584.243-1.713-2.616-4.318-4.502-7.275-5.33-.851-.238-1.097-1.324-.252-1.584.13-.04.263-.076.397-.109Z"/><path class="cls-3" d="M9.864,30.247c-.683,1.647-1.061,3.453-1.061,5.347,0,6.608,4.589,12.143,10.755,13.594-4.005.036-7.957.294-11.844.763-2.214.267-4.095-1.694-3.642-3.877l1.823-8.799c.576-2.782,2.001-5.207,3.97-7.028Z"/><path class="cls-2" d="M46.265,31.06c-4.14.683-8.391,1.038-12.725,1.038s-8.585-.355-12.725-1.038c-1.453-.24-2.802.862-2.802,2.334v18.59c0,1.473,1.349,2.574,2.802,2.334,4.14-.683,8.391-1.038,12.725-1.038s8.585.355,12.725,1.038c1.453.24,2.802-.862,2.802-2.334v-18.59c0-1.472-1.349-2.574-2.802-2.334Z"/><path class="cls-2" d="M49.645,56.332h-31.886c-1.028,0-1.861-.833-1.861-1.861s.833-1.861,1.861-1.861h31.886c1.028,0,1.861.833,1.861,1.861s-.833,1.861-1.861,1.861Z"/><path class="cls-4" d="M39.116,39.089c-1.314-1.312-3.443-1.312-4.757,0l-.864.864-.864-.864c-1.299-1.233-3.336-1.233-4.635,0-1.347,1.28-1.402,3.41-.123,4.757l5.288,5.288c.088.089.208.139.333.139.125,0,.245-.051.333-.139l5.288-5.288c1.312-1.314,1.312-3.443,0-4.757Z"/></svg>