<?xml version="1.0" encoding="UTF-8"?><svg xmlns="http://www.w3.org/2000/svg" viewBox="0 0 64 64"><defs><style>.cls-1{fill:#fff;}</style></defs><g id="Background"><rect y="0" width="64" height="64"/></g><g id="Icons"><path class="cls-1" d="M59.94,46.42l-1.652-8.161c-.935-4.616-4.398-8.18-8.769-9.373,2.743-1.734,4.57-4.785,4.57-8.269,0-5.404-4.381-9.785-9.785-9.786-5.404,0-9.785,4.381-9.785,9.785,0,3.532,1.877,6.617,4.682,8.338-1.493.438-2.869,1.161-4.072,2.105,1.574-.032,3.147-.095,4.713-.222.716-.244,1.24-.864,1.341-1.619.104-.784-.262-1.556-.937-1.969-2.334-1.432-3.728-3.912-3.728-6.633,0-2.08.81-4.035,2.28-5.505,1.47-1.47,3.426-2.28,5.505-2.28s4.035.81,5.505,2.28c1.47,1.471,2.28,3.426,2.28,5.505,0,2.679-1.36,5.139-3.638,6.579-.67.424-1.027,1.203-.909,1.987.078.516.364.956.76,1.266.095.052.18.122.271.183.134.073.27.143.421.184,3.752,1.023,6.563,4.028,7.335,7.84l1.652,8.161c.074.365-.07.635-.203.798-.207.253-.51.399-.832.399-.046,0-.094-.003-.141-.009-2.225-.281-4.479-.465-6.737-.594v2.002c2.181.127,4.348.306,6.487.576.132.017.262.025.391.025,1.872,0,3.378-1.702,2.995-3.594Z"/><path class="cls-1" d="M50.114,52.677c-.151-.04-.306-.067-.47-.067h-1.551c-.016-.212-.027-.422-.027-.625v-18.591c0-.399-.171-.765-.48-1.027-.319-.271-.738-.388-1.158-.32-8.464,1.396-17.311,1.396-25.776,0-.078-.013-.156-.019-.233-.019-.338,0-.665.118-.926.34-.31.263-.48.627-.48,1.026v18.771c0,.124,0,.279.002.446h-1.255c-.132,0-.26.014-.384.041-.003,0-.006.002-.009.003-.121.026-.238.064-.349.113-.658.287-1.119.942-1.119,1.705,0,1.028.833,1.861,1.861,1.861h31.886c1.028,0,1.861-.833,1.861-1.861,0-.865-.593-1.585-1.392-1.794ZM39.116,43.846l-5.288,5.288c-.088.089-.208.139-.333.139-.125,0-.245-.051-.333-.139l-5.288-5.288c-1.28-1.347-1.225-3.477.123-4.757,1.299-1.233,3.336-1.233,4.635,0l.864.864.864-.864c1.314-1.312,3.443-1.312,4.757,0,1.312,1.314,1.312,3.443,0,4.757Z"/><path class="cls-1" d="M17.012,33.394c0-.981.433-1.912,1.186-2.552.771-.652,1.786-.934,2.779-.769,3.815.628,7.712.953,11.613,1-1.677-1.845-3.853-3.209-6.301-3.876,2.967-1.875,4.943-5.175,4.943-8.945,0-5.846-4.739-10.585-10.584-10.585-5.846,0-10.585,4.739-10.585,10.584,0,3.82,2.031,7.158,5.065,9.019-4.596,1.347-8.227,5.123-9.238,10.006l-1.823,8.799c-.452,2.183,1.429,4.144,3.642,3.877,3.061-.369,6.166-.594,9.302-.695v-15.864Z"/></g></svg>