<?xml version="1.0" encoding="UTF-8"?><svg id="Icons" xmlns="http://www.w3.org/2000/svg" viewBox="0 0 64 64"><defs><style>.cls-1{fill:#fff;}</style></defs><path class="cls-1" d="M54.943,12.523c-7.505,1.244-15.212,1.892-23.07,1.892-7.772,0-15.396-.633-22.823-1.851-2.619-.429-5.049,1.556-5.049,4.21v31.58c0,1.758,1.425,3.184,3.184,3.184.185,0,.369-.016.551-.048,7.841-1.363,15.906-2.073,24.137-2.073s16.282.709,24.117,2.07c.196.034.394.051.592.051,1.888,0,3.419-1.531,3.419-3.419v-31.387c0-2.657-2.437-4.643-5.058-4.208ZM28.914,31.973l-7.519,7.519c-.125.126-.295.197-.473.198-.178,0-.348-.072-.473-.198l-7.519-7.519c-1.82-1.916-1.742-4.944.174-6.764,1.847-1.754,4.743-1.754,6.59,0l1.228,1.228,1.228-1.228c1.869-1.865,4.895-1.865,6.764,0,1.865,1.869,1.865,4.895,0,6.764ZM51.553,41.786h-17.207c-1.381,0-2.5-1.119-2.5-2.5s1.119-2.5,2.5-2.5h17.207c1.381,0,2.5,1.119,2.5,2.5s-1.119,2.5-2.5,2.5ZM51.553,33.403h-12.736c-1.381,0-2.5-1.119-2.5-2.5s1.119-2.5,2.5-2.5h12.736c1.381,0,2.5,1.119,2.5,2.5s-1.119,2.5-2.5,2.5Z"/></svg>