<?xml version="1.0" encoding="UTF-8"?><svg id="Icons" xmlns="http://www.w3.org/2000/svg" viewBox="0 0 64 64"><defs><style>.cls-1{fill:#001e5b;}</style></defs><path class="cls-1" d="M55.667,14.463c1.287,0,2.333,1.018,2.333,2.268v31.387c0,.782-.637,1.419-1.419,1.419-.083,0-.167-.007-.25-.022-8.022-1.393-16.251-2.099-24.459-2.099s-16.452.707-24.48,2.103c-.069.012-.14.018-.208.018-.653,0-1.184-.531-1.184-1.184v-31.58c0-1.251,1.047-2.268,2.333-2.268.13,0,.262.011.392.032,7.598,1.246,15.385,1.877,23.146,1.877,7.847,0,15.719-.646,23.398-1.919.132-.022.265-.033.396-.033M55.667,12.463c-.238,0-.48.019-.724.06-7.506,1.245-15.213,1.892-23.071,1.892-7.772,0-15.396-.633-22.823-1.851-.241-.039-.48-.059-.716-.059-2.33,0-4.333,1.858-4.333,4.268v31.58c0,1.758,1.425,3.184,3.184,3.184.185,0,.369-.016.551-.048,7.841-1.363,15.906-2.073,24.137-2.073s16.282.709,24.117,2.07c.196.034.394.051.592.051,1.888,0,3.419-1.531,3.419-3.419v-31.387c0-2.41-2.004-4.268-4.333-4.268h0Z"/><path class="cls-1" d="M28.914,25.209c-1.869-1.865-4.895-1.865-6.764,0l-1.228,1.228-1.228-1.228c-1.847-1.754-4.743-1.754-6.59,0-1.916,1.82-1.994,4.848-.174,6.764l7.519,7.519c.125.126.295.197.473.198.178,0,.348-.072.473-.198l7.519-7.519c1.865-1.869,1.865-4.895,0-6.764Z"/><path class="cls-1" d="M51.553,33.403h-12.736c-1.381,0-2.5-1.119-2.5-2.5s1.119-2.5,2.5-2.5h12.736c1.381,0,2.5,1.119,2.5,2.5s-1.119,2.5-2.5,2.5Z"/><path class="cls-1" d="M51.553,41.786h-17.207c-1.381,0-2.5-1.119-2.5-2.5s1.119-2.5,2.5-2.5h17.207c1.381,0,2.5,1.119,2.5,2.5s-1.119,2.5-2.5,2.5Z"/></svg>