<?xml version="1.0" encoding="UTF-8"?><svg id="Icons" xmlns="http://www.w3.org/2000/svg" viewBox="0 0 64 64"><defs><style>.cls-1{fill:#001e5b;}.cls-2{fill:#fff;}.cls-3{fill:#05628a;}.cls-4{fill:#0d9dda;}</style></defs><path class="cls-4" d="M7.184,51.537c.185,0,.369-.016.551-.048,7.841-1.363,15.906-2.073,24.137-2.073s16.282.709,24.117,2.07c.196.034.394.051.592.051,1.888,0,3.419-1.531,3.419-3.419v-31.387c0-2.657-2.436-4.643-5.057-4.208-7.505,1.244-15.212,1.892-23.071,1.892-7.772,0-15.396-.633-22.823-1.851-2.619-.429-5.049,1.556-5.049,4.21v31.58c0,1.758,1.425,3.184,3.184,3.184Z"/><path class="cls-3" d="M4,27.448v20.905c0,1.758,1.426,3.184,3.184,3.184.185,0,.369-.016.551-.048,7.841-1.363,15.906-2.073,24.137-2.073,7.199,0,14.272.544,21.178,1.592-30.671-7.227-44.933-.8-49.051-23.56Z"/><path class="cls-2" d="M54.388,17.208c.59-.093,1.074.164,1.266.532.165.272.237.628.158,1.001-.372,1.772-.661,3.703-.843,5.731-.073.812-.945,1.285-1.506.694-.366-.385-.672-.826-.903-1.307-.483-.905-.759-1.52-1.779-2.108-.81-.468-2.169-.555-3.175-.613-.256-.01-.508-.027-.756-.052-.038-.004-.074-.007-.108-.011-1.378-.151-2.617-.531-3.605-1.089-.956-.54-.427-1.687.67-1.73,2.088-.081,4.303-.248,6.59-.507,1.366-.155,2.7-.336,3.99-.54Z"/><path class="cls-2" d="M28.914,25.209c-1.869-1.865-4.895-1.865-6.764,0l-1.228,1.228-1.228-1.228c-1.847-1.754-4.743-1.754-6.59,0-1.916,1.82-1.994,4.848-.174,6.764l7.519,7.519c.125.126.295.197.473.198.178,0,.348-.072.473-.198l7.519-7.519c1.865-1.869,1.865-4.895,0-6.764Z"/><path class="cls-1" d="M51.553,33.403h-12.736c-1.381,0-2.5-1.119-2.5-2.5s1.119-2.5,2.5-2.5h12.736c1.381,0,2.5,1.119,2.5,2.5s-1.119,2.5-2.5,2.5Z"/><path class="cls-1" d="M51.553,41.786h-17.208c-1.381,0-2.5-1.119-2.5-2.5s1.119-2.5,2.5-2.5h17.208c1.381,0,2.5,1.119,2.5,2.5s-1.119,2.5-2.5,2.5Z"/></svg>