<?xml version="1.0" encoding="UTF-8"?><svg id="Layer_2" xmlns="http://www.w3.org/2000/svg" viewBox="0 0 466.91 155.22"><defs><style>.cls-1{fill:#fff;}.cls-2{fill:#0d9dda;}</style></defs><g id="Isolation_Mode"><g><g><g><path class="cls-1" d="M161.97,123.69l-.7,2.24c-.78-.17-1.54-.24-2.28-.22-2.3,.02-3.45,1.28-3.45,3.78v1.54h4.7v2.39h-4.7v16.29h-3.12v-16.29h-3.27v-1.98l3.27-.4v-1.61c0-1.98,.53-3.5,1.58-4.57,1.05-1.06,2.62-1.61,4.7-1.63,1.2,0,2.29,.16,3.27,.48Z"/><path class="cls-1" d="M163.65,135.21c0-1.37-.09-2.76-.26-4.18h2.97c.12,.83,.21,1.82,.26,2.97h.07c1.08-2.32,3.03-3.49,5.87-3.49,.19,0,.55,.04,1.06,.11l-.18,2.68c-.24-.05-.62-.07-1.14-.07-1.79,0-3.16,.6-4.11,1.8-.95,1.2-1.43,2.75-1.43,4.66v10.02h-3.12v-14.49Z"/><path class="cls-1" d="M193.52,140.31c0,1.93-.37,3.65-1.12,5.16-.75,1.5-1.82,2.67-3.23,3.5-1.41,.83-3.09,1.25-5.05,1.25s-3.61-.42-5.03-1.27c-1.42-.84-2.5-2.01-3.23-3.5-.73-1.49-1.1-3.2-1.1-5.14,0-2.98,.82-5.36,2.46-7.14,1.64-1.77,3.94-2.66,6.9-2.66,1.98,0,3.67,.41,5.08,1.23,1.41,.82,2.48,1.96,3.21,3.43,.73,1.47,1.1,3.18,1.1,5.14Zm-15.52,0c0,2.23,.51,4.02,1.52,5.38,1.02,1.36,2.55,2.04,4.61,2.04s3.63-.68,4.66-2.04c1.03-1.36,1.54-3.15,1.54-5.38s-.51-4-1.54-5.32c-1.03-1.32-2.58-1.98-4.66-1.98s-3.62,.66-4.62,1.98c-1,1.32-1.5,3.1-1.5,5.32Z"/><path class="cls-1" d="M197.56,135.21c0-1.37-.09-2.76-.26-4.18h2.97c.12,.66,.21,1.54,.26,2.64h.07c.59-.93,1.41-1.69,2.48-2.28,1.06-.59,2.29-.88,3.69-.88,1.59,0,2.89,.34,3.89,1.01,1,.67,1.74,1.6,2.2,2.77h.07c.64-1.17,1.5-2.1,2.6-2.77,1.1-.67,2.42-1.01,3.96-1.01s2.83,.34,3.85,1.01c1.03,.67,1.79,1.55,2.28,2.64,.49,1.09,.73,2.28,.73,3.58v11.96h-3.12v-11.52c0-1.44-.35-2.65-1.05-3.63-.7-.98-1.82-1.47-3.36-1.47-1.13,0-2.09,.29-2.9,.88s-1.42,1.37-1.83,2.35c-.42,.98-.62,2.03-.62,3.16v10.24h-3.12v-11.6c0-1.42-.36-2.61-1.06-3.58-.71-.97-1.82-1.45-3.34-1.45-1.62,0-2.9,.57-3.85,1.71-.95,1.14-1.43,2.54-1.43,4.2v10.71h-3.12v-14.49Z"/><path class="cls-1" d="M287.94,147.29l1.65-2.05c1.05,.83,2.14,1.43,3.27,1.8,1.13,.37,2.4,.55,3.82,.55,1.76,0,3.19-.41,4.28-1.23s1.63-2.01,1.63-3.58c0-1.1-.26-1.99-.77-2.68-.51-.68-1.22-1.24-2.13-1.65-.91-.42-2.1-.82-3.6-1.21-2.42-.64-4.23-1.5-5.43-2.59-1.2-1.09-1.8-2.61-1.8-4.57,0-2.18,.81-3.88,2.44-5.1,1.63-1.22,3.7-1.83,6.22-1.83,1.59,0,3.03,.21,4.31,.62,1.28,.42,2.48,1.03,3.58,1.83l-1.47,2.13c-1.03-.66-2.05-1.15-3.06-1.47-1.02-.32-2.13-.48-3.36-.48-1.64,0-2.96,.35-3.96,1.05-1,.7-1.5,1.71-1.5,3.03s.46,2.32,1.38,2.99c.92,.67,2.42,1.28,4.5,1.82,2.62,.69,4.6,1.61,5.94,2.79,1.34,1.17,2.02,2.91,2.02,5.21,0,1.66-.41,3.07-1.23,4.22-.82,1.15-1.93,2.01-3.32,2.59-1.39,.57-2.96,.86-4.7,.86-3.38,0-6.27-1.01-8.7-3.05Z"/><path class="cls-1" d="M308.67,144.61c0-2.42,.87-4.1,2.62-5.05,1.75-.94,4.39-1.41,7.91-1.41,.86,0,1.5,.01,1.94,.04v-1.06c0-1.39-.38-2.43-1.14-3.12-.76-.68-1.92-1.03-3.49-1.03-1.98,0-3.85,.53-5.61,1.58l-1.1-2.09c2.1-1.3,4.4-1.95,6.9-1.95,2.62,0,4.53,.61,5.74,1.83,1.21,1.22,1.82,3.08,1.82,5.58v7.63c0,1.35,.08,2.73,.26,4.15h-2.86c-.17-1.08-.26-1.92-.26-2.53h-.11c-.68,1-1.55,1.76-2.59,2.27-1.04,.51-2.38,.77-4.02,.77-1.81,0-3.27-.48-4.37-1.45-1.1-.97-1.65-2.35-1.65-4.16Zm12.48-1.8v-2.42l-1.65-.04c-1.84,0-3.3,.12-4.39,.37-1.09,.24-1.9,.66-2.42,1.25-.53,.59-.79,1.41-.79,2.46s.32,1.9,.95,2.48c.64,.58,1.52,.86,2.64,.86s2.19-.25,3.05-.75c.86-.5,1.5-1.13,1.94-1.89,.44-.76,.66-1.53,.66-2.31Z"/><path class="cls-1" d="M333.26,123.73v25.98h-3.12v-25.98h3.12Z"/><path class="cls-1" d="M355.06,141.49h-13.87c.12,1.91,.7,3.43,1.72,4.55,1.03,1.13,2.5,1.69,4.4,1.69,1.13,0,2.13-.15,3.03-.46,.89-.31,1.79-.76,2.7-1.38l1.39,2.02c-1.05,.76-2.17,1.33-3.36,1.72-1.19,.39-2.5,.59-3.94,.59-2.86,0-5.09-.9-6.7-2.72-1.6-1.81-2.4-4.22-2.4-7.23,0-1.93,.34-3.63,1.03-5.1,.68-1.47,1.68-2.61,2.99-3.43,1.31-.82,2.88-1.23,4.71-1.23,2.72,0,4.79,.88,6.22,2.64,1.43,1.76,2.15,4.1,2.15,7.01,0,.59-.02,1.03-.07,1.32Zm-2.97-2.42c-.05-1.86-.53-3.35-1.43-4.48-.91-1.12-2.21-1.69-3.93-1.69s-3.08,.58-4.04,1.74c-.95,1.16-1.47,2.64-1.54,4.42h10.94Z"/><path class="cls-1" d="M371.16,132.5l-1.39,1.94c-1.44-1-3.01-1.5-4.7-1.5-1.17,0-2.09,.23-2.75,.68-.66,.45-.99,1.1-.99,1.93,0,.61,.13,1.11,.4,1.5,.27,.39,.72,.72,1.36,.99,.64,.27,1.57,.55,2.79,.84,1.91,.47,3.32,1.14,4.24,2.04,.92,.89,1.38,2.06,1.38,3.5,0,1.83-.69,3.26-2.05,4.28-1.37,1.01-3.06,1.52-5.06,1.52-2.69,0-4.94-.72-6.75-2.16l1.43-1.94c.83,.56,1.65,.98,2.46,1.25,.81,.27,1.72,.4,2.75,.4,1.25,0,2.23-.27,2.95-.81,.72-.54,1.08-1.31,1.08-2.31,0-.66-.13-1.19-.4-1.6-.27-.4-.72-.74-1.34-1.01-.62-.27-1.56-.56-2.81-.88-1.93-.49-3.34-1.15-4.22-1.98-.88-.83-1.32-1.98-1.32-3.45,0-1.59,.62-2.86,1.85-3.8,1.24-.94,2.87-1.41,4.9-1.41,2.4,0,4.46,.66,6.2,1.98Z"/><path class="cls-1" d="M386.8,123.69l-.7,2.24c-.78-.17-1.54-.24-2.28-.22-2.3,.02-3.45,1.28-3.45,3.78v1.54h4.7v2.39h-4.7v16.29h-3.12v-16.29h-3.27v-1.98l3.27-.4v-1.61c0-1.98,.53-3.5,1.58-4.57,1.05-1.06,2.62-1.61,4.7-1.63,1.2,0,2.29,.16,3.27,.48Z"/><path class="cls-1" d="M405.91,140.31c0,1.93-.37,3.65-1.12,5.16-.75,1.5-1.82,2.67-3.23,3.5-1.41,.83-3.09,1.25-5.05,1.25s-3.61-.42-5.03-1.27c-1.42-.84-2.5-2.01-3.23-3.5-.73-1.49-1.1-3.2-1.1-5.14,0-2.98,.82-5.36,2.46-7.14,1.64-1.77,3.94-2.66,6.9-2.66,1.98,0,3.67,.41,5.08,1.23,1.41,.82,2.48,1.96,3.21,3.43,.73,1.47,1.1,3.18,1.1,5.14Zm-15.52,0c0,2.23,.51,4.02,1.52,5.38,1.02,1.36,2.55,2.04,4.61,2.04s3.63-.68,4.66-2.04c1.03-1.36,1.54-3.15,1.54-5.38s-.51-4-1.54-5.32c-1.03-1.32-2.58-1.98-4.66-1.98s-3.62,.66-4.62,1.98c-1,1.32-1.5,3.1-1.5,5.32Z"/><path class="cls-1" d="M409.95,135.21c0-1.37-.09-2.76-.26-4.18h2.97c.12,.83,.21,1.82,.26,2.97h.07c1.08-2.32,3.03-3.49,5.87-3.49,.19,0,.55,.04,1.06,.11l-.18,2.68c-.24-.05-.62-.07-1.14-.07-1.79,0-3.16,.6-4.11,1.8-.95,1.2-1.43,2.75-1.43,4.66v10.02h-3.12v-14.49Z"/><path class="cls-1" d="M430.32,130.52c1.17,0,2.29,.18,3.36,.53,1.06,.36,2.01,.85,2.84,1.49l-1.25,2.17c-1.42-1.05-3.07-1.58-4.95-1.58-2.01,0-3.52,.65-4.55,1.96-1.03,1.31-1.54,3.06-1.54,5.27s.51,3.9,1.54,5.23c1.03,1.33,2.53,2,4.51,2,1.69,0,3.36-.53,5.03-1.58l1.14,2.2c-1.86,1.35-3.99,2.02-6.39,2.02-2.1,0-3.83-.47-5.17-1.41-1.35-.94-2.32-2.16-2.92-3.65-.6-1.49-.9-3.09-.9-4.81,0-2.98,.82-5.37,2.46-7.16,1.64-1.79,3.9-2.68,6.79-2.68Z"/><path class="cls-1" d="M455.74,141.49h-13.87c.12,1.91,.7,3.43,1.72,4.55,1.03,1.13,2.5,1.69,4.4,1.69,1.13,0,2.13-.15,3.03-.46,.89-.31,1.79-.76,2.7-1.38l1.39,2.02c-1.05,.76-2.17,1.33-3.36,1.72-1.19,.39-2.5,.59-3.94,.59-2.86,0-5.09-.9-6.7-2.72-1.6-1.81-2.4-4.22-2.4-7.23,0-1.93,.34-3.63,1.03-5.1,.68-1.47,1.68-2.61,2.99-3.43,1.31-.82,2.88-1.23,4.71-1.23,2.72,0,4.79,.88,6.22,2.64,1.43,1.76,2.15,4.1,2.15,7.01,0,.59-.02,1.03-.07,1.32Zm-2.97-2.42c-.05-1.86-.53-3.35-1.43-4.48-.91-1.12-2.21-1.69-3.93-1.69s-3.08,.58-4.04,1.74c-.95,1.16-1.47,2.64-1.54,4.42h10.94Z"/><path class="cls-2" d="M255.22,126.38c.74-.79,1.64-1.42,2.64-1.84,.99-.44,2.06-.66,3.13-.67,1.44,0,2.85,.4,4.08,1.14,1.24,.74,2.25,1.81,2.95,3.08,1.27-.56,2.63-.86,4.02-.87,2.64,0,5.17,1.06,7.04,2.95,1.87,1.89,2.91,4.45,2.91,7.12s-1.05,5.23-2.91,7.12c-1.87,1.89-4.4,2.95-7.04,2.95-.65,0-1.3-.07-1.93-.23-.89,1.63-2.36,2.84-4.12,3.4-1.76,.54-3.66,.4-5.33-.39-.63,1.54-1.73,2.85-3.13,3.73-1.39,.91-3.02,1.38-4.68,1.33-1.64-.02-3.24-.55-4.57-1.53-1.34-.97-2.36-2.33-2.92-3.89-.52,.11-1.06,.17-1.59,.16-1.34-.02-2.66-.4-3.82-1.09s-2.12-1.68-2.78-2.86c-.67-1.18-1.02-2.52-1.02-3.88,0-1.36,.34-2.7,1.01-3.88,.67-1.18,1.64-2.16,2.81-2.83-.86-2.01-.96-4.27-.27-6.34,.68-2.07,2.08-3.81,3.94-4.92,1.87-1.12,4.08-1.49,6.21-1.06,2.14,.37,4.07,1.54,5.39,3.28h0Z"/></g><g><path id="path8" class="cls-2" d="M61.05,116.61c-30.71,0-55.56-24.86-55.56-55.56S30.34,5.48,61.05,5.48s55.56,24.86,55.56,55.56-24.86,55.56-55.56,55.56ZM61.05,0C27.42,0,0,27.05,0,60.68s27.42,60.68,61.05,60.68,61.05-27.05,61.05-60.68S94.68,0,61.05,0Z"/><path id="path12" class="cls-2" d="M45.33,88.1c-9.14-4.39-15.72-14.26-15.72-25.22,0-5.85,1.83-11.33,4.75-16.08l20.11,29.98h12.06l20.11-29.98c2.92,4.39,4.75,10.24,4.75,16.08,0,10.6-5.48,19.74-13.89,24.49l4.02,14.62c14.62-7.68,24.86-23.03,24.86-40.58s-9.14-31.44-22.3-39.11l-23.4,35.82L37.65,21.93c-13.53,8.04-22.66,22.66-22.66,39.48,0,18.28,10.6,34,26.32,41.31l4.02-14.62Z"/></g></g><polygon class="cls-2" points="176.68 67.24 158.83 29.2 149.55 29.2 149.55 90.34 158.83 90.34 158.83 49.46 173.25 79.27 180.12 79.27 194.2 49.46 194.2 90.34 203.47 90.34 203.47 29.2 194.2 29.2 176.68 67.24"/><path class="cls-2" d="M238.3,73.34c0,6.7-4.15,9.69-9,9.69s-8.76-2.92-8.76-9.69v-26.53h-8.77v27.81c0,4.9,1.03,9,4.38,12.29,2.58,2.48,6.27,3.95,10.73,3.95,4.38,.07,8.59-1.71,11.59-4.9v4.38h8.59V46.8h-8.76v26.53Z"/><path class="cls-2" d="M264.22,77.8V29.2h-8.76v49.12c0,6.45,3.61,12.02,11.94,12.02h5.4v-7.46h-3.86c-3.52,0-4.72-1.72-4.72-5.07Z"/><path class="cls-2" d="M293.87,46.29c-11.16,0-18.45,8.16-18.45,22.24,0,16.57,8.67,22.32,19.58,22.32,7.62,0,11.85-2.33,16.31-6.79l-5.58-5.24c-3.09,3.1-5.66,4.46-10.56,4.46-7.13,0-11.08-4.72-11.08-12.19h28.24v-3.86c0-12.36-6.77-20.95-18.45-20.95Zm-9.78,18.7c.08-2.65,.26-3.95,1.11-5.92,1.48-3.44,4.92-5.62,8.67-5.49,3.72-.13,7.14,2.06,8.59,5.49,.83,1.86,1.24,3.88,1.2,5.92h-19.58Z"/><path class="cls-2" d="M355.56,60.37c-2.58-2.31-5.75-3.69-11.43-4.55l-6.92-1.02c-2.51-.29-4.89-1.27-6.88-2.83-1.56-1.46-2.41-3.53-2.31-5.67,0-5.41,3.95-9.53,11.16-9.53,5.14,0,9.53,1.11,13.3,4.72l5.93-5.84c-5.23-4.9-10.9-6.92-18.97-6.92-12.71,0-20.44,7.29-20.44,17.94,0,4.98,1.47,8.84,4.47,11.68,2.66,2.49,6.61,4.21,11.58,4.89l7.21,1.04c3.61,.51,5.16,1.11,6.7,2.58,1.54,1.46,2.4,3.69,2.4,6.36,0,5.92-4.64,9.35-12.62,9.35-6.27,0-11.16-1.38-15.63-5.84l-6.18,6.1c5.84,5.93,12.46,8.07,21.64,8.07,12.79,0,21.98-6.7,21.98-17.95-.01-5.25-1.65-9.65-4.99-12.57Z"/><path class="cls-2" d="M383.64,46.29c-5.92,0-10.12,2.23-12.96,5.15-4.12,4.29-5.15,9.79-5.15,17.09s1.03,12.88,5.15,17.17c2.84,2.92,7.04,5.16,12.96,5.16s10.23-2.24,13.05-5.16c4.12-4.29,5.15-9.78,5.15-17.17s-1.03-12.8-5.15-17.09c-2.83-2.92-7.13-5.15-13.05-5.15Zm6.45,34.17c-1.71,1.69-4.04,2.62-6.45,2.58-2.38,.05-4.67-.88-6.34-2.58-2.67-2.66-3.01-7.22-3.01-11.93s.34-9.28,3.01-11.94c1.68-1.67,3.98-2.57,6.34-2.49,2.4-.07,4.72,.83,6.45,2.49,2.66,2.66,3.01,7.21,3.01,11.94s-.35,9.27-3.01,11.93h0Z"/><path class="cls-2" d="M410.7,40.88v6.72h-4.99v6.7h4.99v36.06h8.76V54.28h8.67v-6.67h-8.67v-6.23c0-3.18,1.53-5.07,4.8-5.07h3.87v-7.53h-5.54c-8.12,0-11.89,5.84-11.89,12.11Z"/><path class="cls-2" d="M447.26,34.36h-8.75v13.25h-5.02v6.7h4.99v23.95c0,6.27,3.77,12.11,11.92,12.11h5.24v-7.5h-3.6c-3.25,0-4.85-1.89-4.85-5.07v-23.54h8.45v-6.65h-8.39v-13.25Z"/><path class="cls-2" d="M466.53,41.11c-.24-.55-.59-1.06-1.02-1.48-.43-.42-.94-.75-1.5-.98-.57-.24-1.19-.36-1.81-.36-.63,0-1.25,.12-1.83,.36-.56,.23-1.07,.56-1.5,.98-.44,.42-.78,.93-1.02,1.48-.25,.58-.38,1.21-.37,1.84-.02,1.91,1.13,3.64,2.9,4.36,.58,.24,1.2,.36,1.83,.35,1.24,0,2.43-.47,3.31-1.34,.43-.43,.77-.93,1.02-1.48,.25-.59,.38-1.23,.37-1.88,0-.64-.12-1.27-.37-1.86Zm-.78,3.46c-.37,.95-1.1,1.71-2.04,2.13-.48,.2-1,.31-1.52,.3-.53,0-1.05-.1-1.54-.3-.46-.2-.88-.49-1.23-.85-.35-.37-.63-.8-.82-1.27-.2-.51-.3-1.05-.29-1.6,0-.54,.09-1.07,.29-1.56,.19-.47,.47-.9,.82-1.26,.73-.75,1.73-1.16,2.77-1.15,.52,0,1.04,.1,1.52,.3,.46,.2,.87,.49,1.22,.84,.35,.35,.63,.77,.82,1.23,.2,.5,.3,1.03,.3,1.56,0,.55-.09,1.1-.3,1.61v.02Z"/><path class="cls-2" d="M464,42.88c.3-.28,.45-.68,.42-1.08,.04-.44-.13-.88-.45-1.18-.43-.29-.94-.43-1.45-.39h-2.12v5.48h.8v-2.36h.91l1.49,2.36h.92l-1.57-2.42c.39-.02,.76-.16,1.06-.41Zm-1.88-.21h-.92v-1.74h1.13c.15-.01,.29-.01,.44,0,.14,.02,.27,.06,.39,.12,.11,.06,.21,.14,.28,.25,.07,.13,.11,.28,.1,.44,.01,.18-.03,.36-.12,.51-.08,.12-.19,.21-.32,.27-.15,.06-.3,.09-.46,.1-.15,.04-.33,.05-.52,.05Z"/></g></g></svg>