<?xml version="1.0" encoding="UTF-8"?><svg id="Icons" xmlns="http://www.w3.org/2000/svg" viewBox="0 0 64 64"><defs><style>.cls-1{fill:#fff;}</style></defs><path class="cls-1" d="M32,6c7.354,0,13.605,3.362,17.553,6.183,1.155.825,1.844,2.175,1.844,3.612v27.525c0,1.472-.725,2.847-1.94,3.678l-14.941,10.223c-.744.509-1.615.779-2.516.779s-1.772-.269-2.517-.779l-14.941-10.223c-1.215-.831-1.94-2.206-1.94-3.678V15.783c0-1.435.687-2.783,1.838-3.608,3.931-2.817,10.168-6.175,17.559-6.175M32,4c-8.116,0-14.886,3.799-18.724,6.549-1.686,1.208-2.673,3.16-2.673,5.234v27.538c0,2.131,1.052,4.125,2.811,5.329l14.941,10.223c1.099.752,2.373,1.128,3.646,1.128s2.547-.376,3.646-1.128l14.941-10.223c1.759-1.203,2.811-3.197,2.811-5.329V15.796c0-2.078-.99-4.032-2.681-5.24-3.851-2.751-10.638-6.556-18.716-6.556h0Z"/><path class="cls-1" d="M27.79,44.06h-.043c-.75-.013-1.456-.363-1.921-.953l-6.555-8.318c-.854-1.084-.668-2.656.417-3.511,1.085-.855,2.657-.668,3.511.417l4.658,5.911,13.189-15.615c.892-1.056,2.468-1.188,3.523-.297,1.055.892,1.188,2.469.297,3.523l-15.167,17.956c-.476.562-1.175.887-1.91.887Z"/></svg>