<?xml version="1.0" encoding="UTF-8"?><svg id="Icons" xmlns="http://www.w3.org/2000/svg" viewBox="0 0 64 64"><defs><style>.cls-1{fill:#fff;}</style></defs><path class="cls-1" d="M14.86,18.317c3.709.383,7.459.643,11.264.664-3.805-.014-7.555-.281-11.264-.664ZM45.656,17.413c-.171,0-.349.014-.527.041h-.055c.198-.034.39-.048.582-.048,1.875,0,3.49,1.499,3.49,3.435v-.021c-.014-1.93-1.615-3.408-3.476-3.415h-.014"/><path class="cls-1" d="M30.525,21.247c-.234.047-.458.139-.658.271.2-.132.424-.224.658-.271Z"/><path class="cls-1" d="M32.708,23.039h0c0-.479-.192-.951-.534-1.293.342.342.534.814.534,1.293Z"/><rect class="cls-1" x="29.054" y="33.673" width="0" height="4.901"/><path class="cls-1" d="M30.525,21.247c.117-.023.236-.035.356-.035h0c-.12,0-.239.012-.356.035Z"/><path class="cls-1" d="M29.054,27.848s0,0,0,0v-4.809c0-.479.198-.951.534-1.293-.335.342-.534.814-.534,1.293v4.809Z"/><path class="cls-1" d="M56.469,4.342c-.192,0-.39.014-.582.048-6.043.999-12.25,1.526-18.58,1.526s-12.4-.513-18.381-1.492c-.192-.034-.383-.048-.575-.048-1.875,0-3.49,1.499-3.49,3.435v7.496l.308.032c4.163.43,7.648.636,10.956.648h.37c6.041,0,12.128-.5,18.053-1.479.352-.063.725-.095,1.109-.095h.007c3.579,0,6.49,2.887,6.49,6.435v25.046c1.537.182,3.067.386,4.576.651.157.027.315.041.479.041,1.519,0,2.751-1.232,2.751-2.751V7.778c0-1.937-1.615-3.435-3.49-3.435Z"/><path class="cls-1" d="M41.516,31.846h0c0-.479-.192-.951-.534-1.293.342.342.534.814.534,1.293Z"/><path class="cls-1" d="M41.479,32.202c-.072.351-.246.681-.498.937.251-.257.426-.586.498-.937Z"/><path class="cls-1" d="M45.663,17.413h-.007c-.192,0-.39.014-.582.048-6.043.999-12.25,1.526-18.58,1.526h-.37c-3.782-.014-7.51-.278-11.197-.657l-.081-.013c-2.265-.233-4.53-.465-6.748-.828-.192-.034-.383-.048-.575-.048l.007.007c-1.875,0-3.49,1.499-3.49,3.435v6.351s.002.009.003.013c0-.004-.002-.009-.003-.013v29.858c0,1.417,1.15,2.566,2.566,2.566.151,0,.301-.013.445-.041,6.317-1.095,12.811-1.669,19.442-1.669,5.598,0,11.1.41,16.479,1.197l-.014-.007c.985.144,1.971.301,2.949.472.157.028.315.041.479.041,1.519,0,2.751-1.231,2.751-2.751v-11.334s.009,0,.014.001v-24.719c0-1.944-1.615-3.435-3.49-3.435ZM20.555,30.832c.066-.1.141-.194.225-.279.086-.086.179-.162.279-.228.3-.198.655-.306,1.014-.306h6.98v-6.308h0v-.673c0-.479.198-.951.534-1.293.342-.342.814-.534,1.293-.534s.951.198,1.293.534c.342.342.534.814.534,1.293v6.98h6.98c.12,0,.239.012.356.036.351.072.681.246.937.498.083.083.156.173.219.269.053.079.095.164.135.25.007.016.018.031.025.047.099.229.154.477.154.728,0,.479-.198.951-.534,1.293-.342.342-.814.534-1.293.534h-6.98v6.98c0,.479-.198.951-.534,1.293-.086.086-.179.162-.279.228-.3.198-.655.306-1.014.306h0c-.12,0-.239-.012-.356-.036-.351-.072-.681-.246-.937-.497-.342-.342-.534-.814-.534-1.293v-.074h0v-6.906h-6.98c-.359,0-.715-.112-1.014-.309-.1-.066-.193-.141-.279-.225-.043-.042-.076-.092-.114-.138-.266-.323-.42-.736-.42-1.155,0-.359.112-.715.309-1.014ZM46.139,56.605c-.901-.155-1.824-.301-2.747-.436-.057-.008-.115-.015-.172-.02-5.514-.797-11.141-1.202-16.726-1.202-6.51,0-13.052.548-19.453,1.628v-29.277c0-.04,0-.081,0-.121v-6.294c0-.257.258-.435.49-.435.022,0,.045,0,.067,0,.005,0,.011.002.017.003,2.275.372,4.591.612,6.833.842l.412.068v22.668c0,1.417,1.15,2.566,2.566,2.566.151,0,.294-.014.445-.041,6.317-1.095,12.811-1.67,19.442-1.67,2.971,0,5.905.152,8.815.398.004.114.006.229.011.343v10.982Z"/></svg>