<?xml version="1.0" encoding="UTF-8"?><svg id="Icons" xmlns="http://www.w3.org/2000/svg" viewBox="0 0 64 64"><defs><style>.cls-1{fill:#001e5b;}</style></defs><path class="cls-1" d="M54.987,6.007c1.661,0,3.013,1.32,3.013,2.942v46.102c0,1.622-1.352,2.942-3.012,2.942-.141,0-.284-.01-.424-.029-7.507-1.037-15.148-1.563-22.714-1.563-7.461,0-15.005.516-22.423,1.533-.141.019-.284.029-.425.029-1.656,0-3.002-1.32-3.002-2.942V8.989c0-.788.313-1.527.883-2.08.571-.556,1.324-.862,2.12-.862.141,0,.284.01.426.029,7.473,1.025,14.807,1.523,22.422,1.523s15.282-.526,22.712-1.563c.141-.019.284-.029.425-.029M54.987,4.007c-.23,0-.462.016-.697.048-7.33,1.023-14.83,1.544-22.44,1.544s-14.91-.511-22.15-1.504c-.234-.032-.467-.048-.697-.048-2.701,0-5.002,2.16-5.002,4.942v46.032c0,2.782,2.302,4.942,5.002,4.942.23,0,.462-.016.697-.048,7.24-.993,14.64-1.514,22.15-1.514s15.11.531,22.44,1.544c.234.032.467.048.697.048,2.703,0,5.013-2.16,5.013-4.942V8.949c0-2.782-2.311-4.942-5.013-4.942h0Z"/><path class="cls-1" d="M44.26,40.732c-3.095,0-5.7,2.114-6.472,4.974H14.79c-.967,0-1.75.784-1.75,1.75s.783,1.75,1.75,1.75h22.998c.771,2.86,3.376,4.974,6.472,4.974,3.7,0,6.71-3.017,6.71-6.724s-3.01-6.724-6.71-6.724ZM44.26,50.68c-1.77,0-3.21-1.446-3.21-3.224s1.44-3.224,3.21-3.224,3.21,1.446,3.21,3.224-1.44,3.224-3.21,3.224Z"/><path class="cls-1" d="M49.2,31.275h-18.679c-.771-2.86-3.376-4.974-6.472-4.974s-5.7,2.114-6.472,4.974h-2.788c-.967,0-1.75.784-1.75,1.75s.783,1.75,1.75,1.75h2.788c.771,2.86,3.376,4.974,6.472,4.974s5.7-2.114,6.472-4.974h18.679c.967,0,1.75-.784,1.75-1.75s-.783-1.75-1.75-1.75ZM24.05,36.249c-1.77,0-3.21-1.446-3.21-3.224s1.44-3.224,3.21-3.224,3.21,1.446,3.21,3.224-1.44,3.224-3.21,3.224Z"/><path class="cls-1" d="M49.2,16.844h-6.326c-.768-2.866-3.376-4.984-6.475-4.984s-5.706,2.119-6.474,4.984h-15.135c-.967,0-1.75.784-1.75,1.75s.783,1.75,1.75,1.75h15.141c.775,2.855,3.377,4.964,6.469,4.964s5.694-2.109,6.47-4.964h6.331c.967,0,1.75-.784,1.75-1.75s-.783-1.75-1.75-1.75ZM36.4,21.808c-1.77,0-3.21-1.446-3.21-3.224s1.44-3.224,3.21-3.224,3.211,1.446,3.211,3.224-1.44,3.224-3.211,3.224Z"/></svg>