<?xml version="1.0" encoding="UTF-8"?><svg id="Icons" xmlns="http://www.w3.org/2000/svg" viewBox="0 0 64 64"><defs><style>.cls-1{fill:#fff;}</style></defs><path class="cls-1" d="M40.908,26.803h-.032l-19.543-.241c-1.38-.017-2.485-1.15-2.469-2.531.018-1.381,1.145-2.492,2.531-2.469l19.543.241c1.38.017,2.485,1.15,2.469,2.531-.018,1.37-1.133,2.469-2.499,2.469Z"/><path class="cls-1" d="M43.678,51.703h-.043c-.751-.014-1.456-.363-1.921-.953l-3.649-4.633c-.854-1.085-.668-2.656.417-3.511,1.085-.855,2.657-.666,3.511.417l1.753,2.226,6.47-7.659c.893-1.056,2.469-1.188,3.523-.297,1.055.892,1.188,2.469.297,3.523l-8.447,10c-.476.562-1.175.887-1.91.887Z"/><path class="cls-1" d="M57.696,32.602l-6.346-2.419v-13.721c0-2.481-1.573-4.394-3.401-4.394-.186,0-.375.02-.565.061-1.015.219-1.967.414-2.898.596v-4.331c0-2.481-1.573-4.394-3.401-4.394-.186,0-.375.02-.565.061-5.86,1.267-10.01,1.927-16.144,1.927s-10.491-.659-16.351-1.927c-.19-.041-.379-.061-.565-.061-1.828,0-3.401,1.913-3.401,4.394v37.352c0,2.481,1.573,4.394,3.401,4.394.186,0,.375-.02.565-.061,1.008-.218,1.962-.411,2.898-.593v4.327c0,2.481,1.573,4.394,3.401,4.394.186,0,.375-.02.565-.061,5.86-1.267,10.217-1.927,16.351-1.927,3.44,0,6.257.21,9.101.616-.002-.002-.005-.003-.007-.005.911.633,1.892,1.285,2.956,1.989l.939.621c.564.373,1.206.559,1.849.559s1.285-.186,1.849-.559l.939-.621c7.375-4.878,11.077-7.327,11.077-17.355v-5.53c0-1.488-.896-2.818-2.246-3.333ZM10.922,16.462v30.988c-1.078.205-2.173.426-3.321.674-.049.011-.095.016-.142.016-.572,0-1.401-.933-1.401-2.394V8.394c0-.729.213-1.417.585-1.889.253-.321.551-.505.816-.505.047,0,.093.005.142.016,5.774,1.249,10.369,1.972,16.773,1.972,6.298,0,10.52-.664,16.567-1.972.049-.011.096-.016.142-.016.571,0,1.401.933,1.401,2.394v4.699c-3.619.63-6.952.962-11.246.962-6.134,0-10.491-.659-16.351-1.927-.19-.041-.379-.061-.565-.061-1.828,0-3.401,1.913-3.401,4.394ZM31.239,54.22c-6.403,0-10.999.723-16.774,1.972-.049.011-.095.016-.142.016-.571,0-1.401-.933-1.401-2.394V16.462c0-.729.213-1.417.585-1.889.253-.321.551-.505.816-.505.047,0,.093.005.142.016,5.774,1.249,10.37,1.972,16.774,1.972,6.298,0,10.52-.664,16.567-1.972.049-.011.096-.016.142-.016.571,0,1.401.933,1.401,2.394v12.959l-2.086-.795c-.383-.146-.785-.219-1.187-.219s-.804.073-1.187.219l-6.239,2.378-17.256-.213c-1.387.012-2.514,1.088-2.531,2.469-.017,1.381,1.089,2.514,2.469,2.531l10.879.134s0,.006,0,.01v4.458l-10.815-.133c-1.387-.006-2.514,1.088-2.531,2.469-.017,1.381,1.089,2.514,2.469,2.531l11.125.137c.574,4.251,2.184,6.792,4.827,9.104-.009-.008-.02-.015-.028-.023-1.922-.168-3.874-.257-6.018-.257ZM57.942,41.464c0,8.953-2.98,10.925-10.18,15.687l-.939.621c-.225.149-.483.227-.746.227s-.521-.079-.746-.227l-.94-.622c-7.2-4.762-10.18-6.734-10.18-15.687v-5.53c0-.657.385-1.245.958-1.464l10.433-3.976c.153-.058.312-.088.474-.088s.322.03.474.088l10.432,3.976c.573.219.958.807.958,1.464v5.53Z"/></svg>