<?xml version="1.0" encoding="UTF-8"?><svg id="Icons" xmlns="http://www.w3.org/2000/svg" viewBox="0 0 64 64"><defs><style>.cls-1{fill:#0d9dda;}</style></defs><path class="cls-1" d="M47.383,12.128c-1.015.219-1.967.414-2.898.596v-4.331c0-2.481-1.573-4.394-3.401-4.394-.186,0-.375.02-.565.061-5.86,1.267-10.01,1.927-16.144,1.927s-10.491-.659-16.351-1.927c-.19-.041-.379-.061-.565-.061-1.828,0-3.401,1.913-3.401,4.394v37.352c0,2.481,1.573,4.394,3.401,4.394.186,0,.375-.02.565-.061,1.21-.262,2.13-.502,2.898-.72v4.454c0,2.734,1.91,4.778,3.966,4.333,5.86-1.267,10.217-1.927,16.351-1.927,1.27,0,2.451.03,3.583.086-2.857-2.643-4.777-5.797-5.395-10.947l-8.094-.1c-1.38-.018-2.485-1.15-2.469-2.531.018-1.381,1.145-2.475,2.531-2.469l7.815.096v-4.421c0-.016.003-.031.004-.047l-7.882-.097c-1.38-.018-2.485-1.15-2.469-2.531.018-1.38,1.145-2.457,2.531-2.469l10.138.125c.547-.467,1.166-.854,1.855-1.117l7.979-3.041c-.149.028-.302.046-.46.046h-.032l-19.543-.241c-1.38-.017-2.485-1.15-2.469-2.531.018-1.381,1.145-2.492,2.531-2.469l19.543.241c1.38.017,2.485,1.15,2.469,2.531-.012.91-.513,1.693-1.246,2.121l1.66-.633c.724-.276,1.482-.416,2.255-.416s1.531.14,2.255.416l3.018,1.15v-10.511c0-2.733-1.91-4.778-3.966-4.333ZM42.485,13.095c-3.62.629-6.949.96-11.246.96-6.134,0-10.491-.659-16.351-1.927-2.056-.445-3.966,1.6-3.966,4.333v30.819c-.859.253-1.899.536-3.321.843-.049.011-.095.016-.142.016-.572,0-1.401-.933-1.401-2.394V8.394c0-.729.213-1.417.585-1.889.253-.321.551-.505.816-.505.047,0,.093.005.142.016,5.774,1.249,10.369,1.972,16.773,1.972,6.298,0,10.52-.664,16.567-1.972.049-.011.096-.016.142-.016.571,0,1.401.933,1.401,2.394v4.701Z"/><path class="cls-1" d="M57.696,32.602l-10.433-3.976c-.766-.292-1.607-.292-2.373,0l-10.433,3.976c-1.35.514-2.246,1.845-2.246,3.332v5.53c0,10.028,3.702,12.477,11.077,17.355l.939.621c1.127.746,2.571.746,3.698,0l.939-.621c7.375-4.878,11.077-7.327,11.077-17.355v-5.53c0-1.488-.896-2.818-2.246-3.332ZM54.035,40.816l-8.447,10c-.476.562-1.175.887-1.91.887h-.043c-.751-.014-1.456-.363-1.921-.953l-3.649-4.633c-.854-1.085-.668-2.656.417-3.511,1.085-.855,2.657-.666,3.511.417l1.753,2.226,6.47-7.659c.893-1.056,2.469-1.188,3.523-.297,1.055.892,1.188,2.469.297,3.523Z"/></svg>