<?xml version="1.0" encoding="UTF-8"?><svg id="Icons" xmlns="http://www.w3.org/2000/svg" viewBox="0 0 64 64"><defs><style>.cls-1{fill:#001e5b;}</style></defs><path class="cls-1" d="M55.077,54.474l-3.979-36.69c-.003-.367-.04-.851-.152-1.355-.018-.085-.04-.168-.063-.251-.012-.042-.019-.084-.032-.126-.036-.12-.084-.23-.129-.343-.014-.033-.023-.068-.038-.1-.469-1.095-1.336-1.821-2.416-2.027-.339-.094-.691-.16-1.064-.16-.241,0-.486.021-.729.061-.108.018-.221.033-.33.05-2.271-5.248-7.076-9.035-11.93-9.035-.915,0-1.827.115-2.723.332-.7-.131-1.416-.198-2.144-.198-6.256,0-10.5,3.366-12.686,9.968l-2.476.807c-1.571.4-2.711,1.699-2.831,3.398-.849,11.889-1.671,23.741-2.445,35.228-.076,1.14.284,2.197,1.015,2.979.714.764,1.707,1.184,2.796,1.184.141,0,.285-.007.432-.022,2.504-.243,5.457-.372,8.531-.372,8.464,0,16.824.942,22.362,2.52.4.116.814.176,1.22.176.37,0,.721-.066,1.062-.16.787-.127,1.62-.706,2.65-1.83.747-.815,1.174-1.189,1.41-1.36.07.055.145.119.204.169.396.336.995.843,1.874.843.562,0,1.099-.218,1.512-.614.883-.847,1.222-1.795,1.1-3.075ZM35.809,6.564c.105.021.209.048.314.073.158.038.316.078.472.125.111.033.222.07.332.108.149.051.297.104.444.163.114.045.226.092.339.141.141.062.281.129.421.198.114.056.228.112.341.173.136.073.269.153.403.233.112.067.225.131.336.203.131.085.26.177.389.268.109.076.219.149.327.229.173.13.341.27.509.41.175.146.346.3.515.457.09.084.181.164.269.251.126.124.247.254.369.383.083.088.166.174.247.265.121.136.238.276.355.417.076.091.151.183.225.276.116.147.229.298.34.45.067.093.133.187.199.282.111.16.219.322.325.488.058.091.113.184.168.276.106.175.211.351.31.532.044.08.084.162.127.243.284.539.532,1.101.752,1.68-.235.139-.637.342-1.187.435-.192.032-.371.061-.537.088-.027-.067-.057-.131-.084-.198-.168-.413-.353-.81-.555-1.191-.238-.449-.499-.875-.777-1.278-.009-.013-.017-.025-.026-.038-.277-.398-.571-.774-.88-1.124-.006-.007-.013-.014-.019-.021-.041-.046-.084-.085-.125-.13-1.246-2.046-2.836-3.705-4.66-4.872.007.002.015.002.023.004ZM27.221,6.7h0c.331-.053.671-.094,1.018-.122.008,0,.016-.002.024-.003.353-.028.715-.043,1.087-.043.361,0,.718.024,1.072.065.029.003.057.009.086.012.34.043.678.101,1.01.177,1.218.278,2.374.786,3.44,1.498h0c.785.524,1.52,1.157,2.193,1.887.002.003.005.005.007.007.336.365.656.753.958,1.165.002.002.003.004.005.007.303.412.589.847.857,1.304,0,0,0,0,0,0,.289.493.553,1.013.797,1.554.189.42.365.852.525,1.299h0c.032.088.068.173.098.262-.602.069-1.218.135-1.863.191-.018-.049-.039-.095-.058-.144h0s0-.001,0-.002c-.2-.525-.419-1.032-.664-1.512h0c-1.022-2.009-2.42-3.596-4.045-4.627-.002-.001-.003-.002-.005-.003-.218-.138-.44-.266-.666-.384-.008-.004-.016-.009-.025-.013-.222-.114-.447-.219-.675-.313-.011-.005-.022-.01-.034-.015-.956-.388-1.968-.6-3.014-.6-.447,0-.876.031-1.294.08h0c-1.797.209-3.327.867-4.597,1.982-.002.002-.004.004-.006.005-.207.182-.407.376-.6.583-.006.007-.013.014-.019.021-.837.899-1.546,2.026-2.13,3.386-.039.092-.078.184-.116.278-.156.384-.307.778-.444,1.197-.634-.062-1.254-.129-1.846-.204.1-.328.208-.643.318-.953.107-.296.219-.585.334-.867h0c1.707-4.171,4.44-6.542,8.273-7.157ZM22.257,16.061c.283-.831.66-1.655,1.107-2.453h0c.129-.23.265-.457.406-.681.019-.03.037-.06.056-.09.101-.158.207-.312.313-.466,1.401-1.548,3.024-2.01,4.543-2.102-.128.093-.26.172-.386.271-.016.013-.032.026-.048.039-.735.582-1.428,1.26-2.049,2.021-.012.015-.024.03-.036.044-.311.385-.605.79-.875,1.215-.458.721-.855,1.493-1.163,2.317-.077-.004-.155-.007-.232-.011-.555-.03-1.101-.065-1.636-.104,0,0,0,.002,0,.003-.06-.004-.117-.01-.176-.014,0,0,0-.001,0-.002.059.004.117.009.176.013ZM35.641,14.349c-.371.006-.732.023-1.106.023-2.441,0-4.823-.102-7.081-.295,1.167-1.529,2.673-2.708,4.187-3.369,1.564.632,2.944,1.909,4,3.641ZM45.682,58.56c-.05.01-.103.011-.155.018-.075.009-.148.02-.226.021-.084.002-.171-.005-.258-.013-.034-.003-.067-.003-.101-.007-.124-.017-.249-.042-.377-.079-.006-.002-.012-.003-.018-.005-6.313-1.796-15.114-2.588-22.864-2.588-3.163,0-6.151.132-8.723.381-.082.008-.162.012-.24.012-1.167,0-2-.894-1.917-2.137.812-12.052,1.627-23.766,2.445-35.221.077-1.076.899-1.775,1.957-1.775.145,0,.295.013.447.04,1.211.212,2.556.386,3.976.531h-.014s0-.001,0-.001c.007,0,.014.001.02.002.595.061,1.203.116,1.824.165.021.002.04.004.06.005,0,0,0,0,0,0-.012,0-.024-.002-.036-.003,2.622.206,5.446.313,8.268.313,4.246,0,8.47-.233,11.927-.693h0s.009-.001.013-.002c.508-.068,1.002-.14,1.474-.218.004,0,.008,0,.012-.001.127-.02.251-.027.373-.028l-.002-.003c.01,0,.021-.003.032-.003,1.069,0,1.886.728,1.935,1.833.497,11.248.992,22.673,1.487,34.282l-.002-.044c.023.541.046,1.079.069,1.62.023.539.046,1.072.069,1.612.045,1.061-.573,1.809-1.458,1.987ZM52.662,56.179c-.062.06-.128.086-.197.086-.455,0-1.083-1.103-2.081-1.103-.06,0-.122.004-.186.013-.352.048-.763.301-1.191.652-.531-12.482-1.063-24.742-1.595-36.806-.048-1.09-.531-2.032-1.274-2.689.926-.462,1.622-.91,1.622-.91.701.055,1.092.583,1.275,1.187.15.491.166,1.018.164,1.281l3.987,36.766c.074.778-.123,1.139-.525,1.525Z"/></svg>