<?xml version="1.0" encoding="UTF-8"?><svg xmlns="http://www.w3.org/2000/svg" viewBox="0 0 64 64"><defs><style>.cls-1{fill:#fff;}.cls-2{fill:#171615;}</style></defs><g id="Background"><rect class="cls-2" width="64" height="64"/></g><g id="Icons"><path class="cls-1" d="M32.062,3.939c-9.074,0-17.026,4.043-21.47,10.109-2.378,3.246-3.753,7.069-3.753,11.165,0,5.449,2.429,10.419,6.424,14.183v.065c5.935,5.854,11.365,12.218,16.217,19.023l.557.577c1.133,1.172,3.011,1.172,4.144,0l.013-.014c2.735-3.875,5.663-7.602,8.758-11.182,2.506-2.898,5.118-5.701,7.844-8.39v-.018c4.033-3.771,6.489-8.765,6.489-14.244,0-11.749-11.293-21.273-25.223-21.273ZM32.062,37.289c-5.8,0-10.502-4.702-10.502-10.503s4.702-10.503,10.502-10.503,10.502,4.702,10.502,10.503-4.702,10.503-10.502,10.503Z"/></g></svg>