<?xml version="1.0" encoding="UTF-8"?><svg id="Icons" xmlns="http://www.w3.org/2000/svg" viewBox="0 0 64 64"><defs><style>.cls-1{fill:#fe7298;}.cls-2{fill:#fff;}.cls-3{fill:#8a033e;}.cls-4{fill:#e3066a;}</style></defs><path class="cls-4" d="M31.41,46.405C16.61,41.559,7.212,30.378,10.53,14.048c-2.378,3.246-3.753,7.069-3.753,11.165,0,5.449,2.429,10.419,6.424,14.183v.065c5.935,5.854,11.365,12.218,16.217,19.023l.557.577c1.133,1.172,3.011,1.172,4.144,0l.013-.014c2.735-3.875,5.663-7.602,8.758-11.182-3.758.237-7.648-.205-11.48-1.459Z"/><path class="cls-1" d="M50.734,39.456c4.033-3.771,6.489-8.765,6.489-14.244,0-11.749-11.293-21.273-25.223-21.273-9.074,0-17.026,4.043-21.47,10.109-3.319,16.331,6.08,27.512,20.88,32.358,3.832,1.255,7.721,1.696,11.48,1.459,2.506-2.898,5.118-5.701,7.844-8.39v-.018Z"/><circle class="cls-3" cx="32" cy="26.786" r="10.502"/><path class="cls-2" d="M51.204,18.287c-1.21-6.071-7.094-10.014-13.141-8.809-.84.167-.772,1.256.04,1.53,4.398,1.483,8.305,4.226,11.209,7.886.72.908,2.118.529,1.892-.607Z"/></svg>