<?xml version="1.0" encoding="UTF-8"?><svg id="Icons" xmlns="http://www.w3.org/2000/svg" viewBox="0 0 64 64"><defs><style>.cls-1{fill:#001e5b;}</style></defs><path class="cls-1" d="M32.205,6.501l24.444,12.061v3.159c0,.198-.009.339-.021.439-.009,0-.018,0-.028.001l-.087.002c-.098,0-.198-.007-.296-.02-.624-.083-1.42-.166-2.581-.271-.06-.005-.12-.008-.18-.008-.497,0-.979.185-1.349.524-.415.379-.651.915-.651,1.476v23.944c0,.57.243,1.112.667,1.491.369.329.844.509,1.332.509.075,0,.15-.004.225-.013.903-.102,1.796-.209,2.667-.324.1-.013.201-.02.301-.02l.088.002c.013,0,.026.001.038.002.011.099.021.24.021.438v4.629c0,.815.49,1.524,1.2,1.834v1.144c-.083-.002-.167-.006-.251-.011-1.091-.069-2.719-.13-4.293-.188-1.003-.038-1.958-.073-2.665-.107l-.31-.015-.443-.022c-1.657-.077-3.352-.143-5.181-.203l-.963-.03c-3.912-.118-7.822-.178-11.622-.178-8.581,0-18.118.278-25.512.744-.075.005-.146.008-.215.011v-1.18c.64-.338,1.067-1.009,1.067-1.769v-4.657c0-.199.016-.334.032-.422.033-.003.073-.004.12-.004.034,0,.07,0,.106.003.032.002.063.002.095.002.029,0,.057,0,.086-.002.003,0,.006,0,.009.001.872.115,1.764.222,2.668.324.075.008.15.013.225.013.489,0,.964-.179,1.332-.509.425-.379.667-.922.667-1.491v-23.987c0-.57-.243-1.113-.669-1.492-.368-.329-.843-.508-1.331-.508-.076,0-.152.004-.227.013-.857.098-1.705.2-2.533.309-.098.013-.188.02-.267.02-.048,0-.086-.002-.115-.005-.023-.082-.048-.225-.048-.436v-1.288l-.022-1.835,24.467-12.097M28.375,50.93c.523,0,1.026-.205,1.4-.571.384-.376.6-.891.6-1.429v-26.245c0-.538-.216-1.052-.6-1.429-.374-.367-.877-.571-1.399-.571-.014,0-.028,0-.041,0-3.263.067-6.582.217-9.864.446-1.048.073-1.861.945-1.861,1.995v25.367c0,1.051.814,1.923,1.862,1.995,3.283.226,6.601.375,9.863.441.014,0,.027,0,.041,0M36.034,50.93c.014,0,.027,0,.041,0,3.261-.066,6.58-.215,9.863-.441,1.049-.072,1.862-.944,1.862-1.995v-25.301c0-1.045-.804-1.913-1.845-1.994-.225-.017-.45-.037-.675-.057-.332-.029-.664-.058-.998-.081l-.924-.061c-2.183-.138-4.496-.232-7.279-.295-.015,0-.03,0-.045,0-.522,0-1.024.204-1.398.57-.385.376-.602.892-.602,1.43v26.227c0,.537.216,1.052.6,1.429.374.367.877.571,1.4.571M32.204,4.497c-.297,0-.595.068-.869.203L6.851,16.805c-.668.33-1.091,1.011-1.091,1.757v3.159c0,1.378.602,2.442,2.163,2.442.166,0,.342-.012.53-.037.816-.108,1.653-.208,2.497-.305v23.987c-.891-.101-1.771-.206-2.631-.32-.12-.016-.239-.026-.357-.032,0,.005,0,.01,0,.016-.069-.003-.136-.005-.201-.005-1.664,0-2.151,1.049-2.151,2.426v4.657c-1.007.135-1.067.589-1.067,1.162v2.574c0,.686.236,1.217,1.797,1.217.166,0,.346-.006.544-.018,7.723-.487,17.282-.74,25.386-.74,3.894,0,7.749.062,11.562.177.319.01.639.02.957.03,1.727.056,3.445.123,5.153.202.25.012.499.025.749.037,1.792.087,5.159.183,6.929.294.197.012.393.018.586.018.058,0,.115,0,.173-.002,1.74-.033,1.618-.551,1.618-1.215v-2.574c0-.604.085-1.082-1.2-1.19v-4.629c0-1.334-.312-2.373-1.98-2.438-.055-.002-.111-.003-.166-.003-.185,0-.373.012-.562.037-.859.113-1.74.219-2.631.32v-23.944c.917.083,1.801.169,2.497.262.188.025.375.037.559.037.056,0,.111-.001.166-.003,1.659-.065,1.969-1.105,1.969-2.438v-3.159c0-.745-.423-1.426-1.091-1.757l-24.485-12.106c-.274-.135-.571-.203-.869-.203h0ZM28.375,48.93c-3.214-.065-6.511-.212-9.766-.437v-25.367c3.254-.227,6.551-.375,9.766-.441v26.245h0ZM36.034,48.93v-26.227c2.414.055,4.817.141,7.198.292.305.019.609.04.913.061.555.038,1.103.094,1.655.137v25.301c-3.254.224-6.552.371-9.766.437h0Z"/></svg>