<?xml version="1.0" encoding="UTF-8"?><svg id="Icons" xmlns="http://www.w3.org/2000/svg" viewBox="0 0 64 64"><defs><style>.cls-1{fill:#1b96ff;}</style></defs><path class="cls-1" d="M59.998,55.712c0-.604.085-1.082-1.2-1.19v-4.629c0-1.334-.312-2.373-1.98-2.438-.238-.009-.482.001-.728.034-.859.113-1.74.219-2.631.32v-23.944c.917.083,1.801.169,2.497.262.245.032.487.043.724.034,1.659-.065,1.969-1.105,1.969-2.438v-3.159c0-.745-.423-1.426-1.091-1.757l-24.485-12.106c-.547-.271-1.19-.271-1.737,0L6.851,16.805c-.668.33-1.091,1.011-1.091,1.757v3.159c0,1.524.737,2.664,2.693,2.405.816-.108,1.653-.208,2.497-.305v23.987c-.891-.101-1.771-.206-2.631-.32-.12-.016-.239-.026-.357-.032,0,.005,0,.01,0,.016-1.826-.086-2.352.99-2.352,2.421v4.657c-1.007.135-1.067.589-1.067,1.162v2.574c0,.759.289,1.328,2.341,1.198,7.723-.487,17.282-.74,25.386-.74,3.894,0,7.749.062,11.562.177.319.01.639.02.957.03,1.727.056,3.445.123,5.153.202.25.012.499.025.749.037,1.792.087,5.159.183,6.929.294.257.016.511.021.759.017,1.74-.033,1.618-.551,1.618-1.215v-2.574ZM36.034,22.703c2.414.055,4.817.141,7.198.292.305.019.609.04.913.061.555.038,1.103.094,1.655.137v25.301c-3.254.224-6.552.371-9.766.437v-26.227ZM18.609,23.126c3.254-.227,6.551-.375,9.766-.441v26.245c-3.214-.065-6.511-.212-9.766-.437v-25.367Z"/></svg>