<?xml version="1.0" encoding="UTF-8"?><svg id="Icons" xmlns="http://www.w3.org/2000/svg" viewBox="0 0 64 64"><defs><style>.cls-1{fill:#04e1cb;}</style></defs><path class="cls-1" d="M58.267,21.263c-4.933-10.104-10.291-8.868-12.598-7.657-.127.067-.223.171-.3.285-.258.186-.503.464-.723.823-.926.257-1.786.409-2.705.409-.758,0-1.562-.1-2.455-.306l-6.256-2.22c-.068-.024-.136-.044-.206-.061-.617-.147-1.25-.221-1.884-.221-1.96,0-3.859.717-5.331,1.989-2.152-1.139-3.856-.088-6.582.848-.762-1.711-2.032-2.43-2.955-2.718-.017-.005-.029.003-.045,0-.023-.009-.041-.028-.064-.036-2.487-.775-8.301,1.874-10.814,9.181-3.657,10.633,1.006,13.548,3.493,14.322.154.048.32.047.473.01.776.088,1.852-.235,3.025-1,3.738,5.63,8.342,11.127,14.051,14.922.278.185.569.349.853.526.733.641,2.908,1.77,4.084,1.224,1.515-.703,1.262-2.489,1.165-3.407,1.192.898,3.903,2.112,5.556,1.003,1.899-1.274,1.058-3.847.577-5.002.177.034,3.415,3.619,6.047,1.996,2.386-1.471,1.407-4.376.685-5.795,1.262.89,4.184,2.068,5.951.385.715-.68,1.13-2.375.825-3.742.127-.084.248-.179.356-.293l.489-.517c.039-.041.076-.084.112-.129.088-.11.21-.219.326-.328,1.525.449,2.752.099,3.526-.307.056-.016.115-.02.167-.048,2.307-1.211,4.545-7.195,1.155-14.138ZM51.528,34.838l-.489.517h0s-7.321-2.962-16.055-11.322c-1.046-.177-2.136-.088-3.161.299l-2.513.949c-.662.25-1.325.511-1.93.878-2.187,1.326-5.033,1.011-6.877-.833l-.072-.072c-.618-.618-.636-1.647-.039-2.285l6.26-6.701c.28-.299.592-.555.918-.789-.003-.002-.005-.005-.008-.007.038-.027.08-.046.118-.072.182-.124.369-.237.562-.341.075-.04.148-.082.224-.119.214-.103.433-.191.656-.269.06-.021.117-.047.177-.066.285-.09.576-.161.872-.208.044-.007.09-.007.135-.013.247-.034.496-.055.747-.059.03,0,.058-.007.088-.007.135,0,.271.015.406.024.084.006.167.006.251.015.255.028.51.068.763.128l6.36,2.257c.5.119.962.198,1.413.26.14.019.276.033.412.047.32.034.63.053.933.06.131.003.266.011.395.01.208-.003.413-.016.615-.033.085-.006.172-.009.257-.017.303-.033.601-.076.899-.129,0,.002,0,.004-.001.006,0,0,0,0,0,0,.03-.005.061-.016.091-.021.457-.085.917-.191,1.381-.323.001,0,.003,0,.005-.001.042-.012.086-.025.129-.038.418-.122.848-.261,1.291-.413.067-.023.131-.043.2-.067.256.239.487.497.733.744.161.167.329.327.488.496.011.012.023.024.035.036,1.417,1.504,2.647,3.154,3.699,4.942.616,1.047,1.188,2.127,1.677,3.271.004.01.008.02.011.03.156.367.288.753.431,1.129.14.365.292.721.418,1.096.028.083.048.172.076.255.112.341.205.697.309,1.044.131.449.266.896.38,1.357.004.02.008.039.013.059.173.702.335,1.412.468,2.144h0s0,.004.001.006c-1.779.169-3.271,1.045-4.152,2.151Z"/></svg>