<?xml version="1.0" encoding="UTF-8"?><svg id="Icons" xmlns="http://www.w3.org/2000/svg" viewBox="0 0 64 64"><defs><style>.cls-1{fill:#04e1cb;}.cls-2{fill:#024d4c;}.cls-3{fill:#fff;}.cls-4{fill:#03b4a7;}</style></defs><path class="cls-1" d="M51.039,35.355h0s-20.309-15.734-20.309-15.734c0,0-1.257-3.353-4.895-5.305-2.906-1.559-4.983.883-9.842,1.667-.435.07-.957.257-1.515.518-2.182,3.427-3.619,6.966-4.313,10.598.049.948.008,1.959-.166,3.205-.125.904.229,1.809.921,2.405,3.973,6.372,9.018,12.835,15.472,17.125.278.185.569.349.853.526.733.641,2.908,1.77,4.084,1.224,1.515-.703,1.262-2.489,1.165-3.407,1.192.898,3.903,2.112,5.556,1.003,1.899-1.274,1.058-3.847.577-5.002.177.034,3.415,3.619,6.047,1.996,2.386-1.471,1.407-4.376.685-5.795,1.262.89,4.184,2.068,5.951.385,1.082-1.03,1.515-4.4-.272-5.409Z"/><path class="cls-3" d="M44.579,36.348c-4.173-.585-9.656-4.625-10.316-6.422-.169-.461-.303-1.044-.022-1.401.586-.745,1.586-.579,2.106.166,2.713,2.551,5.406,4.667,8.681,6.249,1.075.403,1.229,1.386.086,1.408-.176.003-.355.003-.535,0Z"/><path class="cls-2" d="M58.267,21.263c-4.933-10.104-10.291-8.868-12.598-7.657-.129.068-.229.174-.309.291-.657.478-1.231,1.545-1.517,3.045,1.007-.179,2-.479,3.096-.863,4.575,4.276,7.523,9.846,8.754,16.68-1.567.187-3.049.9-4.165,2.079h0c2.407,1.654,4.344,1.174,5.417.612.056-.016.115-.021.168-.048,2.307-1.211,4.545-7.195,1.155-14.138Z"/><path class="cls-4" d="M46.94,16.08c-2.712.951-4.787,1.428-8.018.66l-6.36-2.257c-2.148-.511-4.404.17-5.911,1.783l-6.26,6.701c-.597.639-.579,1.667.039,2.285l.072.072c1.844,1.844,4.691,2.159,6.877.833.605-.367,1.268-.628,1.93-.878l2.513-.949c1.025-.387,2.115-.476,3.161-.299,8.734,8.36,16.055,11.322,16.055,11.322h0s.489-.517.489-.517c1.116-1.179,2.598-1.892,4.165-2.079-1.231-6.833-4.179-12.404-8.754-16.68Z"/><path class="cls-2" d="M10.217,26.864c.711-3.548,2.126-7.006,4.259-10.357,0-.002.002-.003.003-.005.558-.261,1.08-.448,1.515-.518,1.24-.2,2.297-.508,3.235-.83-.762-1.711-2.032-2.43-2.955-2.718-.017-.005-.029.003-.045,0-.023-.009-.041-.028-.064-.036-2.487-.775-8.301,1.874-10.814,9.181-3.657,10.633,1.006,13.548,3.493,14.322.175.055.367.049.534-.004.772.068,1.814-.237,2.963-.985-.487-.733-.963-1.469-1.421-2.203-.692-.596-1.046-1.5-.921-2.405.046-.331.081-.643.11-.944.012-.126.018-.244.027-.365.012-.166.025-.333.032-.491.007-.148.009-.291.01-.433.002-.12.004-.24.003-.357-.001-.154-.006-.306-.012-.456-.002-.048-.005-.095-.007-.142.017-.089.029-.178.047-.267.002.005.005.009.008.014Z"/><path class="cls-4" d="M44.674,46.175c.984-.606,1.39-1.457,1.484-2.346-2.293.517-4.631.796-6.984.816,1.06.921,3.458,2.789,5.5,1.53Z"/><path class="cls-4" d="M38.812,44.656c-4.556-.011-9.146-.982-13.497-3.022-.349-.164-.693-.333-1.034-.508-.019.084-.036.168-.053.252.018-.085.024-.173.043-.257.003.002.007.003.01.005.001-.005.002-.01.003-.015-6.304-3.237-11.119-8.334-14.141-14.384.082,1.056.052,2.168-.144,3.578-.125.904.229,1.809.921,2.405,3.973,6.372,9.018,12.835,15.472,17.125.278.185.569.349.853.526.733.641,2.908,1.77,4.084,1.224,1.515-.703,1.262-2.489,1.165-3.407,1.192.898,3.903,2.112,5.556,1.003,1.67-1.12,1.222-3.243.762-4.524Z"/></svg>