<?xml version="1.0" encoding="UTF-8"?><svg id="Icons" xmlns="http://www.w3.org/2000/svg" viewBox="0 0 64 64"><defs><style>.cls-1{fill:#001e5b;}.cls-2{fill:#fff;}.cls-3{fill:#05628a;}.cls-4{fill:#0d9dda;}</style></defs><path class="cls-4" d="M60,9.01c0-3.014-2.72-5.294-5.706-4.88-7.334,1.018-14.826,1.545-22.44,1.545-7.516,0-14.911-.513-22.154-1.505-2.983-.409-5.697,1.87-5.697,4.881v45.898c0,3.011,2.714,5.29,5.697,4.881,7.243-.992,14.639-1.505,22.154-1.505,7.615,0,15.106.526,22.44,1.545,2.986.414,5.706-1.866,5.706-4.88V9.01Z"/><path class="cls-3" d="M12.825,40.883c-1.127-1.51-2.12-3.076-3.008-4.77-2.535-4.839-4.225-10.734-5.818-19.425v38.262c0,3.011,2.714,5.29,5.697,4.881,7.243-.992,14.639-1.505,22.154-1.505,7.615,0,15.106.526,22.44,1.545.06.008.118,0,.178.005-14.2-3.425-27.943-4.839-36.704-13.428-1.903-1.865-3.527-3.672-4.939-5.564Z"/><path class="cls-2" d="M54.387,8.834c.59-.093,1.074.164,1.266.532.165.272.237.628.158,1.001-.372,1.772-.661,3.703-.843,5.731-.073.812-.945,1.285-1.506.694-.366-.385-.672-.826-.903-1.307-.483-.905-.759-1.52-1.779-2.108-.81-.468-2.169-.555-3.175-.613-.256-.01-.508-.027-.756-.052-.038-.004-.074-.007-.108-.011-1.378-.151-2.617-.531-3.605-1.089-.956-.54-.427-1.687.67-1.73,2.088-.081,4.302-.248,6.59-.507,1.366-.155,2.7-.336,3.989-.54Z"/><path class="cls-1" d="M15.64,29.853c-.585,0-1.172-.204-1.646-.62-1.039-.909-1.143-2.489-.233-3.527l2.496-2.849-2.481-2.78c-.919-1.03-.83-2.611.201-3.53,1.03-.92,2.611-.828,3.53.2l5.425,6.079-5.41,6.175c-.494.564-1.186.853-1.881.853Z"/><path class="cls-1" d="M48.359,46.68h-25.871c-1.381,0-2.5-1.119-2.5-2.5s1.119-2.5,2.5-2.5h23.371v-16.298h-24.141c-1.381,0-2.5-1.119-2.5-2.5s1.119-2.5,2.5-2.5h26.641c1.381,0,2.5,1.119,2.5,2.5v21.298c0,1.381-1.119,2.5-2.5,2.5Z"/><circle class="cls-2" cx="18.981" cy="44.18" r="2.458"/><path class="cls-1" d="M18.981,41.723c1.357,0,2.458,1.1,2.458,2.458s-1.1,2.458-2.458,2.458-2.458-1.1-2.458-2.458,1.1-2.458,2.458-2.458M18.981,36.723c-4.112,0-7.458,3.346-7.458,7.458s3.345,7.458,7.458,7.458,7.458-3.345,7.458-7.458-3.346-7.458-7.458-7.458h0Z"/><path class="cls-1" d="M34.972,50.089c-1.381,0-2.5-1.119-2.5-2.5v-6.494c0-1.381,1.119-2.5,2.5-2.5s2.5,1.119,2.5,2.5v6.494c0,1.381-1.119,2.5-2.5,2.5Z"/><rect class="cls-2" x="32.254" y="20.164" width="5.436" height="5.436" transform="translate(26.423 -18.027) rotate(45)"/><path class="cls-1" d="M34.972,19.038l3.844,3.844-3.844,3.844-3.844-3.844,3.844-3.844M34.972,14.038c-1.28,0-2.559.488-3.536,1.464l-3.844,3.844c-1.953,1.953-1.953,5.118,0,7.071l3.844,3.844c.976.976,2.256,1.464,3.536,1.464s2.559-.488,3.536-1.464l3.844-3.844c1.953-1.953,1.953-5.118,0-7.071l-3.844-3.844c-.976-.976-2.256-1.464-3.536-1.464h0Z"/></svg>