<?xml version="1.0" encoding="UTF-8"?><svg id="Icons" xmlns="http://www.w3.org/2000/svg" viewBox="0 0 64 64"><defs><style>.cls-1{fill:#001e5b;}</style></defs><path class="cls-1" d="M54.997,6.082c1.656,0,3.003,1.314,3.003,2.929v45.979c0,1.615-1.347,2.929-3.003,2.929-.142,0-.286-.01-.428-.03-7.473-1.038-15.116-1.564-22.715-1.564-7.5,0-15.046.513-22.426,1.524-.14.019-.283.029-.423.029-1.656,0-3.003-1.314-3.003-2.929V9.051c0-.783.313-1.518.882-2.069.572-.554,1.325-.86,2.121-.86.14,0,.283.01.423.029,7.379,1.011,14.924,1.524,22.426,1.524,7.6,0,15.242-.526,22.715-1.564.142-.02.286-.03.428-.03M54.997,4.082c-.232,0-.467.016-.703.049-7.334,1.018-14.826,1.545-22.44,1.545-7.516,0-14.911-.513-22.154-1.505-.233-.032-.465-.047-.694-.047-2.697,0-5.003,2.153-5.003,4.928v45.898c0,2.775,2.306,4.929,5.003,4.929.229,0,.46-.016.694-.047,7.243-.992,14.639-1.505,22.154-1.505,7.615,0,15.106.526,22.44,1.545.236.033.471.049.703.049,2.697,0,5.003-2.153,5.003-4.929V9.01c0-2.776-2.306-4.929-5.003-4.929h0Z"/><path class="cls-1" d="M49.727,21.822c-.281-.281-.663-.439-1.061-.439h-6.102s-6.532-6.531-6.532-6.531c-.586-.586-1.535-.586-2.121,0l-6.531,6.531h-7.082s-3.75-3.75-3.75-3.75c-.586-.586-1.535-.586-2.121,0s-.586,1.535,0,2.121l3.126,3.126-3.325,3.324c-.586.586-.586,1.535,0,2.121.293.293.677.439,1.061.439s.768-.146,1.061-.439l3.943-3.942h7.088s6.53,6.531,6.53,6.531c.281.281.663.439,1.061.439s.779-.158,1.061-.439l6.531-6.531h4.603s0,18.308,0,18.308l-10.693.071v-2.443c0-.828-.672-1.5-1.5-1.5s-1.5.672-1.5,1.5v2.463l-7.899.052c-.626-3.066-3.343-5.38-6.592-5.38-3.71,0-6.728,3.018-6.728,6.728s3.018,6.727,6.728,6.727c3.138,0,5.774-2.163,6.513-5.073l7.978-.053v2.584c0,.828.672,1.5,1.5,1.5s1.5-.672,1.5-1.5v-2.604l12.203-.081c.824-.006,1.49-.676,1.49-1.5v-21.298c0-.397-.157-.779-.438-1.061ZM34.972,27.732l-4.849-4.85,4.849-4.849,4.85,4.849-4.85,4.85ZM18.981,47.907c-2.056,0-3.728-1.672-3.728-3.727s1.672-3.728,3.728-3.728,3.728,1.672,3.728,3.728-1.672,3.727-3.728,3.727Z"/></svg>