<?xml version="1.0" encoding="UTF-8"?><svg id="Icons" xmlns="http://www.w3.org/2000/svg" viewBox="0 0 64 64"><defs><style>.cls-1{fill:#0d9dda;}</style></defs><path class="cls-1" d="M18.981,41.453c-1.504,0-2.728,1.224-2.728,2.728s1.224,2.727,2.728,2.727,2.728-1.223,2.728-2.727-1.224-2.728-2.728-2.728Z"/><rect class="cls-1" x="32.543" y="20.453" width="4.857" height="4.857" transform="translate(-5.937 31.431) rotate(-45)"/><path class="cls-1" d="M54.294,4.13c-7.334,1.018-14.826,1.545-22.44,1.545-7.516,0-14.911-.513-22.154-1.505-2.983-.409-5.697,1.87-5.697,4.881v45.898c0,3.011,2.714,5.29,5.697,4.881,7.243-.992,14.639-1.505,22.154-1.505,7.615,0,15.106.526,22.44,1.545,2.986.415,5.706-1.865,5.706-4.88V9.01c0-3.014-2.72-5.294-5.706-4.88ZM51.062,44.181c0,1.374-1.109,2.491-2.483,2.5l-11.106.073v1.611c0,1.381-1.119,2.5-2.5,2.5s-2.5-1.119-2.5-2.5v-1.578l-6.241.041c-1.084,2.958-3.921,5.079-7.25,5.079-4.261,0-7.728-3.466-7.728-7.727s3.467-7.728,7.728-7.728c3.44,0,6.36,2.261,7.358,5.375l6.133-.041v-1.469c0-1.381,1.119-2.5,2.5-2.5s2.5,1.119,2.5,2.5v1.436l8.59-.057v-16.314s-3.085,0-3.085,0l-6.237,6.237c-.469.469-1.104.732-1.768.732s-1.299-.264-1.768-.732l-6.237-6.238h-6.26s-3.65,3.649-3.65,3.649c-.488.488-1.128.732-1.768.732s-1.279-.244-1.768-.732c-.977-.977-.977-2.56,0-3.535l2.617-2.617-2.418-2.419c-.977-.977-.977-2.559,0-3.535s2.559-.977,3.535,0l3.457,3.457h6.254s6.238-6.237,6.238-6.237c.977-.977,2.559-.977,3.535,0l6.239,6.238h5.584c.663,0,1.299.264,1.768.733s.732,1.104.732,1.768v21.298Z"/></svg>