<?xml version="1.0" encoding="UTF-8"?><svg id="Icons" xmlns="http://www.w3.org/2000/svg" viewBox="0 0 64 64"><defs><style>.cls-1{fill:#fff;}</style></defs><path class="cls-1" d="M57.723,37.143c.449-1.952.703-3.977.703-6.065,0-14.955-12.123-27.078-27.078-27.078S4.27,16.123,4.27,31.078s12.123,27.078,27.078,27.078c2.997,0,5.877-.493,8.571-1.393.697.807,1.391,1.634,2.07,2.471.911,1.123,2.279,1.766,3.753,1.766h.005c1.479-.001,2.852-.649,3.765-1.778,2.642-3.268,5.611-6.481,8.115-8.788,1.972-1.667,3.104-4.103,3.104-6.707,0-2.626-1.169-4.979-3.007-6.584ZM51.984,34.981c-2.384,0-4.597.94-6.231,2.614-1.166-1.183-2.631-1.991-4.238-2.36.067-1.049.121-2.101.137-3.158h14.749c-.052,1.316-.217,2.601-.469,3.855-1.188-.604-2.526-.952-3.947-.952ZM31.74,39.769c-.367.716-.619,1.487-.776,2.279-.217-.003-.432-.009-.651-.009-2.209,0-4.329.1-6.334.262-.542-3.034-.884-6.472-.935-10.223h16.607c-.014,1.006-.06,1.973-.118,2.927h-.005c-3.299,0-6.283,1.825-7.789,4.764ZM23.044,30.078c.052-3.754.39-7.202.933-10.237,2.016.164,4.148.264,6.37.264,3.006,0,5.797-.169,8.34-.429.561,3.076.911,6.578.964,10.401h-16.607ZM56.4,30.078h-14.749c-.053-3.633-.396-7.27-1.001-10.625,5.433-.687,9.471-1.749,11.502-2.362,2.522,3.739,4.058,8.193,4.247,12.987ZM50.883,15.379c-2.146.614-5.831,1.512-10.624,2.109-1.05-4.786-2.665-8.814-4.76-11.138,6.185,1.035,11.609,4.34,15.385,9.029ZM31.348,6.209c2.572,0,5.336,4.372,6.941,11.499-2.427.241-5.084.397-7.941.397-2.081,0-4.079-.092-5.975-.24,1.599-7.219,4.384-11.656,6.976-11.656ZM27.197,6.35c-2.125,2.356-3.757,6.463-4.805,11.338-4.499-.465-8.282-1.235-10.915-1.882,3.786-4.915,9.349-8.39,15.721-9.456ZM10.243,17.558c2.675.688,6.784,1.574,11.765,2.1-.582,3.298-.912,6.861-.964,10.42H6.295c.181-4.598,1.607-8.878,3.948-12.519ZM6.295,32.078h14.748c.052,3.554.384,7.112.964,10.405-4.977.523-9.085,1.408-11.767,2.096-2.335-3.638-3.765-7.909-3.946-12.501ZM11.475,46.331c2.638-.647,6.42-1.415,10.914-1.877,1.048,4.878,2.68,8.994,4.807,11.352-6.377-1.067-11.936-4.555-15.721-9.475ZM31.348,55.947c-2.592,0-5.377-4.445-6.975-11.67,1.886-.147,3.872-.238,5.94-.238.164,0,.324.005.486.006.083,2.471,1.19,4.786,3.058,6.363.56.515,1.149,1.087,1.755,1.694-1.323,2.462-2.822,3.845-4.263,3.845ZM35.499,55.806c.557-.618,1.078-1.361,1.564-2.205.454.481.913.978,1.375,1.49-.959.29-1.933.546-2.94.715ZM56.304,48.935c-2.604,2.398-5.646,5.689-8.347,9.029-.532.658-1.338,1.035-2.211,1.036h-.002c-.869,0-1.671-.374-2.201-1.026-2.783-3.431-5.819-6.724-8.362-9.065-1.523-1.286-2.396-3.166-2.396-5.157,0-1.083.248-2.116.737-3.07,1.161-2.268,3.464-3.676,5.999-3.676h.098c2.125.027,4.07,1.02,5.338,2.724.188.254.486.403.802.403h.002c.317,0,.615-.151.803-.406,1.287-1.745,3.264-2.745,5.423-2.745,3.72,0,6.746,3.026,6.746,6.77,0,1.99-.873,3.87-2.426,5.184Z"/></svg>