<?xml version="1.0" encoding="UTF-8"?><svg id="Icons" xmlns="http://www.w3.org/2000/svg" viewBox="0 0 64 64"><defs><style>.cls-1{fill:#cb65ff;}.cls-2{fill:#90d0fe;}.cls-3{fill:#9602c7;}.cls-4{fill:#fff;}.cls-5{fill:#eaf5fe;}</style></defs><circle class="cls-5" cx="31.348" cy="31.078" r="24.37"/><path class="cls-2" d="M31.348,4c-14.955,0-27.078,12.123-27.078,27.078s12.123,27.078,27.078,27.078,27.078-12.123,27.078-27.078S46.302,4,31.348,4ZM30.381,40.65c-1.536,0-3.024.052-4.461.139-.363-2.158-.626-4.56-.728-7.211h12.311c-.103,2.7-.375,5.143-.749,7.331-2.036-.163-4.169-.259-6.374-.259ZM35.622,45.835c-1.335,4.438-3.078,6.919-4.275,6.919-1.207,0-2.968-2.516-4.307-7.021,1.085-.053,2.198-.084,3.34-.084,1.809,0,3.559.069,5.242.185ZM25.192,28.578c.101-2.651.365-5.053.728-7.211,1.437.087,2.925.139,4.461.139,2.255,0,4.382-.102,6.373-.265.374,2.19.646,4.634.75,7.337h-12.311ZM30.381,16.505c-1.142,0-2.255-.031-3.34-.084,1.339-4.504,3.1-7.021,4.307-7.021,1.196,0,2.937,2.476,4.271,6.907-1.76.128-3.519.198-5.238.198ZM38.599,10.229c2.842.991,5.423,2.543,7.604,4.53-1.763.399-3.616.743-5.529,1.011-.566-2.058-1.259-3.932-2.075-5.541ZM21.962,15.996c-2.159-.257-4.112-.583-5.802-.92,2.25-2.136,4.947-3.804,7.936-4.847-.846,1.667-1.557,3.621-2.134,5.767ZM20.927,20.906c-.393,2.46-.642,5.051-.737,7.671h-10.774c.377-3.332,1.499-6.44,3.194-9.156,2.172.511,5.009,1.073,8.317,1.485ZM20.19,33.578c.096,2.62.344,5.211.737,7.671-3.308.412-6.146.974-8.317,1.485-1.696-2.716-2.817-5.824-3.194-9.156h10.774ZM21.962,46.159c.577,2.146,1.288,4.1,2.134,5.767-2.989-1.043-5.686-2.71-7.936-4.847,1.69-.337,3.643-.663,5.802-.92ZM40.681,46.359c2.034.282,3.9.628,5.554,1.007-2.188,2.001-4.78,3.565-7.636,4.561.82-1.615,1.515-3.499,2.082-5.568ZM41.733,41.462c.414-2.523.674-5.188.772-7.885h10.774c-.396,3.492-1.609,6.738-3.444,9.545-2.246-.622-4.993-1.212-8.103-1.66ZM42.506,28.578c-.099-2.702-.36-5.374-.775-7.902,3.448-.506,6.213-1.148,8.096-1.658,1.841,2.81,3.058,6.062,3.454,9.561h-10.774Z"/><path class="cls-1" d="M51.984,35.981c4.278,0,7.746,3.468,7.746,7.746,0,.004,0,.008,0,.012,0,.004,0,.008,0,.012,0,2.374-1.068,4.498-2.749,5.919-2.655,2.446-5.664,5.728-8.247,8.923-1.513,1.871-4.453,1.878-5.968.01-2.595-3.199-5.643-6.547-8.232-8.931-1.683-1.421-2.751-3.546-2.751-5.921,0-1.27.306-2.469.847-3.526,1.283-2.505,3.891-4.22,6.899-4.22h.1c2.506.032,4.734,1.254,6.128,3.127,1.411-1.911,3.67-3.151,6.228-3.151Z"/><path class="cls-4" d="M57.436,44.048c-.027-.215-.067-.431-.119-.647-.63-2.576-2.93-4.306-5.464-4.306-.44,0-.888.052-1.334.161-.212.051-.401.174-.522.355-.098.145-.14.31-.14.466l.006.104c.043.369.316.702.723.81,2.044.543,3.853,1.82,5.055,3.602.215.319.557.49.895.49l.199-.02c.201-.041.402-.152.541-.342.115-.156.171-.346.17-.538l-.008-.134Z"/><path class="cls-3" d="M41.27,51.545c-4.039-2.867-10.024-9.195-4.266-15.102-1.898.656-3.469,2.014-4.375,3.781-.542,1.058-.847,2.256-.847,3.526,0,2.375,1.069,4.5,2.751,5.921,2.589,2.385,5.636,5.732,8.232,8.931,1.516,1.868,4.456,1.86,5.968-.01,1.561-1.93,3.276-3.889,4.976-5.679-4.04,2.559-8.727,1.266-12.439-1.368Z"/></svg>