<?xml version="1.0" encoding="UTF-8"?><svg id="Icons" xmlns="http://www.w3.org/2000/svg" viewBox="0 0 64 64"><defs><style>.cls-1{fill:#1ab9ff;}.cls-2{fill:#fff;}</style></defs><path class="cls-2" d="M54.038,55.84l-4.201-38.736c.002-.277-.015-.833-.173-1.35-.194-.635-.605-1.193-1.344-1.25,0,0-7.874,3.61-9.808,3.939l1.319,1.522,1.479,1.29-1.776,28.411c.247,3.686,6.925,10.193,6.925,10.193,0,0,.459.014,1.668-1.307.912-.996,1.719-1.631,2.473-1.871.764-.244,1.985.145,2.656.018.305-.058.84-.371.781-.859Z"/><path class="cls-1" d="M47.599,56.261s-.023-.536,0,0h0Z"/><path class="cls-1" d="M49.838,17.105c.002-.23-.015-.653-.11-1.086-.016-.09-.036-.177-.063-.261,0,0,0-.002,0-.003-.001-.004-.003-.007-.005-.011-.038-.117-.082-.231-.138-.335-.184-.387-.476-.691-.896-.823-.384-.169-.838-.228-1.327-.146-.224.037-.457.069-.684.103-1.683-5.379-6.005-9.567-10.635-10.384,3.554,2.161,6.334,5.95,7.723,10.761-.662.071-1.336.133-2.017.189-2.041-6.622-7.01-10.966-12.762-10.966-6.594,0-10.928,3.86-12.919,11.46l-2.412.786c-.901.165-1.562.845-1.632,1.828-.861,12.068-1.72,24.41-2.576,37.108-.094,1.398.913,2.376,2.273,2.238,9.356-.907,23.933-.339,33.298,2.33.551.16,1.07.136,1.504-.032,0,0,.492-.054,1.668-1.307.925-.984,1.719-1.631,2.473-1.871.19-.061.408-.082.64-.082.561,0,1.198.126,1.688.126.12,0,.23-.008.329-.026.305-.058.84-.37.781-.859l-4.201-38.736ZM26.097,15.022c.749-1.993,1.877-3.704,3.23-4.944-.134-.01-.268-.024-.403-.024-2.279,0-4.713.642-6.374,4.551-.58-.084-1.153-.173-1.709-.27-.111-.02-.214-.013-.321-.018,2.154-5.513,5.714-6.263,8.405-6.263,3.736,0,7.048,2.848,8.709,7.283-3.855.133-7.825.032-11.536-.315ZM51.24,54.599c-.466,0-.874.058-1.247.177-.786.251-1.565.736-2.395,1.485-.569-13.394-1.071-24.939-1.642-37.875-.009-.211-.054-.403-.113-.586.74-.321,1.425-.625,1.991-.879.002.056.003.112.003.168,0,.078.003.155.011.232l4.046,37.31c-.209-.018-.43-.031-.655-.031Z"/></svg>