<?xml version="1.0" encoding="UTF-8"?><svg id="Icons" xmlns="http://www.w3.org/2000/svg" viewBox="0 0 64 64"><defs><style>.cls-1{fill:#1ab9ff;}.cls-2{fill:#fff;}.cls-3{fill:#08abed;}.cls-4{fill:#05628a;}.cls-5{fill:#e4a201;}.cls-6{fill:#0d9dda;}.cls-7{fill:#fcc003;}</style></defs><path class="cls-4" d="M54.297,55.81c-3.549-17.597-3.668-26.54-4.239-39.477-.057-1.311-1.141-2.118-2.475-1.894-7.954,1.308-18.491,1.29-26.459-.104-.422-.075-.815-.039-1.167.073-.004.001-.008,0-.013.001l-6.424,2.094c-.217.071-.334.305-.261.52,0,0,3.365,27.206,2.755,36.247-.093,1.398.913,2.377,2.273,2.238,9.356-.907,29.893,2.382,33.279,2.53,1.567.069,3.037-.711,2.731-2.229Z"/><path class="cls-5" d="M23.754,19.106c-.121,0-.244-.011-.367-.035-1.062-.202-1.759-1.226-1.557-2.288,1.407-7.407,6.794-12.783,12.809-12.783,5.588,0,11.13,5.209,12.617,11.857.236,1.055-.428,2.1-1.483,2.336-1.051.238-2.1-.428-2.337-1.482-1.215-5.434-5.513-8.798-8.798-8.798-4.071,0-7.925,4.128-8.965,9.601-.179.938-.999,1.592-1.92,1.592Z"/><path class="cls-6" d="M54.322,55.84l-4.201-38.736c.002-.277-.015-.833-.173-1.35-.194-.635-.605-1.193-1.344-1.25,0,0-2.504,1.62-4.438,1.949l.807,1.64,1.24.694,1.652,37.036c.247,3.686-1.124,4.035-1.124,4.035,0,0,.459.014,1.668-1.307.912-.996,2.008-1.924,2.762-2.164,1.112-.354,2.076,1.557,2.596,1.059.423-.406.631-.786.553-1.607Z"/><path class="cls-7" d="M19.649,18.443l-3.844-.73c1.711-9.006,6.22-13.572,13.402-13.572,6.21,0,11.513,5.057,13.198,12.584l-3.819.855c-1.274-5.698-5.044-9.526-9.379-9.526-3.256,0-7.789,1.077-9.558,10.389Z"/><path class="cls-1" d="M12.244,18.215c-.861,12.068-1.72,24.41-2.576,37.108-.093,1.398.913,2.376,2.273,2.238,9.356-.907,23.933-.339,33.298,2.33,1.508.437,2.778-.482,2.712-2.029-.569-13.394-1.139-26.54-1.711-39.477-.058-1.311-1.141-2.118-2.475-1.894-7.955,1.308-21.02,1.29-28.988-.104-1.334-.237-2.442.539-2.533,1.828Z"/><path class="cls-3" d="M12.132,20.65l-.065.049c-.802,11.278-1.602,22.795-2.399,34.624-.094,1.398.913,2.376,2.273,2.238,9.356-.907,23.933-.338,33.298,2.33.125.036.248.06.369.078C27.849,54.765,12.625,42.405,12.132,20.65Z"/><path class="cls-2" d="M43.645,20.837c.04-.36-.124-.648-.349-.763-.175-.101-.406-.14-.642-.08-1.09.281-2.281.515-3.535.684-.502.068-.771.623-.389.954.25.216.532.394.837.524.576.275.965.429,1.359,1.045.311.486.404,1.319.468,1.94.088,1.073.389,2.032.841,2.755.362.578,1.06.218,1.055-.465-.008-1.299.033-2.678.13-4.105.058-.852.133-1.685.223-2.492Z"/></svg>