<?xml version="1.0" encoding="UTF-8"?><svg id="Icons" xmlns="http://www.w3.org/2000/svg" viewBox="0 0 64 64"><defs><style>.cls-1{fill:#001e5b;}.cls-2{fill:#fff;}</style></defs><path class="cls-2" d="M14.895,18.303c-2.265-.233-4.53-.465-6.748-.828-2.108-.342-4.065,1.259-4.065,3.394v36.209c0,1.416,1.15,2.567,2.566,2.567.15,0,.301-.014.445-.042,6.316-1.095,12.811-1.669,19.442-1.669s13.112.568,19.422,1.669c.157.028.315.042.479.042,1.519,0,2.751-1.232,2.751-2.751l.007-9.762v-26.296c0-1.944-1.615-3.435-3.49-3.435h-.007c-.192,0-.39.014-.582.048-6.043.999-12.25,1.526-18.58,1.526h-.37c-3.805-.014-7.555-.281-11.264-.664l-.007-.007Z"/><path class="cls-1" d="M45.704,19.399c.822,0,1.49.644,1.49,1.435v26.295l-.007,9.763c0,.414-.337.751-.751.751-.047,0-.089-.004-.135-.012-6.458-1.128-13.108-1.699-19.766-1.699-6.623,0-13.279.572-19.821,1.706-.007.001-.031.005-.066.005-.312,0-.566-.254-.566-.567V20.869c0-.794.67-1.441,1.495-1.441.083,0,.167.007.248.02,2.03.332,4.105.559,6.133.768l.006.007.732.076c4.332.448,7.975.662,11.47.674h.37c6.313,0,12.674-.522,18.931-1.557.035-.006.112-.017.23-.017h.007M45.704,17.399h-.007c-.192,0-.39.014-.582.048-6.043.999-12.25,1.526-18.58,1.526h-.37c-3.805-.014-7.555-.281-11.264-.664l-.007-.007c-2.265-.233-4.53-.465-6.748-.828-.192-.031-.383-.046-.571-.046-1.877,0-3.495,1.5-3.495,3.441v36.209c0,1.416,1.15,2.567,2.566,2.567.15,0,.301-.014.445-.042,6.316-1.095,12.811-1.669,19.442-1.669s13.112.568,19.422,1.669c.157.028.315.042.479.042,1.519,0,2.751-1.232,2.751-2.751l.007-9.762v-26.297c0-1.944-1.615-3.435-3.49-3.435h0Z"/><path class="cls-1" d="M56.51,6.328c.822,0,1.49.644,1.49,1.436v36.051c0,.414-.337.751-.751.751-.048,0-.092-.004-.133-.011-2.542-.447-5.099-.73-7.714-1.004l-2.208-.219v.015c-3.559-.322-6.795-.479-9.839-.479-6.623,0-13.279.572-19.8,1.702-.04.007-.064.009-.087.009-.312,0-.566-.254-.566-.566V7.798c0-.792.666-1.435,1.485-1.435.084,0,.169.007.257.022,6.244,1.022,12.362,1.518,18.704,1.518s12.674-.522,18.907-1.553c.085-.014.171-.021.255-.021h0M56.51,4.328c-.192,0-.386.016-.582.048-6.043.999-12.25,1.526-18.58,1.526s-12.4-.513-18.381-1.492c-.195-.032-.389-.048-.58-.048-1.874,0-3.485,1.498-3.485,3.435v36.216c0,1.417,1.15,2.566,2.566,2.566.15,0,.294-.014.445-.041,6.316-1.095,12.811-1.67,19.442-1.67,4.003,0,7.938.274,11.839.684v-.013c2.544.267,5.087.547,7.576.985.157.027.315.041.479.041,1.519,0,2.751-1.232,2.751-2.751V7.764c0-1.943-1.616-3.435-3.49-3.436h0Z"/><path class="cls-1" d="M45.656,17.399c-.192,0-.39.014-.582.048-6.043.999-12.25,1.526-18.58,1.526h-.37c-3.805-.014-7.555-.281-11.264-.664v25.704c0,1.417,1.15,2.566,2.566,2.566.151,0,.294-.014.445-.041,6.316-1.095,12.811-1.67,19.442-1.67,4.003,0,7.938.274,11.839.684v-24.719c0-1.944-1.615-3.435-3.49-3.435h-.007ZM40.982,33.126c-.342.342-.814.534-1.293.534h-6.98v6.98c0,.479-.198.951-.534,1.293-.342.342-.814.534-1.293.534s-.951-.198-1.293-.534c-.342-.342-.534-.814-.534-1.293v-6.98h-6.98c-.479,0-.951-.198-1.293-.534-.342-.335-.534-.814-.534-1.293s.198-.951.534-1.293c.342-.342.814-.534,1.293-.534h6.98v-6.98c0-.479.198-.951.534-1.293.342-.342.814-.534,1.293-.534s.951.198,1.293.534c.342.342.534.814.534,1.293v6.98h6.98c.479,0,.951.198,1.293.534.342.342.534.814.534,1.293s-.198.951-.534,1.293Z"/><path class="cls-2" d="M40.982,30.539c-.342-.342-.814-.534-1.293-.534h-6.98v-6.98c0-.479-.198-.951-.534-1.293-.342-.342-.814-.534-1.293-.534s-.951.198-1.293.534c-.342.342-.534.814-.534,1.293v6.98h-6.98c-.479,0-.951.198-1.293.534-.342.342-.534.814-.534,1.293s.198.951.534,1.293c.335.342.814.534,1.293.534h6.98v6.98c0,.479.198.951.534,1.293.342.342.814.534,1.293.534s.951-.198,1.293-.534c.342-.342.534-.814.534-1.293v-6.98h6.98c.479,0,.951-.198,1.293-.534.342-.342.534-.814.534-1.293s-.198-.951-.534-1.293Z"/></svg>