<?xml version="1.0" encoding="UTF-8"?><svg id="Icons" xmlns="http://www.w3.org/2000/svg" viewBox="0 0 64 64"><defs><style>.cls-1{fill:#d8e6fe;}.cls-2{fill:#aacbff;}.cls-3{fill:#001e5b;}.cls-4{fill:#fff;}.cls-5{fill:#57a3fd;}.cls-6{fill:#78b0fd;}.cls-7{fill:#9ac2ff;}</style></defs><path class="cls-5" d="M56.51,4.328c-.192,0-.39.014-.582.048-6.043.999-12.25,1.526-18.58,1.526s-12.4-.513-18.381-1.492c-.192-.034-.383-.048-.575-.048-1.875,0-3.49,1.499-3.49,3.435v10.505c3.709.383,7.459.65,11.264.664h.37c6.33,0,12.537-.52,18.58-1.526h.055c.178-.027.356-.041.527-.041h.014c1.861,0,3.463,1.492,3.476,3.415v24.732c2.546.267,5.092.547,7.583.985.157.027.315.041.479.041,1.519,0,2.751-1.232,2.751-2.751V7.764c0-1.937-1.615-3.435-3.49-3.435Z"/><path class="cls-7" d="M14.902,18.303c3.709.383,7.459.643,11.264.664-3.805-.014-7.555-.281-11.264-.664ZM45.697,17.4c-.171,0-.349.014-.527.041h-.055c.198-.034.39-.048.582-.048,1.875,0,3.49,1.499,3.49,3.435v-.021c-.014-1.93-1.615-3.408-3.476-3.415h-.014"/><path class="cls-3" d="M45.697,17.399c-.192,0-.39.014-.582.048-6.043.999-12.25,1.526-18.58,1.526h-.37c-3.805-.014-7.555-.281-11.264-.664v25.704c0,1.417,1.15,2.566,2.566,2.566.151,0,.294-.014.445-.041,6.316-1.095,12.811-1.67,19.442-1.67,4.003,0,7.938.274,11.839.684v-24.719c0-1.944-1.615-3.435-3.49-3.435h-.007ZM41.023,33.126c-.342.342-.814.534-1.293.534h-6.98v6.98c0,.479-.198.951-.534,1.293-.342.342-.814.534-1.293.534s-.951-.198-1.293-.534c-.342-.342-.534-.814-.534-1.293v-6.98h-6.98c-.479,0-.951-.198-1.293-.534-.342-.335-.534-.814-.534-1.293s.198-.951.534-1.293c.342-.342.814-.534,1.293-.534h6.98v-6.98c0-.479.198-.951.534-1.293.342-.342.814-.534,1.293-.534s.951.198,1.293.534c.342.342.534.814.534,1.293v6.98h6.98c.479,0,.951.198,1.293.534.342.342.534.814.534,1.293s-.198.951-.534,1.293Z"/><path class="cls-4" d="M55.579,8.989c-.068,0-.144,0-.219.021-1.163.185-2.368.349-3.607.486-2.067.233-4.072.383-5.954.459-.992.041-1.471,1.074-.602,1.56.89.506,2.012.849,3.257.985l.096.014c.226.021.452.041.684.048.91.055,2.135.13,2.867.554.924.534,1.17,1.088,1.608,1.902.212.438.486.835.814,1.184.157.164.342.24.527.24.404,0,.794-.363.835-.869.164-1.834.424-3.579.76-5.181.068-.335,0-.657-.144-.903-.151-.287-.493-.5-.924-.5Z"/><path class="cls-2" d="M7.572,17.434c-1.875,0-3.49,1.499-3.49,3.435v6.351c1.211,6.392,2.546,13.105,8.794,20.017,7.911,8.746,19.155,9.376,30.125,11.887.985.144,1.971.301,2.95.472.157.028.315.041.479.041,1.519,0,2.751-1.231,2.751-2.751v-11.34c-3.894-.411-7.836-.684-11.839-.684-6.631,0-13.126.575-19.442,1.67-.144.027-.294.041-.445.041-1.417,0-2.566-1.15-2.566-2.566v-25.704c-2.265-.233-4.53-.465-6.748-.828-.192-.034-.383-.048-.575-.048"/><path class="cls-6" d="M4.082,27.22v29.858c0,1.417,1.15,2.566,2.566,2.566.151,0,.301-.013.445-.041,6.316-1.095,12.811-1.67,19.442-1.67,5.598,0,11.1.41,16.479,1.197-10.977-2.511-22.221-3.141-30.125-11.887-6.262-6.912-7.589-13.632-8.808-20.024Z"/><path class="cls-1" d="M41.023,30.539c-.342-.342-.814-.534-1.293-.534h-6.98v-6.98c0-.479-.198-.951-.534-1.293-.342-.342-.814-.534-1.293-.534s-.951.198-1.293.534c-.342.342-.534.814-.534,1.293v6.98h-6.98c-.479,0-.951.198-1.293.534-.342.342-.534.814-.534,1.293s.198.951.534,1.293c.335.342.814.534,1.293.534h6.98v6.98c0,.479.198.951.534,1.293.342.342.814.534,1.293.534s.951-.198,1.293-.534c.342-.342.534-.814.534-1.293v-6.98h6.98c.479,0,.951-.198,1.293-.534.342-.342.534-.814.534-1.293s-.198-.951-.534-1.293Z"/></svg>