<?xml version="1.0" encoding="UTF-8"?><svg id="Icons" xmlns="http://www.w3.org/2000/svg" viewBox="0 0 64 64"><defs><style>.cls-1{fill:#001e5b;}</style></defs><path class="cls-1" d="M46.218,6c1.664,0,3.017,1.32,3.017,2.943v46.114c0,1.623-1.354,2.943-3.017,2.943-.143,0-.287-.01-.43-.03-1.748-.243-3.793-.435-6.079-.57-2.474-.147-5.22-.225-7.942-.225-5.19,0-10.006.268-13.56.755-.141.019-.284.029-.425.029-1.664,0-3.018-1.32-3.018-2.943V8.984c0-.787.315-1.525.886-2.079.575-.557,1.332-.864,2.131-.864.141,0,.284.01.425.029,3.554.487,8.37.755,13.56.755,5.348,0,10.328-.282,14.021-.795.143-.02.288-.03.43-.03M46.218,4c-.233,0-.468.016-.705.049-3.726.517-8.751.776-13.746.776-4.866,0-9.704-.245-13.289-.737-.234-.032-.467-.048-.696-.048-2.705,0-5.017,2.16-5.017,4.943v46.032c0,2.783,2.313,4.943,5.018,4.943.23,0,.462-.016.696-.048,3.584-.491,8.423-.737,13.289-.737,2.667,0,5.341.074,7.823.221,2.167.129,4.186.314,5.922.555.237.033.473.049.705.049,2.704,0,5.017-2.159,5.017-4.943V8.943c0-2.784-2.313-4.943-5.017-4.943h0Z"/><path class="cls-1" d="M41.89,12.615c.781,0,1.416.612,1.416,1.365v31.391c0,.753-.635,1.365-1.416,1.365-.068,0-.136-.005-.205-.014-1.02-.142-2.193-.259-3.486-.348l-.048-.003h-.048c-.024-.002-2.443-.052-5.385-.052-4.214,0-7.326.098-9.286.295l-.234.026c-.158.017-.316.035-.462.055-.068.009-.136.014-.202.014-.781,0-1.416-.612-1.416-1.365V14.007c0-.463.222-.776.409-.957.271-.263.629-.408,1.006-.408.067,0,.135.005.203.014,2.447.335,5.756.52,9.318.52,3.669,0,7.09-.194,9.632-.547.069-.01.137-.014.205-.014M41.89,10.615c-.158,0-.319.011-.48.033-2.536.352-5.957.528-9.357.528-3.313,0-6.606-.167-9.046-.501-.159-.022-.318-.032-.474-.032-1.841,0-3.416,1.47-3.416,3.365v31.336c0,1.895,1.574,3.365,3.416,3.365.156,0,.314-.011.474-.032.207-.028.442-.05.66-.076,2.25-.226,5.961-.281,9.051-.281,2.956,0,5.343.051,5.343.051,1.216.084,2.351.195,3.349.334.161.022.322.033.48.033,1.841,0,3.416-1.47,3.416-3.365V13.98c0-1.895-1.575-3.365-3.416-3.365h0Z"/><path class="cls-1" d="M37.561,27.242c-.116.013-.235.018-.352.03v-.659c0-2.76-2.238-4.998-4.998-4.998s-4.998,2.237-4.998,4.998v.66c-.117-.012-.236-.017-.353-.03-1.154-.13-2.192.752-2.192,1.913v9.301c0,1.161,1.039,2.044,2.193,1.913,1.758-.199,3.545-.301,5.355-.301s3.591.102,5.345.3c1.153.13,2.192-.752,2.192-1.913v-9.301c0-1.161-1.039-2.044-2.193-1.913ZM30.214,26.614c0-1.102.896-1.998,1.998-1.998s1.998.896,1.998,1.998v.873c-.666.028-1.331.056-2.004.056-.668,0-1.33-.028-1.991-.056v-.874Z"/><circle class="cls-1" cx="32" cy="52.758" r="2.855"/></svg>