<?xml version="1.0" encoding="UTF-8"?><svg id="Icons" xmlns="http://www.w3.org/2000/svg" viewBox="0 0 64 64"><defs><style>.cls-1{fill:#001e5b;}.cls-2{fill:#95caef;}.cls-3{fill:#fff;}.cls-4{fill:#05628a;}.cls-5{fill:#0d9dda;}</style></defs><path class="cls-5" d="M29.196,49.633c1.484,0,2.715.618,2.939,1.42.638,2.284,1.831,4.468,3.501,6.51.907,1.109-.502,2.438-2.725,2.438h-13.025c-2.222,0-3.631-1.327-2.726-2.437,1.668-2.042,2.858-4.226,3.494-6.51.223-.802,1.455-1.42,2.939-1.42h5.602Z"/><path class="cls-1" d="M32.135,51.053c-.224-.802-1.455-1.42-2.939-1.42h-5.564c-1.485,0-2.629.139-2.853.941-.043.155-.231.856-.297,1.053-.403,1.21-.864,2.241-1.509,3.342.002,0-.002,0,0,0,3.419-.842,9.239-1.383,14.051-1.516-.365-.787-.662-1.587-.89-2.401Z"/><path class="cls-5" d="M48.752,49.001c0,2.12-1.943,3.705-4.034,3.36-5.961-.983-12.08-1.494-18.32-1.494s-12.359.511-18.32,1.494c-2.092.345-4.034-1.24-4.034-3.36v-26.764c0-2.12,1.943-3.705,4.034-3.36,5.961.983,12.08,1.494,18.32,1.494s12.359-.511,18.32-1.494c2.092-.345,4.034,1.24,4.034,3.36v26.764Z"/><path class="cls-2" d="M42.069,42.665c0,1.358-1.201,2.4-2.549,2.243-4.296-.502-8.667-.759-13.098-.759s-8.802.258-13.098.759c-1.349.157-2.549-.885-2.549-2.243v-14.096c0-1.358,1.201-2.401,2.549-2.243,4.296.501,8.667.759,13.098.759s8.802-.258,13.098-.759c1.349-.157,2.549.885,2.549,2.243v14.096Z"/><path class="cls-4" d="M58.13,18.607h-2.334c-.343-1.327-.871-2.58-1.55-3.733l1.653-1.653c.713-.713.713-1.869,0-2.582l-2.582-2.582c-.713-.713-1.869-.713-2.582,0l-1.641,1.641c-1.156-.688-2.413-1.221-3.745-1.57v-2.302c0-1.008-.817-1.826-1.826-1.826h-3.652c-1.008,0-1.826.817-1.826,1.826v2.278c-1.344.342-2.612.874-3.779,1.56l-1.607-1.607c-.713-.713-1.869-.713-2.582,0l-2.582,2.582c-.713.713-.713,1.869,0,2.582l1.595,1.595c-.696,1.169-1.235,2.442-1.583,3.791h-2.243c-1.008,0-1.826.817-1.826,1.826v3.652c0,1.008.817,1.826,1.826,1.826h2.243c.349,1.349.888,2.622,1.583,3.791l-1.595,1.595c-.713.713-.713,1.869,0,2.582l2.582,2.582c.713.713,1.869.713,2.582,0l1.607-1.607c1.167.687,2.435,1.21,3.779,1.552v2.286c0,1.008.818,1.826,1.826,1.826h3.652c1.008,0,1.826-.817,1.826-1.826v-2.302c1.332-.349,2.59-.883,3.746-1.57l1.641,1.641c.713.713,1.869.713,2.582,0l2.582-2.582c.713-.713.713-1.869,0-2.582l-1.653-1.653c.679-1.154,1.207-2.406,1.55-3.733h2.334c1.009,0,1.826-.817,1.826-1.826v-3.652c0-1.008-.817-1.826-1.826-1.826ZM41.651,25.911c-2.014,0-3.652-1.639-3.652-3.652s1.638-3.652,3.652-3.652,3.652,1.639,3.652,3.652-1.638,3.652-3.652,3.652Z"/><path class="cls-3" d="M41.863,10.676c4.213-1.19,8.597,1.273,9.792,5.503.085.302.152.605.201.908.13.806-.877,1.022-1.357.362-2.069-2.845-5.101-4.826-8.477-5.595-.656-.149-.807-.995-.16-1.177Z"/><path class="cls-1" d="M35.858,33.264c1.242.761,2.607,1.342,4.058,1.705v1.898c0,1.008.817,1.826,1.826,1.826h3.467c.047,0,.093.004.139.01-.006,1.004-.821,1.816-1.826,1.816h-3.652c-1.008,0-1.826-.817-1.826-1.826v-2.286c-1.34-.345-2.617-.865-3.779-1.552l1.592-1.591ZM25.218,22.259c0,1.008.817,1.826,1.826,1.826h2.197c.47,2.044,1.369,3.924,2.597,5.541l-1.103,1.103c-.713.713-.713,1.869,0,2.582l2.537,2.537-.613.613c-.713.713-1.869.713-2.582,0l-2.582-2.582c-.713-.713-.713-1.869,0-2.582l1.595-1.595c-.687-1.162-1.238-2.451-1.583-3.791h-2.243c-1.008,0-1.826-.817-1.826-1.826v-3.652c0-.993.793-1.801,1.78-1.825v3.651Z"/><path class="cls-3" d="M41.697,18.454c-2.098,0-3.805,1.707-3.805,3.805s1.707,3.805,3.805,3.805,3.805-1.707,3.805-3.805-1.707-3.805-3.805-3.805Z"/><path class="cls-1" d="M41.651,14.955c-4.027,0-7.304,3.276-7.304,7.304s3.276,7.304,7.304,7.304,7.304-3.276,7.304-7.304-3.276-7.304-7.304-7.304ZM41.651,25.911c-2.014,0-3.652-1.639-3.652-3.652s1.638-3.652,3.652-3.652,3.652,1.639,3.652,3.652-1.638,3.652-3.652,3.652Z"/></svg>