<?xml version="1.0" encoding="UTF-8"?><svg id="Icons" xmlns="http://www.w3.org/2000/svg" viewBox="0 0 64 64"><defs><style>.cls-1{fill:#002e47;}</style></defs><path class="cls-1" d="M46.752,35.936v13.064c0,.776-.655,1.408-1.459,1.408-.083,0-.166-.007-.249-.021-6.121-1.009-12.394-1.521-18.645-1.521s-12.525.512-18.645,1.521c-.083.014-.167.021-.249.021-.805,0-1.459-.631-1.459-1.408v-26.764c0-.776.655-1.408,1.459-1.408.083,0,.166.007.249.021,5.154.85,10.417,1.325,15.685,1.46v-1.877c0-.042.009-.082.012-.123-5.219-.135-10.354-.607-15.371-1.434-.193-.032-.385-.047-.575-.047-1.859,0-3.459,1.484-3.459,3.408v26.764c0,1.924,1.6,3.408,3.459,3.408.189,0,.381-.015.575-.047,4.121-.679,8.323-1.117,12.583-1.332-.002.007-.005.018-.007.025-.636,2.284-1.826,4.468-3.494,6.51-.906,1.109.504,2.437,2.726,2.437h13.025c2.223,0,3.632-1.328,2.725-2.438-1.67-2.042-2.863-4.226-3.501-6.51-.002-.007-.004-.017-.006-.025,4.262.216,8.466.653,12.589,1.333.193.032.385.047.575.047,1.859,0,3.459-1.484,3.459-3.408v-13.992c-.639.357-1.307.668-2,.927ZM33.411,57.962c-.144.023-.311.038-.501.038h-13.025c-.19,0-.357-.015-.501-.038,1.51-2.033,2.583-4.172,3.196-6.372l.037-.134c.052-.19.102-.357.15-.515,1.207-.039,2.414-.074,3.63-.074,1.226,0,2.443.036,3.659.075.06.275.11.501.152.649.615,2.2,1.69,4.339,3.202,6.371Z"/><path class="cls-1" d="M43.348,6v2.127c0,.909.614,1.704,1.493,1.935,1.129.296,2.216.751,3.229,1.354.318.189.671.281,1.022.281.517,0,1.03-.2,1.415-.586l1.517-1.518,2.336,2.336-1.53,1.53c-.645.644-.771,1.643-.309,2.429.598,1.016,1.048,2.099,1.337,3.219.228.883,1.025,1.5,1.937,1.5h2.16v3.304h-2.16c-.912,0-1.708.617-1.937,1.5-.289,1.12-.739,2.203-1.337,3.219-.462.785-.335,1.784.309,2.429l1.53,1.53-2.336,2.336-1.517-1.518c-.385-.386-.898-.586-1.415-.586-.351,0-.704.092-1.021.281-1.014.603-2.101,1.059-3.23,1.354-.88.23-1.493,1.025-1.493,1.935v2.127h-3.304v-2.112c0-.914-.62-1.712-1.506-1.938-.778-.198-1.553-.48-2.307-.84-.377-.179-.679-.337-.948-.496-.317-.187-.668-.278-1.017-.278-.517,0-1.03.2-1.415.586l-1.229,1.229-.256.256-2.336-2.336,1.472-1.472c.647-.647.772-1.65.305-2.436-.612-1.029-1.071-2.129-1.365-3.269-.228-.883-1.025-1.5-1.937-1.5h-2.069l-.002-3.304h2.071c.912,0,1.708-.617,1.937-1.5.294-1.141.754-2.241,1.366-3.269.468-.786.342-1.79-.305-2.437l-1.472-1.472,2.336-2.336,1.484,1.484c.385.385.897.586,1.415.586.348,0,.698-.091,1.014-.276,1.025-.604,2.122-1.056,3.258-1.346.886-.226,1.506-1.024,1.506-1.938v-2.104h3.304M43.522,4h-3.652c-1.008,0-1.826.818-1.826,1.826v2.278c-1.344.342-2.612.874-3.779,1.56l-1.607-1.607c-.356-.357-.824-.535-1.291-.535s-.934.178-1.291.535l-2.582,2.582c-.713.713-.713,1.869,0,2.582l1.595,1.595c-.696,1.169-1.235,2.442-1.583,3.791h-2.243c-.016,0-.03.004-.046.005v-.004c-.058.001-.113.014-.17.021-.057.007-.115.009-.171.021-.062.013-.121.036-.181.056-.053.017-.107.031-.158.052-.058.025-.11.059-.164.089-.047.027-.097.049-.142.08-.052.036-.098.08-.146.121-.04.034-.083.065-.12.102-.045.046-.083.099-.123.149-.032.04-.068.077-.097.12-.038.056-.065.118-.096.178-.023.044-.051.085-.07.131-.03.071-.048.146-.069.221-.011.04-.028.078-.036.119-.024.118-.037.24-.037.365v3.652c0,1.008.818,1.826,1.826,1.826h2.243c.348,1.349.888,2.622,1.583,3.791l-1.595,1.595c-.713.713-.713,1.869,0,2.582l2.582,2.582c.178.178.384.312.604.401s.453.134.687.134h0c.467,0,.935-.178,1.291-.535l.379-.379,1.229-1.229c.358.211.729.401,1.107.581.85.405,1.741.734,2.671.971v2.286c0,.334.096.643.253.912.08.137.17.268.282.379.33.33.787.535,1.291.535h3.652c.126,0,.249-.013.367-.037.039-.008.074-.024.112-.034.078-.021.157-.041.231-.072.038-.016.072-.04.109-.059.068-.034.138-.067.201-.109.04-.027.073-.061.111-.091.054-.043.11-.082.159-.131.04-.039.071-.086.107-.129.039-.047.082-.09.116-.141.033-.049.057-.104.085-.156.028-.051.06-.099.083-.153.024-.056.037-.118.056-.177.017-.055.039-.108.051-.165.013-.063.014-.129.021-.194.006-.056.018-.111.018-.169,0,0,0,0,0,0,0-.004,0-.007,0-.01v-2.301c1.332-.349,2.589-.883,3.745-1.57l1.641,1.641c.357.357.824.535,1.291.535s.935-.178,1.291-.535l2.582-2.582c.713-.713.713-1.869,0-2.582l-1.653-1.653c.679-1.154,1.207-2.406,1.55-3.733h2.334c1.008,0,1.826-.818,1.826-1.826v-3.652c0-1.008-.818-1.826-1.826-1.826h-2.334c-.343-1.327-.871-2.58-1.55-3.733l1.653-1.653c.713-.713.713-1.869,0-2.582l-2.582-2.582c-.356-.357-.824-.535-1.291-.535s-.935.178-1.291.535l-1.641,1.641c-1.156-.688-2.413-1.221-3.745-1.57v-2.301c0-1.008-.818-1.826-1.826-1.826h0Z"/><path class="cls-1" d="M41.651,13.955c-4.579,0-8.304,3.725-8.304,8.304s3.725,8.304,8.304,8.304,8.303-3.725,8.303-8.304-3.725-8.304-8.303-8.304ZM41.651,28.563c-3.476,0-6.304-2.828-6.304-6.304s2.828-6.304,6.304-6.304,6.303,2.828,6.303,6.304-2.827,6.304-6.303,6.304Z"/><path class="cls-1" d="M41.697,18.454c-2.098,0-3.805,1.707-3.805,3.805s1.707,3.805,3.805,3.805,3.805-1.707,3.805-3.805-1.707-3.805-3.805-3.805Z"/><path class="cls-1" d="M40.069,40.518v2.147c0,.153-.141.257-.312.257-.002,0-.004,0-.006,0-4.393-.513-8.878-.773-13.33-.773s-8.938.26-13.368.775c-.135,0-.28-.104-.28-.259v-14.096c0-.153.141-.257.312-.257.002,0,.004,0,.005,0,4.393.513,8.878.773,13.33.773.77,0,1.541-.018,2.311-.034-.337-.637-.63-1.3-.871-1.987-.48.006-.959.021-1.441.021-4.431,0-8.802-.258-13.098-.759-.091-.011-.181-.016-.27-.016-1.235,0-2.28.992-2.28,2.259v14.096c0,1.267,1.044,2.259,2.28,2.259.089,0,.179-.005.27-.016,4.296-.502,8.667-.759,13.098-.759s8.802.258,13.098.759c.091.011.181.016.27.016,1.235,0,2.28-.992,2.28-2.259v-2.147h-2Z"/></svg>