<?xml version="1.0" encoding="UTF-8"?><svg id="Icons" xmlns="http://www.w3.org/2000/svg" viewBox="0 0 64 64"><defs><style>.cls-1{fill:#0d9dda;}</style></defs><path class="cls-1" d="M48.725,37.281c-.451.213-.91.406-1.377.577v.583s0,.211,0,.211v.171s-.006.046-.006.046c-.005.073-.013.145-.022.213-.01.132-.025.262-.052.394-.026.122-.061.239-.1.353-.035.124-.075.246-.126.366-.049.114-.106.222-.164.32-.057.112-.118.221-.19.327-.07.103-.148.199-.229.291-.073.093-.149.183-.235.269-.091.091-.19.174-.308.266-.081.07-.165.137-.255.198-.115.078-.238.146-.382.219-.085.049-.173.094-.271.135-.134.056-.273.101-.432.145-.093.031-.187.057-.285.077-.252.051-.51.078-.767.078h-1.454v.147c0,1.358-1.2,2.401-2.549,2.243-4.296-.501-8.667-.759-13.098-.759s-8.802.258-13.098.759c-1.349.158-2.549-.885-2.549-2.243v-14.096c0-1.358,1.201-2.401,2.549-2.243,3.137.366,6.314.599,9.524.7-.853-.702-1.409-1.753-1.409-2.941v-3.652c0-.058.015-.117.018-.176-4.534-.197-8.999-.659-13.377-1.381-2.092-.345-4.034,1.24-4.034,3.36v26.764c0,2.12,1.943,3.705,4.034,3.36,4.123-.68,8.325-1.117,12.587-1.333-.003.009-.009.017-.011.025-.636,2.284-1.826,4.468-3.494,6.51-.906,1.109.504,2.437,2.726,2.437h13.025c2.223,0,3.632-1.328,2.725-2.438-1.67-2.042-2.863-4.226-3.501-6.51-.002-.009-.009-.016-.011-.025,4.264.215,8.469.653,12.594,1.333,2.092.345,4.034-1.24,4.034-3.36v-11.693l-.027-.027Z"/><path class="cls-1" d="M41.651,18.607c-2.014,0-3.652,1.639-3.652,3.652s1.638,3.652,3.652,3.652,3.652-1.639,3.652-3.652-1.638-3.652-3.652-3.652Z"/><path class="cls-1" d="M58.13,18.607h-2.334c-.343-1.327-.871-2.58-1.55-3.733l1.652-1.653c.713-.713.713-1.869,0-2.582l-2.582-2.582c-.713-.713-1.869-.713-2.582,0l-1.641,1.641c-1.156-.688-2.414-1.221-3.746-1.57v-2.301c0-1.008-.817-1.826-1.826-1.826h-3.652c-1.008,0-1.826.818-1.826,1.826v2.278c-1.344.342-2.612.874-3.779,1.56l-1.607-1.607c-.713-.713-1.869-.713-2.582,0l-2.582,2.582c-.713.713-.713,1.869,0,2.582l1.595,1.595c-.696,1.169-1.235,2.442-1.583,3.791h-2.242c-.016,0-.03.004-.046.005v-.004c-.058.001-.113.014-.17.021-.057.007-.115.009-.171.021-.062.013-.121.036-.18.056-.053.017-.108.031-.158.052-.058.025-.11.059-.164.089-.047.027-.097.049-.142.08-.052.036-.098.08-.146.121-.04.034-.083.065-.12.102-.045.046-.083.099-.123.149-.032.04-.068.077-.097.12-.038.056-.065.118-.096.178-.023.044-.051.085-.07.131-.03.071-.048.146-.069.221-.011.04-.028.078-.036.119-.024.118-.037.24-.037.365v3.652c0,1.008.818,1.826,1.826,1.826h2.242c.348,1.349.888,2.622,1.583,3.791l-1.595,1.595c-.713.713-.713,1.869,0,2.582l2.582,2.582c.178.178.384.312.604.401.22.089.454.134.687.134.467,0,.935-.178,1.291-.535l.379-.379,1.229-1.229c.358.211.729.401,1.107.581.85.405,1.741.734,2.671.971v2.286c0,.334.096.643.253.912.08.137.17.268.282.379.33.33.787.535,1.291.535h3.652c.125,0,.249-.013.367-.037.039-.008.074-.024.112-.034.078-.021.157-.041.231-.072.038-.016.072-.04.109-.059.068-.034.138-.067.201-.109.04-.027.073-.061.111-.091.054-.043.11-.082.159-.131.039-.039.071-.086.106-.129.039-.047.082-.09.116-.141.033-.049.057-.104.085-.156.028-.051.06-.099.083-.153.024-.056.038-.118.056-.177.017-.055.04-.108.051-.165.013-.063.014-.129.021-.194.006-.056.018-.111.018-.169,0,0,0,0,0,0,0-.004,0-.007,0-.01v-2.301c1.332-.349,2.589-.883,3.746-1.57l1.641,1.641c.713.713,1.869.713,2.582,0l2.583-2.582c.713-.713.713-1.869,0-2.582l-1.653-1.653c.679-1.154,1.207-2.406,1.55-3.733h2.334c1.009,0,1.826-.818,1.826-1.826v-3.652c0-1.008-.817-1.826-1.826-1.826ZM41.651,29.563c-4.027,0-7.303-3.277-7.303-7.304s3.276-7.304,7.303-7.304,7.303,3.276,7.303,7.304-3.276,7.304-7.303,7.304Z"/></svg>