<?xml version="1.0" encoding="UTF-8"?><svg id="Icons" xmlns="http://www.w3.org/2000/svg" viewBox="0 0 64 64"><defs><style>.cls-1{fill:#1b96ff;}.cls-2{fill:#0b5cab;}.cls-3{fill:#fff;}</style></defs><path class="cls-1" d="M56.817,47.455c-.238-.009-.482.001-.728.034-.859.113-1.74.219-2.631.32v-23.944c.917.083,1.801.169,2.497.262.245.032.487.043.724.034,1.659-.065,1.969-1.105,1.969-2.438v-3.159c0-.745-.423-1.426-1.091-1.757l-24.485-12.106c-.547-.271-1.19-.271-1.737,0L6.851,16.805c-.668.33-1.091,1.011-1.091,1.757v3.159c0,1.524.737,2.664,2.693,2.405.816-.108,1.653-.208,2.497-.305v23.987c-.891-.101-1.771-.206-2.631-.32-.12-.016-.239-.026-.357-.032,0,.005,0,.01,0,.016-1.826-.086-2.352.99-2.352,2.421v5.166c0,1.524.741,2.664,2.708,2.405,7.407-.977,16.112-1.486,23.885-1.486,3.735,0,7.432.124,11.089.355.307.019.613.04.918.061,1.656.113,3.305.246,4.943.405.24.023.479.05.718.074,1.719.174,4.519.367,6.217.59.246.032.49.043.728.034,1.669-.065,1.98-1.105,1.98-2.438v-5.166c0-1.334-.312-2.373-1.98-2.438ZM18.609,23.126c3.254-.227,6.551-.375,9.766-.441v26.245c-3.214-.065-6.511-.212-9.766-.437v-25.367ZM36.034,48.93v-26.227c2.414.055,4.817.141,7.198.292.305.019.609.04.913.061.555.038,1.103.094,1.655.137v25.301c-3.254.224-6.552.371-9.766.437Z"/><path class="cls-3" d="M42.238,13.001c-.707-.759.145-1.677,1.059-1.187,3.122,1.678,6.311,3.232,9.56,4.66.957.42.749,1.667-.292,1.569-3.95-.371-7.417-2.59-10.327-5.042Z"/><path class="cls-2" d="M58.38,54.497c-.248-.005-.503,0-.759.017-7.723.487-17.247.74-25.35.74s-17.664-.254-25.386-.74c-.125-.008-.371-.011-.371-.008-1.904-.043-1.969.493-1.969,1.206v2.574c0,.759.289,1.328,2.341,1.198,7.723-.487,17.282-.74,25.386-.74,3.894,0,7.749.062,11.562.177.319.01.639.02.957.03,1.727.056,3.446.123,5.153.202.25.012.499.025.749.037,1.792.087,5.159.183,6.929.294.257.016.511.021.759.017,1.74-.032,1.618-.551,1.618-1.215v-2.574c0-.665.122-1.183-1.618-1.215Z"/><path class="cls-2" d="M55.453,21.492c-4.503-.273-9.005-.547-13.508-.82-1.993-.121-3.985-.242-5.978-.363-3.062-.186-6.027-.091-9.09.095-4.392.267-8.783.533-13.175.8-2.647.161-5.295.322-7.942.482v.036c0,1.523.737,2.662,2.693,2.403.812-.108,1.645-.207,2.485-.304v6.243c2.332-1.021,4.931-1.825,7.659-2.461v-2.572h.012v-1.905c3.249-.226,6.543-.375,9.753-.441v3.341c2.606-.268,5.191-.434,7.659-.526v-.469h.012v-2.328c2.414.055,4.817.141,7.198.292.305.019.609.04.913.061.551.038,1.094.093,1.643.136v2.277c4.616.132,7.659.422,7.659.422v-.858h.012v-1.167c.917.083,1.801.169,2.497.262.245.032.487.043.724.034,1.659-.065,1.969-1.105,1.969-2.438v-.034l-3.196-.194Z"/></svg>