<?xml version="1.0" encoding="UTF-8"?><svg id="Icons" xmlns="http://www.w3.org/2000/svg" viewBox="0 0 64 64"><defs><style>.cls-1{fill:#001e5b;}.cls-2{fill:#fff;}.cls-3{fill:#009bdc;}.cls-4{fill:#05628a;}</style></defs><path class="cls-3" d="M7.184,59.912c.185,0,.369-.016.551-.048,7.841-1.363,15.906-2.073,24.137-2.073s16.282.709,24.117,2.07c.196.034.394.051.592.051,1.888,0,3.419-1.531,3.419-3.419V8.356c0-2.657-2.436-4.643-5.057-4.208-7.505,1.244-15.212,1.892-23.071,1.892-7.772,0-15.396-.633-22.823-1.851-2.619-.429-5.049,1.556-5.049,4.21v48.33c0,1.758,1.425,3.184,3.184,3.184Z"/><path class="cls-2" d="M54.388,8.833c.59-.093,1.074.164,1.266.532.165.272.237.628.158,1.001-.372,1.772-.661,3.703-.843,5.731-.073.812-.945,1.285-1.506.694-.366-.385-.672-.826-.903-1.307-.483-.905-.759-1.52-1.779-2.108-.81-.468-2.169-.555-3.175-.613-.256-.01-.508-.027-.756-.052-.038-.004-.074-.007-.108-.011-1.378-.151-2.617-.531-3.605-1.089-.956-.54-.427-1.687.67-1.73,2.088-.081,4.303-.248,6.59-.507,1.366-.155,2.7-.336,3.99-.54Z"/><path class="cls-4" d="M15.027,44.48C7.085,35.698,5.539,27.172,4,19.073v37.655c0,1.758,1.426,3.184,3.184,3.184.185,0,.369-.016.551-.048,7.841-1.363,15.906-2.073,24.137-2.073,7.199,0,14.272.544,21.178,1.592-13.822-3.24-28.055-3.881-38.023-14.903Z"/><path class="cls-1" d="M22.123,43.61c-.538,0-1.079-.173-1.536-.528l-10.01-7.808c-.607-.475-.962-1.201-.962-1.972s.355-1.497.962-1.972l10.01-7.808c1.09-.848,2.661-.654,3.509.435.849,1.088.655,2.659-.434,3.509l-7.482,5.836,7.482,5.836c1.089.85,1.283,2.421.434,3.509-.493.633-1.229.963-1.973.963Z"/><path class="cls-1" d="M41.876,43.61c-.744,0-1.48-.33-1.973-.963-.849-1.088-.655-2.659.434-3.509l7.482-5.836-7.482-5.836c-1.089-.85-1.283-2.421-.434-3.509.85-1.09,2.42-1.281,3.509-.435l10.01,7.808c.607.475.962,1.201.962,1.972s-.355,1.497-.962,1.972l-10.01,7.808c-.457.355-.999.528-1.536.528Z"/><path class="cls-1" d="M28.491,46.546c-.251,0-.506-.038-.758-.119-1.316-.418-2.043-1.824-1.625-3.14l6.836-21.484c.418-1.315,1.824-2.048,3.14-1.624,1.316.418,2.043,1.824,1.625,3.14l-6.836,21.484c-.338,1.063-1.322,1.743-2.382,1.743Z"/></svg>