<?xml version="1.0" encoding="UTF-8"?><svg id="Icons" xmlns="http://www.w3.org/2000/svg" viewBox="0 0 64 64"><defs><style>.cls-1{fill:#0d9dda;}</style></defs><path class="cls-1" d="M54.943,4.148c-7.505,1.244-15.212,1.892-23.071,1.892-7.772,0-15.396-.633-22.823-1.851-2.619-.429-5.049,1.556-5.049,4.21v48.33c0,1.758,1.425,3.184,3.184,3.184.185,0,.369-.016.551-.048,7.841-1.363,15.906-2.073,24.137-2.073s16.282.709,24.117,2.07c.196.034.394.051.592.051,1.888,0,3.419-1.531,3.419-3.419V8.356c0-2.657-2.436-4.643-5.057-4.208ZM23.663,39.138c1.089.85,1.283,2.421.434,3.509-.493.633-1.229.963-1.973.963-.538,0-1.079-.173-1.536-.528l-10.01-7.808c-.607-.475-.962-1.201-.962-1.972s.355-1.497.962-1.972l10.01-7.808c1.09-.848,2.661-.654,3.509.435.849,1.088.655,2.659-.434,3.509l-7.482,5.836,7.482,5.836ZM37.709,23.318l-6.836,21.484c-.338,1.063-1.322,1.743-2.382,1.743-.251,0-.506-.038-.758-.119-1.316-.418-2.043-1.824-1.625-3.14l6.836-21.484c.418-1.315,1.824-2.048,3.14-1.624,1.316.418,2.043,1.824,1.625,3.14ZM53.422,35.274l-10.01,7.808c-.457.355-.999.528-1.536.528-.744,0-1.48-.33-1.973-.963-.849-1.088-.655-2.659.434-3.509l7.482-5.836-7.482-5.836c-1.089-.85-1.283-2.421-.434-3.509.85-1.09,2.42-1.281,3.509-.435l10.01,7.808c.607.475.962,1.201.962,1.972s-.355,1.497-.962,1.972Z"/></svg>