<?xml version="1.0" encoding="UTF-8"?><svg id="Icons" xmlns="http://www.w3.org/2000/svg" viewBox="0 0 64 64"><defs><style>.cls-1{fill:#001e5b;}</style></defs><path class="cls-1" d="M58.944,47.107c-4.837-5.281-9.383-10.83-13.645-16.602,2.853.503,5.653,1.159,8.386,1.972.261.078.529.116.794.116.709,0,1.402-.272,1.917-.787,1.106-1.106,1.028-2.92-.151-3.948-7.973-6.95-15.339-14.579-22.009-22.796-.574-.708-1.405-1.061-2.235-1.061s-1.661.354-2.235,1.061c-6.679,8.228-14.056,15.867-22.042,22.825-1.183,1.031-1.261,2.85-.152,3.959.517.517,1.212.79,1.923.79.268,0,.538-.039.802-.118,2.586-.775,5.231-1.415,7.926-1.912-2.131,3.14-4.322,6.236-6.619,9.249-1.443,1.701-2.905,3.386-4.402,5.038-.706.779-1.418,1.554-2.136,2.322-1.156,1.238-1.14,3.172.058,4.37.6.6,1.407.916,2.232.916.308,0,.618-.044.921-.133,5.453-1.612,11.141-2.674,16.995-3.144-.715,2.616-1.636,5.146-2.788,7.549-.7,1.461.323,3.228,1.944,3.228h15.102c1.621,0,2.645-1.768,1.943-3.23-1.155-2.407-2.079-4.943-2.796-7.564,5.853.457,11.54,1.508,16.993,3.106.305.089.618.133.927.133.838,0,1.656-.321,2.265-.93,1.206-1.206,1.232-3.151.08-4.409ZM39.671,57.636c.061.128.005.241-.022.283-.051.081-.093.081-.119.081h-15.102c-.025,0-.068,0-.119-.081-.027-.043-.083-.156-.022-.283,1.326-2.766,2.345-5.626,3.1-8.552,1.549-.085,3.106-.142,4.677-.142,1.51,0,3.008.053,4.498.132.758,2.93,1.779,5.793,3.108,8.562ZM57.449,50.102c-.222.222-.524.344-.851.344-.123,0-.246-.018-.365-.053-7.816-2.29-15.948-3.452-24.168-3.452-8.286,0-16.48,1.18-24.355,3.507-.116.034-.235.052-.354.052-.314,0-.605-.117-.818-.33-.434-.434-.439-1.132-.011-1.59.725-.776,1.444-1.558,2.157-2.345,1.377-1.52,2.83-3.184,4.445-5.088.022-.026.044-.053.065-.081,2.125-2.788,4.311-5.843,6.683-9.338.453-.667.46-1.541.019-2.217-.374-.572-1.007-.906-1.674-.906-.12,0-.242.011-.364.033-2.737.505-5.474,1.166-8.136,1.963-.075.022-.151.034-.228.034-.196,0-.377-.072-.508-.204-.174-.174-.204-.374-.2-.511.004-.118.042-.344.251-.526,8.053-7.017,15.55-14.78,22.281-23.072.227-.28.525-.322.682-.322s.455.042.683.322c6.721,8.28,14.206,16.033,22.247,23.043.207.18.244.403.248.52.005.136-.026.334-.197.506-.13.13-.309.202-.503.202-.075,0-.151-.011-.224-.033-2.772-.825-5.669-1.506-8.609-2.024-.116-.021-.233-.031-.348-.031-.684,0-1.331.352-1.7.947-.431.695-.395,1.583.091,2.241,4.348,5.889,8.984,11.53,13.779,16.765.436.476.427,1.198-.019,1.644Z"/></svg>