<?xml version="1.0" encoding="UTF-8"?><svg xmlns="http://www.w3.org/2000/svg" viewBox="0 0 64 64"><defs><style>.cls-1{fill:#fff;}</style></defs><g id="Background"><rect x="0" width="64" height="64"/></g><g id="Icons"><path class="cls-1" d="M59.197,29.255c.032-.896-.418-1.809-1.371-2.189-4.152-1.657-8.234-3.537-12.242-5.608l3.221-4.778.489.298c.55.334,1.178.511,1.816.511,1.233,0,2.353-.629,2.993-1.682,1.003-1.648.478-3.806-1.17-4.81h0l-6.687-4.069c-1.646-1.002-3.804-.479-4.81,1.171-.485.799-.632,1.738-.411,2.646.222.909.783,1.677,1.581,2.163l.212.129-3.396,5.037c-1.966-1.143-3.916-2.324-5.835-3.572-.723-.47-1.551-.705-2.379-.705s-1.656.235-2.379.705c-7.735,5.029-15.857,9.217-24.237,12.563-.953.381-1.404,1.294-1.371,2.19h-.012v10.328h.012c.03.833.476,1.65,1.36,2.009,8.382,3.399,16.501,7.642,24.228,12.731.728.479,1.564.719,2.4.719s1.672-.24,2.4-.719c7.726-5.088,15.845-9.331,24.227-12.73.884-.359,1.33-1.177,1.36-2.009h.012v-10.328h-.012ZM57.084,28.923c.083.033.125.115.125.244,0,.129-.042.211-.124.244-1.141.463-2.27.957-3.399,1.45-.297-.065-.604-.106-.924-.106-.512,0-.997.096-1.451.249-1.286-2.415-3.995-4.085-7.139-4.085-.665,0-1.307.083-1.924.223-.056-.147-.138-.282-.214-.42l2.425-3.598c4.115,2.136,8.328,4.083,12.625,5.799ZM40.3,29.295l.524-.777c.373.385.878.624,1.423.624.147,0,.296-.016.444-.05.506-.115,1.004-.173,1.481-.173,2.286,0,4.395,1.187,5.374,3.025.124.233.299.419.492.58-2.927,1.38-5.806,2.86-8.633,4.438-.043-.045-.081-.09-.126-.134.453-.859.777-1.767.861-2.71.157-1.756-.462-3.375-1.84-4.822ZM45.063,13.286c.152-.227.206-.505.147-.772-.058-.267-.223-.498-.456-.641l-1.107-.674c-.342-.208-.583-.537-.678-.927-.095-.389-.032-.792.176-1.134.431-.706,1.352-.933,2.062-.502l6.686,4.069c.707.43.932,1.354.502,2.062-.415.684-1.365.925-2.062.501l-1.305-.794c-.455-.278-1.051-.148-1.349.296l-9.509,14.104c-.281.417-.209.979.17,1.311,1.336,1.17,1.927,2.397,1.807,3.751-.052.584-.241,1.16-.507,1.722-1.01-.514-2.15-.796-3.119-.606-1.245.24-2.302.947-2.953,1.934-.633-.26-1.312-.382-2.016-.362-.075.002-.152.007-.229.014-.496-.857-1.3-1.596-2.299-2.092-1.217-.604-2.562-.752-3.691-.434-.196-.193-.415-.356-.643-.505,3.344-6.434,6.319-7.03,9.635-5.773.431.164.924.01,1.184-.376l9.554-14.171ZM30.066,24.647c.035-.019.048-.027.082-.048l.058-.031.081-.043c.024-.012.048-.025.072-.037.197-.108.404-.175.609-.244,0,0,.242-.082.367-.108.241-.052.484-.094.733-.094,1.027,0,1.971.433,2.568,1.134l-.357.529c-5.561-1.676-8.988,2.24-11.507,7.229-1.503-.146-2.981.518-3.723,1.842-.211.376-.365.682-.479.935-2.339-1.275-4.711-2.488-7.126-3.622.942-.547,2.061-.865,3.25-.865.421,0,.847.041,1.268.122.126.024.252.036.378.036.686,0,1.336-.354,1.704-.955,1.043-1.701,3.046-2.758,5.227-2.758.186,0,.369.011.551.026.055.004.109.007.163.007.831,0,1.583-.517,1.875-1.307.29-.784,1.132-1.311,2.095-1.311.119,0,.271.021.402.042.102.016.205.024.307.024.384,0,.763-.111,1.089-.322l.054-.034.116-.07.143-.076ZM20.792,35.754c.484-.865,1.688-1.114,2.685-.557.289.162.54.392.744.682.293.415.85.547,1.296.302.668-.364,1.696-.302,2.618.155.812.403,1.429,1.049,1.649,1.728.164.502.692.789,1.201.659.241-.062.443-.095.636-.102.795-.02,1.428.285,1.788.556.262.193.603.249.91.148.31-.102.551-.348.646-.659.25-.824,1.011-1.473,1.936-1.651h0c.715-.138,1.863.347,2.648.943-2.025,1.207-4.149,2.611-6.059,3.872l-1.021.675c-.47.27-1.34.27-1.924.04-.276-.109-1.36-.662-1.798-.95-.147-.098-.496-.312-.991-.614-1.025-.629-2.741-1.681-4.571-2.867-.307-.199-.698-.409-1.12-.633-.56-.298-1.175-.625-1.657-.981.091-.197.22-.452.384-.745ZM5.335,28.923c8.573-3.423,16.845-7.711,24.586-12.744.384-.25.829-.381,1.288-.381s.905.132,1.288.381c1.901,1.236,3.843,2.414,5.805,3.557l-2.526,3.747c-.942-.884-2.249-1.441-3.709-1.441-.981,0-1.888.262-2.671.692-.006.003-.012.006-.019.009-.094.052-.192.098-.282.156-.088.049-.179.09-.265.146-.055.036-.111.069-.166.105-.232-.036-.467-.065-.709-.065-1.854,0-3.411,1.1-3.971,2.617-.235-.019-.473-.033-.714-.033-2.98,0-5.574,1.499-6.931,3.712-.531-.102-1.081-.158-1.646-.158-2.065,0-3.922.737-5.327,1.919-1.333-.597-2.674-1.18-4.033-1.731-.083-.033-.124-.116-.124-.244s.042-.211.125-.244ZM57.198,39.511c-.007.185-.086.217-.113.228-8.577,3.478-16.845,7.822-24.576,12.913-.386.255-.836.389-1.3.389s-.914-.135-1.3-.389c-7.73-5.091-15.999-9.436-24.576-12.914-.026-.011-.106-.043-.113-.228l-.011-.26v-7.719c6.089,2.504,12.041,5.446,17.799,8.844,1.496.955,2.843,1.781,3.704,2.309.468.286.797.487.936.579.005.003.183.115.434.264.242.157.487.307.728.466.728.479,1.877.708,2.713.708.23,0,.453-.021.672-.057.634-.068,1.052-.259,1.374-.47l.281-.185c7.532-4.96,15.214-9.107,23.36-12.462v7.673l-.011.309Z"/></g></svg>