<?xml version="1.0" encoding="UTF-8"?><svg id="Icons" xmlns="http://www.w3.org/2000/svg" viewBox="0 0 64 64"><defs><style>.cls-1{fill:none;}.cls-2{fill:#90d0fe;}.cls-3{fill:#001e5b;}.cls-4{fill:#fff;}.cls-5{fill:#05628a;}.cls-6{fill:#023248;}.cls-7{fill:#0d9dda;}.cls-8{fill:#0d9dda;}</style></defs><path class="cls-5" d="M58.491,56.143s-.031-.001-.042-.002c-.001,0-.003,0-.004,0,.016.002.031,0,.046.001Z"/><path class="cls-5" d="M58.445,56.142s.003,0,.004,0c-.004,0-.01,0-.016,0,.003,0,.009,0,.012.001Z"/><path class="cls-5" d="M57.749,56.111c.371.017.603.027.684.03-.11-.014-.345-.024-.684-.03Z"/><path class="cls-3" d="M57.456,30.876c0-1.76-1.426-2.999-3.186-2.999h-13.51c-1.76,0-3.186,1.427-3.186,3.186v14.724-13.703,16.738s3.967,0,3.967,0c2.378.126,14.374.003,14.398,0,.648-.121,1.247-.7,1.446-1.398.166-.58-.103-6.444-.138-9.782-.035-3.36.21-6.766.21-6.766Z"/><path class="cls-2" d="M24.617,20.877h-14.545c-1.717,0-3.326,1.362-3.184,3.058.201,2.399.448,5.934.448,11.292,0,7.157-.747,11.348-.376,12.316.351.916,1.181,1.296,2.159,1.279,2.591-.045,18.64,0,18.64,0v-24.802c0-1.736-1.407-3.143-3.143-3.143Z"/><path class="cls-8" d="M39.901,7.857h-15.494c-1.76,0-3.186,1.426-3.186,3.186v37.779s20.233-.075,21.866,0h0V11.043c0-1.76-1.426-3.186-3.186-3.186Z"/><path class="cls-1" d="M39.398,47.016h.534c-.173-.019-.352-.017-.534,0Z"/><path class="cls-5" d="M40.003,47.019c.032.004.062,0,.093.003-.008-.002-.017-.004-.025-.006h-.139c.023.003.048,0,.071.003Z"/><path class="cls-1" d="M29.245,48.801l10.687-1.785h-15.736v1.806s2.242-.012,5.049-.021Z"/><path class="cls-1" d="M9.12,48.822c2.591-.045,13.682,0,13.682,0v-1.806H6.87c.015.227.044.404.091.527.351.916,1.181,1.296,2.159,1.279Z"/><path class="cls-6" d="M9.12,48.822c2.591-.045,13.682,0,13.682,0v-1.806H6.87c.015.227.044.404.091.527.351.916,1.181,1.296,2.159,1.279Z"/><path class="cls-4" d="M52.01,33.708c-.057-.411-.126-.753-.241-1.031-.112-.272-.263-.473-.483-.613-.222-.142-2.061-.643-2.532-1.027-.119-.097-.225-.208-.289-.332-.066-.127-.102-.298-.012-.463.083-.152.238-.233.389-.278.158-.047.357-.069.597-.069h2.779c1.686,0,3.005,1.445,2.858,3.124l-.539,7.889c-.095,1.088-1.673,1.123-1.816.04,0,0-.684-7.036-.712-7.24Z"/><path class="cls-5" d="M43.436,47.052c.017.004.034.008.051.012-.013-.001-.034-.009-.051-.012Z"/><path class="cls-5" d="M43.087,46.97c-6.125-1.444-12.017-2.123-15.802-5.834-.84-.823-1.557-1.621-2.18-2.456-.498-.666-.936-1.358-1.328-2.106-1.113-2.124-1.857-4.712-2.556-8.513v18.954h21.866v-.046Z"/><rect class="cls-3" x="4" y="46.902" width="56" height="9.24" rx="1.555" ry="1.555"/><path class="cls-7" d="M57.749,56.111c-1.039-.02-3.089-.005-5.783.031h6.48s-.009,0-.012-.001c-.082-.004-.313-.014-.684-.03Z"/><path class="cls-4" d="M30.59,24.854h-.025c-.451-.008-.874-.218-1.153-.572l-2.525-3.206c-.513-.65-.4-1.594.251-2.106.649-.511,1.594-.4,2.106.251l1.388,1.761,4.658-5.515c.533-.634,1.481-.713,2.113-.178.633.534.713,1.48.178,2.113l-5.845,6.92c-.285.338-.704.532-1.146.532Z"/></svg>