<?xml version="1.0" encoding="UTF-8"?><svg id="Icons" xmlns="http://www.w3.org/2000/svg" viewBox="0 0 64 64"><defs><style>.cls-1{fill:#0d9dda;}</style></defs><path class="cls-1" d="M57.231,10.188c-1.408-1.19-3.199-1.845-5.042-1.845-2.308,0-4.486,1.011-5.974,2.773l-6.543,7.746-13.881,16.433-7.722-10.301c-1.468-1.96-3.808-3.13-6.259-3.13-1.218,0-2.39.288-3.46.821-.425.212-.839.453-1.226.744-3.447,2.584-4.15,7.493-1.564,10.942l13.612,18.159c1.436,1.917,3.633,3.056,6.027,3.125.071.002.15.003.227.003,2.307,0,4.484-1.01,5.972-2.773l18.115-21.446,8.645-10.234c.349-.413.647-.852.896-1.309,1.736-3.189,1.057-7.275-1.823-9.707Z"/></svg>