<?xml version="1.0" encoding="UTF-8"?><svg id="Icons" xmlns="http://www.w3.org/2000/svg" viewBox="0 0 64 64"><defs><style>.cls-1{fill:#fff;}</style></defs><path class="cls-1" d="M44.634,29.056c-.337,0-.674-.007-1.012-.012v12.688c3.824-.036,7.65.078,11.436.392.096-4.87,2.085-9.027,1.895-13.681-4.068.405-8.21.613-12.319.613Z"/><path class="cls-1" d="M54.88,21.527c-.722-1.257-1.809-2.446-2.528-3.676-1.911-3.269-2.84-6.653-2.921-10.21,1.514-.338,1.909-2.666.904-3.317-.525-.34-1.249-.222-1.846-.273-1.025-.088-7.611-.083-8.095.189-1.083.609-.863,2.858.554,3.299l.12.076c.012,2.39-.396,4.995-1.327,7.296-.405,1.001-.931,1.945-1.501,2.867,3.007.241,5.382,2.75,5.382,5.805v3.446c4.39.038,8.785-.145,13.113-.574-.285-1.559-.856-3.188-1.855-4.928Z"/><path class="cls-1" d="M37.486,20.768c-4.496.436-9.054.658-13.664.658s-9.168-.223-13.664-.658c-1.67-.162-3.136,1.137-3.136,2.816v33.588c0,1.678,1.466,2.977,3.136,2.815,4.496-.435,9.054-.658,13.664-.658s9.168.223,13.664.658c1.67.162,3.136-1.137,3.136-2.815V23.583c0-1.678-1.466-2.977-3.136-2.816ZM16.889,26.34h4.182c.055-1.475,1.259-2.657,2.748-2.657s2.693,1.181,2.748,2.657h4.225c.79,0,1.43.64,1.43,1.43s-.64,1.43-1.43,1.43h-13.903c-.79,0-1.43-.64-1.43-1.43s.64-1.43,1.43-1.43ZM17.938,51.943c0,1.381-1.119,2.5-2.5,2.5s-2.5-1.119-2.5-2.5v-14.687c0-1.381,1.119-2.5,2.5-2.5s2.5,1.119,2.5,2.5v14.687ZM26.341,51.943c0,1.381-1.119,2.5-2.5,2.5s-2.5-1.119-2.5-2.5v-14.687c0-1.381,1.119-2.5,2.5-2.5s2.5,1.119,2.5,2.5v14.687ZM34.743,51.943c0,1.381-1.119,2.5-2.5,2.5s-2.5-1.119-2.5-2.5v-14.687c0-1.381,1.119-2.5,2.5-2.5s2.5,1.119,2.5,2.5v14.687Z"/><path class="cls-1" d="M55.334,45.578c-.091-.489-.15-.967-.196-1.439-3.811-.324-7.665-.442-11.516-.407v13.439c0,.577-.088,1.133-.245,1.66.714-.341,1.35-.623,1.988-.607,1.785.045,3.245,2.156,6.675,1.68,8.644-1.199,4.046-10.284,3.295-14.326Z"/></svg>