<?xml version="1.0" encoding="UTF-8"?><svg id="Icons" xmlns="http://www.w3.org/2000/svg" xmlns:xlink="http://www.w3.org/1999/xlink" viewBox="0 0 64 64"><defs><style>.cls-1{fill:none;}.cls-2{fill:#7f8ced;}.cls-3{fill:#3a49da;}.cls-4{fill:#d892fe;}.cls-5{fill:#ba33ff;}.cls-6{fill:#e5b9fe;}.cls-7{fill:#fff;}.cls-8{fill:#bec7f6;}.cls-9{fill:#ba01ff;}.cls-10{clip-path:url(#clippath);}</style><clipPath id="clippath"><path class="cls-1" d="M55.334,45.578c-1.654-8.895,4.77-14.956-.454-24.051-.722-1.257-1.809-2.445-2.528-3.676-1.911-3.269-2.84-6.653-2.921-10.21,1.514-.338,1.91-2.666.904-3.317-.525-.34-1.249-.222-1.846-.273-1.025-.088-7.611-.083-8.095.189-1.083.609-.863,2.858.554,3.299l.12.076c.012,2.39-.395,4.995-1.327,7.296-1.399,3.455-4.212,6.238-5.453,9.767-2.522,7.17,2.359,13.618.909,21.215-.762,3.991-5.243,12.827,3.352,14.011,3.348.461,4.999-1.054,6.741-1.01,1.785.045,3.321,1.486,6.751,1.01,8.644-1.199,4.046-10.284,3.295-14.326Z"/></clipPath></defs><g class="cls-10"><g id="Generative_Object"><path class="cls-5" d="M49.431,7.641c1.514-.338,1.91-2.666.904-3.317-.525-.34-1.249-.222-1.846-.273-1.025-.088-7.611-.083-8.095.189-1.083.609-.863,2.858.554,3.299l.12.076"/><polyline class="cls-5" points="41.068 7.614 49.287 7.641 49.431 7.641"/></g><path class="cls-6" d="M49.431,7.641c.08,3.557,1.01,6.941,2.921,10.21.719,1.23,1.806,2.419,2.528,3.676,5.224,9.095-1.2,15.157.454,24.051.752,4.042,5.349,13.126-3.295,14.326-3.429.476-4.889-1.636-6.675-1.68-1.742-.044-3.469,2.141-6.817,1.68-8.595-1.183-4.113-10.02-3.352-14.011,1.45-7.598-3.431-14.046-.909-21.215,1.241-3.529,4.055-6.312,5.453-9.767.932-2.301,1.339-4.906,1.327-7.296"/><path class="cls-4" d="M45.289-.631c-8.558,24.917,1.582,17.055,4.019,27.901,3.996,17.786-9.331,29.649,5.393,32.771l26.406-5.559c.478,2.078-.791,3.906-2.725,3.985-4.222.172-8.448.521-12.671,1.053-4.223.532-8.368,1.236-12.429,2.106-1.86.399-21.307,6.035-33.98,3.967L10.066,8.295C20.457.446,39.319,2.449,45.289-.631Z"/><path class="cls-9" d="M57.226,44.319c-4.107-.418-8.272-.631-12.486-.631s-8.401.215-12.518.635v-17.901c4.107.418,8.273.632,12.487.632s8.4-.215,12.517-.635v17.901Z"/><path class="cls-7" d="M48.192,14.851c.115-.969.8-1.01,1.005,1.071.249,2.534,2.356,4.737,3.086,5.678.347.472.624,1.795-.627,1.495-2.239-.481-3.788-5.517-3.464-8.244Z"/><path class="cls-5" d="M48.489,4.051c-1.025-.088-7.611-.083-8.095.189-1.083.609-.863,2.858.554,3.299l.12.076,8.219.026h.144c1.514-.337,1.91-2.666.904-3.317-.525-.34-1.249-.222-1.846-.273Z"/></g><path class="cls-2" d="M40.622,57.171c0,1.678-1.466,2.977-3.136,2.816-4.496-.436-9.054-.658-13.664-.658s-9.168.223-13.664.658c-1.67.162-3.136-1.137-3.136-2.815V23.583c0-1.678,1.466-2.977,3.136-2.816,4.496.436,9.054.658,13.664.658s9.168-.223,13.664-.658c1.67-.162,3.136,1.137,3.136,2.816v33.588Z"/><path class="cls-3" d="M7.022,23.583c0-1.6,1.333-2.856,2.905-2.829-.053,1.104-.081,2.222-.081,3.35,0,15.232,4.966,28.476,12.273,35.234-4.03.048-8.019.266-11.961.648-1.67.162-3.136-1.137-3.136-2.815V23.583Z"/><path class="cls-7" d="M16.889,26.34h13.903c.79,0,1.43.64,1.43,1.43h0c0,.79-.64,1.43-1.43,1.43h-13.903c-.79,0-1.43-.64-1.43-1.43h0c0-.79.64-1.43,1.43-1.43Z"/><circle class="cls-7" cx="23.819" cy="26.442" r="2.758"/><path class="cls-8" d="M32.243,54.444c-1.381,0-2.5-1.119-2.5-2.5v-14.687c0-1.381,1.119-2.5,2.5-2.5s2.5,1.119,2.5,2.5v14.687c0,1.381-1.119,2.5-2.5,2.5Z"/><path class="cls-8" d="M23.841,54.444c-1.381,0-2.5-1.119-2.5-2.5v-14.687c0-1.381,1.119-2.5,2.5-2.5s2.5,1.119,2.5,2.5v14.687c0,1.381-1.119,2.5-2.5,2.5Z"/><path class="cls-8" d="M15.438,54.444c-1.381,0-2.5-1.119-2.5-2.5v-14.687c0-1.381,1.119-2.5,2.5-2.5s2.5,1.119,2.5,2.5v14.687c0,1.381-1.119,2.5-2.5,2.5Z"/></svg>