<?xml version="1.0" encoding="UTF-8"?><svg id="Icons" xmlns="http://www.w3.org/2000/svg" viewBox="0 0 64 64"><defs><style>.cls-1{fill:#001e5b;}</style></defs><path class="cls-1" d="M30.792,28.239h-4.225c-.055-1.475-1.259-2.657-2.748-2.657s-2.693,1.181-2.748,2.657h-4.182c-.79,0-1.43.64-1.43,1.43s.64,1.43,1.43,1.43h13.903c.79,0,1.43-.64,1.43-1.43s-.64-1.43-1.43-1.43Z"/><path class="cls-1" d="M32.243,54.443c-1.381,0-2.5-1.119-2.5-2.5v-14.687c0-1.381,1.119-2.5,2.5-2.5s2.5,1.119,2.5,2.5v14.687c0,1.381-1.119,2.5-2.5,2.5Z"/><path class="cls-1" d="M23.841,54.443c-1.381,0-2.5-1.119-2.5-2.5v-14.687c0-1.381,1.119-2.5,2.5-2.5s2.5,1.119,2.5,2.5v14.687c0,1.381-1.119,2.5-2.5,2.5Z"/><path class="cls-1" d="M15.438,54.443c-1.381,0-2.5-1.119-2.5-2.5v-14.687c0-1.381,1.119-2.5,2.5-2.5s2.5,1.119,2.5,2.5v14.687c0,1.381-1.119,2.5-2.5,2.5Z"/><path class="cls-1" d="M55.334,45.578c-.091-.491-.154-.971-.2-1.445-.315-3.286.39-6.207,1.014-9.088.06-.275.118-.55.176-.824.015-.074.03-.148.045-.221.062-.3.121-.601.177-.902.004-.023.009-.046.013-.069.061-.335.117-.67.168-1.006.005-.035.01-.07.015-.104.1-.681.172-1.366.205-2.06.001-.031.002-.062.004-.094.029-.695.016-1.399-.053-2.117-.003-.036-.008-.072-.011-.108-.037-.355-.085-.714-.151-1.076h0c-.284-1.562-.855-3.193-1.856-4.936-.722-1.257-1.809-2.446-2.528-3.676-1.911-3.269-2.84-6.653-2.921-10.21,1.514-.338,1.909-2.666.904-3.317-.525-.34-1.249-.222-1.846-.273-.057-.005-.138-.009-.229-.014-.024-.001-.05-.002-.076-.003-.084-.004-.177-.007-.281-.01-.019,0-.035-.001-.054-.002-.129-.004-.272-.007-.427-.009-.024,0-.05,0-.075-.001-.134-.002-.276-.004-.424-.006-.037,0-.072,0-.11-.001-.178-.002-.362-.003-.555-.004h-.02c-.137,0-.276,0-.418,0-.053,0-.107,0-.16,0-.037,0-.075,0-.112,0-.202,0-.407.001-.614.003-.009,0-.018,0-.027,0-.201.002-.403.004-.604.006-.037,0-.073,0-.11.001-.208.003-.414.006-.617.01-.022,0-.043,0-.065.001-.182.004-.36.008-.535.013-.039.001-.079.002-.117.003-.186.005-.367.011-.541.018-.035.001-.067.003-.101.004-.153.006-.299.013-.438.02-.026.001-.054.003-.08.004-.153.008-.295.017-.427.027-.029.002-.055.004-.083.006-.117.009-.224.019-.318.029-.012.001-.026.003-.038.004-.099.011-.18.024-.25.037-.017.003-.031.006-.046.009-.063.014-.115.028-.142.043-1.083.609-.863,2.858.554,3.299l.12.076c.012,2.39-.396,4.995-1.327,7.296-.863,2.131-2.259,4.009-3.497,5.962-4.094.36-8.235.553-12.422.553-4.61,0-9.168-.223-13.664-.658-.095-.009-.188-.014-.281-.014-1.55,0-2.855,1.246-2.855,2.829v33.588c0,1.583,1.305,2.829,2.855,2.829.093,0,.187-.004.281-.014,4.496-.435,9.054-.658,13.664-.658s9.168.223,13.664.658c.095.009.188.014.281.014.253,0,.494-.044.729-.106.018.003.033.007.052.01.32.044.625.064.916.064,2.732,0,4.29-1.745,5.848-1.745.017,0,.035,0,.052,0,1.605.04,2.947,1.75,5.692,1.75.309,0,.635-.022.983-.07,8.644-1.199,4.046-10.284,3.295-14.326ZM54.954,28.631c0,.022.002.044.002.066.014.513,0,1.023-.037,1.533-.001.014-.002.029-.003.043-.083,1.069-.264,2.134-.483,3.214-.001.006-.002.013-.004.019-.097.479-.203.963-.309,1.45-.014.063-.027.124-.041.187-.106.483-.212.98-.316,1.483-.021.103-.041.206-.062.309-.078.387-.151.78-.221,1.178-.03.168-.059.336-.086.505-.067.421-.126.848-.176,1.282-.017.146-.034.292-.049.44-.046.468-.077.945-.094,1.429-.002.067-.011.131-.013.199-2.805-.188-5.595-.283-8.322-.283-1.367,0-2.742.036-4.118.085v-12.803c1.373.049,2.74.083,4.087.083,3.386,0,6.824-.142,10.245-.423ZM41.595,15.661c.962-2.377,1.485-5.232,1.473-8.04l4.369.014c0,.018-.006.034-.005.052.09,3.997,1.135,7.652,3.193,11.174.408.698.89,1.347,1.356,1.974.439.591.854,1.15,1.164,1.689.832,1.449,1.327,2.804,1.586,4.111-3.307.27-6.648.419-10.023.419-1.369,0-2.73-.037-4.087-.088v-3.382c0-1.283-.862-2.332-2.012-2.688.06-.092.117-.182.178-.274,1.018-1.543,2.07-3.138,2.807-4.959ZM9.966,57.996c-.03.003-.059.004-.088.004-.471,0-.855-.372-.855-.829V23.583c0-.457.384-.829.855-.829.029,0,.059.001.088.004,4.574.443,9.236.668,13.856.668s9.283-.225,13.856-.668c.03-.003.059-.004.089-.004.471,0,.855.372.855.829v33.588c0,.457-.384.829-.855.829-.029,0-.059-.001-.088-.004-4.573-.443-9.234-.668-13.856-.668s-9.283.225-13.856.667ZM54.735,56.483c-.492.76-1.464,1.231-2.971,1.44-.243.034-.481.051-.708.051-1.097,0-1.862-.386-2.749-.834-.824-.416-1.758-.887-2.893-.916h-.102c-1.127-.001-2.066.451-2.973.888-.593.286-1.17.549-1.799.707.049-.208.082-.424.082-.648v-13.386c1.367-.055,2.738-.097,4.118-.097,2.818,0,5.612.105,8.384.296.049.641.119,1.291.244,1.96.152.819.427,1.765.719,2.766.744,2.555,1.762,6.055.649,7.773Z"/></svg>