<?xml version="1.0" encoding="UTF-8"?><svg id="Icons" xmlns="http://www.w3.org/2000/svg" viewBox="0 0 64 64"><defs><style>.cls-1{fill:#fff;}</style></defs><path class="cls-1" d="M34.8,6c.441,0,.8.359.8.8v3.529c0,.909.614,1.704,1.493,1.935,1.828.479,3.587,1.216,5.228,2.192.318.189.671.281,1.022.281.517,0,1.03-.2,1.415-.586l2.516-2.516c.204-.204.442-.234.565-.234s.362.03.566.234l3.96,3.96c.204.204.234.442.234.566s-.03.362-.234.566l-2.534,2.534c-.644.645-.772,1.643-.309,2.429.967,1.643,1.695,3.396,2.164,5.211.228.883,1.024,1.5,1.936,1.5h3.579c.441,0,.8.359.8.8v5.6c0,.441-.359.8-.8.8h-3.579c-.912,0-1.708.617-1.937,1.5-.469,1.814-1.197,3.567-2.164,5.211-.462.785-.335,1.784.309,2.429l2.534,2.535c.204.204.234.442.234.566s-.03.362-.234.566l-3.959,3.96c-.204.204-.442.234-.566.234s-.362-.03-.566-.234l-2.516-2.516c-.386-.385-.898-.586-1.415-.586-.351,0-.704.092-1.022.281-1.64.976-3.399,1.713-5.228,2.192-.88.23-1.493,1.025-1.493,1.935v3.478c0,.021,0,.041,0,.061,0,.093.006.184.019.273-.115.301-.407.516-.748.516h-.06c-.02,0-.041,0-.061,0h-5.549c-.441,0-.8-.359-.8-.8v-3.493c0-.914-.62-1.712-1.506-1.938-1.841-.469-3.615-1.202-5.274-2.179-.316-.186-.666-.276-1.014-.276-.517,0-1.03.201-1.415.586l-1.489,1.489c-.104.104-.194.218-.27.339l-.636.636c-.191.191-.413.232-.574.232h-.004c-.014,0-.052,0-.058,0-.153,0-.375-.04-.565-.231l-3.96-3.96c-.204-.204-.234-.442-.234-.566s.03-.362.234-.566l2.446-2.446c.647-.647.772-1.65.305-2.437-.99-1.663-1.733-3.444-2.21-5.292-.228-.883-1.025-1.5-1.937-1.5h-3.439c-.441,0-.8-.359-.8-.8v-5.6c0-.441.359-.8.8-.8h3.439c.912,0,1.708-.617,1.937-1.5.477-1.848,1.221-3.629,2.21-5.292.468-.786.342-1.79-.305-2.437l-2.446-2.445c-.204-.204-.234-.442-.234-.566s.03-.362.234-.566l3.96-3.96c.204-.204.442-.234.566-.234s.362.03.566.234l2.465,2.464c.385.385.897.586,1.415.586.348,0,.698-.091,1.014-.276,1.659-.977,3.434-1.709,5.274-2.178.886-.226,1.506-1.024,1.506-1.938v-3.493c0-.441.359-.8.8-.8h5.6M34.8,4h-5.6c-1.546,0-2.8,1.254-2.8,2.8v3.493c-2.061.525-4.005,1.34-5.794,2.393l-2.465-2.464c-.547-.547-1.263-.82-1.98-.82s-1.433.273-1.98.82l-3.96,3.96c-1.094,1.093-1.094,2.866,0,3.96l2.445,2.445c-1.067,1.793-1.893,3.745-2.428,5.814h-3.439c-1.546,0-2.8,1.254-2.8,2.8v5.6c0,1.546,1.254,2.8,2.8,2.8h3.439c.534,2.069,1.361,4.021,2.428,5.814l-2.446,2.446c-1.094,1.093-1.094,2.866,0,3.96l3.96,3.96c.546.547,1.263.816,1.979.816.014,0,.027,0,.041,0,.01,0,.02,0,.03,0,.717,0,1.433-.271,1.979-.817l.94-.94-.034-.034,1.489-1.489c1.789,1.053,3.734,1.868,5.795,2.393v3.493c0,1.546,1.254,2.8,2.8,2.8h5.6s.006,0,.01,0h.06c1.541,0,2.791-1.245,2.8-2.784-.023-.003-.047-.003-.071-.005,0-.003,0-.006,0-.01v-3.529c2.042-.535,3.971-1.353,5.743-2.408l2.516,2.516c.547.547,1.263.82,1.98.82s1.433-.273,1.98-.82l3.96-3.96c1.094-1.093,1.094-2.866,0-3.96l-2.534-2.535c1.041-1.769,1.851-3.69,2.376-5.725h3.579c1.547,0,2.8-1.254,2.8-2.8v-5.6c0-1.546-1.253-2.8-2.8-2.8h-3.579c-.526-2.035-1.335-3.956-2.377-5.725l2.534-2.534c1.094-1.093,1.094-2.866,0-3.96l-3.96-3.96c-.547-.547-1.263-.82-1.98-.82s-1.433.273-1.98.82l-2.516,2.516c-1.773-1.054-3.701-1.873-5.743-2.408v-3.529c0-1.546-1.254-2.8-2.8-2.8h0Z"/><path class="cls-1" d="M31.93,46.01c-7.725,0-14.01-6.285-14.01-14.01s6.285-14.01,14.01-14.01,14.01,6.285,14.01,14.01-6.285,14.01-14.01,14.01ZM31.93,19.99c-6.622,0-12.01,5.388-12.01,12.01s5.388,12.01,12.01,12.01,12.01-5.388,12.01-12.01-5.388-12.01-12.01-12.01Z"/><path class="cls-1" d="M29.654,39.245h-.043c-.751-.013-1.456-.363-1.921-.953l-3.464-4.396c-.854-1.084-.668-2.656.417-3.511,1.085-.855,2.657-.666,3.511.417l1.567,1.989,6.038-7.149c.892-1.056,2.469-1.188,3.523-.297,1.055.892,1.188,2.469.297,3.523l-8.016,9.49c-.476.562-1.175.887-1.91.887Z"/></svg>