<?xml version="1.0" encoding="UTF-8"?><svg id="Icons" xmlns="http://www.w3.org/2000/svg" viewBox="0 0 64 64"><defs><style>.cls-1{fill:#001e5b;}.cls-2{fill:#fff;}.cls-3{fill:#05628a;}.cls-4{fill:#0d9dda;}</style></defs><path class="cls-4" d="M57.2,26.4h-3.579c-.526-2.035-1.335-3.956-2.377-5.725l2.534-2.534c1.094-1.093,1.094-2.866,0-3.96l-3.96-3.96c-1.094-1.094-2.866-1.094-3.96,0l-2.516,2.516c-1.773-1.054-3.701-1.873-5.744-2.408v-3.529c0-1.546-1.254-2.8-2.8-2.8h-5.6c-1.546,0-2.8,1.254-2.8,2.8v3.493c-2.061.525-4.005,1.34-5.795,2.393l-2.464-2.464c-1.094-1.094-2.866-1.094-3.96,0l-3.96,3.96c-1.093,1.093-1.093,2.866,0,3.96l2.445,2.445c-1.067,1.793-1.893,3.745-2.428,5.814h-3.439c-1.546,0-2.8,1.254-2.8,2.8v5.6c0,1.546,1.254,2.8,2.8,2.8h3.439c.534,2.069,1.361,4.021,2.428,5.814l-2.446,2.446c-1.094,1.093-1.094,2.866,0,3.96l3.96,3.96c1.093,1.093,2.866,1.093,3.96,0l2.465-2.465c1.789,1.053,3.734,1.868,5.795,2.393v3.493c0,1.546,1.254,2.8,2.8,2.8h5.6c1.546,0,2.8-1.254,2.8-2.8v-3.529c2.043-.535,3.971-1.353,5.744-2.408l2.516,2.516c1.094,1.093,2.866,1.093,3.96,0l3.96-3.96c1.094-1.093,1.094-2.866,0-3.96l-2.535-2.535c1.041-1.769,1.851-3.69,2.377-5.725h3.579c1.547,0,2.8-1.254,2.8-2.8v-5.6c0-1.546-1.254-2.8-2.8-2.8Z"/><path class="cls-2" d="M34.607,14.534c5.47-1.546,11.163,1.653,12.714,7.145.111.392.198.786.261,1.179.169,1.046-1.138,1.326-1.761.47-2.687-3.693-6.623-6.266-11.006-7.265-.851-.194-1.048-1.291-.208-1.529Z"/><path class="cls-3" d="M23.117,48.874c1.905,1.167,3.998,2.057,6.223,2.614v2.911c0,1.546,1.254,2.8,2.8,2.8h5.317c.072,0,.143.005.213.016-.009,1.539-1.259,2.784-2.8,2.784h-5.6c-1.546,0-2.8-1.254-2.8-2.8v-3.506c-2.055-.529-3.996-1.342-5.778-2.395l2.425-2.424ZM6.8,31.999c0,1.546,1.254,2.8,2.8,2.8h3.369c.721,3.134,2.099,6.017,3.982,8.497l-1.692,1.692c-1.093,1.093-1.093,2.866,0,3.96l3.891,3.891-.94.94c-1.093,1.093-2.866,1.093-3.96,0l-3.96-3.96c-1.093-1.093-1.093-2.866,0-3.96l2.48-2.48c-1.053-1.782-1.867-3.724-2.396-5.779h-3.506c-1.546,0-2.8-1.254-2.8-2.8v-5.6c0-1.523,1.216-2.762,2.73-2.799v5.599Z"/><path class="cls-1" d="M31.93,45.01c-7.174,0-13.01-5.836-13.01-13.01s5.836-13.01,13.01-13.01,13.01,5.836,13.01,13.01-5.836,13.01-13.01,13.01Z"/><path class="cls-2" d="M29.654,39.245h-.043c-.751-.013-1.456-.363-1.921-.953l-3.464-4.396c-.854-1.084-.668-2.656.417-3.511,1.085-.855,2.657-.666,3.511.417l1.567,1.989,6.038-7.149c.892-1.056,2.468-1.188,3.523-.297,1.055.892,1.188,2.469.297,3.523l-8.016,9.49c-.476.562-1.175.887-1.91.887Z"/></svg>