<?xml version="1.0" encoding="UTF-8"?><svg id="Icons" xmlns="http://www.w3.org/2000/svg" viewBox="0 0 64 64"><defs><style>.cls-1{fill:#001e5b;}</style></defs><path class="cls-1" d="M34.87,6c.441,0,.8.359.8.8v3.529c0,.909.614,1.704,1.493,1.935,1.829.479,3.587,1.216,5.228,2.192.318.189.671.281,1.022.281.517,0,1.029-.2,1.415-.586l2.516-2.516c.204-.204.442-.234.565-.234s.362.03.566.234l3.96,3.96c.204.204.234.442.234.566s-.03.362-.234.566l-2.534,2.534c-.645.645-.772,1.643-.309,2.429.967,1.643,1.695,3.396,2.164,5.211.228.883,1.025,1.5,1.936,1.5h3.579c.441,0,.8.359.8.8v5.6c0,.441-.359.8-.8.8h-3.579c-.912,0-1.708.617-1.936,1.5-.469,1.815-1.197,3.568-2.164,5.211-.462.785-.335,1.784.309,2.429l2.535,2.535c.204.204.234.442.234.566s-.03.362-.234.566l-3.96,3.96c-.204.204-.442.234-.566.234s-.362-.03-.566-.234l-2.516-2.516c-.386-.386-.898-.586-1.415-.586-.351,0-.704.092-1.022.281-1.64.976-3.399,1.713-5.228,2.192-.88.23-1.493,1.025-1.493,1.935v3.458c-.007.05-.013.099-.018.149l-.007.082c-.008.024-.016.048-.023.072l-.022.075c-.013.022-.025.044-.037.066l-.038.072-.053.061c-.017.02-.033.04-.051.062l-.063.049c-.019.016-.039.031-.059.048l-.073.037c-.022.011-.043.023-.065.035l-.079.022c-.037.01-.074.022-.113.034-.03.003-.064.005-.1.005-.022,0-.044,0-.067.002h-5.534c-.441,0-.8-.359-.8-.8v-3.493c0-.914-.62-1.712-1.506-1.938-1.841-.469-3.615-1.202-5.274-2.179-.316-.186-.666-.276-1.014-.276-.517,0-1.03.2-1.415.586l-1.525,1.525-.94.94c-.204.204-.442.234-.566.234-.158,0-.309-.045-.439-.13-.045-.03-.087-.064-.127-.104l-3.96-3.96c-.204-.204-.234-.442-.234-.566s.03-.362.234-.566l.62-.62,1.825-1.826c.647-.647.772-1.65.305-2.437-.989-1.663-1.733-3.443-2.21-5.291-.228-.883-1.025-1.5-1.936-1.5h-3.439c-.441,0-.8-.359-.8-.8v-5.6c0-.032.002-.064.006-.095.012-.037.023-.074.033-.112,0-.002.014-.052.015-.054l.004-.02c.014-.025.028-.051.041-.077l.036-.072c.016-.019.032-.039.048-.059l.05-.064.057-.047.059-.051.066-.036.066-.038.073-.023.071-.024.08-.008c.032-.004.064-.008.101-.014.031-.001.062-.003.093-.006h3.339c.912,0,1.708-.617,1.936-1.5.477-1.848,1.221-3.629,2.21-5.292.468-.786.342-1.79-.305-2.437l-2.445-2.445c-.204-.204-.234-.442-.234-.566s.03-.362.234-.566l3.96-3.96c.204-.204.442-.234.566-.234s.362.03.566.234l2.464,2.464c.385.385.897.586,1.415.586.348,0,.698-.091,1.014-.276,1.659-.976,3.433-1.709,5.274-2.178.886-.226,1.506-1.024,1.506-1.938v-3.493c0-.441.359-.8.8-.8h5.6M34.87,4h-5.6c-1.546,0-2.8,1.254-2.8,2.8v3.493c-2.061.525-4.005,1.34-5.795,2.393l-2.464-2.464c-.547-.547-1.263-.82-1.98-.82s-1.433.273-1.98.82l-3.96,3.96c-1.093,1.093-1.093,2.866,0,3.96l2.445,2.445c-1.067,1.793-1.893,3.745-2.428,5.814h-3.439c-.024,0-.046.006-.07.007v-.006c-.09.002-.174.022-.262.032-.088.01-.177.014-.262.032-.096.021-.185.056-.278.086-.081.027-.164.047-.241.08-.089.039-.171.091-.255.138-.072.04-.147.074-.214.121-.081.056-.152.123-.227.187-.061.052-.126.098-.182.154-.07.071-.128.153-.19.231-.049.061-.104.117-.147.182-.059.088-.103.185-.151.279-.034.065-.075.125-.103.193-.047.111-.076.231-.108.349-.016.058-.041.113-.053.173-.037.181-.056.368-.056.56v5.6c0,1.546,1.254,2.8,2.8,2.8h3.439c.534,2.069,1.361,4.021,2.428,5.814l-1.825,1.826-.62.62c-1.094,1.093-1.094,2.866,0,3.96l3.96,3.96c.137.137.284.256.439.359.466.307,1.003.461,1.54.461h0c.717,0,1.433-.273,1.98-.82l.94-.94,1.525-1.525c1.789,1.053,3.734,1.868,5.795,2.393v3.493c0,1.546,1.254,2.8,2.8,2.8h5.6c.007,0,.013-.002.019-.002.186-.001.368-.019.544-.055.066-.013.126-.041.19-.059.113-.032.228-.059.334-.104.067-.028.126-.07.19-.103.096-.05.195-.094.285-.154.063-.043.117-.097.176-.145.08-.064.165-.124.238-.196.059-.059.106-.129.16-.193.061-.073.128-.141.181-.22.052-.077.089-.163.134-.245.041-.077.09-.149.125-.229.038-.088.059-.184.087-.277.025-.083.059-.161.077-.247.02-.096.022-.198.032-.298.008-.086.027-.17.027-.258,0,0,0,0-.001,0,0-.005.002-.01.002-.016v-3.529c2.043-.535,3.971-1.353,5.744-2.408l2.516,2.516c.547.547,1.263.82,1.98.82s1.433-.273,1.98-.82l3.96-3.96c1.094-1.093,1.094-2.866,0-3.96l-2.535-2.535c1.041-1.769,1.851-3.69,2.377-5.725h3.579c1.547,0,2.8-1.254,2.8-2.8v-5.6c0-1.546-1.254-2.8-2.8-2.8h-3.579c-.526-2.035-1.335-3.956-2.377-5.725l2.534-2.534c1.094-1.093,1.094-2.866,0-3.96l-3.96-3.96c-.547-.547-1.263-.82-1.98-.82s-1.433.273-1.98.82l-2.516,2.516c-1.773-1.054-3.701-1.873-5.744-2.408v-3.529c0-1.546-1.254-2.8-2.8-2.8h0Z"/><path class="cls-1" d="M32,22.8c5.073,0,9.2,4.127,9.2,9.2s-4.127,9.2-9.2,9.2-9.2-4.127-9.2-9.2,4.127-9.2,9.2-9.2M32,20.8c-6.176,0-11.2,5.024-11.2,11.2s5.024,11.2,11.2,11.2,11.2-5.024,11.2-11.2-5.024-11.2-11.2-11.2h0Z"/><path class="cls-1" d="M32,27.8c2.316,0,4.2,1.884,4.2,4.2s-1.884,4.2-4.2,4.2-4.2-1.884-4.2-4.2,1.884-4.2,4.2-4.2M32,25.8c-3.419,0-6.2,2.781-6.2,6.2s2.781,6.2,6.2,6.2,6.2-2.781,6.2-6.2-2.781-6.2-6.2-6.2h0Z"/></svg>