<?xml version="1.0" encoding="UTF-8"?><svg id="Icons" xmlns="http://www.w3.org/2000/svg" viewBox="0 0 64 64"><defs><style>.cls-1{fill:#fff;}</style></defs><path class="cls-1" d="M29.435,42.345h-.043c-.751-.013-1.456-.363-1.921-.953l-3.904-4.955c-.854-1.084-.668-2.656.417-3.511,1.085-.855,2.657-.669,3.511.417l2.008,2.548,7.057-8.354c.893-1.056,2.468-1.188,3.523-.297,1.055.892,1.188,2.469.297,3.523l-9.034,10.695c-.476.562-1.175.887-1.91.887Z"/><path class="cls-1" d="M56.042,22.644c-1.657,0-3.072,1.02-3.662,2.465-6.123-2.798-11.87-7.027-17.268-12.586.522-.671.846-1.503.846-2.419,0-2.186-1.772-3.958-3.958-3.958s-3.958,1.772-3.958,3.958c0,.916.324,1.748.846,2.419-5.397,5.559-11.145,9.788-17.268,12.586-.59-1.445-2.005-2.465-3.662-2.465-2.186,0-3.958,1.772-3.958,3.958s1.772,3.958,3.958,3.958c.661,0,1.275-.177,1.823-.464,3.079,6.315,5.163,13.031,6.534,20.036-1.612.501-2.791,1.986-2.791,3.763,0,2.186,1.772,3.958,3.958,3.958s3.958-1.772,3.958-3.958c0-.002,0-.004,0-.007,3.52-.669,7.04-1.01,10.56-1.01,3.635,0,7.271.36,10.906,1.074.031,2.159,1.786,3.901,3.952,3.901,2.186,0,3.958-1.772,3.958-3.958,0-1.895-1.333-3.474-3.111-3.862,1.371-6.969,3.449-13.652,6.513-19.937.548.287,1.162.464,1.823.464,2.186,0,3.958-1.772,3.958-3.958s-1.772-3.958-3.958-3.958ZM20.919,51.968c-.544-.968-1.469-1.688-2.584-1.933-1.523-7.912-3.843-14.955-7.027-21.344.283-.453.47-.965.551-1.516,6.524-2.884,12.756-7.381,18.601-13.423.473.2.994.311,1.541.311s1.067-.111,1.54-.311c5.845,6.042,12.077,10.539,18.601,13.423.081.551.268,1.063.551,1.516-3.199,6.419-5.526,13.499-7.048,21.456-.975.316-1.777.994-2.256,1.883-3.795-.75-7.61-1.152-11.388-1.152-3.676,0-7.386.38-11.08,1.09Z"/></svg>