<?xml version="1.0" encoding="UTF-8"?><svg id="Icons" xmlns="http://www.w3.org/2000/svg" viewBox="0 0 64 64"><defs><style>.cls-1{fill:#fff;}</style></defs><path class="cls-1" d="M50.084,26.602c0-.841.177-1.641.493-2.368-4.921-2.507-9.597-5.948-14.038-10.28-1.094,1.288-2.722,2.108-4.54,2.108s-3.446-.821-4.539-2.108c-4.441,4.332-9.117,7.773-14.038,10.28.316.726.493,1.526.493,2.368,0,2.328-1.345,4.343-3.296,5.323,2.343,5.175,4.058,10.605,5.287,16.231.502-.138,1.029-.218,1.575-.218,3.168,0,5.759,2.487,5.94,5.61,2.859-.441,5.718-.669,8.578-.669,2.972,0,5.943.243,8.916.72.156-3.147,2.758-5.661,5.943-5.661.429,0,.846.048,1.249.134,1.221-5.599,2.927-11.003,5.256-16.154-1.942-.983-3.28-2.993-3.28-5.315ZM40.379,30.763l-9.034,10.695c-.476.562-1.175.887-1.91.887h-.043c-.751-.013-1.456-.363-1.921-.953l-3.904-4.955c-.854-1.084-.668-2.656.417-3.511,1.085-.855,2.657-.669,3.511.417l2.008,2.548,7.057-8.354c.893-1.056,2.469-1.188,3.523-.297,1.055.892,1.188,2.469.297,3.523Z"/><circle class="cls-1" cx="32" cy="10.105" r="3.958"/><circle class="cls-1" cx="56.042" cy="26.602" r="3.958"/><circle class="cls-1" cx="7.958" cy="26.602" r="3.958"/><circle class="cls-1" cx="46.859" cy="53.895" r="3.958"/><circle class="cls-1" cx="17.482" cy="53.895" r="3.958"/></svg>