<?xml version="1.0" encoding="UTF-8"?><svg id="Icons" xmlns="http://www.w3.org/2000/svg" viewBox="0 0 64 64"><defs><style>.cls-1{fill:#001e5b;}.cls-2{fill:#fff;}.cls-3{fill:#05628a;}.cls-4{fill:#0d9dda;}</style></defs><path class="cls-4" d="M56.042,26.602c-8.729-3.103-16.719-9.018-24.042-17.467h0s0,0,0,0h0s0,0,0,0c-7.323,8.449-15.313,14.365-24.042,17.467,4.873,8.688,7.688,18.209,9.183,28.263,4.953-1.325,9.906-1.987,14.859-1.987s9.906.662,14.859,1.987c1.496-10.054,4.311-19.574,9.183-28.263Z"/><path class="cls-2" d="M29.435,42.344c-.014,0-.028,0-.042,0-.751-.013-1.457-.362-1.921-.952l-3.904-4.955c-.854-1.084-.668-2.657.417-3.511,1.085-.853,2.656-.667,3.511.417l2.008,2.548,7.057-8.354c.89-1.055,2.468-1.187,3.523-.296s1.188,2.468.296,3.523l-9.034,10.695c-.475.563-1.174.887-1.91.887Z"/><circle class="cls-1" cx="32" cy="10.105" r="3.958"/><circle class="cls-1" cx="56.042" cy="26.602" r="3.958"/><path class="cls-3" d="M9.699,25.94c-.577.233-1.157.455-1.741.662,4.873,8.688,7.688,18.209,9.183,28.263,4.953-1.325,9.906-1.987,14.859-1.987s9.906.662,14.859,1.987c.111-.75.246-1.49.372-2.234-17.368-.016-32.121-11.164-37.532-26.691Z"/><circle class="cls-1" cx="7.958" cy="26.602" r="3.958"/><circle class="cls-1" cx="46.859" cy="53.895" r="3.958"/><circle class="cls-1" cx="17.482" cy="53.895" r="3.958"/><path class="cls-2" d="M36.492,19.312c1.723,4.098,6.81,7.401,11.522,7.027.035-.003.056-.026.086-.037.676-.249.49-1.097-.228-1.384-3.782-1.513-7.362-3.977-9.939-7.082-.505-.608-1.308-.632-1.568-.093-.062.13-.1.28-.077.469.046.366.056.751.203,1.099Z"/></svg>