<?xml version="1.0" encoding="UTF-8"?><svg id="Icons" xmlns="http://www.w3.org/2000/svg" viewBox="0 0 64 64"><defs><style>.cls-1{fill:#a0a0a0;}.cls-2{fill:#fff;}.cls-3{fill:#747474;}</style></defs><path class="cls-1" d="M57.2,26.4h-3.579c-.526-2.035-1.335-3.956-2.377-5.725l2.534-2.534c1.094-1.093,1.094-2.866,0-3.96l-3.96-3.96c-1.094-1.094-2.866-1.094-3.96,0l-2.516,2.516c-1.773-1.054-3.701-1.873-5.744-2.408v-3.529c0-1.546-1.254-2.8-2.8-2.8h-5.6c-1.546,0-2.8,1.254-2.8,2.8v3.493c-2.061.525-4.005,1.34-5.795,2.393l-2.464-2.464c-1.094-1.094-2.866-1.094-3.96,0l-3.96,3.96c-1.093,1.093-1.093,2.866,0,3.96l2.445,2.445c-1.067,1.793-1.893,3.745-2.428,5.814h-3.439c-1.546,0-2.8,1.254-2.8,2.8v5.6c0,1.546,1.254,2.8,2.8,2.8h3.439c.534,2.069,1.361,4.021,2.428,5.814l-2.446,2.446c-1.094,1.093-1.094,2.866,0,3.96l3.96,3.96c1.093,1.093,2.866,1.093,3.96,0l2.465-2.465c1.789,1.053,3.734,1.868,5.795,2.393v3.493c0,1.546,1.254,2.8,2.8,2.8h5.6c1.546,0,2.8-1.254,2.8-2.8v-3.529c2.043-.535,3.971-1.353,5.744-2.408l2.516,2.516c1.094,1.093,2.866,1.093,3.96,0l3.96-3.96c1.094-1.093,1.094-2.866,0-3.96l-2.535-2.535c1.041-1.769,1.851-3.69,2.377-5.725h3.579c1.547,0,2.8-1.254,2.8-2.8v-5.6c0-1.546-1.254-2.8-2.8-2.8Z"/><path class="cls-2" d="M32.255,14.237c6.461-1.826,13.184,1.952,15.016,8.438.131.464.234.928.308,1.393.199,1.235-1.344,1.566-2.08.555-3.173-4.362-7.822-7.401-12.999-8.58-1.005-.229-1.238-1.525-.246-1.805Z"/><path class="cls-3" d="M23.047,48.875c1.905,1.167,3.998,2.057,6.223,2.614v2.911c0,1.546,1.254,2.8,2.8,2.8h5.317c.072,0,.143.005.213.016-.009,1.539-1.259,2.784-2.8,2.784h-5.6c-1.546,0-2.8-1.254-2.8-2.8v-3.506c-2.055-.529-3.996-1.342-5.778-2.395l2.425-2.424ZM6.73,32c0,1.546,1.254,2.8,2.8,2.8h3.369c.721,3.134,2.099,6.017,3.982,8.497l-1.692,1.692c-1.093,1.093-1.093,2.866,0,3.96l3.891,3.891-.94.94c-1.093,1.093-2.866,1.093-3.96,0l-3.96-3.96c-1.093-1.093-1.093-2.866,0-3.96l2.48-2.48c-1.053-1.782-1.867-3.724-2.396-5.779h-3.506c-1.546,0-2.8-1.254-2.8-2.8v-5.6c0-1.523,1.216-2.762,2.73-2.799v5.599Z"/><path class="cls-2" d="M31.93,25c-3.86,0-7,3.141-7,7s3.14,7,7,7,7-3.141,7-7-3.14-7-7-7Z"/><path class="cls-3" d="M31.93,25.8c3.419,0,6.2,2.781,6.2,6.2s-2.781,6.2-6.2,6.2-6.2-2.781-6.2-6.2,2.781-6.2,6.2-6.2M31.93,20.8c-6.176,0-11.2,5.024-11.2,11.2s5.024,11.2,11.2,11.2,11.2-5.024,11.2-11.2-5.024-11.2-11.2-11.2h0Z"/></svg>