<?xml version="1.0" encoding="UTF-8"?><svg id="Icons" xmlns="http://www.w3.org/2000/svg" viewBox="0 0 64 64"><defs><style>.cls-1{fill:#a0a0a0;}</style></defs><circle class="cls-1" cx="32" cy="32" r="6.2"/><path class="cls-1" d="M57.27,26.4h-3.579c-.526-2.035-1.335-3.956-2.377-5.725l2.534-2.534c1.094-1.093,1.094-2.866,0-3.96l-3.96-3.96c-1.094-1.094-2.866-1.094-3.96,0l-2.516,2.516c-1.773-1.054-3.701-1.873-5.744-2.408v-3.529c0-1.546-1.254-2.8-2.8-2.8h-5.6c-1.546,0-2.8,1.254-2.8,2.8v3.493c-2.061.525-4.005,1.34-5.795,2.393l-2.464-2.464c-1.094-1.094-2.866-1.094-3.96,0l-3.96,3.96c-1.093,1.093-1.093,2.866,0,3.96l2.445,2.445c-1.067,1.793-1.893,3.745-2.428,5.814h-3.439c-.024,0-.046.006-.07.007v-.006c-.09.002-.174.022-.262.032-.088.01-.177.014-.262.032-.096.021-.185.056-.278.086-.081.027-.164.047-.241.08-.089.039-.171.091-.255.138-.072.04-.147.074-.214.121-.081.056-.152.123-.227.187-.061.052-.126.098-.182.154-.07.071-.128.153-.19.231-.049.061-.104.117-.147.182-.059.088-.103.185-.151.279-.034.065-.075.125-.103.193-.047.111-.076.231-.108.349-.016.058-.041.113-.053.173-.037.181-.056.368-.056.56v5.6c0,1.546,1.254,2.8,2.8,2.8h3.439c.534,2.069,1.361,4.021,2.428,5.814l-1.825,1.826-.62.62c-1.094,1.093-1.094,2.866,0,3.96l3.96,3.96c.137.137.284.256.439.359.466.308,1.003.461,1.541.461.717,0,1.433-.273,1.98-.82l.94-.94,1.525-1.525c1.789,1.053,3.734,1.868,5.795,2.393v3.493c0,1.546,1.254,2.8,2.8,2.8h5.6c.007,0,.013-.002.019-.002.186-.001.368-.019.544-.055.066-.013.126-.041.19-.059.113-.032.228-.059.334-.104.067-.028.126-.07.19-.103.096-.05.195-.094.285-.154.063-.043.117-.097.176-.145.08-.064.165-.124.238-.196.059-.059.106-.129.16-.193.061-.073.128-.141.181-.22.052-.077.089-.163.134-.245.041-.077.09-.149.125-.229.038-.088.059-.184.087-.277.025-.083.059-.161.077-.247.02-.096.022-.198.032-.298.008-.086.027-.17.027-.258,0,0,0,0-.001,0,0-.005.002-.01.002-.016v-3.529c2.043-.535,3.971-1.353,5.744-2.408l2.516,2.516c1.094,1.093,2.866,1.093,3.96,0l3.96-3.96c1.094-1.093,1.094-2.866,0-3.96l-2.535-2.535c1.041-1.769,1.851-3.69,2.377-5.725h3.579c1.547,0,2.8-1.254,2.8-2.8v-5.6c0-1.546-1.254-2.8-2.8-2.8ZM32,43.2c-6.176,0-11.2-5.024-11.2-11.2s5.024-11.2,11.2-11.2,11.2,5.024,11.2,11.2-5.024,11.2-11.2,11.2Z"/></svg>