<?xml version="1.0" encoding="UTF-8"?><svg id="Icons" xmlns="http://www.w3.org/2000/svg" viewBox="0 0 64 64"><defs><style>.cls-1{fill:#fff;}</style></defs><path class="cls-1" d="M50.508,43.868l-9.838,11.647c-1.17,1.385-2.88,2.179-4.693,2.179-.062,0-.124,0-.179-.003-1.882-.055-3.608-.95-4.737-2.456l-8.387-11.189c-.984-1.313-1.398-2.931-1.166-4.555.233-1.624,1.084-3.061,2.395-4.043,1.072-.805,2.346-1.231,3.685-1.23,1.926,0,3.765.92,4.918,2.46l3.758,5.013,7.477-8.852.066-.078c-1.769-1.345-3.797-2.35-5.98-2.948,3.928-2.476,6.545-6.841,6.545-11.827,0-7.724-6.262-13.986-13.986-13.986s-13.986,6.262-13.986,13.986c0,5.048,2.683,9.458,6.693,11.917-6.073,1.779-10.87,6.769-12.207,13.221l-2.408,11.627c-.598,2.885,1.888,5.476,4.813,5.123,5.55-.67,11.2-1.014,16.93-1.014,5.987,0,11.886.376,17.674,1.106,2.925.369,5.425-2.212,4.84-5.101l-2.226-10.996Z"/><path class="cls-1" d="M54.495,29.627c-.158-.133-.326-.245-.499-.342-.058-.032-.119-.054-.178-.082-.119-.057-.238-.112-.361-.153-.072-.024-.145-.039-.218-.058-.114-.029-.229-.056-.345-.072-.078-.011-.156-.015-.235-.02-.064-.004-.128-.016-.193-.016-.041,0-.08.011-.121.013-.125.005-.248.02-.372.04-.087.014-.175.026-.261.047-.126.031-.248.075-.369.122-.079.03-.16.056-.236.092-.13.062-.251.141-.373.221-.061.041-.126.073-.185.118-.175.135-.341.287-.489.463l-4.031,4.772-9.906,11.728-6.016-8.025c-.144-.192-.309-.358-.484-.507-.057-.048-.12-.086-.179-.13-.125-.092-.252-.178-.387-.249-.074-.039-.151-.072-.227-.104-.131-.056-.265-.105-.402-.142-.081-.022-.162-.043-.244-.059-.143-.028-.287-.042-.433-.049-.055-.003-.109-.019-.165-.019-.029,0-.059.006-.088.007-.063.002-.125.009-.188.015-.125.011-.249.029-.373.055-.066.014-.131.029-.196.047-.125.035-.248.081-.37.132-.056.024-.113.044-.168.071-.173.085-.342.183-.502.303-1.391,1.042-1.673,3.014-.631,4.405l8.387,11.189c.575.767,1.468,1.23,2.426,1.258.031,0,.061.001.092.001.925,0,1.805-.407,2.404-1.116l11.162-13.214,5.327-6.306c1.121-1.328.955-3.313-.373-4.434Z"/></svg>