<?xml version="1.0" encoding="UTF-8"?><svg id="Icons" xmlns="http://www.w3.org/2000/svg" viewBox="0 0 64 64"><defs><style>.cls-1{fill:#fff;}.cls-2{fill:#05628a;}.cls-3{fill:#0d9dda;}</style></defs><circle class="cls-3" cx="32" cy="32" r="28"/><path class="cls-1" d="M37.504,9.643c5.521-1.56,11.267,1.669,12.833,7.211.112.396.199.794.263,1.19.17,1.056-1.149,1.339-1.778.474-2.712-3.728-6.685-6.325-11.109-7.333-.859-.196-1.058-1.303-.21-1.543Z"/><path class="cls-2" d="M15.17,44.954c-.245-.287-.483-.577-.715-.871-.051.067-.1.135-.15.203.05-.068.091-.144.143-.211.002.003.005.006.007.009.003-.004.006-.008.009-.012-6.211-7.839-8.101-17.872-5.946-27.304-1.766,2.712-3.072,5.75-3.814,9.002-.014.061-.029.122-.042.184-.14.633-.261,1.273-.357,1.921-.001.008-.002.015-.003.023-.088.599-.152,1.206-.201,1.817-.011.134-.022.269-.031.404-.042.626-.069,1.256-.07,1.893.003,7.328,2.824,13.994,7.433,18.983l.081-.404c.003-.014.008-.027.011-.041-.003.013-.007.026-.01.039l-.081.406c.852.922,1.763,1.79,2.731,2.591.012.01.023.02.035.029.325.268.656.527.993.78.028.021.057.043.085.065.326.243.657.478.993.706.042.028.083.057.125.085.328.22.661.433.998.64.054.033.107.066.161.099.33.199.665.391,1.004.577.064.035.129.07.193.105.333.179.67.352,1.011.518.075.036.15.072.224.107.335.159.673.313,1.015.459.085.036.17.071.255.106.337.14.677.275,1.021.403.093.034.188.067.281.1.339.121.68.238,1.025.347.104.032.208.062.312.093.339.102.68.201,1.024.291.115.03.232.056.347.084.337.083.676.164,1.018.235.128.026.258.048.387.073.334.064.668.127,1.006.18.145.022.292.038.438.059.325.045.65.09.978.124.18.018.363.028.544.043.298.025.595.053.895.068.327.017.657.021.987.026.157.003.312.012.469.012.663,0,1.319-.03,1.97-.076.132-.009.264-.019.396-.03,1.336-.112,2.647-.316,3.923-.61.066-.015.131-.03.197-.045,3.394-.807,6.55-2.229,9.339-4.147-11.854,2.853-24.533-.62-32.645-10.137Z"/><path class="cls-1" d="M33.72,17.419c-.216-1.071-1.102-1.877-2.188-1.992-2.545-.269-4.385-1.967-4.446-2.024-.987-.955-2.561-.934-3.524.049-.966.987-.949,2.57.038,3.536.043.042.134.128.269.248-6.815,2.956-11.062,10.239-9.835,17.904.779,4.865,3.65,9.112,7.877,11.652.403.242.847.357,1.285.357.849,0,1.676-.433,2.146-1.213.711-1.184.328-2.719-.855-3.431-2.959-1.778-4.97-4.751-5.515-8.156-.767-4.788,1.514-9.37,5.404-11.772-.046,1.026.537,2.017,1.542,2.428.31.126.629.186.944.186.985,0,1.919-.586,2.315-1.555.878-2.15,3.284-3.525,3.297-3.533.957-.526,1.461-1.614,1.246-2.685Z"/><path class="cls-1" d="M49.967,28.861c-.779-4.865-3.65-9.112-7.877-11.652-1.182-.711-2.719-.328-3.431.855-.711,1.184-.328,2.719.855,3.431,2.959,1.778,4.97,4.751,5.515,8.156.767,4.788-1.514,9.37-5.404,11.771.046-1.026-.537-2.017-1.543-2.428-1.278-.522-2.737.09-3.26,1.369-.878,2.15-3.284,3.525-3.297,3.533-.957.526-1.461,1.614-1.246,2.685s1.102,1.877,2.188,1.992c2.545.269,4.385,1.967,4.446,2.024.485.469,1.111.702,1.737.702.648,0,1.297-.251,1.787-.751.966-.987.949-2.57-.038-3.536-.042-.042-.134-.129-.269-.248,6.815-2.956,11.062-10.24,9.835-17.904Z"/></svg>