<?xml version="1.0" encoding="UTF-8"?><svg id="Icons" xmlns="http://www.w3.org/2000/svg" viewBox="0 0 64 64"><defs><style>.cls-1{fill:#fff;}</style></defs><path class="cls-1" d="M32,4c-15.464,0-28,12.536-28,28s12.536,28,28,28,28-12.536,28-28S47.464,4,32,4ZM26.862,25.192c-.314,0-.635-.061-.944-.187-1.006-.411-1.589-1.402-1.543-2.428-3.89,2.401-6.17,6.983-5.403,11.771.545,3.406,2.555,6.379,5.514,8.157,1.184.711,1.567,2.247.855,3.43-.469.781-1.296,1.213-2.145,1.213-.438,0-.883-.115-1.285-.357-4.228-2.539-7.098-6.786-7.877-11.651-1.227-7.666,3.019-14.95,9.835-17.905-.136-.12-.227-.207-.27-.248-.986-.967-1.003-2.549-.037-3.535.964-.982,2.538-1.005,3.523-.048.06.055,1.899,1.755,4.445,2.023,1.087.114,1.973.921,2.188,1.992.217,1.07-.288,2.158-1.245,2.685-.013.008-2.419,1.383-3.297,3.533-.396.969-1.33,1.556-2.315,1.556ZM47.01,41.266c-1.782,2.461-4.155,4.33-6.874,5.504.133.117.223.203.265.244.986.966,1.003,2.549.037,3.535-.489.5-1.138.751-1.786.751-.626,0-1.253-.233-1.737-.702-.062-.059-1.902-1.756-4.446-2.024-1.086-.115-1.973-.922-2.188-1.992-.215-1.071.289-2.158,1.246-2.685.014-.008,2.419-1.382,3.297-3.532.521-1.278,1.978-1.892,3.26-1.369,1.009.412,1.593,1.409,1.542,2.439,1.289-.792,2.422-1.839,3.336-3.101,1.827-2.523,2.562-5.606,2.068-8.682-.545-3.405-2.555-6.378-5.515-8.157-1.184-.711-1.566-2.247-.854-3.431.711-1.184,2.248-1.565,3.431-.854,4.227,2.541,7.097,6.787,7.876,11.651.704,4.395-.346,8.8-2.956,12.405Z"/></svg>