<?xml version="1.0" encoding="UTF-8"?><svg id="Icons" xmlns="http://www.w3.org/2000/svg" viewBox="0 0 64 64"><defs><style>.cls-1{fill:#001e5b;}</style></defs><path class="cls-1" d="M32,6c14.336,0,26,11.664,26,26s-11.664,26-26,26S6,46.336,6,32,17.664,6,32,6M32,4c-15.464,0-28,12.536-28,28s12.536,28,28,28,28-12.536,28-28S47.464,4,32,4h0Z"/><path class="cls-1" d="M32.474,20.103c.957-.526,1.462-1.614,1.245-2.685-.216-1.071-1.102-1.878-2.188-1.992-2.546-.269-4.386-1.969-4.445-2.023-.985-.957-2.56-.935-3.523.048-.966.986-.949,2.568.037,3.535.042.042.134.129.27.248-6.816,2.955-11.062,10.239-9.835,17.905.779,4.865,3.649,9.112,7.877,11.651.402.242.847.357,1.285.357.849,0,1.676-.432,2.145-1.213.712-1.183.328-2.719-.855-3.43-2.959-1.778-4.969-4.751-5.514-8.157-.767-4.787,1.514-9.37,5.403-11.771-.046,1.026.537,2.017,1.543,2.428.31.126.63.187.944.187.985,0,1.92-.587,2.315-1.556.878-2.15,3.284-3.525,3.297-3.533Z"/><path class="cls-1" d="M49.966,28.861c-.779-4.864-3.649-9.11-7.876-11.651-1.184-.711-2.72-.329-3.431.854-.712,1.184-.329,2.72.854,3.431,2.96,1.779,4.97,4.752,5.515,8.157.493,3.075-.241,6.158-2.068,8.682-.914,1.262-2.047,2.309-3.336,3.101.051-1.03-.533-2.026-1.542-2.439-1.279-.522-2.737.091-3.26,1.369-.878,2.15-3.283,3.524-3.297,3.532-.957.526-1.461,1.613-1.246,2.685.216,1.07,1.103,1.877,2.188,1.992,2.544.269,4.384,1.966,4.446,2.024.484.469,1.111.702,1.737.702.648,0,1.297-.251,1.786-.751.966-.986.949-2.569-.037-3.535-.042-.041-.132-.127-.265-.244,2.719-1.173,5.092-3.042,6.874-5.504,2.61-3.605,3.66-8.011,2.956-12.405Z"/></svg>