<?xml version="1.0" encoding="UTF-8"?><svg id="Icons" xmlns="http://www.w3.org/2000/svg" viewBox="0 0 64 64"><defs><style>.cls-1{fill:#001e5b;}</style></defs><path class="cls-1" d="M56.975,39.071l-1.598-8.035c-.901-4.533-4.281-8.044-8.562-9.241,2.714-1.694,4.53-4.695,4.542-8.131.019-5.317-4.277-9.643-9.594-9.661-.011,0-.023,0-.034,0-5.302,0-9.608,4.288-9.627,9.594-.012,3.44,1.788,6.457,4.496,8.169-1.149.315-2.23.801-3.221,1.424-1.565-1.114-3.473-1.778-5.54-1.786-.011,0-.023,0-.034,0-5.302,0-9.608,4.288-9.627,9.594-.012,3.44,1.787,6.457,4.495,8.169-2.822.773-5.254,2.554-6.854,4.971,0,0,0,0,0-.001-3.214-2.496-5.381-6.112-6.032-10.179-.682-4.254.335-8.519,2.861-12.009,1.733-2.394,4.043-4.209,6.691-5.344-.26.465-.501.945-.706,1.447-.522,1.278.091,2.737,1.369,3.259.31.126.63.186.944.186.985,0,1.92-.586,2.315-1.556,1.312-3.214,4.843-5.633,4.873-5.653.874-.585,1.288-1.656,1.035-2.677-.253-1.021-1.118-1.775-2.164-1.886-3.64-.384-6.238-2.809-6.31-2.877-.989-.958-2.564-.939-3.527.045-.966.986-.949,2.569.037,3.535.053.052.529.508,1.345,1.104-3.971,1.422-7.426,3.993-9.953,7.484-3.31,4.572-4.642,10.159-3.749,15.732.932,5.817,4.223,10.935,9.088,14.201l-1.551,7.36c-.394,1.866,1.091,3.559,2.943,3.559.12,0,.241-.007.364-.022,3.773-.45,7.612-.681,11.506-.681.114,0,.229,0,.343,0,4.121.014,8.181.288,12.164.804.133.017.265.026.395.026,1.836,0,3.318-1.667,2.949-3.526l-1.598-8.035c-.523-2.632-1.885-4.914-3.771-6.604,0,0,0,0,0,0,1.143-.04,2.29-.067,3.443-.067.115,0,.228,0,.343,0,4.121.014,8.181.288,12.165.804.133.017.265.026.395.026,1.836,0,3.318-1.667,2.949-3.526ZM39.489,48.827l1.598,8.035c.069.346-.068.602-.194.756-.198.241-.487.379-.793.379-.045,0-.092-.003-.138-.009-4.088-.53-8.265-.806-12.414-.821h-.35c-3.922,0-7.872.233-11.742.694-.043.005-.085.008-.127.008-.309,0-.599-.14-.797-.384-.127-.156-.262-.416-.189-.763l1.691-8.022c.778-3.693,3.525-6.607,7.167-7.605.764-.209,1.333-.85,1.449-1.634.117-.784-.24-1.562-.909-1.986-2.241-1.417-3.573-3.836-3.564-6.471.015-4.191,3.436-7.601,7.627-7.601h.027c4.206.015,7.616,3.449,7.601,7.654-.009,2.631-1.355,5.039-3.601,6.441-.672.42-1.033,1.197-.921,1.981.113.784.678,1.428,1.441,1.642,3.662,1.024,6.398,3.977,7.139,7.705ZM54.819,40.218c-.198.241-.487.379-.793.379-.045,0-.092-.003-.138-.009-4.088-.53-8.265-.806-12.415-.821h-.35c-2.073,0-4.153.069-6.225.199.097.047.067.024.163.073,0,0,.13.066.13.067-.729-.379-1.5-.685-2.303-.909,2.714-1.694,4.53-4.695,4.542-8.131.009-2.49-.937-4.755-2.482-6.47.682-.374,1.405-.689,2.178-.901.764-.209,1.333-.85,1.449-1.634.117-.784-.24-1.562-.909-1.986-2.241-1.417-3.574-3.836-3.564-6.471.015-4.191,3.436-7.601,7.627-7.601h.027c4.206.015,7.616,3.449,7.601,7.654-.009,2.631-1.355,5.039-3.601,6.441-.672.42-1.033,1.197-.921,1.981.113.784.678,1.428,1.441,1.642,3.662,1.024,6.397,3.977,7.139,7.705l1.598,8.035c.069.346-.068.602-.194.756Z"/></svg>