<?xml version="1.0" encoding="UTF-8"?><svg id="Icons" xmlns="http://www.w3.org/2000/svg" viewBox="0 0 64 64"><defs><style>.cls-1{fill:#fff;}</style></defs><path class="cls-1" d="M55.803,19.282c2.009-1.563,3.311-3.99,3.311-6.733,0-4.722-3.828-8.549-8.55-8.549-3.195,0-5.96,1.764-7.427,4.361-3.18-1.327-6.668-2.062-10.329-2.062-14.829,0-26.851,12.021-26.851,26.851,0,5.911,1.915,11.372,5.151,15.807-1.294,1.057-2.121,2.665-2.121,4.466,0,3.185,2.582,5.767,5.767,5.767,2.04,0,3.829-1.062,4.854-2.66,3.899,2.206,8.4,3.472,13.2,3.472,14.829,0,26.851-12.021,26.851-26.851,0-5.075-1.409-9.82-3.855-13.867ZM32.807,58c-4.524,0-8.765-1.221-12.423-3.342.087-.398.136-.811.136-1.236,0-3.185-2.582-5.766-5.767-5.766-.658,0-1.288.116-1.877.319-3.089-4.142-4.919-9.273-4.919-14.825,0-13.703,11.148-24.851,24.851-24.851s24.851,11.148,24.851,24.851-11.148,24.851-24.851,24.851Z"/><path class="cls-1" d="M21.182,31.74h12.524s10.735,0,10.735,0c.716,0,1.342-.358,1.61-.984.268-.626.268-1.342-.179-1.879l-5.367-7.157c-.716-.895-2.147-.895-2.863,0l-3.847,5.099-4.831-7.693c-.358-.537-.895-.805-1.521-.805s-1.163.268-1.521.805l-6.262,9.84c-.358.537-.358,1.252-.089,1.789.358.626.984.984,1.61.984Z"/><path class="cls-1" d="M43.702,39.671h-21.79c-1.381,0-2.5-1.119-2.5-2.5s1.119-2.5,2.5-2.5h21.79c1.381,0,2.5,1.119,2.5,2.5s-1.119,2.5-2.5,2.5Z"/><path class="cls-1" d="M40.202,47.678h-14.79c-1.381,0-2.5-1.119-2.5-2.5s1.119-2.5,2.5-2.5h14.79c1.381,0,2.5,1.119,2.5,2.5s-1.119,2.5-2.5,2.5Z"/></svg>