<?xml version="1.0" encoding="UTF-8"?><svg id="Icons" xmlns="http://www.w3.org/2000/svg" viewBox="0 0 64 64"><defs><style>.cls-1{fill:#fff;}</style></defs><path class="cls-1" d="M55.808,19.292c2.008-1.564,3.305-3.999,3.305-6.742,0-4.722-3.828-8.549-8.55-8.549-3.196,0-5.978,1.757-7.444,4.354-3.175-1.322-6.658-2.055-10.312-2.055-14.829,0-26.851,12.021-26.851,26.851,0,5.911,1.915,11.372,5.151,15.807-1.294,1.057-2.121,2.665-2.121,4.466,0,3.185,2.582,5.767,5.767,5.767,2.04,0,3.829-1.062,4.854-2.66,3.899,2.206,8.4,3.472,13.2,3.472,14.829,0,26.851-12.021,26.851-26.851,0-5.071-1.407-9.812-3.85-13.858ZM40.202,47.678h-14.79c-1.381,0-2.5-1.119-2.5-2.5s1.119-2.5,2.5-2.5h14.79c1.381,0,2.5,1.119,2.5,2.5s-1.119,2.5-2.5,2.5ZM43.702,39.671h-21.79c-1.381,0-2.5-1.119-2.5-2.5s1.119-2.5,2.5-2.5h21.79c1.381,0,2.5,1.119,2.5,2.5s-1.119,2.5-2.5,2.5ZM46.051,30.756c-.268.626-.895.984-1.61.984h-23.259c-.626,0-1.252-.358-1.61-.984-.268-.537-.268-1.252.09-1.789l6.262-9.84c.358-.537.895-.805,1.521-.805s1.163.269,1.521.805l4.831,7.693,3.847-5.099c.715-.895,2.147-.895,2.862,0l5.368,7.157c.447.537.447,1.252.179,1.879Z"/></svg>