<?xml version="1.0" encoding="UTF-8"?><svg id="Icons" xmlns="http://www.w3.org/2000/svg" viewBox="0 0 64 64"><defs><style>.cls-1{fill:#001e5b;}.cls-2{fill:#0d9bd8;}.cls-3{fill:#fff;}.cls-4{fill:#056288;}</style></defs><circle class="cls-1" cx="50.564" cy="12.549" r="8.549" transform="translate(28.364 59.681) rotate(-78.717)"/><circle class="cls-2" cx="32.807" cy="33.149" r="26.851"/><path class="cls-4" d="M11.886,16.342c-2.74,9.815-.869,20.51,5.991,28.558,7.688,9.019,19.653,12.379,30.904,9.815-4.466,3.32-9.999,5.284-15.992,5.284-14.819,0-26.833-12.013-26.833-26.833,0-6.371,2.22-12.223,5.929-16.825Z"/><path class="cls-3" d="M37.941,12.439c6.195-1.751,12.642,1.872,14.4,8.092.126.445.224.89.296,1.336.191,1.185-1.289,1.502-1.995.532-3.043-4.183-7.501-7.097-12.465-8.228-.964-.22-1.187-1.463-.235-1.731Z"/><circle class="cls-1" cx="14.754" cy="53.422" r="5.767" transform="translate(-38.931 67.191) rotate(-88.946)"/><path class="cls-3" d="M21.182,31.74h12.524s10.735,0,10.735,0c.716,0,1.342-.358,1.61-.984.268-.626.268-1.342-.179-1.879l-5.367-7.157c-.716-.895-2.147-.895-2.863,0l-3.847,5.099-4.831-7.693c-.358-.537-.895-.805-1.521-.805s-1.163.268-1.521.805l-6.262,9.84c-.358.537-.358,1.252-.089,1.789.358.626.984.984,1.61.984Z"/><path class="cls-3" d="M43.702,39.671h-21.79c-1.381,0-2.5-1.119-2.5-2.5s1.119-2.5,2.5-2.5h21.79c1.381,0,2.5,1.119,2.5,2.5s-1.119,2.5-2.5,2.5Z"/><path class="cls-3" d="M40.202,47.678h-14.79c-1.381,0-2.5-1.119-2.5-2.5s1.119-2.5,2.5-2.5h14.79c1.381,0,2.5,1.119,2.5,2.5s-1.119,2.5-2.5,2.5Z"/></svg>