<?xml version="1.0" encoding="UTF-8"?><svg id="Icons" xmlns="http://www.w3.org/2000/svg" viewBox="0 0 64 64"><defs><style>.cls-1{fill:#007bae;}.cls-2{fill:#001e5b;}.cls-3{fill:#107cad;}.cls-4{fill:#fff;}.cls-5{fill:#08abed;}.cls-6{fill:#05628a;}.cls-7{fill:#00618b;}.cls-8{fill:#0d9dda;}</style></defs><circle class="cls-2" cx="32.686" cy="11.471" r="7.471" transform="translate(20.144 43.761) rotate(-88.112)"/><circle class="cls-2" cx="13.2" cy="50.389" r="7.471" transform="translate(-37.596 61.922) rotate(-88.112)"/><circle class="cls-2" cx="51.623" cy="50.389" r="7.471" transform="translate(-.44 100.324) rotate(-88.112)"/><circle class="cls-5" cx="31.385" cy="35.947" r="21.838"/><path class="cls-3" d="M32,11.471c-13.401,0-24.265,10.864-24.265,24.265s10.864,24.265,24.265,24.265,24.265-10.864,24.265-24.265-10.864-24.265-24.265-24.265ZM31.134,44.053c-1.302,0-2.565.043-3.788.113-.288-1.769-.496-3.748-.589-5.93h10.487c-.094,2.226-.31,4.238-.607,6.033-1.763-.135-3.602-.216-5.502-.216ZM35.482,49.194c-1.183,3.742-2.653,5.707-3.482,5.707-.834,0-2.321-1.993-3.508-5.79.861-.037,1.742-.058,2.642-.058,1.495,0,2.948.051,4.348.141ZM26.757,33.235c.092-2.182.301-4.161.589-5.93,1.224.07,2.486.113,3.788.113,1.941,0,3.777-.084,5.502-.219.297,1.797.514,3.809.608,6.037h-10.487ZM31.134,22.418c-.9,0-1.781-.021-2.642-.058,1.188-3.797,2.674-5.79,3.508-5.79.828,0,2.296,1.961,3.479,5.697-1.379.093-2.828.151-4.345.151ZM39.149,17.861c1.934.776,3.713,1.852,5.279,3.178-1.128.238-2.437.477-3.895.69-.396-1.396-.858-2.694-1.384-3.868ZM23.408,21.939c-1.498-.183-2.88-.404-4.126-.635,1.636-1.444,3.512-2.616,5.569-3.442-.552,1.233-1.035,2.602-1.443,4.078ZM22.367,26.844c-.32,2.057-.525,4.213-.614,6.391h-8.837c.359-2.754,1.302-5.321,2.701-7.585,1.826.416,4.118.856,6.75,1.194ZM21.753,38.235c.089,2.179.294,4.334.614,6.391-2.632.338-4.924.778-6.75,1.194-1.399-2.264-2.341-4.831-2.701-7.585h8.837ZM23.408,49.532c.408,1.475.891,2.845,1.443,4.077-2.057-.826-3.933-1.998-5.569-3.442,1.246-.232,2.628-.453,4.126-.635ZM40.541,49.714c1.406.2,2.714.435,3.917.69-1.573,1.339-3.363,2.424-5.309,3.206.529-1.182.995-2.489,1.392-3.895ZM41.6,44.822c.338-2.117.554-4.339.646-6.587h8.837c-.377,2.889-1.39,5.577-2.904,7.919-1.87-.497-4.092-.965-6.579-1.333ZM42.246,33.235c-.092-2.253-.309-4.48-.648-6.601,2.714-.409,4.95-.909,6.572-1.333,1.519,2.346,2.535,5.039,2.913,7.934h-8.837Z"/><path class="cls-1" d="M9.349,27.034c.125-.327.257-.65.396-.97-.139.32-.27.643-.396.97Z"/><path class="cls-1" d="M40.985,58.274c-.275.109-.55.217-.829.316.279-.1.554-.207.829-.316Z"/><path class="cls-1" d="M10.106,25.264c.177-.37.363-.736.558-1.095-.195.36-.381.725-.558,1.095Z"/><path class="cls-1" d="M39.419,58.84c-.422.135-.848.262-1.28.374.432-.113.858-.239,1.28-.374Z"/><path class="cls-1" d="M45.641,55.803c-.04.027-.079.055-.119.082.04-.027.079-.054.119-.082Z"/><path class="cls-1" d="M42.729,57.5c-.177.087-.356.172-.535.255.179-.083.358-.167.535-.255Z"/><path class="cls-1" d="M37.522,59.361c-.386.089-.775.171-1.168.242.393-.071.782-.152,1.168-.242Z"/><path class="cls-1" d="M35.825,59.697c-.526.083-1.058.148-1.595.197.537-.049,1.069-.113,1.595-.197Z"/><path class="cls-1" d="M33.776,59.928c-.568.041-1.139.069-1.716.07.578-.001,1.149-.029,1.716-.07Z"/><path class="cls-1" d="M11.175,23.28c.077-.129.158-.256.238-.384-.08.128-.16.255-.238.384Z"/><path class="cls-1" d="M12.477,21.328c.045-.061.089-.121.134-.181-.045.06-.089.121-.134.181Z"/><path class="cls-7" d="M36.354,59.603c-.176.032-.352.066-.529.094.178-.028.353-.063.529-.094Z"/><path class="cls-7" d="M9.745,26.064c.117-.268.235-.536.361-.799-.126.264-.245.531-.361.799Z"/><path class="cls-7" d="M46.497,55.217c-.015.003-.029.005-.044.009-.267.198-.538.391-.813.578.286-.194.579-.38.856-.586Z"/><path class="cls-7" d="M45.522,55.885c-.89.599-1.824,1.137-2.793,1.615.97-.478,1.901-1.017,2.793-1.615Z"/><path class="cls-7" d="M40.157,58.591c-.244.087-.49.17-.738.25.248-.079.493-.163.738-.25Z"/><path class="cls-7" d="M42.194,57.754c-.397.184-.8.357-1.209.52.409-.163.811-.336,1.209-.52Z"/><path class="cls-7" d="M38.139,59.215c-.204.053-.411.098-.617.146.207-.048.413-.093.617-.146Z"/><path class="cls-7" d="M34.23,59.894c-.151.014-.303.024-.454.035.152-.011.303-.021.454-.035Z"/><path class="cls-7" d="M11.413,22.896c.335-.536.689-1.06,1.064-1.568-.375.508-.729,1.03-1.064,1.568Z"/><path class="cls-7" d="M9.016,27.959c.105-.311.216-.62.333-.926-.117.306-.228.614-.333.926Z"/><path class="cls-7" d="M13.102,20.484c-.172.214-.326.443-.491.663.155-.205.315-.406.477-.606.005-.019.009-.038.014-.056Z"/><path class="cls-7" d="M32.022,60c.012,0,.024-.001.037-.001-.016,0-.032.001-.048.001.004,0,.007,0,.011,0Z"/><path class="cls-7" d="M10.664,24.169c.163-.301.336-.596.511-.889-.175.293-.348.588-.511.889Z"/><path class="cls-1" d="M10.017,25.462c.233-.498.482-.988.747-1.467-.265.479-.514.969-.747,1.467Z"/><path class="cls-1" d="M41.479,58.078c-.494.21-.999.399-1.51.576.51-.177,1.016-.366,1.51-.576Z"/><path class="cls-1" d="M39.55,58.796c-.517.169-1.041.325-1.573.46.532-.135,1.056-.291,1.573-.46Z"/><path class="cls-1" d="M9.189,27.449c.195-.538.414-1.063.645-1.583-.232.519-.45,1.045-.645,1.583Z"/><path class="cls-1" d="M37.692,59.322c-.489.117-.983.219-1.483.307.5-.088.994-.189,1.483-.307Z"/><path class="cls-1" d="M33.797,59.927c-.59.043-1.184.073-1.785.073.601,0,1.195-.03,1.785-.073Z"/><path class="cls-1" d="M46.254,55.367c-.36.262-.728.513-1.103.755.375-.242.743-.493,1.103-.755Z"/><path class="cls-1" d="M44.748,56.381c-.437.27-.883.527-1.337.77.455-.243.901-.5,1.337-.77Z"/><path class="cls-1" d="M35.867,59.69c-.556.089-1.119.157-1.688.208.568-.051,1.131-.119,1.688-.208Z"/><path class="cls-1" d="M12.043,21.938c.279-.402.571-.794.872-1.179-.302.384-.594.776-.872,1.179Z"/><path class="cls-1" d="M43.015,57.353c-.416.212-.839.415-1.268.603.43-.189.852-.391,1.268-.603Z"/><path class="cls-1" d="M10.99,23.603c.268-.464.547-.921.845-1.364-.298.444-.577.901-.845,1.364Z"/><path class="cls-3" d="M46.468,55.22s-.007.001-.011.002c-.067.05-.136.096-.204.145.07-.051.145-.095.215-.147Z"/><path class="cls-3" d="M36.209,59.629c-.114.02-.227.043-.342.061.115-.018.228-.041.342-.061Z"/><path class="cls-3" d="M37.977,59.256c-.094.024-.191.043-.286.066.095-.023.191-.042.286-.066Z"/><path class="cls-3" d="M43.41,57.151c-.13.07-.263.135-.395.203.132-.067.265-.133.395-.203Z"/><path class="cls-3" d="M39.969,58.654c-.139.048-.278.096-.418.142.14-.046.279-.093.418-.142Z"/><path class="cls-3" d="M41.747,57.956c-.09.04-.178.083-.268.121.091-.039.178-.082.268-.121Z"/><path class="cls-3" d="M45.151,56.123c-.134.087-.267.174-.403.258.136-.084.269-.172.403-.258Z"/><path class="cls-3" d="M34.18,59.898c-.127.011-.255.02-.383.029.128-.009.256-.018.383-.029Z"/><path class="cls-3" d="M13.098,20.513c-.064.08-.119.166-.182.246.059-.075.117-.151.177-.225.002-.007.003-.014.005-.021Z"/><path class="cls-3" d="M10.764,23.995c.073-.132.15-.262.226-.392-.076.131-.152.26-.226.392Z"/><path class="cls-3" d="M9.834,25.866c.06-.135.12-.271.183-.405-.063.134-.123.269-.183.405Z"/><path class="cls-8" d="M24.851,53.609c-.34-.758-.643-1.583-.929-2.437-.662-.449-1.304-.932-1.929-1.444-.954.138-1.873.283-2.711.439,1.636,1.444,3.512,2.616,5.569,3.442Z"/><path class="cls-8" d="M15.617,45.82c.646-.147,1.371-.296,2.128-.444-1.719-2.211-3.043-4.618-3.984-7.141h-.845c.359,2.754,1.302,5.321,2.701,7.585Z"/><path class="cls-3" d="M11.835,22.238c.068-.101.139-.2.208-.3-.069.1-.141.199-.208.3Z"/><polygon class="cls-3" points="32.004 60 32.012 60 32.002 60 32.004 60"/><path class="cls-3" d="M9.099,27.715c.031-.088.058-.178.09-.266-.032.088-.059.178-.09.266Z"/><path class="cls-6" d="M23.873,51.139c.286.854.638,1.712.978,2.471-2.057-.826-3.933-1.998-5.569-3.442.838-.156,1.757-.301,2.711-.439-1.236-1.012-2.407-2.131-3.476-3.385-.269-.316-.519-.642-.771-.966-.758.147-1.482.297-2.128.444-1.399-2.264-2.341-4.831-2.701-7.585h.845c-2.102-5.635-2.301-11.839-.669-17.701-.06.074-.118.15-.177.225-.302.384-.594.776-.872,1.179-.069.1-.141.199-.208.3-.297.444-.577.901-.845,1.364-.076.131-.152.26-.226.392-.265.479-.514.969-.747,1.467-.063.134-.123.269-.183.405-.231.519-.45,1.045-.645,1.583-.032.088-.059.178-.09.266-.18.514-.343,1.036-.488,1.565-.027.097-.057.192-.082.289-.149.569-.273,1.148-.381,1.732-.024.128-.047.257-.069.386-.099.588-.178,1.182-.234,1.784-.01.109-.016.218-.025.327-.05.636-.083,1.277-.084,1.926,0,.003,0,.006,0,.009.001,13.402,10.865,24.266,24.267,24.267.003,0,.006,0,.01,0,.601,0,1.195-.03,1.785-.073.128-.009.256-.018.383-.029.568-.051,1.131-.119,1.688-.208.115-.018.228-.041.342-.061.5-.087.994-.189,1.483-.307.095-.023.191-.042.286-.066.532-.135,1.056-.291,1.573-.46.14-.046.279-.093.418-.142.511-.177,1.016-.367,1.51-.576.09-.039.178-.082.268-.121.43-.188.852-.391,1.268-.603.132-.067.265-.133.395-.203.455-.243.9-.5,1.337-.77.136-.084.269-.172.403-.258.375-.242.743-.493,1.103-.755.067-.049.137-.095.204-.145-7.816,1.777-16.053.35-22.584-4.084Z"/><path class="cls-4" d="M33.705,14.974c5.746-1.928,11.973,1.185,13.908,6.953.138.412.251.827.339,1.242.234,1.105-1.144,1.471-1.852.591-3.052-3.795-7.376-6.332-12.095-7.169-.916-.163-1.183-1.321-.3-1.617Z"/></svg>