<?xml version="1.0" encoding="UTF-8"?><svg id="Icons" xmlns="http://www.w3.org/2000/svg" viewBox="0 0 64 64"><defs><style>.cls-1{fill:#fff;}</style></defs><path class="cls-1" d="M54.923,43.694h0c.866-2.494,1.342-5.17,1.342-7.958,0-10.852-7.125-20.038-16.952-23.141.056-.367.093-.741.093-1.124,0-4.126-3.345-7.471-7.471-7.471s-7.471,3.345-7.471,7.471c0,.397.04.785.1,1.165,0,0,0,0,.002,0-9.764,3.14-16.831,12.293-16.831,23.1,0,2.933.521,5.744,1.474,8.346-2.089,1.325-3.48,3.651-3.48,6.308,0,4.126,3.345,7.471,7.471,7.471,1.997,0,3.807-.788,5.147-2.065-.002-.002-.005-.004-.007-.005,3.85,2.627,8.494,4.174,13.499,4.206.054.002.106.011.161.011s.107-.009.161-.011c5.215-.034,10.036-1.715,13.977-4.546,1.365,1.479,3.313,2.41,5.484,2.41,4.126,0,7.471-3.345,7.471-7.471,0-2.94-1.703-5.476-4.171-6.695ZM32,57.5c-.014,0-.028-.001-.042-.001-1.762-.053-3.951-3.507-5.288-9.534,1.426-.101,2.917-.162,4.464-.162,2.153,0,4.22.105,6.17.281-1.34,5.954-3.512,9.362-5.262,9.415-.014,0-.028.001-.042.001ZM32,14.089c1.741,0,3.916,3.359,5.269,9.262-1.997.196-4.065.317-6.135.317-1.537,0-3.02-.06-4.438-.16,1.351-5.999,3.547-9.419,5.304-9.419ZM31.134,26.168c2.246,0,4.477-.13,6.621-.346.431,2.537.709,5.439.771,8.664h-13.052c.06-3.158.328-6.007.744-8.506,1.565.117,3.208.189,4.917.189ZM49.978,47.987c-2.388-.785-5.751-1.573-9.724-2.09.464-2.841.729-5.885.784-8.911h12.688c-.231,4.064-1.582,7.832-3.749,11.002ZM37.781,45.62c-2.099-.198-4.326-.317-6.647-.317-1.716,0-3.366.073-4.938.191-.409-2.503-.671-5.353-.725-8.508h13.057c-.055,3.209-.325,6.102-.747,8.635ZM41.034,34.485c-.061-3.046-.333-6.105-.809-8.955,3.823-.516,7.235-1.275,9.768-2.023,2.158,3.165,3.501,6.925,3.732,10.979h-12.692ZM22.965,34.485h-12.691c.221-3.886,1.469-7.501,3.473-10.581,2.166.576,5.672,1.366,9.99,1.845-.453,2.787-.713,5.768-.772,8.736ZM22.962,36.985c.054,2.965.308,5.948.755,8.739-4.309.479-7.807,1.268-9.97,1.843-2.004-3.081-3.251-6.695-3.473-10.582h12.688ZM14.106,52.12c-.005-.005-.01-.01-.014-.015.004.005.009.01.014.015ZM24.174,48.187c.76,3.588,1.868,6.705,3.305,8.837-4.822-1.023-9.058-3.648-12.125-7.289,2.128-.526,5.182-1.154,8.82-1.548ZM39.79,48.354c3.401.434,6.331,1.075,8.547,1.738-3.04,3.456-7.154,5.943-11.817,6.933,1.415-2.099,2.511-5.152,3.27-8.671ZM52.48,48.742s-.005.008-.008.012c.003-.004.005-.008.008-.012ZM48.336,21.377c-2.29.619-5.277,1.245-8.583,1.686-.775-3.527-1.893-6.573-3.333-8.64,4.704.974,8.854,3.474,11.916,6.954ZM27.579,14.423c-1.47,2.11-2.603,5.243-3.379,8.863-3.65-.394-6.713-1.024-8.846-1.551,3.089-3.667,7.361-6.304,12.226-7.312Z"/></svg>