<?xml version="1.0" encoding="UTF-8"?><svg id="Icons" xmlns="http://www.w3.org/2000/svg" viewBox="0 0 64 64"><defs><style>.cls-1{fill:#fff;}</style></defs><path class="cls-1" d="M31.992,4.007c-10.492,0-19.632,5.771-24.426,14.312h14.2c.076,0,.151-.031.205-.085l3.976-4.008c.986-.994,2.354-1.564,3.754-1.564h7.671c.919-1.836,2.813-3.1,5.006-3.1,3.093,0,5.6,2.507,5.6,5.6s-2.507,5.6-5.6,5.6c-2.193,0-4.087-1.264-5.006-3.1h-7.671c-.077,0-.149.03-.204.085l-3.977,4.009c-.986.994-2.354,1.563-3.754,1.563H5.378c-.64,1.962-1.074,4.017-1.266,6.143h40.922c.919-1.836,2.813-3.1,5.006-3.1,3.093,0,5.6,2.507,5.6,5.6s-2.507,5.6-5.6,5.6c-2.193,0-4.087-1.264-5.006-3.1H4.105c.186,2.141.618,4.212,1.259,6.188h16.408c1.412,0,2.74.55,3.739,1.548l3.98,3.98c.053.053.127.084.203.084h7.677c.919-1.836,2.813-3.1,5.006-3.1,3.093,0,5.6,2.507,5.6,5.6s-2.507,5.6-5.6,5.6c-2.193,0-4.087-1.264-5.006-3.1h-7.677c-1.412,0-2.739-.55-3.738-1.548l-3.98-3.98c-.054-.054-.126-.084-.204-.084H7.542c4.787,8.565,13.94,14.357,24.45,14.357,15.464,0,28-12.536,28-28S47.456,4.007,31.992,4.007Z"/></svg>