<?xml version="1.0" encoding="UTF-8"?><svg id="Icons" xmlns="http://www.w3.org/2000/svg" viewBox="0 0 64 64"><defs><style>.cls-1{fill:#3a49da;}.cls-2{fill:#aacbff;}.cls-3{fill:#2f2cb7;}.cls-4{fill:#fff;}.cls-5{fill:#57a3fd;}</style></defs><circle class="cls-2" cx="32" cy="32" r="28.058"/><path class="cls-1" d="M39.519,10.999c-2.254,0-4.201,1.299-5.145,3.187h-6.075c-1.438,0-2.845.585-3.858,1.606l-4.088,4.121c-.056.056-.13.087-.21.087H6.634c-.774,1.633-1.395,3.351-1.844,5.139h15.353c1.44,0,2.848-.586,3.859-1.607l4.086-4.119c.056-.056.132-.088.211-.088h6.075c.945,1.887,2.891,3.186,5.145,3.186,3.179,0,5.756-2.577,5.756-5.756s-2.577-5.756-5.756-5.756Z"/><path class="cls-5" d="M15.135,44.981c-.245-.288-.484-.579-.717-.873-6.224-7.855-8.121-17.927-5.961-27.378-1.789,2.7-3.066,5.768-3.81,9.027-.014.062-.029.123-.043.184-.14.634-.261,1.275-.358,1.925-.001.008-.002.015-.003.023-.094.6-.156,1.203-.202,1.821-.01.135-.022.27-.031.405-.042.627-.07,1.259-.07,1.897.003,7.343,2.829,14.023,7.449,19.023h0c.854.925,1.766,1.794,2.737,2.597.012.01.023.02.035.029.325.268.657.528.995.782.029.021.057.043.085.065.326.243.659.479.995.708.042.029.084.057.126.086.328.221.662.434,1,.641.054.033.108.066.162.099.331.2.666.392,1.006.578.064.035.129.07.194.105.334.18.671.353,1.013.519.075.036.15.072.225.108.336.16.674.314,1.017.46.085.036.17.071.255.106.338.141.679.276,1.023.403.093.034.188.067.282.101.34.122.682.239,1.028.348.104.033.209.062.313.094.34.103.681.202,1.026.291.115.03.232.056.348.085.338.083.677.164,1.02.235.128.027.258.048.388.073.334.064.669.127,1.008.18.145.023.292.039.438.059.326.045.651.091.98.125.18.018.363.028.545.044.298.025.596.053.897.068.328.017.659.021.989.026.157.003.312.012.47.012.664,0,1.322-.03,1.974-.076.132-.009.265-.019.397-.03,1.339-.113,2.652-.317,3.931-.611.066-.015.132-.03.197-.046,3.401-.809,6.563-2.234,9.358-4.156-11.879,2.859-24.584-.622-32.713-10.158Z"/><path class="cls-4" d="M43.851,15.983c-.328-1.31-1.186-2.351-2.291-2.976-1.04-.588-2.299-.808-3.556-.508-.092.022-.183.046-.273.073-.581.174-.412.903.173,1.063,1.08.295,2.087.796,2.974,1.459.782.585,1.473,1.295,2.024,2.117.333.497,1.097.431,1.088-.163-.005-.352-.051-.709-.14-1.066Z"/><path class="cls-3" d="M34.826,15.294c0-.887.187-1.73.519-2.495-.978,1.032-1.582,2.422-1.582,3.956,0,3.179,2.577,5.756,5.756,5.756,1.391,0,2.667-.494,3.662-1.315-.654.232-1.356.365-2.09.365-3.46,0-6.266-2.805-6.266-6.266Z"/><path class="cls-1" d="M48.429,26.199c-2.254,0-4.2,1.299-5.145,3.186H4.067c-.08.862-.125,1.733-.125,2.615,0,.851.044,1.692.119,2.524h39.223c.944,1.888,2.891,3.187,5.145,3.187,3.179,0,5.756-2.577,5.756-5.756s-2.577-5.756-5.756-5.756Z"/><path class="cls-4" d="M52.76,31.183c-.328-1.31-1.186-2.351-2.291-2.976-1.04-.588-2.299-.808-3.556-.508-.092.022-.183.046-.273.073-.581.174-.412.903.173,1.063,1.08.295,2.087.796,2.974,1.459.782.585,1.473,1.295,2.024,2.117.333.497,1.097.431,1.088-.163-.005-.352-.051-.709-.14-1.066Z"/><path class="cls-3" d="M43.735,30.494c0-.887.187-1.73.519-2.495-.978,1.032-1.582,2.422-1.582,3.956,0,3.179,2.577,5.756,5.756,5.756,1.391,0,2.667-.494,3.662-1.315-.654.232-1.356.365-2.09.365-3.46,0-6.266-2.805-6.266-6.266Z"/><path class="cls-1" d="M39.519,41.399c-2.254,0-4.2,1.299-5.145,3.186h-6.082c-.078,0-.154-.031-.209-.087l-4.089-4.088c-1.025-1.028-2.392-1.594-3.845-1.594H4.78c.446,1.787,1.064,3.506,1.834,5.139h13.535c.079,0,.152.03.209.088l4.09,4.09c1.012,1.011,2.413,1.591,3.844,1.591h6.082c.944,1.888,2.891,3.187,5.145,3.187,3.179,0,5.756-2.577,5.756-5.756s-2.577-5.756-5.756-5.756Z"/><path class="cls-4" d="M43.851,46.383c-.328-1.31-1.186-2.351-2.291-2.976-1.04-.588-2.299-.808-3.556-.508-.092.022-.183.046-.273.073-.581.174-.412.903.173,1.063,1.08.295,2.087.796,2.974,1.459.782.585,1.473,1.295,2.024,2.117.333.497,1.097.431,1.088-.163-.005-.352-.051-.709-.14-1.066Z"/><path class="cls-3" d="M34.826,45.694c0-.887.187-1.73.519-2.495-.978,1.032-1.582,2.422-1.582,3.956,0,3.179,2.577,5.756,5.756,5.756,1.391,0,2.667-.494,3.662-1.315-.654.232-1.356.365-2.09.365-3.46,0-6.266-2.805-6.266-6.266Z"/><path class="cls-3" d="M7.875,20h-1.254c-.776,1.634-1.378,3.35-1.83,5.139h2.83c-.043-1.712.035-3.429.255-5.139Z"/><path class="cls-3" d="M7.995,29.385h-3.928c-.01.109-.016.215-.025.324-.011.135-.022.27-.031.405-.042.627-.07,1.259-.07,1.897,0,.847.042,1.685.116,2.513h5.187c-.557-1.68-.978-3.398-1.25-5.139Z"/><path class="cls-3" d="M11.044,38.817h-6.264c.447,1.788,1.068,3.505,1.839,5.139h7.686c-1.273-1.627-2.354-3.35-3.26-5.139Z"/></svg>