<?xml version="1.0" encoding="UTF-8"?><svg id="Icons" xmlns="http://www.w3.org/2000/svg" viewBox="0 0 64 64"><defs><style>.cls-1{fill:#001e5b;}</style></defs><path class="cls-1" d="M31.992,4.007c-15.464,0-28,12.536-28,28s12.536,28,28,28,28-12.536,28-28S47.456,4.007,31.992,4.007ZM31.992,58.007c-9.544,0-17.899-5.173-22.421-12.859h11.581c.074,0,.144.029.196.082l3.833,3.833c.962.962,2.242,1.492,3.603,1.492h7.415c.887,1.764,2.694,2.987,4.803,2.987,2.979,0,5.395-2.415,5.395-5.395s-2.415-5.395-5.395-5.395c-2.109,0-3.916,1.222-4.803,2.987h-7.415c-.074,0-.144-.029-.196-.082l-3.833-3.833c-.962-.962-2.242-1.492-3.603-1.492H7.585c-.071,0-.138.025-.208.031-.65-1.909-1.085-3.915-1.273-5.993h38.364c.887,1.764,2.694,2.987,4.804,2.987,2.979,0,5.395-2.415,5.395-5.395s-2.415-5.395-5.395-5.395c-2.109,0-3.916,1.222-4.803,2.986H6.111c.195-2.067.635-4.063,1.287-5.962.101.013.198.044.3.044h13.448c1.349,0,2.667-.549,3.616-1.506l3.833-3.863c.051-.051.122-.081.195-.081h7.409c.887,1.764,2.694,2.987,4.803,2.987,2.979,0,5.395-2.415,5.395-5.395s-2.415-5.395-5.395-5.395c-2.109,0-3.916,1.222-4.803,2.987h-7.409c-1.35,0-2.668.549-3.616,1.506l-3.832,3.862c-.051.052-.123.082-.196.082h-11.548c4.529-7.66,12.869-12.812,22.394-12.812,14.336,0,26,11.664,26,26s-11.664,26-26,26Z"/></svg>