<?xml version="1.0" encoding="UTF-8"?><svg id="Icons" xmlns="http://www.w3.org/2000/svg" viewBox="0 0 64 64"><defs><style>.cls-1{fill:#001e5b;}.cls-2{fill:#fff;}.cls-3{fill:#05628a;}.cls-4{fill:#0d9dda;}</style></defs><path class="cls-4" d="M59.901,59.167l-14.853-20.934v-19.797c0-1.351-1.219-2.373-2.557-2.187-3.287.456-6.644.692-10.056.692-3.368,0-6.682-.23-9.928-.675-1.337-.183-2.553.838-2.553,2.187v2.429h-.001v21.272h.001v5.022c0,1.349,1.216,2.37,2.553,2.187,3.246-.445,6.56-.675,9.928-.675,2.457,0,4.884.127,7.278.366v9.832c0,.615.499,1.113,1.113,1.113h3.109c.615,0,1.113-.498,1.113-1.113v-11.499l8.757,12.342c.115.167.323.269.548.269h5c.495,0,.801-.465.548-.833Z"/><path class="cls-1" d="M31.051,4.637c.751-.849,2.172-.849,2.923,0,4.36,4.931,9.175,9.509,14.387,13.68.771.617.821,1.706.098,2.369-.463.425-1.145.574-1.773.403-4.479-1.223-9.224-1.88-14.137-1.88-4.945,0-9.72.666-14.226,1.905-.63.173-1.316.024-1.781-.403-.725-.666-.674-1.758.099-2.376,5.22-4.176,10.043-8.76,14.409-13.698Z"/><path class="cls-2" d="M26.444,23.566c.92-.079,1.845-.141,2.775-.186.572-.027,1.052.436,1.052,1.009v9.131c0,.573-.479,1.037-1.052,1.009-.93-.044-1.855-.107-2.775-.186-.52-.045-.917-.485-.917-1.006v-8.766c0-.522.398-.962.917-1.006Z"/><path class="cls-2" d="M39.473,24.572v8.766c0,.522-.398.962-.917,1.006-.92.079-1.845.141-2.775.186-.572.027-1.052-.436-1.052-1.009v-9.131c0-.573.479-1.037,1.052-1.009.93.044,1.855.107,2.775.186.52.045.917.485.917,1.006Z"/><path class="cls-3" d="M38.286,48.925c.886.099,1.438.136,1.432.135-.439-.058-.914-.101-1.432-.135Z"/><path class="cls-3" d="M38.286,48.925c-2.236-.248-6.667-.898-10.116-2.396-2.678-1.163-4.087-3.237-4.829-5.029-1.395-3.372-2.088-8.726-3.386-19.486v12.081c-.35,4.36-3.247,17.535-13.712,20.379-1.322.359-2.235,1.462-2.235,2.723v2.301c0,.273.213.498.487.502,2.117.028,10.631-.441,15.457-9.268v8.156c0,.615.499,1.113,1.113,1.113h3.109c.615,0,1.113-.498,1.113-1.113v-9.761c2.353-.203,4.736-.311,7.149-.311,2.526,0,4.373.013,5.85.109Z"/><circle class="cls-1" cx="32.464" cy="41.468" r="3.233"/><path class="cls-2" d="M32.642,9.12c-.003-.945,1.151-1.248,1.808-.553,2.529,2.672,5.156,5.259,7.874,7.755.551.506.3,1.385-.458,1.416-3.415-.909-7.809-4.373-9.218-8.294-.004-.108-.007-.216-.007-.324Z"/></svg>