<?xml version="1.0" encoding="UTF-8"?><svg id="Icons" xmlns="http://www.w3.org/2000/svg" viewBox="0 0 64 64"><defs><style>.cls-1{fill:#fff;}</style></defs><path class="cls-1" d="M59.901,59.167l-14.853-20.934v-17.562c.55.131,1.097.27,1.639.418.627.171,1.31.022,1.772-.403.723-.664.672-1.753-.099-2.369-5.212-4.171-10.027-8.749-14.387-13.68-.751-.849-2.171-.849-2.922,0-4.366,4.938-9.189,9.522-14.409,13.698-.773.619-.824,1.711-.099,2.376.465.427,1.15.576,1.781.403.54-.148,1.083-.287,1.63-.419v.188h-.001v13.248c-.363,4.396-3.272,17.506-13.709,20.342-1.322.359-2.235,1.462-2.235,2.723v2.301c0,.273.213.498.487.502,2.117.028,10.631-.441,15.457-9.268v8.156c0,.615.499,1.113,1.113,1.113h3.109c.615,0,1.113-.498,1.113-1.113v-9.845c2.352-.23,4.735-.353,7.147-.353,2.457,0,4.884.127,7.278.366v9.832c0,.615.499,1.113,1.113,1.113h3.109c.615,0,1.113-.498,1.113-1.113v-11.499l8.757,12.343c.115.167.323.269.548.269h5c.495,0,.801-.465.548-.833ZM26.444,34.344c-.52-.045-.917-.485-.917-1.006v-8.766c0-.522.397-.962.917-1.006.92-.079,1.846-.141,2.775-.186.572-.027,1.051.436,1.051,1.009v9.131c0,.573-.479,1.037-1.051,1.009-.93-.044-1.855-.107-2.775-.186ZM32.464,44.702c-1.786,0-3.233-1.448-3.233-3.233s1.448-3.233,3.233-3.233,3.233,1.448,3.233,3.233-1.448,3.233-3.233,3.233ZM39.473,33.338c0,.522-.397.962-.917,1.006-.92.079-1.845.141-2.775.186-.573.027-1.052-.436-1.052-1.009v-9.131c0-.573.479-1.037,1.052-1.009.93.044,1.855.107,2.775.186.52.045.917.485.917,1.006v8.766Z"/></svg>