<?xml version="1.0" encoding="UTF-8"?><svg id="Icons" xmlns="http://www.w3.org/2000/svg" viewBox="0 0 64 64"><defs><style>.cls-1{fill:#001e5b;}</style></defs><path class="cls-1" d="M26.444,23.566c.92-.079,1.845-.141,2.775-.186.572-.027,1.052.436,1.052,1.009v9.131c0,.573-.479,1.037-1.052,1.009-.93-.044-1.855-.107-2.775-.186-.52-.045-.917-.485-.917-1.006v-8.766c0-.522.398-.962.917-1.006Z"/><path class="cls-1" d="M39.473,24.572v8.766c0,.522-.398.962-.917,1.006-.92.079-1.845.141-2.775.186-.572.027-1.052-.436-1.052-1.009v-9.131c0-.573.479-1.037,1.052-1.009.93.044,1.855.107,2.775.186.52.045.917.485.917,1.006Z"/><circle class="cls-1" cx="32.464" cy="41.468" r="3.233"/><path class="cls-1" d="M17.799,21.185c.175,0,.352-.023.524-.071,4.505-1.239,9.281-1.905,14.226-1.905,4.912,0,9.657.657,14.137,1.88.171.047.346.07.52.07.463,0,.916-.163,1.253-.472.723-.664.672-1.753-.099-2.369-5.212-4.171-10.027-8.749-14.387-13.68-.375-.425-.918-.637-1.461-.637s-1.086.212-1.461.637c-4.366,4.938-9.189,9.522-14.409,13.698-.773.619-.824,1.711-.099,2.376.337.31.792.474,1.256.474ZM32.512,6.004c4.036,4.559,8.488,8.853,13.254,12.783-4.293-1.047-8.732-1.577-13.216-1.577-4.524,0-9,.539-13.325,1.604,4.778-3.936,9.242-8.239,13.287-12.81Z"/><path class="cls-1" d="M59.901,59.103l-14.853-20.934v-17.588c-.661-.158-1.329-.315-2-.448v26.998c0,.121-.124.206-.274.206-.002,0-.005,0-.008,0-3.399-.472-6.875-.711-10.331-.711-3.412,0-6.844.233-10.239.696-.114,0-.242-.086-.242-.209v-5.022c0-.026,0-.052-.001-.077v-21.117c0-.026.001-.051.001-.077v-.627c-.672.135-1.339.28-2,.439v.188h-.001v13.248c-.363,4.396-3.272,17.506-13.709,20.342-1.322.359-2.235,1.462-2.235,2.723v2.301c0,.273.213.498.487.502,2.117.028,10.631-.441,15.457-9.267v8.156c0,.615.499,1.113,1.113,1.113h3.109c.615,0,1.113-.498,1.113-1.113v-9.845c2.352-.23,4.735-.353,7.147-.353,2.457,0,4.884.127,7.278.366v9.832c0,.615.499,1.113,1.113,1.113h3.109c.615,0,1.113-.498,1.113-1.113v-11.499l8.757,12.342c.115.167.323.269.548.269h5c.495,0,.801-.465.548-.833Z"/></svg>