<?xml version="1.0" encoding="UTF-8"?><svg id="Icons" xmlns="http://www.w3.org/2000/svg" viewBox="0 0 64 64"><defs><style>.cls-1{fill:#3ba755;}</style></defs><path class="cls-1" d="M54.6,56.536c-7.459-1.231-15.106-1.855-22.728-1.855-7.539,0-15.104.61-22.483,1.814-.095.016-.191.012-.287.023.017,1.458,1.265,2.603,2.732,2.507,6.669-.434,33.68-.434,40.348,0,1.452.095,2.687-1.028,2.728-2.465-.103-.012-.207-.009-.309-.025Z"/><path class="cls-1" d="M54.926,5.027c-7.501,1.237-15.203,1.881-23.054,1.881-7.765,0-15.383-.63-22.805-1.84-2.628-.429-5.066,1.564-5.066,4.228v40.999c0,2.663,2.438,4.656,5.066,4.228,7.423-1.211,15.04-1.84,22.805-1.84,7.852,0,15.553.644,23.054,1.881,2.631.434,5.074-1.56,5.074-4.226V9.254c0-2.666-2.444-4.66-5.074-4.226ZM26.227,32.788h-1.282c-.137.46-.318.901-.543,1.315l.906.906c.773.774.773,2.027,0,2.801-.387.386-.893.58-1.401.58s-1.014-.193-1.401-.58l-.906-.906c-.415.225-.856.406-1.316.543v1.283c0,1.094-.887,1.98-1.98,1.98s-1.98-.887-1.98-1.98v-1.283c-.46-.137-.901-.318-1.315-.543l-.906.906c-.387.386-.893.58-1.401.58s-1.014-.193-1.401-.58c-.773-.774-.773-2.027,0-2.801l.906-.906c-.225-.414-.406-.855-.543-1.315h-1.282c-1.094,0-1.98-.886-1.98-1.98s.886-1.98,1.98-1.98h1.282c.137-.46.318-.901.543-1.315l-.906-.906c-.773-.774-.773-2.027,0-2.801.774-.772,2.027-.772,2.801,0l.906.906c.414-.225.855-.406,1.314-.543v-1.282c0-1.094.886-1.98,1.98-1.98s1.98.887,1.98,1.98v1.282c.459.137.9.318,1.315.543l.906-.906c.774-.772,2.027-.772,2.801,0,.773.774.773,2.027,0,2.801l-.906.906c.225.414.406.855.543,1.315h1.283c1.094,0,1.98.887,1.98,1.98s-.887,1.98-1.98,1.98ZM38.173,39.998c0,.501-.428.896-.93.863-2.268-.148-2.407-.148-4.676,0-.502.033-.93-.362-.93-.863v-3.618c0-.501.428-.896.93-.863,2.268.148,2.407.148,4.676,0,.502-.033.93.362.93.863v3.618ZM38.173,32.617c0,.501-.428.896-.93.863-2.268-.148-2.407-.148-4.676,0-.502.033-.93-.362-.93-.863v-3.618c0-.501.428-.896.93-.863,2.268.148,2.407.148,4.676,0,.502-.033.93.362.93.863v3.618ZM38.173,25.237c0,.501-.428.896-.93.863-2.268-.148-2.407-.148-4.676,0-.502.033-.93-.362-.93-.863v-3.618c0-.501.428-.896.93-.863,2.268.148,2.407.148,4.676,0,.502-.033.93.362.93.863v3.618ZM46.629,39.998c0,.501-.428.896-.93.863-2.268-.148-2.407-.148-4.676,0-.502.033-.93-.362-.93-.863v-3.618c0-.501.428-.896.931-.863,2.268.148,2.407.148,4.676,0,.502-.033.93.362.93.863v3.618ZM46.629,32.617c0,.501-.428.896-.93.863-2.268-.148-2.407-.148-4.676,0-.502.033-.93-.362-.93-.863v-3.618c0-.501.428-.896.931-.863,2.268.148,2.407.148,4.676,0,.502-.033.93.362.93.863v3.618ZM46.629,25.237c0,.501-.428.896-.93.863-2.268-.148-2.407-.148-4.676,0-.502.033-.93-.362-.93-.863v-3.618c0-.501.428-.896.931-.863,2.268.148,2.407.148,4.676,0,.502-.033.93.362.93.863v3.618ZM55.084,39.998c0,.501-.428.896-.93.863-2.268-.148-2.407-.148-4.676,0-.502.033-.93-.362-.93-.863v-3.618c0-.501.428-.896.931-.863,2.268.148,2.407.148,4.676,0,.502-.033.93.362.93.863v3.618ZM55.084,32.617c0,.501-.428.896-.93.863-2.268-.148-2.407-.148-4.676,0-.502.033-.93-.362-.93-.863v-3.618c0-.501.428-.896.931-.863,2.268.148,2.407.148,4.676,0,.502-.033.93.362.93.863v3.618ZM55.084,25.237c0,.501-.428.896-.93.863-2.268-.148-2.407-.148-4.676,0-.502.033-.93-.362-.93-.863v-3.618c0-.501.428-.896.931-.863,2.268.148,2.407.148,4.676,0,.502-.033.93.362.93.863v3.618Z"/><path class="cls-1" d="M18.305,27.837c-1.638,0-2.971,1.333-2.971,2.971s1.333,2.97,2.971,2.97,2.97-1.333,2.97-2.97-1.333-2.971-2.97-2.971Z"/></svg>