<?xml version="1.0" encoding="UTF-8"?><svg id="Icons" xmlns="http://www.w3.org/2000/svg" viewBox="0 0 64 64"><defs><style>.cls-1{fill:#3ba755;}.cls-2{fill:#0c2912;}.cls-3{fill:#2e844a;}.cls-4{fill:#fff;}.cls-5{fill:#004f2e;}</style></defs><path class="cls-5" d="M54.917,56.49c0,1.472-1.258,2.633-2.735,2.537-6.668-.434-33.68-.434-40.348,0-1.477.096-2.735-1.065-2.735-2.537v-10.637c0-1.472,1.258-2.633,2.735-2.537,6.668.435,13.395.656,20.174.656s13.506-.221,20.174-.656c1.477-.096,2.735,1.065,2.735,2.537v10.637Z"/><path class="cls-1" d="M60,9.254c0-2.666-2.444-4.66-5.074-4.226-7.501,1.238-15.202,1.881-23.054,1.881-7.765,0-15.383-.63-22.805-1.84-2.628-.429-5.066,1.564-5.066,4.228v40.999c0,2.663,2.438,4.656,5.066,4.228,7.423-1.211,15.04-1.84,22.805-1.84,7.852,0,15.553.644,23.054,1.881,2.631.434,5.074-1.56,5.074-4.226V9.254Z"/><path class="cls-4" d="M55.845,7.798c.499-.079.912.132,1.086.439.153.238.221.557.152.891-.323,1.539-.574,3.215-.732,4.976-.063.705-.82,1.115-1.307.603-.318-.335-.583-.717-.784-1.135-.42-.786-.659-1.319-1.544-1.83-.698-.403-1.866-.48-2.737-.531-1.503-.055-2.86-.415-3.897-1-.83-.468-.371-1.465.582-1.502,1.813-.07,3.735-.215,5.72-.44,1.186-.134,2.343-.292,3.463-.469Z"/><path class="cls-3" d="M4,9.296c0-2.663,2.438-4.656,5.066-4.228.639.104,1.28.204,1.922.299-.063.984-.094,1.976-.094,2.976,0,22.345,15.88,40.98,36.969,45.237-5.249-.594-10.585-.9-15.992-.9-7.765,0-15.383.63-22.805,1.84-2.628.429-5.066-1.564-5.066-4.227V9.296Z"/><path class="cls-2" d="M26.227,28.827h-1.283c-.137-.46-.318-.901-.543-1.315l.906-.906c.773-.774.773-2.027,0-2.801-.774-.772-2.027-.772-2.801,0l-.906.906c-.414-.225-.855-.406-1.315-.543v-1.282c0-1.094-.887-1.98-1.98-1.98s-1.98.887-1.98,1.98v1.282c-.459.137-.9.318-1.314.543l-.906-.906c-.774-.772-2.027-.772-2.801,0-.773.774-.773,2.027,0,2.801l.906.906c-.225.414-.406.855-.543,1.315h-1.282c-1.094,0-1.98.887-1.98,1.98s.886,1.98,1.98,1.98h1.282c.137.46.318.901.543,1.315l-.906.906c-.773.774-.773,2.027,0,2.801.387.386.894.58,1.401.58s1.014-.193,1.401-.58l.906-.906c.415.225.855.406,1.315.543v1.283c0,1.094.886,1.98,1.98,1.98s1.98-.887,1.98-1.98v-1.283c.46-.137.901-.318,1.316-.543l.906.906c.387.386.893.58,1.401.58s1.014-.193,1.401-.58c.773-.774.773-2.027,0-2.801l-.906-.906c.225-.414.406-.855.543-1.315h1.282c1.094,0,1.98-.886,1.98-1.98s-.887-1.98-1.98-1.98Z"/><path class="cls-2" d="M38.173,25.237c0,.501-.428.896-.93.863-2.268-.148-2.407-.148-4.676,0-.502.033-.93-.362-.93-.863v-3.618c0-.501.428-.896.93-.863,2.268.148,2.407.148,4.676,0,.502-.033.93.362.93.863v3.618Z"/><path class="cls-2" d="M46.629,25.237c0,.501-.428.896-.93.863-2.268-.148-2.407-.148-4.676,0-.502.033-.93-.362-.93-.863v-3.618c0-.501.428-.896.93-.863,2.268.148,2.407.148,4.676,0,.502-.033.93.362.93.863v3.618Z"/><path class="cls-2" d="M55.084,25.237c0,.501-.428.896-.93.863-2.268-.148-2.407-.148-4.676,0-.502.033-.93-.362-.93-.863v-3.618c0-.501.428-.896.93-.863,2.268.148,2.407.148,4.676,0,.502-.033.93.362.93.863v3.618Z"/><path class="cls-2" d="M38.173,32.617c0,.501-.428.896-.93.863-2.268-.148-2.407-.148-4.676,0-.502.033-.93-.362-.93-.863v-3.618c0-.501.428-.896.93-.863,2.268.148,2.407.148,4.676,0,.502-.033.93.362.93.863v3.618Z"/><path class="cls-2" d="M46.629,32.617c0,.501-.428.896-.93.863-2.268-.148-2.407-.148-4.676,0-.502.033-.93-.362-.93-.863v-3.618c0-.501.428-.896.93-.863,2.268.148,2.407.148,4.676,0,.502-.033.93.362.93.863v3.618Z"/><path class="cls-2" d="M55.084,32.617c0,.501-.428.896-.93.863-2.268-.148-2.407-.148-4.676,0-.502.033-.93-.362-.93-.863v-3.618c0-.501.428-.896.93-.863,2.268.148,2.407.148,4.676,0,.502-.033.93.362.93.863v3.618Z"/><path class="cls-2" d="M38.173,39.998c0,.501-.428.896-.93.863-2.268-.148-2.407-.148-4.676,0-.502.033-.93-.362-.93-.863v-3.618c0-.501.428-.896.93-.863,2.268.148,2.407.148,4.676,0,.502-.033.93.362.93.863v3.618Z"/><path class="cls-2" d="M46.629,39.998c0,.501-.428.896-.93.863-2.268-.148-2.407-.148-4.676,0-.502.033-.93-.362-.93-.863v-3.618c0-.501.428-.896.93-.863,2.268.148,2.407.148,4.676,0,.502-.033.93.362.93.863v3.618Z"/><path class="cls-2" d="M55.084,39.998c0,.501-.428.896-.93.863-2.268-.148-2.407-.148-4.676,0-.502.033-.93-.362-.93-.863v-3.618c0-.501.428-.896.93-.863,2.268.148,2.407.148,4.676,0,.502-.033.93.362.93.863v3.618Z"/><path class="cls-1" d="M18.305,27.837c-1.638,0-2.971,1.333-2.971,2.971s1.333,2.97,2.971,2.97,2.97-1.333,2.97-2.97-1.333-2.971-2.97-2.971Z"/></svg>