<?xml version="1.0" encoding="UTF-8"?><svg id="Icons" xmlns="http://www.w3.org/2000/svg" viewBox="0 0 64 64"><defs><style>.cls-1{fill:#fff;}</style></defs><path class="cls-1" d="M10.351,60.994c-4.053,0-7.351-3.31-7.351-7.377s3.298-7.376,7.351-7.376,7.352,3.309,7.352,7.376-3.298,7.377-7.352,7.377ZM10.351,48.241c-2.95,0-5.351,2.412-5.351,5.376s2.4,5.377,5.351,5.377,5.352-2.412,5.352-5.377-2.4-5.376-5.352-5.376Z"/><path class="cls-1" d="M53.618,17.822c-4.071,0-7.383-3.323-7.383-7.408s3.312-7.408,7.383-7.408,7.383,3.323,7.383,7.408-3.312,7.408-7.383,7.408ZM53.618,5.006c-2.968,0-5.383,2.426-5.383,5.408s2.415,5.408,5.383,5.408,5.383-2.426,5.383-5.408-2.415-5.408-5.383-5.408Z"/><path class="cls-1" d="M53.649,46.24c-.742,0-1.47.11-2.171.329l-3.143-3.143c1.379-.977,2.708-2.001,3.929-3.06,2.449-2.219,4.475-4.477,5.894-6.325.827-1.095.865-2.584.064-3.704-1.433-2.018-3.573-4.52-6.2-6.942-1.919-1.687-4.06-3.316-6.368-4.704-3.99-2.397-8.476-4.077-13.124-4.077-3.581,0-7.118,1.005-10.449,2.559l-4.687-4.686c.204-.685.308-1.39.308-2.104,0-4.067-3.298-7.377-7.352-7.377s-7.351,3.31-7.351,7.377,3.298,7.376,7.351,7.376c.716,0,1.422-.104,2.106-.312l3.381,3.381c-1.847,1.302-3.577,2.702-5.134,4.111-1.972,1.878-3.621,3.73-4.834,5.297-.904,1.171-.878,2.775.064,3.908,1.13,1.364,2.613,2.952,4.352,4.579,2.568,2.287,5.587,4.605,8.842,6.494,4.238,2.455,8.856,4.18,13.401,4.18,3.261,0,6.5-.895,9.573-2.302l4.484,4.484c-.192.667-.29,1.35-.29,2.039,0,4.067,3.298,7.377,7.352,7.377s7.352-3.31,7.352-7.377-3.298-7.377-7.352-7.377ZM32.53,16.614c3.836,0,7.905,1.276,12.093,3.791,2.034,1.223,4.079,2.735,6.044,4.461,3.066,2.826,5.028,5.366,5.929,6.635.288.403.275.926-.024,1.322-1.53,1.993-3.536,4.145-5.617,6.031-1.192,1.032-2.557,2.114-4.04,3.151l-6.298-6.297c.444-1.085.694-2.27.694-3.514,0-1.403-.312-2.763-.927-4.041-.966-2.007-2.618-3.604-4.65-4.495-1.189-.521-2.449-.786-3.744-.786-1.244,0-2.428.25-3.514.694l-4.878-4.878c2.811-1.235,5.844-2.076,8.932-2.076ZM39.039,34.131l-8.985-8.985c.617-.171,1.263-.272,1.936-.272,1.047,0,2.04.223,2.941.617,1.601.702,2.896,1.961,3.652,3.531.463.961.729,2.034.729,3.173,0,.672-.101,1.318-.272,1.936ZM32.53,47.396c-3.748,0-7.92-1.316-12.398-3.91-2.834-1.644-5.699-3.749-8.479-6.224-1.567-1.467-3.012-2.986-4.181-4.398-.343-.412-.35-.977-.02-1.404.89-1.149,2.411-2.957,4.613-5.055,1.341-1.213,3.136-2.692,5.217-4.133l6.185,6.185c-.507,1.146-.8,2.406-.8,3.737,0,1.297.265,2.558.789,3.749.893,2.034,2.493,3.685,4.504,4.65,1.275.612,2.631.922,4.03.922,1.332,0,2.592-.292,3.737-.8l4.869,4.869c-2.57,1.097-5.299,1.81-8.065,1.81ZM25.016,30.007l9.161,9.161c-.691.219-1.423.349-2.188.349-1.135,0-2.206-.265-3.164-.725-1.573-.755-2.834-2.05-3.538-3.652-.396-.901-.62-1.896-.62-2.945,0-.765.13-1.497.349-2.188ZM53.649,58.994c-2.951,0-5.352-2.412-5.352-5.377,0-.66.124-1.315.368-1.946l.235-.607L12.959,15.121l-.614.248c-.641.259-1.312.39-1.994.39-2.95,0-5.351-2.412-5.351-5.376s2.4-5.377,5.351-5.377,5.352,2.412,5.352,5.377c0,.683-.13,1.354-.386,1.998l-.244.611,35.914,35.914.618-.258c.65-.271,1.338-.408,2.044-.408,2.951,0,5.352,2.412,5.352,5.377s-2.4,5.377-5.352,5.377Z"/></svg>