<?xml version="1.0" encoding="UTF-8"?><svg id="Icons" xmlns="http://www.w3.org/2000/svg" viewBox="0 0 64 64"><defs><style>.cls-1{fill:none;}.cls-2{fill:#066afe;}.cls-3{fill:#fff;}.cls-4{fill:#eaf5fe;}.cls-5{fill:#05628a;}.cls-6{fill:#0d9dda;}</style></defs><path class="cls-1" d="M17.337,28.708c-1.065.932-1.986,1.965-2.739,3.08.753-1.115,1.675-2.148,2.739-3.08Z"/><path class="cls-1" d="M18.449,27.811c-.386.287-.756.587-1.111.897.355-.311.726-.61,1.111-.897h0Z"/><path class="cls-6" d="M4.261,12.884c-.054-.201-.122-.396-.158-.604.036.208.104.403.158.604Z"/><path class="cls-6" d="M22.251,30.898c2.639,1.927,6.086,3.342,7.786,3.708.167.036.333.054.495.059-.142-.008-.287-.028-.433-.059-1.7-.367-5.209-1.781-7.848-3.708Z"/><path class="cls-6" d="M19.349,28.641c.661.566,1.599,1.306,2.902,2.257-1.136-.829-2.205-1.663-2.902-2.257Z"/><path class="cls-6" d="M31.866,33.631c.008-.286-.083-.573-.242-.817-.134-.205-.267-.423-.399-.644.132.222.263.448.398.655.157.241.248.523.242.806Z"/><path class="cls-6" d="M4.696,14.076c-.102-.216-.214-.427-.294-.655.08.227.192.439.294.655Z"/><path class="cls-6" d="M4.481,8.464c.066-.168.138-.331.214-.489-.077.16-.149.323-.214.489Z"/><path class="cls-6" d="M5.54,6.626c.053-.066.108-.13.164-.194-.055.064-.111.128-.164.194Z"/><path class="cls-6" d="M5.012,7.388c.068-.114.136-.229.21-.338-.075.109-.142.224-.21.338Z"/><path class="cls-6" d="M42.626,30.447c-.02.011-.045.01-.066.02.021-.009.046-.009.066-.02Z"/><polygon class="cls-6" points="4 11.067 4 11.07 4 11.067 4 11.067"/><path class="cls-6" d="M8.809,17.736c-.199-.067-.403-.121-.594-.205.19.084.395.138.594.205Z"/><path class="cls-6" d="M4,11c0,.009,0,.019.001.028h0c0-.009-.001-.018-.001-.028Z"/><path class="cls-6" d="M7.733,17.269c-.178-.096-.364-.179-.533-.29.169.11.355.194.533.29Z"/><path class="cls-6" d="M6.788,16.659c-.166-.127-.34-.243-.494-.384.154.141.328.257.494.384Z"/><path class="cls-6" d="M5.207,14.975c-.11-.165-.233-.321-.329-.495.096.174.219.33.329.495Z"/><path class="cls-6" d="M5.921,15.874c-.136-.145-.283-.281-.406-.437.124.156.27.292.406.437Z"/><path class="cls-4" d="M45.451,50.352c.208-.153.423-.3.623-.459-.2.16-.415.307-.623.459Z"/><path class="cls-4" d="M42.834,51.972c.234-.122.476-.236.703-.365.007-.004.013-.009.02-.013-.234.133-.482.252-.724.377Z"/><path class="cls-4" d="M47.691,48.404c.167-.173.344-.341.502-.519-.158.179-.334.346-.502.519Z"/><path class="cls-4" d="M44.189,51.204c.225-.139.456-.272.673-.419-.217.147-.448.28-.673.419Z"/><path class="cls-4" d="M50.51,44.396s.002-.005.003-.007c-.093.199-.207.39-.311.585.102-.193.215-.382.308-.579Z"/><path class="cls-4" d="M46.617,49.421c.186-.162.38-.317.558-.484.004-.004.007-.008.011-.012-.181.172-.379.331-.569.496Z"/><path class="cls-4" d="M48.648,47.323c.147-.181.302-.358.439-.544-.137.186-.293.363-.439.544Z"/><path class="cls-4" d="M12.325,38.314c.012-.163.011-.329.03-.491-.019.162-.018.328-.03.491Z"/><path class="cls-4" d="M49.482,46.187c.127-.192.264-.379.382-.575-.117.196-.254.383-.382.575Z"/><path class="cls-4" d="M42.168,52.318c-.248.117-.508.219-.763.328.255-.109.515-.211.763-.328Z"/><path class="cls-4" d="M51.029,43.116c-.065.188-.151.369-.224.554.074-.185.159-.366.224-.554Z"/><path class="cls-4" d="M37.551,53.911c-.282.065-.573.112-.861.167.287-.055.578-.102.861-.167Z"/><path class="cls-4" d="M51.407,41.797c-.041.181-.104.355-.153.534.049-.179.112-.353.153-.534Z"/><path class="cls-4" d="M39.157,53.481c-.272.083-.554.15-.831.224.278-.074.56-.14.831-.224Z"/><path class="cls-4" d="M40.699,52.948c-.26.101-.531.185-.797.277.266-.092.537-.176.797-.277Z"/><path class="cls-4" d="M51.639,40.44c-.017.148-.052.291-.075.438.022-.147.058-.29.075-.438Z"/><path class="cls-4" d="M50.197,44.985c.104-.197.219-.389.313-.589-.092.197-.206.385-.308.579-.002.004-.004.007-.006.011Z"/><path class="cls-4" d="M47.175,48.936s.007-.008.011-.012h0s-.007.008-.011.012Z"/><path class="cls-4" d="M47.691,48.404s-.006.006-.009.009c.171-.176.35-.347.511-.529,0,0,0,0,0,0-.158.179-.334.346-.502.519Z"/><path class="cls-4" d="M46.608,49.429c.189-.164.387-.322.567-.493-.177.168-.372.323-.558.484-.003.003-.006.006-.01.008Z"/><path class="cls-4" d="M44.189,51.204s-.007.004-.01.006c.228-.141.463-.276.683-.425,0,0,0,0,0,0-.217.147-.448.28-.673.419Z"/><path class="cls-4" d="M45.451,50.352c-.007.005-.013.01-.02.015.215-.158.437-.31.643-.474,0,0,0,0,0,0-.2.16-.415.307-.623.459Z"/><path class="cls-4" d="M43.537,51.607c.007-.004.013-.009.02-.013h0c-.007.004-.013.009-.02.013Z"/><path class="cls-4" d="M49.482,46.187c-.005.007-.009.014-.014.02.132-.199.274-.393.395-.596h0c-.117.197-.254.384-.382.576Z"/><polygon class="cls-4" points="18.449 27.811 18.449 27.811 18.449 27.811 18.449 27.811"/><path class="cls-4" d="M19.349,28.641s-.005-.004-.006-.005c-.302-.257-.524-.461-.674-.604.008.007.013.013.021.021.089.086.187.179.295.279.323.298.736.656,1.261,1.081.526.425,1.165.918,1.943,1.486,1.649,1.204,3.639,2.209,5.314,2.882.67.269,1.29.486,1.818.641.264.078.505.14.717.186-1.7-.367-5.147-1.781-7.786-3.708-1.303-.951-2.241-1.691-2.902-2.257Z"/><path class="cls-4" d="M48.648,47.323c-.005.006-.01.013-.016.019.152-.188.313-.371.455-.564,0,0,0,0,0,0-.137.186-.293.363-.439.544Z"/><path class="cls-5" d="M46.201,9.361c.057-.236.125-.467.205-.692-.08.226-.149.457-.205.692-.003.014-.008.028-.011.043-.069.294-.105.599-.135.906.03-.307.066-.612.135-.906.003-.014.008-.028.011-.043Z"/><path class="cls-5" d="M18.669,28.031c.15.143.372.347.674.604.002.002.005.004.006.005-.391-.335-.686-.609-.9-.829,0,0,0,0,0,0,.066.068.14.142.22.22Z"/><path class="cls-6" d="M45.431,50.367c-.19.139-.372.284-.569.418.197-.133.379-.279.569-.418Z"/><path class="cls-6" d="M51.254,42.332c-.072.262-.136.527-.225.785.089-.257.153-.522.225-.785Z"/><path class="cls-6" d="M46.608,49.429c-.178.154-.348.315-.534.464.186-.149.356-.309.534-.464Z"/><path class="cls-6" d="M48.633,47.342c-.146.181-.284.367-.439.543.156-.176.293-.362.439-.543Z"/><path class="cls-6" d="M50.805,43.67c-.096.24-.182.484-.292.719.11-.235.197-.479.292-.719Z"/><path class="cls-6" d="M49.468,46.207c-.127.19-.244.385-.38.571.136-.186.253-.381.38-.571Z"/><path class="cls-6" d="M50.197,44.985c-.111.209-.211.422-.333.626.122-.204.222-.417.333-.626Z"/><path class="cls-6" d="M47.682,48.413c-.165.171-.322.346-.496.511.174-.165.331-.341.496-.511Z"/><path class="cls-6" d="M12.325,38.314c-.017.239-.043.477-.043.719,0,.001,0,.003,0,.004,0-.244.026-.483.043-.723Z"/><path class="cls-6" d="M39.901,53.225c-.248.085-.491.178-.744.256.253-.078.496-.171.744-.256Z"/><path class="cls-6" d="M38.326,53.705c-.258.069-.512.146-.775.206.263-.061.517-.137.775-.206Z"/><path class="cls-6" d="M44.179,51.21c-.207.128-.407.263-.621.385.214-.122.414-.257.621-.385Z"/><path class="cls-6" d="M41.405,52.646c-.236.101-.465.209-.706.302.241-.093.471-.201.706-.302Z"/><path class="cls-6" d="M42.834,51.972c-.222.115-.438.237-.666.345.228-.108.444-.23.666-.345Z"/><path class="cls-6" d="M51.564,40.878c-.046.308-.088.617-.157.92.069-.302.111-.612.157-.92Z"/><path class="cls-6" d="M12.354,37.823c.046-.401.112-.798.19-1.191-.079.393-.144.79-.19,1.191Z"/><path class="cls-6" d="M35.924,54.227c.26-.041.51-.1.766-.149-.258.05-.512.107-.775.148.003,0,.006,0,.008,0Z"/><path class="cls-6" d="M51.717,39.047c0,.47-.027.934-.079,1.393.052-.459.079-.923.079-1.393Z"/><path class="cls-3" d="M12.33,39.793c.017.275.018.553.054.824.032.245.095.483.141.725.052.271.089.547.159.813.06.23.149.451.222.677.087.27.16.543.265.807.093.235.214.459.321.689.114.245.214.495.342.734.123.228.273.445.409.667.14.229.268.464.422.687.151.218.326.422.49.633.166.215.32.436.498.644.161.188.345.361.517.543.205.218.4.442.619.65.162.154.344.294.513.443.251.221.493.447.759.656.228.179.477.341.716.512.228.162.446.334.684.488.259.168.537.317.807.474.238.139.465.287.711.417.281.149.58.278.871.416.252.119.495.249.754.36.346.147.708.272,1.066.403.221.081.432.174.657.249.382.127.78.229,1.174.338.214.059.42.13.637.183.479.117.972.208,1.466.296.143.026.279.062.423.086.52.084,1.053.14,1.587.19.125.012.245.034.371.044.663.053,1.335.08,2.016.08,1.318,0,2.603-.106,3.848-.3.023.002.046.003.068.005.262-.042.516-.099.775-.148.287-.055.578-.102.861-.167.263-.061.517-.137.775-.206.278-.074.56-.14.831-.224.253-.078.496-.171.744-.256.266-.092.538-.176.797-.277.241-.093.471-.201.706-.302.255-.109.515-.211.763-.328.228-.108.444-.23.666-.345.242-.125.49-.244.724-.377.217-.124.421-.261.631-.391.225-.139.456-.272.673-.419.204-.138.393-.288.589-.433.208-.153.423-.3.623-.459.189-.151.362-.315.544-.472.19-.165.388-.325.569-.496.177-.168.337-.347.505-.521.168-.173.344-.341.502-.519.161-.182.304-.374.455-.562.147-.181.302-.358.439-.544.141-.192.263-.394.394-.592.127-.192.264-.379.382-.575.124-.208.226-.424.339-.637.103-.195.217-.386.311-.585.11-.235.197-.479.292-.719.074-.185.159-.366.224-.554.089-.257.153-.522.225-.785.049-.179.111-.353.153-.534.069-.302.111-.612.157-.92.022-.147.058-.29.075-.438.052-.459.079-.923.079-1.393,0-5.708-3.94-10.682-9.789-13.37l1.121,3.766c.111.371-.053.73-.34.933-.03.022-.051.052-.083.071-.02.011-.045.011-.066.02-.095.044-.194.084-.304.091-.019.001-.074,0-.093,0-.286,0-.554-.142-.744-.355-.519-.579-1.443-1.425-1.888-1.835-2.025-1.867-5.372-4.632-8.801-4.747-.027,0-.054-.003-.081-.003-.221-.005-.443,0-.664.019-.166.016-.331.035-.497.065-2.168.975-.24,4.793.613,6.42l.014.027c.283.54.669,1.275,1.082,1.974.01.016.02.032.029.048.131.221.265.439.399.644.159.244.25.531.242.817-.002.096-.014.193-.04.287-.121.451-.449.664-.855.729-.139.022-.287.026-.439.018-.162-.005-.328-.023-.495-.059-.213-.046-.453-.108-.717-.186-.528-.155-1.147-.371-1.818-.641-1.675-.673-3.664-1.677-5.314-2.882-.778-.568-1.417-1.061-1.943-1.486-.526-.425-.938-.783-1.261-1.081-.108-.099-.206-.192-.295-.279-.008-.008-.013-.014-.021-.021-.134-.128-.212-.208-.22-.22-.386.287-.756.587-1.111.897-1.065.932-1.986,1.965-2.739,3.08-1.004,1.486-1.709,3.117-2.054,4.843-.079.393-.144.79-.19,1.191-.019.162-.018.328-.03.491-.017.24-.043.479-.043.723,0,.255.033.504.049.756ZM17.224,36.827c4.84-.507,9.754-.768,14.728-.768,5.013,0,9.964.264,14.84.779,1.089.115,2.009.932,2.009,2.027,0,3.203-1.726,6.371-4.702,8.733-.475.377-1.059.584-1.662.638-1.712.153-3.299.267-5.047.343-1.411.061-2.702-.768-3.27-2.061l-2.128-4.846-2.017,4.801c-.554,1.319-1.858,2.173-3.287,2.111-1.8-.078-3.39-.199-5.148-.362-.253-.023-.5-.08-.74-.159-.33-.108-.643-.263-.917-.482-1.36-1.083-2.443-2.34-3.232-3.686-.931-1.588-1.449-3.302-1.449-5.031,0-1.103.927-1.924,2.023-2.039Z"/><path class="cls-4" d="M43.557,51.595h0c.214-.122.414-.257.621-.385.003-.002.007-.004.01-.006-.211.13-.414.268-.631.391Z"/><path class="cls-4" d="M49.088,46.778s0,0,0,0c.136-.186.253-.381.38-.571.005-.007.009-.014.014-.02-.131.197-.252.399-.394.592Z"/><path class="cls-4" d="M48.193,47.885s0,0,0,0c.156-.176.293-.362.439-.543.005-.006.01-.013.016-.019-.151.188-.294.38-.455.562Z"/><path class="cls-4" d="M47.186,48.924h0c.174-.165.331-.341.496-.511.003-.003.006-.006.009-.009-.168.174-.328.353-.505.521Z"/><path class="cls-4" d="M46.074,49.893s0,0,0,0c.186-.149.356-.309.534-.464.003-.003.006-.006.01-.008-.181.157-.354.321-.544.472Z"/><path class="cls-4" d="M18.669,28.031c.008.007.013.013.021.021-.008-.007-.013-.013-.021-.021h0Z"/><path class="cls-4" d="M44.862,50.785s0,0,0,0c.197-.133.379-.279.569-.418.007-.005.013-.01.02-.015-.196.144-.385.295-.589.433Z"/><path class="cls-4" d="M20.246,29.412c-.526-.425-.938-.783-1.261-1.081.323.298.736.656,1.261,1.081Z"/><path class="cls-4" d="M29.32,34.42c-.528-.155-1.147-.371-1.818-.641.67.269,1.29.486,1.818.641Z"/><path class="cls-4" d="M49.863,45.611h0c.122-.204.222-.417.333-.626.002-.004.004-.007.006-.011-.112.213-.215.429-.339.637Z"/><polygon class="cls-4" points="18.449 27.811 18.449 27.811 18.449 27.811 18.449 27.811"/><path class="cls-5" d="M31.196,32.122c.01.016.02.032.029.048-.01-.016-.02-.032-.029-.048Z"/><path class="cls-5" d="M30.91,34.648c-.12.019-.247.022-.377.018.152.009.3.005.439-.018.406-.065.734-.279.855-.729.025-.095.038-.191.04-.287-.003.093-.015.185-.039.276-.127.474-.482.688-.917.74Z"/><path class="cls-5" d="M18.449,27.811c.008.011.086.091.22.22-.08-.078-.154-.152-.22-.22h0Z"/><path class="cls-5" d="M18.669,28.031h0c-.08-.078-.154-.152-.22-.219,0,0,0,0,0,0h0c.066.068.14.142.22.22Z"/><path class="cls-5" d="M42.709,30.376c-.03.021-.05.053-.083.071.032-.018.053-.049.083-.071Z"/><path class="cls-5" d="M42.215,30.545c-.019.001-.034.013-.053.013.019,0,.074.001.093,0,.11-.007.209-.047.304-.091-.103.045-.213.081-.335.081-.003,0-.006-.002-.01-.002Z"/><path class="cls-5" d="M20.266,51.458c.238.139.465.287.711.417-.246-.13-.473-.279-.711-.417Z"/><path class="cls-5" d="M23.668,53.055c.221.081.432.174.657.249-.225-.075-.437-.168-.657-.249Z"/><path class="cls-5" d="M17.299,49.329c.251.221.493.447.759.656-.266-.209-.509-.435-.759-.656Z"/><path class="cls-5" d="M18.775,50.496c.228.162.446.334.684.488-.238-.154-.455-.325-.684-.488Z"/><path class="cls-5" d="M21.847,52.292c.252.119.495.249.754.36-.259-.111-.502-.241-.754-.36Z"/><path class="cls-5" d="M29.613,54.397c.125.012.245.034.371.044-.126-.01-.246-.033-.371-.044Z"/><path class="cls-5" d="M25.499,53.641c.214.059.42.13.637.183-.217-.053-.423-.125-.637-.183Z"/><path class="cls-5" d="M16.786,48.885c-.219-.208-.414-.432-.619-.65.205.217.4.441.619.65Z"/><path class="cls-5" d="M27.602,54.121c.143.026.279.062.423.086-.144-.023-.281-.06-.423-.086Z"/><path class="cls-5" d="M13.49,44.328c.114.245.214.495.342.734-.129-.239-.229-.489-.342-.734Z"/><path class="cls-5" d="M12.905,42.832c.087.27.16.543.265.807-.104-.264-.178-.538-.265-.807Z"/><path class="cls-5" d="M14.242,45.729c.14.229.268.464.422.687-.154-.223-.281-.458-.422-.687Z"/><path class="cls-5" d="M12.525,41.342c.052.271.089.547.159.813-.07-.267-.107-.542-.159-.813Z"/><path class="cls-5" d="M15.153,47.049c.166.215.32.436.498.644-.179-.208-.332-.429-.498-.644Z"/><path class="cls-5" d="M12.33,39.793c.017.275.018.553.054.824-.035-.271-.036-.549-.054-.824Z"/><path class="cls-5" d="M4.103,12.28c-.068-.393-.103-.797-.103-1.21,0,.413.035.817.103,1.21Z"/><path class="cls-5" d="M4.389,8.673c-.015.041-.029.083-.043.124-.004.013-.009.027-.013.04-.009.029-.019.058-.028.086-.005.015-.009.03-.014.046-.009.029-.017.058-.026.088-.004.013-.008.027-.012.04-.011.039-.022.079-.032.118-.005.019-.01.038-.014.057-.006.022-.011.044-.017.067-.005.022-.011.045-.016.067-.004.018-.008.037-.012.055-.005.025-.011.049-.016.074-.002.01-.004.019-.006.029-.012.059-.023.118-.034.177-.001.008-.003.016-.004.024-.005.031-.01.063-.015.094-.001.009-.003.018-.004.027-.005.033-.01.067-.015.1,0,0,0,0,0,0-.015.112-.028.226-.038.342,0,.002,0,.004,0,.006-.003.039-.006.078-.009.117-.014.18-.021.362-.021.546,0-.896.175-1.749.481-2.536-.028.072-.065.136-.092.21Z"/><path class="cls-5" d="M4.096,31.364c.033-.392.074-.782.124-1.169.021-.161.041-.323.065-.483.072-.482.156-.961.255-1.434.009-.042.015-.086.024-.128.11-.514.241-1.021.382-1.524.041-.147.087-.292.131-.438.111-.368.229-.732.356-1.094.053-.152.106-.304.163-.455.157-.421.324-.837.502-1.248.029-.066.054-.133.083-.199.21-.473.436-.937.674-1.395.066-.127.136-.252.204-.377.183-.339.372-.674.57-1.004.083-.138.165-.276.25-.413.226-.363.462-.721.705-1.072.052-.075.101-.153.154-.227.19-.268.395-.526.594-.788l-.007-.002c-.178-.045-.343-.12-.516-.178.171.058.334.132.511.177-.196.256-.396.509-.583.772-.053.075-.102.152-.154.227-.244.352-.479.709-.705,1.072-.085.136-.168.274-.25.413-.198.33-.387.665-.57,1.004-.068.126-.138.25-.204.377-.237.458-.464.923-.674,1.395-.029.066-.054.133-.083.199-.178.411-.345.827-.502,1.248-.056.151-.109.303-.163.455-.127.361-.245.726-.356,1.094-.044.146-.09.291-.131.438-.141.503-.271,1.01-.382,1.524-.009.042-.015.086-.024.128-.099.474-.183.952-.255,1.434-.024.16-.044.322-.065.483-.05.387-.092.777-.124,1.169-.013.16-.028.32-.039.481-.034.538-.057,1.079-.057,1.625,0,.004,0,.008,0,.012h0s0,.002,0,.003c0-.545.023-1.084.057-1.621.01-.161.025-.321.039-.481Z"/><path class="cls-5" d="M4.695,7.975c.097-.201.203-.397.318-.587-.113.189-.22.383-.318.587Z"/><path class="cls-5" d="M4.402,13.422c-.061-.173-.093-.359-.14-.538.048.179.079.365.14.538Z"/><path class="cls-5" d="M8.215,17.531c-.168-.074-.321-.175-.482-.262.161.087.314.187.482.262Z"/><path class="cls-5" d="M4.878,14.48c-.071-.128-.119-.27-.182-.404.063.133.111.275.182.404Z"/><path class="cls-5" d="M6.294,16.276c-.135-.124-.249-.268-.374-.402.125.134.239.278.374.402Z"/><path class="cls-5" d="M4.001,11.028h0c0,.008-.001.016-.001.024,0,.005,0,.01,0,.015,0-.01.002-.02.002-.029,0-.003,0-.006,0-.01Z"/><path class="cls-5" d="M5.515,15.437c-.115-.145-.205-.308-.308-.462.103.154.193.317.308.462Z"/><path class="cls-5" d="M6.69,5.492s.002-.007.003-.01c.001-.005.003-.009.004-.013,0,0,0,0,0-.002.001-.004.002-.007.003-.01-.368.291-.693.623-.997.974.297-.344.628-.659.986-.94Z"/><path class="cls-5" d="M7.201,16.979c-.146-.096-.274-.214-.412-.32.138.106.266.224.412.32Z"/><path class="cls-5" d="M5.223,7.05c.1-.146.207-.286.317-.424-.11.137-.217.277-.317.424Z"/><path class="cls-2" d="M31.952,36.06c-4.974,0-9.888.26-14.728.768-1.096.115-2.023.937-2.023,2.039,0,1.729.518,3.443,1.449,5.031.79,1.346,1.872,2.603,3.232,3.686.274.218.587.373.917.482.239.079.487.135.74.159,1.759.163,3.348.284,5.148.362,1.429.062,2.733-.792,3.287-2.111l2.017-4.801,2.128,4.846c.568,1.293,1.859,2.122,3.27,2.061,1.747-.076,3.335-.19,5.047-.343.604-.054,1.188-.261,1.662-.638,2.976-2.362,4.702-5.531,4.702-8.733,0-1.095-.92-1.912-2.009-2.027-4.876-.515-9.827-.779-14.84-.779Z"/><path class="cls-2" d="M54.597,17.81c.186-.044.371-.091.551-.149.069-.022.136-.05.205-.075.244-.087.48-.187.711-.299.072-.035.146-.067.217-.104.258-.137.504-.291.741-.458.082-.057.16-.118.239-.179.195-.15.383-.309.561-.479.073-.069.144-.138.213-.21.173-.179.335-.369.489-.566.068-.088.136-.177.201-.268.16-.226.309-.46.441-.706.049-.091.089-.186.134-.279.093-.192.177-.388.252-.589.026-.071.064-.135.089-.207-.005.004-.012.007-.017.012.241-.708.378-1.464.378-2.253,0-3.866-3.134-7-7-7-1.649,0-3.161.574-4.357,1.527,0,0,0,0,0,0-.002.001-.003.003-.005.004-.598.478-1.115,1.052-1.529,1.698-.007.01-.013.021-.019.031-.127.201-.244.408-.35.622-.013.025-.024.051-.037.076-.099.205-.189.415-.268.631-.01.027-.02.054-.029.081-.08.226-.149.457-.205.692-.003.014-.008.028-.011.043-.069.294-.105.599-.135.906-.007.068-.025.133-.03.202-4.125-2.267-8.913-3.572-14.025-3.572s-9.9,1.304-14.025,3.572c-.252-3.637-3.274-6.512-6.975-6.512-1.628,0-3.121.56-4.31,1.492-.358.281-.689.595-.986.94-.055.064-.111.128-.164.194-.11.138-.217.278-.317.424-.074.109-.142.224-.21.338-.115.19-.221.386-.318.587-.076.159-.148.321-.214.489-.307.787-.481,1.64-.481,2.536,0,.009,0,.019.001.028,0,.003,0,.006,0,.01,0,.01-.001.02-.002.029h0s0,.002,0,.003c0,.413.035.817.103,1.21.036.208.104.403.158.604.048.179.079.365.14.538.08.227.192.439.294.655.063.133.111.275.182.404.096.174.219.33.329.495.103.154.193.317.308.462.124.156.27.292.406.437.125.134.239.278.374.402.154.141.328.257.494.384.138.106.266.224.412.32.169.11.355.194.533.29.161.087.314.187.482.262.19.084.395.138.594.205.172.058.337.133.516.178l.007.002c-.2.261-.404.519-.594.788-.053.075-.102.152-.154.227-.244.352-.479.709-.705,1.072-.085.136-.168.274-.25.413-.198.33-.387.665-.57,1.004-.068.126-.138.25-.204.377-.237.458-.464.923-.674,1.395-.029.066-.054.133-.083.199-.178.411-.345.827-.502,1.248-.056.151-.109.303-.163.455-.127.361-.245.726-.356,1.094-.044.146-.09.291-.131.438-.141.503-.271,1.01-.382,1.524-.009.042-.015.086-.024.128-.099.474-.183.952-.255,1.434-.024.16-.044.322-.065.483-.05.387-.092.777-.124,1.169-.013.16-.028.32-.039.481-.034.537-.057,1.076-.057,1.621,0,.001,0,.003,0,.004,0,.916.049,1.821.145,2.712.143,1.338.392,2.646.737,3.918.23.848.503,1.679.818,2.492.471,1.219,1.034,2.396,1.68,3.524.431.752.899,1.482,1.403,2.187.252.353.512.7.781,1.04.397.503.819.987,1.252,1.462.739.81,1.523,1.583,2.359,2.303.796.686,1.639,1.323,2.516,1.919.583.396,1.177.778,1.792,1.132.385.222.776.435,1.172.639.901.464,1.836.877,2.793,1.246.728.281,1.469.54,2.227.763.877.258,1.772.477,2.683.654s1.839.311,2.78.402,1.896.137,2.863.137c.513,0,1.022-.015,1.528-.041.167-.008.331-.025.497-.036.339-.023.677-.047,1.012-.081.194-.02.386-.046.579-.07.304-.037.607-.076.908-.122.201-.031.401-.067.601-.102.289-.051.578-.104.864-.163.2-.041.399-.085.598-.131.283-.065.565-.134.845-.207.195-.051.389-.102.582-.157.283-.08.563-.166.842-.254.183-.058.366-.114.547-.175.294-.099.584-.206.873-.314.161-.06.323-.117.483-.18.336-.133.666-.274.995-.419.108-.047.218-.091.325-.139.438-.199.87-.407,1.294-.626.053-.028.104-.058.157-.086.367-.192.73-.391,1.087-.598.129-.075.254-.155.381-.231.277-.167.553-.335.823-.511.144-.094.286-.192.428-.288.247-.167.493-.337.735-.511.146-.106.29-.214.433-.323.232-.175.461-.352.687-.534.142-.114.282-.229.421-.345.223-.186.442-.376.658-.569.132-.118.264-.236.394-.356.219-.203.433-.411.646-.621.118-.117.238-.232.354-.351.226-.232.444-.469.661-.708.076-.083.156-.162.23-.247-.003.002-.006.003-.009.005,4.08-4.609,6.541-10.55,6.541-17.036,0-5.859-2.008-11.271-5.403-15.66ZM51.639,40.44c-.017.148-.052.291-.075.438-.046.308-.088.617-.157.92-.041.181-.104.356-.153.534-.072.262-.136.527-.225.785-.065.188-.151.369-.224.554-.096.24-.182.484-.292.719-.001.002-.002.005-.003.007-.094.201-.209.393-.313.589-.111.209-.211.422-.333.626-.121.203-.263.397-.395.596-.127.19-.244.385-.38.571-.142.193-.303.376-.455.564-.147.181-.284.367-.439.543-.161.182-.34.353-.511.529-.165.171-.322.346-.496.511-.004.004-.007.008-.011.012-.18.171-.378.329-.567.493-.178.154-.348.315-.534.464-.206.165-.428.317-.643.474-.19.139-.372.284-.569.418-.22.149-.455.284-.683.425-.207.128-.407.263-.621.385-.007.004-.013.009-.02.013-.227.129-.469.243-.703.365-.222.115-.438.237-.666.345-.248.117-.508.219-.763.328-.236.101-.465.209-.706.302-.26.101-.531.185-.797.277-.248.085-.491.178-.744.256-.272.083-.554.15-.831.224-.258.069-.512.146-.775.206-.282.065-.573.112-.861.167-.256.049-.507.108-.766.149-.002,0-.004,0-.006.001-.024.004-.047.008-.071.011-1.245.194-2.531.3-3.848.3-10.89,0-19.718-6.936-19.718-15.493,0-.003,0-.006,0-.009,0-.001,0-.003,0-.004,0-.243.026-.48.043-.719.012-.163.011-.329.03-.491.046-.401.112-.798.19-1.191.345-1.726,1.049-3.357,2.054-4.843.753-1.115,1.675-2.148,2.739-3.08.355-.311.726-.61,1.111-.897h0c.214.22.509.495.9.829.698.594,1.767,1.428,2.902,2.257,2.639,1.927,6.148,3.342,7.848,3.708.146.031.291.051.433.059.13.004.258.002.377-.018.435-.052.79-.266.917-.74.024-.091.037-.184.039-.276.005-.283-.085-.565-.242-.806-.135-.206-.266-.432-.398-.655-.01-.016-.02-.032-.029-.048-.413-.699-.799-1.435-1.082-1.974l-.014-.027c-.853-1.626-2.781-5.445-.613-6.42.165-.03.331-.049.497-.065.221-.019.443-.024.664-.019.027,0,.054.003.081.003,3.429.114,6.776,2.879,8.801,4.747.445.41,1.369,1.256,1.888,1.835.191.213.458.355.744.355.019,0,.034-.012.053-.013.003,0,.006.002.01.002.122,0,.231-.036.335-.081.021-.01.046-.009.066-.02.033-.017.053-.049.083-.071.287-.203.451-.562.34-.933l-1.121-3.766c5.849,2.688,9.789,7.662,9.789,13.37,0,.47-.027.934-.079,1.393Z"/><polygon class="cls-5" points="12.281 39.041 12.282 39.037 12.281 39.033 12.281 39.037 12.281 39.041"/><polygon class="cls-5" points="35.911 54.228 35.918 54.229 35.924 54.227 35.916 54.227 35.911 54.228"/><path class="cls-5" d="M22.602,52.652c.346.147.708.272,1.066.403-.358-.131-.72-.256-1.066-.403Z"/><path class="cls-5" d="M13.169,43.639c.093.235.214.459.321.689-.107-.23-.228-.454-.321-.689Z"/><path class="cls-5" d="M13.832,45.062c.123.228.273.445.409.667-.136-.222-.286-.439-.409-.667Z"/><path class="cls-5" d="M24.325,53.304c.382.127.78.229,1.174.338-.394-.108-.792-.211-1.174-.338Z"/><path class="cls-5" d="M14.663,46.416c.151.218.326.422.49.633-.163-.211-.339-.415-.49-.633Z"/><path class="cls-5" d="M19.458,50.984c.259.168.537.317.807.474-.27-.157-.548-.306-.807-.474Z"/><path class="cls-5" d="M15.651,47.693c.161.188.345.361.517.543-.171-.182-.355-.355-.517-.543Z"/><path class="cls-5" d="M20.976,51.876c.281.149.58.278.871.416-.291-.138-.59-.267-.871-.416Z"/><path class="cls-5" d="M26.136,53.825c.479.117.972.208,1.466.296-.494-.089-.987-.179-1.466-.296Z"/><path class="cls-5" d="M17.299,49.329c-.169-.149-.351-.289-.513-.443.162.154.344.294.513.443Z"/><path class="cls-5" d="M12.683,42.155c.06.23.149.451.222.677-.073-.226-.162-.447-.222-.677Z"/><path class="cls-5" d="M35.916,54.227c-.023-.002-.046-.003-.068-.005.021.002.042.004.063.006.002,0,.003,0,.005,0Z"/><path class="cls-5" d="M18.059,49.985c.228.179.477.341.716.512-.239-.17-.488-.332-.716-.512Z"/><path class="cls-5" d="M12.384,40.617c.032.245.095.483.141.725-.046-.242-.109-.48-.141-.725Z"/><path class="cls-5" d="M12.282,39.037s0,.003,0,.004c0,.254.033.501.049.752-.016-.252-.048-.501-.049-.756Z"/><path class="cls-5" d="M29.983,54.441c.663.053,1.335.08,2.016.08-.681,0-1.353-.027-2.016-.08Z"/><path class="cls-5" d="M28.026,54.206c.52.084,1.053.14,1.587.19-.534-.051-1.067-.107-1.587-.19Z"/><polygon class="cls-5" points="12.281 39.037 12.281 39.047 12.281 39.041 12.281 39.037"/><path class="cls-5" d="M35.847,54.24c.024-.004.047-.008.071-.011-.003,0-.005,0-.008,0-.021.003-.042.009-.063.012Z"/><path class="cls-5" d="M35.847,54.221c-1.245.194-2.531.3-3.848.3-.681,0-1.353-.027-2.016-.08-.126-.01-.246-.033-.371-.044-.534-.051-1.067-.107-1.587-.19-.144-.023-.281-.06-.423-.086-.494-.089-.987-.179-1.466-.296-.217-.053-.423-.125-.637-.183-.394-.108-.792-.211-1.174-.338-.225-.075-.437-.168-.657-.249-.358-.131-.72-.256-1.066-.403-.259-.111-.502-.241-.754-.36-.291-.138-.59-.267-.871-.416-.246-.13-.473-.279-.711-.417-.27-.157-.548-.306-.807-.474-.238-.154-.455-.325-.684-.488-.239-.17-.488-.332-.716-.512-.266-.209-.509-.435-.759-.656-.169-.149-.351-.289-.513-.443-.219-.209-.414-.433-.619-.65-.171-.182-.355-.355-.517-.543-.179-.208-.332-.429-.498-.644-.163-.211-.339-.416-.49-.633-.154-.223-.281-.458-.422-.687-.136-.223-.286-.439-.409-.667-.129-.239-.229-.489-.342-.734-.107-.23-.228-.454-.321-.689-.105-.264-.178-.538-.265-.807-.073-.226-.162-.447-.222-.677-.07-.267-.107-.542-.159-.813-.046-.242-.109-.48-.141-.725-.035-.271-.036-.549-.054-.824-.016-.251-.049-.498-.049-.752,0,.002,0,.004,0,.005,0,8.556,8.828,15.493,19.718,15.493,1.318,0,2.603-.106,3.848-.3.021-.003.042-.009.063-.012-.021-.002-.042-.004-.063-.006Z"/></svg>