<?xml version="1.0" encoding="UTF-8"?><svg id="Icons" xmlns="http://www.w3.org/2000/svg" viewBox="0 0 64 64"><defs><style>.cls-1{fill:#001e5b;}</style></defs><path class="cls-1" d="M54.923,43.694h0c.866-2.494,1.342-5.17,1.342-7.958,0-10.852-7.125-20.038-16.952-23.141h0c.055-.367.093-.741.093-1.124,0-4.126-3.345-7.471-7.471-7.471s-7.471,3.345-7.471,7.471c0,.397.04.785.1,1.165,0,0,0,0,.001,0-9.763,3.14-16.831,12.293-16.831,23.1,0,2.933.521,5.744,1.474,8.346-2.089,1.325-3.48,3.651-3.48,6.308,0,4.126,3.345,7.471,7.471,7.471,1.997,0,3.807-.788,5.147-2.065-.002-.001-.004-.003-.006-.004,3.891,2.655,8.593,4.21,13.659,4.21,5.277,0,10.157-1.69,14.139-4.551,0,0,0,0,0,0,1.365,1.479,3.313,2.41,5.484,2.41,4.126,0,7.471-3.345,7.471-7.471,0-2.94-1.702-5.476-4.171-6.695ZM32,13.839c2.055,0,4.256,3.696,5.58,9.733-2.093.215-4.27.346-6.446.346-1.65,0-3.236-.069-4.749-.182,1.32-6.133,3.541-9.897,5.615-9.897ZM31.134,25.918c2.32,0,4.625-.138,6.832-.367.469,2.711.763,5.803.815,9.185h-13.562c.051-3.315.335-6.351.789-9.023,1.627.127,3.341.205,5.126.205ZM40.79,34.735c-.052-3.206-.337-6.436-.845-9.42,4.123-.542,7.791-1.373,10.402-2.173,2.291,3.327,3.701,7.304,3.892,11.594h-13.449ZM31.134,45.553c-1.793,0-3.514.079-5.146.207-.447-2.676-.726-5.712-.771-9.025h13.566c-.046,3.367-.333,6.448-.792,9.156-2.159-.211-4.458-.338-6.857-.338ZM37.613,47.863c-1.32,6.131-3.54,9.894-5.613,9.894-2.087,0-4.323-3.815-5.64-10.019,1.52-.114,3.115-.184,4.774-.184,2.267,0,4.438.117,6.479.31ZM23.209,34.735h-13.448c.191-4.299,1.607-8.283,3.907-11.614l-.127.47c2.172.589,5.879,1.446,10.479,1.939-.485,2.924-.759,6.076-.81,9.206ZM23.208,36.735c.044,3.127.312,6.28.79,9.208-4.589.493-8.492,1.384-10.66,1.971l.33.435c-2.3-3.331-3.716-7.316-3.907-11.615h13.447ZM24.36,47.915c.847,4.136,2.148,7.66,3.879,9.761-5.467-.934-10.259-3.866-13.597-8.019,2.178-.565,5.579-1.307,9.717-1.743ZM39.606,48.077c3.842.478,7.098,1.222,9.433,1.969-3.32,3.947-7.983,6.725-13.278,7.63,1.708-2.074,2.998-5.533,3.846-9.599ZM50.32,48.367c-2.441-.844-6.04-1.712-10.347-2.256.497-2.976.773-6.189.818-9.375h13.448c-.191,4.306-1.612,8.297-3.919,11.632ZM49.051,21.439c-2.415.691-5.757,1.415-9.482,1.901-.869-4.09-2.191-7.543-3.939-9.569,5.356.882,10.073,3.68,13.421,7.667ZM26.465,11.471c0-3.017,2.454-5.471,5.471-5.471s5.471,2.454,5.471,5.471c0,.204-.013.405-.035.604,0,0,0,0,0,0-1.729-.391-3.525-.604-5.373-.604-1.891,0-3.729.224-5.496.633,0,0,0,0,0,0-.024-.208-.04-.418-.04-.633ZM28.37,13.771c-1.778,2.061-3.116,5.602-3.984,9.787-4.149-.435-7.56-1.179-9.742-1.745,3.364-4.185,8.205-7.132,13.727-8.042ZM16.714,54.576c-.952.8-2.177,1.284-3.514,1.284-3.017,0-5.471-2.454-5.471-5.471,0-1.82.896-3.43,2.267-4.425-.001-.003-.003-.007-.004-.01,1.565,3.364,3.875,6.31,6.723,8.623,0,0,0,0,0,0ZM51.623,55.86c-1.529,0-2.911-.632-3.905-1.646,2.758-2.348,4.981-5.301,6.469-8.655,0,0,0,0,0,0,1.728.921,2.907,2.739,2.907,4.83,0,3.017-2.455,5.471-5.471,5.471Z"/></svg>