<?xml version="1.0" encoding="UTF-8"?><svg id="Icons" xmlns="http://www.w3.org/2000/svg" viewBox="0 0 64 64"><defs><style>.cls-1{fill:#04e1cb;}</style></defs><path class="cls-1" d="M54.958,4.06c-7.505,1.248-15.212,1.898-23.071,1.898-7.772,0-15.396-.635-22.823-1.857-2.619-.431-5.049,1.561-5.049,4.223v34.117l5.606-5.25,6.965-6.523.049-.044c1.037-.916,2.61-.869,3.591.118l5.37,5.407h0l.044.042c.36.318.898.294,1.242-.042h.003l11.892-11.941c-3.556.399-7.048.606-11.376.606-1.449,0-2.624-1.179-2.624-2.633s1.175-2.633,2.624-2.633c6.744,0,11.306-.519,17.73-1.544l.581-.094c.122-.022.247-.035.374-.04h.004c.019,0,.038-.001.057-.001.33-.004.65.055.946.167.009.003.018.007.027.01.008.003.017.006.025.009.311.124.589.304.825.527l.009.008c.01.009.02.019.029.028.008.008.016.016.024.024l.002.003s.005.005.008.008l.003.003c.011.012.023.024.034.036.001.001.003.003.004.004l.003.003c.249.266.445.585.568.943.091.263.141.542.143.83,0,.009,0,.019,0,.028,0,.009,0,.019,0,.028-.001.15-.016.298-.042.443l-.092.577c-1.021,6.446-1.539,11.024-1.539,17.792,0,1.454-1.175,2.633-2.623,2.633s-2.623-1.179-2.623-2.633c0-4.339.206-7.841.603-11.407l-14.389,14.45c-.492.495-1.161.772-1.857.772-.697,0-1.365-.279-1.856-.774l-5.226-5.262-.249-.226c-.338-.34-.876-.358-1.239-.052l-5.138,4.807-8.512,7.963v7.192c0,1.764,1.425,3.194,3.184,3.194.185,0,.369-.016.551-.048,7.841-1.367,15.906-2.08,24.137-2.08s16.282.712,24.117,2.076c.196.034.394.051.592.051,1.888,0,3.419-1.535,3.419-3.43V8.282c0-2.665-2.436-4.658-5.057-4.222Z"/></svg>