<?xml version="1.0" encoding="UTF-8"?><svg id="Icons" xmlns="http://www.w3.org/2000/svg" viewBox="0 0 64 64"><defs><style>.cls-1{fill:#0d9dda;}</style></defs><path class="cls-1" d="M54.198,37.43l-.002-22.077c0-3.249-2.622-5.768-5.867-5.923-1.292-.062-1.48-.102-2.523-.225-3.511-.413-8.014-3.388-10.499-4.498-2.109-.942-4.502-.942-6.611,0-2.485,1.11-6.888,4.084-10.4,4.498-1.058.125-1.448.227-2.681.227-3.216,0-5.808,2.646-5.808,5.863v22.023c0,.05-.001.1-.005.15-.001.083-.072,11.128,19.235,21.771,1.848,1.019,4.09,1.014,5.938-.005,9.538-5.26,14.236-10.55,16.532-14.248,2.746-4.422,2.692-7.524,2.691-7.555ZM43.415,39.599c-1.344,2.164-4.093,5.26-9.675,8.338-.542.299-1.142.449-1.742.449s-1.194-.148-1.733-.446c-11.298-6.229-11.257-12.692-11.256-12.74.002-.029.003-.058.003-.088v-12.888c0-1.882,1.517-3.377,3.399-3.431.659-.019.95-.06,1.569-.133,2.055-.242,4.632-1.983,6.086-2.632.617-.276,1.276-.414,1.935-.414s1.317.138,1.934.414c1.454.65,4.089,2.391,6.144,2.632.611.072.793.084,1.477.132,1.897.131,3.433,1.565,3.434,3.466v12.92c.001.018.033,1.833-1.574,4.421Z"/><path class="cls-1" d="M39.494,23.626c-2.422-.285-4.758-1.535-6.465-2.448-.381-.204-.773-.413-1.029-.536-.254.123-.647.335-1.028.542-1.681.91-3.984,2.156-6.407,2.442l-.167.02c-.131.016-.258.031-.385.045v11.343c.106.529,1.067,4.139,7.988,8.144,4.473-2.589,6.403-4.986,7.167-6.216.644-1.037.793-1.734.823-1.918v-11.362c-.145-.015-.305-.033-.496-.055Z"/></svg>