<?xml version="1.0" encoding="UTF-8"?><svg id="Icons" xmlns="http://www.w3.org/2000/svg" viewBox="0 0 64 64"><defs><style>.cls-1{fill:#fff;}</style></defs><path class="cls-1" d="M32.001,6h0c.861,0,1.698.179,2.489.533.628.281,1.467.729,2.355,1.205,2.592,1.386,5.817,3.111,8.725,3.454l.434.052c.711.086,1.069.129,2.228.185,2.259.108,3.962,1.795,3.962,3.926l.002,22.097c0,.026-.032,2.682-2.39,6.48-2.085,3.357-6.518,8.433-15.799,13.552-.615.339-1.31.518-2.011.518-.697,0-1.387-.177-1.996-.513-17.523-9.66-18.179-19.52-18.2-19.974.003-.065.004-.13.004-.195V15.294c0-1.03.398-2,1.121-2.733.719-.729,1.673-1.13,2.689-1.13,1.073,0,1.635-.074,2.285-.161.186-.025.389-.052.627-.08,2.894-.341,6.057-2.053,8.598-3.428.898-.486,1.747-.945,2.384-1.23.791-.353,1.629-.533,2.49-.533M32.001,4c-1.125,0-2.251.236-3.305.707-2.485,1.11-6.889,4.084-10.4,4.498-1.057.125-1.448.227-2.679.227h-.002c-3.217,0-5.808,2.646-5.808,5.863v22.023c0,.05-.001.1-.005.15-.001.083-.072,11.128,19.235,21.771.922.508,1.941.762,2.961.762s2.05-.256,2.977-.767c9.538-5.26,14.236-10.55,16.532-14.248,2.746-4.422,2.692-7.524,2.691-7.555l-.002-22.077c0-3.249-2.622-5.768-5.867-5.923-1.292-.062-1.48-.102-2.523-.225-3.511-.413-8.014-3.388-10.499-4.498-1.055-.471-2.18-.707-3.306-.707h0Z"/><path class="cls-1" d="M32.106,20.593h.005-.005M32.001,20.642c.256.123.648.333,1.029.536,1.706.913,4.043,2.163,6.465,2.448.191.023.351.04.495.055v11.362c-.029.183-.178.881-.822,1.918-.764,1.231-2.694,3.627-7.167,6.216-6.921-4.005-7.882-7.614-7.988-8.144v-11.343c.128-.014.255-.029.385-.045l.167-.02c2.423-.286,4.726-1.532,6.407-2.442.382-.207.774-.419,1.028-.542M32.001,15.614c-.659,0-1.317.138-1.935.414-1.454.65-4.031,2.39-6.086,2.632-.619.073-.91.114-1.569.133-1.881.053-3.399,1.548-3.399,3.431v12.888c0,.029,0,.058-.003.088,0,.049-.042,6.512,11.256,12.74.54.297,1.136.446,1.733.446s1.2-.15,1.742-.449c5.582-3.078,8.331-6.174,9.675-8.338,1.607-2.588,1.575-4.403,1.575-4.421v-12.92c-.001-1.901-1.538-3.335-3.435-3.466-.683-.047-.866-.06-1.477-.132-2.055-.242-4.69-1.983-6.144-2.632-.617-.276-1.276-.414-1.934-.414h0Z"/></svg>