<?xml version="1.0" encoding="UTF-8"?>
<svg id="Layer_1" xmlns="http://www.w3.org/2000/svg" version="1.1" viewBox="0 0 137.94 137.94">
  <!-- Generator: Adobe Illustrator 30.2.1, SVG Export Plug-In . SVG Version: 2.1.1 Build 1)  -->
  <defs>
    <style>
      .st0 {
        fill: #e03a26;
      }

      .st1 {
        fill: #f05123;
      }

      .st2 {
        fill: #3d55a5;
      }

      .st3 {
        fill: #f47d20;
      }
    </style>
  </defs>
  <polygon class="st1" points="61.96 80.25 103.45 103.45 105 85.81 93.48 73.54 76.48 70.74 61.96 80.25"/>
  <polygon class="st3" points="68.97 0 103.45 103.45 137.94 68.97 68.97 0"/>
  <polygon class="st2" points="63.42 54.79 61.96 80.25 114.96 68.97 63.42 54.79"/>
  <polygon class="st0" points="0 68.97 0 68.97 36.82 105.8 43.68 96.61 42.45 85.57 25.55 74.61 0 68.97"/>
  <polygon class="st1" points="65.24 3.74 0 68.97 42.45 85.57 65.24 3.74"/>
  <polygon class="st3" points="42.45 85.57 36.82 105.8 68.97 137.94 99.17 107.74 42.45 85.57"/>
</svg>