<?xml version="1.0" encoding="UTF-8"?><svg id="Icons" xmlns="http://www.w3.org/2000/svg" viewBox="0 0 64 64"><defs><style>.cls-1{fill:#fff;}</style></defs><path class="cls-1" d="M32.872,21.516c.436-.043.859-.125,1.274-.226-.416.101-.839.183-1.274.226Z"/><path class="cls-1" d="M22.998,15.099h0c.143.433.319.849.52,1.252-.201-.402-.377-.819-.52-1.252Z"/><path class="cls-1" d="M31.401,21.537c-1.963-.109-3.764-.818-5.223-1.947,1.46,1.132,3.26,1.838,5.223,1.947h0Z"/><path class="cls-1" d="M56.379,37.281h-7.133l-7.278-19.718c-1.68,3.107-4.762,5.338-8.391,5.867l5.112,13.851h-13.201l5.178-13.792c-3.714-.411-6.891-2.612-8.656-5.718l-7.2,19.509h-7.19c-1.381,0-2.5,1.119-2.5,2.5s1.119,2.5,2.5,2.5h5.345l-3.601,9.757c-.01.026-.014.055-.022.082-.107.302-.182.616-.181.917-.009.505.203.971.894,1.306l.904.318-1.232,3.186c-.498,1.288.143,2.735,1.431,3.233.296.115.601.169.9.169,1.003,0,1.949-.607,2.333-1.599l1.268-3.279,1.001.387c.186.049.349.064.502.065.059.002.116-.002.173-.01.056-.006.11-.012.162-.024.005-.001.01-.003.015-.005.521-.13.827-.559,1.042-1.066.03-.066.061-.133.086-.2l4.971-13.24h16.924l4.863,13.178c.309.849.787,1.608,1.996,1.293l.93-.36,1.261,3.259c.384.991,1.33,1.599,2.333,1.599.3,0,.604-.054.9-.169,1.288-.498,1.929-1.945,1.431-3.233l-1.226-3.169.976-.343c.977-.475,1.006-1.208.788-1.948-.025-.123-.056-.244-.098-.357l-3.598-9.749h5.288c1.381,0,2.5-1.119,2.5-2.5s-1.119-2.5-2.5-2.5Z"/><path class="cls-1" d="M38.99,18.357c.575-.654,1.058-1.388,1.435-2.184-.376.796-.861,1.53-1.435,2.184Z"/><path class="cls-1" d="M36.932,20.112c.721-.455,1.375-1.004,1.946-1.632-.572.628-1.225,1.177-1.946,1.632Z"/><path class="cls-1" d="M34.413,21.221c.824-.226,1.602-.559,2.319-.987-.717.428-1.495.762-2.319.987Z"/><path class="cls-1" d="M31.928,2.75c-5.195,0-9.407,4.212-9.407,9.407s4.212,9.407,9.407,9.407,9.407-4.211,9.407-9.407-4.211-9.407-9.407-9.407ZM31.928,15.189c-1.675,0-3.033-1.358-3.033-3.033s1.358-3.033,3.033-3.033,3.033,1.358,3.033,3.033-1.358,3.033-3.033,3.033Z"/></svg>