<?xml version="1.0" encoding="UTF-8"?><svg id="Icons" xmlns="http://www.w3.org/2000/svg" viewBox="0 0 64 64"><defs><style>.cls-1{fill:#fff;}</style></defs><path class="cls-1" d="M60,15.151c0-6.159-12.536-11.151-28-11.151S4,8.992,4,15.151v9.077c0,3.042,3.062,5.798,8.021,7.81-.031-.012-.064-.023-.094-.036-4.903,2.008-7.927,4.748-7.927,7.77v9.077c0,6.159,12.536,11.151,28,11.151s28-4.993,28-11.151v-9.075c0,.186-.012.372-.035.556.023-.185.035-.37.035-.557,0-3.023-3.024-5.762-7.927-7.771-.025.01-.052.019-.078.029,4.95-2.011,8.005-4.765,8.005-7.803v-9.075c0,.186-.012.372-.035.556.023-.185.035-.371.035-.558ZM12.941,9.124c5.059-2.015,11.827-3.124,19.059-3.124s14,1.109,19.059,3.124c4.346,1.731,6.941,3.984,6.941,6.027s-2.595,4.296-6.941,6.027c-5.059,2.015-11.827,3.124-19.059,3.124s-14-1.109-19.059-3.124c-4.346-1.731-6.941-3.984-6.941-6.027s2.595-4.296,6.941-6.027ZM58,43.911v4.938c0,2.043-2.595,4.296-6.941,6.027-5.059,2.015-11.827,3.124-19.059,3.124s-14-1.109-19.059-3.124c-4.346-1.731-6.941-3.984-6.941-6.027v-4.939c4.127,4.109,14.209,7.013,26,7.013s21.878-2.906,26.003-7.016c-.001.001-.002.002-.003.004ZM51.059,33.745c4.346,1.731,6.941,3.984,6.941,6.027s-2.595,4.296-6.941,6.027c-5.059,2.015-11.827,3.124-19.059,3.124s-14-1.109-19.059-3.124c-4.346-1.731-6.941-3.984-6.941-6.027s2.595-4.296,6.941-6.027c.619-.247,1.266-.479,1.935-.698.561.173,1.138.338,1.732.494t0,0v4.5c0,1.381,1.119,2.5,2.5,2.5s2.5-1.119,2.5-2.5v-3.46c2.477.395,5.126.653,7.893.75v8.446c0,1.381,1.119,2.5,2.5,2.5s2.5-1.119,2.5-2.5v-8.446c2.767-.098,5.417-.356,7.894-.75,0,0,0,0,0,0v3.46c0,1.381,1.119,2.5,2.5,2.5s2.5-1.119,2.5-2.5v-4.5c.594-.156,1.17-.321,1.731-.494.668.219,1.315.451,1.935.698ZM19.031,34.11s.003,0,.005,0c-.002,0-.003,0-.005,0ZM44.962,34.111l.009-.002-.009.002ZM58,19.289v4.938c0,2.043-2.595,4.296-6.941,6.027-5.059,2.015-11.827,3.124-19.059,3.124s-14-1.109-19.059-3.124c-4.346-1.731-6.941-3.984-6.941-6.027v-4.938c4.127,4.109,14.209,7.013,26,7.013s21.875-2.905,26.001-7.014c0,0,0,0-.001.001Z"/></svg>