<?xml version="1.0" encoding="UTF-8"?><svg id="Icons" xmlns="http://www.w3.org/2000/svg" viewBox="0 0 64 64"><defs><style>.cls-1{fill:#90d0fe;}.cls-2{fill:#001e5b;}.cls-3{fill:#cfe9fe;}.cls-4{fill:#fff;}.cls-5{fill:#05628a;}.cls-6{fill:#0d9dda;}</style></defs><path class="cls-1" d="M48.255,39.772c-4.584-1.304-10.192-2.074-16.255-2.074s-11.671.77-16.255,2.074H4v9.077c0,6.159,12.536,11.151,28,11.151s28-4.992,28-11.151v-9.077h-11.745Z"/><ellipse class="cls-3" cx="32" cy="39.772" rx="28" ry="11.151"/><path class="cls-2" d="M32,46.278c-1.381,0-2.5-1.119-2.5-2.5v-27.628c0-1.381,1.119-2.5,2.5-2.5s2.5,1.119,2.5,2.5v27.628c0,1.381-1.119,2.5-2.5,2.5Z"/><path class="cls-2" d="M19.107,40.542c-1.381,0-2.5-1.119-2.5-2.5V10.414c0-1.381,1.119-2.5,2.5-2.5s2.5,1.119,2.5,2.5v27.628c0,1.381-1.119,2.5-2.5,2.5Z"/><path class="cls-2" d="M44.893,40.542c-1.381,0-2.5-1.119-2.5-2.5V10.414c0-1.381,1.119-2.5,2.5-2.5s2.5,1.119,2.5,2.5v27.628c0,1.381-1.119,2.5-2.5,2.5Z"/><path class="cls-5" d="M48.255,15.151c-4.584-1.304-10.192-2.074-16.255-2.074s-11.671.77-16.255,2.074H4c.625,3.747.648,6.297.279,8.07-.311,1.495.024,3.087.959,4.295,3.523,4.554,14.173,7.863,26.763,7.863,14.014,0,25.624-4.1,27.677-9.453.319-.831.279-1.747.114-2.622-.473-2.512-.276-5.278.208-8.153h-11.745Z"/><ellipse class="cls-6" cx="32" cy="15.151" rx="28" ry="11.151"/><path class="cls-5" d="M48.255,15.151c-4.584-1.304-10.192-2.074-16.255-2.074s-11.671.77-16.255,2.074H4v9.077c0,6.159,12.536,11.151,28,11.151s28-4.992,28-11.151v-9.077h-11.745Z"/><ellipse class="cls-6" cx="32" cy="15.151" rx="28" ry="11.151"/><path class="cls-4" d="M33.662,6.997c-.856,0-1.414.093-1.547.556-.044.154-.061.439.284.701.078.078.182.13.299.142,11.479,1.196,19.496,4.755,19.497,8.681.013.236.143.568.467.726.121.058.245.081.369.081.442,0,.869-.304,1.033-.421.04-.028.075-.062.104-.101.563-.727.849-1.482.849-2.247,0-4.323-9.175-7.812-21.355-8.117Z"/></svg>