<?xml version="1.0" encoding="UTF-8"?><svg id="Icons" xmlns="http://www.w3.org/2000/svg" viewBox="0 0 64 64"><defs><style>.cls-1{fill:#1ab9ff;}</style></defs><path class="cls-1" d="M54.11,26.52c-3.613.279-7.264.422-10.949.422s-7.314-.142-10.916-.419c-1.651-.127-3.08,1.164-3.08,2.82v27.784c0,1.656,1.429,2.948,3.08,2.82,3.613-.279,7.265-.422,10.95-.422s7.313.142,10.914.419c1.651.127,3.08-1.164,3.08-2.82v-27.784c0-1.656-1.429-2.948-3.08-2.82ZM41.37,53c0,.773-.627,1.4-1.4,1.4h-2.8c-.773,0-1.4-.627-1.4-1.4v-4.2c0-.773.627-1.4,1.4-1.4h2.8c.773,0,1.4.627,1.4,1.4v4.2ZM41.37,40.4c0,.773-.627,1.4-1.4,1.4h-2.8c-.773,0-1.4-.627-1.4-1.4v-4.2c0-.773.627-1.4,1.4-1.4h2.8c.773,0,1.4.627,1.4,1.4v4.2ZM49.886,53c0,.773-.627,1.4-1.4,1.4h-2.8c-.773,0-1.4-.627-1.4-1.4v-4.2c0-.773.627-1.4,1.4-1.4h2.8c.773,0,1.4.627,1.4,1.4v4.2ZM49.886,40.4c0,.773-.627,1.4-1.4,1.4h-2.8c-.773,0-1.4-.627-1.4-1.4v-4.2c0-.773.627-1.4,1.4-1.4h2.8c.773,0,1.4.627,1.4,1.4v4.2Z"/><path class="cls-1" d="M57.185,6.579c-.268-1.354-1.585-2.236-2.938-1.967l-30.651,6.067v-3.913c0-1.527-1.238-2.765-2.765-2.765h-11.301c-1.527,0-2.765,1.238-2.765,2.765v50.47c0,1.527,1.238,2.765,2.765,2.765h11.301c1.527,0,2.765-1.238,2.765-2.765V15.775l17.082-3.381v4.449l-.312.231-4.979,3.334c-.388.26-.621.696-.621,1.163v.628c0,.773.627,1.4,1.4,1.4h14c.773,0,1.4-.627,1.4-1.4v-.628c0-.467-.233-.903-.621-1.163l-4.979-3.334-.288-.207v-5.335c0-.043-.01-.083-.013-.125l9.552-1.891c1.354-.268,2.235-1.583,1.967-2.938ZM11.766,9h6.831v2.668l-6.831,1.352v-4.02ZM18.596,16.765v5.365h-6.831v-4.013l6.831-1.352ZM11.766,33.3v-6.169h6.831v6.169h-6.831ZM18.596,38.3v6.169h-6.831v-6.169h6.831ZM11.766,55v-5.531h6.831v5.531h-6.831Z"/></svg>