<?xml version="1.0" encoding="UTF-8"?><svg id="Icons" xmlns="http://www.w3.org/2000/svg" viewBox="0 0 64 64"><defs><style>.cls-1{fill:#fff;}</style></defs><path class="cls-1" d="M53.668,28.755c.468,0,.848.369.848.822v27.568c0,.453-.381.822-.848.822-.023,0-.047,0-.07-.003-3.631-.28-7.326-.422-10.982-.422s-7.375.143-11.018.425c-.024.002-.047.003-.07.003-.468,0-.848-.369-.848-.822v-27.569c0-.453.381-.822.848-.822.023,0,.047,0,.07.003,3.631.28,7.326.422,10.984.422s7.374-.143,11.017-.425c.024-.002.047-.003.07-.003M53.668,26.771c-.074,0-.148.003-.223.009-3.585.277-7.208.419-10.864.419s-7.257-.14-10.831-.416c-.075-.006-.149-.009-.223-.009-1.541,0-2.833,1.239-2.833,2.807v27.569c0,1.568,1.291,2.807,2.833,2.807.074,0,.149-.003.224-.009,3.585-.277,7.209-.419,10.865-.419s7.256.14,10.83.416c.075.006.149.009.223.009,1.541,0,2.833-1.239,2.833-2.807v-27.568c0-1.568-1.291-2.807-2.833-2.807h0Z"/><rect class="cls-1" x="35.247" y="34.995" width="5.557" height="6.946" rx="1.389" ry="1.389"/><rect class="cls-1" x="43.697" y="34.995" width="5.557" height="6.946" rx="1.389" ry="1.389"/><rect class="cls-1" x="35.247" y="47.498" width="5.557" height="6.946" rx="1.389" ry="1.389"/><rect class="cls-1" x="43.697" y="47.498" width="5.557" height="6.946" rx="1.389" ry="1.389"/><path class="cls-1" d="M18.206,56.031h-6.778c-.548,0-.992-.444-.992-.992v-5.488c0-.548.444-.992.992-.992h6.778c.548,0,.992.444.992.992v5.488c0,.548-.444.992-.992.992ZM12.421,54.047h4.793v-3.503h-4.793v3.503Z"/><path class="cls-1" d="M18.206,45.582h-6.778c-.548,0-.992-.444-.992-.992v-6.122c0-.548.444-.992.992-.992h6.778c.548,0,.992.444.992.992v6.122c0,.548-.444.992-.992.992ZM12.421,43.597h4.793v-4.137h-4.793v4.137Z"/><path class="cls-1" d="M18.206,34.499h-6.778c-.548,0-.992-.444-.992-.992v-6.122c0-.548.444-.992.992-.992h6.778c.548,0,.992.444.992.992v6.122c0,.548-.444.992-.992.992ZM12.421,32.515h4.793v-4.137h-4.793v4.137Z"/><path class="cls-1" d="M18.206,23.416h-6.778c-.548,0-.992-.444-.992-.992v-3.982c0-.474.335-.881.799-.973l6.778-1.342c.291-.058.594.019.823.206.23.189.362.47.362.767v5.324c0,.548-.444.992-.992.992ZM12.421,21.432h4.793v-3.124l-4.793.949v2.175Z"/><path class="cls-1" d="M11.428,14.376c-.228,0-.451-.078-.63-.225-.23-.188-.362-.47-.362-.767v-3.988c0-.548.444-.992.992-.992h6.778c.548,0,.992.444.992.992v2.647c0,.474-.335.881-.799.973l-6.778,1.342c-.064.013-.129.019-.193.019ZM12.421,10.388v1.788l4.793-.949v-.84h-4.793Z"/><path class="cls-1" d="M57.467,6.8c-.18-.909-.704-1.695-1.475-2.211-.771-.516-1.695-.702-2.606-.521l-30.213,5.98-.006-.231v-2.638c0-1.515-1.228-2.743-2.743-2.743h-11.213c-1.515,0-2.743,1.228-2.743,2.743v50.079c0,1.515,1.228,2.743,2.743,2.743h11.213c1.515,0,2.743-1.228,2.743-2.743V19.204l.003-2.075,15.952-3.157v2.699l-4.81,3.22c-.662.443-1.057,1.183-1.057,1.979v.623c0,1.313,1.068,2.381,2.382,2.381h13.891c1.313,0,2.381-1.068,2.381-2.381v-.623c0-.796-.395-1.536-1.056-1.979l-4.786-3.204v-4.09l8.666-1.715c1.878-.372,3.104-2.203,2.733-4.081ZM54.348,8.935l-9.478,1.876c-.482.095-.821.529-.798,1.019.002.049.008.109.012.079v5.293c0,.319.154.619.413.806l5.254,3.533c.11.074.176.197.176.329v.623c0,.219-.178.397-.397.397h-13.891c-.219,0-.397-.178-.397-.397v-.623c0-.133.066-.256.176-.329l4.98-3.336.309-.229c.252-.187.401-.483.401-.797v-4.415c0-.297-.133-.578-.362-.767-.23-.188-.532-.265-.823-.206l-17.936,3.55c-.464.092-.799.499-.799.972l-.002,1.753h-.002v1.339s0,0,0,0v37.852c0,.418-.34.759-.759.759h-11.213c-.418,0-.759-.34-.759-.759V7.178c0-.418.34-.759.759-.759h11.213c.418,0,.759.34.759.759v3.184l.034.912c.007.293.142.568.371.751.228.183.525.255.813.199l31.37-6.209c.388-.078.785.002,1.116.223s.556.558.633.948c.159.805-.366,1.59-1.172,1.749Z"/></svg>