<?xml version="1.0" encoding="UTF-8"?><svg id="Icons" xmlns="http://www.w3.org/2000/svg" viewBox="0 0 64 64"><defs><style>.cls-1{fill:#90d0fe;}.cls-2{fill:#1ab9ff;}.cls-3{fill:#fff;}.cls-4{fill:#05628a;}.cls-5{fill:#0d9dda;}</style></defs><path class="cls-2" d="M57.191,57.168c0,1.656-1.429,2.947-3.08,2.82-3.602-.278-7.242-.419-10.915-.419s-7.337.143-10.95.422c-1.651.128-3.08-1.164-3.08-2.82v-27.784c0-1.656,1.429-2.947,3.08-2.82,3.602.278,7.242.419,10.916.419s7.336-.143,10.949-.422c1.651-.128,3.08,1.164,3.08,2.82v27.784Z"/><path class="cls-5" d="M32.026,26.558c.455,14.291,5.284,26.585,12.232,33.015-.354-.003-.707-.004-1.061-.004-3.685,0-7.337.142-10.95.422-1.651.128-3.08-1.164-3.08-2.82v-27.784c0-1.582,1.304-2.831,2.86-2.829Z"/><path class="cls-4" d="M35.771,36.245c0-.773.627-1.4,1.4-1.4h2.8c.773,0,1.4.627,1.4,1.4v4.2c0,.773-.627,1.4-1.4,1.4h-2.8c-.773,0-1.4-.627-1.4-1.4v-4.2Z"/><path class="cls-4" d="M44.287,36.245c0-.773.627-1.4,1.4-1.4h2.8c.773,0,1.4.627,1.4,1.4v4.2c0,.773-.627,1.4-1.4,1.4h-2.8c-.773,0-1.4-.627-1.4-1.4v-4.2Z"/><path class="cls-4" d="M35.771,48.845c0-.773.627-1.4,1.4-1.4h2.8c.773,0,1.4.627,1.4,1.4v4.2c0,.773-.627,1.4-1.4,1.4h-2.8c-.773,0-1.4-.627-1.4-1.4v-4.2Z"/><path class="cls-4" d="M44.287,48.845c0-.773.627-1.4,1.4-1.4h2.8c.773,0,1.4.627,1.4,1.4v4.2c0,.773-.627,1.4-1.4,1.4h-2.8c-.773,0-1.4-.627-1.4-1.4v-4.2Z"/><path class="cls-3" d="M53.25,29.045c.453-1.125,1.848-.679,1.781.532-.228,4.138-.292,8.285-.192,12.433.029,1.222-1.393,1.62-1.806.469-1.567-4.366-1.505-9.165.216-13.435Z"/><path class="cls-1" d="M18.597,9v46h-6.831V9h6.831M20.832,4h-11.301c-1.527,0-2.765,1.238-2.765,2.765v50.47c0,1.527,1.238,2.765,2.765,2.765h11.301c1.527,0,2.765-1.238,2.765-2.765V6.765c0-1.527-1.238-2.765-2.765-2.765h0Z"/><rect class="cls-1" x="9.326" y="22.13" width="11.712" height="5"/><path class="cls-1" d="M43.224,19.974c-1.381,0-2.5-1.119-2.5-2.5v-5.941c0-1.381,1.119-2.5,2.5-2.5s2.5,1.119,2.5,2.5v5.941c0,1.381-1.119,2.5-2.5,2.5Z"/><path class="cls-1" d="M41.475,16.254l-1.107.82-4.979,3.334c-.388.26-.621.696-.621,1.163v.628c0,.773.627,1.4,1.4,1.4h14c.773,0,1.4-.627,1.4-1.4v-.628c0-.467-.233-.903-.621-1.163l-4.979-3.334-1.141-.821h-3.351Z"/><path class="cls-1" d="M9.573,18.501c-1.169,0-2.214-.824-2.45-2.015-.268-1.354.613-2.67,1.967-2.938L54.247,4.612c1.348-.265,2.67.612,2.938,1.967s-.613,2.67-1.967,2.938L10.061,18.454c-.164.032-.327.048-.488.048Z"/><rect class="cls-1" x="9.326" y="33.3" width="11.712" height="5"/><rect class="cls-1" x="9.326" y="44.469" width="11.712" height="5"/></svg>