<?xml version="1.0" encoding="UTF-8"?><svg id="Icons" xmlns="http://www.w3.org/2000/svg" viewBox="0 0 64 64"><defs><style>.cls-1{fill:#024d4c;}.cls-2{fill:#fff;}.cls-3{fill:#06a59a;}.cls-4{fill:#04e1cb;}</style></defs><path class="cls-1" d="M36.473,8.473c12.994,0,23.527,10.533,23.527,23.527s-10.533,23.527-23.527,23.527c-9.745,0-18.106-5.925-21.678-14.369-.595-1.407,1.8-4.409,1.64-7.715s-2.874-6.916-2.577-7.949c2.823-9.829,11.879-17.02,22.616-17.02Z"/><path class="cls-2" d="M25.796,47.474l20.847-20.858c-.295,2.645-.449,5.243-.449,8.462,0,1.079.874,1.953,1.952,1.953s1.952-.874,1.952-1.953c0-5.02.385-8.417,1.145-13.199l.068-.428c.02-.107.03-.217.031-.329,0-.007,0-.014,0-.021,0-.007,0-.014,0-.021-.002-.214-.039-.421-.107-.616-.092-.266-.237-.503-.423-.7l-.002-.002s-.002-.002-.003-.003c-.008-.009-.017-.018-.025-.026l-.003-.002s-.004-.004-.006-.006l-.002-.002c-.006-.006-.012-.012-.018-.018-.007-.007-.015-.014-.022-.021l-.006-.006c-.176-.165-.383-.299-.614-.391-.006-.002-.012-.005-.018-.007-.007-.003-.013-.005-.02-.008-.221-.083-.459-.126-.704-.124-.014,0-.028,0-.043,0h-.003c-.094.003-.187.013-.278.029l-.433.069c-4.78.76-8.176,1.146-13.194,1.146-1.078,0-1.952.874-1.952,1.953s.874,1.953,1.952,1.953c3.221,0,5.819-.154,8.466-.45l-20.318,20.327"/><path class="cls-4" d="M22.254,33.031c6.04,0,11.244,4.256,12.442,10.176l1.715,8.47c.425,2.098-1.391,3.972-3.514,3.704-4.203-.53-8.487-.803-12.835-.803-4.231,0-8.401.259-12.496.761-2.126.261-3.936-1.622-3.501-3.719l1.754-8.468c1.221-5.894,6.412-10.12,12.431-10.12h4.004Z"/><circle class="cls-4" cx="20.236" cy="24.897" r="10.156"/><path class="cls-3" d="M14.28,16.688c-.739,1.572-1.152,3.327-1.152,5.179,0,6.525,5.127,11.851,11.572,12.172-1.347.66-2.862,1.031-4.463,1.031-5.609,0-10.156-4.547-10.156-10.156,0-3.384,1.655-6.381,4.199-8.226Z"/><path class="cls-2" d="M19.491,17.474c3.622-.885,7.278,1.345,8.167,4.981.125.51.188,1.021.195,1.524.012.85-1.055.944-1.52.233-1.644-2.51-4.143-4.32-6.981-5.114-.817-.229-1.053-1.271-.242-1.519.125-.038.252-.073.381-.105Z"/><path class="cls-3" d="M10.045,36.039c-.756,1.678-1.177,3.54-1.177,5.499,0,6.339,4.403,11.65,10.317,13.043-3.93.033-7.807.29-11.619.757-2.126.261-3.936-1.622-3.501-3.719l1.754-8.468c.593-2.861,2.121-5.33,4.226-7.112Z"/></svg>