<?xml version="1.0" encoding="UTF-8"?><svg id="Icons" xmlns="http://www.w3.org/2000/svg" viewBox="0 0 64 64"><defs><style>.cls-1{fill:#0d9dda;}</style></defs><path class="cls-1" d="M37.561,27.242c-.116.013-.235.018-.352.03v-.659c0-2.76-2.238-4.998-4.998-4.998s-4.998,2.237-4.998,4.998v.66c-.117-.012-.236-.017-.353-.03-1.154-.13-2.192.752-2.192,1.913v9.301c0,1.161,1.039,2.044,2.193,1.913,1.758-.199,3.545-.301,5.355-.301s3.591.102,5.345.3c1.153.13,2.192-.752,2.192-1.913v-9.301c0-1.161-1.039-2.044-2.193-1.913ZM30.214,26.614c0-1.102.896-1.998,1.998-1.998s1.998.896,1.998,1.998v.873c-.666.028-1.331.056-2.004.056-.668,0-1.33-.028-1.991-.056v-.874Z"/><path class="cls-1" d="M45.513,4.049c-7.356,1.021-19.77,1.035-27.034.039-2.992-.41-5.714,1.876-5.714,4.895v46.032c0,3.02,2.722,5.305,5.714,4.895,5.549-.76,14.103-.932,21.112-.515,2.167.129,4.186.314,5.922.555,2.995.416,5.723-1.871,5.723-4.894V8.943c0-3.023-2.728-5.31-5.723-4.894ZM32,56.723c-1.577,0-2.855-1.278-2.855-2.855s1.278-2.855,2.855-2.855,2.855,1.278,2.855,2.855-1.278,2.855-2.855,2.855ZM45.306,45.371c0,2.058-1.857,3.615-3.896,3.332-.998-.139-2.133-.25-3.349-.334,0,0-9.992-.212-14.394.231-.218.026-.454.048-.66.076-2.036.279-3.889-1.277-3.889-3.333V14.007c0-2.056,1.853-3.612,3.889-3.332,4.945.678,13.396.668,18.403-.027,2.038-.283,3.896,1.274,3.896,3.332v31.391Z"/></svg>