<?xml version="1.0" encoding="UTF-8"?><svg id="Icons" xmlns="http://www.w3.org/2000/svg" viewBox="0 0 64 64"><defs><style>.cls-1{fill:#fff;}.cls-2{fill:#05628a;}.cls-3{fill:#0d9dda;}</style></defs><path class="cls-2" d="M37.814,54.497s-.065.008-.07.008l-24.122-.119c-1.38-.007-2.495-1.131-2.488-2.512.006-1.377,1.125-2.488,2.5-2.488h.012l24.18.111c1.38.007,2.495,1.131,2.488,2.512-.006,1.377-1.125,2.488-2.5,2.488Z"/><path class="cls-2" d="M29.31,34.532h-.013l-25.31-.123c-1.381-.007-2.495-1.132-2.488-2.512.007-1.377,1.125-2.488,2.5-2.488h.013l25.31.123c1.381.007,2.495,1.132,2.488,2.512-.007,1.377-1.125,2.488-2.5,2.488Z"/><path class="cls-2" d="M34.101,44.582h-.019l-25.31-.185c-1.381-.01-2.492-1.138-2.482-2.519.01-1.374,1.127-2.481,2.5-2.481h.019l25.31.185c1.381.01,2.492,1.138,2.482,2.519-.01,1.374-1.127,2.481-2.5,2.481Z"/><path class="cls-2" d="M34.1,24.482h-.006l-25.31-.062c-1.381-.003-2.498-1.125-2.494-2.506.003-1.379,1.122-2.494,2.5-2.494h.006l25.31.062c1.381.003,2.498,1.125,2.494,2.506-.003,1.379-1.122,2.494-2.5,2.494Z"/><path class="cls-3" d="M38.988,14.494h-.011l-25.31-.11c-1.381-.006-2.495-1.13-2.489-2.511.006-1.377,1.125-2.489,2.5-2.489h.011l20.189.088,3.964.027c1.381.006,3.652,1.125,3.646,2.506-.006,1.377-1.125,2.489-2.5,2.489Z"/><circle class="cls-3" cx="37.747" cy="32" r="22.506"/><path class="cls-2" d="M20.2,17.905c-2.297,8.227-.718,17.199,5.032,23.945,6.444,7.56,16.473,10.376,25.904,8.227-3.743,2.783-8.367,4.416-13.389,4.43-12.46.033-22.526-10.053-22.506-22.492,0-5.383,1.851-10.252,4.959-14.11Z"/><path class="cls-1" d="M41.797,14.641c5.193-1.467,10.597,1.569,12.07,6.783.105.373.188.746.248,1.12.16.993-1.08,1.259-1.672.446-2.551-3.506-6.287-5.949-10.448-6.897-.808-.184-.995-1.226-.197-1.451Z"/><path class="cls-1" d="M33.565,41.647h-.042c-.751-.013-1.457-.363-1.921-.953l-5.218-6.622c-.854-1.084-.668-2.656.417-3.511,1.085-.854,2.656-.669,3.511.417l3.321,4.215,10.097-11.953c.89-1.054,2.468-1.188,3.523-.297,1.055.892,1.188,2.469.296,3.523l-12.074,14.294c-.475.562-1.174.887-1.91.887Z"/></svg>