<?xml version="1.0" encoding="UTF-8"?><svg id="Icons" xmlns="http://www.w3.org/2000/svg" viewBox="0 0 64 64"><defs><style>.cls-1{fill:#e8762c;}.cls-2{fill:#eb912c;}.cls-3{fill:#59879b;}.cls-4{fill:#99102d;}.cls-5{fill:#fff;}.cls-6{fill:#354066;}.cls-7{fill:#1f447e;}.cls-8{fill:#7099a6;}.cls-9{fill:#4f7a84;}.cls-10{fill:#c72035;}.cls-11{fill:#5b6591;}</style></defs><path class="cls-2" d="M10.961,20.782h4.713v5.247c0,1.163.942,2.105,2.105,2.105h.226c1.163,0,2.105-.942,2.105-2.105v-5.247h4.713c1.163,0,2.105-.943,2.105-2.105h0c0-1.163-.943-2.105-2.105-2.105h-4.713v-5.248c0-1.163-.943-2.105-2.105-2.105h-.226c-1.163,0-2.105.942-2.105,2.105v5.249h-4.713c-1.163,0-2.105.942-2.105,2.105h0c0,1.163.943,2.106,2.105,2.106Z"/><path class="cls-8" d="M10.027,38.607c.984,0,1.781-.797,1.781-1.781v-3.174l2.768-.016c.974-.006,1.771-.807,1.771-1.781v-.003c0-.984-.797-1.781-1.781-1.781h-2.758v-3.13c0-.984-.797-1.781-1.781-1.781h-.08c-.984,0-1.781.797-1.781,1.781v3.13h-2.759c-.983,0-1.78.797-1.78,1.78v.272c0,.421.165.817.463,1.113s.673.451,1.116.456l2.96-.019v3.152c0,.983.797,1.78,1.78,1.78h.08Z"/><path class="cls-8" d="M27.493,12.57h2.741v3.228c0,.983.797,1.78,1.78,1.78h.111c.983,0,1.78-.797,1.78-1.78v-3.228h2.743c.983,0,1.78-.797,1.78-1.78h0c0-.984-.797-1.781-1.78-1.781h-2.743v-3.228c0-.983-.797-1.78-1.78-1.78h-.111c-.983,0-1.78.797-1.78,1.78v3.228h-2.741c-.984,0-1.781.797-1.781,1.781h0c0,.984.797,1.781,1.781,1.781Z"/><path class="cls-1" d="M32.001,42.533h.053c1.367,0,2.475-1.108,2.475-2.475v-5.699h5.046c1.367,0,2.475-1.108,2.475-2.475h0c0-1.368-1.108-2.476-2.475-2.476h-5.046v-5.701c0-1.367-1.108-2.475-2.475-2.475h-.053c-1.367,0-2.475,1.108-2.475,2.475v5.7h-5.046c-1.367,0-2.475,1.108-2.475,2.475h0c0,1.367,1.108,2.475,2.475,2.475h5.046v5.698c0,1.367,1.108,2.475,2.475,2.475Z"/><path class="cls-7" d="M46.139,54.354h.048c1.259,0,2.28-1.021,2.28-2.28v-5.046h4.452c1.259,0,2.28-.955,2.28-2.214h0c0-1.26-1.021-2.029-2.28-2.029h-4.452v-5.069c0-1.259-1.021-2.28-2.28-2.28h-.048c-1.26,0-2.281,1.021-2.281,2.281v5.068h-4.452c-1.26,0-2.281.769-2.281,2.029h0c0,1.26,1.021,2.214,2.281,2.214h4.452v5.045c0,1.26,1.021,2.281,2.281,2.281Z"/><path class="cls-3" d="M46.139,28.135h.048c1.259,0,2.28-1.021,2.28-2.28v-5.046h4.452c1.259,0,2.28-.955,2.28-2.214h0c0-1.26-1.021-2.029-2.28-2.029h-4.452v-5.069c0-1.259-1.021-2.28-2.28-2.28h-.048c-1.26,0-2.281,1.021-2.281,2.281v5.068h-4.452c-1.26,0-2.281.769-2.281,2.029h0c0,1.26,1.021,2.214,2.281,2.214h4.452v5.045c0,1.26,1.021,2.281,2.281,2.281Z"/><path class="cls-11" d="M53.67,38.997h.044c1.139,0,2.062-.923,2.062-2.062v-2.935h2.534c1.139,0,2.062-.923,2.062-2.062h0c0-1.14-.923-2.063-2.062-2.063h-2.534v-3.054c0-1.139-.923-2.062-2.062-2.062h-.044c-1.139,0-2.063.923-2.063,2.063v3.053h-2.538c-1.139,0-2.063.923-2.063,2.063h0c0,1.139.923,2.063,2.063,2.063h2.538v2.934c0,1.139.923,2.063,2.063,2.063Z"/><path class="cls-10" d="M26.929,44.927v-.067c0-1.163-.942-2.105-2.105-2.105h-4.634v-5.022c0-1.269-1.029-2.298-2.298-2.298h0c-1.269,0-2.298,1.029-2.298,2.298v5.022h-4.599c-1.181,0-2.139.957-2.139,2.139h0c0,1.181.957,2.139,2.139,2.139h4.599s0,5.216,0,5.216c0,1.163.942,2.105,2.105,2.105h.386c1.163,0,2.105-.943,2.105-2.105v-5.215h4.634c1.163,0,2.105-.943,2.105-2.105Z"/><path class="cls-11" d="M36.747,50.878h-2.564v-3.097c0-1.109-.899-2.008-2.008-2.008h-.208c-1.109,0-2.008.899-2.008,2.008v3.096h-2.563c-1.109,0-2.008.899-2.008,2.008h0c0,1.109.899,2.008,2.008,2.008h2.563v3.098c0,1.109.899,2.008,2.008,2.008h.209c1.109,0,2.008-.899,2.008-2.008v-3.098h2.565c1.109,0,2.007-.899,2.007-2.007h0c0-1.109-.899-2.008-2.008-2.008Z"/><path class="cls-5" d="M46.04,10.247c-.466-.012-1.31.388-.319,1.056.541.365,1.156.9,1.311,1.575.148.621.521.492.536.137.059-.866.077-1.863-.308-2.301-.279-.317-.83-.525-1.22-.467Z"/><path class="cls-5" d="M17.454,11.128c.541.365,1.156.9,1.311,1.575.148.621.521.492.536.137.059-.866.077-1.863-.308-2.301-.278-.317-.83-.525-1.219-.467-.466-.012-1.31.388-.319,1.056Z"/><path class="cls-5" d="M31.654,5.65c.436.294.931.724,1.055,1.268.119.5.419.396.431.111.047-.697.062-1.499-.248-1.852-.224-.255-.668-.423-.982-.376-.375-.009-1.054.312-.257.85Z"/><path class="cls-5" d="M9.924,25.958c-.375-.009-1.054.312-.257.85.436.294.931.724,1.055,1.268.119.5.419.396.431.111.047-.697.062-1.499-.248-1.852-.224-.255-.668-.423-.982-.376Z"/><path class="cls-5" d="M54.762,26.064c-.247-.281-.737-.466-1.083-.415-.414-.01-1.163.345-.284.938.48.324,1.027.799,1.164,1.399.132.552.463.437.476.122.052-.769.069-1.654-.274-2.044Z"/><path class="cls-5" d="M31.948,46.712c-.414-.01-1.163.345-.284.938.48.324,1.027.799,1.164,1.399.132.552.463.437.476.122.052-.769.069-1.654-.274-2.044-.247-.281-.737-.466-1.083-.415Z"/><path class="cls-5" d="M46.179,36.431c-.414-.01-1.163.345-.284.938.481.324,1.027.799,1.164,1.399.131.552.463.437.476.122.052-.769.069-1.654-.274-2.044-.247-.281-.737-.466-1.083-.415Z"/><path class="cls-5" d="M31.788,22.32c-.571-.014-1.607.476-.392,1.296.664.448,1.418,1.104,1.609,1.932.182.762.639.603.657.169.072-1.062.095-2.285-.378-2.823-.342-.389-1.018-.644-1.496-.573Z"/><path class="cls-5" d="M17.838,36.387c-.466-.012-1.31.388-.319,1.056.541.365,1.156.9,1.311,1.575.148.621.521.492.536.137.059-.866.077-1.863-.308-2.301-.278-.317-.83-.525-1.219-.467Z"/><path class="cls-9" d="M8.166,30.071h-2.759c-.983,0-1.78.797-1.78,1.78v.272c0,.421.165.817.463,1.113s.673.451,1.116.456l2.96-.019v3.152c0,.983.797,1.78,1.78,1.78h.08c.984,0,1.781-.797,1.781-1.781v-2.364c-1.485-2.612-2.658-5.412-3.415-8.372-.14.254-.226.542-.226.852v3.13Z"/><path class="cls-4" d="M10.995,42.755c-1.181,0-2.139.957-2.139,2.139s.958,2.139,2.139,2.139h4.599v5.216c0,1.163.942,2.105,2.105,2.105h.386c1.163,0,2.105-.943,2.105-2.105v-5.215h2.642c-2.612-2.04-5.073-4.417-7.239-7.068v2.791h-4.599Z"/><path class="cls-6" d="M25.388,52.886c0,1.109.899,2.008,2.008,2.008h2.563v3.098c0,1.109.899,2.008,2.008,2.008h.209c1.109,0,2.008-.899,2.008-2.008v-3.098h2.565c.348,0,.67-.096.955-.252-2.916-.747-6.025-2.023-9.105-3.764h-1.202c-1.109,0-2.008.899-2.008,2.008Z"/></svg>