<?xml version="1.0" encoding="UTF-8"?><svg id="Icons" xmlns="http://www.w3.org/2000/svg" viewBox="0 0 64 64"><defs><style>.cls-1{fill:#fff;}</style></defs><path class="cls-1" d="M52.919,16.566h-4.452v-5.069c0-1.259-1.021-2.28-2.28-2.28h-.048c-1.26,0-2.281,1.021-2.281,2.281v5.068h-4.452c-1.26,0-2.281.769-2.281,2.029h0c0,1.26,1.021,2.214,2.281,2.214h4.452v5.045c0,1.26,1.021,2.281,2.281,2.281h.048c1.259,0,2.28-1.021,2.28-2.28v-5.046h4.452c1.259,0,2.28-.955,2.28-2.214h0c0-1.26-1.021-2.029-2.28-2.029Z"/><path class="cls-1" d="M24.823,16.571h-4.713v-5.248c0-1.163-.943-2.105-2.105-2.105h-.226c-1.163,0-2.105.942-2.105,2.105v5.249h-4.713c-1.163,0-2.105.942-2.105,2.105h0c0,1.163.943,2.106,2.105,2.106h4.713v5.247c0,1.163.942,2.105,2.105,2.105h.227c1.163,0,2.105-.942,2.105-2.105v-5.247h4.713c1.163,0,2.105-.943,2.105-2.105s-.943-2.105-2.105-2.105Z"/><path class="cls-1" d="M36.649,9.008h-2.743v-3.228c0-.983-.797-1.78-1.78-1.78h-.111c-.983,0-1.78.797-1.78,1.78v3.228h-2.741c-.984,0-1.781.797-1.781,1.781s.797,1.781,1.781,1.781h2.741v3.228c0,.983.797,1.78,1.78,1.78h.111c.983,0,1.78-.797,1.78-1.78v-3.228h2.743c.983,0,1.78-.797,1.78-1.78h0c0-.984-.797-1.781-1.78-1.781Z"/><path class="cls-1" d="M14.566,30.071h-2.758v-3.13c0-.984-.797-1.781-1.781-1.781h-.08c-.984,0-1.781.797-1.781,1.781v3.13h-2.759c-.983,0-1.78.797-1.78,1.78v.272c0,.421.165.817.463,1.113s.673.451,1.116.456l2.96-.019v3.152c0,.983.797,1.78,1.78,1.78h.08c.984,0,1.781-.797,1.781-1.781v-3.174l2.768-.016c.974-.006,1.771-.807,1.771-1.781v-.003c0-.984-.797-1.781-1.781-1.781Z"/><path class="cls-1" d="M58.311,29.875h-2.534v-3.054c0-1.139-.923-2.062-2.062-2.062h-.044c-1.139,0-2.062.923-2.062,2.062v3.053h-2.538c-1.139,0-2.062.923-2.062,2.062s.923,2.062,2.062,2.062h2.538v2.934c0,1.139.923,2.062,2.062,2.062h.044c1.139,0,2.062-.923,2.062-2.062v-2.935h2.534c1.139,0,2.062-.923,2.062-2.062h0c0-1.14-.923-2.063-2.062-2.063Z"/><path class="cls-1" d="M36.747,50.878h-2.564v-3.097c0-1.109-.899-2.008-2.008-2.008h-.208c-1.109,0-2.008.899-2.008,2.008v3.096h-2.563c-1.109,0-2.008.899-2.008,2.008s.899,2.008,2.008,2.008h2.563v3.098c0,1.109.899,2.008,2.008,2.008h.209c1.109,0,2.008-.899,2.008-2.008v-3.098h2.565c1.109,0,2.007-.899,2.007-2.007h0c0-1.109-.899-2.008-2.008-2.008Z"/><path class="cls-1" d="M52.919,42.784h-4.452v-5.069c0-1.259-1.021-2.28-2.28-2.28h-.048c-1.26,0-2.281,1.021-2.281,2.281v5.068h-4.452c-1.26,0-2.281.77-2.281,2.029s1.021,2.214,2.281,2.214h4.452v5.045c0,1.259,1.021,2.281,2.281,2.281h.048c1.259,0,2.28-1.021,2.28-2.28v-5.046h4.452c1.259,0,2.28-.955,2.28-2.214h0c0-1.26-1.021-2.029-2.28-2.029Z"/><path class="cls-1" d="M39.575,29.408h-5.046v-5.701c0-1.367-1.108-2.475-2.475-2.475h-.053c-1.367,0-2.475,1.108-2.475,2.475v5.7h-5.046c-1.367,0-2.475,1.108-2.475,2.475s1.108,2.475,2.475,2.475h5.046v5.698c0,1.367,1.108,2.475,2.475,2.475h.053c1.367,0,2.475-1.108,2.475-2.475v-5.699h5.046c1.367,0,2.475-1.108,2.475-2.475h0c0-1.368-1.108-2.476-2.475-2.476Z"/><path class="cls-1" d="M24.824,42.755h-4.634v-5.022c0-1.269-1.029-2.298-2.298-2.298s-2.298,1.029-2.298,2.298v5.022h-4.599c-1.181,0-2.139.958-2.139,2.139h0c0,1.181.957,2.139,2.139,2.139h4.599v5.216c0,1.163.942,2.105,2.105,2.105h.386c1.163,0,2.105-.943,2.105-2.105v-5.215h4.634c1.163,0,2.105-.943,2.105-2.105v-.067c0-1.163-.942-2.105-2.105-2.105Z"/></svg>