<?xml version="1.0" encoding="UTF-8"?><svg id="Icons" xmlns="http://www.w3.org/2000/svg" viewBox="0 0 64 64"><defs><style>.cls-1{fill:#001e5b;}.cls-2{fill:#fff;}.cls-3{fill:#05628a;}.cls-4{fill:#0d9dda;}</style></defs><path class="cls-1" d="M55.491,14.298l-2.096.457c-.568-1.125-1.287-2.146-2.123-3.049l1.161-1.808c.501-.78.275-1.818-.505-2.319l-2.824-1.814c-.78-.501-1.818-.275-2.319.505l-1.152,1.794c-1.173-.391-2.406-.625-3.671-.677l-.45-2.067c-.197-.906-1.091-1.48-1.997-1.282l-3.279.715c-.906.197-1.48,1.092-1.282,1.997l.446,2.045c-1.14.571-2.175,1.296-3.088,2.141l-1.758-1.129c-.78-.501-1.818-.275-2.319.505l-1.814,2.824c-.501.78-.275,1.818.505,2.319l1.744,1.12c-.396,1.186-.631,2.435-.68,3.715l-2.014.439c-.906.197-1.48,1.091-1.282,1.997l.715,3.279c.197.906,1.092,1.48,1.997,1.282l2.014-.439c.577,1.143,1.31,2.181,2.164,3.095l-1.12,1.744c-.501.78-.275,1.818.505,2.319l2.824,1.814c.78.501,1.818.274,2.319-.505l1.129-1.758c1.182.388,2.425.617,3.699.662l.446,2.045c.197.906,1.091,1.48,1.997,1.282l3.279-.715c.906-.197,1.48-1.091,1.282-1.997l-.45-2.066c1.128-.574,2.153-1.299,3.056-2.143l1.794,1.152c.78.501,1.818.274,2.319-.505l1.814-2.824c.501-.78.274-1.818-.505-2.319l-1.808-1.161c.384-1.169.613-2.397.661-3.656l2.096-.457c.906-.197,1.48-1.091,1.282-1.997l-.715-3.279c-.197-.906-1.091-1.48-1.997-1.282Z"/><path class="cls-3" d="M42.884,27.382c-3.633.792-7.232-1.52-8.024-5.152-.792-3.633,1.519-7.232,5.152-8.024,3.632-.792,7.232,1.519,8.024,5.152.792,3.632-1.52,7.232-5.152,8.024ZM40.73,17.5c-1.816.396-2.972,2.196-2.576,4.012.396,1.816,2.196,2.972,4.012,2.576,1.816-.396,2.972-2.195,2.576-4.012-.396-1.816-2.196-2.972-4.012-2.576Z"/><path class="cls-2" d="M40.704,17.377c-1.884.411-3.083,2.278-2.672,4.162.411,1.884,2.278,3.083,4.162,2.672,1.884-.411,3.083-2.277,2.672-4.162-.411-1.884-2.277-3.083-4.162-2.672Z"/><path class="cls-4" d="M47.763,33.47h-2.826c-.415-1.607-1.054-3.123-1.876-4.52l2.001-2.001c.863-.863.863-2.263,0-3.127l-3.126-3.127c-.863-.863-2.263-.863-3.126,0l-1.986,1.986c-1.4-.832-2.922-1.479-4.535-1.901v-2.787c0-1.221-.99-2.211-2.211-2.211h-4.422c-1.221,0-2.211.99-2.211,2.211v2.758c-1.627.415-3.163,1.058-4.575,1.889l-1.946-1.946c-.863-.863-2.263-.863-3.126,0l-3.127,3.127c-.863.863-.863,2.263,0,3.127l1.931,1.931c-.842,1.416-1.495,2.957-1.917,4.591h-2.715c-1.221,0-2.211.99-2.211,2.211v4.422c0,1.221.99,2.211,2.211,2.211h2.715c.422,1.634,1.075,3.175,1.917,4.59l-1.931,1.931c-.863.863-.863,2.263,0,3.126l3.127,3.127c.863.863,2.263.863,3.126,0l1.946-1.946c1.413.831,2.948,1.475,4.575,1.889v2.758c0,1.221.99,2.211,2.211,2.211h4.422c1.221,0,2.211-.99,2.211-2.211v-2.787c1.613-.422,3.135-1.069,4.535-1.901l1.986,1.986c.863.863,2.263.863,3.127,0l3.126-3.127c.863-.863.863-2.263,0-3.126l-2.001-2.001c.822-1.397,1.461-2.913,1.876-4.52h2.826c1.221,0,2.211-.99,2.211-2.211v-4.422c0-1.221-.99-2.211-2.211-2.211Z"/><path class="cls-2" d="M28.067,23.867c5.101-1.441,10.409,1.542,11.857,6.663.103.366.184.733.244,1.1.157.975-1.061,1.237-1.643.438-2.505-3.444-6.176-5.843-10.264-6.775-.794-.181-.977-1.204-.194-1.426Z"/><path class="cls-3" d="M20.797,51.216c1.504.921,3.157,1.624,4.914,2.064v2.298c0,1.221.99,2.211,2.211,2.211h4.198c.057,0,.113.004.168.013-.007,1.215-.994,2.198-2.211,2.198h-4.422c-1.221,0-2.211-.99-2.211-2.211v-2.768c-1.623-.418-3.155-1.06-4.562-1.891l1.914-1.914ZM7.914,37.892c0,1.221.99,2.211,2.211,2.211h2.66c.569,2.475,1.658,4.751,3.144,6.709l-1.336,1.336c-.863.863-.863,2.263,0,3.127l3.072,3.072-.742.742c-.863.863-2.263.863-3.127,0l-3.127-3.127c-.863-.863-.863-2.263,0-3.127l1.958-1.958c-.832-1.407-1.474-2.94-1.891-4.563h-2.768c-1.221,0-2.211-.99-2.211-2.211v-4.422c0-1.202.96-2.181,2.156-2.21v4.421Z"/><path class="cls-2" d="M27.811,32.365c-3.047,0-5.527,2.48-5.527,5.527s2.479,5.527,5.527,5.527,5.527-2.48,5.527-5.527c0-3.047-2.479-5.527-5.527-5.527Z"/><path class="cls-1" d="M27.811,32.417c3.019,0,5.474,2.456,5.474,5.475s-2.456,5.475-5.474,5.475-5.474-2.456-5.474-5.475c0-3.019,2.456-5.475,5.474-5.475M27.811,29.049c-4.876,0-8.843,3.967-8.843,8.843,0,4.876,3.967,8.843,8.843,8.843s8.843-3.967,8.843-8.843-3.967-8.843-8.843-8.843h0Z"/></svg>