<?xml version="1.0" encoding="UTF-8"?><svg id="Icons" xmlns="http://www.w3.org/2000/svg" viewBox="0 0 64 64"><defs><style>.cls-1{fill:#fff;}</style></defs><path class="cls-1" d="M58.203,18.86l-.715-3.28c-.171-.785-.866-1.321-1.638-1.321-.118,0-.238.013-.359.039l-2.096.457c-.567-1.125-1.287-2.146-2.123-3.049l1.161-1.808c.5-.78.274-1.818-.506-2.319l-2.824-1.814c-.281-.18-.595-.266-.905-.266-.552,0-1.093.272-1.414.772l-1.152,1.794c-1.173-.391-2.407-.625-3.671-.677l-.45-2.067c-.171-.785-.866-1.321-1.638-1.321-.118,0-.238.013-.359.039l-3.28.715c-.905.197-1.479,1.091-1.282,1.997l.446,2.045c-1.14.571-2.175,1.296-3.088,2.141l-1.757-1.129c-.281-.18-.595-.266-.905-.266-.553,0-1.093.272-1.414.772l-1.814,2.824c-.5.78-.274,1.818.505,2.319l.509.327h-1.778c-1.221,0-2.211.99-2.211,2.211v2.758c-1.627.415-3.163,1.058-4.575,1.889l-1.946-1.946c-.432-.432-.998-.648-1.563-.648s-1.131.216-1.563.648l-3.127,3.126c-.863.863-.863,2.263,0,3.127l1.931,1.931c-.842,1.416-1.495,2.957-1.917,4.591h-2.715c-.019,0-.037.005-.055.005v-.005c-.07.002-.137.017-.206.026-.069.008-.141.011-.208.026-.075.016-.145.044-.216.067-.064.021-.131.037-.193.064-.07.03-.132.071-.198.107-.058.032-.118.06-.173.097-.063.043-.118.096-.176.145-.049.042-.102.079-.147.124-.055.056-.101.12-.149.181-.039.048-.082.093-.117.144-.046.069-.08.145-.119.218-.027.052-.06.101-.083.155-.037.087-.059.18-.084.272-.013.047-.033.091-.042.14-.029.143-.045.291-.045.442v4.422c0,.458.139.883.378,1.236.397.588,1.07.975,1.833.975h2.715c.422,1.634,1.075,3.174,1.917,4.59l-1.281,1.281-.65.65c-.863.863-.863,2.263,0,3.127l1.563,1.563,1.563,1.563c.179.179.384.311.599.416.305.148.633.232.964.232h0c.566,0,1.131-.216,1.563-.647l.439-.439,1.507-1.507c1.413.831,2.948,1.475,4.575,1.889v2.758c0,1.221.99,2.211,2.211,2.211h4.421c.152,0,.301-.016.445-.045.047-.01.089-.029.135-.042.095-.026.19-.049.28-.087.053-.022.1-.055.151-.082.075-.039.153-.074.224-.121.053-.036.098-.081.147-.121.061-.049.125-.093.179-.148.048-.048.086-.104.13-.157.047-.056.099-.109.14-.169.04-.058.068-.124.103-.187.034-.063.074-.122.102-.188.029-.067.045-.141.067-.211.021-.068.048-.132.062-.203.016-.074.017-.153.024-.229.007-.07.022-.138.022-.209h-.001s.001-.008.001-.013v-2.787c1.613-.422,3.135-1.068,4.535-1.901l1.986,1.986c.432.432.998.647,1.563.647s1.131-.216,1.563-.647l3.126-3.127c.864-.863.864-2.263,0-3.126l-2.001-2.001c.822-1.397,1.461-2.913,1.876-4.52h2.826c1.221,0,2.211-.99,2.211-2.211v-4.422c0-1.221-.99-2.211-2.211-2.211h-.117l-.153-.7c1.128-.574,2.153-1.299,3.056-2.143l1.794,1.152c.281.18.595.266.905.266.552,0,1.093-.272,1.414-.772l1.813-2.824c.501-.78.275-1.818-.505-2.319l-1.808-1.161c.384-1.169.613-2.397.661-3.656l2.096-.457c.906-.197,1.48-1.091,1.283-1.997ZM47.974,35.681v4.422c0,.116-.095.211-.211.211h-2.826c-.912,0-1.708.617-1.937,1.5-.36,1.394-.92,2.742-1.664,4.006-.462.785-.335,1.784.31,2.428l2.001,2.002c.041.041.062.091.062.149s-.021.108-.062.149l-3.126,3.127c-.041.041-.091.062-.149.062-.058,0-.108-.021-.149-.062l-1.986-1.986c-.385-.385-.897-.586-1.415-.586-.351,0-.704.092-1.022.281-1.261.75-2.614,1.317-4.019,1.685-.88.23-1.494,1.025-1.494,1.935v2.704c-.004.032-.008.066-.012.102l-.002.026-.005.014-.006.02-.006.011-.011.021-.016.018-.012.015-.022.017s-.007.006-.011.009l-.012.006c-.008.004-.016.008-.024.013l-.016.004c-.019.005-.039.011-.058.017h-4.419c-.116,0-.211-.095-.211-.211v-2.758c0-.914-.62-1.712-1.506-1.938-1.415-.361-2.779-.924-4.055-1.675-.315-.186-.666-.276-1.014-.276-.517,0-1.029.2-1.415.586l-1.507,1.507-.439.439c-.041.041-.091.062-.149.062-.009,0-.041-.006-.088-.029-.042-.02-.061-.034-.062-.034h0s-1.562-1.562-1.562-1.562l-1.563-1.563c-.083-.082-.083-.216,0-.298l.65-.65,1.281-1.281c.646-.647.772-1.65.305-2.436-.761-1.28-1.333-2.648-1.699-4.068-.228-.883-1.024-1.5-1.937-1.5h-2.715c-.101,0-.156-.066-.176-.095-.023-.034-.035-.072-.035-.115l.005-4.436c.003-.012.007-.024.01-.035,0-.001.003-.011.006-.022.001-.004.003-.007.005-.01l.013-.025c.005-.006.01-.013.016-.019l.011-.014.014-.012.016-.014.021-.011.014-.008.019-.006.014-.005.022-.002c.023-.003.046-.006.071-.009.016,0,.032-.002.048-.003h2.621c.912,0,1.708-.617,1.937-1.5.367-1.421.938-2.789,1.699-4.068.468-.786.342-1.79-.305-2.437l-1.931-1.931c-.083-.082-.083-.216,0-.298l3.127-3.127c.041-.041.091-.062.149-.062.058,0,.108.021.149.062l1.946,1.946c.385.385.897.586,1.415.586.348,0,.698-.091,1.014-.276,1.275-.751,2.64-1.314,4.055-1.675.886-.226,1.506-1.024,1.506-1.938v-2.758c0-.116.095-.211.211-.211h4.421c.116,0,.211.095.211.211v2.787c0,.909.614,1.704,1.494,1.935,1.405.368,2.758.935,4.02,1.685.317.189.67.281,1.021.281.517,0,1.029-.2,1.415-.586l1.986-1.986c.041-.041.091-.062.149-.062.058,0,.108.021.149.062l3.126,3.127c.082.082.082.216,0,.298l-2.001,2.001c-.645.644-.772,1.643-.31,2.428.744,1.265,1.304,2.612,1.664,4.006.228.883,1.024,1.5,1.937,1.5h2.826c.116,0,.211.095.211.211ZM45.066,23.827s-.002-.003-.004-.005l-.968-.968c.596-.761.869-1.763.648-2.779-.396-1.816-2.196-2.972-4.012-2.576-1.768.385-2.897,2.101-2.592,3.867l-1.112,1.112c-.084-.219-.161-.442-.211-.676-.269-1.235-.04-2.503.646-3.57s1.743-1.804,2.978-2.073c.333-.073.674-.109,1.011-.109,2.213,0,4.161,1.57,4.633,3.733.324,1.489-.104,2.958-1.016,4.044ZM54.399,19.359c-.891.194-1.538.966-1.573,1.877-.04,1.048-.229,2.094-.563,3.109-.284.866.053,1.814.82,2.307l1.537.987-1.466,2.283-1.523-.978c-.332-.213-.707-.317-1.08-.317-.494,0-.985.183-1.366.538-.781.729-1.655,1.342-2.598,1.822-.81.412-1.241,1.32-1.047,2.208l.06.275h-.662c-.415-1.607-1.055-3.124-1.876-4.52l2.001-2.001c.251-.251.42-.551.525-.866,1.97-1.547,3.017-4.118,2.449-6.725-.687-3.151-3.486-5.307-6.587-5.307-.474,0-.955.05-1.437.155-3.436.749-5.678,4.01-5.242,7.435-.8-.344-1.627-.635-2.483-.859v-2.787c0-1.074-.766-1.967-1.781-2.167-.149-.372-.4-.704-.757-.933l-1.473-.946,1.466-2.283,1.487.955c.331.213.707.317,1.08.317.491,0,.979-.18,1.358-.532.792-.732,1.675-1.345,2.626-1.821.817-.409,1.253-1.321,1.059-2.214l-.377-1.73,2.651-.578.382,1.752c.193.889.962,1.535,1.871,1.573,1.057.044,2.107.238,3.122.576.208.07.422.103.632.103.667,0,1.308-.335,1.684-.92l.978-1.523,2.283,1.466-.987,1.536c-.493.767-.404,1.77.215,2.44.725.783,1.333,1.655,1.805,2.592.345.684,1.042,1.099,1.785,1.099.141,0,.284-.015.426-.046l1.782-.388.578,2.651-1.782.388Z"/><path class="cls-1" d="M27.811,34.365c1.945,0,3.527,1.582,3.527,3.527s-1.582,3.527-3.527,3.527-3.526-1.582-3.526-3.527,1.582-3.527,3.526-3.527M27.811,32.365c-3.047,0-5.526,2.48-5.526,5.527s2.479,5.527,5.526,5.527,5.527-2.48,5.527-5.527-2.479-5.527-5.527-5.527h0Z"/><path class="cls-1" d="M27.811,47.735c-5.428,0-9.843-4.416-9.843-9.844s4.415-9.843,9.843-9.843,9.843,4.415,9.843,9.843-4.415,9.844-9.843,9.844ZM27.811,30.049c-4.324,0-7.843,3.519-7.843,7.843s3.519,7.844,7.843,7.844,7.843-3.519,7.843-7.844-3.519-7.843-7.843-7.843Z"/></svg>