<?xml version="1.0" encoding="UTF-8"?><svg id="Icons" xmlns="http://www.w3.org/2000/svg" viewBox="0 0 64 64"><defs><style>.cls-1{fill:#0d9dda;}</style></defs><path class="cls-1" d="M35.868,35.425c-.795-.98-1.772-1.805-2.887-2.411.001,0,.003-.001.004-.002-.015-.008-.031-.014-.046-.022-.538-.289-1.108-.522-1.7-.706,1.746-.99,2.926-2.86,2.926-5.011,0-3.187-2.583-5.77-5.77-5.77s-5.77,2.583-5.77,5.77c0,2.151,1.18,4.021,2.926,5.011-.592.184-1.162.417-1.701.706-.015.008-.031.013-.046.022l-.002.005c-1.125.613-2.109,1.449-2.907,2.443,2.585-.158,5.179-.243,7.764-.243,2.399,0,4.808.071,7.208.207Z"/><path class="cls-1" d="M34.956,44.825c-.002-.009-.009-.018-.012-.027,1.553.078,3.095.194,4.632.327v-7.429c-3.597-.316-7.238-.478-10.917-.478-4.883,0-9.7.284-14.435.837-1.486.174-2.81-.975-2.81-2.472v-15.534c0-1.496,1.323-2.645,2.81-2.472,4.735.553,9.551.837,14.435.837s9.7-.284,14.435-.837c1.486-.173,2.81.976,2.81,2.472v5.831c1.345.104,2.907.162,4.52.162.976,0,1.936-.021,2.845-.061v-12.912c0-2.336-2.141-4.083-4.446-3.703-6.569,1.083-13.313,1.646-20.188,1.646s-13.62-.563-20.188-1.646c-2.305-.38-4.446,1.367-4.446,3.703v29.494c0,2.336,2.141,4.083,4.446,3.703,4.543-.749,9.175-1.231,13.871-1.469-.003.01-.01.018-.013.028-.701,2.517-2.013,4.924-3.851,7.174-.998,1.222.555,2.685,3.004,2.685h14.354c2.449,0,4.002-1.464,3.003-2.686-1.84-2.25-3.154-4.657-3.858-7.174Z"/><path class="cls-1" d="M57.185,27.161c-3.618.502-9.725.509-13.298.019-1.472-.202-2.811.923-2.811,2.408v22.643c0,1.485,1.339,2.61,2.811,2.408,3.573-.49,9.68-.483,13.298.019,1.473.204,2.815-.92,2.815-2.408v-22.683c0-1.487-1.342-2.612-2.815-2.407ZM50.538,53.071c-.776,0-1.405-.629-1.405-1.405s.629-1.405,1.405-1.405,1.404.629,1.404,1.405-.628,1.405-1.404,1.405ZM57.083,47.487c0,1.012-.914,1.778-1.917,1.639-2.463-.342-6.62-.346-9.052-.013-1.002.137-1.913-.628-1.913-1.639v-15.414c0-1.011.911-1.777,1.913-1.639,2.432.333,6.589.329,9.052-.013,1.003-.139,1.917.626,1.917,1.639v15.441Z"/></svg>