<?xml version="1.0" encoding="UTF-8"?><svg id="Icons" xmlns="http://www.w3.org/2000/svg" viewBox="0 0 64 64"><defs><style>.cls-1{fill:#fff;}</style></defs><path class="cls-1" d="M59.249,24.009c-.961-2.069-2.564-3.089-4.532-3.536-.922-.172-1.925-.261-2.964-.261-5.167,0-11.007,2.162-15.576,5.011l.02-.043c.575-1.231.042-2.695-1.189-3.27-1.232-.578-2.696-.042-3.27,1.189l-.022.047c-.897-6.325-3.662-13.463-8.263-17.254-1.113-.892-2.245-1.449-3.738-1.449-.613,0-1.263.087-1.879.252-2.494.672-4.188,2.221-4.535,4.145-.57,3.165-.885,6.032-1.162,8.561-.312,2.848-.582,5.307-1.1,6.896-.034.105-.063.212-.086.321-.37,1.763.14,3.573,1.303,4.937-1.531.168-2.97.644-4.214,1.402-2.412,1.469-3.915,3.899-4.02,6.5-.149,3.704.294,8.925,5.833,11.508.087.04.175.077.265.109.354.128,1.072.335,2.013.335,1.165,0,2.34-.319,3.397-.922l5.985-3.479-.461.989c-.575,1.231-.042,2.695,1.189,3.27.336.157.69.231,1.038.231.927,0,1.814-.525,2.231-1.421l.476-1.02,1.181,6.847c.495,2.722,2.286,4.196,3.294,4.671h0c1.396.652,2.809.983,4.198.983,2.778,0,5.437-1.243,8.368-3.912,1.924-1.749,2.82-4.462,2.395-7.255-.223-1.464-.78-2.854-1.627-4.122h.021c1.805,0,3.522-.818,4.594-2.189.066-.085.129-.174.186-.266.885-1.418,2.596-3.206,4.577-5.276,1.759-1.838,3.752-3.921,5.81-6.392,1.251-1.503,1.349-3.797.263-6.136ZM14.541,46.749c-.756.431-1.589.659-2.407.659-.665,0-1.155-.151-1.342-.219-.031-.011-.062-.024-.091-.037-2.316-1.08-4.94-3.148-4.68-9.615.078-1.931,1.223-3.752,3.062-4.872.983-.599,2.156-.986,3.392-1.122.737-.081,1.368-.562,1.641-1.25.273-.689.144-1.472-.337-2.036-.788-.924-1.104-2.1-.867-3.229.008-.037.017-.074.03-.111.581-1.783.861-4.334,1.186-7.298.274-2.496.584-5.325,1.142-8.424.206-1.144,1.36-2.104,3.084-2.568.45-.12.921-.184,1.362-.184.883,0,1.58.283,2.466.993,4.846,3.993,7.666,12.618,7.851,19.319l-7.036,15.078-8.456,4.916ZM57.45,28.864c-2.012,2.416-3.979,4.472-5.718,6.289-2.057,2.15-3.834,4.006-4.83,5.602-.02.033-.042.064-.063.091-.696.89-1.824,1.421-3.04,1.421-.738,0-1.416.406-1.764,1.057-.348.651-.309,1.441.101,2.054.694,1.039,1.136,2.153,1.312,3.311.324,2.13-.335,4.176-1.764,5.476-2.541,2.314-4.772,3.391-7.021,3.391-1.095,0-2.222-.267-3.345-.792-.603-.284-1.834-1.323-2.176-3.202l-1.67-9.683,7.006-15.016c4.319-3.44,11.25-6.653,17.275-6.653.901,0,1.762.074,2.558.22,1.55.361,2.515,1.108,3.124,2.42.752,1.62.758,3.12.014,4.013Z"/><circle class="cls-1" cx="11.501" cy="35.989" r="2.225"/><circle class="cls-1" cx="39.64" cy="49.526" r="2.225"/><circle class="cls-1" cx="32.972" cy="49.526" r="1.669"/><circle class="cls-1" cx="15.726" cy="41.214" r="1.669"/></svg>