<?xml version="1.0" encoding="UTF-8"?><svg id="Icons" xmlns="http://www.w3.org/2000/svg" viewBox="0 0 64 64"><defs><style>.cls-1{fill:#fff;}</style></defs><path class="cls-1" d="M44.479,8.25c7.456,0,13.521,6.07,13.521,13.512,0,.01,0,.057,0,.067,0,3.992-1.75,7.761-4.8,10.341-.022.018-.062.055-.083.075-1.237,1.14-2.514,2.369-4.019,3.865l-.172.171c-.226.224-.451.448-.675.675-1.324,1.338-2.592,2.666-3.769,3.946-.129.14-.256.282-.383.424l-.252.28c-1.134,1.249-2.253,2.526-3.328,3.795l-.226.264c-.109.126-.218.253-.325.381-1.122,1.34-2.247,2.739-3.44,4.277-1.432,1.845-2.703,3.556-3.883,5.222-.213.177-.445.206-.572.206-.142,0-.415-.036-.645-.274l-.457-.474c-5.886-8.241-12.648-15.902-20.102-22.772-.021-.019-.043-.038-.065-.057-3.053-2.58-4.804-6.35-4.804-10.344,0-2.17.497-4.243,1.478-6.159,1.141-2.229,2.877-4.099,5.02-5.407.064-.039.13-.074.195-.11l.171-.095.137-.079c.073-.042.147-.085.223-.125.11-.058.223-.112.336-.166l.115-.055.155-.076c.071-.035.141-.07.213-.102.113-.05.229-.095.345-.141l.13-.051.164-.067c.071-.029.141-.059.213-.085.116-.042.235-.079.354-.117l.141-.045.174-.057c.069-.023.139-.047.21-.067.126-.036.255-.067.383-.098l.142-.034.184-.047c.064-.017.128-.034.194-.048.143-.031.289-.054.434-.078l.133-.022.193-.035c.055-.01.111-.021.167-.029.184-.026.37-.043.556-.06l.084-.008.193-.021c.038-.004.076-.01.115-.012.323-.023.649-.034.956-.035h.187c.881.012,1.774.114,2.653.305.288.062.572.133.854.213.278.079.552.166.822.261.807.286,1.562.63,2.242,1.023.275.159.548.33.812.508.829.56,1.597,1.214,2.283,1.943.039.049.08.097.123.144.353.385.644.734.892,1.066.377.508.973.807,1.605.807.001,0,.003,0,.004,0,.634-.001,1.229-.303,1.606-.813.634-.86,1.37-1.645,2.188-2.333.271-.228.555-.449.844-.656.876-.627,1.826-1.148,2.823-1.548.335-.135.68-.257,1.024-.364.765-.237,1.558-.407,2.357-.504.543-.066,1.099-.1,1.651-.1M44.479,6.25h0c-.641,0-1.272.039-1.892.114-.93.113-1.835.309-2.708.579-.4.124-.793.264-1.178.418-1.156.464-2.242,1.063-3.241,1.778-.333.238-.656.489-.969.752-.938.789-1.781,1.688-2.509,2.676-.318-.427-.663-.832-1.022-1.224-.035-.039-.065-.082-.101-.121-.797-.853-1.689-1.616-2.66-2.272-.303-.205-.614-.4-.932-.583-.813-.47-1.678-.859-2.576-1.176-.311-.11-.626-.21-.945-.3-.321-.091-.646-.172-.974-.243-.985-.213-2.005-.336-3.051-.349h-.201c-.373-.001-.743.012-1.109.038-.119.008-.235.026-.353.037-.246.023-.493.044-.735.079-.139.02-.275.049-.414.073-.218.037-.437.071-.651.117-.147.031-.29.072-.435.108-.202.049-.404.096-.603.153-.149.043-.294.095-.441.142-.19.061-.382.119-.568.187-.146.053-.289.115-.433.173-.182.073-.366.143-.545.222-.143.064-.282.135-.423.203-.174.084-.349.165-.52.255-.14.074-.276.155-.413.233-.14.079-.282.153-.419.237-2.443,1.491-4.45,3.643-5.76,6.203-1.085,2.121-1.698,4.524-1.698,7.071,0,4.762,2.141,9.023,5.513,11.872,7.389,6.81,14.069,14.379,19.916,22.584l.56.58c.57.59,1.327.885,2.084.885s1.514-.295,2.084-.885l.013-.014c1.27-1.801,2.589-3.565,3.938-5.303,1.107-1.427,2.235-2.835,3.393-4.219.179-.214.363-.423.543-.636,1.073-1.267,2.168-2.515,3.283-3.744.209-.231.415-.465.626-.695,1.214-1.321,2.456-2.617,3.718-3.893.277-.28.557-.556.835-.834,1.3-1.293,2.617-2.57,3.965-3.813.006-.006.013-.012.019-.018,3.369-2.849,5.509-7.109,5.509-11.868,0-.008,0-.016,0-.024,0-.008,0-.016,0-.024,0-8.578-6.949-15.531-15.521-15.531h0Z"/></svg>