<?xml version="1.0" encoding="UTF-8"?><svg id="Icons" xmlns="http://www.w3.org/2000/svg" viewBox="0 0 64 64"><defs><style>.cls-1{fill:#fff;}</style></defs><path class="cls-1" d="M21.039,41.559c-4.201,0-8.416-.314-12.539-.934v16.278c4.123-.62,8.338-.934,12.539-.934s8.416.314,12.539.934v-16.278c-4.123.62-8.338.934-12.539.934ZM14.796,50.431c-.921,0-1.667-.746-1.667-1.667s.746-1.667,1.667-1.667,1.667.746,1.667,1.667-.746,1.667-1.667,1.667ZM23.04,49.313c-.242.88-1.04,1.53-1.997,1.53-1.148,0-2.08-.931-2.08-2.08s.931-2.08,2.08-2.08c.059,0,.114.013.171.017,1.067.088,1.909.972,1.909,2.062,0,.192-.034.374-.083.55ZM27.282,50.431c-.921,0-1.667-.746-1.667-1.667,0-.441.174-.839.454-1.137.304-.325.734-.53,1.213-.53.638,0,1.186.363,1.466.889.124.233.201.495.201.778,0,.921-.746,1.667-1.667,1.667Z"/><path class="cls-1" d="M36.579,21.353c-2.519,0-4.568,2.049-4.568,4.568s2.049,4.568,4.568,4.568,4.568-2.049,4.568-4.568-2.049-4.568-4.568-4.568Z"/><path class="cls-1" d="M36.579,23.353c1.416,0,2.568,1.152,2.568,2.568s-1.152,2.568-2.568,2.568-2.568-1.152-2.568-2.568,1.152-2.568,2.568-2.568M36.579,21.353c-2.519,0-4.568,2.049-4.568,4.568s2.049,4.568,4.568,4.568,4.568-2.049,4.568-4.568-2.049-4.568-4.568-4.568h0Z"/><path class="cls-1" d="M56.308,21.537h-2.802c-.412-1.593-1.045-3.097-1.861-4.482l1.984-1.984c.856-.856.856-2.244,0-3.1l-3.1-3.1c-.856-.856-2.244-.856-3.1,0l-1.969,1.969c-1.388-.826-2.898-1.466-4.497-1.885v-2.763c0-1.211-.981-2.192-2.192-2.192h-4.384c-1.211,0-2.192.981-2.192,2.192v2.734c-1.613.411-3.136,1.049-4.537,1.874l-1.929-1.929c-.856-.856-2.244-.856-3.1,0l-3.1,3.1c-.856.856-.856,2.244,0,3.1l1.914,1.914c-.835,1.404-1.482,2.932-1.901,4.552h-2.692c-1.211,0-2.192.981-2.192,2.192v4.384c0,1.211.981,2.192,2.192,2.192h2.692c.418,1.62,1.066,3.148,1.901,4.552l-1.915,1.915c-.478.478-.679,1.12-.623,1.745.711.018,1.42.042,2.135.042,3.253,0,6.459-.193,9.607-.566,1.049-.125,2.092-.269,3.128-.434h0c.134-.021.268-.032.399-.032.025,0,.049.006.075.007.071.002.139.012.208.02.097.011.193.024.287.046.069.016.134.037.2.058.09.029.177.061.262.1.063.029.124.06.184.093.081.045.157.095.232.148.055.04.109.079.161.123.07.06.134.126.197.193.045.049.09.095.131.148.059.075.108.157.156.239.032.054.067.105.094.161.046.095.078.197.11.299.016.051.038.099.05.152.037.158.058.322.058.492v8.035h2.192c1.211,0,2.192-.981,2.192-2.192v-2.763c1.599-.419,3.109-1.06,4.497-1.885l1.969,1.969c.856.856,2.244.856,3.1,0l3.1-3.1c.856-.856.856-2.244,0-3.1l-1.984-1.984c.815-1.385,1.449-2.889,1.861-4.482h2.802c1.211,0,2.192-.981,2.192-2.192v-4.384c0-1.211-.981-2.192-2.192-2.192ZM36.579,34.728c-4.856,0-8.807-3.951-8.807-8.807s3.951-8.807,8.807-8.807,8.807,3.951,8.807,8.807-3.951,8.807-8.807,8.807Z"/></svg>