<?xml version="1.0" encoding="UTF-8"?><svg id="Icons" xmlns="http://www.w3.org/2000/svg" viewBox="0 0 64 64"><defs><style>.cls-1{fill:#04e1cb;}</style></defs><path class="cls-1" d="M56.308,21.537h-2.802c-.412-1.593-1.045-3.097-1.861-4.482l1.984-1.984c.856-.856.856-2.244,0-3.1l-3.1-3.1c-.856-.856-2.244-.856-3.1,0l-1.969,1.969c-1.388-.826-2.898-1.466-4.497-1.885v-2.763c0-1.211-.981-2.192-2.192-2.192h-4.384c-1.211,0-2.192.981-2.192,2.192v2.734c-1.613.411-3.136,1.049-4.537,1.874l-1.929-1.929c-.856-.856-2.244-.856-3.1,0l-3.1,3.1c-.856.856-.856,2.244,0,3.1l1.914,1.914c-.835,1.404-1.482,2.932-1.901,4.552h-2.692c-1.211,0-2.192.981-2.192,2.192v4.384c0,1.211.981,2.192,2.192,2.192h2.692c.418,1.62,1.066,3.148,1.901,4.552l-1.915,1.915c-.478.478-.679,1.12-.623,1.745-3.599-.094-7.14-.409-10.6-.958-.134-.021-.268-.032-.399-.032-1.292,0-2.405.993-2.405,2.281v17.912c0,1.288,1.112,2.28,2.405,2.28.132,0,.265-.01.399-.032,4.144-.658,8.398-1,12.735-1s8.591.342,12.735,1c.134.021.268.032.399.032,1.292,0,2.405-.993,2.405-2.28v-9.877h2.192c1.211,0,2.192-.981,2.192-2.192v-2.763c1.599-.419,3.109-1.06,4.497-1.885l1.969,1.969c.856.856,2.244.856,3.1,0l3.1-3.1c.856-.856.856-2.244,0-3.1l-1.984-1.984c.815-1.385,1.449-2.889,1.861-4.482h2.802c1.211,0,2.192-.981,2.192-2.192v-4.384c0-1.211-.981-2.192-2.192-2.192ZM33.579,56.903c-4.123-.62-8.338-.934-12.539-.934s-8.416.314-12.539.934v-16.278c4.123.62,8.338.934,12.539.934s8.416-.314,12.539-.934v16.278ZM36.579,34.728c-4.856,0-8.807-3.951-8.807-8.807s3.951-8.807,8.807-8.807,8.807,3.951,8.807,8.807-3.951,8.807-8.807,8.807Z"/><path class="cls-1" d="M25.615,48.764c0,.921.746,1.667,1.667,1.667s1.667-.746,1.667-1.667c0-.282-.077-.544-.201-.778-.28-.527-.828-.889-1.466-.889-.48,0-.909.206-1.213.53-.279.298-.454.696-.454,1.137Z"/><circle class="cls-1" cx="14.796" cy="48.764" r="1.667"/><path class="cls-1" d="M21.215,46.701c-.057-.005-.112-.017-.171-.017-1.148,0-2.08.931-2.08,2.08s.931,2.08,2.08,2.08c.957,0,1.754-.65,1.997-1.53.049-.176.083-.358.083-.55,0-1.09-.841-1.974-1.909-2.062Z"/><path class="cls-1" d="M36.579,21.353c-2.519,0-4.568,2.049-4.568,4.568s2.049,4.568,4.568,4.568,4.568-2.049,4.568-4.568-2.049-4.568-4.568-4.568Z"/></svg>