<?xml version="1.0" encoding="UTF-8"?><svg id="Icons" xmlns="http://www.w3.org/2000/svg" viewBox="0 0 64 64"><defs><style>.cls-1{fill:#fff;}</style></defs><path class="cls-1" d="M46,32.141c-1.807,1.776-4.28,2.873-7,2.873s-5.193-1.098-7-2.875c-1.807,1.777-4.281,2.875-7,2.875s-5.193-1.1-7-2.877c-1.807,1.778-4.282,2.877-7,2.877-.432,0-.855-.037-1.273-.09l-2.828,18.449c-.586,3.823,2.787,7.081,6.62,6.575,6.047-.799,12.216-1.212,18.481-1.213v-18.293c0-1.547,1.254-2.801,2.8-2.801h8.4c1.546,0,2.8,1.254,2.8,2.801v18.982c1.508.149,3.009.322,4.503.519,3.843.507,7.221-2.77,6.617-6.601l-2.905-18.41c-.399.049-.803.081-1.215.081-2.72,0-5.193-1.098-7-2.873ZM26.4,48.846c0,1.547-1.254,2.801-2.8,2.801h-6.829c-1.712,0-3.023-1.523-2.769-3.217l1.26-8.404c.206-1.371,1.383-2.386,2.769-2.386h5.569c1.546,0,2.8,1.254,2.8,2.801v8.404Z"/><path class="cls-1" d="M59.328,22.03l-6.273-14.636c-.883-2.059-2.907-3.395-5.147-3.395h-31.815c-2.24,0-4.265,1.336-5.147,3.396l-6.211,14.505c-.466.938-.734,1.99-.734,3.108,0,3.59,2.702,6.545,6.181,6.951.269.031.541.052.819.052,3.847,0,6.967-3.106,6.997-6.947h.006c.03,3.842,3.15,6.947,6.997,6.947s6.973-3.111,6.998-6.958h.005c.024,3.847,3.147,6.958,6.998,6.958s6.98-3.117,6.998-6.969h.003c.019,3.852,3.144,6.969,6.998,6.969.253,0,.502-.015.747-.041,3.514-.373,6.253-3.347,6.253-6.962,0-1.067-.245-2.074-.672-2.979Z"/></svg>