<?xml version="1.0" encoding="UTF-8"?><svg id="Icons" xmlns="http://www.w3.org/2000/svg" viewBox="0 0 64 64"><defs><style>.cls-1{fill:#001e5b;}</style></defs><path class="cls-1" d="M58.267,21.263c-4.933-10.104-10.291-8.868-12.598-7.657-.129.068-.229.174-.309.291-.25.182-.48.473-.695.816-.935.26-1.798.41-2.724.41-.758,0-1.562-.1-2.455-.306l-6.256-2.22c-.068-.024-.136-.044-.206-.061-.617-.147-1.25-.221-1.884-.221-1.959,0-3.858.717-5.33,1.988-.668-.354-1.294-.498-1.92-.498-1.39,0-2.783.701-4.662,1.347-.762-1.711-2.032-2.43-2.955-2.718-.004-.001-.008-.002-.012-.002-.008,0-.016.002-.024.002-.003,0-.006,0-.009,0-.023-.009-.04-.028-.064-.036-.147-.046-.308-.078-.477-.099-.056-.007-.118-.007-.176-.012-.096-.007-.188-.019-.289-.019-.024,0-.05.004-.074.005-.073.001-.15.009-.225.014-.12.008-.242.018-.368.036-.083.012-.169.028-.255.043-.126.023-.254.051-.386.083-.09.023-.181.047-.273.074-.135.039-.271.085-.409.133-.093.033-.186.066-.281.103-.145.057-.292.123-.44.191-.091.042-.181.08-.273.126-.166.082-.333.175-.501.271-.076.043-.152.081-.229.128-.491.295-.987.646-1.479,1.055-.076.064-.151.135-.227.201-.168.147-.336.296-.502.456-.091.088-.18.183-.27.275-.149.153-.297.308-.444.472-.094.106-.186.216-.279.327-.139.166-.276.336-.412.513-.093.121-.184.244-.274.37-.132.183-.26.373-.387.567-.087.133-.173.265-.258.403-.127.207-.249.424-.37.644-.077.139-.154.274-.228.417-.128.248-.248.509-.367.771-.059.129-.121.252-.177.384-.171.401-.333.816-.483,1.25-1.6,4.652-1.607,7.826-.901,9.991.908,2.783,2.996,3.896,4.395,4.331.076.024.156.032.235.035.005,0,.01.002.015.002.007,0,.014-.002.021-.002.069,0,.136-.008.202-.024.083.009.169.014.258.014.748,0,1.719-.331,2.767-1.014,3.738,5.63,8.342,11.127,14.051,14.922.278.185.569.349.853.526.685.599,2.526,1.234,3.82,1.234.091,0,.179-.003.265-.01,2.037-.156,2.516-2.014,2.282-3.728.861.649,2.116,1.495,3.37,1.495.48,0,.961-.124,1.419-.432,1.899-1.274,1.716-3.129,1.235-4.284.141.027,1.576,2.005,3.479,2.005.493,0,1.018-.133,1.56-.467,2.386-1.471,1.984-3.506,1.262-4.925.609.429,1.471.723,2.398.723.994,0,2.062-.338,2.977-1.209.715-.68,1.13-2.374.825-3.742.127-.084.248-.179.356-.293l.489-.517c.039-.041.076-.084.112-.129.088-.111.196-.222.312-.332,1.531.455,2.763.103,3.539-.303.056-.016.115-.021.168-.048,2.307-1.211,4.545-7.195,1.155-14.138ZM49.931,39.316c-.458.436-.995.657-1.597.657-.543,0-1-.185-1.246-.358-.347-.244-.75-.365-1.152-.365-.469,0-.936.164-1.31.488-.695.602-.89,1.599-.473,2.418.651,1.281.333,1.785-.529,2.316-.246.152-.409.169-.511.169-.677,0-1.53-.887-1.81-1.178-.27-.281-.64-.665-1.291-.791-.126-.024-.253-.036-.378-.036-.595,0-1.167.266-1.551.738-.465.571-.578,1.352-.295,2.032.494,1.185-.205,1.654-.503,1.853-.099.067-.185.093-.305.093-.475,0-1.204-.368-2.166-1.092-.355-.267-.778-.403-1.204-.403-.348,0-.698.091-1.012.275-.697.409-1.079,1.196-.969,1.996.102.744-.033,1.226-.149,1.369-.05.062-.193.085-.305.094-.036.003-.073.004-.112.004-.869,0-2.197-.492-2.503-.739-.081-.071-.168-.135-.259-.192-.115-.071-.23-.141-.346-.211-.154-.092-.308-.184-.457-.283-4.766-3.168-9.179-7.866-13.492-14.363-.385-.58-1.02-.894-1.668-.894-.371,0-.747.105-1.081.32-.111-.174-.229-.349-.337-.523-.692-.596-1.046-1.5-.921-2.405.172-1.24.21-2.245.163-3.189.834-4.374,2.749-8.611,5.74-12.682.658.271,1.164.781,1.499,1.532.329.74,1.057,1.187,1.827,1.187.216,0,.435-.035.649-.109.497-.171.961-.345,1.4-.51,1.083-.407,1.939-.729,2.613-.729.138,0,.27.024.403.053l-5.364,5.742c-1.326,1.419-1.287,3.692.086,5.065l.074.074c1.437,1.437,3.35,2.229,5.385,2.229,1.391,0,2.755-.381,3.943-1.101.457-.277,1.017-.497,1.599-.717l2.513-.949c.453-.171.931-.258,1.421-.258.049,0,.098,0,.147.003,7.99,7.513,14.703,10.618,15.972,11.167.04.049.135.221.17.582.072.732-.174,1.455-.307,1.619ZM51.039,35.355h0s-.063-.027-.155-.066c-.18-.078-.526-.233-1.026-.479-.036-.018-.062-.03-.1-.049-2.229-1.106-7.141-3.858-12.895-8.995-.619-.553-1.244-1.124-1.88-1.733-.31-.053-.624-.077-.939-.079-.031,0-.063-.008-.094-.008-.195,0-.388.033-.583.052-.078.008-.156.005-.234.015l.007.005c-.445.06-.887.152-1.317.314l-2.513.949c-.662.25-1.325.511-1.93.878-.896.543-1.903.811-2.906.811-1.445,0-2.883-.556-3.972-1.645l-.073-.072c-.618-.618-.635-1.647-.039-2.285l5.703-6.104.557-.597c.28-.3.593-.556.919-.789-.003-.002-.006-.004-.009-.006,1.045-.75,2.297-1.154,3.58-1.154.473,0,.95.055,1.421.167l6.36,2.257c1.122.267,2.103.384,3.019.384,1.726,0,3.225-.419,5.001-1.042,4.556,4.259,7.498,9.803,8.737,16.599-.667.063-1.289.228-1.857.467-.004.002-.008.003-.011.005-.177.075-.349.156-.514.244-.028.015-.054.03-.081.045-.143.08-.283.162-.417.25-.052.034-.101.071-.151.107-.108.076-.215.152-.315.234-.078.064-.15.131-.223.198-.068.062-.139.121-.202.185-.136.136-.263.276-.379.421h0s-.488.517-.488.517Z"/></svg>