<?xml version="1.0" encoding="UTF-8"?><svg id="Icons" xmlns="http://www.w3.org/2000/svg" viewBox="0 0 64 64"><defs><style>.cls-1{fill:#fff;}</style></defs><path class="cls-1" d="M36.597,22.474c-3.524,0-6.392-2.867-6.392-6.392s2.867-6.392,6.392-6.392,6.391,2.867,6.391,6.392-2.867,6.392-6.391,6.392ZM36.597,11.691c-2.422,0-4.392,1.97-4.392,4.392s1.97,4.392,4.392,4.392,4.391-1.97,4.391-4.392-1.97-4.392-4.391-4.392Z"/><path class="cls-1" d="M56.915,21.339c-.021-.007-.041-.014-.062-.02-2.587-.736-5.189-1.44-7.821-2.128,0,0,0,.002,0,.003.449-1.16.706-2.398.706-3.691,0-6.353-5.883-11.503-13.141-11.503s-13.141,5.15-13.141,11.503c0,1.826.488,3.551,1.353,5.085-.786.25-1.574.499-2.358.745-2.452-.688-4.849-1.386-7.107-2.07-.411-.136-.838-.271-1.266-.406l-.569-.181c-1.666-.531-3.377-1.061-5.196-1.592-.078-.022-.152-.035-.186-.036-.808-.188-1.582-.123-2.24.189-1.257.598-1.877,1.971-1.547,3.396.556,2.646.997,5.375,1.313,8.108,0,.007,0,.013.002.02.326,2.822.515,5.786.562,8.809.079,5.066-.261,10.103-1.012,14.968-.249,1.592.469,2.994,1.784,3.486,3.08,1.162,6.347,2.291,9.707,3.356,1.663.527,3.387,1.054,5.196,1.58.092.026.186.04.279.04.111,0,.223-.019.33-.056,4.447-1.553,10.494-3.167,16.839-4.823,4.693,1.536,9.322,2.927,14.118,4.242,1.174.354,2.375.123,3.206-.621.797-.713,1.134-1.768.938-2.813-1.248-11.991-.866-22.471,1.175-32.092.251-1.608-.497-3.014-1.862-3.499ZM21.283,58.693c-1.368-.406-2.698-.812-3.981-1.218-3.327-1.055-6.559-2.172-9.608-3.322-.499-.187-.587-.82-.511-1.307.768-4.978,1.116-10.128,1.035-15.307-.049-3.091-.242-6.123-.569-8.921,0-.065-.006-.129-.019-.191-.322-2.767-.771-5.527-1.337-8.226-.125-.54.04-.963.453-1.16.24-.114.569-.131.92-.048.057.013.118.024.092.011,1.798.524,3.493,1.05,5.144,1.576l.585.186c.416.132.832.263,1.256.402,2.213.67,4.546,1.349,6.93,2.019,1.216,11.633,1.083,23.265-.389,35.505ZM36.597,6c6.143,0,11.141,4.263,11.141,9.503,0,2.306-.985,4.531-2.773,6.267l-.607.599v.038c-2.82,2.949-5.43,6.137-7.773,9.497-2.345-3.363-4.959-6.555-7.781-9.505v-.068l-.602-.588c-1.77-1.731-2.745-3.947-2.745-6.239,0-5.24,4.998-9.503,11.141-9.503ZM23.666,23.046c.779-.245,1.56-.492,2.338-.741.251.3.516.59.799.867v.035c3.092,3.165,5.921,6.607,8.449,10.286l.29.312c.295.317.687.475,1.08.475s.784-.158,1.079-.475l.007-.007c1.042-1.532,2.149-3.012,3.293-4.46-.643.814-1.258,1.458-1.869,2.299.236,6.575-.212,13.69-.598,19.786-.062.985-.122,1.944-.179,2.89-5.548,1.45-10.838,2.869-15.045,4.252,1.446-12.232,1.569-23.873.356-35.518ZM56.811,24.475c-2.075,9.776-2.467,20.46-1.187,32.741.08.428-.024.796-.293,1.037-.307.275-.787.348-1.318.188-4.653-1.276-9.129-2.621-13.657-4.097.056-.915.114-1.844.174-2.796.436-6.89.938-14.837.471-22.212,1.686-2.134,3.465-4.186,5.356-6.122v-.01c.682-.662,1.267-1.399,1.76-2.187,2.747.715,5.458,1.449,8.154,2.215.511.199.606.818.541,1.242Z"/></svg>