<?xml version="1.0" encoding="UTF-8"?><svg id="Icons" xmlns="http://www.w3.org/2000/svg" viewBox="0 0 64 64"><defs><style>.cls-1{fill:#fff;}</style></defs><path class="cls-1" d="M55.667,6.088c1.287,0,2.333,1.018,2.333,2.268v48.137c0,.782-.636,1.419-1.419,1.419-.082,0-.167-.007-.25-.022-8.022-1.393-16.252-2.099-24.459-2.099s-16.451.707-24.48,2.103c-.07.012-.14.018-.209.018-.653,0-1.184-.531-1.184-1.184V8.399c0-1.251,1.047-2.268,2.333-2.268.13,0,.262.011.393.032,7.598,1.246,15.385,1.877,23.146,1.877,7.847,0,15.719-.646,23.398-1.919.132-.022.265-.033.396-.033M55.667,4.088c-.238,0-.48.019-.724.06-7.505,1.244-15.213,1.892-23.071,1.892-7.772,0-15.396-.633-22.823-1.851-.241-.039-.48-.059-.716-.059-2.329,0-4.333,1.858-4.333,4.268v48.33c0,1.758,1.425,3.184,3.184,3.184.185,0,.369-.016.551-.048,7.841-1.363,15.906-2.073,24.137-2.073s16.282.709,24.117,2.07c.196.034.394.051.592.051,1.888,0,3.419-1.531,3.419-3.419V8.356c0-2.41-2.005-4.268-4.333-4.268h0Z"/><path class="cls-1" d="M22.123,43.61c-.538,0-1.079-.173-1.536-.528l-10.01-7.808c-.607-.475-.962-1.201-.962-1.972s.355-1.497.962-1.972l10.01-7.808c1.09-.848,2.661-.654,3.509.435.849,1.088.655,2.659-.434,3.509l-7.482,5.836,7.482,5.836c1.089.85,1.283,2.421.434,3.509-.493.633-1.229.963-1.973.963Z"/><path class="cls-1" d="M41.876,43.61c-.744,0-1.48-.33-1.973-.963-.849-1.088-.655-2.659.434-3.509l7.482-5.836-7.482-5.836c-1.089-.85-1.283-2.421-.434-3.509.85-1.09,2.42-1.281,3.509-.435l10.01,7.808c.607.475.962,1.201.962,1.972s-.355,1.497-.962,1.972l-10.01,7.808c-.457.355-.999.528-1.536.528Z"/><path class="cls-1" d="M28.491,46.546c-.251,0-.506-.038-.758-.119-1.316-.418-2.043-1.824-1.625-3.14l6.836-21.484c.418-1.315,1.824-2.048,3.14-1.624,1.316.418,2.043,1.824,1.625,3.14l-6.836,21.484c-.338,1.063-1.322,1.743-2.382,1.743Z"/></svg>