<?xml version="1.0" encoding="UTF-8"?><svg id="Icons" xmlns="http://www.w3.org/2000/svg" viewBox="0 0 64 64"><defs><style>.cls-1{fill:#90d0fe;}.cls-2{fill:#56c2b9;}.cls-3{fill:#001e5b;}.cls-4{fill:#fff;}.cls-5{fill:#05628a;}.cls-6{fill:#107cad;opacity:.2;}.cls-7{fill:#0d9dda;}</style></defs><path class="cls-7" d="M55.77,15.119h-19.641c-.472,0-.917.095-1.34.239-1.657.561-2.858,2.112-2.858,3.96v6.826c2.709-.159,5.398-.394,8.064-.706,1.69-.197,3.195,1.109,3.195,2.811v28.19c0,1.184-1.016,2.106-2.196,2.007-.101-.008-.201-.015-.302-.023.834.068,1.666.141,2.498.22h0c4.05.386,8.074.883,12.067,1.277,2.276.225,4.273-1.336,4.713-3.487V19.317c0-2.319-1.88-4.198-4.198-4.198ZM57.169,18.911c-.316,1.504-.561,3.143-.715,4.864-.062.689-.802,1.09-1.278.589-.31-.326-.568-.699-.765-1.106-.411-.771-.645-1.293-1.512-1.793-.685-.396-1.834-.47-2.687-.52-.506-.019-.985-.085-1.45-.171-.882-.164-1.687-.432-2.35-.806-.811-.458-.362-1.432.569-1.468.578-.022,1.182-.065,1.781-.103,1.239-.079,2.503-.179,3.812-.327,1.16-.131,2.291-.285,3.386-.458.498-.079.908.137,1.072.447.141.231.203.535.137.853Z"/><path class="cls-1" d="M39.994,25.437c-2.666.311-5.354.546-8.063.706-2.763.163-5.548.246-8.352.246-2.832,0-5.643-.086-8.433-.252-2.681-.159-5.343-.392-7.982-.7-.317-.037-.623-.006-.918.056,0-.005,0,.005.001,0-.063.013-.122.021-.184.038-.061.017-.123.033-.182.054-.128.045-.25.1-.37.162-.042.022-.086.039-.126.062-.156.091-.303.194-.439.312-.027.024-.05.052-.076.077-.105.098-.203.202-.292.314-.038.048-.071.099-.105.149-.069.1-.132.203-.188.312-.03.058-.058.116-.084.176-.05.116-.149.417-.149.592l.011,27.805c0,2.591,2.229,4.628,4.808,4.373,4.797-.474,9.636-1.098,14.513-1.497,2.836-.232,5.685-.386,8.546-.391.044,0,.089-.002.133-.002,3.73,0,9.461.461,8.627.393.101.008.201.015.302.023,1.18.099,2.196-.823,2.196-2.007v-28.19c0-1.702-1.505-3.008-3.195-2.811Z"/><path class="cls-3" d="M44.057,4.075c-3.989.342-8.025.516-12.103.516s-8.114-.174-12.103-.516c-2.507-.215-4.706,1.731-4.706,4.248v17.814c2.79.166,5.602.252,8.433.252,2.804,0,5.589-.083,8.352-.246v-6.826c0-1.847,1.201-3.398,2.858-3.96.423-.143.868-.239,1.34-.239h12.634v-6.796c0-2.517-2.198-4.463-4.706-4.248Z"/><rect class="cls-5" x="48.792" y="26.324" width="5.603" height="28.015" rx="1.401" ry="1.401"/><path class="cls-2" d="M15.175,33.401c0-.097-.01-.192-.029-.284v6.098c.019-.092.029-.187.029-.284v-5.53Z"/><path class="cls-2" d="M15.146,51.68v.56c0,.099.022.191.029.288v-.814c-.01-.011-.019-.023-.029-.034Z"/><path class="cls-5" d="M13.774,45.935h-2.802c-.013,0-.024.003-.037.004-.756.02-1.364.636-1.364,1.397v5.53c0,.774.627,1.401,1.401,1.401h2.802c.774,0,1.401-.627,1.401-1.401v-.338c-.007-.097-.029-.189-.029-.288v-.56c.01.011.019.023.029.034v-4.379c0-.097-.01-.192-.029-.284-.131-.637-.696-1.117-1.372-1.117Z"/><path class="cls-5" d="M10.972,40.331h2.802c.676,0,1.24-.479,1.372-1.117v-6.098c-.131-.637-.696-1.117-1.372-1.117h-2.802c-.774,0-1.401.627-1.401,1.401v5.53c0,.774.627,1.401,1.401,1.401Z"/><rect class="cls-5" x="20.778" y="32" width="5.603" height="8.331" rx="1.401" ry="1.401"/><rect class="cls-5" x="31.983" y="32" width="5.603" height="8.331" rx="1.401" ry="1.401"/><rect class="cls-5" x="20.778" y="45.935" width="5.603" height="8.331" rx="1.401" ry="1.401"/><rect class="cls-5" x="31.983" y="45.935" width="5.603" height="8.331" rx="1.401" ry="1.401"/><path class="cls-4" d="M57.033,18.057c-.165-.31-.574-.526-1.072-.447-1.095.173-2.226.327-3.386.458-1.309.148-2.573.248-3.812.327-.599.038-1.204.081-1.781.103-.931.036-1.38,1.01-.569,1.468.663.374,1.468.642,2.35.806.465.086.944.153,1.45.171.853.05,2.002.124,2.687.52.867.5,1.1,1.022,1.512,1.793.196.407.455.78.765,1.106.476.501,1.217.1,1.278-.589.154-1.721.4-3.36.715-4.864.067-.318.005-.622-.137-.853Z"/><path class="cls-1" d="M43.193,15.119v-4.186c0-.774-.627-1.401-1.401-1.401h-5.603c-.774,0-1.401.627-1.401,1.401v4.425c.423-.143.868-.239,1.34-.239h7.064Z"/><rect class="cls-1" x="20.778" y="9.532" width="8.404" height="14.007" rx="1.401" ry="1.401"/><path class="cls-6" d="M20.361,56.438c-1.837-1.361-3.582-2.937-5.187-4.724v1.151c0,.774-.627,1.401-1.401,1.401h-2.802c-.774,0-1.401-.627-1.401-1.401v-5.53c0-.761.608-1.377,1.364-1.397-3.924-6.602-5.451-13.875-4.69-20.445,0-.005,0,.005.001,0-.063.013-.122.021-.184.038-.061.017-.122.033-.182.054-.128.045-.25.1-.37.162-.042.022-.086.039-.126.062-.156.091-.303.194-.439.312-.027.024-.05.052-.076.077-.105.098-.203.202-.292.314-.038.048-.071.099-.105.149-.069.1-.132.203-.188.312-.03.058-.058.116-.084.176-.05.116-.149.427-.149.592l.011,27.805c0,2.591,2.229,4.628,4.807,4.373,4.797-.474,9.636-1.098,14.513-1.497-1.03-.601-2.041-1.257-3.023-1.985Z"/></svg>