<?xml version="1.0" encoding="UTF-8"?><svg id="Icons" xmlns="http://www.w3.org/2000/svg" viewBox="0 0 64 64"><defs><style>.cls-1{fill:#001e5b;}</style></defs><path class="cls-1" d="M52.189,10.343c1.371,0,2.703.488,3.751,1.373,2.099,1.773,2.67,4.811,1.357,7.223-.188.345-.413.673-.667.975l-8.645,10.234-18.116,21.446c-1.107,1.311-2.726,2.063-4.443,2.063-.057,0-.114,0-.169-.003-1.781-.052-3.416-.899-4.485-2.326l-13.611-18.159c-1.924-2.567-1.402-6.219,1.166-8.143.256-.193.556-.373.917-.553.814-.406,1.678-.611,2.568-.611,1.825,0,3.566.871,4.659,2.33l7.722,10.301c.365.487.933.782,1.542.8.02,0,.039,0,.058,0,.588,0,1.147-.259,1.528-.709l13.881-16.433,6.543-7.746c1.107-1.311,2.728-2.063,4.446-2.063M52.189,8.343c-2.309,0-4.486,1.011-5.974,2.773l-6.543,7.746-13.881,16.433-7.722-10.301c-1.467-1.96-3.808-3.13-6.259-3.13-1.218,0-2.39.288-3.459.821-.426.212-.839.453-1.227.744-3.447,2.584-4.149,7.493-1.564,10.942l13.612,18.159c1.437,1.917,3.633,3.056,6.027,3.125.071.002.15.003.228.003,2.307,0,4.484-1.01,5.972-2.773l18.115-21.446,8.645-10.234c.349-.413.647-.852.896-1.309,1.736-3.189,1.057-7.275-1.823-9.707-1.408-1.19-3.199-1.845-5.042-1.845h0Z"/></svg>