<?xml version="1.0" encoding="UTF-8"?><svg id="Icons" xmlns="http://www.w3.org/2000/svg" viewBox="0 0 64 64"><defs><style>.cls-1{fill:#fff;}.cls-2{fill:#05628a;}.cls-3{fill:#0d9dda;}</style></defs><path class="cls-3" d="M8.128,31.436c3.096,5.228,8.153,13.07,13.75,14.509,10.915,2.807,31.177-19.218,37.176-26.05,1.736-3.189,1.057-7.275-1.823-9.707-1.408-1.19-3.199-1.845-5.042-1.845-2.308,0-4.486,1.011-5.974,2.773l-6.543,7.746-13.881,16.433-7.722-10.301c-1.468-1.96-3.808-3.13-6.259-3.13-1.218,0-2.39.288-3.46.821-1.128,2.85-1.91,5.901-.222,8.752ZM10.346,24.152c2.981-.766,6.018,1.029,6.784,4.01.233.906-.873,1.214-1.535.553-1.418-1.416-3.158-2.484-5.071-3.103-.784-.254-.976-1.255-.178-1.46Z"/><path class="cls-1" d="M10.523,25.612c1.913.619,3.652,1.688,5.071,3.103.662.661,1.768.353,1.535-.553-.766-2.981-3.803-4.776-6.784-4.01-.798.205-.606,1.207.178,1.46Z"/><path class="cls-2" d="M21.878,45.945c-5.597-1.44-10.653-9.282-13.75-14.509-1.689-2.851-.906-5.902.222-8.752-.425.212-.839.453-1.226.744-3.447,2.584-4.15,7.493-1.564,10.942l13.612,18.159c1.436,1.917,3.633,3.056,6.027,3.125.071.002.15.003.227.003,2.307,0,4.484-1.01,5.972-2.773l18.115-21.446,8.645-10.234c.349-.413.647-.852.896-1.309-5.998,6.832-26.261,28.857-37.176,26.05Z"/></svg>