<?xml version="1.0" encoding="UTF-8"?><svg id="Icons" xmlns="http://www.w3.org/2000/svg" viewBox="0 0 64 64"><defs><style>.cls-1{fill:#0d9dda;}</style></defs><path class="cls-1" d="M54.943,18.549c-7.505,1.244-15.212,1.892-23.071,1.892-7.772,0-15.396-.633-22.823-1.851-2.619-.429-5.049,1.556-5.049,4.21v28.33c0,1.758,1.426,3.184,3.184,3.184.185,0,.369-.016.551-.048,7.841-1.363,15.906-2.073,24.137-2.073s16.282.709,24.117,2.07c.196.034.394.051.592.051,1.888,0,3.419-1.531,3.419-3.419v-28.137c0-2.657-2.436-4.643-5.057-4.208ZM46.174,39.38h-28.413c-1.381,0-2.5-1.119-2.5-2.5s1.119-2.5,2.5-2.5h28.413c1.381,0,2.5,1.119,2.5,2.5s-1.119,2.5-2.5,2.5Z"/><path class="cls-1" d="M51.829,16.014v-4.399c0-1.116-.954-1.995-2.073-1.923-5.054.329-15.152.497-20.289.497s-10.235-.168-15.289-.497c-1.119-.073-2.073.807-2.073,1.923v4.426c13.082,1.864,26.636,1.855,39.724-.027Z"/></svg>