<?xml version="1.0" encoding="UTF-8"?><svg id="Icons" xmlns="http://www.w3.org/2000/svg" viewBox="0 0 64 64"><defs><style>.cls-1{fill:#001e5b;}</style></defs><path class="cls-1" d="M30.59,24.854h-.025c-.451-.008-.874-.218-1.153-.572l-2.525-3.206c-.513-.65-.4-1.594.251-2.106.649-.511,1.594-.4,2.106.251l1.388,1.761,4.658-5.515c.533-.634,1.48-.713,2.113-.178.633.534.713,1.48.178,2.113l-5.845,6.92c-.285.338-.704.532-1.146.532Z"/><path class="cls-1" d="M58.445,46.902h-1.016c.051-1.622-.152-6.379-.183-9.26-.035-3.36.21-6.766.21-6.766,0-1.76-1.427-2.999-3.186-2.999h-11.183V11.043c0-1.76-1.427-3.186-3.186-3.186h-15.494c-1.76,0-3.186,1.426-3.186,3.186v9.834h-11.149c-1.717,0-3.326,1.362-3.184,3.058.201,2.399.448,5.934.448,11.292,0,6.109-.542,10.048-.47,11.675h-1.311c-.859,0-1.555.696-1.555,1.555v6.13c0,.859.696,1.555,1.555,1.555h52.89c.859,0,1.555-.696,1.555-1.555v-6.13c0-.859-.696-1.555-1.555-1.555ZM43.088,35.536v-5.659h11.183c.575,0,1.155.293,1.185.947-.04.579-.241,3.701-.209,6.839.013,1.229.057,2.787.099,4.294.049,1.729.114,4.025.087,4.871-1.374.014-5.529.051-9.035.051-1.513,0-2.569-.007-3.311-.017v-11.325ZM23.221,35.91V11.043c0-.654.532-1.186,1.186-1.186h15.494c.654,0,1.186.532,1.186,1.186v35.754c-.948-.005-2.339-.008-4.395-.008-4.254,0-9.586.014-12.753.024-.234,0-.471-.001-.719-.002v-10.901ZM8.882,23.767c-.013-.154.052-.31.193-.463.239-.26.631-.428.998-.428h11.149v23.931c-1.982-.003-4.148-.006-6.117-.006-3.218,0-5.243.007-6.047.021-.086,0-.152-.007-.199-.016-.021-.509.058-1.671.134-2.799.145-2.126.343-5.037.343-8.781,0-5.345-.243-8.931-.455-11.459ZM58,54.142H6v-5.24h52v5.24Z"/></svg>