<?xml version="1.0" encoding="UTF-8"?><svg id="Icons" xmlns="http://www.w3.org/2000/svg" viewBox="0 0 64 64"><defs><style>.cls-1{fill:#fff;}.cls-2{fill:#05628a;}</style></defs><path class="cls-2" d="M58.491,56.143s-.031-.001-.042-.002c-.001,0-.003,0-.004,0,.016.002.031,0,.046.001Z"/><path class="cls-2" d="M58.445,56.142s.003,0,.004,0c-.004,0-.01,0-.016,0,.003,0,.009,0,.012.001Z"/><path class="cls-2" d="M57.749,56.111c.371.017.603.027.684.03-.11-.014-.345-.024-.684-.03Z"/><path class="cls-1" d="M40.003,47.019c.032.004.062,0,.093.003-.008-.002-.017-.004-.025-.006h-.139c.023.003.048,0,.071.003Z"/><path class="cls-1" d="M43.436,47.052c.017.004.034.008.051.012-.013-.001-.034-.009-.051-.012Z"/><rect class="cls-1" x="4" y="46.902" width="56" height="9.24" rx="1.555" ry="1.555"/><path class="cls-1" d="M6.93,44.902h12.292v-24.025h-9.149c-1.717,0-3.325,1.362-3.184,3.058.201,2.399.448,5.934.448,11.292,0,4.335-.273,7.574-.407,9.675Z"/><path class="cls-1" d="M57.749,56.111c-1.039-.02-3.089-.005-5.783.031h6.48s-.009,0-.012-.001c-.082-.004-.313-.014-.684-.03Z"/><path class="cls-1" d="M58.491,56.143s-.031-.001-.042-.002c-.001,0-.003,0-.004,0,.016.002.031,0,.046.001Z"/><path class="cls-1" d="M58.445,56.142s.003,0,.004,0c-.004,0-.01,0-.016,0,.003,0,.009,0,.012.001Z"/><path class="cls-1" d="M57.749,56.111c.371.017.603.027.684.03-.11-.014-.345-.024-.684-.03Z"/><path class="cls-1" d="M39.901,7.857h-15.494c-1.76,0-3.186,1.426-3.186,3.186v33.859h21.866V11.043c0-1.76-1.426-3.186-3.186-3.186ZM37.581,17.402l-5.845,6.92c-.285.338-.704.532-1.146.532h-.025c-.451-.008-.874-.218-1.153-.572l-2.525-3.206c-.513-.65-.4-1.594.251-2.106.649-.511,1.594-.4,2.106.251l1.388,1.761,4.658-5.515c.533-.634,1.481-.713,2.113-.178.633.534.713,1.48.178,2.113Z"/><path class="cls-1" d="M57.422,44.902c-.042-2.15-.154-5.19-.175-7.26-.035-3.36.21-6.766.21-6.766,0-1.76-1.427-2.999-3.186-2.999h-9.183v17.025h12.334Z"/></svg>