<?xml version="1.0" encoding="UTF-8"?><svg id="Icons" xmlns="http://www.w3.org/2000/svg" viewBox="0 0 64 64"><defs><style>.cls-1{fill:#001e5b;}</style></defs><path class="cls-1" d="M31.867,6.255c.78,0,1.532.164,2.239.489,5.834,2.672,19.75,11.036,23.113,31.006v.009l.021.144c1.044,7.127.787,9.756.541,10.687-.627,2.369-4.626,4.148-6.565,5.011-2.7,1.197-7.1,2.797-12.727,3.621l-.029.004-.029.005c-2.537.447-5.548.514-7.118.514h-.829c-7.856-.102-14.944-2.226-21.671-6.494-1.761-1.115-2.812-3.013-2.812-5.075,0-2.988.199-5.794.583-8.154l.016-.115c1.179-7.674,4.223-14.368,9.307-20.464,5.205-6.233,10.83-9.379,13.725-10.701.703-.324,1.452-.488,2.226-.488h.01M31.867,4.255h-.01c-1.059,0-2.09.224-3.062.671-3.042,1.39-8.962,4.695-14.424,11.236-5.327,6.386-8.515,13.404-9.749,21.442l-.019.136c-.505,3.11-.603,6.298-.603,8.437,0,2.751,1.409,5.288,3.742,6.765,7.047,4.471,14.473,6.697,22.715,6.804h.855c1.633,0,4.763-.068,7.465-.544,5.842-.855,10.42-2.517,13.248-3.771,2.381-1.059,6.814-3.023,7.688-6.328.505-1.915.34-5.783-.496-11.489,0-.029,0-.058-.01-.087-3.49-20.985-18.137-29.791-24.271-32.6-.972-.447-2.012-.671-3.071-.671h0Z"/><path class="cls-1" d="M54.606,38.289c-3.158-18.698-16.057-26.626-21.502-29.12-.358-.165-.735-.247-1.128-.247h-.01c-.391,0-.755.08-1.111.244-2.695,1.231-7.99,4.112-12.857,9.94-4.758,5.705-7.664,12.012-8.769,19.183l-.008.058c-.004.029-.009.059-.013.088-.355,2.183-.542,4.841-.542,7.688,0,1.144.588,2.199,1.572,2.822,6.291,3.991,12.913,5.979,20.249,6.08h.825c1.482,0,4.318-.062,6.655-.473.045-.008.089-.015.134-.022,5.329-.78,9.485-2.291,12.033-3.42,1.062-.472,2.495-1.11,3.649-1.896,1.246-.849,1.418-1.355,1.42-1.36.052-.198.485-2.174-.595-9.565ZM19.533,20.388c4.297-5.146,8.981-7.954,12.158-9.406.095-.044.172-.061.275-.061h.01c.105,0,.198.02.295.065,4.99,2.285,16.74,9.372,20.114,26.303h-4.688l-6.958-11.305c-.311-.471-.812-.706-1.314-.706s-1,.234-1.312.703l-6.997,11.308h0l.05-.081h-12.909l9.534-15.216c.015-.023.047-.071.132-.071.071,0,.105.034.107.034,0,0,0-.001-.002-.004l6.394,9.995,1.167-1.887-5.876-9.186c-.428-.635-1.109-.953-1.79-.953-.688,0-1.375.324-1.802.97l-10.275,16.399h-4.396c1.183-6.246,3.821-11.793,8.082-16.902ZM45.299,37.208h-11.78l5.906-9.544,5.874,9.544ZM10.665,46.123c0-2.518.157-4.855.444-6.834h14.201c-.883,1.207-1.639,2.883-.884,4.594.812,1.838,3.008,2.654,4.945,3.374.763.283,2.549.947,2.55,1.289-.013.096-.232,1.03-3.633,4.375-6.078-.431-11.656-2.287-16.981-5.666-.408-.259-.642-.671-.642-1.133ZM30.994,53.025c2.539-2.671,2.927-3.76,2.927-4.458,0-1.753-1.958-2.48-3.852-3.185-1.566-.582-3.342-1.241-3.812-2.308-.627-1.419,1.073-3.178,1.73-3.785h1.731c-1.083,1.048-1.884,2.269-1.46,3.378.462,1.21,1.952,1.61,3.677,2.073,3.01.809,5.14,1.581,5.14,4.17,0,.795-.713,2.27-1.908,3.969-1.498.12-2.944.145-3.856.145h-.317ZM53.301,47.058c-.121.113-.324.284-.646.503-1.005.684-2.352,1.284-3.333,1.72-2.434,1.079-6.407,2.522-11.511,3.269-.016.002-.032.005-.049.008.87-1.468,1.313-2.692,1.313-3.648,0-4.322-3.984-5.393-6.621-6.102-.854-.229-2.144-.575-2.312-.777.036-.466,1.354-1.755,2.779-2.742h19.807c.688,4.934.633,7.066.573,7.769Z"/><path class="cls-1" d="M45.467,43.1c.146-.175.418-.175.554,0,.836,1.021,1.75,1.973,2.741,2.838.146.126.156.35.019.496-.088.088-.214.117-.34.088-.855-.253-1.759-.389-2.692-.389s-1.857.136-2.712.399c-.117.039-.253,0-.34-.087-.136-.136-.126-.369.019-.496.991-.865,1.915-1.818,2.751-2.848Z"/><path class="cls-1" d="M16.667,41.311c.146-.175.418-.175.554,0,.836,1.021,1.75,1.973,2.741,2.838.146.126.156.35.019.496-.087.087-.214.117-.34.087-.855-.253-1.759-.389-2.692-.389s-1.856.136-2.712.399c-.117.039-.253,0-.34-.088-.136-.136-.126-.369.019-.496.991-.865,1.915-1.818,2.751-2.848Z"/><path class="cls-1" d="M22.573,46.22c.146-.175.418-.175.554,0,.836,1.021,1.75,1.973,2.741,2.838.146.126.156.35.019.496-.087.087-.214.117-.34.087-.855-.253-1.759-.389-2.692-.389s-1.856.136-2.712.399c-.117.039-.253,0-.34-.088-.136-.136-.126-.369.019-.496.991-.865,1.915-1.818,2.751-2.848Z"/></svg>