<?xml version="1.0" encoding="UTF-8"?><svg id="Icons" xmlns="http://www.w3.org/2000/svg" viewBox="0 0 64 64"><defs><style>.cls-1{fill:#001e5b;}.cls-2{fill:#fff;}.cls-3{fill:#05628a;}.cls-4{fill:#0d9dda;}</style></defs><path class="cls-4" d="M34.975,59.233c-1.848,1.019-4.09,1.024-5.938.005-19.306-10.643-19.236-21.688-19.235-21.771.003-.05.004-.1.004-.15V15.294c0-3.216,2.591-5.863,5.808-5.863,1.232,0,1.623-.102,2.681-.227,3.512-.414,7.915-3.388,10.4-4.498,2.109-.942,4.502-.942,6.611,0,2.485,1.11,6.987,4.085,10.499,4.498,1.044.123,1.231.163,2.523.225,3.245.155,5.867,2.674,5.867,5.923l.002,22.077c0,.031.055,3.132-2.691,7.555-2.296,3.698-6.994,8.988-16.532,14.248Z"/><path class="cls-1" d="M32.106,20.593h.005-.005M32.001,20.642c.256.123.648.333,1.029.536,1.706.913,4.043,2.163,6.465,2.448.191.023.351.04.495.055v11.362c-.029.183-.178.881-.822,1.918-.764,1.231-2.694,3.627-7.167,6.216-6.921-4.005-7.882-7.614-7.988-8.144v-11.343c.128-.014.255-.029.385-.045l.167-.02c2.423-.286,4.726-1.532,6.407-2.442.382-.207.774-.419,1.028-.542M32.001,15.614c-.659,0-1.317.138-1.935.414-1.454.65-4.031,2.39-6.086,2.632-.619.073-.91.114-1.569.133-1.881.053-3.399,1.548-3.399,3.431v12.888c0,.029,0,.058-.003.088,0,.049-.042,6.512,11.256,12.74.54.297,1.136.446,1.733.446s1.2-.15,1.742-.449c5.582-3.078,8.331-6.174,9.675-8.338,1.607-2.588,1.575-4.403,1.575-4.421v-12.92c-.001-1.901-1.538-3.335-3.435-3.466-.683-.047-.866-.06-1.477-.132-2.055-.242-4.69-1.983-6.144-2.632-.617-.276-1.276-.414-1.934-.414h0Z"/><path class="cls-3" d="M41.754,54.951s-1.348,1.001-3.123,2.137c-1.17.749-2.621,1.574-3.656,2.145-1.848,1.019-4.09,1.024-5.938.005-19.306-10.643-19.236-21.688-19.235-21.771.003-.05.004-.1.004-.15V15.294s-.201,38.483,31.948,39.657Z"/><path class="cls-2" d="M52.328,25.681c.034-3.311-.236-10.398-.236-10.398,0-1.949-1.603-3.202-3.52-3.554-.675-.124-1.566-.354-2.187-.46-.775-.132-1.777-.384-2.79-.687-1.479-.442-6.73-1.765-3.112,1.049.504.392.941.699,2.112,1.216,2.936,1.295,5.638,2.116,5.974,3.269.47,1.613,1.809,10.022,2.481,11.165,1.008,1.714,1.271-.895,1.278-1.6Z"/></svg>