<?xml version="1.0" encoding="UTF-8"?><svg id="Icons" xmlns="http://www.w3.org/2000/svg" viewBox="0 0 64 64"><defs><style>.cls-1{fill:#881740;}.cls-2{fill:#fe7298;}.cls-3{fill:#8c003d;}.cls-4{fill:#e50069;}.cls-5{fill:#fff;}</style></defs><rect class="cls-3" x="4" y="36.565" width="56" height="5.156" rx="1.375" ry="1.375"/><rect class="cls-3" x="29.422" y="4.057" width="5.156" height="16.428" rx="1.375" ry="1.375"/><circle class="cls-3" cx="32" cy="24.483" r="16.434"/><path class="cls-2" d="M9.955,59.943c.164,0,.328-.014.49-.042,6.965-1.211,14.129-1.842,21.441-1.842s14.463.63,21.423,1.839c.174.03.35.046.526.046,1.677,0,3.037-1.36,3.037-3.037V17.14c0-2.36-2.164-4.124-4.492-3.738-6.667,1.105-13.513,1.681-20.494,1.681-6.904,0-13.676-.562-20.274-1.644-2.326-.381-4.485,1.382-4.485,3.74v39.937c0,1.562,1.266,2.828,2.828,2.828Z"/><path class="cls-1" d="M18.144,26.093c9.742-1.422,10.913,12.733,2.261,13.769-9.368,1.122-10.574-12.556-2.261-13.769Z"/><path class="cls-1" d="M43.332,25.939c9.742-1.422,10.913,12.733,2.261,13.769-9.368,1.122-10.574-12.556-2.261-13.769Z"/><path class="cls-1" d="M32.153,51.961c-.102,0-.205,0-.306,0-3.225,0-6.096-1.345-8.536-3.999-.935-1.017-.868-2.599.148-3.533,1.015-.935,2.598-.868,3.532.148,1.51,1.643,3.081,2.428,4.925,2.384v-.003l.167.003c1.836.052,3.415-.741,4.925-2.384.934-1.018,2.515-1.083,3.532-.148,1.017.935,1.083,2.517.148,3.533-2.44,2.654-5.311,3.999-8.536,3.999Z"/><path class="cls-5" d="M51.887,17.564c.524-.083.954.145,1.125.472.146.241.21.558.141.889-.33,1.575-.588,3.29-.749,5.091-.064.721-.839,1.141-1.338.616-.325-.342-.597-.734-.802-1.161-.429-.804-.674-1.35-1.58-1.873-.719-.415-1.927-.493-2.82-.545-.227-.009-.451-.024-.671-.046-.033-.003-.065-.007-.096-.01-1.224-.134-2.325-.472-3.203-.967-.849-.479-.379-1.499.595-1.536,1.855-.072,3.822-.22,5.854-.451,1.214-.138,2.398-.299,3.544-.48Z"/><path class="cls-4" d="M16.923,46.234c-7.055-7.801-8.429-15.375-9.796-22.569v33.449c0,1.562,1.266,2.828,2.828,2.828.164,0,.328-.014.49-.043,6.965-1.21,14.129-1.842,21.441-1.842,6.395,0,12.678.483,18.813,1.414-12.278-2.878-24.921-3.447-33.776-13.238Z"/></svg>