<?xml version="1.0" encoding="UTF-8"?><svg id="Icons" xmlns="http://www.w3.org/2000/svg" viewBox="0 0 64 64"><defs><style>.cls-1{fill:#001e5b;}</style></defs><path class="cls-1" d="M19.329,40.928c-4.631,0-7.211-3.442-7.67-6.892-.518-3.903,1.493-8.225,6.341-8.933h0c3.127-.455,5.795.511,7.513,2.724,1.801,2.321,2.229,5.748,1.068,8.528-1.056,2.525-3.264,4.166-6.057,4.5-.412.05-.812.073-1.195.073ZM18.289,27.082c-3.565.52-5.036,3.759-4.646,6.69.383,2.887,2.585,5.581,6.644,5.097,2.088-.25,3.668-1.417,4.449-3.286.893-2.136.57-4.761-.803-6.53-.889-1.146-2.586-2.418-5.644-1.97h0Z"/><path class="cls-1" d="M44.516,40.774c-4.631,0-7.211-3.442-7.669-6.892-.519-3.904,1.493-8.225,6.34-8.933h0c3.125-.455,5.795.511,7.513,2.724,1.801,2.321,2.229,5.748,1.068,8.528-1.056,2.525-3.264,4.166-6.057,4.5-.412.05-.812.073-1.195.073ZM43.476,26.929h0c-3.564.52-5.036,3.759-4.646,6.69.383,2.886,2.586,5.573,6.644,5.097,2.088-.25,3.668-1.417,4.449-3.286.893-2.136.57-4.761-.803-6.53-.889-1.145-2.591-2.414-5.644-1.97Z"/><path class="cls-1" d="M32.153,51.961c-.102,0-.205,0-.306,0-3.225,0-6.096-1.345-8.536-3.999-.935-1.017-.868-2.599.148-3.533,1.015-.935,2.598-.868,3.532.148,1.51,1.643,3.081,2.428,4.925,2.384v-.003l.167.003c1.836.052,3.415-.741,4.925-2.384.934-1.018,2.515-1.083,3.532-.148,1.017.935,1.083,2.517.148,3.533-2.44,2.654-5.311,3.999-8.536,3.999Z"/><path class="cls-1" d="M58.625,36.565h-1.753v-19.424c0-2.141-1.781-3.792-3.849-3.792-.212,0-.427.017-.643.053l-7.447.978c-2.507-3.195-6.162-5.447-10.355-6.109v-2.839c0-.759-.616-1.375-1.375-1.375h-2.406c-.759,0-1.375.615-1.375,1.375v2.839c-4.202.664-7.865,2.924-10.373,6.131-2.499-.256-4.983-.562-7.437-.964-.214-.035-.427-.052-.636-.052-2.069,0-3.849,1.651-3.849,3.792v19.387h-1.753c-.759,0-1.375.615-1.375,1.375v2.406c0,.759.615,1.375,1.375,1.375h1.753v15.394c0,1.562,1.266,2.828,2.828,2.828.164,0,.328-.014.49-.042,6.965-1.211,14.129-1.842,21.441-1.842s14.464.63,21.423,1.839c.174.03.35.046.526.046,1.677,0,3.037-1.36,3.037-3.037v-15.185h1.753c.759,0,1.375-.615,1.375-1.375v-2.406c0-.759-.615-1.375-1.375-1.375ZM54.872,56.906c0,.572-.465,1.037-1.037,1.037-.06,0-.122-.005-.184-.016-7.139-1.24-14.462-1.868-21.765-1.868s-14.639.63-21.783,1.871c-.049.009-.099.013-.147.013-.457,0-.828-.371-.828-.828V17.178c0-.988.83-1.792,1.849-1.792.104,0,.208.009.312.026,6.761,1.109,13.691,1.671,20.597,1.671,6.983,0,13.988-.574,20.821-1.707.105-.017.211-.026.316-.026,1.02,0,1.85.804,1.85,1.792v39.765Z"/></svg>