<?xml version="1.0" encoding="UTF-8"?><svg xmlns="http://www.w3.org/2000/svg" viewBox="0 0 64 64"><defs><style>.cls-1{fill:#fff;}</style></defs><g id="Background"><rect width="64" height="64"/></g><g id="Icons"><path class="cls-1" d="M58.625,36.565h-1.753v-19.424c0-2.36-2.164-4.124-4.492-3.738-2.456.407-4.944.717-7.447.978-2.507-3.195-6.162-5.447-10.355-6.109v-2.839c0-.759-.616-1.375-1.375-1.375h-2.406c-.759,0-1.375.615-1.375,1.375v2.839c-4.202.664-7.865,2.925-10.373,6.131-2.499-.256-4.983-.562-7.437-.964-2.326-.381-4.485,1.382-4.485,3.74v19.387h-1.753c-.759,0-1.375.615-1.375,1.375v2.406c0,.759.615,1.375,1.375,1.375h1.753v15.394c0,1.562,1.266,2.828,2.828,2.828.164,0,.328-.014.49-.042,6.965-1.211,14.129-1.842,21.441-1.842s14.464.63,21.423,1.839c.174.03.35.046.526.046,1.677,0,3.037-1.36,3.037-3.037v-15.185h1.753c.759,0,1.375-.615,1.375-1.375v-2.406c0-.759-.615-1.375-1.375-1.375ZM18.144,26.093c9.742-1.422,10.913,12.733,2.261,13.769-9.368,1.122-10.573-12.556-2.261-13.769ZM40.689,47.962c-2.44,2.654-5.311,3.999-8.536,3.999-.102,0-.205,0-.306,0-3.225,0-6.096-1.345-8.536-3.999-.935-1.017-.868-2.599.148-3.533,1.015-.935,2.598-.868,3.532.148,1.51,1.643,3.081,2.428,4.925,2.384v-.003l.167.003c1.836.052,3.415-.741,4.925-2.384.934-1.018,2.515-1.083,3.532-.148,1.017.935,1.083,2.517.148,3.533ZM45.592,39.708c-9.368,1.122-10.573-12.556-2.261-13.769,9.742-1.422,10.913,12.733,2.261,13.769Z"/></g></svg>