<?xml version="1.0" encoding="UTF-8"?><svg id="Icons" xmlns="http://www.w3.org/2000/svg" viewBox="0 0 64 64"><defs><style>.cls-1{fill:#001e5b;}</style></defs><path class="cls-1" d="M58.141,25.207c-.002-.011-.002-.023-.004-.034-.228-1.68-.548-3.297-.939-4.841,1.132-.748,1.655-2.275.954-3.623l-1.465-2.817-2.903-5.583c-.482-.927-1.44-1.508-2.484-1.508h-1.382c-2.03-1.793-4.309-2.8-6.718-2.8-.012,0-.024.002-.036.002-.012,0-.024-.002-.036-.002h-22.4c-.88,0-1.742.138-2.581.395-1.334.41-2.943,1.414-4.137,2.405h-1.277c-1.045,0-2.002.581-2.484,1.508l-4.368,8.4c-.682,1.311-.201,2.786.866,3.555-.003.011-.005.023-.008.034-.391,1.545-.716,3.195-.948,4.876-1.29.271-1.863,1.457-1.863,2.628v8.4c0,.627.21,1.2.558,1.664.328.437.78.776,1.305.964.218,1.578.466,3.585.817,5.117-.333.325-.579.657-.74.994-.006.012-.013.023-.019.035-.356.772-.291,1.561.104,2.319l1.333,2.564c.692,1.557,1.425,2.904,2.07,3.98l.965,1.857c.482.927,1.44,1.508,2.484,1.508h.004c.216.023.422.032.599.032.357,0,.601-.032.601-.032,1.997,1.721,4.361,2.8,6.718,2.8h22.344s.003,0,.004,0c.017,0,.035,0,.052,0,2.409,0,4.688-1.007,6.718-2.8h1.382c1.045,0,2.002-.581,2.484-1.508l4.368-8.4c.701-1.348.178-2.874-.954-3.623.39-1.544.707-3.161.939-4.841,1.083-.387,1.863-1.411,1.863-2.628v-8.4c0-1.186-.745-2.186-1.786-2.593ZM18.733,6.307c.663-.204,1.334-.307,1.994-.307h16.762c-.07.05-.141.095-.21.147-.005.004-.01.007-.015.011-.004.003-.008.006-.013.009-.255.195-.503.414-.751.633-.064.056-.13.105-.193.163-.055.05-.109.101-.164.152-.542.509-1.062,1.082-1.564,1.7l-.016.002-7.876.836-5.158.547c-.258.046-.516.069-.773.069-.838,0-1.659-.245-2.375-.718-.038-.026-.076-.053-.112-.081l-2.431-1.55c.996-.741,2.097-1.367,2.896-1.612ZM16.324,27.891c-.457.089-.924.133-1.394.133-.851,0-1.708-.146-2.525-.436l-4.689-1.732.057-.411c.209-1.516.504-3.027.87-4.499l5.435,1.929c.272.097.558.146.844.146.162,0,.323-.016.483-.047l13.753-2.468h.006c-.083.333-.168.666-.244,1.008-.029.133-.058.266-.087.4-.12.564-.233,1.134-.333,1.715-.002.009-.003.018-.005.027-.101.587-.187,1.184-.267,1.787-.018.134-.043.324-.044.324,0,0,0-.002,0-.005l-11.862,2.128ZM8.862,44.725l-.231-.909c-.298-1.172-.524-2.797-.725-4.276l6.076,2.119c.446.182.917.273,1.39.273.281,0,.564-.032.842-.098l12.073-2.818.01-.002c.032.228.061.458.097.684.021.131.04.264.062.394.093.562.195,1.117.307,1.664.017.084.036.165.054.249.1.475.207.943.321,1.405.031.126.062.253.094.378.012.045.025.089.037.134h-.003s-11.913,2.782-11.913,2.782c-.657.153-1.321.229-1.983.229-1.114,0-2.22-.216-3.271-.644l-3.235-1.565ZM31.854,58h-11.127c-.318,0-.642-.036-.969-.089,1.983-.029,3.959-.364,5.843-1.016l1.807-.625,6.327-2.187s.026.033.066.09c.523.733,1.072,1.406,1.645,2.015.043.046.087.091.13.136.285.296.574.58.87.843.012.011.024.022.036.032.023.021.046.042.069.062.001,0,.002.002.003.003h0s0,0,0,0c.195.17.395.323.595.477.073.056.143.119.217.173.009.007.018.013.027.019.03.022.06.043.09.064h-5.631ZM57.927,36.2c0,.204-.072.368-.175.492-.103.124-.237.208-.36.252l-1.143.408-.166,1.202c-.217,1.572-.518,3.128-.896,4.625l-.348,1.376,1.184.783c.061.04.125.096.181.165.17.205.281.521.101.867l-4.368,8.4c-.138.266-.41.431-.71.431h-2.138l-.567.501c-1.692,1.494-4.419,2.29-5.445,2.299h-.007c-.736,0-2.256-.195-4.207-1.478l-.079-.055-.097-.067-.064-.046-.055-.039-.047-.038c-.049-.04-.098-.08-.148-.119l-.04-.031c-.143-.11-.287-.22-.451-.36-.004-.004-.008-.008-.012-.011l-.041-.037c-.005-.005-.047-.042-.052-.047-.235-.209-.483-.45-.759-.736l-.114-.12c-.508-.539-1.003-1.146-1.472-1.805-.071-.1-.117-.158-.117-.158-.389-.492-.98-.769-1.586-.769-.216,0-.434.035-.645.108l-6.327,2.187-1.807.625c-1.759.608-3.597.917-5.463.917-.981,0-1.965-.087-2.907-.256-.741-.14-1.639-.316-1.9-.376-.191-.06-.392-.091-.596-.091h-1.133c-.188-.026-.319-.063-.381-.089-.312-.447-.84-1.211-1.455-2.231l-2.011-3.867c-.332-.75-.647-1.558-.941-2.405l3.065,1.483c.038.019.078.036.117.052,1.29.525,2.644.791,4.025.791.817,0,1.637-.095,2.438-.282l11.924-2.784c.523-.124.973-.454,1.251-.914.277-.46.358-1.013.223-1.533l-.035-.129-.09-.36c-.108-.441-.211-.887-.306-1.339l-.029-.133-.023-.105c-.107-.522-.204-1.053-.293-1.59l-.035-.225-.023-.152c-.021-.135-.04-.273-.059-.41l-.034-.245c-.079-.555-.392-1.051-.855-1.368-.335-.229-.731-.349-1.132-.349-.153,0-.306.017-.457.053l-12.075,2.819c-.128.03-.258.045-.386.045-.217,0-.43-.042-.635-.126-.032-.013-.064-.025-.096-.036l-8.105-2.827c-.149-.053-.28-.151-.379-.282-.104-.138-.157-.294-.157-.462v-8.4c0-.015.001-.237.062-.422l5.673,2.095c1.029.365,2.104.551,3.195.551.6,0,1.198-.057,1.747-.164l11.714-2.102c.594-.057,1.604-.403,1.821-2.052.088-.663.169-1.207.251-1.686.002-.013.007-.037.009-.05.085-.495.189-1.031.319-1.639l.083-.381c.06-.272.127-.538.193-.804l.039-.158c.163-.658-.021-1.353-.484-1.848-.382-.407-.914-.633-1.462-.633-.118,0-.236.01-.354.032l-13.782,2.473c-.033.007-.068.01-.101.01-.059,0-.116-.01-.175-.031l-6.855-2.433c-.183-.183-.373-.527-.165-.927l4.368-8.4c.138-.266.41-.431.71-.431h.693l3.636,2.318c.041.029.087.062.145.101,1.039.686,2.241,1.049,3.477,1.049.347,0,.699-.029,1.048-.087l5.095-.54,7.897-.838c.524-.057,1.005-.318,1.337-.728.467-.576.932-1.081,1.392-1.513l.152-.139c.049-.04.098-.08.171-.145.21-.185.409-.36.596-.505.015-.011.031-.022.043-.032.2-.151.402-.294.609-.428l.061-.037.106-.065c.155-.097.31-.19.468-.276.049-.027.099-.052.148-.077l.065-.033c.141-.072.282-.14.425-.203l.066-.028.057-.024.111-.047c.135-.055.271-.104.409-.151.081-.027.161-.055.242-.079.136-.041.272-.075.41-.107l.097-.023c.047-.011.093-.023.14-.032.146-.029.292-.049.439-.068l.146-.021.062-.009c.223-.022.424-.031.617-.033h.009s.048,0,.048,0c.127,0,.253.012.38.02.107.006.213.008.319.02.124.014.247.038.371.058.104.017.209.03.313.052.125.027.25.065.374.099.102.028.204.05.305.083.127.041.253.093.379.141.099.038.197.07.296.112.129.055.258.123.386.186.094.046.189.087.283.137.136.073.27.158.405.24.086.052.172.098.257.153.155.101.308.214.462.326.064.047.129.088.193.137.217.166.434.344.649.534l.567.501h2.138c.15,0,.293.041.415.116.123.075.225.182.294.315l4.368,8.4c.24.461-.038.87-.283,1.032l-1.184.783.348,1.376h0c.004.016.007.032.011.048.372,1.482.671,3.021.88,4.527h0s0,.001,0,.002l.005.047.004.031.159,1.165,1.095.428c.237.093.515.34.515.731v8.4Z"/><polygon class="cls-1" points="36.556 57.265 36.556 57.266 36.556 57.265 36.556 57.265"/><path class="cls-1" d="M39.562,4.793h0c.054-.023.108-.045.161-.068-.054.022-.108.044-.161.068Z"/><path class="cls-1" d="M37.395,57.936c.039.029.079.056.118.085h0c-.039-.028-.079-.056-.119-.085Z"/><path class="cls-1" d="M42.351,4.044c-.09.009-.179.025-.269.037,0,0-.001,0-.002,0,.09-.012.18-.028.27-.037h0Z"/><path class="cls-1" d="M37.277,6.149s-.008.006-.013.009c.005-.004.01-.007.015-.011,0,0-.002.001-.002.002Z"/><polygon class="cls-1" points="31.998 60 31.998 59.975 31.927 60 31.998 60"/><path class="cls-1" d="M44.317,47.336c-1.659,0-3.21-1.008-4.486-2.915-.793-1.187-1.457-2.694-1.972-4.479-.69-2.392-1.055-5.139-1.055-7.943,0-2.276.236-4.48.701-6.553.373-1.663.88-3.151,1.507-4.423,1.386-2.812,3.27-4.36,5.304-4.36s3.917,1.548,5.303,4.36c.628,1.273,1.135,2.762,1.508,4.424h0c.465,2.075.701,4.279.701,6.553,0,2.804-.365,5.55-1.055,7.943-.515,1.785-1.178,3.292-1.972,4.478-1.274,1.907-2.826,2.915-4.485,2.915ZM44.317,18.664c-1.214,0-2.493,1.183-3.51,3.245-.557,1.13-1.011,2.468-1.35,3.977-.433,1.929-.652,3.986-.652,6.115,0,2.62.338,5.175.977,7.389.451,1.564,1.043,2.92,1.712,3.921.618.924,1.61,2.026,2.823,2.026s2.205-1.102,2.823-2.026c.669-1.001,1.262-2.357,1.712-3.921.639-2.215.977-4.771.977-7.389,0-2.126-.22-4.184-.652-6.115-.338-1.507-.793-2.845-1.351-3.977-1.017-2.062-2.296-3.245-3.509-3.245Z"/><path class="cls-1" d="M43.71,26.946c.059,0,.192.056.37.215.727.646,1.509,2.435,1.509,4.839,0,3.316-1.396,5.054-1.88,5.054s-1.88-1.738-1.88-5.054c0-2.404.782-4.193,1.509-4.839.178-.159.311-.215.37-.215M43.71,24.946c-.61,0-1.185.263-1.699.719-1.29,1.146-2.181,3.548-2.181,6.334,0,3.896,1.737,7.054,3.88,7.054s3.88-3.158,3.88-7.054c0-2.786-.891-5.188-2.181-6.334-.514-.456-1.089-.719-1.699-.719h0Z"/></svg>