<?xml version="1.0" encoding="UTF-8"?><svg id="Icons" xmlns="http://www.w3.org/2000/svg" viewBox="0 0 64 64"><defs><style>.cls-1{fill:#fff;}</style></defs><path class="cls-1" d="M39.164,35.168c-.658.707-1.585,1.113-2.543,1.113s-1.885-.405-2.543-1.113l-.29-.312-.101-.108-.084-.122c-2.452-3.569-5.221-6.94-8.231-10.021l-.569-.618v-.01c-.481-.532-.906-1.097-1.288-1.682,1.24,12.186,1.102,25.079-.401,37.389,4.127-1.383,9.467-2.827,15.179-4.321.061-1.025.126-2.069.194-3.15.337-5.323.71-11.266.681-17.048l-.004.004Z"/><path class="cls-1" d="M36.597,4c-7.257,0-13.141,5.15-13.141,11.503,0,2.946,1.266,5.634,3.347,7.669v.035c3.092,3.165,5.921,6.607,8.449,10.286l.29.312c.59.634,1.569.634,2.159,0l.007-.007c2.578-3.791,5.475-7.333,8.649-10.583v-.01c2.101-2.039,3.38-4.74,3.38-7.702,0-6.353-5.883-11.503-13.141-11.503ZM36.597,21.474c-2.978,0-5.391-2.414-5.391-5.391s2.414-5.391,5.391-5.391,5.391,2.414,5.391,5.391-2.414,5.391-5.391,5.391Z"/><path class="cls-1" d="M21.49,22.097c-2.223-.629-4.385-1.257-6.458-1.885,0,0,0,0,0,0-.592-.195-1.216-.389-1.827-.584-1.658-.528-3.362-1.056-5.167-1.583-.048-.014-.092-.013-.139-.024-.592-.139-1.142-.092-1.582.118-.792.377-1.242,1.238-.999,2.288h0c.571,2.716,1.011,5.452,1.329,8.199l.002-.008s0,.019,0,.024c.342,2.962.523,5.936.57,8.913.079,5.059-.25,10.124-1.023,15.139-.172,1.097.268,2.066,1.149,2.396,2.959,1.116,6.158,2.229,9.657,3.339,1.32.419,2.693.836,4.103,1.254,1.529-12.37,1.666-25.348.388-37.585Z"/><path class="cls-1" d="M56.581,22.281c-1.929-.548-3.938-1.096-5.99-1.643-.557,1.208-1.298,2.348-2.234,3.375v.016l-.569.583c-2.39,2.447-4.622,5.079-6.669,7.845.197,6.681-.243,13.693-.635,19.881-.066,1.041-.128,2.048-.188,3.038,4.147,1.348,8.573,2.692,13.453,4.03,1.714.517,3.174-.678,2.859-2.373-1.109-10.655-1.098-21.614,1.181-32.351.173-1.105-.296-2.077-1.208-2.402Z"/></svg>