<?xml version="1.0" encoding="UTF-8"?><svg id="Icons" xmlns="http://www.w3.org/2000/svg" viewBox="0 0 64 64"><defs><style>.cls-1{fill:#024d4c;}.cls-2{fill:#fff;}.cls-3{fill:#06a59a;}.cls-4{fill:#04e1cb;}</style></defs><path class="cls-4" d="M7.898,18.021c-.592-.139-1.142-.092-1.582.118.44-.209.99-.257,1.582-.118Z"/><path class="cls-4" d="M37.074,17.274c.006.027.012.053.018.08.039-.016.079-.032.117-.048-.046-.011-.09-.021-.135-.032Z"/><path class="cls-4" d="M56.581,22.281c-5.643-1.605-11.77-3.203-18.593-4.794,3.526,10.917,2.087,25.758,1.422,37.582-.012.003-.024.006-.036.009,4.407,1.448,9.137,2.89,14.375,4.327,1.714.517,3.174-.678,2.859-2.373-1.109-10.655-1.098-21.614,1.181-32.351.173-1.105-.296-2.077-1.208-2.402Z"/><path class="cls-3" d="M37.092,17.354c-3.854,1.599-9.068,3.278-14.627,5.022.03.008.058.017.088.025,1.323,12.502,1.195,25.12-.381,37.6,4.484-1.566,10.644-3.211,17.201-4.921-.421-.138-.857-.276-1.272-.415,2.257-12.354,1.92-25.061-1.009-37.311Z"/><polygon class="cls-3" points="22.172 60 22.172 60 22.172 60 22.172 60"/><path class="cls-3" d="M37.852,17.04c-.203.088-.431.177-.642.265.262.061.517.121.778.182-.048-.147-.086-.302-.135-.447Z"/><path class="cls-3" d="M37.987,17.487c-.26-.061-.515-.121-.778-.182-.039.016-.078.032-.117.048,2.929,12.249,3.266,24.956,1.009,37.311.415.138.851.277,1.272.415.012-.003.024-.006.036-.009.665-11.825,2.105-26.665-1.422-37.582Z"/><polygon class="cls-4" points="22.172 60 22.172 60 22.172 60 22.172 60 22.172 60"/><path class="cls-4" d="M6.316,18.139c-.793.377-1.242,1.237-.999,2.288h0s0,0,0,0c-.243-1.051.206-1.911.999-2.288Z"/><path class="cls-4" d="M13.205,19.628c-1.658-.528-3.362-1.056-5.167-1.583-.048-.014-.092-.013-.139-.024.047.011.091.01.139.024,1.805.527,3.509,1.055,5.167,1.583Z"/><polygon class="cls-4" points="22.171 59.999 22.172 60 22.172 60 22.171 59.999"/><polygon class="cls-4" points="22.172 60 22.172 60 22.172 59.999 22.172 60"/><path class="cls-4" d="M22.172,60h0q-.334-1.391,0-.001s0,0,0,.001Z"/><path class="cls-4" d="M22.172,60s0,0,0,0h0c1.577-12.48,1.704-25.098.381-37.6-.03-.008-.058-.017-.088-.025-2.577-.721-5.055-1.442-7.434-2.163,0,0,0,0,0,0-.592-.195-1.216-.389-1.827-.584-1.658-.528-3.362-1.056-5.167-1.583-.048-.014-.092-.013-.139-.024-.592-.139-1.142-.092-1.582.118-.792.377-1.242,1.238-.999,2.288h0c.571,2.716,1.011,5.452,1.329,8.199l.002-.008s0,.019,0,.024c.342,2.962.523,5.936.569,8.913.391,2.952,1.049,6.302,2.143,9.532.187.552.385,1.099.599,1.64.504,1.28,1.086,2.521,1.754,3.695.661,1.163,1.411,2.253,2.255,3.243.896,1.051,1.903,1.983,3.032,2.762,1.655.525,3.371,1.049,5.173,1.572,0,0,0,0-.001,0,0,0,0,0,.001,0,0,0,0,0,0-.001"/><path class="cls-3" d="M6.646,28.626c0,.005,0,.01.001.015,0-.005,0-.024,0-.024l-.002.008Z"/><path class="cls-3" d="M13.968,55.666c-1.224-.599-2.471-1.199-3.756-1.799-.067-.979-.11-1.96-.158-2.94-.197-.183-.4-.366-.593-.549-.027-1.095-.061-2.193-.101-3.291-1.094-3.23-1.751-6.58-2.143-9.532.079,5.059-.25,10.124-1.023,15.139-.172,1.097.268,2.066,1.149,2.396,2.96,1.116,6.158,2.229,9.657,3.339-1.128-.779-2.135-1.711-3.032-2.762Z"/><path class="cls-3" d="M9.36,47.086c.04,1.098.074,2.196.101,3.291.194.183.396.366.593.549-.036-.733-.071-1.466-.096-2.2-.213-.542-.412-1.089-.599-1.64Z"/><path class="cls-3" d="M10.054,50.927c.048.98.091,1.961.158,2.94,1.285.6,2.532,1.199,3.756,1.799-.845-.991-1.594-2.081-2.255-3.243-.569-.498-1.121-.997-1.658-1.496Z"/><path class="cls-3" d="M9.958,48.727c.025.734.06,1.467.096,2.2.537.499,1.089.998,1.658,1.496-.668-1.174-1.25-2.415-1.754-3.695Z"/><path class="cls-1" d="M36.597,4c7.257,0,13.141,5.15,13.141,11.503,0,2.962-1.279,5.663-3.381,7.702v.01c-3.174,3.25-6.071,6.792-8.649,10.583l-.007.007c-.59.634-1.569.634-2.159,0l-.29-.312c-2.528-3.679-5.357-7.121-8.449-10.286v-.035c-2.081-2.035-3.347-4.723-3.347-7.669,0-6.353,5.883-11.503,13.141-11.503Z"/><path class="cls-2" d="M38.715,7.256c3.15-.628,6.215,1.426,6.846,4.589.118.592-.61.789-.985.316-1.513-1.907-3.548-3.336-5.84-4.108-.423-.143-.458-.71-.021-.797Z"/><circle class="cls-4" cx="36.597" cy="16.083" r="5.391"/><path class="cls-2" d="M54.778,25.385c.473.718-.437,2.908-.644,3.999-.468,2.469-.208,4.928-.809,5.292-.471.285-1.304-.658-1.452-2.542-.094-1.184.324-2.422.223-3.515-.115-1.251-.81-2.316-2.052-2.976s-1.248-2.693,0-1.944c2.024,1.216,4.26.968,4.733,1.686Z"/></svg>