<?xml version="1.0" encoding="UTF-8"?><svg id="Icons" xmlns="http://www.w3.org/2000/svg" viewBox="0 0 64 64"><defs><style>.cls-1{fill:#0d9dda;}</style></defs><path class="cls-1" d="M31.348,4c-14.955,0-27.078,12.123-27.078,27.078s12.123,27.078,27.078,27.078,27.078-12.123,27.078-27.078S46.302,4,31.348,4ZM42.98,42.917c-.2-1.333-1.04-2.446-2.205-3.025.3-2.464.474-5.021.515-7.565h14.603c-.235,4.676-1.786,9.01-4.286,12.643-2.18-.736-5.131-1.481-8.628-2.054ZM31.348,55.518c-2.243,0-4.654-4.24-6.108-10.926,1.64-.119,3.357-.192,5.141-.192,1.606,0,3.17.053,4.682.146.269,1.028.924,1.891,1.808,2.431-1.467,5.293-3.559,8.542-5.523,8.542ZM31.348,6.777c1.938,0,4,3.165,5.463,8.334-.879.557-1.524,1.438-1.773,2.479-1.536.106-3.096.167-4.657.167-1.773,0-3.481-.072-5.112-.19,1.457-6.607,3.851-10.79,6.079-10.79ZM30.381,20.256c1.629,0,3.251-.062,4.844-.171.523,1.265,1.666,2.2,3.051,2.443.286,2.27.467,4.718.513,7.299h-12.298c-.39-1.197-1.309-2.143-2.492-2.564.139-2.588.414-5.012.791-7.227,1.778.136,3.647.219,5.592.219ZM21.502,27.198c-1.283.378-2.292,1.362-2.704,2.63H6.802c.225-4.471,1.656-8.627,3.965-12.159,2.413.652,6.483,1.589,11.525,2.139-.389,2.369-.654,4.867-.789,7.391ZM18.797,32.327c.412,1.265,1.417,2.248,2.697,2.628.13,2.524.39,5.024.774,7.396-5.031.55-9.092,1.485-11.502,2.136-2.309-3.532-3.74-7.689-3.965-12.16h11.996ZM23.991,34.894c1.187-.419,2.109-1.367,2.5-2.567h12.3c-.041,2.541-.212,4.953-.486,7.196-1.426.239-2.594,1.214-3.105,2.527-1.558-.096-3.167-.151-4.818-.151-1.954,0-3.83.084-5.616.221-.371-2.217-.64-4.641-.774-7.227ZM41.288,29.827c-.046-2.575-.229-5.161-.541-7.65,1.169-.569,2.018-1.674,2.229-3.002,3.373-.558,6.359-1.264,8.656-1.956,2.485,3.626,4.026,7.947,4.261,12.608h-14.606ZM49.992,15.091c-2.017.562-4.562,1.135-7.41,1.606-.633-1.236-1.87-2.097-3.329-2.196-.87-3.123-2.011-5.765-3.411-7.582,5.618,1.043,10.569,4.001,14.15,8.172ZM26.854,6.919c-1.808,2.346-3.184,6.071-4.102,10.424-4.364-.464-7.98-1.232-10.398-1.844,3.605-4.387,8.699-7.503,14.5-8.58ZM12.353,46.657c2.413-.611,6.019-1.377,10.37-1.841.897,4.312,2.241,8.02,4.007,10.399-5.75-1.098-10.797-4.201-14.377-8.557ZM35.965,55.214c1.381-1.86,2.505-4.529,3.358-7.668,1.42-.122,2.621-.963,3.247-2.167,2.924.478,5.44,1.081,7.416,1.693-3.555,4.136-8.456,7.079-14.02,8.142Z"/></svg>