<?xml version="1.0" encoding="UTF-8"?><svg id="Icons" xmlns="http://www.w3.org/2000/svg" viewBox="0 0 64 64"><defs><style>.cls-1{fill:#001e5b;}.cls-2{fill:#fff;}.cls-3{fill:#eaf5fe;}.cls-4{fill:#05628a;}.cls-5{fill:#05628a;}.cls-6{fill:#0d9dda;}</style></defs><path class="cls-6" d="M53.646,48.25c-.016-.05-.033-.103-.05-.153-.015-.042-.024-.069-.024-.069l.003.003c-.79-2.4-1.646-5.23-2.331-8.091-.563-2.354-1.005-4.717-1.201-6.87-.007-.077-.019-.158-.026-.234-.302-3.621-.706-13.187-2.797-17.689-1.249-2.69-3.529-6.398-15.217-6.398-11.325,0-13.968,3.708-15.217,6.398-2.091,4.503-2.495,14.068-2.797,17.689-.006.076-.019.157-.026.234-.196,2.153-.638,4.516-1.201,6.87-.686,2.862-1.542,5.694-2.332,8.094l.005-.005s-1.761,4.691,1.49,6.292h0c4.224,2.306,12.323,5.681,20.079,5.681,7.71,0,15.831-3.378,20.07-5.685,2.827-1.394,1.87-5.122,1.574-6.066Z"/><path class="cls-3" d="M31.838,49.343c-.967,0-5.895-.252-7.914-5.007-.918-2.163-1.022-3.684-1.022-6.895,0-2.029.224-3.723.638-5.129.31-1.055.728-1.948,1.24-2.694.767-1.12,1.8-1.818,2.864-2.401,2.178-1.193,6.553-1.269,8.714,0,1.044.614,2.097,1.281,2.864,2.401.512.746.93,1.64,1.24,2.694.414,1.406.638,3.1.638,5.129,0,3.211-.023,4.768-1.022,6.895-2.355,5.016-6.947,5.007-7.914,5.007h-.328Z"/><path class="cls-6" d="M47.354,11.533c1.162,0,2.229-.41,3.064-1.091.168-.493.263-1.019.263-1.569,0-2.691-2.182-4.873-4.873-4.873-1.148,0-2.201.399-3.033,1.063-.178.505-.275,1.049-.275,1.615,0,2.681,2.173,4.854,4.855,4.854Z"/><path class="cls-4" d="M50.419,10.442c-.836.682-1.902,1.091-3.064,1.091-2.681,0-4.855-2.173-4.855-4.854,0-.566.097-1.11.275-1.615,0,0,0,0,0,0-.001,0-.002.002-.003.003-.416.333-.776.732-1.065,1.182-.005.007-.009.015-.013.022-.088.14-.17.284-.244.433-.009.017-.017.035-.025.053-.069.143-.131.289-.186.439-.007.019-.014.037-.021.056-.056.157-.103.318-.143.482-.002.01-.005.02-.008.03-.048.205-.073.417-.094.631-.004.048-.011.096-.014.144-.008.112-.019.222-.019.336,0,2.691,2.181,4.872,4.872,4.873,0,0,0,0,.001,0,.002,0,.003,0,.005,0,.236,0,.465-.023.692-.056.054-.008.108-.015.162-.025.083-.015.161-.041.243-.06.13-.03.263-.055.389-.096.048-.016.095-.035.142-.052.17-.06.334-.13.495-.208.05-.025.102-.047.151-.073.179-.095.351-.203.516-.319.057-.04.112-.082.167-.125.136-.104.266-.215.39-.333.051-.048.1-.096.149-.146.121-.125.233-.257.34-.394.048-.061.095-.123.14-.187.111-.158.215-.321.307-.491.034-.063.062-.129.094-.194.065-.133.123-.27.175-.41.018-.049.045-.094.062-.144-.004.003-.008.005-.012.008Z"/><path class="cls-6" d="M19.738,11.533c1.162,0,2.229-.41,3.064-1.091.168-.493.263-1.019.263-1.569,0-2.691-2.182-4.873-4.873-4.873-1.148,0-2.201.399-3.033,1.063-.178.505-.275,1.049-.275,1.615,0,2.681,2.173,4.854,4.855,4.854Z"/><path class="cls-4" d="M22.803,10.442c-.836.682-1.902,1.091-3.064,1.091-2.681,0-4.855-2.173-4.855-4.854,0-.566.097-1.11.275-1.615,0,0,0,0,0,0-.001,0-.002.002-.003.003-.416.333-.776.732-1.065,1.182-.005.007-.009.015-.013.022-.088.14-.17.284-.244.433-.009.017-.017.035-.025.053-.069.143-.131.289-.186.439-.007.019-.014.037-.021.056-.056.157-.103.318-.143.482-.002.01-.005.02-.008.03-.048.205-.073.417-.094.631-.004.048-.011.096-.014.144-.008.112-.019.222-.019.336,0,2.691,2.181,4.872,4.872,4.873,0,0,0,0,.001,0,.002,0,.003,0,.005,0,.236,0,.465-.023.692-.056.054-.008.108-.015.162-.025.083-.015.161-.041.243-.06.13-.03.263-.055.389-.096.048-.016.095-.035.142-.052.17-.06.334-.13.495-.208.05-.025.102-.047.151-.073.179-.095.351-.203.516-.319.057-.04.112-.082.167-.125.136-.104.266-.215.39-.333.051-.048.1-.096.149-.146.121-.125.233-.257.34-.394.048-.061.095-.123.14-.187.111-.158.215-.321.307-.491.034-.063.062-.129.094-.194.065-.133.123-.27.175-.41.018-.049.045-.094.062-.144-.004.003-.008.005-.012.008Z"/><path class="cls-1" d="M46.128,17.532c-.332-.206-.675-.412-1.03-.561-2.907-1.19-5.895-1.156-8.871-.355-1.419.378-2.827.664-4.247.675-1.419,0-2.827-.298-4.247-.675-2.976-.801-5.964-.836-8.871.355-.366.149-.71.343-1.03.561-.63.401-.916.927-.767,1.728.275,1.488.446,3.011.721,4.499.275,1.477,1.259,2.484,2.747,2.621,2.038.195,4.075.298,6.124.332,1.637.034,2.805-.71,3.274-2.381.435-1.534.881-3.068,1.385-4.59.103-.32.446-.561.687-.836.229.275.584.515.687.836.504,1.522.95,3.056,1.385,4.59.469,1.671,1.637,2.415,3.274,2.381,2.038-.034,4.087-.137,6.124-.332,1.488-.137,2.484-1.156,2.747-2.621.275-1.5.446-3.011.721-4.499.149-.79-.149-1.328-.767-1.728h-.046Z"/><path class="cls-1" d="M36.827,41.296c-.629-.536-1.577-.461-2.114.17-.267.314-.69.546-1.21.699v-5.938c.807-.284,1.565-.794,2.193-1.524.297-.345.523-.689.677-1.031.154-.342.235-.684.235-1.017.001-.404-.123-.79-.351-1.118-.171-.247-.398-.462-.669-.646-.407-.276-.915-.482-1.513-.623-.598-.14-1.288-.214-2.063-.214-.694,0-1.32.059-1.874.172-.831.17-1.503.458-1.988.872-.242.207-.436.447-.569.715-.133.268-.202.564-.201.87,0,.328.078.665.226,1.002.148.337.367.676.654,1.016.5.592,1.087,1.042,1.719,1.342.17.081.349.123.525.182v5.942c-.519-.153-.942-.385-1.209-.699-.538-.631-1.484-.707-2.114-.17-.631.537-.707,1.483-.17,2.114,1.075,1.262,2.833,1.956,4.941,1.956.03,0,.06,0,.092,0,2.122,0,3.881-.694,4.955-1.956.537-.631.461-1.577-.17-2.114Z"/><path class="cls-2" d="M45.271,5.454c1.653-.404,3.323.614,3.728,2.274.057.233.086.466.089.696.005.388-.482.431-.694.106-.751-1.146-1.891-1.972-3.187-2.335-.373-.104-.481-.58-.11-.694.057-.018.115-.033.174-.048Z"/><path class="cls-2" d="M38.832,11.953c-1.276-1.44-5.736-1.757-9.309-1.231l-.417.065c-.593.1-.881.325-.856.671.019.269.246.594,1.21.613,3.077.062,5.754.492,7.58,1.224.419.116.786.174,1.092.174.358,0,.635-.079.818-.236.166-.142.248-.344.224-.553-.029-.257-.144-.501-.343-.727Z"/><path class="cls-2" d="M53.597,48.096c-.007-.022-.015-.045-.022-.067l-.003-.003s.01.027.024.069Z"/><path class="cls-5" d="M10.434,48.027s-1.761,4.691,1.49,6.292h0c4.192,2.288,12.202,5.628,19.904,5.678-21.452-6.58-13.76-15.837-17.358-33.327-.235,2.515-.367,4.777-.482,6.165-.006.076-.019.157-.026.234-.196,2.153-.638,4.516-1.202,6.87-.686,2.865-1.543,5.699-2.334,8.101,0-.002.002-.004.002-.007l.005-.005Z"/><path class="cls-2" d="M10.047,49.174c.125-.367.25-.742.38-1.135-.129.391-.255.769-.38,1.135Z"/></svg>