<?xml version="1.0" encoding="UTF-8"?><svg id="Icons" xmlns="http://www.w3.org/2000/svg" viewBox="0 0 64 64"><defs><style>.cls-1{fill:#001e5b;}</style></defs><path class="cls-1" d="M55.666,20.489c1.287,0,2.334,1.018,2.334,2.268v28.137c0,.782-.637,1.419-1.419,1.419-.082,0-.167-.007-.25-.022-8.022-1.393-16.251-2.099-24.459-2.099s-16.451.707-24.48,2.103c-.069.012-.14.018-.208.018-.653,0-1.184-.531-1.184-1.184v-28.33c0-1.251,1.047-2.268,2.333-2.268.13,0,.262.011.393.032,7.598,1.246,15.385,1.877,23.146,1.877,7.847,0,15.719-.646,23.398-1.919.132-.022.265-.033.396-.033M55.666,18.489c-.238,0-.48.019-.724.06-7.505,1.245-15.212,1.892-23.071,1.892-7.772,0-15.396-.633-22.823-1.851-.241-.039-.48-.059-.716-.059-2.329,0-4.333,1.858-4.333,4.268v28.33c0,1.758,1.425,3.184,3.184,3.184.185,0,.369-.016.551-.048,7.841-1.363,15.906-2.073,24.137-2.073s16.282.709,24.117,2.07c.196.034.394.051.592.051,1.888,0,3.419-1.531,3.419-3.419v-28.137c0-2.41-2.005-4.268-4.334-4.268h0Z"/><path class="cls-1" d="M46.174,39.38h-28.413c-1.381,0-2.5-1.119-2.5-2.5s1.119-2.5,2.5-2.5h28.413c1.381,0,2.5,1.119,2.5,2.5s-1.119,2.5-2.5,2.5Z"/><path class="cls-1" d="M51.829,16.014v-4.399c0-1.116-.954-1.995-2.073-1.923-5.054.329-15.152.497-20.289.497s-10.235-.168-15.289-.497c-1.119-.073-2.073.807-2.073,1.923v4.426c13.082,1.864,26.636,1.855,39.724-.027Z"/></svg>