<?xml version="1.0" encoding="UTF-8"?><svg id="Icons" xmlns="http://www.w3.org/2000/svg" viewBox="0 0 64 64"><defs><style>.cls-1{fill:#001e5b;}</style></defs><path class="cls-1" d="M48.638,20.75c-.223,0-.449.013-.676.038-5.245.593-10.577.898-15.98.898-5.031,0-9.998-.275-14.893-.79,1.658.175,3.325.337,5,.453v-2.437c0-5.465,4.446-9.912,9.912-9.912s9.912,4.446,9.912,9.912v2.432c1.613.666,3.299.352,5-.452v-1.98c0-8.235-6.676-14.912-14.912-14.912s-14.912,6.676-14.912,14.912v1.984c-.35-.037-.703-.064-1.053-.104-.227-.026-.452-.038-.674-.038-3.162,0-5.867,2.511-5.867,5.747v27.753c0,3.236,2.705,5.746,5.867,5.746.223,0,.449-.013.676-.038,5.245-.593,10.577-.898,15.98-.898s10.713.304,15.947.894c.227.026.452.038.674.038,3.162,0,5.867-2.511,5.867-5.747v-27.753c0-3.236-2.705-5.747-5.867-5.746ZM52.505,54.249c0,2.066-1.734,3.747-3.867,3.747-.149,0-.301-.009-.45-.025-5.332-.602-10.772-.907-16.171-.907s-10.862.306-16.205.91c-.15.017-.302.026-.451.026-2.132,0-3.867-1.681-3.867-3.746v-27.753c0-2.066,1.734-3.747,3.867-3.747.149,0,.301.009.45.025,5.332.602,10.772.907,16.17.907s10.863-.306,16.205-.911c.15-.017.302-.026.452-.026,2.131,0,3.866,1.681,3.866,3.746v27.753Z"/><path class="cls-1" d="M30.152,49.324c-.015,0-.028,0-.043,0-.751-.013-1.456-.362-1.921-.952l-4.708-5.976c-.854-1.085-.668-2.657.417-3.511,1.084-.854,2.657-.667,3.511.417l2.812,3.569,8.918-10.557c.892-1.057,2.468-1.187,3.523-.296,1.055.891,1.188,2.468.297,3.523l-10.896,12.898c-.476.563-1.175.887-1.91.887Z"/></svg>