<?xml version="1.0" encoding="UTF-8"?><svg id="Icons" xmlns="http://www.w3.org/2000/svg" viewBox="0 0 64 64"><defs><style>.cls-1{fill:#fff;}</style></defs><path class="cls-1" d="M55.083,32.434v14.664c-1.248-.15-2.835-.232-4.519-.232-1.643,0-3.186.079-4.363.221v-14.64c1.202.142,2.733.22,4.363.22,1.685,0,3.271-.082,4.519-.232M55.403,30.39c-.078,0-.157.005-.236.016-1.248.173-2.93.26-4.603.26-1.629,0-3.25-.082-4.45-.247-.079-.011-.156-.016-.233-.016-.906,0-1.68.723-1.68,1.655v15.414c0,.932.774,1.655,1.68,1.655.077,0,.155-.005.233-.016,1.2-.164,2.82-.247,4.45-.247,1.672,0,3.355.087,4.603.26.08.011.158.016.236.016.906,0,1.68-.723,1.68-1.655v-15.441c0-.932-.774-1.655-1.68-1.655h0Z"/><circle class="cls-1" cx="50.642" cy="51.097" r="1.405"/><path class="cls-1" d="M59.824,26.996c-.762-.664-1.772-.967-2.777-.826-1.08.15-2.386.255-3.778.315v-13.416c0-2.12-1.763-3.755-3.812-3.755-.208,0-.42.017-.633.052-6.569,1.083-13.313,1.646-20.188,1.646s-13.62-.563-20.188-1.646c-.213-.035-.425-.052-.633-.052-2.049,0-3.812,1.635-3.812,3.755v29.494c0,2.12,1.763,3.755,3.812,3.755.208,0,.42-.017.633-.052,4.543-.749,9.175-1.231,13.871-1.469-.003.01-.01.018-.013.028-.701,2.517-2.013,4.924-3.851,7.174-.998,1.222.555,2.685,3.004,2.685h14.354c2.449,0,4.002-1.464,3.003-2.686-1.84-2.25-3.154-4.657-3.858-7.174-.002-.009-.009-.018-.012-.027,1.721.087,3.43.22,5.132.376v7.058c0,.983.428,1.92,1.173,2.57.761.663,1.776.968,2.773.828,3.517-.481,9.479-.473,13.025.02.16.022.321.033.48.033.84,0,1.656-.302,2.296-.859.747-.65,1.176-1.588,1.176-2.572v-22.683c0-.984-.429-1.922-1.176-2.572ZM40.076,43.168c-1.665-.151-3.339-.282-5.031-.367-.034-.002-.068-.003-.101-.003-.617,0-1.201.285-1.581.775-.401.517-.523,1.197-.329,1.821.007.023.015.047.024.071.702,2.457,1.931,4.843,3.659,7.107-.229.064-.529.113-.907.113h-14.354c-.377,0-.679-.05-.907-.114,1.726-2.264,2.952-4.649,3.651-7.104.01-.029.02-.057.028-.085.19-.623.065-1.301-.335-1.815-.38-.487-.962-.77-1.577-.77-.033,0-.067,0-.101.003-4.826.244-9.568.746-14.096,1.493-.102.017-.206.025-.308.025-1,0-1.812-.787-1.812-1.755V13.07c0-.467.188-.906.528-1.235.342-.331.81-.52,1.285-.52.102,0,.206.009.308.025,6.733,1.11,13.635,1.673,20.514,1.673s13.781-.563,20.514-1.673c.103-.017.206-.025.308-.025,1,0,1.812.787,1.812,1.755v13.47c-1.482.018-2.985-.011-4.365-.089v-6.402c0-.989-.426-1.937-1.168-2.597-.751-.669-1.759-.98-2.757-.868-9.438,1.102-19.201,1.102-28.637,0-.996-.112-2.007.199-2.758.868-.742.661-1.168,1.607-1.168,2.597v15.534c0,.989.425,1.935,1.167,2.595.751.669,1.755.987,2.759.87,1.982-.231,3.979-.408,5.983-.541,1.256-.053,4.345-.183,6.352-.254,4.478-.065,8.966.105,13.4.514v4.4ZM26.538,30.545c-1.18-.669-1.913-1.922-1.913-3.271,0-2.079,1.691-3.77,3.77-3.77s3.77,1.691,3.77,3.77c0,1.349-.733,2.603-1.912,3.272-.694.393-1.087,1.161-1.002,1.954.085.793.633,1.459,1.395,1.696.483.15.934.337,1.329.548.017.01.033.019.05.029.637.346,1.201.869,1.689,1.562-1.146-.049-2.292-.079-3.437-.095-.812-.02-1.492-.034-1.855-.034h-.115c-.256.003-.754.017-1.382.039-1.304.018-2.607.056-3.911.115.506-.695,1.088-1.226,1.746-1.584.015-.008.03-.017.045-.025.406-.218.856-.404,1.339-.554.762-.236,1.31-.903,1.396-1.696.085-.793-.308-1.561-1.002-1.954ZM40.076,29.588v7.169c-1.321-.121-2.648-.216-3.976-.297-.82-1.638-1.884-2.774-3.119-3.445.001,0,.003-.001.004-.002-.015-.008-.031-.014-.046-.022-.539-.289-1.109-.522-1.7-.706,1.746-.99,2.926-2.86,2.926-5.011,0-3.187-2.583-5.77-5.77-5.77s-5.77,2.583-5.77,5.77c0,2.151,1.18,4.021,2.926,5.011-.592.184-1.163.417-1.701.706-.015.008-.031.013-.046.022l-.002.005c-1.265.689-2.353,1.818-3.203,3.467-2.175.139-4.344.326-6.49.577-.44.05-.872-.088-1.197-.377-.32-.285-.497-.677-.497-1.102v-15.534c0-.426.177-.816.497-1.103.325-.289.756-.428,1.196-.376,9.589,1.119,19.509,1.119,29.102,0,.441-.052.869.087,1.194.376.321.285.498.677.498,1.103v6.244c-.306-.032-.603-.066-.881-.104-1.002-.135-2.013.165-2.773.829-.745.65-1.173,1.587-1.173,2.57ZM59,52.251c0,.412-.174.79-.489,1.064-.325.284-.765.414-1.188.354-1.873-.261-4.394-.392-6.902-.392-2.438,0-4.863.124-6.669.371-.43.063-.862-.071-1.187-.354-.315-.274-.488-.652-.488-1.063v-22.644c0-.411.173-.789.488-1.063.326-.283.755-.41,1.187-.354,3.664.504,9.879.495,13.57-.02.43-.056.864.069,1.189.354.315.274.489.652.489,1.064v22.683Z"/></svg>