<?xml version="1.0" encoding="UTF-8"?><svg id="Icons" xmlns="http://www.w3.org/2000/svg" viewBox="0 0 64 64"><defs><style>.cls-1{fill:none;}.cls-2{fill:#003349;}.cls-3{fill:#001e5b;}.cls-4{fill:#fff;}.cls-5{fill:#05628a;}.cls-6{fill:#94ccee;}.cls-7{fill:#0d9dda;}</style></defs><path class="cls-7" d="M31.717,43.261c1.635,0,2.992.681,3.239,1.564.703,2.517,2.018,4.924,3.858,7.174,1,1.222-.554,2.686-3.003,2.686h-14.353c-2.448,0-4.002-1.463-3.004-2.685,1.838-2.251,3.15-4.657,3.851-7.174.246-.884,1.603-1.565,3.239-1.565h6.174Z"/><path class="cls-5" d="M34.956,44.825c-.247-.884-1.603-1.564-3.239-1.564h-6.132c-1.636,0-2.898.153-3.144,1.037-.047.171-.255.944-.327,1.161-.444,1.333-.952,2.47-1.663,3.683.002,0-.002,0,0,0,3.768-.928,10.182-1.524,15.485-1.67-.402-.867-.73-1.749-.981-2.646Z"/><path class="cls-6" d="M43.095,17.577c-4.735.553-9.552.837-14.435.837s-9.7-.284-14.435-.837c-1.486-.174-2.809.975-2.809,2.472v15.534c0,1.496,1.323,2.645,2.809,2.472,4.735-.553,9.551-.837,14.435-.837s9.7.284,14.435.837c1.486.174,2.809-.975,2.809-2.472v-15.534c0-1.496-1.323-2.645-2.809-2.472Z"/><path class="cls-2" d="M28.192,31.121c.13-.003.26-.002.39,0,2.116-.098,3.803-1.84,3.803-3.98,0-2.204-1.786-3.99-3.99-3.99s-3.99,1.786-3.99,3.99c0,2.135,1.678,3.873,3.787,3.98Z"/><path class="cls-3" d="M32.981,33.014s.003-.001.004-.002c-.015-.008-.031-.014-.046-.022-.94-.505-1.971-.859-3.062-1.028-.084-.013-.17-.02-.254-.031-.255-.032-.511-.058-.771-.07-.053-.003-.104-.012-.157-.014-.101-.003-.2.006-.301.006-.101,0-.199-.009-.301-.006-.053.002-.104.012-.157.014-.26.012-.516.037-.771.07-.085.011-.17.017-.254.031-1.091.169-2.121.523-3.062,1.028-.015.008-.031.013-.046.022l-.002.005c-2.898,1.578-4.912,4.6-5.024,8.136v-.094s19.232,0,19.232,0v-.404s0,.498,0,.498c-.112-3.539-2.129-6.562-5.03-8.14Z"/><path class="cls-3" d="M28.101,33.028c.188-.004.376-.003.565.001,3.06-.142,5.499-2.661,5.499-5.756,0-3.187-2.583-5.77-5.77-5.77s-5.77,2.583-5.77,5.77c0,3.087,2.427,5.601,5.476,5.755Z"/><path class="cls-7" d="M48.823,9.367c-6.569,1.083-13.313,1.646-20.189,1.646s-13.62-.563-20.189-1.646c-2.305-.38-4.446,1.367-4.446,3.703v29.494c0,2.336,2.141,4.083,4.446,3.703,6.569-1.083,13.313-1.647,20.189-1.647s13.62.564,20.189,1.647c2.305.38,4.446-1.367,4.446-3.703V13.07c0-2.336-2.141-4.083-4.446-3.703ZM45.904,35.583c0,1.496-1.323,2.645-2.809,2.472-4.735-.553-9.552-.837-14.435-.837s-9.7.284-14.435.837c-1.486.174-2.809-.975-2.809-2.472v-15.534c0-1.496,1.323-2.645,2.809-2.472,4.735.553,9.551.837,14.435.837s9.7-.284,14.435-.837c1.486-.174,2.809.975,2.809,2.472v15.534Z"/><path class="cls-4" d="M50.807,12.317c.055-.346-.096-.63-.312-.743-.159-.097-.369-.139-.587-.093-1.04.218-2.173.388-3.363.494-.476.043-.754.554-.407.884.226.215,2.425.124,2.77.722.274.475.325,2.125.36,2.715.006.15.016.298.03.444.002.022.004.043.007.063.089.809.312,1.536.639,2.115.317.561.838.25.863-.393.047-1.225-.12-5.451,0-6.208Z"/><path class="cls-1" d="M43.095,17.577c-4.735.553-9.552.837-14.435.837s-9.7-.284-14.435-.837c-1.486-.174-2.809.975-2.809,2.472v15.534c0,1.496,1.323,2.645,2.809,2.472,4.735-.553,9.551-.837,14.435-.837s9.7.284,14.435.837c1.486.174,2.809-.975,2.809-2.472v-15.534c0-1.496-1.323-2.645-2.809-2.472Z"/><path class="cls-1" d="M43.095,17.577c-4.735.553-9.552.837-14.435.837s-9.7-.284-14.435-.837c-1.486-.174-2.809.975-2.809,2.472v15.534c0,1.496,1.323,2.645,2.809,2.472,4.735-.553,9.551-.837,14.435-.837s9.7.284,14.435.837c1.486.174,2.809-.975,2.809-2.472v-15.534c0-1.496-1.323-2.645-2.809-2.472Z"/><path class="cls-3" d="M60,29.568c0-1.487-1.342-2.612-2.815-2.407-3.618.502-9.725.509-13.298.019-1.472-.202-2.811.923-2.811,2.408v22.643c0,1.485,1.339,2.61,2.811,2.408,3.573-.49,9.68-.483,13.298.019,1.473.204,2.815-.92,2.815-2.408v-22.683Z"/><path class="cls-5" d="M57.083,32.045c0-1.012-.914-1.778-1.916-1.639-2.463.342-6.62.347-9.053.013-1.002-.137-1.913.628-1.913,1.639v15.414c0,1.011.911,1.777,1.913,1.639,2.432-.333,6.589-.329,9.053.013,1.003.139,1.916-.627,1.916-1.639v-15.441Z"/><path class="cls-4" d="M55.547,32.994c.046-.291-.081-.53-.262-.624-.134-.081-.31-.117-.494-.078-.874.183-1.827.326-2.827.416-.4.036-.634.466-.342.743.19.181,2.039.104,2.329.607.231.399.274,1.786.302,2.282.005.126.013.251.026.373.002.019.004.036.006.053.074.68.262,1.291.537,1.779.266.472.705.21.726-.331.04-1.03-.101-4.583,0-5.219Z"/><circle class="cls-7" cx="50.538" cy="51.667" r="1.405"/></svg>