<?xml version="1.0" encoding="UTF-8"?><svg id="Icons" xmlns="http://www.w3.org/2000/svg" viewBox="0 0 64 64"><defs><style>.cls-1{fill:#7526e3;}.cls-2{fill:#fff;}.cls-3{fill:#5a1ba9;}</style></defs><path class="cls-1" d="M60,51.781c0,4.309-3.856,7.586-8.138,7.102-6.512-.735-13.132-1.112-19.841-1.112s-13.356.379-19.881,1.117c-4.282.484-8.14-2.792-8.14-7.102V12.219c0-4.309,3.856-7.586,8.138-7.102,6.512.735,13.131,1.112,19.839,1.112s13.357-.379,19.883-1.117c4.283-.484,8.14,2.792,8.14,7.102v39.567Z"/><path class="cls-3" d="M4.156,13.015c1.031,19.462,14.926,40.549,33.338,44.84-1.817-.056-3.641-.084-5.472-.084-6.723,0-13.357.379-19.882,1.117-4.282.484-8.14-2.792-8.14-7.102V14.495c0-.509.054-1.004.156-1.48Z"/><polygon class="cls-2" points="20.293 51.51 26.19 46.271 20.293 41.043 20.293 51.51"/><path class="cls-2" d="M41.583,30.285c-1.667-1.602-3.921-2.448-6.231-2.339-3.344.094-6.655.693-9.82,1.779v-14.865h-5.239v22.702l3.697-1.671c.065,0,6.026-2.706,11.351-2.706,2.663,0,3.234,1.466,3.234,2.695v15.631h5.282v-15.706c-.035-2.061-.847-4.032-2.275-5.519Z"/><path class="cls-2" d="M34.695,23.364h5.239c2.163-2.357,3.535-5.33,3.924-8.505h-5.239c-.629,3.102-1.972,6.014-3.924,8.505Z"/><path class="cls-2" d="M55.431,10.473c.073-.46-.126-.837-.412-.989-.213-.13-.494-.188-.787-.126-1.388.291-2.899.518-4.486.66-.635.057-1.006.74-.543,1.179.301.286.645.524,1.02.705.711.38,1.192.595,1.654,1.394.365.632.434,1.692.48,2.478.051,1.352.375,2.571.902,3.505.423.748,1.321.334,1.354-.525.063-1.635.194-3.368.397-5.159.121-1.069.263-2.113.423-3.123Z"/></svg>