<?xml version="1.0" encoding="UTF-8"?><svg id="Icons" xmlns="http://www.w3.org/2000/svg" viewBox="0 0 64 64"><defs><style>.cls-1{fill:#001e5b;}</style></defs><path class="cls-1" d="M52.702,7.064c2.921,0,5.298,2.31,5.298,5.15v39.567c0,2.84-2.377,5.15-5.299,5.15-.204,0-.411-.012-.615-.035-6.616-.747-13.367-1.125-20.065-1.125s-13.476.38-20.106,1.13c-.205.023-.412.035-.616.035-2.922,0-5.299-2.31-5.299-5.15V12.219c0-2.84,2.377-5.15,5.299-5.15.204,0,.411.012.615.035,6.616.747,13.366,1.125,20.064,1.125s13.478-.38,20.107-1.13c.204-.023.412-.035.617-.035M52.701,5.064c-.278,0-.559.016-.841.048-6.525.738-13.16,1.117-19.883,1.117s-13.328-.378-19.839-1.112c-.282-.032-.562-.047-.839-.047-3.934,0-7.299,3.124-7.299,7.15v39.567c0,4.026,3.365,7.15,7.299,7.15.278,0,.559-.016.841-.048,6.525-.738,13.159-1.117,19.881-1.117s13.329.378,19.841,1.112c.282.032.562.047.839.047,3.934,0,7.299-3.124,7.299-7.15V12.214c0-4.026-3.365-7.15-7.299-7.15h0Z"/><polygon class="cls-1" points="20.293 51.51 26.19 46.271 20.293 41.043 20.293 51.51"/><path class="cls-1" d="M41.583,30.285c-1.667-1.602-3.921-2.448-6.231-2.339-3.344.094-6.655.693-9.82,1.779v-14.865h-5.239v22.702l3.697-1.671c.065,0,6.026-2.706,11.351-2.706,2.663,0,3.234,1.466,3.234,2.695v15.631h5.282v-15.706c-.035-2.061-.847-4.032-2.275-5.519Z"/><path class="cls-1" d="M34.695,23.364h5.239c2.163-2.357,3.535-5.33,3.924-8.505h-5.239c-.629,3.102-1.972,6.014-3.924,8.505Z"/></svg>