<?xml version="1.0" encoding="UTF-8"?><svg id="Icons" xmlns="http://www.w3.org/2000/svg" viewBox="0 0 64 64"><defs><style>.cls-1{fill:#7526e3;}</style></defs><path class="cls-1" d="M51.86,5.112c-6.525.738-13.16,1.117-19.883,1.117s-13.328-.378-19.839-1.112c-4.282-.483-8.138,2.793-8.138,7.102v39.567c0,4.31,3.857,7.586,8.14,7.102,6.525-.738,13.159-1.117,19.881-1.117s13.329.378,19.841,1.112c4.282.483,8.138-2.793,8.138-7.102V12.214c0-4.31-3.857-7.586-8.14-7.102ZM20.293,51.51v-10.467l5.896,5.228-5.896,5.239ZM43.858,51.51h-5.282v-15.63c0-1.229-.571-2.695-3.234-2.695-5.325,0-11.286,2.706-11.351,2.706l-3.697,1.671V14.859h5.239v14.865c3.165-1.085,6.476-1.685,9.82-1.779,2.31-.109,4.563.737,6.231,2.339,1.427,1.487,2.24,3.458,2.275,5.519v15.706ZM39.934,23.364h-5.239c1.951-2.491,3.295-5.404,3.924-8.505h5.239c-.389,3.175-1.761,6.148-3.924,8.505Z"/></svg>