<?xml version="1.0" encoding="UTF-8"?><svg id="Icons" xmlns="http://www.w3.org/2000/svg" viewBox="0 0 64 64"><defs><style>.cls-1{fill:#fff;}.cls-2{fill:#730394;}.cls-3{fill:#481a54;}</style></defs><path class="cls-2" d="M51.179,11.57C40.406,1.477,23.649,1.477,12.875,11.57,1.585,22.147,1.006,39.874,11.584,51.165c5.302,5.626,12.686,8.822,20.417,8.835h25.858c1.19,0,2.155-.965,2.155-2.155v-25.858c-.013-7.731-3.209-15.115-8.835-20.417Z"/><path class="cls-3" d="M15.184,44.954c-.229-.299-.431-.525-.663-.819,0,0-.126-.161-.124-.158.003-.004-.062-.079-.059-.083-6.121-7.725-8.008-17.514-6-26.825-6.751,10.514-5.576,24.388,3.021,33.854,0,0,.224.241.325.349,4.917,5.238,11.712,8.289,18.86,8.688.31.017.622.028.934.034.2.005.402.002.602.003.036,0,.072.003.108.003h16.265c.017-.008.035-.015.053-.023-2.637-.125-23.491-2.196-33.322-15.023Z"/><path class="cls-1" d="M41.2,10.995c4.394-.389,9.699,5.03,10.408,8.682.252,1.298-.765,2.684-2.193.142-1.739-3.095-5.489-5.514-8.667-6.949-.915-.413-1.004-1.674-.012-1.82.153-.023.308-.041.464-.055Z"/><path class="cls-1" d="M42.73,25.434h-21.432c-1.381,0-2.5-1.119-2.5-2.5s1.119-2.5,2.5-2.5h21.432c1.381,0,2.5,1.119,2.5,2.5s-1.119,2.5-2.5,2.5Z"/><path class="cls-1" d="M47.869,35.768H15.159c-1.381,0-2.5-1.119-2.5-2.5s1.119-2.5,2.5-2.5h32.711c1.381,0,2.5,1.119,2.5,2.5s-1.119,2.5-2.5,2.5Z"/><path class="cls-1" d="M42.73,46.101h-21.432c-1.381,0-2.5-1.119-2.5-2.5s1.119-2.5,2.5-2.5h21.432c1.381,0,2.5,1.119,2.5,2.5s-1.119,2.5-2.5,2.5Z"/></svg>