<?xml version="1.0" encoding="UTF-8"?><svg id="Icons" xmlns="http://www.w3.org/2000/svg" viewBox="0 0 64 64"><defs><style>.cls-1{fill:#fff;}</style></defs><path class="cls-1" d="M51.165,11.57C40.392,1.477,23.635,1.477,12.861,11.57c-2.301,2.156-4.149,4.611-5.557,7.246-.086.158-.172.316-.255.475-.235.461-.458.928-.666,1.399-2.04,4.557-2.766,9.524-2.217,14.385.014.124.033.248.048.373.075.591.164,1.179.276,1.765.076.406.162.81.256,1.213.044.185.083.37.13.554.164.641.356,1.276.566,1.907.024.07.047.14.072.21,1.19,3.479,3.087,6.774,5.698,9.668.046.052.086.107.132.158,0,0,.1.108.197.211.009.01.018.021.028.031.007.008.015.015.022.023.029.031.057.061.078.084,2.925,3.116,6.517,5.45,10.449,6.921.042.016.085.032.127.048.353.13.708.253,1.067.369.122.04.244.08.366.118.276.085.553.164.831.241.192.053.384.108.578.157.205.052.411.098.618.146.257.059.514.119.773.172.139.028.28.051.42.077.316.059.631.117.95.165.078.012.156.02.234.031.553.079,1.11.139,1.67.185.259.021.517.047.777.062.002,0,.004,0,.006,0,.009,0,.017,0,.026,0,.3.016.601.027.902.033.125.003.25.002.375.002.002,0,26.005.004,26.005.004,1.19,0,2.155-.965,2.155-2.155v-25.858c-.013-7.731-3.209-15.115-8.835-20.417ZM21.284,20.434h21.432c1.381,0,2.5,1.119,2.5,2.5s-1.119,2.5-2.5,2.5h-21.432c-1.381,0-2.5-1.119-2.5-2.5s1.119-2.5,2.5-2.5ZM42.716,46.101h-21.432c-1.381,0-2.5-1.119-2.5-2.5s1.119-2.5,2.5-2.5h21.432c1.381,0,2.5,1.119,2.5,2.5s-1.119,2.5-2.5,2.5ZM47.855,35.768H15.145c-1.381,0-2.5-1.119-2.5-2.5s1.119-2.5,2.5-2.5h32.711c1.381,0,2.5,1.119,2.5,2.5s-1.119,2.5-2.5,2.5Z"/></svg>