<?xml version="1.0" encoding="UTF-8"?><svg id="Icons" xmlns="http://www.w3.org/2000/svg" viewBox="0 0 64 64"><defs><style>.cls-1{fill:#0d9dda;}</style></defs><path class="cls-1" d="M35.7,34.031c0-2.043-1.656-3.7-3.7-3.7s-3.699,1.656-3.699,3.7c0,1.289.661,2.422,1.662,3.084l-1.128,4.721c-.065.438.327.806.764.74.785-.12,1.589-.182,2.407-.182s1.616.061,2.398.18c.436.066.827-.301.764-.738l-1.122-4.725c.997-.663,1.655-1.794,1.655-3.081Z"/><path class="cls-1" d="M35.414,25.831v-1.485c0-1.883-1.532-3.414-3.414-3.414s-3.415,1.532-3.415,3.414v1.486c1.13.048,2.263.08,3.404.08,1.148,0,2.288-.032,3.425-.081Z"/><path class="cls-1" d="M32,4c-15.464,0-28,12.536-28,28s12.536,28,28,28,28-12.536,28-28S47.464,4,32,4ZM44.699,44.287c0,1.954-1.749,3.44-3.691,3.221-2.954-.333-5.956-.505-8.999-.505s-6.058.172-9.017.507c-1.942.22-3.692-1.266-3.692-3.221v-15.661c0-1.954,1.749-3.44,3.691-3.221.197.022.396.038.594.059v-1.12c0-4.647,3.767-8.414,8.415-8.414s8.414,3.767,8.414,8.414v1.117c.197-.021.396-.036.593-.059,1.942-.22,3.692,1.266,3.692,3.221v15.661Z"/></svg>