<?xml version="1.0" encoding="UTF-8"?><svg id="Icons" xmlns="http://www.w3.org/2000/svg" viewBox="0 0 64 64"><defs><style>.cls-1{fill:#001e5b;}.cls-2{fill:#fff;}.cls-3{fill:#007baf;}.cls-4{fill:#00aaf0;}.cls-5{fill:#05628a;}.cls-6{fill:#0d9dda;}</style></defs><path class="cls-6" d="M32,54.5c.197,0,.412-.071.638-.196-.674-.173-1.342-.365-2.003-.581.498.513.966.777,1.366.777Z"/><path class="cls-4" d="M32,57.5c-14.061,0-25.5-11.439-25.5-25.5S17.939,6.5,32,6.5s25.5,11.439,25.5,25.5-11.439,25.5-25.5,25.5Z"/><path class="cls-6" d="M12.497,44.171c.96-.228,2.074-.469,3.304-.705-2.201-2.756-3.865-5.783-5.003-8.965h-1.661c.383,3.522,1.565,6.806,3.359,9.671Z"/><path class="cls-6" d="M24.726,53.814c-.573-1.087-1.082-2.313-1.54-3.626-1.098-.713-2.15-1.511-3.164-2.37-1.458.217-2.808.456-4.005.698,2.445,2.367,5.411,4.195,8.708,5.298Z"/><path class="cls-6" d="M9.459,29.5c-.063-.348-.125-.696-.177-1.045-.054.347-.106.694-.144,1.045h.321Z"/><path class="cls-3" d="M54.687,48.402c3.339-4.61,5.313-10.274,5.313-16.402,0-15.464-12.536-28-28-28S4,16.536,4,32c0,6.138,1.98,11.811,5.33,16.426.041.06.079.12.125.175,5.099,6.912,13.297,11.399,22.545,11.399,8.812,0,16.669-4.074,21.801-10.438.364-.47.565-.742.886-1.16ZM9.138,34.5h11.406c.098,2.766.359,5.501.777,8.094-3.561.44-6.587,1.047-8.824,1.577-1.794-2.865-2.976-6.149-3.359-9.671ZM12.497,19.83c2.214.525,5.25,1.133,8.825,1.575-.418,2.593-.68,5.328-.777,8.095h-11.406c.383-3.522,1.564-6.806,3.358-9.67ZM54.862,29.5h-11.406c-.101-2.851-.375-5.669-.816-8.332,3.803-.554,6.769-1.261,8.593-1.76,1.946,2.962,3.228,6.396,3.629,10.092ZM31,41.983c-1.622,0-3.196.055-4.71.149-.376-2.256-.644-4.797-.744-7.632h12.908c-.102,2.892-.38,5.477-.768,7.766-2.222-.179-4.468-.283-6.686-.283ZM36.573,47.181c-1.427,4.8-3.331,7.319-4.573,7.319-1.251,0-3.171-2.558-4.601-7.421,1.168-.059,2.368-.095,3.601-.095,1.972,0,3.832.075,5.573.198ZM25.546,29.5c.1-2.835.368-5.376.744-7.632,1.514.094,3.088.148,4.71.148,2.366,0,4.601-.11,6.686-.284.388,2.29.667,4.875.768,7.767h-12.908ZM27.399,16.921c1.43-4.863,3.35-7.421,4.601-7.421,1.241,0,3.144,2.514,4.57,7.307-1.752.13-3.612.21-5.57.21-1.233,0-2.433-.036-3.601-.096ZM41.585,16.269c-.621-2.281-1.394-4.342-2.312-6.083,3.144,1.051,5.988,2.761,8.365,4.97-1.618.373-3.666.776-6.053,1.113ZM22.355,16.497c-2.393-.283-4.531-.648-6.337-1.014,2.445-2.366,5.411-4.195,8.708-5.297-.948,1.798-1.739,3.941-2.371,6.311ZM22.355,47.503c.632,2.37,1.423,4.513,2.371,6.311-3.298-1.103-6.263-2.931-8.708-5.298,1.813-.367,3.951-.732,6.338-1.013ZM41.593,47.703c2.403.333,4.439.736,6.07,1.118-2.382,2.219-5.234,3.938-8.388,4.993.921-1.748,1.696-3.819,2.319-6.111ZM42.644,42.807c.438-2.656.711-5.465.812-8.307h11.406c-.401,3.691-1.68,7.121-3.622,10.081-2.599-.735-5.515-1.338-8.596-1.774Z"/><path class="cls-5" d="M32.638,54.304c-.226.126-.441.196-.638.196-.399,0-.867-.264-1.366-.777-2.611-.851-5.118-2.022-7.448-3.534.458,1.313.967,2.539,1.54,3.626-3.298-1.103-6.263-2.931-8.708-5.298,1.197-.242,2.547-.481,4.005-.698-1.271-1.078-2.479-2.258-3.592-3.565-.219-.258-.419-.526-.629-.788-1.231.236-2.344.478-3.304.705-1.794-2.865-2.976-6.149-3.359-9.671h1.661c-.584-1.633-1.031-3.304-1.34-5h-.321c.038-.352.09-.699.144-1.045-.687-4.625-.38-9.395.9-13.981-2.874,3.566-4.886,7.854-5.732,12.547-.014.081-.03.161-.043.242-.123.719-.219,1.447-.286,2.184-.009.097-.014.194-.022.291-.061.75-.099,1.506-.099,2.271,0,.698.033,1.388.083,2.073.009.118.017.237.027.355.06.691.14,1.376.249,2.052.003.021.008.042.011.064.116.711.259,1.413.428,2.104.003.011.005.022.008.033.875,3.562,2.432,6.856,4.524,9.737.041.06.079.12.125.175,2.549,3.456,5.872,6.305,9.714,8.29.002,0,.003.002.005.002.472.244.953.474,1.44.692.012.005.024.011.036.017,1.471.653,3.009,1.183,4.601,1.577.052.013.106.024.158.036.448.108.902.205,1.359.291.121.023.242.044.363.065.397.07.797.13,1.2.183.144.019.288.038.432.055.402.046.807.081,1.214.11.134.01.266.023.4.031.533.031,1.069.048,1.609.049.709,0,1.409-.034,2.105-.086.158-.012.316-.027.474-.041.62-.057,1.235-.131,1.843-.227.072-.011.146-.02.218-.032.704-.117,1.399-.262,2.083-.431.068-.017.135-.036.203-.054.635-.162,1.261-.345,1.877-.549.068-.022.135-.043.203-.066,1.356-.461,2.666-1.023,3.919-1.677l.105-.055c1.274-.672,2.492-1.438,3.641-2.292-5.351,1.219-10.853,1.139-16.02-.185Z"/><circle class="cls-2" cx="39.728" cy="18.955" r="4.063"/><circle class="cls-1" cx="23.336" cy="32" r="4.063"/><circle class="cls-1" cx="39.728" cy="44.868" r="4.063"/></svg>