<?xml version="1.0" encoding="UTF-8"?><svg id="Icons" xmlns="http://www.w3.org/2000/svg" viewBox="0 0 64 64"><defs><style>.cls-1{fill:#0d9dda;}</style></defs><path class="cls-1" d="M38.102,19.989c.606-.607,1.413-.941,2.27-.941s1.664.334,2.271.941l2.063,2.064c.24-.618.311-1.309.159-2.004-.411-1.884-2.277-3.083-4.162-2.672-1.377.3-2.379,1.381-2.664,2.675l.062-.063Z"/><path class="cls-1" d="M27.811,32.417c-3.019,0-5.474,2.456-5.474,5.475s2.456,5.475,5.474,5.475,5.475-2.456,5.475-5.475-2.456-5.475-5.475-5.475Z"/><path class="cls-1" d="M47.763,33.47h-2.826c-.415-1.607-1.055-3.123-1.876-4.52l2.001-2.001c.863-.863.863-2.263,0-3.126l-3.126-3.127c-.863-.863-2.263-.863-3.126,0l-1.986,1.986c-1.4-.832-2.922-1.479-4.535-1.901v-2.787c0-1.221-.99-2.211-2.21-2.211h-4.422c-1.221,0-2.211.99-2.211,2.211v2.758c-1.627.415-3.163,1.058-4.575,1.889l-1.946-1.946c-.864-.863-2.263-.863-3.126,0l-3.127,3.127c-.863.863-.863,2.263,0,3.127l1.931,1.931c-.842,1.416-1.495,2.957-1.917,4.59h-2.715c-.019,0-.037.005-.055.006v-.005c-.07.002-.137.017-.206.026-.069.008-.141.011-.208.026-.075.016-.145.044-.216.067-.065.021-.132.037-.194.064-.07.03-.132.071-.198.107-.058.032-.118.06-.173.097-.063.043-.118.096-.176.145-.049.042-.102.079-.147.124-.055.056-.101.12-.149.181-.039.048-.082.093-.117.144-.046.069-.08.145-.118.218-.027.052-.06.101-.083.155-.036.087-.059.18-.084.272-.013.047-.033.091-.042.14-.029.143-.045.291-.045.442v4.422c0,.458.139.883.378,1.236.397.588,1.07.975,1.833.975h2.715c.422,1.634,1.075,3.175,1.917,4.59l-1.281,1.281-.65.65c-.863.863-.863,2.263,0,3.127l1.563,1.563,1.563,1.563c.179.179.384.311.599.416.305.148.633.232.964.232.566,0,1.131-.216,1.563-.647l.439-.439,1.507-1.507c1.413.831,2.948,1.475,4.575,1.889v2.758c0,1.221.99,2.211,2.211,2.211h4.421c.153,0,.301-.016.445-.045.047-.01.089-.029.135-.042.095-.026.19-.049.28-.087.053-.022.1-.055.151-.082.075-.039.153-.074.224-.121.053-.036.098-.081.148-.121.06-.049.124-.093.179-.148.048-.048.086-.104.13-.157.047-.056.099-.109.14-.169.04-.058.068-.124.103-.187.034-.062.074-.122.102-.188.029-.067.045-.14.067-.211.021-.068.048-.132.062-.203.016-.074.017-.153.024-.229.007-.07.022-.138.022-.209h-.001s.001-.008.001-.013v-2.787c1.613-.422,3.135-1.068,4.535-1.901l1.986,1.986c.863.863,2.263.863,3.126,0l3.126-3.127c.864-.863.864-2.263,0-3.126l-2.001-2.001c.822-1.397,1.461-2.913,1.876-4.52h2.826c1.221,0,2.211-.99,2.211-2.211v-4.422c0-1.221-.99-2.211-2.211-2.211ZM27.811,46.735c-4.876,0-8.843-3.967-8.843-8.844s3.967-8.843,8.843-8.843,8.843,3.967,8.843,8.843-3.967,8.844-8.843,8.844Z"/><path class="cls-1" d="M58.203,18.86l-.715-3.279c-.197-.906-1.092-1.48-1.997-1.282l-2.096.457c-.567-1.125-1.287-2.146-2.123-3.049l1.161-1.808c.5-.78.274-1.818-.506-2.319l-2.824-1.814c-.78-.501-1.818-.274-2.319.505l-1.152,1.794c-1.173-.391-2.407-.625-3.671-.677l-.45-2.066c-.197-.906-1.091-1.48-1.997-1.282l-3.28.715c-.905.197-1.479,1.092-1.282,1.997l.446,2.045c-1.14.571-2.175,1.296-3.088,2.141l-1.757-1.129c-.78-.501-1.818-.275-2.319.505l-1.814,2.824c-.329.513-.338,1.135-.088,1.646h3.745c1.771,0,3.211,1.44,3.211,3.211v2.032c.484.149.959.33,1.43.518.112-3,2.229-5.671,5.294-6.339,3.632-.792,7.232,1.52,8.024,5.152.453,2.08-.114,4.146-1.361,5.684.1.933-.192,1.901-.906,2.615l-1.465,1.466c.574,1.075,1.04,2.196,1.391,3.349h2.068c.079,0,.152.018.229.023.931-.526,1.791-1.15,2.558-1.867l1.794,1.152c.78.501,1.818.274,2.319-.505l1.813-2.824c.501-.78.274-1.818-.505-2.319l-1.808-1.161c.384-1.169.613-2.397.661-3.656l2.096-.457c.906-.197,1.48-1.091,1.283-1.997Z"/></svg>