<?xml version="1.0" encoding="UTF-8"?><svg id="Icons" xmlns="http://www.w3.org/2000/svg" viewBox="0 0 64 64"><defs><style>.cls-1{fill:#04e1cb;}.cls-2{fill:#024d4c;}.cls-3{fill:#fff;}.cls-4{fill:#06a59a;}</style></defs><path class="cls-1" d="M7.199,60c.185,0,.369-.016.551-.048,7.841-1.367,15.906-2.08,24.137-2.08s16.282.712,24.117,2.076c.196.034.394.051.592.051,1.888,0,3.419-1.535,3.419-3.43V8.282c0-2.665-2.436-4.658-5.057-4.222-7.505,1.248-15.212,1.898-23.071,1.898-7.772,0-15.396-.635-22.823-1.857-2.619-.431-5.049,1.561-5.049,4.223v48.482c0,1.764,1.425,3.194,3.184,3.194Z"/><path class="cls-4" d="M4,19.032v23.424l5.621-5.265c-2.449-4.524-4.082-10.034-5.621-18.159Z"/><path class="cls-4" d="M17.3,46.852c-1.839-1.744-3.408-3.433-4.773-5.201l-8.528,7.978v7.177c0,1.764,1.426,3.194,3.184,3.194.185,0,.369-.016.551-.048,7.841-1.367,15.906-2.08,24.137-2.08,7.199,0,14.272.545,21.178,1.597-13.822-3.25-27.225-4.533-35.75-12.617Z"/><path class="cls-2" d="M48.656,19.644c-.123-.359-.319-.678-.568-.943l-.003-.003s-.003-.003-.004-.004c-.011-.012-.023-.024-.034-.036l-.003-.003s-.005-.005-.008-.008l-.002-.003c-.008-.008-.016-.016-.024-.024-.01-.009-.02-.019-.029-.028l-.009-.008c-.236-.223-.514-.403-.825-.527-.008-.003-.016-.006-.025-.009-.009-.003-.018-.007-.027-.01-.297-.112-.617-.171-.946-.167-.019,0-.038,0-.057.001h-.004c-.127.004-.252.018-.374.04l-.581.093c-6.423,1.025-10.986,1.544-17.73,1.544-1.449,0-2.624,1.179-2.624,2.633s1.175,2.633,2.624,2.633c4.328,0,7.819-.207,11.376-.606l-12.538,12.59-6.014-6.056c-.98-.987-2.554-1.034-3.591-.118l-.049.044-6.965,6.523-5.621,5.265v7.173l8.528-7.978,5.767-5.395,6.086,6.127c.492.495,1.16.774,1.856.774.697,0,1.365-.277,1.857-.772l14.389-14.45c-.397,3.566-.603,7.068-.603,11.407,0,1.454,1.175,2.633,2.624,2.633s2.623-1.179,2.623-2.633c0-6.767.518-11.346,1.539-17.792l.092-.577c.026-.145.041-.293.042-.443,0-.009,0-.019,0-.028,0-.009,0-.019,0-.028-.003-.288-.053-.568-.143-.83Z"/><path class="cls-3" d="M54.388,8.76c.59-.093,1.074.164,1.266.533.165.273.237.63.158,1.004-.372,1.778-.661,3.715-.843,5.749-.073.814-.945,1.289-1.506.696-.366-.387-.672-.829-.903-1.311-.483-.908-.759-1.524-1.779-2.115-.81-.469-2.169-.556-3.175-.615-.256-.01-.508-.027-.756-.052-.038-.004-.074-.007-.108-.012-1.378-.151-2.617-.533-3.605-1.092-.956-.541-.427-1.692.67-1.735,2.088-.081,4.303-.249,6.59-.509,1.366-.155,2.7-.337,3.99-.542Z"/></svg>