<?xml version="1.0" encoding="UTF-8"?><svg id="Icons" xmlns="http://www.w3.org/2000/svg" viewBox="0 0 64 64"><defs><style>.cls-1{fill:#fff;}</style></defs><path class="cls-1" d="M55.667,4c-.239,0-.48.02-.724.06-7.505,1.248-15.212,1.898-23.071,1.898-7.772,0-15.396-.635-22.823-1.857-.241-.04-.48-.059-.716-.059-2.329,0-4.333,1.864-4.333,4.282v28.488c0,.012-.007.022-.007.034v16.195c0,.012.006.022.007.034v3.732c0,1.764,1.425,3.194,3.184,3.194.185,0,.369-.016.551-.048,7.841-1.367,15.906-2.08,24.137-2.08,1.654,0,3.3.037,4.941.094.225.008.45.013.675.022,1.562.062,3.117.152,4.666.265.277.02.554.041.831.063,1.545.122,3.084.266,4.615.438.223.025.444.053.667.08,1.601.187,3.196.394,4.78.635.984.15,1.965.31,2.942.48.196.034.394.051.592.051,1.888,0,3.419-1.535,3.419-3.43V8.282c0-2.418-2.005-4.282-4.333-4.282ZM5.993,40.589l3.628-3.398,6.965-6.523.049-.044c.496-.438,1.114-.656,1.732-.656.674,0,1.347.259,1.858.774l2.101,2.116s.779.821,1.65,1.67l1.541,1.561c.188.19.435.278.712.298.009,0,.058-.001.065-.003.242-.016.473-.12.645-.293l1.853-1.868c.779-.759,1.432-1.427,1.432-1.427l2.276-2.285,3.928-3.944h-.002l.386-.387c.301-.3.379-.758.195-1.141s-.596-.608-1.013-.56c-.229.026-.574.055-1.008.085,0,0-1.09.063-1.645.094-.917.043-2.024.084-3.334.115-.016,0-1.715.04-2.605.04-1.449,0-2.624-1.179-2.624-2.633s1.175-2.633,2.624-2.633c6.744,0,11.306-.519,17.73-1.544l.581-.094c.123-.022.248-.035.374-.04h.004c.019,0,.038-.001.057-.001.01,0,.02,0,.031,0,.319,0,.628.059.916.167.009.003.018.007.027.01.008.003.017.006.025.009.311.124.589.304.825.527l.009.008c.01.009.02.019.029.028.008.008.016.016.024.024l.002.003s.005.005.008.008l.003.003c.011.012.023.024.034.036.001.001.003.003.004.004l.003.003c.249.266.445.585.568.943.091.263.141.542.143.83,0,.009,0,.019,0,.028,0,.009,0,.019,0,.028-.001.15-.016.298-.042.443l-.092.577c-1.021,6.446-1.539,11.024-1.539,17.792,0,1.454-1.175,2.633-2.623,2.633s-2.623-1.179-2.623-2.633c0-.415.007-.804.011-1.204,0-.007.005-.013.005-.021l.02-1.378c.002-.132.003-.243.005-.365.029-1.151.07-2.262.132-3.331.052-.643.126-1.384.238-2.394.047-.423-.178-.829-.562-1.013-.384-.184-.841-.104-1.141.197l-3.301,3.32-9.193,9.231c-.492.494-1.159.772-1.855.772,0,0-.001,0-.002,0-.697,0-1.365-.279-1.857-.774l-1.91-1.923c-.018-.021-.024-.047-.044-.067l-3.426-3.467c-.381-.384-.999-.396-1.393-.026l-1.737,1.625c-.109.101-.19.176-.19.176l-3.153,2.95-6.534,6.113v-7.175ZM58,56.57c0,.788-.637,1.43-1.419,1.43-.082,0-.166-.007-.249-.022-.991-.173-1.986-.335-2.984-.487-1.478-.225-3.064-.436-4.848-.645l-.266-.032-.41-.049c-1.49-.167-3.065-.317-4.681-.444-.281-.022-.562-.043-.843-.064-1.624-.118-3.216-.209-4.733-.269l-.413-.014-.272-.009c-1.835-.064-3.474-.095-5.011-.095-8.215,0-16.452.71-24.481,2.109-.069.012-.139.018-.208.018-.653,0-1.184-.535-1.184-1.194v-6.31l7.894-7.385,2.458-2.3s.006-.003.008-.005l.804-.752c.282-.261.567-.515.839-.749.175-.093.387-.076.545.054.072.07.147.138.214.206l4.199,4.227c.861.867,2.054,1.364,3.278,1.365,1.219,0,2.412-.496,3.272-1.36l2.33-2.34c.01-.01.024-.013.034-.023l6.735-6.775,1.421-1.427c-.068.938-.089,1.701-.104,2.726-.03,1.092-.046,2.213-.046,3.384,0,2.554,2.074,4.633,4.623,4.633s4.623-2.078,4.623-4.633c0-6.697.51-11.141,1.514-17.478l.084-.533c.047-.257.072-.52.074-.749v-.072c0-.012,0-.043,0-.055-.005-.499-.09-.991-.252-1.461-.212-.618-.546-1.174-.997-1.658,0,0-.001-.001-.002-.002-.004-.004-.008-.008-.012-.013-.007-.008-.049-.051-.057-.059-.008-.008-.016-.017-.025-.025-.001-.001-.003-.003-.004-.004-.011-.011-.041-.041-.052-.052l-.055-.052c-.426-.402-.917-.715-1.45-.927l-.034-.013c-.011-.004-.049-.019-.06-.023-.52-.196-1.065-.295-1.621-.295-.007,0-.044,0-.05,0l-.108.002c-.22.007-.442.031-.626.064l-.579.093c-6.315,1.008-10.743,1.519-17.415,1.519-2.549,0-4.624,2.078-4.624,4.633s2.074,4.633,4.624,4.633c2.165,0,4.163-.051,6.104-.158l-4.841,4.863c-.006.006-.015.008-.021.014l-1.048,1.057h.006c-.496.486-.981.95-1.376,1.312-.377-.343-.834-.785-1.303-1.251v-.006l-.585-.593c-.006-.006-.008-.014-.013-.021l-.428-.434s-.011-.006-.016-.011c-.044-.046-.091-.093-.133-.138l-2.102-2.116c-.874-.88-2.038-1.365-3.277-1.365-1.127,0-2.212.411-3.072,1.171l-.076.069-6.965,6.523-2.254,2.111V8.324c0-.611.243-1.183.686-1.612.445-.432,1.031-.67,1.647-.67.13,0,.262.011.392.032,7.598,1.25,15.386,1.883,23.147,1.883,7.847,0,15.719-.648,23.399-1.925.131-.022.265-.033.396-.033,1.287,0,2.333,1.024,2.333,2.282v48.289Z"/></svg>