<?xml version="1.0" encoding="UTF-8"?><svg id="Icons" xmlns="http://www.w3.org/2000/svg" viewBox="0 0 64 64"><defs><style>.cls-1{fill:#fff;}.cls-2{fill:#ba01ff;}</style></defs><rect class="cls-1" x="48.823" y="26.324" width="5.603" height="28.015" rx="1.401" ry="1.401"/><path class="cls-1" d="M55.802,15.119h-7.007v-6.796c0-2.517-2.198-4.463-4.706-4.248-3.989.342-8.025.516-12.103.516s-8.114-.174-12.103-.516c-2.507-.215-4.706,1.731-4.706,4.248v17.814c-2.655-.158-5.362-.448-7.887-.7-1.318-.154-2.512.612-2.979,1.761-.004.009-.008.018-.012.027-.007.017-.008.032-.013.048-.101.269-.164.555-.177.858l-.013.084v27.332c0,2.591,2.229,4.628,4.808,4.373,4.797-.474,9.636-1.098,14.513-1.497,2.836-.232,5.685-.386,8.546-.391.044,0,.089-.002.133-.002,3.73,0,7.438.261,11.125.613h0c4.05.386,8.074.882,12.067,1.277.144.014.29.021.435.021,2.141,0,4.278-1.518,4.278-3.508V19.317c0-2.319-1.88-4.198-4.198-4.198ZM15.206,52.865c0,.774-.627,1.401-1.401,1.401h-2.801c-.774,0-1.401-.627-1.401-1.401v-5.53c0-.774.627-1.401,1.401-1.401h2.801c.774,0,1.401.627,1.401,1.401v5.53ZM15.633,38.931c0,.774-.627,1.401-1.401,1.401h-2.801c-.774,0-1.401-.627-1.401-1.401v-5.53c0-.773.627-1.401,1.401-1.401h2.801c.774,0,1.401.627,1.401,1.401v5.53ZM26.839,52.865c0,.774-.627,1.401-1.401,1.401h-2.802c-.774,0-1.401-.627-1.401-1.401v-5.53c0-.774.627-1.401,1.401-1.401h2.802c.774,0,1.401.627,1.401,1.401v5.53ZM26.839,38.931c0,.774-.627,1.401-1.401,1.401h-2.802c-.774,0-1.401-.627-1.401-1.401v-5.53c0-.773.627-1.401,1.401-1.401h2.802c.774,0,1.401.627,1.401,1.401v5.53ZM29.213,22.138c0,.774-.627,1.401-1.401,1.401h-5.603c-.774,0-1.401-.627-1.401-1.401v-11.206c0-.774.627-1.401,1.401-1.401h5.603c.774,0,1.401.627,1.401,1.401v11.206ZM34.82,10.932c0-.774.627-1.401,1.401-1.401h5.603c.774,0,1.401.627,1.401,1.401v4.186h-7.064c-.472,0-.917.095-1.34.239v-4.425ZM38.019,52.865c0,.774-.627,1.401-1.401,1.401h-2.801c-.774,0-1.401-.627-1.401-1.401v-5.53c0-.774.627-1.401,1.401-1.401h2.801c.774,0,1.401.627,1.401,1.401v5.53ZM38.019,38.931c0,.774-.627,1.401-1.401,1.401h-2.802c-.774,0-1.401-.627-1.401-1.401v-5.53c0-.773.627-1.401,1.401-1.401h2.802c.774,0,1.401.627,1.401,1.401v5.53ZM58,56.433c0,.747-1.15,1.508-2.278,1.508-.079,0-.159-.004-.238-.012-1.854-.183-3.715-.388-5.581-.594-2.122-.234-4.316-.476-6.468-.681-.071-.008-.144-.016-.215-.024v-28.382c0-1.702-1.505-3.008-3.195-2.811-2.007.234-4.031.411-6.064.559v-6.68c0-.931.603-1.762,1.5-2.065.264-.089.492-.133.698-.133h19.641c1.212,0,2.198.986,2.198,2.198v37.116Z"/><path class="cls-2" d="M35.472,15.184c.223-.042.452-.066.688-.066h0c-.236,0-.465.024-.688.066Z"/></svg>