<?xml version="1.0" encoding="UTF-8"?><svg id="Icons" xmlns="http://www.w3.org/2000/svg" viewBox="0 0 64 64"><defs><style>.cls-1{fill:#fff;}</style></defs><path class="cls-1" d="M14.233,32h-2.802c-.774,0-1.401.627-1.401,1.401v5.53c0,.774.627,1.401,1.401,1.401h2.802c.774,0,1.401-.627,1.401-1.401v-5.53c0-.773-.627-1.401-1.401-1.401ZM14.102,38.177c0,.276-.224.5-.5.5h-1.539c-.276,0-.5-.224-.5-.5v-4.022c0-.276.224-.5.5-.5h1.539c.276,0,.5.224.5.5v4.022Z"/><path class="cls-1" d="M25.439,32h-2.802c-.774,0-1.401.627-1.401,1.401v5.53c0,.774.627,1.401,1.401,1.401h2.802c.774,0,1.401-.627,1.401-1.401v-5.53c0-.773-.627-1.401-1.401-1.401ZM25.307,38.177c0,.276-.224.5-.5.5h-1.539c-.276,0-.5-.224-.5-.5v-4.022c0-.276.224-.5.5-.5h1.539c.276,0,.5.224.5.5v4.022Z"/><path class="cls-1" d="M36.644,32h-2.802c-.774,0-1.401.627-1.401,1.401v5.53c0,.774.627,1.401,1.401,1.401h2.802c.774,0,1.401-.627,1.401-1.401v-5.53c0-.773-.627-1.401-1.401-1.401ZM36.513,38.177c0,.276-.224.5-.5.5h-1.539c-.276,0-.5-.224-.5-.5v-4.022c0-.276.224-.5.5-.5h1.539c.276,0,.5.224.5.5v4.022Z"/><path class="cls-1" d="M14.233,45.935h-2.802c-.774,0-1.401.627-1.401,1.401v5.53c0,.774.627,1.401,1.401,1.401h2.802c.774,0,1.401-.627,1.401-1.401v-5.53c0-.773-.627-1.401-1.401-1.401ZM14.102,52.111c0,.276-.224.5-.5.5h-1.539c-.276,0-.5-.224-.5-.5v-4.022c0-.276.224-.5.5-.5h1.539c.276,0,.5.224.5.5v4.022Z"/><path class="cls-1" d="M25.439,45.935h-2.802c-.774,0-1.401.627-1.401,1.401v5.53c0,.774.627,1.401,1.401,1.401h2.802c.774,0,1.401-.627,1.401-1.401v-5.53c0-.773-.627-1.401-1.401-1.401ZM25.307,52.111c0,.276-.224.5-.5.5h-1.539c-.276,0-.5-.224-.5-.5v-4.022c0-.276.224-.5.5-.5h1.539c.276,0,.5.224.5.5v4.022Z"/><path class="cls-1" d="M36.644,45.935h-2.802c-.774,0-1.401.627-1.401,1.401v5.53c0,.774.627,1.401,1.401,1.401h2.802c.774,0,1.401-.627,1.401-1.401v-5.53c0-.773-.627-1.401-1.401-1.401ZM36.513,52.111c0,.276-.224.5-.5.5h-1.539c-.276,0-.5-.224-.5-.5v-4.022c0-.276.224-.5.5-.5h1.539c.276,0,.5.224.5.5v4.022Z"/><rect class="cls-1" x="48.823" y="26.324" width="5.603" height="28.015" rx="1.401" ry="1.401"/><path class="cls-1" d="M27.812,9.532h-5.603c-.774,0-1.401.627-1.401,1.401v11.206c0,.774.627,1.401,1.401,1.401h5.603c.774,0,1.401-.627,1.401-1.401v-11.206c0-.774-.627-1.401-1.401-1.401ZM27.222,21.006c0,.016-.007.029-.009.044-.023.255-.231.456-.491.456h-3.422c-.26,0-.468-.201-.491-.456-.001-.015-.009-.029-.009-.044v-8.966c0-.016.008-.029.009-.044.023-.254.231-.456.491-.456h3.422c.261,0,.468.202.491.456.001.015.009.028.009.044v8.966Z"/><path class="cls-1" d="M55.802,15.119h-7.007v-6.796c0-2.389-1.982-4.264-4.328-4.264-.125,0-.251.005-.378.016-3.989.342-8.025.516-12.103.516s-8.114-.174-12.103-.516c-.127-.011-.253-.016-.378-.016-2.346,0-4.328,1.875-4.328,4.264v17.554c-2.533-.162-5.102-.433-7.507-.673-.109-.013-.217-.019-.323-.019-.234,0-.461.029-.681.082,0,0,0-.004,0-.004-.093.022-.18.057-.27.088-.045.016-.092.026-.136.044-1.015.406-1.748,1.374-1.78,2.542l-.007.044v27.332c0,.972.313,1.865.841,2.589.8,1.097,2.091,1.805,3.53,1.805.144,0,.289-.007.436-.022h0c3.597-.355,7.219-.795,10.862-1.161,1.214-.122,2.431-.236,3.651-.336,2.836-.232,5.685-.386,8.546-.391.044,0,.089-.002.133-.002,3.597,0,7.174.492,10.731.842.003,0,.014.004.014.004,4.05.386,8.074.882,12.067,1.277.144.014.29.021.435.021,2.141,0,4.278-1.518,4.278-3.508V19.317c0-2.319-1.88-4.198-4.198-4.198ZM17.177,8.323c0-.602.241-1.169.679-1.595.444-.432,1.029-.669,1.649-.669.069,0,.138.003.208.009,4.054.347,8.184.523,12.273.523s8.219-.176,12.274-.523c.07-.006.139-.009.208-.009,1.283,0,2.328,1.016,2.328,2.264v6.747l-.002.048h-3.567v-4.186c0-.58-.353-1.078-.855-1.291-.168-.071-.352-.11-.545-.11h-5.603c-.097,0-.191.01-.282.028-.182.037-.352.11-.501.211-.373.252-.617.678-.617,1.162v4.425h0c-1.657.561-2.858,2.112-2.858,3.96v6.609c-2.639.148-5.295.229-7.971.229-2.286,0-4.555-.071-6.814-.179V8.323ZM41.233,12.04v3.079h-4.422v-3.079c0-.016.007-.029.009-.044.023-.254.231-.456.491-.456h3.422c.261,0,.468.202.491.456.001.015.009.028.009.044ZM41.601,56.205v.259c-.183-.02-.366-.039-.549-.059-2.787-.299-5.669-.609-8.576-.609l-.136.002c-2.641.004-5.489.134-8.706.397-1.136.093-2.342.204-3.688.339-1.763.177-3.521.372-5.274.565-1.868.207-3.73.412-5.586.596-.08.008-.16.012-.239.012-.75,0-1.466-.367-1.914-.983-.299-.411-.457-.899-.457-1.411v-27.178l.003-.017.003-.126c.01-.37.245-.61.486-.723.03-.009.057-.018.081-.026l.087-.031h.003c.071-.018.142-.027.209-.027.03,0,.061.002.125.009l1.05.105c2.255.227,4.587.462,6.917.601,2.855.17,5.732.256,8.552.256s5.655-.084,8.469-.25c2.737-.161,5.489-.402,8.178-.716.036-.004.071-.006.106-.006.472,0,.857.373.857.831v28.19ZM58,56.433c0,.747-1.15,1.508-2.278,1.508-.079,0-.159-.004-.238-.012-1.854-.183-3.714-.388-5.581-.594-2.058-.227-4.183-.461-6.295-.665-.002,0-.005-.001-.007-.002v-28.654c0-1.587-1.309-2.831-2.857-2.831-.112,0-.224.006-.338.02-2.132.249-4.283.435-6.444.587v-6.474c0-.931.603-1.762,1.5-2.065.264-.089.492-.133.698-.133h19.641c1.212,0,2.198.986,2.198,2.198v37.116Z"/></svg>