<?xml version="1.0" encoding="UTF-8"?><svg id="Icons" xmlns="http://www.w3.org/2000/svg" viewBox="0 0 64 64"><defs><style>.cls-1{fill:#fff;}</style></defs><path class="cls-1" d="M58.944,47.107c-4.837-5.281-9.383-10.83-13.645-16.602,2.853.503,5.653,1.159,8.386,1.972.96.285,2.003.037,2.712-.671,1.106-1.106,1.028-2.92-.151-3.948-7.973-6.95-15.339-14.579-22.009-22.796-1.149-1.415-3.322-1.415-4.471,0-6.679,8.228-14.056,15.867-22.042,22.825-1.183,1.031-1.261,2.85-.152,3.959.711.711,1.76.961,2.724.672,2.586-.775,5.231-1.415,7.926-1.912-2.131,3.14-4.322,6.236-6.619,9.249-1.443,1.701-2.905,3.386-4.402,5.038-.706.779-1.418,1.554-2.136,2.322-1.156,1.238-1.14,3.172.058,4.37.823.823,2.037,1.113,3.153.783,5.459-1.613,11.152-2.677,17.013-3.146-.718,2.617-1.653,5.145-2.805,7.551-.7,1.461.323,3.228,1.944,3.228h15.102c1.621,0,2.645-1.768,1.943-3.23-1.156-2.41-2.094-4.943-2.814-7.565,5.859.456,11.551,1.508,17.01,3.108,1.131.331,2.359.037,3.193-.796,1.206-1.206,1.232-3.151.08-4.409Z"/></svg>