<?xml version="1.0" encoding="UTF-8"?><svg id="Icons" xmlns="http://www.w3.org/2000/svg" viewBox="0 0 64 64"><defs><style>.cls-1{fill:#1b96ff;}.cls-2{fill:#9ea9f1;}.cls-3{fill:#fff;}.cls-4{fill:#bec7f6;}</style></defs><path class="cls-4" d="M51.777,34.463c1.572-1.276,1.572-3.69,0-4.966-9.128-7.409-17.602-15.592-25.323-24.449-1.142-1.31-3.157-1.396-4.386-.167-.787.787-1.063,1.946-.746,3.012,2.264,7.612,3.481,15.675,3.481,24.023,0,8.403-1.232,16.518-3.526,24.175-.321,1.071-.044,2.236.746,3.026,1.232,1.232,3.254,1.145,4.399-.168,7.729-8.871,16.215-17.066,25.355-24.485Z"/><path class="cls-4" d="M23.952,33.441c.952-.773.952-2.235,0-3.008-5.528-4.487-10.661-9.443-15.337-14.808-.692-.793-1.912-.846-2.656-.101-.476.476-.644,1.179-.452,1.824,1.371,4.61,2.108,9.494,2.108,14.55,0,5.089-.746,10.004-2.135,14.642-.194.648-.027,1.354.452,1.833.746.746,1.971.694,2.664-.102,4.681-5.373,9.821-10.336,15.356-14.83Z"/><path class="cls-2" d="M23.952,33.441c.601-.488.822-1.25.665-1.94-6.281-.508-17.002-.635-17.002.397,0,3.776-.411,7.455-1.19,10.997,2.995-1.331,6.575-2.477,10.597-3.388,2.233-2.106,4.545-4.13,6.931-6.066Z"/><path class="cls-2" d="M51.777,34.463c1.09-.885,1.424-2.316,1.003-3.537-5.241.661-10.927,1.023-16.868,1.023-3.826,0-7.546-.15-11.11-.434,0,.133,0,.267,0,.4,0,3.808-.253,7.557-.743,11.231,5.974-1.502,13.039-2.463,20.669-2.693,2.303-2.049,4.653-4.047,7.049-5.991Z"/><path class="cls-1" d="M53.02,38.492c3.768.283,6.98-2.698,6.98-6.477s-3.213-6.759-6.98-6.476l-46.227,3.467c-1.575.118-2.792,1.43-2.792,3.009s1.217,2.891,2.792,3.009l46.227,3.467Z"/><path class="cls-3" d="M57.268,33.45c.648-2.65-.984-5.324-3.643-5.974-.19-.046-.38-.081-.57-.105-.166-.021-.319.014-.44.103-.119.087-.19.214-.218.347-.054.263.057.567.327.749,1.697,1.144,2.913,2.866,3.43,4.814.073.277.296.453.534.481.12.014.247-.01.356-.082.111-.074.188-.19.223-.332Z"/><path class="cls-3" d="M56.756,34.078c-.031,0-.062-.002-.092-.006-.34-.04-.619-.29-.711-.636-.509-1.915-1.697-3.582-3.345-4.693-.323-.218-.49-.605-.416-.966.04-.193.146-.361.3-.474.165-.12.376-.167.589-.142.199.025.396.061.595.109,2.768.676,4.471,3.47,3.797,6.228h0c-.048.194-.154.352-.309.457-.122.08-.264.122-.408.122ZM52.966,27.574c-.087,0-.164.023-.226.068-.069.051-.117.129-.136.22-.034.163.026.39.238.533,1.732,1.168,2.981,2.92,3.517,4.934.047.179.187.307.354.326.081.011.154-.008.216-.048.064-.044.112-.117.135-.208h0c.619-2.533-.946-5.099-3.488-5.72-.183-.045-.364-.078-.547-.102-.021-.002-.043-.004-.063-.004Z"/></svg>