<?xml version="1.0" encoding="UTF-8"?><svg id="Icons" xmlns="http://www.w3.org/2000/svg" viewBox="0 0 64 64"><defs><style>.cls-1{fill:#1b96ff;}</style></defs><path class="cls-1" d="M53.02,25.539l-5.48.411c-7.522-6.45-14.575-13.433-21.086-20.902-1.142-1.31-3.157-1.396-4.386-.167-.787.787-1.063,1.946-.746,3.012,1.877,6.311,3.021,12.935,3.362,19.771l-3.673.275c-4.411-3.814-8.565-7.918-12.396-12.314-.692-.793-1.912-.846-2.656-.101-.477.476-.644,1.179-.452,1.824,1.103,3.708,1.787,7.594,2.016,11.602l-.73.055c-1.575.118-2.792,1.43-2.792,3.009s1.217,2.891,2.792,3.009l.717.054c-.244,3.959-.933,7.798-2.03,11.462-.194.648-.027,1.354.452,1.833.746.746,1.971.694,2.664-.102,3.789-4.348,7.891-8.412,12.247-12.192l3.831.287c-.356,6.82-1.51,13.429-3.396,19.725-.321,1.071-.044,2.236.746,3.026,1.232,1.232,3.254,1.146,4.398-.168,6.498-7.457,13.536-14.43,21.042-20.873l5.556.417c3.768.283,6.98-2.698,6.98-6.477s-3.213-6.759-6.98-6.476Z"/></svg>