<?xml version="1.0" encoding="UTF-8"?><svg id="Icons" xmlns="http://www.w3.org/2000/svg" viewBox="0 0 64 64"><defs><style>.cls-1{fill:#fff;}</style></defs><path class="cls-1" d="M43.822,9.186c.437,0,.87.117,1.25.338.576.335.987.876,1.158,1.523.171.647.081,1.321-.254,1.897-.446.767-1.277,1.243-2.17,1.243-.437,0-.869-.117-1.25-.338-1.192-.693-1.598-2.227-.905-3.42.446-.767,1.277-1.243,2.169-1.243M43.822,7.186c-1.552,0-3.063.802-3.898,2.237-1.248,2.145-.517,4.906,1.628,6.154.71.413,1.488.609,2.255.609,1.552,0,3.064-.802,3.899-2.238,1.248-2.145.517-4.906-1.628-6.154-.71-.413-1.488-.609-2.255-.609h0Z"/><path class="cls-1" d="M52.381,17.812c.899,0,1.733.482,2.178,1.257.331.578.417,1.252.242,1.898-.175.646-.59,1.184-1.168,1.515-.382.219-.798.33-1.236.33-.899,0-1.733-.481-2.177-1.256-.331-.578-.417-1.252-.242-1.898.175-.646.59-1.184,1.168-1.516.377-.216.804-.33,1.236-.33M52.381,15.812c-.758,0-1.527.192-2.231.595-2.153,1.234-2.901,3.99-1.667,6.144.831,1.449,2.351,2.262,3.913,2.262.759,0,1.527-.192,2.231-.595,2.153-1.234,2.901-3.99,1.667-6.143-.831-1.449-2.351-2.262-3.913-2.262h0Z"/><path class="cls-1" d="M52.321,41.315c.437,0,.87.117,1.25.338,1.192.693,1.598,2.227.905,3.419-.446.767-1.277,1.243-2.17,1.243-.437,0-.869-.117-1.25-.338-1.192-.693-1.598-2.227-.905-3.419.446-.767,1.277-1.243,2.17-1.243M52.321,39.315c-1.552,0-3.064.802-3.899,2.237-1.248,2.145-.517,4.906,1.629,6.154.71.413,1.488.609,2.255.609,1.552,0,3.064-.802,3.898-2.237,1.248-2.146.517-4.906-1.628-6.154-.71-.413-1.488-.609-2.255-.609h0Z"/><path class="cls-1" d="M43.677,49.887c.899,0,1.733.481,2.178,1.257.686,1.196.27,2.728-.926,3.414-.382.219-.798.33-1.236.33-.899,0-1.733-.481-2.177-1.256-.331-.578-.417-1.252-.242-1.898.175-.646.59-1.184,1.168-1.516.377-.216.805-.33,1.236-.33M43.677,47.887c-.759,0-1.527.192-2.231.595-2.153,1.234-2.901,3.99-1.667,6.144.831,1.449,2.351,2.262,3.912,2.262.759,0,1.527-.192,2.231-.595,2.153-1.234,2.901-3.99,1.667-6.143-.831-1.449-2.351-2.262-3.913-2.262h0Z"/><path class="cls-1" d="M20.193,49.814c.437,0,.869.117,1.25.338.576.335.987.876,1.159,1.523.171.647.081,1.321-.254,1.897-.446.767-1.277,1.243-2.169,1.243-.437,0-.87-.117-1.25-.338-1.192-.693-1.598-2.227-.905-3.419.446-.767,1.277-1.243,2.17-1.243M20.193,47.814c-1.552,0-3.064.802-3.899,2.238-1.248,2.145-.517,4.906,1.628,6.154.71.413,1.488.609,2.255.609,1.552,0,3.064-.802,3.898-2.237,1.248-2.145.517-4.906-1.628-6.154-.71-.413-1.487-.609-2.255-.609h0Z"/><path class="cls-1" d="M11.604,41.187c.899,0,1.733.481,2.177,1.256.686,1.197.27,2.728-.926,3.414-.377.216-.804.33-1.236.33-.899,0-1.733-.482-2.177-1.257-.686-1.196-.27-2.728.926-3.414.382-.219.798-.33,1.236-.33M11.604,39.187c-.759,0-1.527.192-2.231.595-2.153,1.234-2.901,3.99-1.667,6.143.831,1.449,2.351,2.262,3.913,2.262.758,0,1.527-.192,2.231-.595,2.153-1.234,2.901-3.99,1.667-6.144-.831-1.449-2.351-2.262-3.913-2.262h0Z"/><path class="cls-1" d="M11.694,17.685c.437,0,.869.117,1.25.338,1.192.693,1.598,2.227.905,3.419-.446.767-1.277,1.243-2.17,1.243-.437,0-.87-.117-1.25-.338-.576-.335-.987-.876-1.158-1.523-.171-.647-.081-1.321.254-1.897.446-.767,1.277-1.243,2.17-1.243M11.694,15.685c-1.552,0-3.064.802-3.898,2.237-1.248,2.146-.517,4.906,1.628,6.154.71.413,1.488.609,2.255.609,1.552,0,3.064-.802,3.899-2.237,1.248-2.145.517-4.906-1.629-6.154-.71-.413-1.487-.609-2.255-.609h0Z"/><path class="cls-1" d="M20.308,9.112c.899,0,1.733.481,2.177,1.256.686,1.197.27,2.728-.926,3.414-.377.216-.805.33-1.236.33-.899,0-1.733-.481-2.178-1.257-.331-.578-.417-1.252-.242-1.898.175-.646.59-1.184,1.168-1.516.382-.219.798-.33,1.236-.33M20.308,7.112c-.759,0-1.527.192-2.231.595-2.153,1.234-2.901,3.99-1.667,6.143.831,1.449,2.351,2.262,3.913,2.262.759,0,1.527-.192,2.231-.595,2.153-1.234,2.901-3.99,1.667-6.144-.831-1.449-2.351-2.262-3.913-2.262h0Z"/><path class="cls-1" d="M31.936,53c.437,0,.869.117,1.25.338.576.335.987.876,1.159,1.523.171.647.081,1.321-.254,1.897-.446.767-1.277,1.243-2.169,1.243-.437,0-.87-.117-1.25-.338-.576-.335-.987-.876-1.159-1.523-.171-.647-.081-1.321.254-1.896.446-.767,1.277-1.243,2.17-1.243M31.936,51c-1.552,0-3.064.802-3.899,2.238-1.248,2.145-.517,4.906,1.628,6.154.71.413,1.488.609,2.255.609,1.552,0,3.063-.802,3.898-2.237,1.248-2.145.517-4.906-1.628-6.154-.71-.413-1.487-.609-2.255-.609h0Z"/><path class="cls-1" d="M8.508,29.5c.437,0,.869.117,1.25.338.576.335.987.876,1.159,1.523.171.647.081,1.321-.254,1.897-.446.767-1.277,1.243-2.169,1.243-.437,0-.87-.117-1.25-.338-.576-.335-.987-.876-1.159-1.523-.171-.647-.081-1.321.254-1.896.446-.767,1.277-1.243,2.17-1.243M8.508,27.5c-1.552,0-3.064.802-3.899,2.238-1.248,2.146-.517,4.906,1.628,6.154.71.413,1.488.609,2.255.609,1.552,0,3.064-.802,3.898-2.237,1.248-2.145.517-4.906-1.628-6.154-.71-.413-1.487-.609-2.255-.609h0Z"/><path class="cls-1" d="M55.508,29.5c.437,0,.869.117,1.25.338.576.335.987.876,1.159,1.523.171.647.081,1.321-.254,1.897-.446.767-1.277,1.243-2.169,1.243-.437,0-.87-.117-1.25-.338-.576-.335-.987-.876-1.159-1.523-.171-.647-.081-1.321.254-1.896.446-.767,1.277-1.243,2.17-1.243M55.508,27.5c-1.552,0-3.064.802-3.899,2.238-1.248,2.146-.517,4.906,1.628,6.154.71.413,1.488.609,2.255.609,1.552,0,3.063-.802,3.898-2.237,1.248-2.145.517-4.906-1.628-6.154-.71-.413-1.488-.609-2.255-.609h0Z"/><path class="cls-1" d="M31.936,6c.437,0,.869.117,1.25.338.576.335.987.876,1.159,1.523.171.647.081,1.321-.254,1.897-.446.767-1.277,1.243-2.169,1.243-.437,0-.87-.117-1.25-.338-.576-.335-.987-.876-1.159-1.523-.171-.647-.081-1.321.254-1.896.446-.767,1.277-1.243,2.17-1.243M31.936,4c-1.552,0-3.064.802-3.899,2.238-1.248,2.145-.517,4.906,1.628,6.154.71.413,1.488.609,2.255.609,1.552,0,3.063-.802,3.898-2.237,1.248-2.145.517-4.906-1.628-6.154-.71-.413-1.487-.609-2.255-.609h0Z"/></svg>