<?xml version="1.0" encoding="UTF-8"?><svg id="Icons" xmlns="http://www.w3.org/2000/svg" viewBox="0 0 64 64"><defs><style>.cls-1{fill:#41b658;}.cls-2{fill:#c66a1e;}.cls-3{fill:#3ba755;}.cls-4{fill:#3a49da;}.cls-4,.cls-5{opacity:.2;}.cls-6{fill:#90d0fe;}.cls-7{fill:#7526e3;}.cls-8{fill:#45c65a;opacity:.7;}.cls-9{fill:#fe9339;}.cls-10{fill:#107cad;}.cls-11{fill:#002775;}.cls-12{fill:#fff;}.cls-13{fill:#01c3b3;}.cls-14{fill:#5a1ba9;}.cls-15{fill:#2e0039;}.cls-16{fill:#03234d;}.cls-5,.cls-17{fill:#0d9dda;}.cls-18{fill:#f38303;}.cls-19{fill:#e4a201;}.cls-20{fill:#ff538a;}.cls-21{fill:#7f8ced;}.cls-22{fill:#04e1cb;}.cls-23{fill:#481a54;}.cls-24{fill:#fcc003;}.cls-25{fill:#e3066a;}.cls-26{fill:#91db8b;}</style></defs><path class="cls-17" d="M32.089,4c-2.482-.008-4.507,2.005-4.514,4.486-.008,2.481,2.005,4.507,4.486,4.515s4.506-2.005,4.514-4.486c.008-2.481-2.005-4.506-4.486-4.514Z"/><path class="cls-22" d="M46.078,7.795c-2.146-1.248-4.906-.517-6.154,1.628-1.248,2.145-.517,4.906,1.628,6.154,2.145,1.248,4.906.517,6.154-1.629,1.248-2.145.517-4.906-1.628-6.154Z"/><path class="cls-20" d="M56.294,18.074c-1.234-2.153-3.99-2.901-6.143-1.667-2.153,1.234-2.901,3.99-1.667,6.144,1.234,2.153,3.99,2.901,6.144,1.667,2.153-1.234,2.901-3.99,1.667-6.143Z"/><path class="cls-2" d="M52.869,28.434c-.329.694-.514,1.471-.517,2.29-.009,2.887,2.252,5.251,5.103,5.401-.597.29-1.268.452-1.976.45-2.482-.008-4.487-2.026-4.479-4.507.005-1.497.741-2.821,1.869-3.634Z"/><path class="cls-9" d="M60,32.089c.008-2.482-2.005-4.507-4.486-4.514-2.481-.008-4.507,2.005-4.515,4.486-.008,2.481,2.005,4.506,4.486,4.514s4.506-2.005,4.514-4.486Z"/><path class="cls-1" d="M56.205,46.078c1.248-2.146.517-4.906-1.628-6.154-2.145-1.248-4.906-.517-6.154,1.628-1.248,2.145-.517,4.906,1.629,6.154,2.145,1.248,4.906.517,6.154-1.628Z"/><path class="cls-6" d="M45.923,56.293c2.153-1.234,2.901-3.99,1.667-6.143s-3.99-2.901-6.144-1.667c-2.153,1.234-2.901,3.99-1.667,6.144s3.99,2.901,6.143,1.667Z"/><path class="cls-23" d="M31.914,60c2.482.008,4.507-2.005,4.514-4.486.008-2.481-2.005-4.507-4.486-4.515-2.481-.008-4.506,2.005-4.514,4.486s2.005,4.506,4.486,4.514Z"/><path class="cls-26" d="M17.922,56.205c2.146,1.248,4.906.517,6.154-1.628s.517-4.906-1.628-6.154c-2.145-1.248-4.906-.517-6.154,1.629-1.248,2.145-.517,4.906,1.628,6.154Z"/><path class="cls-11" d="M7.706,45.926c1.234,2.153,3.99,2.901,6.143,1.667s2.901-3.99,1.667-6.144c-1.234-2.153-3.99-2.901-6.144-1.667-2.153,1.234-2.901,3.99-1.667,6.143Z"/><path class="cls-7" d="M4,31.914c-.008,2.482,2.005,4.507,4.486,4.514,2.481.008,4.507-2.005,4.515-4.486.008-2.481-2.005-4.506-4.486-4.514-2.481-.008-4.506,2.005-4.514,4.486Z"/><path class="cls-21" d="M7.795,17.922c-1.248,2.146-.517,4.906,1.628,6.154s4.906.517,6.154-1.628.517-4.906-1.629-6.154-4.906-.517-6.154,1.628Z"/><path class="cls-24" d="M18.078,7.707c-2.153,1.234-2.901,3.99-1.667,6.143,1.234,2.153,3.99,2.901,6.144,1.667s2.901-3.99,1.667-6.144c-1.234-2.153-3.99-2.901-6.143-1.667Z"/><path class="cls-12" d="M44.227,8.16c1.248-.107,2.75,1.437,2.948,2.475.07.369-.22.761-.623.038-.491-.88-1.554-1.571-2.455-1.981-.259-.118-.284-.476-.002-.517.043-.006.087-.011.132-.015Z"/><path class="cls-12" d="M52.714,17.154c1.248-.107,2.75,1.437,2.948,2.475.07.369-.22.761-.623.038-.491-.88-1.554-1.571-2.455-1.981-.259-.118-.284-.476-.002-.517.043-.006.087-.011.132-.015Z"/><path class="cls-12" d="M55.797,28.678c1.248-.107,2.75,1.437,2.948,2.475.07.369-.22.761-.623.038-.491-.88-1.554-1.571-2.455-1.981-.259-.118-.284-.476-.002-.517.043-.006.087-.011.132-.015Z"/><path class="cls-12" d="M32.34,4.948c1.248-.107,2.75,1.437,2.948,2.475.07.369-.22.761-.623.038-.491-.88-1.554-1.571-2.455-1.981-.259-.118-.284-.476-.002-.517.043-.006.087-.011.132-.015Z"/><path class="cls-12" d="M20.577,8.22c1.248-.107,2.75,1.437,2.948,2.475.07.369-.22.761-.623.038-.491-.88-1.554-1.571-2.455-1.981-.259-.118-.284-.476-.002-.517.043-.006.087-.011.132-.015Z"/><path class="cls-12" d="M11.949,16.809c1.248-.107,2.75,1.437,2.948,2.475.07.369-.22.761-.623.038-.491-.88-1.554-1.571-2.455-1.981-.259-.118-.284-.476-.002-.517.043-.006.087-.011.132-.015Z"/><path class="cls-12" d="M8.594,28.53c1.248-.107,2.75,1.437,2.948,2.475.07.369-.22.761-.623.038-.491-.88-1.554-1.571-2.455-1.981-.259-.118-.284-.476-.002-.517.043-.006.087-.011.132-.015Z"/><path class="cls-12" d="M11.876,40.279c1.248-.107,2.75,1.437,2.948,2.475.07.369-.22.761-.623.038-.491-.88-1.554-1.571-2.455-1.981-.259-.118-.284-.476-.002-.517.043-.006.087-.011.132-.015Z"/><path class="cls-12" d="M20.449,49.262c1.248-.107,2.75,1.437,2.948,2.475.07.369-.22.761-.623.038-.491-.88-1.554-1.571-2.455-1.981-.259-.118-.284-.476-.002-.517.043-.006.087-.011.132-.015Z"/><path class="cls-12" d="M32.191,52.541c1.248-.107,2.75,1.437,2.948,2.475.07.369-.22.761-.623.038-.491-.88-1.554-1.571-2.455-1.981-.259-.118-.284-.476-.002-.517.043-.006.087-.011.132-.015Z"/><path class="cls-12" d="M43.779,48.994c1.248-.107,2.75,1.437,2.948,2.475.07.369-.22.761-.623.038-.491-.88-1.554-1.571-2.455-1.981-.259-.118-.284-.476-.002-.517.043-.006.087-.011.132-.015Z"/><path class="cls-12" d="M52.391,40.405c1.248-.107,2.75,1.437,2.948,2.475.07.369-.22.761-.623.038-.491-.88-1.554-1.571-2.455-1.981-.259-.118-.284-.476-.002-.517.043-.006.087-.011.132-.015Z"/><path class="cls-10" d="M29.652,6.838c.003-.934.292-1.8.783-2.519-1.666.656-2.854,2.27-2.86,4.167-.008,2.481,2.005,4.507,4.486,4.515,1.548.005,2.917-.777,3.731-1.967-.514.202-1.069.321-1.654.319-2.481-.008-4.494-2.033-4.486-4.515Z"/><path class="cls-13" d="M41.552,15.577c2.049,1.192,4.645.563,5.962-1.365-1.233.478-2.657.431-3.885-.284-2.146-1.248-2.876-4.009-1.628-6.154.056-.096.13-.173.191-.264-.919.356-1.735.995-2.268,1.912-1.248,2.145-.517,4.906,1.628,6.154Z"/><path class="cls-25" d="M50.561,20.903c-.885-1.543-.737-3.388.203-4.769-.207.081-.415.16-.613.274-2.153,1.234-2.901,3.99-1.667,6.144,1.234,2.153,3.99,2.901,6.144,1.667.61-.35,1.093-.829,1.464-1.375-2.039.793-4.41.015-5.531-1.94Z"/><path class="cls-18" d="M53.672,32.665c-.885-1.543-.737-3.388.203-4.769-.207.081-.415.16-.613.274-2.153,1.234-2.901,3.99-1.667,6.144,1.234,2.153,3.99,2.901,6.144,1.667.61-.35,1.093-.829,1.464-1.375-2.039.793-4.41.015-5.531-1.94Z"/><path class="cls-3" d="M52.128,46.057c-2.146-1.248-2.876-4.008-1.628-6.154.056-.096.13-.173.191-.264-.919.356-1.735.996-2.268,1.912-1.248,2.145-.517,4.906,1.628,6.154,2.05,1.192,4.645.563,5.962-1.364-1.233.477-2.656.431-3.885-.284Z"/><path class="cls-5" d="M41.857,52.978c-.885-1.543-.737-3.388.203-4.769-.207.081-.415.16-.613.274-2.153,1.234-2.901,3.99-1.667,6.144,1.234,2.153,3.99,2.901,6.143,1.667.61-.35,1.093-.829,1.464-1.375-2.039.793-4.41.015-5.53-1.94Z"/><path class="cls-15" d="M29.505,53.837c.003-.934.292-1.801.783-2.519-1.666.656-2.854,2.271-2.86,4.167-.008,2.481,2.005,4.506,4.486,4.514,1.548.005,2.917-.777,3.731-1.967-.514.202-1.07.321-1.654.319-2.481-.008-4.494-2.033-4.486-4.514Z"/><path class="cls-8" d="M19.999,54.556c-2.146-1.248-2.876-4.008-1.628-6.154.056-.096.13-.174.191-.264-.919.356-1.735.996-2.268,1.912-1.248,2.146-.517,4.906,1.628,6.154,2.05,1.192,4.645.563,5.963-1.364-1.233.477-2.657.431-3.886-.284Z"/><path class="cls-16" d="M9.783,44.277c-.885-1.543-.737-3.388.203-4.768-.207.081-.415.16-.613.274-2.153,1.234-2.901,3.99-1.667,6.143,1.234,2.153,3.99,2.901,6.143,1.667.61-.35,1.093-.829,1.464-1.375-2.039.793-4.41.014-5.53-1.941Z"/><path class="cls-14" d="M12.217,34.461c-.514.202-1.069.321-1.654.319-2.481-.008-4.494-2.033-4.486-4.514.003-.934.292-1.8.783-2.519-1.666.656-2.854,2.271-2.86,4.167-.008,2.482,2.004,4.507,4.486,4.514,1.548.005,2.917-.777,3.731-1.967Z"/><path class="cls-4" d="M9.423,24.076c2.05,1.192,4.646.563,5.963-1.365-1.233.478-2.657.431-3.886-.284-2.146-1.248-2.876-4.008-1.628-6.154.056-.096.13-.173.191-.264-.919.356-1.735.996-2.268,1.912-1.248,2.146-.517,4.906,1.628,6.154Z"/><path class="cls-19" d="M18.488,12.202c-.885-1.543-.736-3.388.203-4.768-.207.081-.415.16-.613.274-2.153,1.234-2.901,3.99-1.667,6.143,1.234,2.153,3.99,2.901,6.144,1.667.61-.35,1.093-.829,1.464-1.375-2.039.793-4.41.014-5.531-1.94Z"/></svg>