<?xml version="1.0" encoding="UTF-8"?><svg id="Icons" xmlns="http://www.w3.org/2000/svg" viewBox="0 0 64 64"><defs><style>.cls-1{fill:#fff;}</style></defs><path class="cls-1" d="M32.089,4c-2.482-.008-4.507,2.005-4.514,4.486-.008,2.481,2.005,4.507,4.486,4.515s4.506-2.005,4.514-4.486c.008-2.481-2.005-4.506-4.486-4.514Z"/><path class="cls-1" d="M46.078,7.795c-2.146-1.248-4.906-.517-6.154,1.628-1.248,2.145-.517,4.906,1.628,6.154,2.145,1.248,4.906.517,6.154-1.629,1.248-2.145.517-4.906-1.628-6.154Z"/><path class="cls-1" d="M56.294,18.074c-1.234-2.153-3.99-2.901-6.143-1.667-2.153,1.234-2.901,3.99-1.667,6.144,1.234,2.153,3.99,2.901,6.144,1.667,2.153-1.234,2.901-3.99,1.667-6.143Z"/><path class="cls-1" d="M60,32.089c.008-2.482-2.005-4.507-4.486-4.514-2.481-.008-4.507,2.005-4.515,4.486-.008,2.481,2.005,4.506,4.486,4.514s4.506-2.005,4.514-4.486Z"/><path class="cls-1" d="M56.205,46.078c1.248-2.146.517-4.906-1.628-6.154-2.145-1.248-4.906-.517-6.154,1.628-1.248,2.145-.517,4.906,1.629,6.154,2.145,1.248,4.906.517,6.154-1.628Z"/><path class="cls-1" d="M45.923,56.293c2.153-1.234,2.901-3.99,1.667-6.143s-3.99-2.901-6.144-1.667c-2.153,1.234-2.901,3.99-1.667,6.144s3.99,2.901,6.143,1.667Z"/><path class="cls-1" d="M31.914,60c2.482.008,4.507-2.005,4.514-4.486.008-2.481-2.005-4.507-4.486-4.515-2.481-.008-4.506,2.005-4.514,4.486s2.005,4.506,4.486,4.514Z"/><path class="cls-1" d="M17.922,56.205c2.146,1.248,4.906.517,6.154-1.628s.517-4.906-1.628-6.154c-2.145-1.248-4.906-.517-6.154,1.629-1.248,2.145-.517,4.906,1.628,6.154Z"/><path class="cls-1" d="M7.706,45.926c1.234,2.153,3.99,2.901,6.143,1.667s2.901-3.99,1.667-6.144c-1.234-2.153-3.99-2.901-6.144-1.667-2.153,1.234-2.901,3.99-1.667,6.143Z"/><path class="cls-1" d="M4,31.914c-.008,2.482,2.005,4.507,4.486,4.514,2.481.008,4.507-2.005,4.515-4.486s-2.005-4.506-4.486-4.514c-2.481-.008-4.506,2.005-4.514,4.486Z"/><path class="cls-1" d="M7.795,17.922c-1.248,2.146-.517,4.906,1.628,6.154s4.906.517,6.154-1.628.517-4.906-1.629-6.154-4.906-.517-6.154,1.628Z"/><path class="cls-1" d="M18.078,7.707c-2.153,1.234-2.901,3.99-1.667,6.143,1.234,2.153,3.99,2.901,6.144,1.667s2.901-3.99,1.667-6.144c-1.234-2.153-3.99-2.901-6.143-1.667Z"/></svg>