<?xml version="1.0" encoding="UTF-8"?><svg id="Icons" xmlns="http://www.w3.org/2000/svg" viewBox="0 0 64 64"><defs><style>.cls-1{fill:#001e5b;}.cls-2{fill:#fff;}.cls-3{fill:#05628a;}.cls-4{fill:#0d9dda;}</style></defs><path class="cls-1" d="M60,52.724c0,2.887-2.645,5.046-5.494,4.576-8.117-1.338-13.867-2.035-22.363-2.035s-14.532.696-22.649,2.035c-2.848.47-5.494-1.689-5.494-4.576V11.276c0-2.887,2.645-5.046,5.494-4.576,8.117,1.338,14.153,2.035,22.649,2.035s14.246-.696,22.363-2.035c2.848-.47,5.494,1.689,5.494,4.576v41.447Z"/><path class="cls-4" d="M60,20.901v31.822c0,2.887-2.645,5.046-5.494,4.576-8.117-1.338-13.867-2.035-22.363-2.035s-14.532.696-22.649,2.035c-2.848.47-5.494-1.689-5.494-4.576v-31.822"/><path class="cls-3" d="M50.267,56.631c-6.068-.901-11.178-1.366-18.123-1.366-8.497,0-14.532.696-22.649,2.035-2.848.47-5.494-1.689-5.494-4.576v-28.822s1.804,15.231,13.163,22.53c7.314,4.7,34.459,10.401,33.104,10.2Z"/><path class="cls-2" d="M55.938,10.014c.425-.067.775.117.915.382.121.197.174.457.117.728-.269,1.284-.479,2.682-.61,4.15-.053.588-.684.93-1.091.502-.264-.278-.485-.597-.653-.943-.351-.658-.55-1.103-1.29-1.53-.585-.338-1.565-.401-2.293-.444-1.251-.047-2.379-.347-3.242-.834-.692-.391-.309-1.222.485-1.253,1.512-.059,3.116-.18,4.772-.367.989-.112,1.955-.243,2.889-.391Z"/><path class="cls-2" d="M17.165,50.339c-.744,0-1.48-.33-1.973-.962-.849-1.089-.655-2.66.434-3.51l9.827-7.665-9.827-7.664c-1.089-.85-1.283-2.421-.434-3.509.849-1.089,2.42-1.282,3.509-.435l12.354,9.636c.607.474.962,1.201.962,1.972s-.355,1.497-.962,1.972l-12.354,9.637c-.457.355-.999.528-1.536.528Z"/><path class="cls-2" d="M46.837,50.339h-13.592c-1.381,0-2.5-1.119-2.5-2.5s1.119-2.5,2.5-2.5h13.592c1.381,0,2.5,1.119,2.5,2.5s-1.119,2.5-2.5,2.5Z"/><circle class="cls-2" cx="10.703" cy="15.009" r="2.01"/><circle class="cls-2" cx="17.017" cy="15.009" r="2.01"/><circle class="cls-2" cx="23.33" cy="15.009" r="2.01"/></svg>