<?xml version="1.0" encoding="UTF-8"?><svg id="Icons" xmlns="http://www.w3.org/2000/svg" viewBox="0 0 64 64"><defs><style>.cls-1{fill:#001e5b;}</style></defs><path class="cls-1" d="M17.165,50.339c-.744,0-1.48-.33-1.973-.962-.849-1.089-.655-2.66.434-3.51l9.827-7.665-9.827-7.664c-1.089-.85-1.283-2.421-.434-3.509.849-1.089,2.42-1.282,3.509-.435l12.354,9.636c.607.474.962,1.201.962,1.972s-.355,1.497-.962,1.972l-12.354,9.637c-.457.355-.999.528-1.536.528Z"/><path class="cls-1" d="M46.837,50.339h-13.592c-1.381,0-2.5-1.119-2.5-2.5s1.119-2.5,2.5-2.5h13.592c1.381,0,2.5,1.119,2.5,2.5s-1.119,2.5-2.5,2.5Z"/><circle class="cls-1" cx="10.703" cy="15.009" r="2.01"/><circle class="cls-1" cx="17.017" cy="15.009" r="2.01"/><circle class="cls-1" cx="23.33" cy="15.009" r="2.01"/><path class="cls-1" d="M55.289,6.636c-.258,0-.52.021-.783.064-8.117,1.338-13.866,2.035-22.363,2.035s-14.532-.696-22.649-2.035c-.263-.043-.525-.064-.783-.064-2.532,0-4.711,2.021-4.711,4.64v41.447c0,2.62,2.179,4.641,4.711,4.641.258,0,.52-.021.783-.064,8.117-1.338,14.153-2.035,22.649-2.035s14.246.696,22.363,2.035c.263.043.525.064.783.064,2.532,0,4.711-2.021,4.711-4.641V11.276c0-2.62-2.179-4.641-4.711-4.641ZM8.711,8.636c.152,0,.305.013.457.038,7.917,1.305,14.215,2.061,22.975,2.061,8.612,0,14.397-.694,22.688-2.061.152-.025.306-.038.458-.038,1.495,0,2.711,1.185,2.711,2.641v8.625H6v-8.625c0-1.456,1.216-2.64,2.711-2.64ZM55.289,55.364c-.152,0-.305-.013-.457-.038-8.292-1.367-14.078-2.061-22.688-2.061-8.759,0-15.057.756-22.975,2.061-.152.025-.306.038-.457.038-1.495,0-2.711-1.184-2.711-2.641v-30.822h52v30.822c0,1.456-1.216,2.641-2.711,2.641Z"/></svg>