<?xml version="1.0" encoding="UTF-8"?><svg id="Icons" xmlns="http://www.w3.org/2000/svg" viewBox="0 0 64 64"><defs><style>.cls-1{fill:#0d9dda;}</style></defs><path class="cls-1" d="M60,19.902v-8.625c0-2.887-2.646-5.046-5.494-4.576-8.117,1.338-13.866,2.035-22.363,2.035s-14.532-.696-22.649-2.035c-2.848-.47-5.494,1.689-5.494,4.576v8.625h56ZM23.33,12.998c1.11,0,2.01.9,2.01,2.01s-.9,2.01-2.01,2.01-2.01-.9-2.01-2.01.9-2.01,2.01-2.01ZM17.017,12.998c1.11,0,2.01.9,2.01,2.01s-.9,2.01-2.01,2.01-2.01-.9-2.01-2.01.9-2.01,2.01-2.01ZM10.704,12.998c1.11,0,2.01.9,2.01,2.01s-.9,2.01-2.01,2.01-2.01-.9-2.01-2.01.9-2.01,2.01-2.01Z"/><path class="cls-1" d="M4,21.902v30.822c0,2.887,2.646,5.046,5.494,4.576,8.117-1.338,14.153-2.035,22.649-2.035s14.246.696,22.363,2.035c2.848.47,5.494-1.689,5.494-4.576v-30.822H4ZM17.165,50.339c-.744,0-1.48-.33-1.973-.962-.849-1.089-.655-2.66.434-3.51l9.827-7.665-9.827-7.664c-1.089-.85-1.283-2.421-.434-3.509.849-1.089,2.42-1.282,3.509-.435l12.354,9.636c.607.474.962,1.201.962,1.972s-.355,1.497-.962,1.972l-12.354,9.637c-.457.355-.999.528-1.536.528ZM46.837,50.339h-13.592c-1.381,0-2.5-1.119-2.5-2.5s1.119-2.5,2.5-2.5h13.592c1.381,0,2.5,1.119,2.5,2.5s-1.119,2.5-2.5,2.5Z"/></svg>